<?xml version="1.0" encoding="utf-8"?>
<!-- Generator: Adobe Illustrator 27.8.1, SVG Export Plug-In . SVG Version: 6.00 Build 0)  -->
<svg version="1.1" id="圖層_1" xmlns="http://www.w3.org/2000/svg" xmlns:xlink="http://www.w3.org/1999/xlink" x="0px" y="0px"
	 viewBox="0 0 30 30" style="enable-background:new 0 0 30 30;" xml:space="preserve">
<style type="text/css">
	.st0{fill:#896936;}
</style>
<g>
	<g>
		<g>
			<path class="st0" d="M15,16.8c4.6,0,8.3-3.7,8.3-8.3S19.6,0.2,15,0.2S6.7,3.9,6.7,8.5C6.7,13.1,10.4,16.8,15,16.8z M15,2.8
				c3.2,0,5.7,2.6,5.7,5.7c0,3.2-2.6,5.7-5.7,5.7c-3.2,0-5.7-2.6-5.7-5.7C9.3,5.3,11.9,2.8,15,2.8z"/>
		</g>
	</g>
	<g>
		<path class="st0" d="M28.2,29.8H1.8c-0.7,0-1.4-0.6-1.4-1.4v-4.6c0-3.2,2.6-5.7,5.7-5.7h3.1c0.7,0,1.4,0.6,1.4,1.4
			c0,0.7-0.6,1.4-1.4,1.4h-3c-1.7,0-3,1.3-3,3v3.3h23.7v-3.3c0-1.7-1.3-3-3-3h-3.1c-0.7,0-1.4-0.6-1.4-1.4c0-0.7,0.6-1.4,1.4-1.4
			h3.1c3.2,0,5.7,2.6,5.7,5.7v4.6C29.6,29.2,29,29.8,28.2,29.8z"/>
	</g>
</g>
</svg>
