<?xml version="1.0" encoding="utf-8"?>
<!-- Generator: Adobe Illustrator 27.8.1, SVG Export Plug-In . SVG Version: 6.00 Build 0)  -->
<svg version="1.1" id="圖層_1" xmlns="http://www.w3.org/2000/svg" xmlns:xlink="http://www.w3.org/1999/xlink" x="0px" y="0px"
	 viewBox="0 0 30 30" style="enable-background:new 0 0 30 30;" xml:space="preserve">
<style type="text/css">
	.st0{fill:#FFFFFF;}
</style>
<g>
	<path class="st0" d="M21.8,10.7H10.3c-0.3,0-0.6-0.3-0.6-0.6c0-0.3,0.3-0.6,0.6-0.6h11.6c0.3,0,0.6,0.3,0.6,0.6
		C22.4,10.4,22.2,10.7,21.8,10.7z"/>
	<path class="st0" d="M21.8,14H11.6c-0.3,0-0.6-0.3-0.6-0.6c0-0.3,0.3-0.6,0.6-0.6h10.3c0.3,0,0.6,0.3,0.6,0.6
		C22.4,13.7,22.2,14,21.8,14z"/>
	<path class="st0" d="M21.8,17.3H10.3c-0.3,0-0.6-0.3-0.6-0.6c0-0.3,0.3-0.6,0.6-0.6h11.6c0.3,0,0.6,0.3,0.6,0.6
		C22.4,17,22.2,17.3,21.8,17.3z"/>
	<path class="st0" d="M13.6,20.6h-3.4c-0.3,0-0.6-0.3-0.6-0.6c0-0.3,0.3-0.6,0.6-0.6h3.4c0.3,0,0.6,0.3,0.6,0.6
		C14.2,20.3,13.9,20.6,13.6,20.6z"/>
	<path class="st0" d="M13.6,17.3c-0.1,0-0.1,0-0.2,0l-1.3-0.5c-0.7-0.3-1.4-0.7-1.9-1.3L1.3,6.7C1,6.4,0.8,6,0.8,5.6
		c0-0.4,0.2-0.8,0.4-1C1.8,4,2.8,4,3.3,4.6l8.9,8.7c0.6,0.5,1,1.2,1.3,1.9l0.5,1.3c0.1,0.2,0,0.5-0.1,0.6
		C13.9,17.2,13.8,17.3,13.6,17.3z M2.1,5.4C2,5.4,1.9,5.5,1.9,5.6c0,0.1,0,0.2,0.1,0.2l8.9,8.7c0.5,0.4,1,0.8,1.6,1
		c-0.3-0.6-0.6-1.1-1.1-1.5L2.6,5.4C2.4,5.2,2.2,5.2,2.1,5.4L2.1,5.4z"/>
	<path class="st0" d="M24.2,20.1c-0.3,0-0.6-0.3-0.6-0.6V7.7H9.9c-0.3,0-0.6-0.3-0.6-0.6v-2c0-0.3,0.3-0.6,0.6-0.6h16.3
		c0.3,0,0.6,0.3,0.6,0.6v12.4c0,0.3-0.3,0.6-0.6,0.6c-0.3,0-0.6-0.3-0.6-0.6V5.6H10.4v0.9h13.8c0.3,0,0.6,0.3,0.6,0.6v12.4
		C24.8,19.9,24.5,20.1,24.2,20.1z"/>
	<path class="st0" d="M26.2,26.3h-2c-0.3,0-0.6-0.3-0.6-0.6v-3.6c0-0.3,0.3-0.6,0.6-0.6c0.3,0,0.6,0.3,0.6,0.6v3h0.9v-5.1
		c0-0.3,0.3-0.6,0.6-0.6c0.3,0,0.6,0.3,0.6,0.6v5.6C26.8,26.1,26.5,26.3,26.2,26.3z"/>
	<path class="st0" d="M28.2,24.3h-2c-0.3,0-0.6-0.3-0.6-0.6V5.6H11.9c-0.3,0-0.6-0.3-0.6-0.6v-2c0-0.3,0.3-0.6,0.6-0.6h16.3
		c0.3,0,0.6,0.3,0.6,0.6v20.7C28.8,24,28.5,24.3,28.2,24.3z M26.8,23.2h0.9V3.6H12.4v0.9h13.8c0.3,0,0.6,0.3,0.6,0.6V23.2z"/>
	<path class="st0" d="M20,26.1c-0.3,0-0.6-0.1-0.8-0.3c-0.1-0.1-0.2-0.1-0.4,0c-0.5,0.3-1.1,0.4-1.5,0.1c-0.5-0.3-0.8-0.8-0.7-1.4
		c0-0.1-0.1-0.3-0.2-0.3c-0.5-0.2-0.8-0.7-0.8-1.3s0.3-1.1,0.8-1.3c0.1-0.1,0.2-0.2,0.2-0.3c-0.1-0.6,0.2-1.1,0.7-1.4
		c0.5-0.3,1.1-0.3,1.5,0.1c0.1,0.1,0.2,0.1,0.4,0c0.5-0.3,1.1-0.4,1.5-0.1c0.5,0.3,0.8,0.8,0.7,1.4c0,0.1,0.1,0.3,0.2,0.3
		c0.5,0.2,0.8,0.7,0.8,1.3s-0.3,1.1-0.8,1.3c-0.1,0.1-0.2,0.2-0.2,0.3c0.1,0.6-0.2,1.1-0.7,1.4C20.4,26,20.2,26.1,20,26.1z
		 M18.9,24.7c0.3,0,0.6,0.1,0.8,0.3c0.1,0.1,0.3,0,0.3,0c0.1,0,0.2-0.1,0.1-0.3c-0.1-0.6,0.3-1.2,0.8-1.5c0.2-0.1,0.2-0.2,0.2-0.3
		c0-0.1,0-0.2-0.2-0.3c-0.6-0.3-0.9-0.8-0.8-1.5c0-0.2-0.1-0.3-0.1-0.3c-0.1,0-0.2-0.1-0.3,0c-0.5,0.4-1.2,0.4-1.7,0
		c-0.1-0.1-0.3,0-0.3,0c-0.1,0-0.2,0.1-0.1,0.3c0.1,0.6-0.3,1.2-0.8,1.5c-0.2,0.1-0.2,0.2-0.2,0.3c0,0.1,0,0.2,0.2,0.3
		c0.6,0.3,0.9,0.8,0.8,1.5c0,0.2,0.1,0.3,0.1,0.3c0.1,0,0.2,0.1,0.3,0C18.4,24.7,18.6,24.7,18.9,24.7z"/>
	<path class="st0" d="M24.2,28.3H7.9c-0.3,0-0.6-0.3-0.6-0.6V12.4c0-0.2,0.1-0.4,0.3-0.5c0.2-0.1,0.4,0,0.6,0.1l2.7,2.6
		c0.5,0.4,1,0.8,1.6,1c-0.3-0.6-0.6-1.1-1.1-1.5l-4-3.9C7.4,10.1,7.3,10,7.3,9.8V7.1c0-0.3,0.3-0.6,0.6-0.6h16.3
		c0.3,0,0.6,0.3,0.6,0.6v20.7C24.8,28.1,24.5,28.3,24.2,28.3z M8.5,27.2h15.2V7.7H8.5v1.9l3.8,3.7c0.6,0.5,1,1.2,1.3,1.9l0.5,1.3
		c0.1,0.2,0,0.5-0.1,0.6c-0.2,0.2-0.4,0.2-0.6,0.1l-1.3-0.5c-0.7-0.3-1.4-0.7-1.9-1.3l-1.7-1.7V27.2z"/>
	<path class="st0" d="M3.3,8.5C3.2,8.5,3,8.4,2.9,8.3c-0.2-0.2-0.2-0.6,0-0.8l1.3-1.3C4.5,6,4.8,6,5,6.2C5.2,6.4,5.2,6.8,5,7
		L3.7,8.3C3.6,8.4,3.5,8.5,3.3,8.5z"/>
</g>
</svg>
