<?xml version="1.0" encoding="utf-8"?>
<!-- Generator: Adobe Illustrator 27.8.1, SVG Export Plug-In . SVG Version: 6.00 Build 0)  -->
<svg version="1.1" id="圖層_1" xmlns="http://www.w3.org/2000/svg" xmlns:xlink="http://www.w3.org/1999/xlink" x="0px" y="0px"
	 viewBox="0 0 30 30" style="enable-background:new 0 0 30 30;" xml:space="preserve">
<style type="text/css">
	.st0{fill:#FFFFFF;}
</style>
<g>
	<path class="st0" d="M14.1,15.4c-0.1,0-0.1,0-0.2,0L8.8,13c-0.2-0.1-0.3-0.4-0.2-0.6l4-8.8c0.1-0.1,0.1-0.2,0.3-0.3
		c0.1,0,0.3,0,0.4,0l5.1,2.3c0.2,0.1,0.3,0.4,0.2,0.6l-4,8.8c-0.1,0.1-0.1,0.2-0.3,0.3C14.2,15.4,14.1,15.4,14.1,15.4z M9.6,12.3
		l4.2,1.9l3.6-7.9l-4.2-1.9L9.6,12.3z"/>
	<path class="st0" d="M19.3,7.3c-0.2,0-0.5,0-0.7-0.2C18.2,7,18,6.8,17.8,6.5l-4.9-2.2c-0.3,0.1-0.7,0-1-0.1c-0.4-0.2-0.7-0.5-0.9-1
		c-0.2-0.4-0.1-0.9,0-1.3c0.4-0.9,1.4-1.3,2.3-0.9c0.3,0.1,0.6,0.4,0.8,0.7L19,3.8c0.3-0.1,0.7,0,1,0.1c0.9,0.4,1.3,1.4,0.9,2.3
		C20.6,6.9,19.9,7.3,19.3,7.3z M12.9,3.2c0.1,0,0.1,0,0.2,0l5.2,2.4c0.1,0,0.2,0.1,0.2,0.2C18.6,6,18.7,6.2,19,6.3
		c0.4,0.2,0.9,0,1-0.4c0.2-0.4,0-0.9-0.4-1c-0.2-0.1-0.4-0.1-0.5,0c-0.1,0-0.2,0-0.3,0l-5.2-2.4c-0.1,0-0.2-0.1-0.2-0.2
		c-0.1-0.1-0.2-0.3-0.4-0.4c-0.4-0.2-0.9,0-1,0.4c-0.1,0.2-0.1,0.4,0,0.6c0.1,0.2,0.2,0.4,0.4,0.4c0.2,0.1,0.4,0.1,0.5,0
		C12.8,3.2,12.9,3.2,12.9,3.2z"/>
	<path class="st0" d="M14.5,17.9c-0.2,0-0.5-0.1-0.7-0.2c-0.3-0.1-0.6-0.4-0.8-0.7l-4.9-2.2c-0.3,0.1-0.7,0-1-0.1
		c-0.4-0.2-0.7-0.5-0.9-1c-0.2-0.4-0.1-0.9,0-1.3c0.2-0.4,0.5-0.7,1-0.9s0.9-0.1,1.3,0c0.3,0.1,0.6,0.4,0.8,0.7l4.9,2.2
		c0.3-0.1,0.7,0,1,0.1c0.4,0.2,0.7,0.5,0.9,1c0.2,0.4,0.1,0.9,0,1.3c-0.2,0.4-0.5,0.7-1,0.9C14.9,17.8,14.7,17.9,14.5,17.9z
		 M8.1,13.8c0.1,0,0.1,0,0.2,0l5.2,2.4c0.1,0,0.2,0.1,0.2,0.2c0.1,0.1,0.2,0.3,0.4,0.4c0.2,0.1,0.4,0.1,0.6,0
		c0.2-0.1,0.4-0.2,0.4-0.4c0.1-0.2,0.1-0.4,0-0.6c-0.1-0.2-0.2-0.4-0.4-0.4c-0.2-0.1-0.4-0.1-0.5,0c-0.1,0-0.2,0-0.3,0L8.7,13
		c-0.1,0-0.2-0.1-0.2-0.2c-0.1-0.1-0.2-0.3-0.4-0.4c-0.2-0.1-0.4-0.1-0.6,0c-0.2,0.1-0.4,0.2-0.4,0.4C7,12.9,7,13.1,7,13.3
		c0.1,0.2,0.2,0.4,0.4,0.4c0.2,0.1,0.4,0.1,0.5,0C8,13.8,8.1,13.8,8.1,13.8z"/>
	<path class="st0" d="M11.2,12.5c-0.1,0-0.1,0-0.2,0c-0.2-0.1-0.4-0.4-0.2-0.6l2-4.4c0.1-0.2,0.4-0.3,0.6-0.2
		c0.2,0.1,0.3,0.4,0.2,0.6l-2,4.4C11.5,12.4,11.3,12.5,11.2,12.5z"/>
	<path class="st0" d="M13.7,11.8c-0.1,0-0.1,0-0.2,0c-0.2-0.1-0.3-0.4-0.2-0.6l2-4.4c0.1-0.2,0.4-0.3,0.6-0.2
		c0.2,0.1,0.3,0.4,0.2,0.6l-2,4.4C14,11.7,13.9,11.8,13.7,11.8z"/>
	<path class="st0" d="M27.4,17.8c-0.3,0-0.6-0.1-0.9-0.2c-0.4-0.2-0.7-0.4-0.9-0.7l-10.3-4.7c-0.2-0.1-0.3-0.4-0.2-0.6L16.2,9
		c0.1-0.1,0.1-0.2,0.3-0.3c0.1,0,0.3,0,0.4,0l10.3,4.7c0.4,0,0.8,0,1.1,0.2c0.5,0.2,1,0.7,1.2,1.2c0.2,0.6,0.2,1.2-0.1,1.7
		c-0.2,0.5-0.7,1-1.2,1.2C27.9,17.8,27.7,17.8,27.4,17.8z M16.1,11.5l10,4.6c0.1,0,0.2,0.1,0.2,0.2c0.1,0.2,0.3,0.4,0.5,0.5
		c0.3,0.1,0.6,0.1,1,0c0.3-0.1,0.6-0.4,0.7-0.7c0.1-0.3,0.1-0.6,0-1c-0.1-0.3-0.4-0.6-0.7-0.7c-0.2-0.1-0.5-0.1-0.7-0.1
		c-0.1,0-0.2,0-0.3,0l-10-4.6L16.1,11.5z"/>
	<path class="st0" d="M26,17c-0.1,0-0.1,0-0.2,0c-0.2-0.1-0.4-0.4-0.2-0.6l0.4-0.8c0.1-0.2,0.4-0.3,0.6-0.2c0.2,0.1,0.4,0.4,0.2,0.6
		l-0.4,0.8C26.3,16.9,26.1,17,26,17z"/>
	<path class="st0" d="M26.8,15.1c-0.1,0-0.1,0-0.2,0c-0.2-0.1-0.4-0.4-0.2-0.6l0.3-0.7c0.1-0.2,0.4-0.3,0.6-0.2
		c0.2,0.1,0.4,0.4,0.2,0.6l-0.3,0.7C27.2,15,27,15.1,26.8,15.1z"/>
	<path class="st0" d="M21,28.7H2.7c-0.3,0-0.5-0.2-0.5-0.5v-2.5c0-1.1,0.9-2,2-2h0.1v-1c0-1.3,1.1-2.4,2.4-2.4H17
		c1.3,0,2.4,1.1,2.4,2.4v1h0.1c1.1,0,2,0.9,2,2v2.5C21.5,28.5,21.3,28.7,21,28.7z M3.2,27.7h17.3v-2c0-0.6-0.5-1-1-1h-0.6
		c-0.3,0-0.5-0.2-0.5-0.5v-1.4c0-0.8-0.6-1.4-1.4-1.4H6.7c-0.8,0-1.4,0.6-1.4,1.4v1.4c0,0.3-0.2,0.5-0.5,0.5H4.2c-0.6,0-1,0.5-1,1
		V27.7z"/>
	<path class="st0" d="M25.1,28.7h-24c-0.3,0-0.5-0.2-0.5-0.5c0-0.3,0.2-0.5,0.5-0.5h24c0.3,0,0.5,0.2,0.5,0.5
		C25.6,28.5,25.4,28.7,25.1,28.7z"/>
	<path class="st0" d="M13,24.7H4.8c-0.3,0-0.5-0.2-0.5-0.5c0-0.3,0.2-0.5,0.5-0.5H13c0.3,0,0.5,0.2,0.5,0.5
		C13.5,24.5,13.3,24.7,13,24.7z"/>
	<path class="st0" d="M18.9,24.7h-4c-0.3,0-0.5-0.2-0.5-0.5c0-0.3,0.2-0.5,0.5-0.5h4c0.3,0,0.5,0.2,0.5,0.5
		C19.4,24.5,19.2,24.7,18.9,24.7z"/>
	<path class="st0" d="M4.3,17.8c0,0-0.1,0-0.1,0L0.7,17c-0.3-0.1-0.4-0.3-0.4-0.6C0.4,16.2,0.7,16,1,16.1l3.5,0.8
		c0.3,0.1,0.4,0.3,0.4,0.6C4.7,17.7,4.6,17.8,4.3,17.8z"/>
	<path class="st0" d="M4.3,15.5c-0.1,0-0.2,0-0.3-0.1l-1.8-1.8c-0.2-0.2-0.2-0.5,0-0.7c0.2-0.2,0.5-0.2,0.7,0l1.8,1.8
		c0.2,0.2,0.2,0.5,0,0.7C4.6,15.4,4.5,15.5,4.3,15.5z"/>
	<path class="st0" d="M2.6,21.7c-0.1,0-0.2,0-0.3-0.1c-0.2-0.2-0.2-0.5,0-0.7L4,19.1c0.2-0.2,0.5-0.2,0.7,0c0.2,0.2,0.2,0.5,0,0.7
		l-1.8,1.8C2.8,21.6,2.7,21.7,2.6,21.7z"/>
</g>
</svg>
