<?xml version="1.0" encoding="utf-8"?>
<!-- Generator: Adobe Illustrator 27.8.1, SVG Export Plug-In . SVG Version: 6.00 Build 0)  -->
<svg version="1.1" id="圖層_1" xmlns="http://www.w3.org/2000/svg" xmlns:xlink="http://www.w3.org/1999/xlink" x="0px" y="0px"
	 viewBox="0 0 30 30" style="enable-background:new 0 0 30 30;" xml:space="preserve">
<style type="text/css">
	.st0{fill:#FFFFFF;}
</style>
<g>
	<path class="st0" d="M6.4,24c-1,0-1.8-0.8-1.8-1.8V11.5c0-0.3,0.3-0.6,0.6-0.6h2.5c0.3,0,0.6,0.3,0.6,0.6v10.7
		C8.3,23.2,7.5,24,6.4,24z M5.8,12.1v10.1c0,0.3,0.3,0.6,0.6,0.6c0.3,0,0.6-0.3,0.6-0.6V12.1H5.8z"/>
	<path class="st0" d="M5.2,18.8H3.4c-1.6,0-2.9-1.3-2.9-2.9v-2.8c0-1.2,1-2.2,2.2-2.2h2.5c0.3,0,0.6,0.3,0.6,0.6v6.7
		C5.8,18.5,5.6,18.8,5.2,18.8z M2.7,12.1c-0.5,0-1,0.4-1,1v2.8c0,0.9,0.8,1.7,1.7,1.7h1.2v-5.5H2.7z"/>
	<path class="st0" d="M28.6,19.2h-2.3c-0.3,0-0.6-0.3-0.6-0.6V4.8h-8.9c-0.3,0-0.6-0.3-0.6-0.6V2.1c0-0.3,0.3-0.6,0.6-0.6h11.9
		c0.3,0,0.6,0.3,0.6,0.6v16.5C29.2,18.9,29,19.2,28.6,19.2z M26.9,18H28V2.7H17.3v0.9h8.9c0.3,0,0.6,0.3,0.6,0.6V18z"/>
	<path class="st0" d="M26.3,21.3h-12c-0.3,0-0.6-0.3-0.6-0.6V4.2c0-0.3,0.3-0.6,0.6-0.6h12c0.3,0,0.6,0.3,0.6,0.6v16.5
		C26.9,21,26.6,21.3,26.3,21.3z M14.9,20.1h10.8V4.8H14.9V20.1z"/>
	<path class="st0" d="M14.3,12.1H7.7c-0.3,0-0.6-0.3-0.6-0.6v-1.2C7.1,8.5,8.6,7,10.4,7h3.9c0.3,0,0.6,0.3,0.6,0.6v3.9
		C14.9,11.8,14.6,12.1,14.3,12.1z M8.3,10.9h5.4V8.2h-3.3c-1.1,0-2.1,0.9-2.1,2.1V10.9z"/>
	<path class="st0" d="M26.3,21.3h-12c-0.3,0-0.6-0.3-0.6-0.6V4.2c0-0.3,0.3-0.6,0.6-0.6h12c0.3,0,0.6,0.3,0.6,0.6v16.5
		C26.9,21,26.6,21.3,26.3,21.3z M14.9,20.1h10.8V4.8H14.9V20.1z"/>
	<path class="st0" d="M14.3,18.8H7.7c-0.3,0-0.6-0.3-0.6-0.6v-6.7c0-0.3,0.3-0.6,0.6-0.6h6.6c0.3,0,0.6,0.3,0.6,0.6v6.7
		C14.9,18.5,14.6,18.8,14.3,18.8z M8.3,17.5h5.4v-5.5H8.3V17.5z"/>
	<path class="st0" d="M19.4,24c-1,0-1.8-0.8-1.8-1.8v-1.5c0-0.3,0.3-0.6,0.6-0.6h2.5c0.3,0,0.6,0.3,0.6,0.6v1.5
		C21.2,23.2,20.4,24,19.4,24z M18.7,21.3v0.9c0,0.3,0.3,0.6,0.6,0.6c0.3,0,0.6-0.3,0.6-0.6v-0.9H18.7z"/>
	<path class="st0" d="M22.9,29.3h-20c-1.4,0-2.4-1.1-2.4-2.4V13.3c0-1.4,1.1-2.4,2.4-2.4h11.4c0.3,0,0.6,0.3,0.6,0.6v8.6h9.8
		c0.3,0,0.6,0.3,0.6,0.6v6.2C25.3,28.2,24.2,29.3,22.9,29.3z M2.9,12.1c-0.7,0-1.2,0.5-1.2,1.2v13.6c0,0.7,0.5,1.2,1.2,1.2h20
		c0.7,0,1.2-0.5,1.2-1.2v-5.6h-9.8c-0.3,0-0.6-0.3-0.6-0.6v-8.6H2.9z"/>
	<path class="st0" d="M22.7,7.6h-4.8c-0.3,0-0.6-0.3-0.6-0.6c0-0.3,0.3-0.6,0.6-0.6h4.8c0.3,0,0.6,0.3,0.6,0.6
		C23.3,7.3,23,7.6,22.7,7.6z"/>
	<path class="st0" d="M23.9,10.7h-7.2c-0.3,0-0.6-0.3-0.6-0.6c0-0.3,0.3-0.6,0.6-0.6h7.2c0.3,0,0.6,0.3,0.6,0.6
		C24.5,10.4,24.2,10.7,23.9,10.7z"/>
	<path class="st0" d="M23.9,13.1h-7.2c-0.3,0-0.6-0.3-0.6-0.6c0-0.3,0.3-0.6,0.6-0.6h7.2c0.3,0,0.6,0.3,0.6,0.6
		C24.5,12.8,24.2,13.1,23.9,13.1z"/>
	<path class="st0" d="M23.9,15.5h-7.2c-0.3,0-0.6-0.3-0.6-0.6c0-0.3,0.3-0.6,0.6-0.6h7.2c0.3,0,0.6,0.3,0.6,0.6
		C24.5,15.2,24.2,15.5,23.9,15.5z"/>
	<path class="st0" d="M23.9,17.9h-7.2c-0.3,0-0.6-0.3-0.6-0.6s0.3-0.6,0.6-0.6h7.2c0.3,0,0.6,0.3,0.6,0.6S24.2,17.9,23.9,17.9z"/>
</g>
</svg>
