<?xml version="1.0" encoding="utf-8"?>
<!-- Generator: Adobe Illustrator 27.8.1, SVG Export Plug-In . SVG Version: 6.00 Build 0)  -->
<svg version="1.1" id="圖層_1" xmlns="http://www.w3.org/2000/svg" xmlns:xlink="http://www.w3.org/1999/xlink" x="0px" y="0px"
	 viewBox="0 0 30 30" style="enable-background:new 0 0 30 30;" xml:space="preserve">
<style type="text/css">
	.st0{fill:#FFFFFF;}
</style>
<path class="st0" d="M8.1,28.5c-1.7,0-3-1.4-3-3c0-1.7,1.4-3,3-3c1.7,0,3,1.4,3,3C11.1,27.1,9.7,28.5,8.1,28.5z M8.1,23.5
	c-1.1,0-1.9,0.9-1.9,1.9c0,1.1,0.9,1.9,1.9,1.9c1.1,0,1.9-0.9,1.9-1.9C10,24.4,9.1,23.5,8.1,23.5z"/>
<path class="st0" d="M8.9,25.4c0,0.5-0.4,0.9-0.9,0.9c-0.5,0-0.9-0.4-0.9-0.9c0-0.5,0.4-0.9,0.9-0.9C8.5,24.6,8.9,25,8.9,25.4z"/>
<circle class="st0" cx="22.3" cy="25.4" r="0.9"/>
<path class="st0" d="M22.3,28.5c-1.7,0-3-1.4-3-3c0-1.7,1.4-3,3-3c1.7,0,3,1.4,3,3C25.3,27.1,23.9,28.5,22.3,28.5z M22.3,23.5
	c-1.1,0-1.9,0.9-1.9,1.9c0,1.1,0.9,1.9,1.9,1.9c1.1,0,1.9-0.9,1.9-1.9C24.2,24.4,23.3,23.5,22.3,23.5z"/>
<path class="st0" d="M24.8,26h-0.1c-0.3,0-0.6-0.2-0.6-0.6c0-1.1-0.9-1.9-1.9-1.9c-1.1,0-1.9,0.9-1.9,1.9c0,0.3-0.2,0.6-0.6,0.6
	h-9.3c-0.3,0-0.6-0.2-0.6-0.6c0-1.1-0.9-1.9-1.9-1.9c-1.1,0-1.9,0.9-1.9,1.9c0,0.3-0.2,0.6-0.6,0.6H3.1c-0.8,0-1.5-0.7-1.5-1.5
	l0-0.8c0-2.1,1.4-3.9,3.5-4.4C6,19,7,18.5,7.8,17.8c1.4-1.1,4.4-3.1,8.6-3.2c0,0,0.1,0,0.1,0h0.2c0.2,0,0.4,0,0.6,0H21
	c4.1,0,7.4,3.3,7.4,7.4v0.5C28.4,24.4,26.8,26,24.8,26z M11,24.9h8.3c0.3-1.4,1.5-2.5,3-2.5c1.5,0,2.7,1,3,2.4c1.1-0.2,2-1.2,2-2.4
	V22c0-3.5-2.8-6.3-6.3-6.3h-3.7c-0.2,0-0.4,0-0.6,0h-0.1c-4,0.1-6.8,1.9-8,3c-1,0.8-2,1.3-3.2,1.6c-1.6,0.4-2.7,1.8-2.7,3.4l0,0.8
	c0,0.2,0.2,0.4,0.4,0.4h2c0.3-1.4,1.5-2.5,3-2.5C9.5,22.4,10.8,23.5,11,24.9z"/>
<path class="st0" d="M19.6,15.7h-2.4c-0.3,0-0.6-0.2-0.6-0.6v-1.4c0-1,0.8-1.8,1.8-1.8c1,0,1.8,0.8,1.8,1.8v1.4
	C20.1,15.5,19.9,15.7,19.6,15.7z M17.7,14.6H19v-0.8c0-0.4-0.3-0.7-0.7-0.7c-0.4,0-0.7,0.3-0.7,0.7V14.6z"/>
<path class="st0" d="M27.8,28.5H2.2c-0.3,0-0.6-0.2-0.6-0.6c0-0.3,0.2-0.6,0.6-0.6h25.6c0.3,0,0.6,0.2,0.6,0.6
	C28.4,28.2,28.1,28.5,27.8,28.5z"/>
<path class="st0" d="M25.3,20.4H10.2c-0.3,0-0.6-0.2-0.6-0.6c0-0.3,0.2-0.6,0.6-0.6h15.1c0.3,0,0.6,0.2,0.6,0.6
	C25.9,20.2,25.6,20.4,25.3,20.4z"/>
<path class="st0" d="M21.3,20.4c-0.3,0-0.6-0.2-0.6-0.6v-2.2c0-0.3,0.2-0.6,0.6-0.6c0.3,0,0.6,0.2,0.6,0.6v2.2
	C21.9,20.2,21.7,20.4,21.3,20.4z"/>
<path class="st0" d="M14.1,20.4c-0.3,0-0.6-0.2-0.6-0.6v-2.2c0-0.3,0.2-0.6,0.6-0.6s0.6,0.2,0.6,0.6v2.2
	C14.6,20.2,14.4,20.4,14.1,20.4z"/>
<path class="st0" d="M9.9,15.3c-0.3,0-0.5-0.2-0.5-0.5v-3.9c0-0.3,0.2-0.5,0.5-0.5c0.3,0,0.5,0.2,0.5,0.5v3.9
	C10.4,15.1,10.2,15.3,9.9,15.3z"/>
<path class="st0" d="M5.1,15.3c-0.3,0-0.5-0.2-0.5-0.5v-3.9c0-0.3,0.2-0.5,0.5-0.5s0.5,0.2,0.5,0.5v3.9C5.6,15.1,5.4,15.3,5.1,15.3z
	"/>
<path class="st0" d="M7.5,6.5c-1.4,0-2.6-1.2-2.6-2.6c0-1.4,1.2-2.6,2.6-2.6c1.4,0,2.6,1.2,2.6,2.6C10.1,5.4,9,6.5,7.5,6.5z
	 M7.5,2.3c-0.9,0-1.6,0.7-1.6,1.6c0,0.9,0.7,1.6,1.6,1.6c0.9,0,1.6-0.7,1.6-1.6C9.1,3.1,8.4,2.3,7.5,2.3z"/>
<path class="st0" d="M11,15.3H4.1c-1,0-1.8-0.8-1.8-1.8v-3.2C2.3,9.1,3,8,4.1,7.5c0.4-0.2,0.7-0.4,1-0.6c0.2-0.2,0.5-0.2,0.7,0.1
	C6,7.1,6,7.4,5.8,7.6C5.4,7.9,5,8.2,4.5,8.4c-0.7,0.3-1.2,1.1-1.2,1.9v3.2c0,0.5,0.4,0.8,0.8,0.8H11c0.5,0,0.8-0.4,0.8-0.8v-3.2
	c0-0.8-0.5-1.5-1.2-1.9c-0.5-0.2-0.9-0.5-1.2-0.8C9.2,7.4,9.1,7.1,9.3,6.9C9.5,6.7,9.8,6.7,10,6.8c0.3,0.2,0.6,0.5,1,0.6
	c1.1,0.5,1.8,1.6,1.8,2.8v3.2C12.8,14.5,12,15.3,11,15.3z"/>
</svg>
