<?xml version="1.0" encoding="utf-8"?>
<!-- Generator: Adobe Illustrator 27.8.1, SVG Export Plug-In . SVG Version: 6.00 Build 0)  -->
<svg version="1.1" id="圖層_1" xmlns="http://www.w3.org/2000/svg" xmlns:xlink="http://www.w3.org/1999/xlink" x="0px" y="0px"
	 viewBox="0 0 30 30" style="enable-background:new 0 0 30 30;" xml:space="preserve">
<style type="text/css">
	.st0{fill:#FFFFFF;}
</style>
<g>
	<g id="_x31_967_x2C__Email_x2C__Internet_x2C__Letter_x2C__Send">
		<g>
			<path class="st0" d="M3.3,9.3L8.1,12c0,7.6,0,7.1,0,7.2c0,0.4,0.4,0.6,0.7,0.5c0.1,0-0.3,0.1,5.3-2.3c0.3-0.1,0.4-0.5,0.3-0.8
				c-0.1-0.3-0.5-0.4-0.8-0.3L9.9,18l1.9-4.2l8.5,5c0.3,0.2,0.7,0,0.9-0.3l5.3-16.8C26.7,1.4,26.4,1,26,1c0,0-0.1,0-0.2,0L3.4,8.2
				C3.2,8.3,3.1,8.5,3,8.7C3,9,3.1,9.2,3.3,9.3z M20.3,17.5L12.6,13l12.3-9.9L20.3,17.5z M23.2,3l-11.8,9.5c-0.1,0-0.2,0.1-0.3,0.3
				l-1.8,3.8V12l4.4-3.3c0.3-0.2,0.3-0.5,0.1-0.8c-0.2-0.3-0.5-0.3-0.8-0.1l-4.3,3.2L5,8.9L23.2,3z"/>
			<path class="st0" d="M28.3,27.4h-8.5c3.3-1.7,5.6-5.2,5.6-9.2c0-0.3-0.3-0.6-0.6-0.6c-0.3,0-0.6,0.3-0.6,0.6c0,3.8-2.3,7-5.6,8.4
				c1.2-1.5,1.5-3.7,1.5-5.6c0-0.3-0.3-0.6-0.6-0.6c-0.3,0-0.6,0.3-0.6,0.6c0,3.5-1.4,5.9-3.4,6.3v-5.6c0-0.3-0.3-0.6-0.6-0.6
				c-0.3,0-0.6,0.3-0.6,0.6v5.7c-2.1-0.4-3.4-2.8-3.4-6.3c0-0.3-0.3-0.6-0.6-0.6c-0.3,0-0.6,0.3-0.6,0.6c0,1.9,0.4,4,1.5,5.6
				c-3.3-1.4-5.6-4.7-5.6-8.4c0-0.3-0.3-0.6-0.6-0.6c-0.3,0-0.6,0.3-0.6,0.6c0,4,2.3,7.5,5.6,9.2H1.8c-0.3,0-0.6,0.3-0.6,0.6
				c0,0.3,0.3,0.6,0.6,0.6h26.5c0.3,0,0.6-0.3,0.6-0.6C28.9,27.7,28.6,27.4,28.3,27.4z"/>
			<rect x="4.1" y="3.3" class="st0" width="1.1" height="1.1"/>
			<rect x="6.4" y="3.3" class="st0" width="1.1" height="1.1"/>
			<rect x="8.7" y="3.3" class="st0" width="1.1" height="1.1"/>
			<rect x="11" y="3.3" class="st0" width="1.1" height="1.1"/>
		</g>
	</g>
	<g id="Layer_1_00000018217911458913433730000015647006666114915244_">
	</g>
</g>
</svg>
