<?xml version="1.0" encoding="utf-8"?>
<!-- Generator: Adobe Illustrator 27.8.1, SVG Export Plug-In . SVG Version: 6.00 Build 0)  -->
<svg version="1.1" id="圖層_1" xmlns="http://www.w3.org/2000/svg" xmlns:xlink="http://www.w3.org/1999/xlink" x="0px" y="0px"
	 viewBox="0 0 30 30" style="enable-background:new 0 0 30 30;" xml:space="preserve">
<style type="text/css">
	.st0{fill:#FFFFFF;}
</style>
<g>
	<path class="st0" d="M25.7,26.7H13.2c-0.3,0-0.5-0.2-0.5-0.5c0-0.3,0.2-0.5,0.5-0.5h12V4.4H8.6v3.7c0,0.3-0.2,0.5-0.5,0.5
		c-0.3,0-0.5-0.2-0.5-0.5V3.9c0-0.3,0.2-0.5,0.5-0.5h17.6c0.3,0,0.5,0.2,0.5,0.5v22.3C26.2,26.5,26,26.7,25.7,26.7z"/>
	<path class="st0" d="M8.1,4.4C7.9,4.4,7.7,4.2,7.7,4c0-0.3,0.1-0.5,0.4-0.5l15.5-2.9c0.1,0,0.3,0,0.4,0.1c0.1,0.1,0.2,0.2,0.2,0.4
		v2.9c0,0.3-0.2,0.5-0.5,0.5c-0.3,0-0.5-0.2-0.5-0.5V1.6L8.1,4.4C8.2,4.4,8.2,4.4,8.1,4.4z"/>
	<path class="st0" d="M13.2,29.4c-0.3,0-0.5-0.2-0.5-0.5v-3.2c0-0.1,0-0.2,0.1-0.3l1.3-2c0.3-0.5,0.5-1.2,0.5-1.8l0-6.9
		c0-0.6-0.5-1.2-1.1-1.2c-0.3,0-0.6,0.1-0.8,0.3c-0.2,0.2-0.3,0.5-0.3,0.8l0,3.7c0,0.4-0.2,0.7-0.6,0.8c-0.4,0.1-0.7,0-1-0.3l-3-3.7
		c-0.5-0.6-0.4-1.5-0.1-2.1V9.4l-2.2,2.7C4.9,13,4.7,14,4.8,15l1.3,10.7c0,0.3-0.2,0.5-0.4,0.5c-0.3,0-0.5-0.2-0.5-0.4L3.9,15.1
		c-0.2-1.3,0.2-2.5,0.9-3.5l3-3.8c0.1-0.2,0.3-0.2,0.5-0.2c0.2,0.1,0.3,0.2,0.3,0.4v5.1c0,0.1,0,0.2-0.1,0.2c-0.2,0.4-0.2,0.9,0,1.2
		l2.9,3.6l0-3.4c0-0.6,0.2-1.1,0.6-1.5c0.4-0.4,0.9-0.6,1.5-0.6c1.1,0,2.1,1,2.1,2.1l0,6.9c0,0.8-0.2,1.6-0.7,2.3l-1.2,1.9v3.1
		C13.7,29.2,13.5,29.4,13.2,29.4z"/>
	<path class="st0" d="M20.5,11.7c-1,0-1.9-0.8-1.9-1.9c0-0.3,0.2-0.5,0.5-0.5h2.8c0.3,0,0.5,0.2,0.5,0.5
		C22.3,10.8,21.5,11.7,20.5,11.7z M19.7,10.3c0.2,0.3,0.5,0.4,0.8,0.4s0.6-0.2,0.8-0.4H19.7z"/>
	<path class="st0" d="M21.5,10.3c-0.2,0-0.4-0.1-0.4-0.3l-0.6-1.7L19.9,10c-0.1,0.2-0.4,0.4-0.6,0.3c-0.2-0.1-0.4-0.4-0.3-0.6l1-3
		c0.1-0.2,0.2-0.3,0.4-0.3c0.2,0,0.4,0.1,0.4,0.3l1,3c0.1,0.2,0,0.5-0.3,0.6C21.6,10.3,21.6,10.3,21.5,10.3z"/>
	<path class="st0" d="M20.5,7.3H14c-0.3,0-0.5-0.2-0.5-0.5c0-0.3,0.2-0.5,0.5-0.5h6.5c0.3,0,0.5,0.2,0.5,0.5
		C21,7.1,20.8,7.3,20.5,7.3z"/>
	<path class="st0" d="M14,11.7c-1,0-1.9-0.8-1.9-1.9c0-0.3,0.2-0.5,0.5-0.5h2.8c0.3,0,0.5,0.2,0.5,0.5C15.9,10.8,15,11.7,14,11.7z
		 M13.2,10.3c0.2,0.3,0.5,0.4,0.8,0.4c0.3,0,0.6-0.2,0.8-0.4H13.2z"/>
	<path class="st0" d="M15.1,10.3c-0.2,0-0.4-0.1-0.4-0.3L14,8.2L13.4,10c-0.1,0.2-0.4,0.4-0.6,0.3c-0.2-0.1-0.4-0.4-0.3-0.6l1-3
		c0.1-0.2,0.2-0.3,0.4-0.3c0.2,0,0.4,0.1,0.4,0.3l1,3c0.1,0.2,0,0.5-0.3,0.6C15.2,10.3,15.1,10.3,15.1,10.3z"/>
	<path class="st0" d="M17.3,12.2c-0.3,0-0.5-0.2-0.5-0.5V6.3c0-0.3,0.2-0.5,0.5-0.5c0.3,0,0.5,0.2,0.5,0.5v5.4
		C17.7,12,17.5,12.2,17.3,12.2z"/>
	<path class="st0" d="M18.3,14h-2c-0.3,0-0.5-0.2-0.5-0.5v-1.9c0-0.3,0.2-0.5,0.5-0.5h2c0.3,0,0.5,0.2,0.5,0.5v1.9
		C18.7,13.8,18.5,14,18.3,14z M16.7,13.1h1v-0.9h-1V13.1z"/>
	<path class="st0" d="M20.5,17.2h-5.4c-0.3,0-0.5-0.2-0.5-0.5c0-0.3,0.2-0.5,0.5-0.5h5.4c0.3,0,0.5,0.2,0.5,0.5
		C21,17,20.8,17.2,20.5,17.2z"/>
	<path class="st0" d="M20.5,19h-5.4c-0.3,0-0.5-0.2-0.5-0.5c0-0.3,0.2-0.5,0.5-0.5h5.4c0.3,0,0.5,0.2,0.5,0.5
		C21,18.8,20.8,19,20.5,19z"/>
	<path class="st0" d="M20.5,20.9h-5.4c-0.3,0-0.5-0.2-0.5-0.5s0.2-0.5,0.5-0.5h5.4c0.3,0,0.5,0.2,0.5,0.5S20.8,20.9,20.5,20.9z"/>
</g>
</svg>
