<?xml version="1.0" encoding="utf-8"?>
<!-- Generator: Adobe Illustrator 27.8.1, SVG Export Plug-In . SVG Version: 6.00 Build 0)  -->
<svg version="1.1" id="圖層_1" xmlns="http://www.w3.org/2000/svg" xmlns:xlink="http://www.w3.org/1999/xlink" x="0px" y="0px"
	 viewBox="0 0 270.8 64" style="enable-background:new 0 0 270.8 64;" xml:space="preserve">
<style type="text/css">
	.st0{fill:#FFFFFF;}
	.st1{fill:url(#SVGID_1_);}
	.st2{fill:#005BAB;}
	.st3{fill:#B7A246;}
</style>
<path class="st0" d="M91.7,16.3v1.9H70.7v-1.9h9.5c-0.2-0.6-0.5-1.4-0.7-2l2.2-0.5c0.3,0.8,0.7,1.7,0.9,2.5L91.7,16.3z M91,33.7
	c0,1.1-0.3,1.5-1,1.8c-1.1,0.3-2.3,0.4-3.4,0.3c-0.2-0.6-0.4-1.1-0.7-1.7c1,0,2.2,0,2.5,0s0.4-0.1,0.4-0.4v-6.4H73.7v8.7h-2.2V25.4
	H91V33.7z M88.6,19.3v4.9H74.2v-4.9H88.6z M78.1,33.5v1.1H76v-6.2h10.2v5.1H78.1z M86.2,20.9h-9.8v1.8h9.8L86.2,20.9z M78.1,30v1.9
	h6.2V30H78.1z"/>
<path class="st0" d="M100.7,19.8c-0.7,4.6-1.9,8.6-3.8,11.4c-0.6-0.5-1.2-0.9-1.9-1.3c1.8-2.5,2.9-6,3.6-10.2H96v-2.1h3
	c0.2-1.2,0.3-2.6,0.4-3.8l2.1,0.2c-0.1,1.2-0.3,2.5-0.4,3.7h4.8v2.1L100.7,19.8z M104.5,26.9c0.8,2.4,1.5,4.9,2,7.4l-1.8,0.7
	c-0.1-0.5-0.2-1.1-0.3-1.7c-4.8,0.9-5.5,1.1-6,1.3c-0.2-0.7-0.4-1.3-0.7-1.9c0.5-0.1,0.8-0.8,1.3-1.9c1.2-2.7,2.1-5.6,2.7-8.5
	l2.1,0.5c-0.8,3.2-2,6.3-3.4,9.3l3.6-0.6c-0.3-1.4-0.7-2.8-1.1-4.1L104.5,26.9z M117.2,34.7h-8.2v1.2h-2v-14c-0.5,0.8-1,1.6-1.6,2.3
	c-0.4-0.6-0.8-1.2-1.3-1.8c2-2.5,3.4-5.3,4.2-8.4l1.9,0.5c-0.4,1.3-0.9,2.6-1.4,3.9h8.2v2h-3v2.9h2.9v1.9H114v2.7h2.9v1.9H114v2.9
	h3.2V34.7z M109.1,20.3v2.9h2.9v-2.9L109.1,20.3z M112,25.1h-2.9v2.8h2.9V25.1z M109.1,32.7h2.9v-2.9h-2.9V32.7z M112.9,14.2
	c0.6,1.1,1.2,2.2,1.6,3.4l-2,0.7c-0.4-1.2-0.9-2.4-1.5-3.5L112.9,14.2z"/>
<path class="st0" d="M142.1,16.3v1.9h-20.9v-1.9h9.5c-0.2-0.6-0.5-1.4-0.7-2l2.2-0.5c0.3,0.8,0.7,1.7,0.9,2.5L142.1,16.3z
	 M141.4,33.7c0,1.1-0.3,1.5-1,1.8c-1.1,0.3-2.3,0.4-3.4,0.3c-0.2-0.6-0.4-1.1-0.7-1.7c1,0,2.2,0,2.5,0s0.4-0.1,0.4-0.4v-6.4h-15.1
	v8.7h-2.2V25.4h19.5V33.7z M139,19.3v4.9h-14.4v-4.9H139z M128.5,33.5v1.1h-2.1v-6.2h10.2v5.1H128.5z M136.6,20.9h-9.8v1.8h9.8V20.9
	z M128.5,30v1.9h6.1V30H128.5z"/>
<path class="st0" d="M149.7,17.4c-0.7,1-1.4,1.9-2.3,2.8c-0.5-0.6-1-1.1-1.5-1.5c1.6-1.3,2.8-3,3.6-4.9l2,0.6
	c-0.2,0.4-0.4,0.8-0.6,1.2h5.8v1.9h-4c0.7,0.6,1.3,1.2,1.9,1.9l-1.4,1.3c-0.7-0.9-1.5-1.7-2.4-2.4l0.8-0.7H149.7z M162.8,28.3h4.6
	v1.8h-4.6v3.6c0,1.1-0.3,1.7-1.2,1.9c-1.4,0.3-2.9,0.3-4.3,0.3c-0.1-0.6-0.3-1.2-0.6-1.8c1.4,0.1,2.9,0,3.3,0s0.5-0.1,0.5-0.5v-3.5
	h-8.6c1.3,1.1,2.6,2.2,3.8,3.4l-1.7,1.3c-1.2-1.3-2.5-2.5-3.8-3.6l1.5-1.1h-5.4v-1.8h14.2v-1.5h2.3L162.8,28.3z M167.8,15.5v1.9H163
	c0.7,0.6,1.3,1.3,1.9,2.1l-1.5,1.3c-0.6-0.9-1.4-1.8-2.2-2.6l1-0.8H160c-0.5,1-1.2,2-2,2.9l-0.1-0.1v0.7h8.6v1.9H158v1.8h7.2v1.8
	h-16.9v-1.8h7.3v-1.8h-8.6v-1.9h8.6v-1.3h1.5c-0.3-0.2-0.5-0.4-0.8-0.6c1.4-1.5,2.4-3.3,3-5.3l2,0.5c-0.1,0.5-0.3,0.9-0.5,1.3
	L167.8,15.5z"/>
<path class="st0" d="M179.4,19.8c-0.8,1.3-1.7,2.5-2.6,3.7v12.5h-2.2v-10c-0.8,0.8-1.6,1.5-2.4,2.2c-0.4-0.7-1-1.3-1.5-1.9
	c2.7-1.9,4.9-4.4,6.6-7.2L179.4,19.8z M178.5,14.8c-1.8,2.3-3.9,4.4-6.3,6.1c-0.4-0.6-0.8-1.2-1.3-1.8c2.1-1.4,4-3.1,5.5-5.2
	L178.5,14.8z M192.9,24h-3.5v9.2c0,1.3-0.3,1.9-1.2,2.3c-1.5,0.4-3,0.5-4.5,0.4c-0.1-0.8-0.4-1.5-0.7-2.2c1.5,0,3.1,0,3.6,0
	s0.6-0.1,0.6-0.5v-9.2h-7.6v-2.1h13.3L192.9,24z M192.2,17.4h-11.6v-2.2h11.6V17.4z"/>
<path class="st0" d="M216.7,20.3c-0.4,3.3-1.4,6.5-3,9.5c1.2,1.8,2.8,3.2,4.8,4.2c-0.6,0.6-1.1,1.2-1.5,1.9c-1.8-1-3.4-2.3-4.6-4
	c-1.4,1.7-3.2,3.1-5.2,4.1c-0.3-0.7-0.8-1.4-1.3-2c2.1-0.9,3.9-2.3,5.2-4.2c-1-1.9-1.7-3.9-2.2-6.1c-0.4,0.7-0.8,1.3-1.2,1.9
	c-0.4-0.4-0.9-0.9-1.4-1.2h-2.7V30l3.8-0.8l0.2,2c-3.9,0.9-8.1,1.9-11.1,2.6l-0.4-2.2l1.3-0.3V20.8h2v10l2-0.4V17.6h-4.9v-2.2h10.9
	v2.2h-3.8v4.8h3v0.8c1.6-2.8,2.7-6,3.2-9.2l2.2,0.4c-0.3,1.4-0.6,2.7-1,4h7.2v2.1L216.7,20.3z M210.2,20.7c0.4,2.4,1.2,4.7,2.2,6.9
	c1-2.3,1.7-4.8,2-7.3h-4.1L210.2,20.7z"/>
<path class="st0" d="M225.9,24.8c-1.4-1-2.8-1.9-4.4-2.6l1.2-1.7c1.6,0.6,3.1,1.4,4.5,2.4L225.9,24.8z M222.3,34.1
	c1.7-2.4,3.2-5,4.5-7.6l1.6,1.5c-1.2,2.5-2.8,5.4-4.2,7.6L222.3,34.1z M224.1,14.1c1.6,0.7,3.1,1.5,4.5,2.5l-1.3,1.9
	c-1.4-1.1-2.9-2-4.5-2.7L224.1,14.1z M241.1,35.8c-0.3-0.8-0.6-1.5-1-2.3c-8.5,1-9.6,1.2-10.3,1.6c-0.2-0.8-0.5-1.5-0.8-2.2
	c0.5-0.1,1-0.7,1.5-1.6c1.2-1.8,2.1-3.6,2.9-5.5h-4.9v-2.1h5.9v-3.9h-4.9v-2.1h4.9v-3.9h2.3v3.9h5.2v2.1h-5.1v3.9h6v2.1h-6.6
	c-1.1,2.3-2.4,4.5-3.8,6.6l6.7-0.7c-0.6-1-1.2-1.9-1.9-2.8l1.8-0.9c1.7,2.1,3.1,4.3,4.1,6.8L241.1,35.8z"/>
<path class="st0" d="M254.7,15.6c-0.7,2-1.5,4.3-2.2,6.2c1.2,1.4,1.9,3.2,1.9,5.1c0.1,1.1-0.2,2.2-1,2.9c-0.4,0.3-0.8,0.4-1.3,0.5
	c-0.4,0-1,0-1.6,0c0-0.7-0.2-1.3-0.5-1.9c0.4,0,0.8,0,1.2,0c0.2,0,0.5-0.1,0.7-0.2c0.4-0.4,0.5-1,0.5-1.6c-0.1-1.7-0.8-3.4-2-4.6
	c0.6-1.6,1.2-3.6,1.7-5.2h-2.6v19h-2v-21h5.4l0.3-0.1L254.7,15.6z M266.4,33.7c0.5,0,0.5-0.4,0.6-3c0.6,0.4,1.2,0.7,1.9,0.8
	c-0.2,3.2-0.7,4-2.2,4h-2c-1.9,0-2.3-0.6-2.3-2.6v-5.6h-2.1c-0.4,4.2-1.5,7-6.1,8.6c-0.3-0.7-0.7-1.3-1.3-1.8c4-1.3,4.9-3.4,5.2-6.8
	H255v-2h13.5v2h-4v5.6c0,0.7,0.1,0.7,0.5,0.7H266.4z M256.8,21.2h-1.9v-4.4h5.8c-0.3-0.8-0.7-1.7-1.1-2.5l2.1-0.6
	c0.6,1,1.1,2,1.5,3.1h5.2v4.4h-1.9V23h-9.7L256.8,21.2z M257,18.7V21h9.3v-2.3L257,18.7z"/>
<path class="st0" d="M72.6,44.2h0.8v3l3.2-3h1.1l-3.8,3.5l4.1,4.3h-1l-3.5-3.7v3.7h-0.8V44.2z"/>
<path class="st0" d="M84.9,46.2v5.8h-0.7v-1c-0.3,0.4-0.7,0.7-1.1,0.9c-0.4,0.2-0.8,0.3-1.3,0.3c-0.8,0-1.6-0.3-2.1-0.9
	c-0.6-0.6-0.9-1.4-0.9-2.2c0-0.8,0.3-1.6,0.9-2.1c0.6-0.6,1.3-0.9,2.1-0.9c0.5,0,0.9,0.1,1.3,0.3c0.4,0.2,0.7,0.5,1,0.9v-1.1H84.9z
	 M81.9,46.8c-0.8,0-1.6,0.5-2,1.2c-0.2,0.4-0.3,0.8-0.3,1.2c0,0.4,0.1,0.8,0.3,1.2c0.2,0.4,0.5,0.7,0.8,0.9c0.3,0.2,0.7,0.3,1.1,0.3
	c0.4,0,0.8-0.1,1.2-0.3c0.4-0.2,0.6-0.5,0.8-0.8c0.2-0.4,0.3-0.8,0.3-1.2c0-0.6-0.2-1.2-0.7-1.7C83.1,47,82.5,46.8,81.9,46.8z"/>
<path class="st0" d="M89.5,46.1c0.9,0,1.7,0.4,2.2,1c0.5,0.6,0.8,1.3,0.8,2.1c0,0.8-0.3,1.6-0.8,2.1c-1.2,1.2-3.2,1.2-4.4,0
	c0,0,0,0,0,0c-1.1-1.2-1.1-3,0-4.2C87.8,46.4,88.6,46.1,89.5,46.1z M89.5,46.8c-0.6,0-1.2,0.2-1.6,0.7c-0.7,0.8-0.9,1.9-0.4,2.9
	c0.2,0.4,0.5,0.6,0.8,0.8c0.3,0.2,0.7,0.3,1.2,0.3c0.4,0,0.8-0.1,1.1-0.3c0.3-0.2,0.6-0.5,0.8-0.8c0.2-0.4,0.3-0.8,0.3-1.2
	c0-0.6-0.2-1.2-0.7-1.7C90.7,47.1,90.1,46.8,89.5,46.8z"/>
<path class="st0" d="M94,44h0.8v3.3c0.3-0.4,0.6-0.7,1-0.9c0.4-0.2,0.8-0.3,1.2-0.3c0.4,0,0.8,0.1,1.2,0.3c0.3,0.2,0.6,0.5,0.8,0.9
	c0.2,0.6,0.3,1.2,0.2,1.8v3h-0.8v-2.8c0-0.5,0-0.9-0.1-1.3c-0.1-0.7-0.7-1.2-1.5-1.2c-0.4,0-0.9,0.2-1.2,0.5
	c-0.4,0.3-0.6,0.7-0.7,1.1c-0.1,0.5-0.1,1.1-0.1,1.6v2.1H94V44z"/>
<path class="st0" d="M103.8,46.9l-0.5,0.5c-0.3-0.3-0.7-0.6-1.2-0.6c-0.2,0-0.5,0.1-0.6,0.2c-0.2,0.1-0.3,0.4-0.3,0.6
	c0,0.2,0.1,0.4,0.2,0.5c0.3,0.3,0.6,0.5,0.9,0.6c0.4,0.2,0.8,0.5,1.1,0.8c0.2,0.3,0.3,0.6,0.3,0.9c0,0.5-0.2,0.9-0.5,1.2
	c-0.3,0.3-0.8,0.5-1.3,0.5c-0.3,0-0.7-0.1-1-0.2c-0.3-0.1-0.6-0.3-0.8-0.6l0.5-0.5c0.3,0.4,0.7,0.6,1.2,0.7c0.3,0,0.6-0.1,0.8-0.3
	c0.4-0.3,0.4-0.9,0.1-1.3c-0.3-0.3-0.6-0.5-0.9-0.6c-0.4-0.2-0.8-0.5-1.1-0.8c-0.4-0.6-0.4-1.5,0.2-2c0.3-0.3,0.7-0.5,1.2-0.4
	C102.7,46.1,103.3,46.4,103.8,46.9z"/>
<path class="st0" d="M105.5,43.8c0.2,0,0.3,0.1,0.4,0.2c0.1,0.1,0.2,0.3,0.2,0.4c0,0.2-0.1,0.3-0.2,0.4c-0.1,0.1-0.3,0.2-0.4,0.2
	c-0.2,0-0.3-0.1-0.4-0.2c-0.1-0.1-0.2-0.3-0.2-0.4c0-0.2,0-0.3,0.2-0.4C105.1,43.9,105.3,43.8,105.5,43.8z M105.1,46.2h0.8v5.8h-0.8
	V46.2z"/>
<path class="st0" d="M107.4,46.2h0.8V49c0,0.5,0,0.9,0.1,1.4c0.1,0.3,0.3,0.6,0.6,0.8c0.3,0.2,0.7,0.3,1.1,0.3
	c0.4,0,0.8-0.1,1.1-0.3c0.3-0.2,0.5-0.5,0.6-0.8c0.1-0.5,0.1-1,0.1-1.4v-2.8h0.8v2.9c0,0.6-0.1,1.2-0.3,1.8c-0.2,0.4-0.5,0.8-0.8,1
	c-0.9,0.5-1.9,0.5-2.8,0c-0.4-0.2-0.7-0.6-0.9-1c-0.2-0.6-0.3-1.2-0.3-1.9L107.4,46.2z"/>
<path class="st0" d="M114.3,46.2h0.8v1c0.3-0.4,0.6-0.7,1-0.9c0.4-0.2,0.8-0.3,1.2-0.3c0.4,0,0.8,0.1,1.2,0.3
	c0.3,0.2,0.6,0.5,0.8,0.9c0.2,0.6,0.3,1.2,0.2,1.8v3h-0.8v-2.8c0-0.5,0-0.9-0.1-1.3c-0.1-0.7-0.7-1.2-1.5-1.2
	c-0.5,0-0.9,0.2-1.2,0.5c-0.3,0.3-0.6,0.7-0.7,1.1c-0.1,0.5-0.1,1.1-0.1,1.6v2.1h-0.8L114.3,46.2z"/>
<path class="st0" d="M126.2,46.2h0.8v4.7c0,0.6,0,1.2-0.2,1.8c-0.2,0.5-0.5,1-1,1.2c-0.5,0.3-1.1,0.4-1.8,0.4
	c-0.5,0-0.9-0.1-1.3-0.2c-0.4-0.1-0.7-0.3-1-0.6c-0.3-0.3-0.5-0.6-0.7-1h0.8c0.2,0.4,0.5,0.7,0.9,0.9c0.8,0.4,1.8,0.4,2.6,0
	c0.3-0.2,0.6-0.4,0.8-0.7c0.2-0.4,0.3-0.9,0.2-1.4V51c-0.3,0.3-0.6,0.6-1,0.8c-0.9,0.4-2,0.4-2.8-0.1c-0.5-0.2-0.8-0.6-1.1-1.1
	c-0.3-0.5-0.4-1-0.4-1.5c0-0.5,0.1-1.1,0.4-1.5c0.3-0.5,0.7-0.8,1.1-1.1c0.5-0.3,1-0.4,1.5-0.4c0.4,0,0.8,0.1,1.2,0.3
	c0.4,0.2,0.8,0.5,1.1,0.9L126.2,46.2z M124,46.8c-0.4,0-0.8,0.1-1.2,0.3c-0.4,0.2-0.7,0.5-0.8,0.9c-0.2,0.4-0.3,0.8-0.3,1.2
	c0,0.6,0.2,1.2,0.7,1.6c1,0.8,2.4,0.8,3.3,0c0.4-0.4,0.7-1,0.6-1.6c0-0.4-0.1-0.8-0.3-1.2c-0.2-0.3-0.5-0.6-0.8-0.8
	C124.8,46.9,124.4,46.8,124,46.8z"/>
<path class="st0" d="M131.9,44.2h0.8v3.3h4v-3.3h0.8v7.9h-0.8v-3.8h-4v3.8h-0.8V44.2z"/>
<path class="st0" d="M139.7,43.8c0.2,0,0.3,0.1,0.4,0.2c0.1,0.1,0.2,0.3,0.2,0.4c0,0.2-0.1,0.3-0.2,0.4c-0.1,0.1-0.3,0.2-0.4,0.2
	c-0.2,0-0.3-0.1-0.4-0.2c-0.1-0.1-0.2-0.3-0.2-0.4c0-0.2,0.1-0.3,0.2-0.4C139.4,43.9,139.5,43.8,139.7,43.8z M139.3,46.2h0.8v5.8
	h-0.8V46.2z"/>
<path class="st0" d="M146.8,46.2h0.8v4.7c0,0.6,0,1.2-0.2,1.8c-0.2,0.5-0.5,1-1,1.2c-0.5,0.3-1.1,0.4-1.8,0.4
	c-0.5,0-0.9-0.1-1.4-0.2c-0.4-0.1-0.7-0.3-1-0.6c-0.3-0.3-0.5-0.6-0.7-1h0.8c0.2,0.4,0.5,0.7,0.9,0.9c0.8,0.4,1.8,0.4,2.6,0
	c0.3-0.2,0.6-0.4,0.8-0.7c0.2-0.4,0.3-0.9,0.2-1.4V51c-0.3,0.3-0.6,0.6-1,0.8c-0.4,0.2-0.9,0.3-1.3,0.3c-0.5,0-1.1-0.1-1.5-0.4
	c-0.5-0.2-0.8-0.6-1.1-1.1c-0.8-1.4-0.4-3.3,1.1-4.1c0,0,0.1,0,0.1,0c0.5-0.3,1-0.4,1.5-0.4c0.4,0,0.8,0.1,1.2,0.3
	c0.4,0.2,0.8,0.5,1.1,0.9L146.8,46.2z M144.6,46.8c-0.4,0-0.8,0.1-1.2,0.3c-0.4,0.2-0.7,0.5-0.9,0.9c-0.2,0.4-0.3,0.8-0.3,1.2
	c0,0.6,0.2,1.2,0.6,1.6c0.5,0.4,1.1,0.6,1.7,0.6c0.6,0,1.2-0.2,1.7-0.6c0.4-0.4,0.7-1,0.6-1.6c0-0.4-0.1-0.8-0.3-1.2
	c-0.2-0.3-0.5-0.6-0.8-0.8C145.4,46.9,145,46.8,144.6,46.8z"/>
<path class="st0" d="M149.2,44h0.8v3.3c0.3-0.4,0.6-0.7,1-0.9c0.4-0.2,0.8-0.3,1.2-0.3c0.4,0,0.8,0.1,1.2,0.3
	c0.3,0.2,0.6,0.5,0.8,0.9c0.2,0.6,0.3,1.2,0.2,1.8v3h-0.8v-2.8c0-0.5,0-0.9-0.1-1.3c-0.1-0.7-0.8-1.3-1.5-1.2
	c-0.4,0-0.9,0.2-1.2,0.5c-0.4,0.3-0.6,0.7-0.7,1.1c-0.1,0.5-0.1,1.1-0.1,1.6v2.1h-0.8L149.2,44z"/>
<path class="st0" d="M162.6,44.2l3.7,7.9h-0.9l-1.2-2.6h-3.4l-1.2,2.6h-0.9l3.7-7.9H162.6z M162.5,45.8l-1.4,2.9h2.7L162.5,45.8z"/>
<path class="st0" d="M173.3,44v8.1h-0.7v-1c-0.3,0.4-0.7,0.7-1.1,0.9c-0.4,0.2-0.8,0.3-1.3,0.3c-0.8,0-1.6-0.3-2.1-0.9
	c-0.6-0.6-0.9-1.4-0.9-2.2c0-0.8,0.3-1.6,0.9-2.2c0.6-0.6,1.3-0.9,2.1-0.9c0.5,0,0.9,0.1,1.3,0.3c0.4,0.2,0.7,0.5,1,0.9V44H173.3z
	 M170.3,46.8c-0.8,0-1.6,0.5-2,1.2c-0.2,0.4-0.3,0.8-0.3,1.2c0,0.8,0.4,1.6,1.2,2.1c0.3,0.2,0.7,0.3,1.1,0.3c0.4,0,0.8-0.1,1.2-0.3
	c0.4-0.2,0.6-0.5,0.9-0.8c0.2-0.4,0.3-0.8,0.3-1.2c0-0.6-0.2-1.2-0.7-1.7C171.5,47.1,170.9,46.8,170.3,46.8L170.3,46.8z"/>
<path class="st0" d="M175.1,46.2h0.8v1c0.2-0.3,0.5-0.6,0.8-0.8c0.4-0.2,0.8-0.3,1.2-0.3c0.3,0,0.5,0.1,0.8,0.2
	c0.2,0.1,0.5,0.2,0.6,0.4c0.2,0.2,0.3,0.5,0.4,0.8c0.2-0.4,0.5-0.8,0.9-1c0.4-0.2,0.8-0.4,1.2-0.4c0.4,0,0.8,0.1,1.1,0.3
	c0.3,0.2,0.6,0.5,0.7,0.8c0.2,0.5,0.3,1.1,0.2,1.6v3.2h-0.8v-3.2c0-0.4,0-0.9-0.1-1.3c-0.1-0.2-0.2-0.4-0.4-0.6
	c-0.2-0.1-0.5-0.2-0.8-0.2c-0.4,0-0.7,0.1-1,0.3c-0.3,0.2-0.5,0.5-0.7,0.9c-0.2,0.6-0.2,1.2-0.2,1.8v2.3h-0.8v-3c0-0.5,0-1-0.1-1.4
	c-0.1-0.2-0.2-0.5-0.5-0.6c-0.2-0.2-0.5-0.2-0.8-0.2c-0.4,0-0.7,0.1-1,0.3c-0.3,0.2-0.5,0.5-0.7,0.8c-0.2,0.5-0.2,1.1-0.2,1.6v2.5
	h-0.8L175.1,46.2z"/>
<path class="st0" d="M185.8,43.8c0.2,0,0.3,0.1,0.4,0.2c0.1,0.1,0.2,0.3,0.2,0.4c0,0.2-0.1,0.3-0.2,0.4c-0.1,0.1-0.3,0.2-0.4,0.2
	c-0.3,0-0.6-0.3-0.6-0.6l0,0c0-0.2,0.1-0.3,0.2-0.4C185.5,43.9,185.6,43.8,185.8,43.8z M185.4,46.2h0.8v5.8h-0.8V46.2z"/>
<path class="st0" d="M187.9,46.2h0.8v1c0.3-0.4,0.6-0.7,1-0.9c0.4-0.2,0.8-0.3,1.2-0.3c0.4,0,0.8,0.1,1.2,0.3
	c0.3,0.2,0.6,0.5,0.8,0.9c0.2,0.6,0.3,1.2,0.2,1.8v3h-0.8v-2.8c0-0.5,0-0.9-0.1-1.3c-0.1-0.7-0.7-1.2-1.5-1.2
	c-0.5,0-0.9,0.2-1.2,0.5c-0.3,0.3-0.6,0.7-0.7,1.1c-0.1,0.5-0.1,1.1-0.1,1.6v2.1h-0.8L187.9,46.2z"/>
<path class="st0" d="M194.9,43.8c0.2,0,0.3,0.1,0.4,0.2c0.1,0.1,0.2,0.3,0.2,0.4c0,0.2-0.1,0.3-0.2,0.4c-0.1,0.1-0.3,0.2-0.4,0.2
	c-0.3,0-0.6-0.3-0.6-0.6l0,0c0-0.2,0.1-0.3,0.2-0.4C194.6,43.9,194.8,43.8,194.9,43.8z M194.6,46.2h0.8v5.8h-0.8V46.2z"/>
<path class="st0" d="M199.9,46.9l-0.5,0.5c-0.3-0.3-0.7-0.6-1.2-0.6c-0.2,0-0.5,0.1-0.6,0.2c-0.2,0.1-0.3,0.4-0.3,0.6
	c0,0.2,0.1,0.4,0.2,0.5c0.3,0.3,0.6,0.5,0.9,0.6c0.4,0.2,0.8,0.5,1.1,0.8c0.2,0.3,0.3,0.6,0.3,0.9c0,0.5-0.2,0.9-0.5,1.2
	c-0.3,0.3-0.8,0.5-1.3,0.5c-0.3,0-0.7-0.1-1-0.2c-0.3-0.1-0.6-0.3-0.8-0.6l0.5-0.5c0.3,0.4,0.7,0.6,1.2,0.7c0.3,0,0.6-0.1,0.8-0.3
	c0.2-0.2,0.3-0.4,0.3-0.7c0-0.2-0.1-0.4-0.2-0.5c-0.3-0.3-0.6-0.5-0.9-0.6c-0.4-0.2-0.8-0.5-1.1-0.8c-0.2-0.3-0.3-0.6-0.3-0.9
	c0-0.4,0.2-0.8,0.5-1.1c0.3-0.3,0.7-0.5,1.1-0.4C198.9,46.1,199.5,46.4,199.9,46.9z"/>
<path class="st0" d="M202,44.1h0.8v2.2h1.2v0.7h-1.2v5.2H202v-5.2h-1v-0.7h1V44.1z"/>
<path class="st0" d="M204.9,46.2h0.8v0.8c0.2-0.3,0.4-0.5,0.7-0.8c0.2-0.2,0.5-0.3,0.8-0.2c0.2,0,0.5,0.1,0.7,0.2l-0.4,0.6
	c-0.1-0.1-0.3-0.1-0.4-0.1c-0.3,0-0.5,0.1-0.7,0.3c-0.3,0.3-0.5,0.6-0.5,1c-0.1,0.7-0.2,1.3-0.1,2v2h-0.8L204.9,46.2z"/>
<path class="st0" d="M214.4,46.2v5.8h-0.7v-1c-0.3,0.4-0.6,0.7-1.1,0.9c-0.4,0.2-0.8,0.3-1.3,0.3c-0.8,0-1.6-0.3-2.1-0.9
	c-0.6-0.6-0.9-1.4-0.9-2.2c0-0.8,0.3-1.6,0.9-2.2c0.6-0.6,1.3-0.9,2.1-0.9c0.5,0,0.9,0.1,1.3,0.3c0.4,0.2,0.7,0.5,1,0.9v-1.1H214.4z
	 M211.4,46.8c-0.8,0-1.6,0.5-2,1.2c-0.2,0.4-0.3,0.8-0.3,1.2c0,0.4,0.1,0.8,0.3,1.2c0.2,0.4,0.5,0.7,0.9,0.9
	c0.3,0.2,0.7,0.3,1.1,0.3c0.4,0,0.8-0.1,1.2-0.3c0.4-0.2,0.6-0.5,0.9-0.8c0.2-0.4,0.3-0.8,0.3-1.2c0-0.6-0.2-1.2-0.7-1.7
	C212.7,47,212.1,46.8,211.4,46.8z"/>
<path class="st0" d="M216.9,44.1h0.8v2.2h1.2v0.7h-1.2v5.2h-0.8v-5.2h-1v-0.7h1V44.1z"/>
<path class="st0" d="M220.3,43.8c0.2,0,0.3,0.1,0.4,0.2c0.1,0.1,0.2,0.3,0.2,0.4c0,0.2-0.1,0.3-0.2,0.4c-0.1,0.1-0.3,0.2-0.4,0.2
	c-0.3,0-0.6-0.3-0.6-0.6l0,0c0-0.2,0.1-0.3,0.2-0.4C220,43.9,220.2,43.8,220.3,43.8z M220,46.2h0.8v5.8H220V46.2z"/>
<path class="st0" d="M221.8,46.2h0.8l2,4.3l1.9-4.3h0.8l-2.7,5.8h-0.1L221.8,46.2z"/>
<path class="st0" d="M233.5,50.1l0.6,0.3c-0.2,0.4-0.4,0.7-0.7,1c-0.3,0.2-0.6,0.4-0.9,0.6c-0.4,0.1-0.8,0.2-1.1,0.2
	c-0.8,0-1.7-0.3-2.2-0.9c-0.5-0.6-0.8-1.3-0.8-2.1c0-0.7,0.2-1.4,0.7-2c0.5-0.7,1.4-1.1,2.3-1.1c0.9,0,1.8,0.4,2.4,1.1
	c0.4,0.6,0.7,1.3,0.6,2h-5.3c0,0.6,0.2,1.2,0.6,1.7c0.4,0.4,1,0.7,1.6,0.7c0.3,0,0.6-0.1,0.9-0.2c0.3-0.1,0.5-0.2,0.7-0.4
	C233.1,50.7,233.4,50.4,233.5,50.1z M233.5,48.6c-0.1-0.4-0.2-0.7-0.4-1c-0.2-0.3-0.5-0.4-0.8-0.6c-0.3-0.1-0.7-0.2-1-0.2
	c-0.5,0-1.1,0.2-1.5,0.5c-0.3,0.3-0.6,0.7-0.7,1.2L233.5,48.6z"/>
<path class="st0" d="M246.5,45.6l-0.6,0.5c-0.3-0.4-0.7-0.8-1.2-1c-0.5-0.2-1-0.4-1.6-0.3c-0.6,0-1.2,0.2-1.8,0.5
	c-0.5,0.3-1,0.7-1.2,1.2c-0.3,0.5-0.5,1.1-0.4,1.7c0,0.9,0.3,1.8,1,2.4c0.7,0.7,1.6,1,2.5,1c1.1,0,2.1-0.5,2.8-1.3l0.6,0.5
	c-0.4,0.5-0.9,0.9-1.5,1.1c-0.6,0.3-1.3,0.4-2,0.4c-2.2,0.1-4.2-1.6-4.3-3.9c0-0.1,0-0.2,0-0.3c0-1.1,0.5-2.2,1.3-2.9
	c0.8-0.8,1.9-1.2,3-1.2c0.7,0,1.4,0.1,2,0.4C245.6,44.7,246.1,45.1,246.5,45.6z"/>
<path class="st0" d="M250.8,46.1c0.9,0,1.7,0.4,2.2,1c0.5,0.6,0.8,1.3,0.8,2.1c0,0.8-0.3,1.6-0.9,2.1c-1.2,1.2-3.2,1.2-4.4,0
	c0,0,0,0,0,0c-1.1-1.2-1.1-3.1,0-4.2C249.2,46.4,250,46.1,250.8,46.1z M250.8,46.8c-0.6,0-1.2,0.2-1.6,0.7c-0.4,0.4-0.7,1-0.7,1.7
	c0,0.4,0.1,0.8,0.3,1.2c0.2,0.3,0.5,0.6,0.8,0.8c0.7,0.4,1.6,0.4,2.3,0c0.3-0.2,0.6-0.5,0.8-0.8c0.2-0.4,0.3-0.8,0.3-1.2
	c0-0.6-0.2-1.2-0.7-1.7C252,47.1,251.4,46.8,250.8,46.8z"/>
<path class="st0" d="M255.3,46.2h0.7V49c0,0.5,0,0.9,0.1,1.4c0.1,0.3,0.3,0.6,0.6,0.8c0.7,0.4,1.5,0.4,2.1,0
	c0.3-0.2,0.5-0.5,0.6-0.8c0.1-0.5,0.1-1,0.1-1.4v-2.8h0.8v2.9c0,0.6-0.1,1.2-0.3,1.8c-0.2,0.4-0.5,0.8-0.8,1c-0.9,0.5-2,0.5-2.9,0
	c-0.4-0.2-0.7-0.6-0.9-1c-0.2-0.6-0.3-1.2-0.3-1.9L255.3,46.2z"/>
<path class="st0" d="M261.9,46.2h0.8v0.8c0.2-0.3,0.4-0.5,0.7-0.8c0.2-0.2,0.5-0.3,0.8-0.2c0.2,0,0.5,0.1,0.7,0.2l-0.4,0.6
	c-0.1-0.1-0.3-0.1-0.4-0.1c-0.3,0-0.5,0.1-0.7,0.3c-0.3,0.3-0.5,0.6-0.5,1c-0.1,0.7-0.2,1.3-0.1,2v2h-0.8V46.2z"/>
<path class="st0" d="M266.2,44.1h0.8v2.2h1.2v0.7H267v5.2h-0.8v-5.2h-1v-0.7h1V44.1z"/>
<circle class="st0" cx="32.7" cy="31.4" r="30.3"/>
<linearGradient id="SVGID_1_" gradientUnits="userSpaceOnUse" x1="32.645" y1="5.22" x2="32.645" y2="28.47" gradientTransform="matrix(1 0 0 -1 0 66)">
	<stop  offset="0.69" style="stop-color:#B7A246"/>
	<stop  offset="1" style="stop-color:#FFFFFF"/>
</linearGradient>
<path class="st1" d="M61.5,37.8c-3.1,13.4-15.1,22.9-28.8,23c-14,0-25.9-10.2-28.9-23.2h7.4c2.8,9,11.5,16.1,21.5,16.1
	c9.8-0.1,18.4-6.5,21.4-15.8H61.5z"/>
<path class="st2" d="M53.6,31.3c0,11.6-9.4,21-21,21s-21-9.4-21-21s9.4-21,21-21S53.6,19.7,53.6,31.3L53.6,31.3z"/>
<path class="st0" d="M34.3,33.8H31V42c0,0.9,0.8,1.7,1.7,1.7c0.9,0,1.6-0.7,1.6-1.6c0,0,0,0,0,0V33.8z"/>
<path class="st0" d="M35.6,44h-5.8c-0.4,0-0.7,0.3-0.8,0.6c0,0,0,0,0,0v0.8c0,0.4,0.4,0.7,0.7,0.7c0,0,0,0,0,0h5.8
	c0.4,0,0.7-0.2,0.7-0.6c0,0,0,0,0,0v-0.8C36.3,44.3,35.9,44,35.6,44C35.6,44,35.6,44,35.6,44z"/>
<path class="st0" d="M36.7,46.9h-8c-0.6,0-1,0.3-1,0.7v0.8c0,0.4,0.4,0.7,1,0.7h8c0.5,0,1-0.3,1-0.7v-0.8
	C37.7,47.2,37.2,46.9,36.7,46.9z"/>
<path class="st0" d="M48.9,23.3c0-0.3-0.2-0.5-0.4-0.6c-0.4-0.3-1-0.2-1.4,0.1C44.7,25,41,25,38.5,22.8c-3.2-2.7-7.9-2.8-11.2-0.2h0
	l-0.2,0.2l0,0c-1.2,1.1-2.8,1.7-4.4,1.7c-1.6,0-3.2-0.6-4.4-1.7c-0.2-0.2-0.4-0.3-0.7-0.3c-0.2,0-0.5,0-0.7,0.2
	c-0.2,0.1-0.4,0.4-0.4,0.6v0.1c0,0.2,0.1,0.4,0.3,0.6c1.6,1.5,3.7,2.3,5.9,2.3c2,0,3.9-0.6,5.5-1.9l0,0l0,0l0.1-0.1
	c2.5-2.2,6.2-2.2,8.7-0.1c1.6,1.4,3.6,2.1,5.7,2.1c2.2,0,4.3-0.8,5.9-2.3c0.2-0.2,0.3-0.4,0.3-0.6V23.3z M48.9,23.3L48.9,23.3
	L48.9,23.3z"/>
<path class="st0" d="M36.1,17c0,1.9-1.6,3.4-3.5,3.4c-1.9,0-3.4-1.6-3.4-3.5c0-1.9,1.5-3.4,3.4-3.4C34.6,13.5,36.1,15.1,36.1,17z"/>
<path class="st0" d="M27.6,38.4l-5.3-12C22.2,26.2,22,26,21.7,26c-0.2,0-0.4,0.1-0.5,0.4l0,0l-5.3,12c-0.1,0.2-0.1,0.4,0,0.6
	c1.2,2,3.4,3.2,5.8,3.2c2.4,0.1,4.6-1.1,5.8-3.1C27.7,38.8,27.7,38.6,27.6,38.4z M21.7,28.1c0.3,0.7,4.3,9.8,4.6,10.4h-9.2l3.1-7
	L21.7,28.1z"/>
<path class="st0" d="M49.5,38.4l-5.3-12c-0.1-0.2-0.3-0.4-0.5-0.4c-0.2,0-0.4,0.1-0.5,0.4l0,0l-5.3,12c-0.1,0.2-0.1,0.4,0,0.6
	c1.2,2,3.4,3.2,5.8,3.2c2.4,0.1,4.6-1.1,5.8-3.1C49.6,38.8,49.6,38.6,49.5,38.4z M43.7,28.1l4.6,10.4h-9.2c0.2-0.4,2-4.5,2-4.5
	S43.4,28.8,43.7,28.1z"/>
<path class="st0" d="M38.3,25.4c-0.5,0-0.8,0.3-0.9,0.8c0,0.1,0,0.1,0,0.2h-1.2v-0.5h-7v0.5H28c0.1-0.4-0.3-0.9-0.7-0.9
	c-0.1,0-0.1,0-0.2,0c0,0-0.8,0-0.8,1v4.4c0,1.1,0.8,1,0.8,1c0.5,0,0.9-0.3,0.9-0.8c0,0,0-0.1,0-0.1h1.1v0.5H31V33h3.3v-1.5h1.9v-0.5
	h1.2c-0.1,0.5,0.3,0.9,0.7,0.9c0,0,0.1,0,0.1,0c0,0,0.8,0,0.8-1v-4.4C39,25.4,38.3,25.4,38.3,25.4z"/>
<path class="st0" d="M12.9,50.9C12.8,51,12.7,51,12.6,51c-0.1,0-0.3-0.1-0.4-0.3l-0.2-0.3l0.2-0.3l0.3,0.4c0.1,0.1,0.2,0.2,0.4,0.1
	l1.3-1l-2.6-3.2l-1.7,1.4l-0.2-0.3l1.9-1.6l3,3.7L12.9,50.9z M12.3,49.9l-1.6-2l0.9-0.7l1.6,2L12.3,49.9z M12.3,49.5l0.4-0.4
	l-1.2-1.5L11.1,48L12.3,49.5z M14.4,48.9l-2.2-2.8l0.9-0.7l2.3,2.8L14.4,48.9z M14.4,48.4l0.4-0.3L13,45.8l-0.4,0.3L14.4,48.4z
	 M16.1,48.6l-3.4-4.2l0.2-0.2l1.6,2c0.1-0.1,0.2-0.3,0.3-0.4l0.3,0.2c-0.1,0.2-0.2,0.4-0.3,0.5l1.6,1.9L16.1,48.6z"/>
<path class="st0" d="M16.2,53.9l-0.3-0.1c0.1-0.1,0.1-0.3,0.2-0.5c-0.6-0.2-1.1-0.5-1.7-0.7l0.1-0.3c1-0.3,1.9-0.7,2.7-1.4l0.2,0.3
	c-0.7,0.5-1.5,1-2.3,1.3c0.4,0.2,0.8,0.4,1.1,0.5c0.1-0.3,0.2-0.6,0.2-0.9l0.3,0.1C16.5,52.9,16.4,53.4,16.2,53.9z M18.4,50.8
	l-0.9-0.7c-0.7,0.7-1.6,1.2-2.6,1.5l-0.1-0.3c0.9-0.3,1.7-0.8,2.4-1.4l-0.8-0.6l0.2-0.2l0.8,0.6c0.2-0.2,0.4-0.4,0.6-0.7l0.2,0.2
	c-0.2,0.2-0.4,0.4-0.6,0.6l0.9,0.7L18.4,50.8z M18.5,55.6l-1.9-1.4l-0.2,0.2l-0.3-0.2l2.1-2.8c-0.2,0.1-0.5,0.1-0.8,0.2l-0.1-0.3
	c0.8-0.2,1.6-0.5,2.2-1l0.2,0.2c-0.3,0.2-0.7,0.4-1,0.6l0.9,0.7c0.1-0.3,0.3-0.6,0.3-0.9l0.3,0.1c-0.1,0.3-0.2,0.7-0.4,1l0.6,0.5
	l-0.2,0.2l-0.8-0.6l-0.5,0.7l0.7,0.5l-0.2,0.2l-0.7-0.5l-0.5,0.7l0.7,0.5l-0.2,0.2L18.4,54l-0.5,0.7l0.9,0.6L18.5,55.6z M17.6,54.5
	l0.5-0.7l-0.8-0.6L16.8,54L17.6,54.5z M18.3,53.5l0.5-0.7l-0.8-0.6L17.5,53L18.3,53.5z M19,52.6l0.5-0.7l-0.8-0.6L18.2,52L19,52.6z"
	/>
<path class="st0" d="M24.7,58.1c0,0.1-0.1,0.2-0.2,0.3c-0.2,0-0.4,0-0.6-0.1l-0.3-0.1v-0.3l0.5,0.2c0.2,0.1,0.3,0,0.4-0.1l0.6-1.5
	l-3.9-1.5l-0.8,2l-0.3-0.1l0.9-2.3l4.5,1.8L24.7,58.1z M23.7,57.6l-2.4-1l0.4-1.1l2.4,1L23.7,57.6z M26.4,54.6l-5-2l0.1-0.3l2.4,0.9
	c0-0.2,0-0.3,0-0.5h0.3c0,0.2,0,0.4,0,0.6l2.3,0.9L26.4,54.6z M25,55.6l-3.3-1.3l0.4-1.1l3.3,1.3L25,55.6z M23.5,57.2l0.2-0.5
	L22,55.9l-0.2,0.5L23.5,57.2z M24.8,55.2l0.2-0.5l-2.7-1.1l-0.2,0.5L24.8,55.2z"/>
<path class="st0" d="M32.2,58.2L31,58.1L30.9,59c0,0.2-0.1,0.4-0.2,0.4c-0.2,0.1-0.5,0.1-0.7,0l-0.5-0.1L29.4,59l0.6,0.1h0.4
	c0.1,0,0.1,0,0.1-0.2l0.1-1l-4-0.5v-0.3l4,0.5l0.1-0.6l-3.4-0.4v-0.3l2,0.2l0.1-0.5L27.1,56v-0.3l2.3,0.3l0-0.4h0.3V56l2.3,0.2v0.3
	l-2.3-0.3l-0.1,0.5l2,0.2v0.3l-0.6-0.1l-0.1,0.5l1.2,0.1L32.2,58.2z M29.7,55l-1.8-0.2c-0.2,0.2-0.5,0.4-0.7,0.5L27,55.1
	c0.5-0.3,0.9-0.6,1.2-1.1l0.3,0.1l-0.4,0.5l1.6,0.2L29.7,55z M29,58.9L28.7,59c-0.2-0.3-0.5-0.6-0.9-0.9l0.2-0.1
	C28.4,58.3,28.7,58.5,29,58.9z M28.9,55.5l-0.3,0.1c-0.1-0.2-0.2-0.4-0.4-0.5l0.3-0.1C28.6,55.2,28.7,55.4,28.9,55.5L28.9,55.5z
	 M32.4,55.3l-2-0.2c-0.1,0.1-0.3,0.2-0.4,0.3l-0.2-0.2c0.4-0.2,0.7-0.6,0.9-1l0.3,0.1c-0.1,0.2-0.2,0.3-0.3,0.4l1.8,0.2L32.4,55.3z
	 M31.6,55.8L31.3,56c-0.1-0.2-0.2-0.4-0.4-0.5l0.3-0.1C31.3,55.5,31.5,55.7,31.6,55.8L31.6,55.8z"/>
<path class="st0" d="M34.7,54.4c-0.4,0.6-0.9,1-1.4,1.4L33,55.6c0.5-0.4,1-0.8,1.4-1.4L34.7,54.4z M35,55.6
	c-0.1,0.3-0.3,0.6-0.5,0.9l0.4,3h-0.3l-0.3-2.6c-0.2,0.3-0.5,0.6-0.7,0.8l-0.2-0.2c0.6-0.6,1.1-1.3,1.4-2L35,55.6z M38.7,55.9
	l-1,0.1l0.3,2.7c0,0.1,0,0.2-0.1,0.3c-0.1,0.1-0.1,0.1-0.2,0.2c-0.2,0-0.4,0.1-0.5,0.1l-0.6,0.1L36.4,59l0.6-0.1
	c0.2,0,0.4,0,0.6-0.1c0,0,0-0.1,0-0.1l-0.3-2.7L35,56.3V56l3.6-0.4L38.7,55.9z M38.2,54.4l-3,0.4v-0.3l3-0.4V54.4z"/>
<path class="st0" d="M42.8,56.4c-0.8,0.8-1.5,1.4-2.2,1.9l-0.2-0.2l0.3-0.3l-1.1-2.7l0.3-0.1l1.1,2.6l0.5-0.4l-1.4-3.4L39,54.3
	L38.8,54l2.5-1l0.1,0.3l-1,0.4l0.6,1.4l0.8-0.3l0.1,0.3l-0.8,0.3l0.7,1.6c0.2-0.2,0.5-0.5,0.9-0.8L42.8,56.4z M45.7,56.3l-0.1,0.3
	c-0.6,0-1.2-0.2-1.7-0.4c-0.3,0.6-0.6,1.1-1,1.5l-0.3-0.2c0.4-0.5,0.8-1,1-1.5c-0.4-0.3-0.8-0.7-1.1-1.1l0.2-0.2
	c0.3,0.4,0.6,0.7,1,1c0.1-0.9,0.1-1.7-0.3-2.5l-1.1,0.5c0.1,0.5,0.1,1,0,1.5L42,55c0.1-0.8,0.1-1.7-0.2-2.5l0.3-0.1
	c0.1,0.3,0.1,0.6,0.2,0.9l1.7-0.7l0.1,0.3l-0.4,0.2c0.3,0.9,0.4,1.9,0.2,2.8C44.5,56.1,45.1,56.3,45.7,56.3z"/>
<path class="st0" d="M45.6,51.3l-0.1,0.3c-0.4,0-0.9,0-1.3,0v-0.3C44.7,51.2,45.2,51.2,45.6,51.3z M46.4,52.5v0.3
	c-0.4-0.1-0.9-0.1-1.3,0v-0.3C45.5,52.5,46,52.5,46.4,52.5z M50,50.3l-1.6,1.2c0.1,0.8,0.2,1.7,0.1,2.5c0.6-0.6,1.2-1.2,1.8-1.9
	c-0.4-0.1-0.7-0.3-1.1-0.3l0.1-0.3c0.7,0.2,1.4,0.4,2.1,0.7l-0.1,0.3c-0.2-0.1-0.5-0.2-0.7-0.3c-0.7,0.8-1.4,1.6-2.2,2.3l-0.3-0.2
	c0.1-0.3,0.2-0.7,0.2-1c0-0.5-0.1-1.1-0.2-1.6l-1.2,1l-0.2-0.2l1.5-1.1l-0.7-0.9l-1.2,0.9L46,51.1l1.2-0.9l-0.6-0.7l0.3-0.2l0.6,0.7
	l1.2-0.9l0.2,0.2l-1.2,0.9l0.7,0.9l1.4-1.1L50,50.3z M47,53.3c0.2,0.8,0.3,1.5,0.3,2.3H47c0-0.8-0.1-1.5-0.3-2.3L47,53.3z"/>
<path class="st0" d="M50.8,48.1c0.5,0,1,0.1,1.4,0.5c0.1,0.1,0.2,0.2,0.2,0.4c0,0.2-0.1,0.3-0.3,0.6l-0.2,0.2l-0.3-0.1l0.2-0.3
	c0.1-0.1,0.2-0.2,0.2-0.3c0-0.1,0-0.2-0.1-0.2c-0.4-0.3-0.9-0.4-1.4-0.4c-0.2-0.4-0.5-0.8-0.8-1.3l-0.6,0.7l3.7,3l-0.2,0.2l-4-3.2
	l1-1.2l0.2,0.2C50.3,47.2,50.6,47.7,50.8,48.1z M53.4,44.9l-0.2,0.3l-0.7-0.6l-1.7,2.1l0.7,0.6l-0.2,0.3l-0.9-0.8l0.9-1.2
	c-0.2-0.1-0.4-0.1-0.6-0.2l0.2-0.3c0.2,0.1,0.4,0.1,0.6,0.2l1-1.2L53.4,44.9z M53.1,45.4l-1.4,1.7l-0.2-0.2l1.4-1.7L53.1,45.4z
	 M55.2,46.2c0.2,0.1,0.4,0.3,0.5,0.5c0.1,0.1,0.1,0.3,0.1,0.4c-0.1,0.2-0.2,0.4-0.3,0.5c-0.2,0.3-0.4,0.3-0.6,0.2l-1.4-1.2L53,47.2
	c0.4,0.3,0.7,0.8,0.9,1.3c0.1,0.5,0.1,0.9-0.1,1.3h-0.3c0.2-0.4,0.2-0.9,0.1-1.3c-0.1-0.4-0.4-0.8-0.8-1.1l-0.6,0.7L52,48l2.1-2.6
	l0.2,0.2l-0.7,0.8l1.4,1.1c0,0,0.1,0,0.1,0c0,0,0.1-0.1,0.2-0.2c0.1-0.1,0.1-0.2,0.2-0.2c0,0,0-0.1,0-0.1c0-0.1-0.1-0.2-0.2-0.2
	c-0.1-0.1-0.3-0.2-0.4-0.3L55.2,46.2z"/>
<path class="st3" d="M6,39.8l-0.2-0.7L8,39.7l1.7-2l0.2,0.7l-1.6,1.8l2-0.7l0.2,0.5l-4,1.3l-0.2-0.5l1.9-0.6L6,39.8z"/>
<path class="st3" d="M8.6,36.9l1,0.1l0.1,0.6l-4.5-0.4l-0.1-0.5l4-2.1l0.1,0.6l-0.9,0.5L8.6,36.9z M6.2,36.8l1.9,0.1l-0.2-1
	L6.2,36.8z"/>
<path class="st3" d="M7,34.5c-0.6,0-1.1-0.1-1.6-0.4C5,33.9,4.7,33.5,4.7,33c0-0.5,0.2-0.9,0.6-1.2c0.4-0.3,1-0.5,1.6-0.6
	c0.6,0,1.1,0.1,1.6,0.4c0.4,0.2,0.7,0.7,0.7,1.1c0,0.5-0.2,1-0.6,1.2C8.1,34.3,7.6,34.5,7,34.5z M6.9,34c0.4,0,0.8-0.2,1.1-0.4
	c0.3-0.2,0.4-0.5,0.4-0.8c0-0.3-0.2-0.6-0.5-0.8c-0.3-0.2-0.7-0.3-1.1-0.2c-0.4,0-0.7,0.1-1,0.3c-0.4,0.3-0.5,0.9-0.2,1.3
	c0.1,0.1,0.2,0.2,0.3,0.3C6.2,33.9,6.6,34,6.9,34z"/>
<path class="st3" d="M6.6,28.5l-1.7-0.1v-0.6l4.2,0.4v0.6l-1.9-0.2l-0.1,1.4L9,30.1v0.6l-4.3-0.4v-0.6l1.7,0.1L6.6,28.5z"/>
<path class="st3" d="M6.3,25.3c-0.2,0.1-0.4,0.2-0.5,0.5c0,0.1,0,0.3,0.1,0.4c0.1,0.1,0.2,0.2,0.4,0.2c0.2,0,0.4-0.1,0.7-0.4
	l0.5-0.4c0.3-0.2,0.6-0.3,0.9-0.2c0.4,0,0.7,0.2,1,0.5c0.2,0.2,0.3,0.6,0.2,0.9c-0.1,0.4-0.4,0.7-1,0.8l-0.4-0.4
	c0.2,0,0.3-0.1,0.5-0.1C8.8,26.9,9,26.8,9,26.6c0-0.2,0-0.3-0.1-0.4C8.7,26.1,8.5,26,8.4,26c-0.1,0-0.2,0-0.4,0
	c-0.2,0.2-0.5,0.4-0.6,0.6C7.1,27,6.7,27.1,6.3,27c-0.3-0.1-0.6-0.2-0.8-0.5c-0.2-0.2-0.3-0.5-0.2-0.8c0.1-0.4,0.3-0.7,0.7-0.8
	L6.3,25.3z"/>
<path class="st3" d="M10,24.7l-0.2,0.5L5.7,24l0.2-0.5L10,24.7z"/>
<path class="st3" d="M6.2,22.6L6.4,22l2.2,0.9c0.9,0.3,1.4,0.3,1.5-0.1s-0.2-0.8-1-1.1l-2.2-0.9l0.2-0.5l2.4,0.9
	c1.1,0.4,1.6,1,1.2,1.8s-1,0.9-2.1,0.5L6.2,22.6z"/>
<path class="st3" d="M7.4,19.1l0.2-0.4l3.7-0.1l-2.7-1.5L9,16.6l3.8,2.1l-0.2,0.4l-3.7,0.1l2.7,1.5l-0.3,0.5L7.4,19.1z"/>
<path class="st3" d="M13,14.5L13,14.5c0.6,0.4,0.9,0.8,1.1,1.4c0.2,0.4,0.1,0.9-0.1,1.3c-0.3,0.4-0.7,0.6-1.2,0.5
	c-0.6,0-1.1-0.2-1.5-0.6c-0.5-0.3-0.8-0.8-1-1.3c-0.2-0.5-0.1-1,0.2-1.3c0.4-0.5,1-0.7,1.6-0.4v0.6c-0.4-0.2-0.8-0.1-1.1,0.2
	c-0.2,0.3-0.2,0.6-0.1,0.9c0.2,0.4,0.4,0.7,0.7,0.9c0.3,0.2,0.7,0.4,1.1,0.5c0.3,0.1,0.6-0.1,0.8-0.3c0.2-0.2,0.2-0.5,0.1-0.7
	c-0.1-0.3-0.3-0.5-0.5-0.7L12.7,16l-0.4-0.4L13,14.5z"/>
<path class="st3" d="M16.3,11l-1.1-1.4l0.4-0.4l2.7,3.3L18,12.9l-1.2-1.5l-1.1,0.9l1.2,1.5l-0.4,0.4l-2.8-3.2l0.4-0.4l1.1,1.3
	L16.3,11z"/>
<path class="st3" d="M19.4,11.9l-0.5,0.3l-2.4-3.5l0.5-0.3L19.4,11.9z"/>
<path class="st3" d="M21.3,8.1L21.3,8.1c0.4,0.6,0.5,1.1,0.5,1.7c0,0.5-0.3,0.9-0.7,1.1c-0.4,0.2-0.9,0.2-1.3,0
	c-0.5-0.2-0.9-0.7-1.2-1.1c-0.3-0.5-0.4-1.1-0.4-1.6c0-0.5,0.3-0.9,0.7-1.1c0.5-0.3,1.2-0.2,1.6,0.2l-0.3,0.6
	c-0.3-0.3-0.7-0.4-1.1-0.2C19,7.7,18.9,8,18.9,8.3c0,0.4,0.1,0.8,0.3,1.1c0.2,0.4,0.5,0.6,0.8,0.8c0.3,0.2,0.6,0.2,0.9,0
	c0.2-0.1,0.4-0.4,0.4-0.6c0-0.3,0-0.6-0.2-0.8l-0.7,0.4L20,8.8L21.3,8.1z"/>
<path class="st3" d="M23.7,6.8l-0.6-1.6L23.6,5l1.5,4l-0.5,0.2l-0.7-1.8l-1.3,0.5l0.7,1.8l-0.5,0.2l-1.5-4l0.5-0.2l0.6,1.6L23.7,6.8
	z"/>
<path class="st3" d="M28.1,7.3l-0.1,1l-0.6,0.1l0.6-4.5l0.5-0.1l1.9,4.1L29.8,8l-0.4-0.9L28.1,7.3z M28.3,4.8l-0.2,1.8l1-0.2
	L28.3,4.8z"/>
<path class="st3" d="M30.6,3.6h0.9c0.5,0,0.9,0.2,1.2,0.6c0.3,0.4,0.5,1,0.5,1.5c0,0.5-0.1,1.1-0.4,1.5c-0.3,0.4-0.7,0.6-1.1,0.6
	h-0.9L30.6,3.6z M31.2,7.2h0.2c0.8,0,1.2-0.5,1.2-1.5s-0.5-1.5-1.2-1.4h-0.2L31.2,7.2z"/>
<path class="st3" d="M36.5,5.2L35.4,8h-0.1l-0.5-3l-0.7,2.8l-0.6-0.1l1-4.3h0.4l0.5,3l1.2-2.8H37v4.5l-0.6-0.1L36.5,5.2z"/>
<path class="st3" d="M38.1,8.4l-0.6-0.1l0.9-4.2L39,4.3L38.1,8.4z"/>
<path class="st3" d="M40,4.4l0.4,0.1l0.8,3.6l1-2.9l0.5,0.2l-1.3,4.1L41,9.4l-0.8-3.6l-1,3l-0.5-0.2L40,4.4z"/>
<path class="st3" d="M42.5,9.9L42,9.7l1.7-3.9L44.2,6L42.5,9.9z"/>
<path class="st3" d="M46,8c0-0.2-0.1-0.5-0.3-0.6c-0.1-0.1-0.3-0.1-0.4,0C45.2,7.5,45,7.6,45,7.7c-0.1,0.2,0,0.4,0.2,0.8
	s0.3,0.6,0.3,0.6c0.1,0.3,0.1,0.6-0.1,0.9c-0.2,0.3-0.4,0.6-0.8,0.8c-0.3,0.1-0.6,0.1-0.9,0c-0.4-0.3-0.6-0.7-0.5-1.2l0.5-0.2
	c0,0.2,0,0.3,0,0.5c0,0.2,0.1,0.3,0.2,0.4c0.1,0.1,0.3,0.1,0.4,0c0.2-0.1,0.3-0.2,0.4-0.4c0.1-0.1,0.1-0.2,0.1-0.4
	c-0.1-0.3-0.2-0.5-0.4-0.8c-0.2-0.3-0.3-0.8-0.1-1.1c0.1-0.3,0.4-0.5,0.7-0.7c0.2-0.1,0.5-0.1,0.8,0c0.3,0.2,0.5,0.5,0.6,0.8L46,8z"
	/>
<path class="st3" d="M46,11.9l-0.4-0.3l2-3L47,8.2l0.3-0.5L49,8.8l-0.3,0.5L48,8.9L46,11.9z"/>
<path class="st3" d="M48.6,13.9L48,13.5l0.5-2.1l-1.2,1.5l-0.4-0.4l2.7-3.3l0.7,0.6c0.6,0.5,0.6,1,0.1,1.7c-0.2,0.2-0.4,0.4-0.7,0.5
	c-0.2,0.1-0.4,0.1-0.6,0L48.6,13.9z M48.7,11.2l0.1,0.1c0.3,0.2,0.7,0.2,0.9,0c0,0,0.1-0.1,0.1-0.1c0.3-0.2,0.3-0.6,0.1-0.9
	c0,0-0.1-0.1-0.1-0.1L49.6,10L48.7,11.2z"/>
<path class="st3" d="M50,14l-0.9,0.4L48.7,14l4-2.1l0.3,0.4l-2.3,3.9l-0.4-0.4l0.5-0.9L50,14z M52.1,12.8l-1.6,0.9l0.7,0.7
	L52.1,12.8z"/>
<path class="st3" d="M51.6,17.3l-0.3-0.4l2.9-2.2l-0.5-0.6l0.5-0.4l1.2,1.6l-0.5,0.4l-0.5-0.6L51.6,17.3z"/>
<path class="st3" d="M52.5,18.6l-0.3-0.5l3.5-2.4l0.3,0.5L52.5,18.6z"/>
<path class="st3" d="M54.4,19.7l3.2-0.8l0.3,0.5l-4.5,1L53.2,20l3.2-3.2l0.3,0.5L54.4,19.7z"/>
<path class="st3" d="M57.8,20.9l-1,0.4l0.4,1l-0.6,0.2l-0.4-1L55,22l0.4,1.1l-0.6,0.2l-0.7-1.6l3.9-1.6l0.7,1.6l-0.6,0.2L57.8,20.9z
	"/>
<path class="st3" d="M59.2,27.2c0.2-0.2,0.3-0.5,0.3-0.8c-0.1-0.3-0.3-0.6-0.6-0.6c-0.4-0.1-0.8-0.2-1.1-0.1c-0.4,0.1-0.7,0.2-1,0.5
	c-0.4,0.3-0.5,0.8-0.2,1.2c0.1,0.2,0.3,0.3,0.4,0.3l-0.9,0.2c-0.2-0.2-0.3-0.4-0.4-0.7c-0.1-0.5,0.1-0.9,0.4-1.3
	c0.4-0.4,0.9-0.7,1.4-0.8c0.6-0.1,1.1-0.1,1.7,0.1c0.4,0.2,0.8,0.5,0.9,1c0,0.3,0,0.5-0.1,0.8L59.2,27.2z"/>
<path class="st3" d="M58.3,28.1c0.6-0.1,1.1,0.1,1.6,0.4c0.7,0.4,0.9,1.2,0.6,1.9c-0.1,0.2-0.2,0.4-0.4,0.5c-0.4,0.4-1,0.5-1.5,0.6
	c-0.6,0.1-1.1-0.1-1.6-0.4c-0.7-0.4-0.9-1.2-0.6-1.9c0.1-0.2,0.2-0.3,0.4-0.5C57.1,28.3,57.7,28.1,58.3,28.1z M58.3,28.7
	c-0.4,0-0.8,0.1-1.1,0.4c-0.3,0.2-0.4,0.5-0.4,0.8c0,0.3,0.2,0.6,0.5,0.8c0.3,0.2,0.7,0.3,1.1,0.2c0.4,0,0.7-0.1,1-0.4
	c0.3-0.2,0.4-0.5,0.4-0.8c0-0.3-0.2-0.6-0.5-0.7C59.1,28.7,58.7,28.7,58.3,28.7z"/>
<path class="st3" d="M60.6,32.3v0.6l-2.4-0.2c-0.9-0.1-1.4,0.1-1.4,0.6s0.4,0.7,1.3,0.8l2.4,0.2v0.6l-2.5-0.2
	c-1.2-0.1-1.8-0.5-1.7-1.4s0.7-1.2,1.9-1.1L60.6,32.3z"/>
<path class="st3" d="M55.6,37.2l0.1-0.7l2-0.6L56,35.6l0.1-0.6l4.2,0.8l-0.2,0.9c-0.1,0.7-0.6,1-1.5,0.8c-0.3,0-0.5-0.2-0.8-0.3
	c-0.2-0.1-0.3-0.4-0.3-0.6L55.6,37.2z M58.1,36v0.2c-0.1,0.5,0.1,0.7,0.6,0.8s0.8-0.1,0.9-0.5v-0.2L58.1,36z"/>
<path class="st3" d="M55.2,38.5l0.2-0.5l3.5,1l0.2-0.7l0.6,0.2l-0.6,1.9l-0.6-0.2l0.2-0.7L55.2,38.5z"/>
</svg>
