<?xml version="1.0" encoding="utf-8"?>
<!-- Generator: Adobe Illustrator 27.8.1, SVG Export Plug-In . SVG Version: 6.00 Build 0)  -->
<svg version="1.1" id="圖層_1" xmlns="http://www.w3.org/2000/svg" xmlns:xlink="http://www.w3.org/1999/xlink" x="0px" y="0px"
	 viewBox="0 0 270.8 64" style="enable-background:new 0 0 270.8 64;" xml:space="preserve">
<style type="text/css">
	.st0{fill:#FFFFFF;}
	.st1{fill:url(#SVGID_1_);}
	.st2{fill:#005BAB;}
	.st3{fill:#B7A246;}
</style>
<path class="st0" d="M88,15.2v1.5h-7.9v1h6.3V19H72.1v-1.3h6.2v-1h-7.7v-1.5h7.7v-1.4h1.9v1.4H88z M80.1,33.8H88v1.6H70.6v-1.6h7.7
	v-1h-5.7v-1.4h5.7v-1c-3.7,0.1-4.2,0.2-4.7,0.3c-0.1-0.5-0.3-1-0.4-1.5c0.4-0.1,0.7-0.2,1.1-0.3c0.6-0.2,1.2-0.5,1.7-0.9h-3.1v-1.3
	h12.6V28h-1.9c0.9,0.6,1.8,1.4,2.6,2.1l-1.1,1.1c-0.3-0.4-0.6-0.7-1-1l-4,0.1v1h6v1.4h-6L80.1,33.8z M70.8,24.3h16.9v3.5h-1.8v-2
	H72.5v2h-1.7V24.3z M85.7,19.9v3.5H72.9v-3.5H85.7z M83.9,21.1h-9.3v1.1h9.3V21.1z M78.1,28c-0.6,0.4-1.2,0.8-1.8,1.2l6.3-0.2
	c-0.4-0.3-0.9-0.6-1.3-0.9l0.2-0.1L78.1,28z"/>
<path class="st0" d="M92.9,24.5c-0.8-1-1.8-1.8-2.9-2.5l1-1.5c1.1,0.6,2.1,1.4,3,2.3L92.9,24.5z M90.4,34.5c0.7-1.8,1.8-4.9,2.5-7.6
	l1.5,1.1c-0.6,2.5-1.5,5.3-2.3,7.6L90.4,34.5z M93.2,18.3c-0.8-1-1.7-1.9-2.8-2.7l1.1-1.5c1.1,0.7,2,1.5,2.8,2.4L93.2,18.3z
	 M95.5,22.9c-0.1,1.1-0.4,2.2-0.8,3.2c-0.3-0.3-0.5-0.5-0.9-0.7c0.4-0.9,0.6-1.9,0.7-2.8L95.5,22.9z M98.1,21.9
	c-0.1-0.2-0.1-0.5-0.2-0.7c-2.6,0.4-3.1,0.5-3.4,0.7c-0.1-0.3-0.2-0.7-0.4-1c0.3,0,0.6-0.4,0.9-0.8c0.4-0.5,0.8-1.1,1.1-1.7
	c-0.6,0-1.2,0.1-1.7,0.3c-0.1-0.3-0.2-0.7-0.4-1c0.2,0,0.4-0.3,0.7-0.6c0.5-1,0.9-2,1.2-3l1.1,0.5c-0.4,1-0.8,1.9-1.3,2.7l1.2-0.1
	c0.2-0.4,0.4-0.7,0.5-1.1l1.1,0.5c-0.6,1.3-1.4,2.5-2.3,3.7l1.5-0.2c-0.1-0.2-0.2-0.5-0.3-0.7l0.8-0.4c0.4,0.8,0.7,1.6,0.9,2.4
	L98.1,21.9z M107.6,31c0,0.3-0.1,0.6-0.1,0.8c-0.3,2-0.7,3-1.3,3.5c-0.5,0.4-1.1,0.6-1.7,0.5c-0.6,0-1.8,0-3.1-0.1
	c0-0.6-0.2-1.2-0.5-1.7c1,0.1,2,0.2,3,0.2c0.4,0,0.6,0,0.9-0.2c0.4-0.5,0.6-1.1,0.7-1.7H95.3c0.3-1.1,0.6-2.5,0.9-3.8h8.8v-1h-9.5
	v-1.4h11.2V30h-9l-0.2,1H107.6z M96.3,25.7c0-1-0.2-1.9-0.4-2.9l0.9-0.3c0.3,0.9,0.4,1.8,0.5,2.8L96.3,25.7z M98,25.1
	c-0.1-0.9-0.3-1.8-0.6-2.6l0.8-0.3c0.3,0.8,0.5,1.6,0.7,2.5L98,25.1z M103.5,17.5h-4.8v-1.2h2c-0.2-0.6-0.4-1.2-0.7-1.8l1.2-0.3
	c0.3,0.6,0.6,1.2,0.8,1.9l-0.9,0.3h2.3L103.5,17.5z M99.3,22h3.8v3.5h-3.8V22z M103,19.4h-3.7v-1.1h3.7V19.4z M99.3,20h3.7v1.1h-3.7
	V20z M100.4,24.3h1.4V23h-1.4V24.3z M104.9,22.7c-0.2,1.1-0.5,2.2-0.9,3.3c-0.3-0.3-0.6-0.5-0.9-0.7c0.4-0.9,0.6-1.8,0.7-2.8
	L104.9,22.7z M107.5,21.9c-0.1-0.2-0.1-0.5-0.2-0.8c-1.2,0.1-2.3,0.3-3.4,0.7c-0.1-0.2-0.3-0.8-0.4-1c0.3,0,0.6-0.3,0.9-0.8
	c0.4-0.5,0.8-1.1,1.1-1.7c-0.6,0-1.2,0.1-1.7,0.3c-0.1-0.3-0.2-0.7-0.4-1c0.2,0,0.4-0.3,0.6-0.6c0.5-0.9,0.9-2,1.2-3l1.1,0.4
	c-0.3,0.9-0.8,1.8-1.3,2.7l1.1-0.1c0.2-0.4,0.3-0.7,0.5-1.1l1.1,0.5c-0.6,1.3-1.4,2.5-2.3,3.7l1.5-0.2l-0.3-0.7l0.8-0.4
	c0.4,0.8,0.8,1.7,1,2.5L107.5,21.9z M105.6,25.9c0-1-0.2-2.1-0.4-3.1l0.9-0.3c0.2,1,0.4,2,0.5,3L105.6,25.9z M107.5,22.1
	c0.4,1,0.7,2,0.8,3l-0.9,0.5c-0.1-1-0.4-2.1-0.8-3.1L107.5,22.1z"/>
<path class="st0" d="M128,16.3v1.9h-17.4v-1.9h8c-0.2-0.6-0.4-1.4-0.6-2l1.9-0.5c0.3,0.8,0.6,1.7,0.8,2.5L128,16.3z M127.5,33.7
	c0,1.1-0.2,1.5-0.8,1.8c-0.9,0.3-1.9,0.4-2.9,0.3c-0.1-0.6-0.3-1.1-0.6-1.7c0.8,0,1.8,0,2.1,0s0.4-0.1,0.4-0.4v-6.4H113v8.7h-1.8
	V25.4h16.3V33.7z M125.5,19.3v4.9h-12v-4.9L125.5,19.3z M116.7,33.5v1.1H115v-6.2h8.5v5.1H116.7z M123.5,20.9h-8.2v1.8h8.2V20.9z
	 M116.7,30v1.9h5.1V30H116.7z"/>
<path class="st0" d="M133.4,17.4c-0.5,1-1.2,1.9-1.9,2.8c-0.4-0.5-0.8-1.1-1.3-1.5c1.4-1.4,2.4-3.1,3-4.9l1.7,0.6
	c-0.2,0.4-0.3,0.8-0.5,1.2h4.9v1.9h-3.3c0.6,0.6,1.1,1.2,1.6,1.9l-1.2,1.3c-0.6-0.9-1.3-1.7-2-2.4l0.7-0.7H133.4z M144.3,28.3h3.9
	v1.8h-3.9v3.6c0,1.1-0.2,1.7-1,1.9c-1.2,0.3-2.4,0.3-3.6,0.3c-0.1-0.6-0.3-1.2-0.5-1.8c0.9,0,1.8,0,2.7,0c0.3,0,0.4-0.1,0.4-0.5
	v-3.5h-7.2c1.1,1.1,2.2,2.2,3.2,3.4l-1.4,1.3c-1-1.3-2-2.5-3.2-3.6l1.2-1.1h-4.5v-1.8h11.8v-1.5h1.9L144.3,28.3z M148.5,15.5v1.9h-4
	c0.6,0.6,1.1,1.3,1.6,2.1l-1.3,1.3c-0.5-0.9-1.1-1.8-1.9-2.6l0.8-0.8H142c-0.4,1-1,2-1.6,2.9l-0.1-0.1v0.7h7.2v1.9h-7.2v1.8h6v1.8
	h-14v-1.8h6.1v-1.8h-7.1v-1.9h7.1v-1.3h1.3c-0.2-0.2-0.4-0.4-0.7-0.5c1.2-1.6,2-3.3,2.5-5.3l1.7,0.5c-0.1,0.5-0.2,0.9-0.4,1.3
	L148.5,15.5z"/>
<path class="st0" d="M154,24.8c-1.1-1-2.4-1.9-3.7-2.6l1-1.7c1.3,0.6,2.6,1.5,3.7,2.4L154,24.8z M151,34.1c1.4-2.5,2.7-5,3.8-7.6
	l1.3,1.5c-1,2.5-2.4,5.4-3.5,7.6L151,34.1z M152.5,14.1c1.3,0.7,2.6,1.5,3.8,2.5l-1.1,1.9c-1.1-1.1-2.4-2-3.7-2.7L152.5,14.1z
	 M166.7,35.8c-0.2-0.8-0.5-1.5-0.8-2.3c-7.1,1-8,1.2-8.6,1.6c-0.1-0.5-0.4-1.6-0.6-2.2c0.4-0.1,0.8-0.7,1.3-1.6
	c1-1.8,1.8-3.6,2.5-5.5h-4.1v-2.1h5v-3.9h-4.1v-2.1h4.1v-3.9h1.9v3.9h4.3v2.1h-4.3v3.9h5v2.1h-5.5c-0.9,2.3-2,4.5-3.2,6.6l5.6-0.7
	c-0.5-1-1-1.9-1.6-2.8l1.5-0.9c1.4,2.1,2.6,4.4,3.4,6.8L166.7,35.8z"/>
<path class="st0" d="M177,15.6c-0.6,2-1.3,4.3-1.9,6.2c1.1,1.5,1.6,3.3,1.6,5.1c0.1,1-0.2,2.1-0.8,2.9c-0.3,0.3-0.7,0.4-1.1,0.5
	c-0.4,0-0.9,0-1.3,0c0-0.7-0.2-1.3-0.4-1.9c0.3,0,0.7,0,1,0c0.2,0,0.4-0.1,0.6-0.2c0.3-0.5,0.5-1,0.4-1.6c0-1.7-0.6-3.3-1.6-4.6
	c0.5-1.6,1-3.6,1.4-5.2h-2.2v19H171v-21h4.5l0.3-0.1L177,15.6z M186.7,33.7c0.4,0,0.5-0.4,0.5-3c0.5,0.4,1,0.7,1.6,0.8
	c-0.2,3.2-0.6,4-1.9,4h-1.6c-1.5,0-1.9-0.6-1.9-2.6v-5.6h-1.8c-0.3,4.2-1.3,7-5.1,8.6c-0.3-0.6-0.6-1.2-1.1-1.8
	c3.3-1.3,4.1-3.4,4.3-6.8h-2.6v-2h11.3v2h-3.4v5.6c0,0.7,0.1,0.7,0.4,0.7H186.7z M178.8,21.2h-1.6v-4.4h4.9
	c-0.3-0.8-0.6-1.7-0.9-2.5l1.7-0.6c0.5,1,0.9,2,1.2,3.1h4.4v4.4h-1.6V23h-8.1V21.2z M178.9,18.7V21h7.7v-2.3L178.9,18.7z"/>
<path class="st0" d="M208.2,15.2v1.5h-7.9v1h6.3V19h-14.4v-1.3h6.2v-1h-7.7v-1.5h7.7v-1.4h1.9v1.4H208.2z M200.4,33.8h7.8v1.6h-17.4
	v-1.6h7.7v-1h-5.7v-1.4h5.7v-1c-3.7,0.1-4.2,0.2-4.6,0.3c-0.1-0.5-0.3-1-0.4-1.5c0.4-0.1,0.7-0.2,1.1-0.3c0.6-0.3,1.2-0.6,1.7-1
	h-3.1v-1.3h12.7V28h-1.9c0.9,0.6,1.8,1.4,2.6,2.1l-1.1,1.1c-0.3-0.4-0.6-0.7-1-1l-4,0.1v1h6.1v1.4h-6.1L200.4,33.8z M191.1,24.3
	h16.9v3.5h-1.8v-2h-13.4v2h-1.7L191.1,24.3z M206,19.9v3.5h-12.9v-3.5H206z M204.2,21.1h-9.3v1.1h9.3V21.1z M198.3,28
	c-0.6,0.4-1.2,0.8-1.8,1.2l6.3-0.1c-0.4-0.3-0.9-0.6-1.3-0.9l0.2-0.1H198.3z"/>
<path class="st0" d="M220.3,18.2c-0.1,0.8-0.2,1.5-0.3,2.2h7.4v13.1c0,1.2-0.3,1.8-1,2.1c-1.1,0.3-2.3,0.4-3.4,0.3
	c-0.2-0.7-0.4-1.3-0.7-1.9c0.9,0.1,1.8,0.1,2.7,0.1c0.4,0,0.5-0.1,0.5-0.5v-11h-11.9v13.3h-1.9V20.4h6.5c0.1-0.6,0.2-1.4,0.2-2.2
	h-7.7v-2.1h7.9c0.1-0.8,0.1-1.6,0.1-2.2l2,0.2c-0.1,0.6-0.1,1.3-0.2,2h7.7v2.1L220.3,18.2z M220.3,31.4v3.9h-1.7v-3.9h-4v-1.8h4
	v-2.1H215v-1.8h1.8c-0.2-0.9-0.5-1.8-0.9-2.7l1.5-0.5c0.4,0.9,0.8,1.8,1,2.7l-1.1,0.4h3.3c0.4-1,0.7-2.1,1-3.2l1.7,0.5
	c-0.4,0.9-0.7,1.9-1,2.7h1.9v1.8h-3.8v2.1h4.2v1.8L220.3,31.4z"/>
<path class="st0" d="M243.3,14.3c0.9,3.6,3,7,5.7,8.8c-0.5,0.6-1,1.3-1.4,2c-0.7-0.5-1.3-1.1-1.8-1.7c0,0.1,0,0.3,0,0.4
	c-0.3,7.3-0.5,10.1-1.2,11c-0.4,0.6-1,1-1.6,1c-1,0.1-2.1,0.1-3.1,0c-0.1-0.8-0.3-1.6-0.6-2.3c0.9,0.1,1.9,0.2,2.8,0.2
	c0.3,0,0.6-0.1,0.8-0.3c0.5-0.6,0.7-2.8,0.9-8.4h-4.6c-0.5,4.7-1.8,8.9-7,11.1c-0.3-0.7-0.7-1.4-1.2-2c4.6-1.8,5.7-5.3,6.1-9.1h-3.8
	v-1.6c-0.5,0.7-1,1.3-1.6,1.9c-0.5-0.6-1-1.2-1.6-1.7c2.5-2.4,4.3-5.4,5.1-8.8l1.9,0.6c-0.7,2.7-1.9,5.2-3.4,7.5h11.5
	c-1.5-1.9-2.7-4.1-3.4-6.4h-3.4v-2.1H243.3z"/>
<path class="st0" d="M257.1,15.6c-0.6,2-1.3,4.3-1.9,6.2c1.1,1.5,1.6,3.3,1.6,5.1c0.1,1-0.2,2.1-0.8,2.9c-0.3,0.3-0.7,0.4-1.1,0.5
	c-0.4,0-0.9,0-1.3,0c0-0.7-0.2-1.3-0.4-1.9c0.3,0,0.7,0,1,0c0.2,0,0.4-0.1,0.6-0.2c0.3-0.5,0.5-1,0.4-1.6c0-1.7-0.6-3.3-1.6-4.6
	c0.5-1.6,1-3.6,1.4-5.2h-2.2v19h-1.7v-21h4.5l0.3-0.1L257.1,15.6z M266.9,33.7c0.4,0,0.5-0.4,0.5-3c0.5,0.4,1,0.7,1.6,0.8
	c-0.2,3.2-0.6,4-1.9,4h-1.6c-1.5,0-1.9-0.6-1.9-2.6v-5.6h-1.8c-0.3,4.2-1.3,7-5.1,8.6c-0.3-0.6-0.6-1.2-1.1-1.8
	c3.3-1.3,4.1-3.4,4.3-6.8h-2.6v-2h11.3v2h-3.4v5.6c0,0.7,0.1,0.7,0.4,0.7H266.9z M258.9,21.2h-1.6v-4.4h4.9
	c-0.3-0.8-0.6-1.7-0.9-2.5l1.7-0.6c0.5,1,0.9,2,1.2,3.1h4.4v4.4H267V23h-8.1L258.9,21.2z M259.1,18.7V21h7.7v-2.3L259.1,18.7z"/>
<path class="st0" d="M71.8,45v-0.8h4.3V45h-1.8v7.1h-0.8V45H71.8z"/>
<path class="st0" d="M82.6,46.2v5.8h-0.8v-1c-0.3,0.4-0.6,0.7-1.1,0.9c-0.4,0.2-0.8,0.3-1.3,0.3c-0.8,0-1.6-0.3-2.1-0.9
	c-0.6-0.6-0.9-1.4-0.9-2.2c0-0.8,0.3-1.6,0.9-2.1c0.6-0.6,1.3-0.9,2.1-0.9c0.5,0,0.9,0.1,1.3,0.3c0.4,0.2,0.7,0.5,1,0.9v-1.1H82.6z
	 M79.6,46.8c-0.8,0-1.6,0.4-2,1.2c-0.2,0.4-0.3,0.8-0.3,1.2c0,0.4,0.1,0.8,0.3,1.2c0.2,0.4,0.5,0.7,0.8,0.9c0.3,0.2,0.7,0.3,1.1,0.3
	c0.4,0,0.8-0.1,1.2-0.3c0.4-0.2,0.7-0.5,0.9-0.8c0.2-0.4,0.3-0.8,0.3-1.2c0-0.6-0.2-1.2-0.7-1.7C80.9,47,80.3,46.8,79.6,46.8
	L79.6,46.8z"/>
<path class="st0" d="M84.3,43.8c0.2,0,0.3,0.1,0.4,0.2c0.1,0.1,0.2,0.3,0.2,0.4c0,0.2-0.1,0.3-0.2,0.4c-0.1,0.1-0.3,0.2-0.4,0.2
	c-0.2,0-0.3-0.1-0.4-0.2c-0.1-0.1-0.2-0.3-0.2-0.4c0-0.2,0.1-0.3,0.2-0.4C83.9,43.9,84.1,43.8,84.3,43.8z M83.9,46.2h0.8v5.8h-0.8
	V46.2z"/>
<path class="st0" d="M85.1,46.2h0.8l1.8,4.2l1.9-4.2h0.1l1.9,4.2l1.8-4.2h0.8l-2.5,5.8h-0.1l-1.9-4.2l-1.9,4.2h-0.1L85.1,46.2z"/>
<path class="st0" d="M100.5,46.2v5.8h-0.7v-1c-0.3,0.4-0.6,0.7-1.1,0.9c-0.4,0.2-0.8,0.3-1.3,0.3c-0.8,0-1.6-0.3-2.1-0.9
	c-0.6-0.6-0.9-1.4-0.9-2.2c0-1.7,1.3-3,2.9-3.1c0,0,0,0,0.1,0c0.5,0,0.9,0.1,1.3,0.3c0.4,0.2,0.7,0.5,1,0.9v-1.1H100.5z M97.5,46.8
	c-0.4,0-0.8,0.1-1.2,0.3c-0.4,0.2-0.6,0.5-0.8,0.9c-0.2,0.4-0.3,0.8-0.3,1.2c0,0.4,0.1,0.8,0.3,1.2c0.2,0.4,0.5,0.7,0.8,0.9
	c0.3,0.2,0.7,0.3,1.1,0.3c0.4,0,0.8-0.1,1.2-0.3c0.4-0.2,0.6-0.5,0.8-0.8c0.2-0.4,0.3-0.8,0.3-1.2c0-0.6-0.2-1.2-0.7-1.7
	C98.7,47,98.1,46.8,97.5,46.8z"/>
<path class="st0" d="M101.9,46.2h0.8v1c0.3-0.4,0.6-0.7,1-0.9c0.4-0.2,0.8-0.3,1.2-0.3c0.4,0,0.8,0.1,1.2,0.3
	c0.3,0.2,0.6,0.5,0.8,0.9c0.2,0.6,0.3,1.2,0.2,1.8v3h-0.8v-2.8c0-0.5,0-0.9-0.1-1.3c-0.1-0.7-0.7-1.2-1.5-1.2
	c-0.4,0-0.9,0.2-1.2,0.5c-0.4,0.3-0.6,0.7-0.7,1.1c-0.1,0.5-0.1,1.1-0.1,1.6v2.1h-0.8V46.2z"/>
<path class="st0" d="M111.1,44.2h0.8v3.3h4v-3.3h0.8v7.9h-0.8v-3.8h-4v3.8h-0.8V44.2z"/>
<path class="st0" d="M118.4,43.8c0.2,0,0.3,0.1,0.4,0.2c0.1,0.1,0.2,0.3,0.2,0.4c0,0.2-0.1,0.3-0.2,0.4c-0.1,0.1-0.3,0.2-0.4,0.2
	c-0.2,0-0.3-0.1-0.4-0.2c-0.1-0.1-0.2-0.3-0.2-0.4c0-0.2,0.1-0.3,0.2-0.4C118.1,43.9,118.2,43.8,118.4,43.8z M118,46.2h0.8v5.8H118
	V46.2z"/>
<path class="st0" d="M125.1,46.2h0.8v4.7c0,0.6,0,1.2-0.2,1.8c-0.2,0.5-0.5,1-1,1.2c-0.5,0.3-1.1,0.4-1.8,0.4
	c-0.5,0-0.9-0.1-1.3-0.2c-0.4-0.1-0.7-0.3-1-0.6c-0.3-0.3-0.5-0.6-0.7-1h0.8c0.2,0.4,0.5,0.7,0.9,0.9c0.8,0.4,1.8,0.4,2.6,0
	c0.3-0.2,0.6-0.4,0.8-0.7c0.2-0.4,0.3-0.9,0.2-1.4V51c-0.3,0.3-0.6,0.6-1,0.8c-0.4,0.2-0.9,0.3-1.3,0.3c-0.5,0-1.1-0.1-1.5-0.4
	c-0.5-0.2-0.8-0.6-1.1-1.1c-0.8-1.4-0.3-3.3,1.1-4.1c0,0,0,0,0,0c0.5-0.3,1-0.4,1.5-0.4c0.4,0,0.8,0.1,1.2,0.3
	c0.4,0.2,0.8,0.5,1.1,0.9L125.1,46.2z M122.8,46.8c-0.4,0-0.8,0.1-1.2,0.3c-0.4,0.2-0.7,0.5-0.9,0.9c-0.2,0.4-0.3,0.8-0.3,1.2
	c0,0.6,0.2,1.2,0.6,1.6c0.5,0.4,1.1,0.6,1.7,0.6c0.6,0,1.2-0.2,1.7-0.6c0.4-0.4,0.7-1,0.6-1.6c0-0.4-0.1-0.8-0.3-1.2
	c-0.2-0.3-0.5-0.6-0.8-0.8C123.6,46.9,123.2,46.8,122.8,46.8z"/>
<path class="st0" d="M127.1,44h0.8v3.3c0.3-0.4,0.6-0.7,1-0.9c0.4-0.2,0.8-0.3,1.2-0.3c0.4,0,0.8,0.1,1.2,0.3
	c0.3,0.2,0.6,0.5,0.8,0.9c0.2,0.6,0.3,1.2,0.2,1.8v3h-0.8v-2.8c0-0.5,0-0.9-0.1-1.3c-0.1-0.7-0.7-1.2-1.5-1.2
	c-0.4,0-0.9,0.2-1.2,0.5c-0.4,0.3-0.6,0.7-0.7,1.1c-0.1,0.5-0.1,1.1-0.1,1.6v2.1h-0.8L127.1,44z"/>
<path class="st0" d="M143.7,45.6l-0.6,0.5c-0.3-0.4-0.8-0.8-1.2-1c-0.5-0.2-1-0.4-1.6-0.3c-0.6,0-1.2,0.2-1.8,0.5
	c-0.5,0.3-0.9,0.7-1.2,1.2c-0.3,0.5-0.4,1.1-0.4,1.7c0,0.9,0.3,1.8,1,2.4c0.7,0.7,1.6,1,2.5,1c1.1,0,2.1-0.5,2.8-1.3l0.6,0.5
	c-0.4,0.5-0.9,0.9-1.5,1.2c-0.6,0.3-1.3,0.4-2,0.4c-2.2,0.1-4.1-1.6-4.3-3.8c0-0.1,0-0.2,0-0.3c0-1.1,0.4-2.2,1.2-2.9
	c0.8-0.8,1.9-1.2,3-1.2c0.7,0,1.4,0.1,2,0.4C142.7,44.7,143.3,45.1,143.7,45.6z"/>
<path class="st0" d="M147.6,46.1c0.9,0,1.7,0.4,2.2,1c0.5,0.6,0.8,1.3,0.8,2.1c0,0.8-0.3,1.6-0.9,2.1c-1.2,1.2-3.2,1.2-4.4,0
	c0,0,0,0,0,0c-1.1-1.2-1.1-3,0-4.2C145.9,46.4,146.7,46.1,147.6,46.1z M147.6,46.8c-0.6,0-1.2,0.2-1.6,0.7c-0.4,0.4-0.7,1-0.7,1.7
	c0,0.4,0.1,0.8,0.3,1.2c0.2,0.4,0.5,0.6,0.8,0.8c0.3,0.2,0.7,0.3,1.1,0.3c0.8,0,1.6-0.4,2-1.1c0.2-0.4,0.3-0.8,0.3-1.2
	c0-0.6-0.2-1.2-0.7-1.7C148.8,47.1,148.2,46.8,147.6,46.8z"/>
<path class="st0" d="M151.6,46.2h0.8V49c0,0.5,0,0.9,0.1,1.4c0.1,0.3,0.3,0.6,0.6,0.8c0.7,0.4,1.5,0.4,2.1,0
	c0.3-0.2,0.5-0.5,0.6-0.8c0.1-0.5,0.1-1,0.1-1.4v-2.8h0.8v2.9c0,0.6-0.1,1.2-0.3,1.8c-0.2,0.4-0.5,0.8-0.9,1c-0.9,0.5-1.9,0.5-2.8,0
	c-0.4-0.2-0.7-0.6-0.9-1c-0.2-0.6-0.3-1.2-0.3-1.9L151.6,46.2z"/>
<path class="st0" d="M157.7,46.2h0.8v0.8c0.2-0.3,0.4-0.5,0.7-0.8c0.2-0.2,0.5-0.2,0.8-0.2c0.2,0,0.5,0.1,0.7,0.2l-0.4,0.6
	c-0.1-0.1-0.3-0.1-0.4-0.1c-0.3,0-0.5,0.1-0.7,0.3c-0.3,0.3-0.5,0.6-0.5,1c-0.1,0.7-0.2,1.3-0.1,2v2h-0.8L157.7,46.2z"/>
<path class="st0" d="M161.7,44.1h0.8v2.2h1.2v0.7h-1.2v5.2h-0.8v-5.2h-1v-0.7h1V44.1z"/>
<path class="st0" d="M166.5,45v-0.8h4.3V45H169v7.1h-0.8V45H166.5z"/>
<path class="st0" d="M177.3,46.2v5.8h-0.7v-1c-0.3,0.4-0.7,0.7-1.1,0.9c-0.4,0.2-0.8,0.3-1.3,0.3c-0.8,0-1.6-0.3-2.1-0.9
	c-0.6-0.6-0.9-1.4-0.9-2.2c0-0.8,0.3-1.6,0.9-2.2c0.6-0.6,1.3-0.9,2.1-0.9c0.5,0,0.9,0.1,1.3,0.3c0.4,0.2,0.7,0.5,1,0.9v-1.1H177.3z
	 M174.3,46.8c-0.8,0-1.6,0.5-2,1.2c-0.2,0.4-0.3,0.8-0.3,1.2c0,0.8,0.4,1.6,1.2,2.1c0.3,0.2,0.7,0.3,1.1,0.3c0.4,0,0.8-0.1,1.2-0.3
	c0.4-0.2,0.6-0.5,0.9-0.8c0.2-0.4,0.3-0.8,0.3-1.2c0-0.6-0.2-1.2-0.7-1.7C175.5,47,174.9,46.8,174.3,46.8z"/>
<path class="st0" d="M178.9,43.8c0.2,0,0.3,0.1,0.4,0.2c0.1,0.1,0.2,0.3,0.2,0.4c0,0.2-0.1,0.3-0.2,0.4c-0.1,0.1-0.3,0.2-0.4,0.2
	c-0.2,0-0.3-0.1-0.4-0.2c-0.1-0.1-0.2-0.3-0.2-0.4c0-0.2,0.1-0.3,0.2-0.4C178.6,43.9,178.7,43.8,178.9,43.8z M178.5,46.2h0.8v5.8
	h-0.8V46.2z"/>
<path class="st0" d="M180.5,46.2h0.8v1c0.3-0.4,0.6-0.7,1-0.9c0.4-0.2,0.8-0.3,1.2-0.3c0.4,0,0.8,0.1,1.2,0.3
	c0.3,0.2,0.6,0.5,0.8,0.9c0.2,0.6,0.3,1.2,0.2,1.8v3h-0.8v-2.8c0-0.5,0-0.9-0.1-1.3c-0.1-0.7-0.7-1.2-1.5-1.2
	c-0.4,0-0.9,0.2-1.2,0.5c-0.4,0.3-0.6,0.7-0.7,1.1c-0.1,0.5-0.1,1.1-0.1,1.6v2.1h-0.8V46.2z"/>
<path class="st0" d="M192.7,46.2v5.8H192v-1c-0.3,0.4-0.6,0.7-1.1,0.9c-0.4,0.2-0.8,0.3-1.3,0.3c-0.8,0-1.6-0.3-2.1-0.9
	c-0.6-0.6-0.9-1.4-0.9-2.2c0-0.8,0.3-1.6,0.9-2.2c0.6-0.6,1.3-0.9,2.1-0.9c0.5,0,0.9,0.1,1.3,0.3c0.4,0.2,0.7,0.5,1,0.9v-1.1H192.7z
	 M189.7,46.8c-0.8,0-1.6,0.4-2,1.2c-0.2,0.4-0.3,0.8-0.3,1.2c0,0.4,0.1,0.8,0.3,1.2c0.2,0.4,0.5,0.7,0.9,0.9
	c0.3,0.2,0.7,0.3,1.1,0.3c0.4,0,0.8-0.1,1.2-0.3c0.4-0.2,0.7-0.5,0.9-0.8c0.2-0.4,0.3-0.8,0.3-1.2c0-0.6-0.2-1.2-0.7-1.7
	C190.9,47,190.3,46.8,189.7,46.8L189.7,46.8z"/>
<path class="st0" d="M194.1,46.2h0.8v1c0.3-0.4,0.6-0.7,1-0.9c0.4-0.2,0.8-0.3,1.2-0.3c0.4,0,0.8,0.1,1.2,0.3
	c0.3,0.2,0.6,0.5,0.8,0.9c0.2,0.6,0.3,1.2,0.2,1.8v3h-0.8v-2.8c0-0.5,0-0.9-0.1-1.3c-0.1-0.7-0.7-1.2-1.5-1.2
	c-0.4,0-0.9,0.2-1.2,0.5c-0.4,0.3-0.6,0.7-0.7,1.1c-0.1,0.5-0.1,1.1-0.1,1.6v2.1h-0.8V46.2z"/>
<path class="st0" d="M203.3,44.2h1.6c0.5,0,1,0.1,1.4,0.2c0.3,0.1,0.6,0.4,0.8,0.7c0.2,0.3,0.3,0.6,0.3,1c0,0.4-0.1,0.7-0.3,1
	c-0.2,0.3-0.4,0.5-0.8,0.7c0.4,0.1,0.7,0.3,1,0.5c0.2,0.2,0.4,0.4,0.5,0.7c0.1,0.3,0.2,0.6,0.2,0.9c0,0.6-0.2,1.2-0.7,1.6
	c-0.5,0.5-1.2,0.7-1.9,0.7h-2.2L203.3,44.2z M204.1,44.9v2.5h0.4c0.4,0,0.8,0,1.2-0.2c0.3-0.1,0.5-0.3,0.6-0.5
	c0.1-0.2,0.2-0.5,0.2-0.7c0-0.3-0.1-0.7-0.4-0.9c-0.4-0.2-0.8-0.3-1.2-0.2L204.1,44.9z M204.1,48.3v3h1c0.4,0,0.9,0,1.3-0.2
	c0.3-0.1,0.5-0.3,0.6-0.5c0.2-0.2,0.2-0.5,0.2-0.8c0-0.3-0.1-0.7-0.3-0.9c-0.3-0.3-0.6-0.5-1-0.5c-0.5-0.1-0.9-0.1-1.4-0.1
	L204.1,48.3z"/>
<path class="st0" d="M208.9,46.2h0.8v0.8c0.2-0.3,0.4-0.5,0.7-0.8c0.2-0.2,0.5-0.2,0.8-0.2c0.2,0,0.5,0.1,0.7,0.2l-0.4,0.6
	c-0.1-0.1-0.3-0.1-0.4-0.1c-0.3,0-0.5,0.1-0.7,0.3c-0.3,0.3-0.5,0.6-0.5,1c-0.1,0.7-0.2,1.3-0.1,2v2h-0.8V46.2z"/>
<path class="st0" d="M218,46.2v5.8h-0.7v-1c-0.3,0.4-0.7,0.7-1.1,0.9c-0.4,0.2-0.8,0.3-1.3,0.3c-0.8,0-1.6-0.3-2.1-0.9
	c-0.6-0.6-0.9-1.4-0.9-2.2c0-0.8,0.3-1.6,0.9-2.2c0.6-0.6,1.3-0.9,2.1-0.9c0.5,0,0.9,0.1,1.3,0.3c0.4,0.2,0.7,0.5,1,0.9v-1.1H218z
	 M215,46.8c-0.8,0-1.6,0.5-2,1.2c-0.2,0.4-0.3,0.8-0.3,1.2c0,0.4,0.1,0.8,0.3,1.2c0.2,0.4,0.5,0.7,0.9,0.9c0.3,0.2,0.7,0.3,1.1,0.3
	c0.4,0,0.8-0.1,1.2-0.3c0.4-0.2,0.6-0.5,0.9-0.8c0.2-0.4,0.3-0.8,0.3-1.2c0-0.6-0.2-1.2-0.7-1.7C216.2,47.1,215.6,46.8,215,46.8z"/>
<path class="st0" d="M219.3,46.2h0.8v1c0.3-0.4,0.6-0.7,1-0.9c0.4-0.2,0.8-0.3,1.2-0.3c0.4,0,0.8,0.1,1.2,0.3
	c0.3,0.2,0.6,0.5,0.8,0.9c0.2,0.6,0.3,1.2,0.2,1.8v3h-0.8v-2.8c0-0.5,0-0.9-0.1-1.3c-0.1-0.3-0.2-0.7-0.5-0.9
	c-0.3-0.2-0.6-0.3-1-0.3c-0.4,0-0.9,0.2-1.2,0.5c-0.4,0.3-0.6,0.7-0.7,1.1c-0.1,0.5-0.1,1.1-0.1,1.6v2.1h-0.8L219.3,46.2z"/>
<path class="st0" d="M231.4,47.4l-0.6,0.4c-0.5-0.7-1.3-1-2.1-1c-0.7,0-1.3,0.2-1.8,0.7c-0.5,0.4-0.7,1-0.7,1.7
	c0,0.4,0.1,0.8,0.3,1.2c0.2,0.4,0.5,0.7,0.9,0.9c1.2,0.6,2.6,0.3,3.4-0.7l0.6,0.4c-0.3,0.4-0.7,0.8-1.1,1c-0.5,0.2-1.1,0.4-1.6,0.3
	c-0.9,0-1.7-0.3-2.3-0.9c-0.6-0.6-0.9-1.3-0.9-2.1c0-0.6,0.1-1.1,0.4-1.6c0.3-0.5,0.7-0.9,1.1-1.2c0.5-0.3,1.1-0.4,1.7-0.4
	c0.4,0,0.8,0.1,1.1,0.2c0.3,0.1,0.6,0.3,0.9,0.5C231,46.9,231.2,47.2,231.4,47.4z"/>
<path class="st0" d="M232.5,44h0.8v3.3c0.3-0.4,0.6-0.7,1-0.9c0.4-0.2,0.8-0.3,1.2-0.3c0.4,0,0.8,0.1,1.2,0.3
	c0.3,0.2,0.6,0.5,0.8,0.9c0.2,0.6,0.3,1.2,0.2,1.8v3h-0.8v-2.8c0-0.5,0-0.9-0.1-1.3c-0.1-0.7-0.7-1.2-1.5-1.2
	c-0.4,0-0.9,0.2-1.2,0.5c-0.4,0.3-0.6,0.7-0.7,1.1c-0.1,0.5-0.1,1.1-0.1,1.6v2.1h-0.8V44z"/>
<path class="st0" d="M249.1,45.6l-0.6,0.5c-0.3-0.4-0.8-0.8-1.2-1c-0.5-0.2-1-0.4-1.6-0.3c-0.6,0-1.2,0.2-1.8,0.5
	c-0.5,0.3-0.9,0.7-1.2,1.2c-0.3,0.5-0.4,1.1-0.4,1.7c0,0.9,0.3,1.8,1,2.4c0.7,0.7,1.6,1,2.5,1c1.1,0,2.1-0.5,2.8-1.3l0.6,0.5
	c-0.4,0.5-0.9,0.9-1.5,1.2c-0.6,0.3-1.3,0.4-2,0.4c-2.2,0.1-4.1-1.6-4.3-3.8c0-0.1,0-0.2,0-0.3c0-1.1,0.4-2.2,1.2-2.9
	c0.8-0.8,1.9-1.2,3.1-1.2c0.7,0,1.4,0.1,2,0.4C248.2,44.7,248.7,45.1,249.1,45.6z"/>
<path class="st0" d="M253,46.1c0.9,0,1.7,0.4,2.2,1c0.5,0.6,0.8,1.3,0.8,2.1c0,0.8-0.3,1.6-0.9,2.1c-1.2,1.2-3.2,1.2-4.4,0
	c0,0,0,0,0,0c-1.1-1.2-1.1-3,0-4.2C251.4,46.4,252.2,46.1,253,46.1z M253,46.8c-0.6,0-1.2,0.2-1.6,0.7c-0.7,0.8-0.9,1.9-0.4,2.9
	c0.2,0.4,0.5,0.6,0.8,0.8c0.3,0.2,0.7,0.3,1.1,0.3c0.4,0,0.8-0.1,1.1-0.3c0.3-0.2,0.6-0.5,0.8-0.8c0.2-0.4,0.3-0.8,0.3-1.2
	c0-0.6-0.2-1.2-0.7-1.7C254.2,47.1,253.6,46.8,253,46.8z"/>
<path class="st0" d="M257,46.2h0.8V49c0,0.5,0,0.9,0.1,1.4c0.1,0.3,0.3,0.6,0.6,0.8c0.7,0.4,1.5,0.4,2.2,0c0.3-0.2,0.5-0.5,0.6-0.8
	c0.1-0.5,0.1-1,0.1-1.4v-2.8h0.8v2.9c0,0.6-0.1,1.2-0.3,1.8c-0.2,0.4-0.5,0.8-0.9,1c-0.4,0.2-0.9,0.4-1.4,0.3c-0.5,0-1-0.1-1.4-0.3
	c-0.4-0.2-0.7-0.6-0.9-1c-0.2-0.6-0.3-1.3-0.3-1.9V46.2z"/>
<path class="st0" d="M263.1,46.2h0.8v0.8c0.2-0.3,0.4-0.5,0.7-0.8c0.2-0.2,0.5-0.2,0.8-0.2c0.2,0,0.5,0.1,0.7,0.2l-0.4,0.6
	c-0.1-0.1-0.3-0.1-0.4-0.1c-0.3,0-0.5,0.1-0.7,0.3c-0.3,0.3-0.5,0.6-0.5,1c-0.1,0.7-0.2,1.3-0.1,2v2h-0.8L263.1,46.2z"/>
<path class="st0" d="M267.1,44.1h0.8v2.2h1.2v0.7h-1.2v5.2h-0.8v-5.2h-1v-0.7h1L267.1,44.1z"/>
<circle class="st0" cx="32.7" cy="31.4" r="30.3"/>
<linearGradient id="SVGID_1_" gradientUnits="userSpaceOnUse" x1="32.645" y1="5.22" x2="32.645" y2="28.47" gradientTransform="matrix(1 0 0 -1 0 66)">
	<stop  offset="0.69" style="stop-color:#B7A246"/>
	<stop  offset="1" style="stop-color:#FFFFFF"/>
</linearGradient>
<path class="st1" d="M61.5,37.8c-3.1,13.4-15.1,22.9-28.8,23c-14,0-25.9-10.2-28.9-23.2h7.4c2.8,9,11.5,16.1,21.5,16.1
	c9.8-0.1,18.4-6.5,21.4-15.8H61.5z"/>
<path class="st2" d="M53.6,31.3c0,11.6-9.4,21-21,21s-21-9.4-21-21s9.4-21,21-21S53.6,19.7,53.6,31.3L53.6,31.3z"/>
<path class="st0" d="M34.3,33.8H31V42c0,0.9,0.8,1.7,1.7,1.7c0.9,0,1.6-0.7,1.6-1.6c0,0,0,0,0,0V33.8z"/>
<path class="st0" d="M35.6,44h-5.8c-0.4,0-0.7,0.3-0.8,0.6c0,0,0,0,0,0v0.8c0,0.4,0.4,0.7,0.7,0.7c0,0,0,0,0,0h5.8
	c0.4,0,0.7-0.2,0.7-0.6c0,0,0,0,0,0v-0.8C36.3,44.3,35.9,44,35.6,44C35.6,44,35.6,44,35.6,44z"/>
<path class="st0" d="M36.7,46.9h-8c-0.6,0-1,0.3-1,0.7v0.8c0,0.4,0.4,0.7,1,0.7h8c0.5,0,1-0.3,1-0.7v-0.8
	C37.7,47.2,37.2,46.9,36.7,46.9z"/>
<path class="st0" d="M48.9,23.3c0-0.3-0.2-0.5-0.4-0.6c-0.4-0.3-1-0.2-1.4,0.1C44.7,25,41,25,38.5,22.8c-3.2-2.7-7.9-2.8-11.2-0.2h0
	l-0.2,0.2l0,0c-1.2,1.1-2.8,1.7-4.4,1.7c-1.6,0-3.2-0.6-4.4-1.7c-0.2-0.2-0.4-0.3-0.7-0.3c-0.2,0-0.5,0-0.7,0.2
	c-0.2,0.1-0.4,0.4-0.4,0.6v0.1c0,0.2,0.1,0.4,0.3,0.6c1.6,1.5,3.7,2.3,5.9,2.3c2,0,3.9-0.6,5.5-1.9l0,0l0,0l0.1-0.1
	c2.5-2.2,6.2-2.2,8.7-0.1c1.6,1.4,3.6,2.1,5.7,2.1c2.2,0,4.3-0.8,5.9-2.3c0.2-0.2,0.3-0.4,0.3-0.6V23.3z M48.9,23.3L48.9,23.3
	L48.9,23.3z"/>
<path class="st0" d="M36.1,17c0,1.9-1.6,3.4-3.5,3.4c-1.9,0-3.4-1.6-3.4-3.5c0-1.9,1.5-3.4,3.4-3.4C34.6,13.5,36.1,15.1,36.1,17z"/>
<path class="st0" d="M27.6,38.4l-5.3-12C22.2,26.2,22,26,21.7,26c-0.2,0-0.4,0.1-0.5,0.4l0,0l-5.3,12c-0.1,0.2-0.1,0.4,0,0.6
	c1.2,2,3.4,3.2,5.8,3.2c2.4,0.1,4.6-1.1,5.8-3.1C27.7,38.8,27.7,38.6,27.6,38.4z M21.7,28.1c0.3,0.7,4.3,9.8,4.6,10.4h-9.2l3.1-7
	L21.7,28.1z"/>
<path class="st0" d="M49.5,38.4l-5.3-12c-0.1-0.2-0.3-0.4-0.5-0.4c-0.2,0-0.4,0.1-0.5,0.4l0,0l-5.3,12c-0.1,0.2-0.1,0.4,0,0.6
	c1.2,2,3.4,3.2,5.8,3.2c2.4,0.1,4.6-1.1,5.8-3.1C49.6,38.8,49.6,38.6,49.5,38.4z M43.7,28.1l4.6,10.4h-9.2c0.2-0.4,2-4.5,2-4.5
	S43.4,28.8,43.7,28.1z"/>
<path class="st0" d="M38.3,25.4c-0.5,0-0.8,0.3-0.9,0.8c0,0.1,0,0.1,0,0.2h-1.2v-0.5h-7v0.5H28c0.1-0.4-0.3-0.9-0.7-0.9
	c-0.1,0-0.1,0-0.2,0c0,0-0.8,0-0.8,1v4.4c0,1.1,0.8,1,0.8,1c0.5,0,0.9-0.3,0.9-0.8c0,0,0-0.1,0-0.1h1.1v0.5H31V33h3.3v-1.5h1.9v-0.5
	h1.2c-0.1,0.5,0.3,0.9,0.7,0.9c0,0,0.1,0,0.1,0c0,0,0.8,0,0.8-1v-4.4C39,25.4,38.3,25.4,38.3,25.4z"/>
<path class="st0" d="M11.8,50.2l-2.6-3.5l0.2-0.2l1.2,1.6l0.3-0.2l-1.1-1.4l0.2-0.1l1.1,1.4l0.3-0.2l-0.9-1.2l0.2-0.2
	c0.2,0.2,0.5,0.4,0.9,0.4L11,46.2l0.2-0.2l1.9,2.5l-0.2,0.2l-0.2-0.3c-0.1,0.3-0.1,0.6-0.2,0.8h-0.3c0-0.1,0.1-0.2,0.1-0.3L11.5,48
	l-0.3,0.2l1.1,1.4l-0.2,0.2L11,48.3l-0.3,0.2l1.3,1.6L11.8,50.2z M13.2,49.1L13,48.9l0.4-0.3l-2.2-2.9l-0.4,0.3l-0.2-0.2l0.6-0.5
	l2.5,3.3L13.2,49.1z M12.3,48.5c0-0.1,0.1-0.2,0.1-0.3h0.2L11.6,47c-0.2,0-0.5-0.1-0.7-0.2C11.2,47.2,11.7,47.7,12.3,48.5z M13.8,48
	l-1.9-2.6l0.7-0.5l1.9,2.6L13.8,48z M13.8,47.6l0.3-0.2l-1.6-2.1l-0.3,0.2L13.8,47.6z M15.4,47.4l-1.2-1.6L14,46l1.1,1.4l-0.2,0.2
	l-2.4-3.1l0.2-0.2l1.1,1.4l0.2-0.2L12.8,44l0.2-0.2l1.2,1.6l0.2-0.2l0.2,0.2l-0.2,0.2l1.2,1.6L15.4,47.4z"/>
<path class="st0" d="M14.5,50.4c-0.6,0.4-1.2,0.7-1.8,1v-0.3c0.6-0.3,1.2-0.6,1.8-1L14.5,50.4z M16.4,53.4L16,53.8
	c-0.1,0.1-0.2,0.1-0.3,0.1c-0.1,0-0.2,0-0.3-0.1L14.6,53l0.1-0.3l0.9,0.8c0.1,0.1,0.1,0,0.2,0l0.2-0.2l-2.2-2l0.8-0.5l1.9,1.7
	l0.2-0.3l-2.1-1.8l0.2-0.2l2.3,2l-0.6,0.6l-1.9-1.7l-0.3,0.2L16.4,53.4z M15.6,49.8c-0.2,0.1-0.4,0.3-0.6,0.4L14.9,50
	c0.2-0.1,0.4-0.2,0.6-0.4L15.6,49.8z M15.3,49.5L15,49.6c0-0.3,0-0.7,0-1l0.3-0.1C15.3,48.8,15.3,49.2,15.3,49.5L15.3,49.5z
	 M15.4,50.5l-0.2-0.1c0.1-0.2,0.3-0.3,0.4-0.5l0.2,0.1C15.7,50.2,15.6,50.3,15.4,50.5L15.4,50.5z M16.4,50.2L16.2,50
	c0,0,0.1-0.1,0.1-0.1c-0.3-0.1-0.5-0.3-0.7-0.4l0.1-0.2c0.4-0.1,0.7-0.1,0.9-0.2l-0.4-0.3l0.1-0.2c0.4-0.1,0.7-0.2,1.1-0.3l0.1,0.2
	c-0.3,0.1-0.6,0.2-0.9,0.3l0.3,0.2l0.3-0.1l0.1,0.2c-0.4,0.1-0.8,0.2-1.2,0.3c0.1,0.1,0.2,0.2,0.4,0.2c0-0.1,0.1-0.1,0.1-0.2
	l0.2,0.1C16.6,49.7,16.5,49.9,16.4,50.2L16.4,50.2z M15.9,50.7l-0.2-0.1c0.1-0.2,0.2-0.3,0.3-0.5l0.2,0.1
	C16.1,50.4,16,50.5,15.9,50.7L15.9,50.7z M16.6,51.5l-0.7-0.6l0.6-0.7l0.7,0.6L16.6,51.5z M16.4,48.6h-0.3c0-0.3,0-0.7,0-1l0.3-0.1
	C16.4,47.8,16.4,48.2,16.4,48.6L16.4,48.6z M16.6,51.2l0.3-0.3l-0.3-0.3l-0.3,0.3L16.6,51.2z M17.3,51.4c-0.2,0.2-0.3,0.3-0.5,0.4
	l-0.1-0.2c0.2-0.1,0.4-0.3,0.5-0.4L17.3,51.4z M17.3,50.6L16.7,50l0.2-0.2l0.7,0.6L17.3,50.6z M17.6,50.3L17,49.6l0.2-0.2l0.7,0.6
	L17.6,50.3z M17.2,52.1L17,52c0.1-0.2,0.3-0.3,0.4-0.5l0.2,0.1C17.5,51.8,17.3,51.9,17.2,52.1L17.2,52.1z M18.1,50l-0.9-0.8l0.2-0.2
	l0.4,0.3c0.1-0.1,0.1-0.2,0.1-0.3l0.2,0.1c0,0.1-0.1,0.3-0.2,0.4l0.3,0.3L18.1,50z M18.1,51.8l-0.2-0.1c0-0.1,0.1-0.1,0.1-0.2
	L17.2,51l0.1-0.2c0.3,0,0.6-0.1,0.9-0.1l-0.4-0.3l0.1-0.2c0.4-0.1,0.7-0.2,1.1-0.3l0.1,0.2c-0.3,0.1-0.6,0.2-0.9,0.2
	c0.1,0.1,0.2,0.2,0.4,0.2l0.3-0.1l0.1,0.2c-0.4,0.1-0.8,0.2-1.2,0.3c0.1,0.1,0.2,0.2,0.4,0.2l0.1-0.2l0.2,0.1
	C18.3,51.3,18.2,51.5,18.1,51.8L18.1,51.8z M17.5,52.4l-0.2-0.1c0.1-0.3,0.2-0.5,0.3-0.6l0.2,0.1C17.8,52,17.7,52.2,17.5,52.4
	L17.5,52.4z"/>
<path class="st0" d="M20.9,56.6c-0.1,0.1-0.1,0.2-0.2,0.2c-0.1,0-0.2,0-0.5-0.1l-0.2-0.2l0.1-0.3l0.4,0.2c0.1,0.1,0.2,0.1,0.3,0
	c0,0,0,0,0,0l0.8-1.4l-2.9-1.7l-1.1,1.9l-0.2-0.1l1.2-2.1l3.4,1.9L20.9,56.6z M20.2,56.1l-1.8-1l0.6-1l1.8,1L20.2,56.1z M20.1,55.7
	l0.3-0.5L19,54.4l-0.3,0.5L20.1,55.7z M21.6,54.3l-2.5-1.4l0.6-1l2.5,1.4L21.6,54.3z M23,53.3l-3.8-2.1l0.1-0.2l1.8,1
	c0.1-0.2,0.1-0.3,0.1-0.5h0.3c0,0.2-0.1,0.4-0.1,0.6l1.8,1L23,53.3z M21.5,53.8l0.3-0.5l-2-1.2l-0.3,0.5L21.5,53.8z"/>
<path class="st0" d="M26.8,57.6L26,57.3l-0.3,0.9c-0.1,0.2-0.2,0.4-0.3,0.4c-0.2,0-0.4,0-0.5-0.1c-0.1,0-0.2-0.1-0.4-0.1v-0.3
	l0.5,0.2l0.3,0.1c0.1,0,0.1,0,0.1-0.2l0.3-0.9l-3.1-1l0.1-0.3l3.1,1l0.2-0.5l-2.7-0.8l0.1-0.3l1.6,0.5l0.2-0.5l-1.8-0.6l0.1-0.3
	l1.8,0.6l0.1-0.4l0.3,0.1l-0.1,0.4l1.8,0.5l-0.1,0.3l-1.8-0.5l-0.2,0.5l1.6,0.5l-0.1,0.3l-0.5-0.1L26,57l0.9,0.3L26.8,57.6z
	 M25.5,54.1l-1.4-0.4c-0.2,0.2-0.4,0.3-0.7,0.5l-0.1-0.3c0.5-0.2,0.9-0.6,1.2-1l0.2,0.2c-0.1,0.1-0.2,0.3-0.4,0.4l1.2,0.4L25.5,54.1
	z M24.1,57.8L23.9,58c-0.1-0.4-0.3-0.7-0.5-1l0.3-0.1C23.9,57.1,24,57.5,24.1,57.8z M24.7,54.6h-0.3c0-0.2-0.1-0.4-0.2-0.5h0.3
	C24.6,54.2,24.7,54.4,24.7,54.6z M27.6,54.8l-1.6-0.5c-0.1,0.1-0.3,0.2-0.4,0.3l-0.1-0.2c0.4-0.2,0.7-0.5,0.9-0.8l0.2,0.2
	c-0.1,0.1-0.2,0.3-0.3,0.4l1.4,0.4L27.6,54.8z M26.8,55.2l-0.3,0.1c0-0.2-0.1-0.4-0.2-0.5l0.3-0.1C26.7,54.8,26.8,55,26.8,55.2z"/>
<path class="st0" d="M28.9,57.3c-0.3,0.7-0.7,1.3-1.1,1.9L27.6,59c0.4-0.6,0.8-1.2,1.1-1.9L28.9,57.3z M29,56.4l-0.2,0.2
	c-0.2-0.3-0.5-0.6-0.8-0.8l0.2-0.2C28.5,55.8,28.8,56.1,29,56.4L29,56.4z M29.2,54.9L29,55.1c-0.2-0.3-0.5-0.6-0.8-0.8l0.2-0.2
	C28.8,54.3,29,54.6,29.2,54.9z M32.4,57.1L30.8,57c-0.4,0.7-0.8,1.3-1.3,1.9c0.7,0,1.4-0.1,2.1-0.2c-0.1-0.3-0.3-0.7-0.5-1l0.2-0.1
	c0.3,0.6,0.6,1.3,0.8,1.9l-0.2,0.2c-0.1-0.2-0.1-0.5-0.2-0.7c-0.9,0.1-1.7,0.2-2.6,0.2L29,58.9c0.3-0.2,0.5-0.4,0.7-0.7
	c0.3-0.4,0.5-0.8,0.8-1.3l-1.3-0.1v-0.3l1.5,0.1l0.1-1.2l-1.2-0.1v-0.3l1.2,0.1l0.1-0.9h0.3L31,55.2l1.2,0.1v0.3L31,55.5l0,1.2
	l1.4,0.1L32.4,57.1z"/>
<path class="st0" d="M34.1,56.2c0.3,0.4,0.5,0.8,0.6,1.3c0,0.2,0,0.3-0.1,0.5c-0.1,0.1-0.2,0.2-0.5,0.2h-0.2l-0.1-0.3H34
	c0.1,0,0.2,0,0.3-0.1c0-0.1,0-0.2,0-0.2c-0.1-0.5-0.3-0.9-0.6-1.3c0.1-0.4,0.2-0.9,0.2-1.5l-0.8,0.1l0.5,4.8h-0.3L33,54.5l1.3-0.1
	v0.3C34.3,55.2,34.2,55.7,34.1,56.2z M37.4,55.8h-0.3l-0.1-0.9l-2.2,0.2L35,56h-0.3l-0.1-1.2l1.2-0.1c-0.1-0.2-0.1-0.4-0.2-0.5
	l0.3-0.1c0.1,0.2,0.2,0.4,0.2,0.6l1.2-0.1L37.4,55.8z M37.7,58c0,0.2,0,0.5,0,0.7c0,0.1-0.1,0.2-0.2,0.3c-0.1,0.1-0.3,0.1-0.5,0.1
	c-0.3,0-0.5-0.1-0.5-0.3L36.4,57l-0.6,0.1c0.1,0.5,0,1-0.2,1.5c-0.2,0.4-0.5,0.7-0.8,0.9l-0.2-0.2c0.3-0.2,0.6-0.5,0.8-0.8
	c0.2-0.4,0.2-0.9,0.2-1.3l-0.8,0.1v-0.3l2.7-0.3v0.3L36.7,57l0.2,1.8c0,0,0,0.1,0,0.1c0,0,0.1,0,0.2,0c0.1,0,0.2,0,0.2,0
	c0,0,0.1,0,0.1-0.1c0-0.1,0-0.2,0-0.3c0-0.2,0-0.3,0-0.5L37.7,58z M36.9,56l-1.8,0.2v-0.3l1.7-0.2L36.9,56z"/>
<path class="st0" d="M41.9,53.1l-1.9,0.6L40,54l1.7-0.5l0.1,0.2l-3.7,1.2L38,54.7l1.7-0.5l-0.1-0.3l-2,0.6l-0.1-0.2l2-0.6l-0.1-0.3
	l0.3-0.1l0.1,0.3l1.9-0.6L41.9,53.1z M42.7,55.8l-0.2,0.1l-0.2-0.5l-3.5,1.1l0.2,0.5l-0.2,0.1l-0.2-0.8l4-1.3L42.7,55.8z M41.9,54.9
	l-3.1,1l-0.2-0.8l3.1-1L41.9,54.9z M41.5,54.8l-0.1-0.3l-2.5,0.8l0.1,0.3L41.5,54.8z M43.3,57.6l-4.2,1.3L39,58.7l2-0.7l-0.1-0.3
	l-1.7,0.5L39.2,58l1.7-0.5l-0.1-0.3l-1.5,0.5l-0.1-0.2c0.3-0.1,0.6-0.4,0.7-0.7L39.2,57l-0.1-0.2l2.9-0.9l0.1,0.2l-0.3,0.1
	c0.2,0.1,0.5,0.3,0.7,0.5l-0.1,0.2c-0.1-0.1-0.2-0.1-0.2-0.2L41,57l0.1,0.3l1.7-0.5l0.1,0.2l-1.7,0.5l0.1,0.3l2-0.6V57.6z
	 M41.8,56.5l-0.2-0.2l0.1-0.2l-1.4,0.5c-0.1,0.2-0.2,0.4-0.4,0.6C40.2,57.1,40.9,56.8,41.8,56.5z"/>
<path class="st0" d="M46.2,51l-1.8,1.1l0.4,0.6l1.6-0.9l1.6,2.8c0.1,0.1,0.1,0.2,0.1,0.3c0,0.1-0.1,0.2-0.3,0.3
	c-0.1,0.1-0.2,0.1-0.3,0.2l-0.2-0.2l0.3-0.2c0.1-0.1,0.2-0.1,0.2-0.2c0,0,0-0.1,0-0.2l-1.5-2.5l-2.9,1.7l1.6,2.9l-0.2,0.1L43,53.8
	l1.5-0.9l-0.3-0.6l-1.8,1L42.2,53l1.8-1l-0.3-0.5l0.2-0.1l0.3,0.5l1.8-1.1L46.2,51z M47.1,54.2L46,54.8l0.5,0.9l-0.2,0.1L45.8,55
	l-1.1,0.7l-0.2-0.3l1.1-0.7l-0.3-0.5l-0.9,0.5l-0.2-0.3l0.5-0.3c-0.2-0.2-0.4-0.3-0.6-0.4l0.1-0.2c0.3,0.1,0.5,0.3,0.7,0.5l0.6-0.3
	c0-0.3,0-0.6-0.1-0.8h0.3c0,0.2,0.1,0.5,0.1,0.7l0.5-0.3l0.2,0.3l-1,0.5l0.3,0.5l1.2-0.7L47.1,54.2z"/>
<path class="st0" d="M47.4,49c0.4,0.9,0.6,2,0.4,3l-0.3-0.1c0.1-0.9,0-1.9-0.4-2.8L47.4,49z M50.9,48.8v0.3c-0.9,0-1.8-0.2-2.5-0.7
	L48,48.7l-0.2-0.2l0.4-0.4C49,48.6,49.9,48.9,50.9,48.8L50.9,48.8z M50.2,49.3c0.4,0.5,0.8,0.9,1.1,1.3c0.2,0.3,0.4,0.5,0.5,0.8
	c0,0.1,0,0.2,0,0.3c-0.1,0.2-0.2,0.3-0.3,0.4l-0.3,0.3l-0.3-0.2c0.1-0.1,0.3-0.2,0.4-0.3c0.1-0.1,0.1-0.1,0.2-0.2c0,0,0-0.1,0-0.2
	c0-0.1-0.1-0.3-0.2-0.4c-0.1-0.2-0.3-0.4-0.5-0.7s-0.4-0.5-0.7-0.8l-1,0.9c0.7,0.9,0.9,2.1,0.6,3.2l-0.3-0.1c0.3-1,0.1-2.1-0.5-2.9
	l-0.7,0.7L48,51.3L50.2,49.3z"/>
<path class="st0" d="M51.6,47.2c0.5,0,1,0.2,1.4,0.5c0.1,0.1,0.2,0.2,0.3,0.4c0,0.2,0,0.4-0.2,0.5c0,0.1-0.1,0.1-0.1,0.2l-0.3-0.1
	l0.2-0.2c0.1-0.1,0.1-0.2,0.1-0.3c0-0.1-0.1-0.1-0.1-0.2c-0.4-0.3-0.9-0.4-1.3-0.5c-0.2-0.3-0.6-0.7-0.9-1.2L50,46.9l3.8,2.9
	L53.7,50l-4.1-3.1l0.8-1l0.2,0.2C51,46.4,51.3,46.8,51.6,47.2z M53.6,44.5l-0.2,0.2l-0.7-0.5L51.3,46l0.7,0.5l-0.2,0.2l-1-0.7l0.7-1
	c-0.2-0.1-0.4-0.1-0.5-0.2l0.1-0.3c0.2,0.1,0.4,0.1,0.6,0.2l0.7-1L53.6,44.5z M53.4,45l-1.1,1.4l-0.2-0.2l1.1-1.4L53.4,45z
	 M55.4,45.8c0.2,0.1,0.4,0.3,0.5,0.5c0.1,0.1,0.1,0.2,0.2,0.3c0,0.2-0.1,0.3-0.2,0.5c-0.2,0.2-0.4,0.3-0.6,0.1l-1.5-1.1l-0.3,0.5
	c0.4,0.3,0.8,0.7,1,1.2c0.1,0.4,0.2,0.8,0.1,1.2h-0.3c0.1-0.4,0.1-0.8,0-1.1c-0.2-0.4-0.5-0.8-0.8-1l-0.5,0.6l-0.2-0.2l1.7-2.2
	l0.2,0.2l-0.5,0.7l1.3,1.1c0,0,0.1,0,0.1,0c0,0,0.1,0,0.2-0.2c0.1-0.1,0.1-0.1,0.1-0.2c0,0,0-0.1,0-0.1c-0.1-0.1-0.1-0.2-0.2-0.2
	c-0.1-0.1-0.3-0.2-0.4-0.3L55.4,45.8z"/>
<path class="st3" d="M9.7,37.4l0.1,0.4l-3.5,0.9l0.2,0.6l-0.6,0.2l-0.4-1.7l0.6-0.2l0.2,0.6L9.7,37.4z"/>
<path class="st3" d="M8.5,36.1l1,0.1l0.1,0.5l-4.5-0.4L5,35.9l4.1-1.8l0.1,0.5L8.3,35L8.5,36.1z M6.1,36l1.8,0.1l-0.2-0.9L6.1,36z"
	/>
<path class="st3" d="M9.1,33.3v0.5l-4.2,0.4v-0.5L9.1,33.3z"/>
<path class="st3" d="M7.9,31.8l-3.2-0.7v-0.3l3.2-0.6l-3.1-0.7v-0.5l4.3,1.1v0.4l-2.9,0.6l2.9,0.6v0.4l-4.3,0.8v-0.5L7.9,31.8z"/>
<path class="st3" d="M8.2,28.2l0.9,0.4l-0.1,0.5l-4.1-1.8L5,26.9l4.5-0.4L9.4,27l-1,0.1L8.2,28.2z M6,27.3L7.7,28l0.1-0.9L6,27.3z"
	/>
<path class="st3" d="M5.4,25l0.1-0.4L9,23.9L6,23l0.1-0.5l4.2,1.2l-0.1,0.4l-3.5,0.7l3,0.9l-0.1,0.5L5.4,25z"/>
<path class="st3" d="M9.6,19l-1.5-0.8l0.2-0.4l3.8,1.9l-0.2,0.4l-1.7-0.9l-0.6,1.1l1.7,0.9l-0.2,0.5l-3.8-1.9l0.2-0.4L9,20.1L9.6,19
	z"/>
<path class="st3" d="M12.6,18.9l-0.3,0.4L8.7,17L9,16.6L12.6,18.9z"/>
<path class="st3" d="M12.6,15L12.6,15c0.6,0.4,0.9,0.8,1.2,1.3c0.2,0.4,0.2,0.8-0.1,1.1c-0.3,0.3-0.7,0.5-1.1,0.4
	c-0.5-0.1-1.1-0.3-1.5-0.6C10.6,17,10.2,16.5,10,16c-0.2-0.4-0.1-0.9,0.1-1.2c0.4-0.4,1-0.6,1.5-0.3V15c-0.5-0.2-0.8-0.1-1,0.1
	c-0.2,0.2-0.2,0.6,0,0.8c0.2,0.4,0.4,0.7,0.8,0.9c0.3,0.2,0.7,0.4,1.1,0.5c0.3,0.1,0.6,0,0.8-0.2c0.1-0.2,0.1-0.4,0-0.6
	c-0.1-0.3-0.3-0.5-0.6-0.7l-0.4,0.6L11.8,16L12.6,15z"/>
<path class="st3" d="M14,13.1l-1.3-1.2l0.3-0.4l3.1,2.9l-0.3,0.4l-1.4-1.3l-0.8,0.9l1.4,1.3L14.7,16l-3.1-2.9l0.3-0.4l1.3,1.2
	L14,13.1z"/>
<path class="st3" d="M17.5,9.2c-0.2-0.2-0.5-0.2-0.8,0c-0.2,0.2-0.3,0.5-0.2,0.8c0.1,0.4,0.2,0.7,0.4,1c0.2,0.3,0.5,0.5,0.8,0.7
	c0.3,0.2,0.6,0.2,0.8,0c0.2-0.2,0.3-0.4,0.2-0.7l0.5,0.7c-0.1,0.2-0.2,0.4-0.4,0.6c-0.4,0.2-0.8,0.3-1.2,0.1c-0.5-0.2-0.9-0.6-1.3-1
	c-0.3-0.4-0.6-1-0.6-1.5c-0.1-0.4,0.1-0.9,0.4-1.1c0.2-0.1,0.5-0.2,0.7-0.2L17.5,9.2z"/>
<path class="st3" d="M18.6,9.8c-0.3-0.5-0.4-1-0.4-1.6c0-0.4,0.2-0.9,0.6-1.1c0.4-0.2,0.9-0.2,1.2,0.1c0.5,0.3,0.9,0.7,1.1,1.2
	c0.3,0.5,0.4,1,0.4,1.6c0,0.6-0.5,1.2-1.1,1.2c-0.3,0-0.5-0.1-0.7-0.2C19.3,10.7,18.9,10.3,18.6,9.8z M19,9.5
	c0.2,0.3,0.5,0.6,0.8,0.8c0.2,0.2,0.5,0.2,0.8,0.1C20.9,10.2,21,10,21,9.7c0-0.4-0.1-0.8-0.3-1.1c-0.2-0.3-0.4-0.6-0.8-0.8
	c-0.3-0.2-0.8-0.2-1,0.2c-0.1,0.1-0.2,0.3-0.1,0.5C18.8,8.8,18.9,9.2,19,9.5z"/>
<path class="st3" d="M20.9,6.1l0.5-0.2l0.9,2.2c0.4,0.8,0.7,1.2,1.1,1s0.4-0.6,0-1.5l-0.9-2.2l0.5-0.2l1,2.3
	c0.5,1.1,0.4,1.8-0.3,2.1s-1.2-0.1-1.7-1.3L20.9,6.1z"/>
<path class="st3" d="M26.9,8.5l-0.6,0.2L25,7.1l0.5,1.8L25,9.1L23.8,5l0.7-0.2c0.6-0.2,1.1,0.1,1.3,1C25.9,6,26,6.3,25.9,6.6
	c0,0.2-0.2,0.4-0.3,0.5L26.9,8.5z M24.9,6.8H25c0.4-0.1,0.5-0.4,0.4-0.9S25,5.3,24.6,5.4h-0.1L24.9,6.8z"/>
<path class="st3" d="M28,8.3l-0.4,0.1l-0.7-3.6l-0.6,0.1l-0.1-0.6L27.8,4l0.1,0.6l-0.6,0.1L28,8.3z"/>
<path class="st3" d="M31.5,7.8H31l-0.2-3.6h-0.6V3.6l1.7-0.1v0.6h-0.6L31.5,7.8z"/>
<path class="st3" d="M33,6.8l-0.3,0.9h-0.5l1.3-4.3h0.4l1,4.4h-0.5l-0.2-1L33,6.8z M33.6,4.5l-0.5,1.8H34L33.6,4.5z"/>
<path class="st3" d="M35.6,8h-0.5l0.5-4.2h0.5L35.6,8z"/>
<path class="st3" d="M37,3.8l0.4,0.1l1,3.5l0.6-3l0.5,0.1l-0.9,4.2l-0.4-0.1l-1-3.5l-0.6,3L36.2,8L37,3.8z"/>
<path class="st3" d="M40,8l-0.5,0.8L39,8.6l2.5-3.8L41.8,5l-0.3,4.5L41,9.3l0.1-1L40,8z M41.3,5.9l-1,1.6l0.8,0.3L41.3,5.9z"/>
<path class="st3" d="M43.6,5.7L44,5.8l0.1,3.6l1.3-2.8l0.4,0.2L44,10.7l-0.3-0.2L43.5,7l-1.3,2.8l-0.5-0.2L43.6,5.7z"/>
<path class="st3" d="M48.4,8.4L49,8.8c0.5,0.4,0.5,0.8,0,1.4c-0.2,0.3-0.4,0.4-0.7,0.5c0.1,0.1,0.1,0.3,0.1,0.5
	c-0.1,0.2-0.2,0.5-0.3,0.6c-0.2,0.3-0.4,0.5-0.7,0.6c-0.3,0.1-0.5,0-0.7-0.1l-0.7-0.5L48.4,8.4z M46.6,11.7l0.2,0.2
	c0.3,0.2,0.6,0.1,0.9-0.2c0.2-0.2,0.2-0.5,0-0.8c0,0-0.1-0.1-0.1-0.1l-0.2-0.1L46.6,11.7z M47.7,10.2l0.2,0.1
	c0.2,0.2,0.5,0.1,0.7-0.2s0.3-0.6,0-0.8l-0.2-0.1L47.7,10.2z"/>
<path class="st3" d="M49.1,14.4L48.7,14l0.6-2L48,13.5l-0.4-0.3l2.8-3.2l0.6,0.5c0.5,0.4,0.5,1-0.1,1.6c-0.2,0.2-0.4,0.4-0.7,0.5
	c-0.2,0.1-0.4,0.1-0.6,0L49.1,14.4z M49.5,11.8l0.1,0.1c0.3,0.3,0.6,0.2,1-0.2s0.3-0.7,0-0.9l-0.1-0.1L49.5,11.8z"/>
<path class="st3" d="M50.4,14.4l-0.9,0.4l-0.3-0.4l4-2.1l0.3,0.3L51,16.5l-0.4-0.4l0.5-0.8L50.4,14.4z M52.5,13.2l-1.6,0.9l0.6,0.6
	L52.5,13.2z"/>
<path class="st3" d="M54.7,14.2l0.2,0.3l-1.7,3.2l2.5-1.8l0.3,0.4l-3.5,2.5l-0.2-0.3l1.6-3.2l-2.5,1.8l-0.3-0.4L54.7,14.2z"/>
<path class="st3" d="M56.7,19.4c0.2-0.2,0.2-0.5,0.1-0.8c-0.2-0.3-0.4-0.4-0.7-0.4c-0.4,0-0.8,0.1-1.1,0.3c-0.3,0.2-0.6,0.4-0.8,0.8
	c-0.3,0.3-0.2,0.7,0,1c0.2,0.1,0.4,0.2,0.6,0.2L54,20.9c-0.6-0.2-0.8-0.8-0.6-1.4c0-0.1,0.1-0.2,0.2-0.3c0.3-0.5,0.7-0.9,1.2-1.1
	c0.5-0.3,1-0.4,1.6-0.4c0.4,0,0.9,0.2,1.1,0.6c0.1,0.2,0.2,0.5,0.1,0.7L56.7,19.4z"/>
<path class="st3" d="M57,21.9l1.6-0.7l0.2,0.5l-3.9,1.6l-0.2-0.5l1.8-0.8L56,21l-1.8,0.8l-0.2-0.5l3.9-1.6l0.2,0.5l-1.6,0.7L57,21.9
	z"/>
<path class="st3" d="M59.1,26.7c0.2-0.2,0.3-0.4,0.3-0.7c-0.1-0.3-0.3-0.5-0.6-0.5c-0.4-0.1-0.8-0.1-1.1,0c-0.4,0.1-0.7,0.2-1,0.5
	c-0.2,0.2-0.4,0.5-0.3,0.7c0.1,0.3,0.3,0.5,0.6,0.5l-0.8,0.2c-0.2-0.1-0.3-0.4-0.4-0.6c-0.1-0.4,0.1-0.9,0.4-1.1
	c0.4-0.4,0.9-0.6,1.4-0.7c0.5-0.1,1.1-0.1,1.7,0.1c0.4,0.1,0.8,0.4,0.9,0.9c0,0.2,0,0.5-0.1,0.7L59.1,26.7z"/>
<path class="st3" d="M58.2,27.5c0.6-0.1,1.1,0,1.6,0.2c0.4,0.2,0.7,0.6,0.8,1c0,0.4-0.2,0.8-0.5,1.1c-0.5,0.3-1,0.5-1.5,0.6
	c-0.5,0.1-1.1,0-1.6-0.2c-0.6-0.2-0.9-0.9-0.7-1.5c0.1-0.2,0.3-0.4,0.5-0.6C57.1,27.7,57.6,27.5,58.2,27.5z M58.2,28
	c-0.4,0-0.7,0.2-1.1,0.4c-0.3,0.1-0.4,0.4-0.4,0.7c0,0.3,0.2,0.5,0.5,0.6c0.4,0.1,0.7,0.2,1.1,0.1c0.4,0,0.7-0.2,1-0.4
	c0.2-0.1,0.4-0.4,0.4-0.7c0-0.3-0.2-0.5-0.5-0.6C59,28,58.6,28,58.2,28L58.2,28z"/>
<path class="st3" d="M60.6,31.1v0.5l-2.4-0.1c-0.9,0-1.4,0.2-1.4,0.6c0,0.4,0.4,0.6,1.4,0.6l2.4,0.1v0.5L58,33.2
	c-1.2,0-1.8-0.4-1.8-1.1s0.6-1,1.8-1L60.6,31.1z"/>
<path class="st3" d="M56,35.6l0.1-0.6l2-0.6l-1.9-0.2l0.1-0.5l4.2,0.5L60.4,35c-0.1,0.6-0.5,0.9-1.4,0.8c-0.3,0-0.5-0.1-0.8-0.3
	c-0.2-0.1-0.3-0.3-0.3-0.5L56,35.6z M58.3,34.4v0.2c0,0.4,0.2,0.6,0.7,0.7s0.8-0.1,0.8-0.5v-0.2L58.3,34.4z"/>
<path class="st3" d="M55.7,36.7l0.1-0.4l3.6,0.8l0.1-0.6l0.6,0.1l-0.4,1.7l-0.6-0.1l0.1-0.6L55.7,36.7z"/>
</svg>
