<?xml version="1.0" encoding="utf-8"?>
<!-- Generator: Adobe Illustrator 27.8.1, SVG Export Plug-In . SVG Version: 6.00 Build 0)  -->
<svg version="1.1" id="圖層_1" xmlns="http://www.w3.org/2000/svg" xmlns:xlink="http://www.w3.org/1999/xlink" x="0px" y="0px"
	 viewBox="0 0 270.8 64" style="enable-background:new 0 0 270.8 64;" xml:space="preserve">
<style type="text/css">
	.st0{fill:#FFFFFF;}
	.st1{fill:url(#SVGID_1_);}
	.st2{fill:#005BAB;}
	.st3{fill:#B7A246;}
</style>
<path class="st0" d="M88,15.2v1.5h-7.9v1h6.3V19H72.1v-1.3h6.2v-1h-7.7v-1.5h7.7v-1.4h1.9v1.4H88z M80.1,33.8H88v1.6H70.6v-1.6h7.7
	v-1h-5.7v-1.4h5.7v-1c-3.7,0.1-4.2,0.2-4.7,0.3c-0.1-0.5-0.3-1-0.4-1.5c0.4-0.1,0.7-0.2,1.1-0.3c0.6-0.2,1.2-0.5,1.7-0.9h-3.1v-1.3
	h12.6V28h-1.9c0.9,0.6,1.8,1.4,2.6,2.1l-1.1,1.1c-0.3-0.4-0.6-0.7-1-1l-4,0.1v1h6v1.4h-6L80.1,33.8z M70.8,24.3h16.9v3.5h-1.8v-2
	H72.5v2h-1.7V24.3z M85.7,19.9v3.5H72.9v-3.5H85.7z M83.9,21.1h-9.3v1.1h9.3V21.1z M78.1,28c-0.6,0.4-1.2,0.8-1.8,1.2l6.3-0.2
	c-0.4-0.3-0.9-0.6-1.3-0.9l0.2-0.1L78.1,28z"/>
<path class="st0" d="M92.9,24.5c-0.8-1-1.8-1.8-2.9-2.5l1-1.5c1.1,0.6,2.1,1.4,3,2.3L92.9,24.5z M90.4,34.5c0.7-1.8,1.8-4.9,2.5-7.6
	l1.5,1.1c-0.6,2.5-1.5,5.3-2.3,7.6L90.4,34.5z M93.2,18.3c-0.8-1-1.7-1.9-2.8-2.7l1.1-1.5c1.1,0.7,2,1.5,2.8,2.4L93.2,18.3z
	 M95.5,22.9c-0.1,1.1-0.4,2.2-0.8,3.2c-0.3-0.3-0.5-0.5-0.9-0.7c0.4-0.9,0.6-1.9,0.7-2.8L95.5,22.9z M98.1,21.9
	c-0.1-0.2-0.1-0.5-0.2-0.7c-2.6,0.4-3.1,0.5-3.4,0.7c-0.1-0.3-0.2-0.7-0.4-1c0.3,0,0.6-0.4,0.9-0.8c0.4-0.5,0.8-1.1,1.1-1.7
	c-0.6,0-1.2,0.1-1.7,0.3c-0.1-0.3-0.2-0.7-0.4-1c0.2,0,0.4-0.3,0.7-0.6c0.5-1,0.9-2,1.2-3l1.1,0.5c-0.4,1-0.8,1.9-1.3,2.7l1.2-0.1
	c0.2-0.4,0.4-0.7,0.5-1.1l1.1,0.5c-0.6,1.3-1.4,2.5-2.3,3.7l1.5-0.2c-0.1-0.2-0.2-0.5-0.3-0.7l0.8-0.4c0.4,0.8,0.7,1.6,0.9,2.4
	L98.1,21.9z M107.6,31c0,0.3-0.1,0.6-0.1,0.8c-0.3,2-0.7,3-1.3,3.5c-0.5,0.4-1.1,0.6-1.7,0.5c-0.6,0-1.8,0-3.1-0.1
	c0-0.6-0.2-1.2-0.5-1.7c1,0.1,2,0.2,3,0.2c0.4,0,0.6,0,0.9-0.2c0.4-0.5,0.6-1.1,0.7-1.7H95.3c0.3-1.1,0.6-2.5,0.9-3.8h8.8v-1h-9.5
	v-1.4h11.2V30h-9l-0.2,1H107.6z M96.3,25.7c0-1-0.2-1.9-0.4-2.9l0.9-0.3c0.3,0.9,0.4,1.8,0.5,2.8L96.3,25.7z M98,25.1
	c-0.1-0.9-0.3-1.8-0.6-2.6l0.8-0.3c0.3,0.8,0.5,1.6,0.7,2.5L98,25.1z M103.5,17.5h-4.8v-1.2h2c-0.2-0.6-0.4-1.2-0.7-1.8l1.2-0.3
	c0.3,0.6,0.6,1.2,0.8,1.9l-0.9,0.3h2.3L103.5,17.5z M99.3,22h3.8v3.5h-3.8V22z M103,19.4h-3.7v-1.1h3.7V19.4z M99.3,20h3.7v1.1h-3.7
	V20z M100.4,24.3h1.4V23h-1.4V24.3z M104.9,22.7c-0.2,1.1-0.5,2.2-0.9,3.3c-0.3-0.3-0.6-0.5-0.9-0.7c0.4-0.9,0.6-1.8,0.7-2.8
	L104.9,22.7z M107.5,21.9c-0.1-0.2-0.1-0.5-0.2-0.8c-1.2,0.1-2.3,0.3-3.4,0.7c-0.1-0.2-0.3-0.8-0.4-1c0.3,0,0.6-0.3,0.9-0.8
	c0.4-0.5,0.8-1.1,1.1-1.7c-0.6,0-1.2,0.1-1.7,0.3c-0.1-0.3-0.2-0.7-0.4-1c0.2,0,0.4-0.3,0.6-0.6c0.5-0.9,0.9-2,1.2-3l1.1,0.4
	c-0.3,0.9-0.8,1.8-1.3,2.7l1.1-0.1c0.2-0.4,0.3-0.7,0.5-1.1l1.1,0.5c-0.6,1.3-1.4,2.5-2.3,3.7l1.5-0.2l-0.3-0.7l0.8-0.4
	c0.4,0.8,0.8,1.7,1,2.5L107.5,21.9z M105.6,25.9c0-1-0.2-2.1-0.4-3.1l0.9-0.3c0.2,1,0.4,2,0.5,3L105.6,25.9z M107.5,22.1
	c0.4,1,0.7,2,0.8,3l-0.9,0.5c-0.1-1-0.4-2.1-0.8-3.1L107.5,22.1z"/>
<path class="st0" d="M128,16.3v1.9h-17.4v-1.9h8c-0.2-0.6-0.4-1.4-0.6-2l1.9-0.5c0.3,0.8,0.6,1.7,0.8,2.5L128,16.3z M127.5,33.7
	c0,1.1-0.2,1.5-0.8,1.8c-0.9,0.3-1.9,0.4-2.9,0.3c-0.1-0.6-0.3-1.1-0.6-1.7c0.8,0,1.8,0,2.1,0s0.4-0.1,0.4-0.4v-6.4H113v8.7h-1.8
	V25.4h16.3V33.7z M125.5,19.3v4.9h-12v-4.9L125.5,19.3z M116.7,33.5v1.1H115v-6.2h8.5v5.1H116.7z M123.5,20.9h-8.2v1.8h8.2V20.9z
	 M116.7,30v1.9h5.1V30H116.7z"/>
<path class="st0" d="M133.4,17.4c-0.5,1-1.2,1.9-1.9,2.8c-0.4-0.5-0.8-1.1-1.3-1.5c1.4-1.4,2.4-3.1,3-4.9l1.7,0.6
	c-0.2,0.4-0.3,0.8-0.5,1.2h4.9v1.9h-3.3c0.6,0.6,1.1,1.2,1.6,1.9l-1.2,1.3c-0.6-0.9-1.3-1.7-2-2.4l0.7-0.7H133.4z M144.3,28.3h3.9
	v1.8h-3.9v3.6c0,1.1-0.2,1.7-1,1.9c-1.2,0.3-2.4,0.3-3.6,0.3c-0.1-0.6-0.3-1.2-0.5-1.8c0.9,0,1.8,0,2.7,0c0.3,0,0.4-0.1,0.4-0.5
	v-3.5h-7.2c1.1,1.1,2.2,2.2,3.2,3.4l-1.4,1.3c-1-1.3-2-2.5-3.2-3.6l1.2-1.1h-4.5v-1.8h11.8v-1.5h1.9L144.3,28.3z M148.5,15.5v1.9h-4
	c0.6,0.6,1.1,1.3,1.6,2.1l-1.3,1.3c-0.5-0.9-1.1-1.8-1.9-2.6l0.8-0.8H142c-0.4,1-1,2-1.6,2.9l-0.1-0.1v0.7h7.2v1.9h-7.2v1.8h6v1.8
	h-14v-1.8h6.1v-1.8h-7.1v-1.9h7.1v-1.3h1.3c-0.2-0.2-0.4-0.4-0.7-0.5c1.2-1.6,2-3.3,2.5-5.3l1.7,0.5c-0.1,0.5-0.2,0.9-0.4,1.3
	L148.5,15.5z"/>
<path class="st0" d="M154,24.8c-1.1-1-2.4-1.9-3.7-2.6l1-1.7c1.3,0.6,2.6,1.5,3.7,2.4L154,24.8z M151,34.1c1.4-2.5,2.7-5,3.8-7.6
	l1.3,1.5c-1,2.5-2.4,5.4-3.5,7.6L151,34.1z M152.5,14.1c1.3,0.7,2.6,1.5,3.8,2.5l-1.1,1.9c-1.1-1.1-2.4-2-3.7-2.7L152.5,14.1z
	 M166.7,35.8c-0.2-0.8-0.5-1.5-0.8-2.3c-7.1,1-8,1.2-8.6,1.6c-0.1-0.5-0.4-1.6-0.6-2.2c0.4-0.1,0.8-0.7,1.3-1.6
	c1-1.8,1.8-3.6,2.5-5.5h-4.1v-2.1h5v-3.9h-4.1v-2.1h4.1v-3.9h1.9v3.9h4.3v2.1h-4.3v3.9h5v2.1h-5.5c-0.9,2.3-2,4.5-3.2,6.6l5.6-0.7
	c-0.5-1-1-1.9-1.6-2.8l1.5-0.9c1.4,2.1,2.6,4.4,3.4,6.8L166.7,35.8z"/>
<path class="st0" d="M177,15.6c-0.6,2-1.3,4.3-1.9,6.2c1.1,1.5,1.6,3.3,1.6,5.1c0.1,1-0.2,2.1-0.8,2.9c-0.3,0.3-0.7,0.4-1.1,0.5
	c-0.4,0-0.9,0-1.3,0c0-0.7-0.2-1.3-0.4-1.9c0.3,0,0.7,0,1,0c0.2,0,0.4-0.1,0.6-0.2c0.3-0.5,0.5-1,0.4-1.6c0-1.7-0.6-3.3-1.6-4.6
	c0.5-1.6,1-3.6,1.4-5.2h-2.2v19H171v-21h4.5l0.3-0.1L177,15.6z M186.7,33.7c0.4,0,0.5-0.4,0.5-3c0.5,0.4,1,0.7,1.6,0.8
	c-0.2,3.2-0.6,4-1.9,4h-1.6c-1.5,0-1.9-0.6-1.9-2.6v-5.6h-1.8c-0.3,4.2-1.3,7-5.1,8.6c-0.3-0.6-0.6-1.2-1.1-1.8
	c3.3-1.3,4.1-3.4,4.3-6.8h-2.6v-2h11.3v2h-3.4v5.6c0,0.7,0.1,0.7,0.4,0.7H186.7z M178.8,21.2h-1.6v-4.4h4.9
	c-0.3-0.8-0.6-1.7-0.9-2.5l1.7-0.6c0.5,1,0.9,2,1.2,3.1h4.4v4.4h-1.6V23h-8.1V21.2z M178.9,18.7V21h7.7v-2.3L178.9,18.7z"/>
<path class="st0" d="M208.2,16.3v1.9h-17.5v-1.9h8c-0.2-0.6-0.4-1.4-0.6-2l1.9-0.5c0.3,0.8,0.6,1.7,0.8,2.5L208.2,16.3z M207.7,33.7
	c0,1.1-0.2,1.5-0.8,1.8c-0.9,0.3-1.9,0.4-2.9,0.3c-0.1-0.6-0.3-1.1-0.6-1.7c0.8,0,1.8,0,2.1,0s0.4-0.1,0.4-0.4v-6.4h-12.6v8.7h-1.8
	V25.4h16.3L207.7,33.7z M205.7,19.3v4.9h-12v-4.9L205.7,19.3z M196.9,33.5v1.1h-1.7v-6.2h8.5v5.1H196.9z M203.7,20.9h-8.2v1.8h8.2
	V20.9z M196.9,30v1.9h5.1V30H196.9z"/>
<path class="st0" d="M214.8,19.8c-0.6,4.6-1.6,8.6-3.2,11.4c-0.5-0.5-1-0.9-1.6-1.3c1.5-2.5,2.4-6,3-10.2h-2.2v-2.1h2.5
	c0.1-1.2,0.2-2.6,0.3-3.8l1.8,0.2c-0.1,1.2-0.2,2.5-0.3,3.7h4v2.1L214.8,19.8z M217.9,26.9c0.7,2.4,1.2,4.9,1.6,7.4L218,35
	c-0.1-0.5-0.2-1.1-0.3-1.7c-4,0.9-4.6,1.1-5,1.3c-0.1-0.6-0.3-1.3-0.6-1.9c0.4-0.1,0.7-0.8,1.1-1.9c1-2.8,1.8-5.6,2.2-8.5l1.8,0.5
	c-0.7,3.2-1.6,6.3-2.8,9.3l3-0.6c-0.3-1.4-0.6-2.8-0.9-4.1L217.9,26.9z M228.5,34.7h-6.8v1.2h-1.6v-14c-0.4,0.8-0.8,1.6-1.3,2.3
	c-0.3-0.6-0.7-1.2-1.1-1.8c1.7-2.6,2.8-5.4,3.5-8.4l1.6,0.5c-0.3,1.3-0.7,2.6-1.2,3.9h6.8v2h-2.5v2.9h2.4v1.9h-2.4v2.7h2.4v1.9h-2.4
	v2.9h2.7L228.5,34.7z M221.7,20.3v2.9h2.4v-2.9L221.7,20.3z M224.2,25.1h-2.4v2.8h2.4V25.1z M221.7,32.7h2.4v-2.9h-2.4V32.7z
	 M224.9,14.2c0.5,1.1,1,2.2,1.3,3.4l-1.7,0.7c-0.3-1.2-0.8-2.4-1.3-3.5L224.9,14.2z"/>
<path class="st0" d="M243.3,14.3c0.9,3.6,3,7,5.7,8.8c-0.5,0.6-1,1.3-1.4,2c-0.7-0.5-1.3-1.1-1.8-1.7c0,0.1,0,0.3,0,0.4
	c-0.3,7.3-0.5,10.1-1.2,11c-0.4,0.6-1,1-1.6,1c-1,0.1-2.1,0.1-3.1,0c-0.1-0.8-0.3-1.6-0.6-2.3c0.9,0.1,1.9,0.2,2.8,0.2
	c0.3,0,0.6-0.1,0.8-0.3c0.5-0.6,0.7-2.8,0.9-8.4h-4.6c-0.5,4.7-1.8,8.9-7,11.1c-0.3-0.7-0.7-1.4-1.2-2c4.6-1.8,5.7-5.3,6.1-9.1h-3.8
	v-1.6c-0.5,0.7-1,1.3-1.6,1.9c-0.5-0.6-1-1.2-1.6-1.7c2.5-2.4,4.3-5.4,5.1-8.8l1.9,0.6c-0.7,2.7-1.9,5.2-3.4,7.5h11.5
	c-1.5-1.9-2.7-4.1-3.4-6.4h-3.4v-2.1H243.3z"/>
<path class="st0" d="M257.1,15.6c-0.6,2-1.3,4.3-1.9,6.2c1.1,1.5,1.6,3.3,1.6,5.1c0.1,1-0.2,2.1-0.8,2.9c-0.3,0.3-0.7,0.4-1.1,0.5
	c-0.4,0-0.9,0-1.3,0c0-0.7-0.2-1.3-0.4-1.9c0.3,0,0.7,0,1,0c0.2,0,0.4-0.1,0.6-0.2c0.3-0.5,0.5-1,0.4-1.6c0-1.7-0.6-3.3-1.6-4.6
	c0.5-1.6,1-3.6,1.4-5.2h-2.2v19h-1.7v-21h4.5l0.3-0.1L257.1,15.6z M266.9,33.7c0.4,0,0.5-0.4,0.5-3c0.5,0.4,1,0.7,1.6,0.8
	c-0.2,3.2-0.6,4-1.9,4h-1.6c-1.5,0-1.9-0.6-1.9-2.6v-5.6h-1.8c-0.3,4.2-1.3,7-5.1,8.6c-0.3-0.6-0.6-1.2-1.1-1.8
	c3.3-1.3,4.1-3.4,4.3-6.8h-2.6v-2h11.3v2h-3.4v5.6c0,0.7,0.1,0.7,0.4,0.7H266.9z M258.9,21.2h-1.6v-4.4h4.9
	c-0.3-0.8-0.6-1.7-0.9-2.5l1.7-0.6c0.5,1,0.9,2,1.2,3.1h4.4v4.4H267V23h-8.1L258.9,21.2z M259.1,18.7V21h7.7v-2.3L259.1,18.7z"/>
<path class="st0" d="M71.8,45v-0.8h3.9V45h-1.6v7.1h-0.7V45H71.8z"/>
<path class="st0" d="M81.6,46.2v5.8H81v-1c-0.3,0.4-0.6,0.7-1,0.9c-0.4,0.2-0.8,0.3-1.2,0.3c-0.7,0-1.4-0.3-1.9-0.9
	c-1.1-1.2-1.1-3.1,0-4.3c0.5-0.6,1.2-0.9,1.9-0.9c0.4,0,0.8,0.1,1.2,0.3c0.4,0.2,0.7,0.5,0.9,0.9v-1.1H81.6z M78.9,46.8
	c-0.4,0-0.7,0.1-1,0.3c-0.3,0.2-0.6,0.5-0.8,0.9c-0.2,0.4-0.3,0.8-0.3,1.2c0,0.4,0.1,0.8,0.3,1.2c0.2,0.4,0.4,0.7,0.8,0.9
	c0.3,0.2,0.6,0.3,1,0.3c0.4,0,0.8-0.1,1.1-0.3c0.3-0.2,0.6-0.5,0.8-0.8C81,50,81,49.6,81,49.2c0-0.6-0.2-1.2-0.6-1.7
	C80.1,47,79.5,46.8,78.9,46.8z"/>
<path class="st0" d="M83.1,43.8c0.2,0,0.3,0.1,0.4,0.2c0.1,0.1,0.2,0.3,0.2,0.4c0,0.2-0.1,0.3-0.2,0.4c-0.1,0.1-0.2,0.2-0.4,0.2
	c-0.2,0-0.3-0.1-0.4-0.2c-0.1-0.1-0.2-0.3-0.2-0.4c0-0.2,0.1-0.3,0.2-0.4C82.8,43.9,83,43.8,83.1,43.8z M82.8,46.2h0.7v5.8h-0.7
	V46.2z"/>
<path class="st0" d="M83.9,46.2h0.7l1.6,4.2l1.7-4.2H88l1.7,4.2l1.7-4.2h0.7l-2.3,5.8h-0.1L88,47.9l-1.7,4.2h-0.1L83.9,46.2z"/>
<path class="st0" d="M97.9,46.2v5.8h-0.7v-1c-0.3,0.4-0.6,0.7-1,0.9c-0.4,0.2-0.8,0.3-1.2,0.3c-0.7,0-1.4-0.3-1.9-0.9
	c-1.1-1.2-1.1-3.1,0-4.3c0.5-0.6,1.2-0.9,1.9-0.9c0.4,0,0.8,0.1,1.2,0.3c0.4,0.2,0.7,0.5,0.9,0.9v-1.1H97.9z M95.2,46.8
	c-0.4,0-0.7,0.1-1,0.3c-0.3,0.2-0.6,0.5-0.8,0.9c-0.2,0.4-0.3,0.8-0.3,1.2c0,0.4,0.1,0.8,0.3,1.2c0.2,0.4,0.4,0.7,0.8,0.9
	c0.3,0.2,0.6,0.3,1,0.3c0.4,0,0.7-0.1,1.1-0.3c0.3-0.2,0.6-0.5,0.8-0.8c0.2-0.4,0.3-0.8,0.3-1.2c0-0.6-0.2-1.2-0.6-1.7
	C96.3,47,95.7,46.8,95.2,46.8z"/>
<path class="st0" d="M99.1,46.2h0.7v1c0.2-0.4,0.5-0.7,0.9-0.9c0.3-0.2,0.7-0.3,1.1-0.3c0.4,0,0.8,0.1,1.1,0.3
	c0.3,0.2,0.6,0.5,0.7,0.9c0.2,0.6,0.2,1.2,0.2,1.8v3h-0.7v-2.8c0-0.5,0-0.9-0.1-1.3c-0.1-0.3-0.2-0.6-0.4-0.9
	c-0.2-0.2-0.6-0.3-0.9-0.3c-0.4,0-0.8,0.2-1.1,0.5c-0.3,0.3-0.5,0.7-0.6,1.1c-0.1,0.5-0.1,1.1-0.1,1.6v2.1h-0.7L99.1,46.2z"/>
<path class="st0" d="M107.5,44.2h0.7v3.3h3.7v-3.3h0.7v7.9h-0.7v-3.8h-3.7v3.8h-0.7V44.2z"/>
<path class="st0" d="M114.2,43.8c0.2,0,0.3,0.1,0.4,0.2c0.1,0.1,0.2,0.3,0.2,0.4c0,0.2-0.1,0.3-0.2,0.4c-0.1,0.1-0.2,0.2-0.4,0.2
	c-0.2,0-0.3-0.1-0.4-0.2c-0.1-0.1-0.2-0.3-0.2-0.4c0-0.2,0.1-0.3,0.2-0.4C113.9,43.9,114,43.8,114.2,43.8z M113.9,46.2h0.7v5.8h-0.7
	V46.2z"/>
<path class="st0" d="M120.2,46.2h0.7v4.7c0,0.6,0,1.2-0.2,1.8c-0.2,0.5-0.5,0.9-0.9,1.2c-0.5,0.3-1,0.4-1.6,0.4
	c-0.4,0-0.8-0.1-1.2-0.2c-0.3-0.1-0.6-0.3-0.9-0.6c-0.3-0.3-0.5-0.6-0.6-1h0.7c0.2,0.4,0.4,0.7,0.8,0.9c0.4,0.2,0.8,0.3,1.2,0.3
	c0.4,0,0.8-0.1,1.2-0.3c0.3-0.2,0.5-0.4,0.7-0.7c0.2-0.4,0.2-0.9,0.2-1.4V51c-0.2,0.3-0.6,0.6-0.9,0.8c-0.8,0.4-1.8,0.4-2.6-0.1
	c-0.4-0.3-0.8-0.6-1-1.1c-0.2-0.5-0.4-1-0.3-1.5c0-0.5,0.1-1,0.4-1.5c0.2-0.5,0.6-0.8,1-1.1c0.4-0.3,0.9-0.4,1.4-0.4
	c0.4,0,0.8,0.1,1.1,0.3c0.4,0.2,0.7,0.5,1,0.9L120.2,46.2z M118.2,46.8c-0.4,0-0.8,0.1-1.1,0.3c-0.3,0.2-0.6,0.5-0.8,0.9
	c-0.2,0.4-0.3,0.8-0.3,1.2c0,0.6,0.2,1.2,0.6,1.6c0.4,0.4,0.9,0.6,1.5,0.6c0.6,0,1.1-0.2,1.5-0.6c0.4-0.4,0.6-1,0.6-1.6
	c0-0.4-0.1-0.8-0.3-1.2c-0.2-0.3-0.4-0.6-0.7-0.8C119,46.9,118.6,46.8,118.2,46.8L118.2,46.8z"/>
<path class="st0" d="M122.1,44h0.7v3.3c0.2-0.4,0.5-0.7,0.9-0.9c0.3-0.2,0.7-0.3,1.1-0.3c0.4,0,0.8,0.1,1.1,0.3
	c0.3,0.2,0.6,0.5,0.7,0.9c0.2,0.6,0.3,1.2,0.2,1.8v3h-0.7v-2.8c0-0.5,0-0.9-0.1-1.3c-0.1-0.3-0.2-0.6-0.5-0.9
	c-0.2-0.2-0.6-0.3-0.9-0.3c-0.4,0-0.8,0.2-1.1,0.5c-0.3,0.3-0.6,0.7-0.7,1.1c-0.1,0.5-0.1,1.1-0.1,1.6v2.1h-0.7V44z"/>
<path class="st0" d="M137.2,45.6l-0.6,0.5c-0.3-0.4-0.7-0.8-1.1-1c-0.4-0.2-0.9-0.4-1.4-0.3c-0.6,0-1.1,0.2-1.6,0.5
	c-0.5,0.3-0.9,0.7-1.1,1.2c-0.3,0.5-0.4,1.1-0.4,1.7c0,0.9,0.3,1.8,0.9,2.4c0.6,0.6,1.4,1,2.3,1c1,0,1.9-0.5,2.5-1.3l0.6,0.5
	c-0.3,0.5-0.8,0.9-1.3,1.2c-0.6,0.3-1.2,0.4-1.8,0.4c-1.2,0.1-2.3-0.5-3-1.4c-0.6-0.8-0.9-1.8-0.9-2.8c0-1.1,0.4-2.1,1.1-2.9
	c0.7-0.8,1.7-1.2,2.8-1.2c0.6,0,1.3,0.1,1.8,0.4C136.4,44.7,136.8,45.1,137.2,45.6z"/>
<path class="st0" d="M140.7,46.1c0.8,0,1.5,0.4,2,1c1,1.2,1,3,0,4.2c-1,1.1-2.6,1.2-3.7,0.3c-0.1-0.1-0.2-0.2-0.3-0.3
	c-1-1.2-1-3,0-4.2C139.2,46.5,139.9,46.1,140.7,46.1z M140.7,46.8c-0.6,0-1.1,0.3-1.5,0.7c-0.4,0.5-0.6,1.1-0.6,1.7
	c0,0.4,0.1,0.8,0.3,1.2c0.2,0.3,0.4,0.6,0.8,0.8c0.3,0.2,0.6,0.3,1,0.3c0.4,0,0.7-0.1,1.1-0.3c0.3-0.2,0.6-0.5,0.8-0.8
	c0.2-0.4,0.3-0.8,0.3-1.2c0-0.6-0.2-1.2-0.6-1.7C141.8,47.1,141.3,46.8,140.7,46.8L140.7,46.8z"/>
<path class="st0" d="M144.4,46.2h0.7V49c0,0.5,0,0.9,0.1,1.4c0.1,0.3,0.3,0.6,0.6,0.8c0.3,0.2,0.6,0.3,1,0.3c0.4,0,0.7-0.1,1-0.3
	c0.3-0.2,0.5-0.5,0.6-0.8c0.1-0.5,0.1-1,0.1-1.4v-2.8h0.7v2.9c0,0.6-0.1,1.2-0.3,1.8c-0.1,0.4-0.4,0.8-0.8,1
	c-0.4,0.2-0.8,0.4-1.3,0.3c-0.5,0-0.9-0.1-1.3-0.3c-0.4-0.2-0.6-0.6-0.8-1c-0.2-0.6-0.3-1.2-0.2-1.9L144.4,46.2z"/>
<path class="st0" d="M150,46.2h0.7v0.8c0.2-0.3,0.4-0.5,0.7-0.8c0.2-0.2,0.5-0.2,0.7-0.2c0.2,0,0.4,0.1,0.6,0.2l-0.4,0.6
	c-0.1-0.1-0.2-0.1-0.4-0.1c-0.3,0-0.5,0.1-0.7,0.3c-0.3,0.3-0.4,0.6-0.5,1c-0.1,0.7-0.1,1.3-0.1,2v2H150V46.2z"/>
<path class="st0" d="M153.6,44.1h0.7v2.2h1.1v0.7h-1.1v5.2h-0.7v-5.2h-0.9v-0.7h0.9V44.1z"/>
<path class="st0" d="M158.6,44.2h0.7v3l2.9-3h1l-3.5,3.5l3.7,4.3h-0.9l-3.1-3.7v3.7h-0.7L158.6,44.2z"/>
<path class="st0" d="M169.4,46.2v5.8h-0.7v-1c-0.3,0.4-0.6,0.7-1,0.9c-0.4,0.2-0.8,0.3-1.2,0.3c-0.7,0-1.5-0.3-1.9-0.9
	c-0.5-0.6-0.8-1.4-0.8-2.2c0-0.8,0.3-1.6,0.8-2.2c0.5-0.6,1.2-0.9,1.9-0.9c0.4,0,0.8,0.1,1.2,0.3c0.4,0.2,0.7,0.5,0.9,0.9v-1.1
	H169.4z M166.7,46.8c-0.4,0-0.7,0.1-1.1,0.3c-0.3,0.2-0.6,0.5-0.8,0.9c-0.2,0.4-0.3,0.8-0.3,1.2c0,0.4,0.1,0.8,0.3,1.2
	c0.2,0.4,0.4,0.7,0.8,0.9c0.3,0.2,0.6,0.3,1,0.3c0.4,0,0.7-0.1,1.1-0.3c0.3-0.2,0.6-0.5,0.8-0.8c0.2-0.4,0.3-0.8,0.3-1.2
	c0-0.6-0.2-1.2-0.6-1.7C167.8,47.1,167.3,46.8,166.7,46.8z"/>
<path class="st0" d="M173.2,46.1c0.8,0,1.5,0.4,2,1c1,1.2,1,3,0,4.2c-1,1.1-2.6,1.2-3.7,0.3c-0.1-0.1-0.2-0.2-0.3-0.3
	c-1-1.2-1-3,0-4.2C171.7,46.5,172.4,46.1,173.2,46.1z M173.2,46.8c-0.6,0-1.1,0.3-1.5,0.7c-0.4,0.5-0.6,1.1-0.6,1.7
	c0,0.4,0.1,0.8,0.3,1.2c0.2,0.3,0.4,0.6,0.8,0.8c0.3,0.2,0.7,0.3,1.1,0.3c0.4,0,0.7-0.1,1-0.3c0.3-0.2,0.6-0.5,0.8-0.8
	c0.2-0.4,0.3-0.8,0.3-1.2c0-0.6-0.2-1.2-0.6-1.7C174.3,47.1,173.7,46.8,173.2,46.8z"/>
<path class="st0" d="M176.9,44h0.7v3.3c0.2-0.4,0.5-0.7,0.9-0.9c0.3-0.2,0.7-0.3,1.1-0.3c0.4,0,0.7,0.1,1,0.3
	c0.3,0.2,0.6,0.5,0.7,0.9c0.2,0.6,0.3,1.2,0.2,1.8v3h-0.7v-2.8c0-0.5,0-0.9-0.1-1.3c-0.1-0.3-0.2-0.6-0.5-0.9
	c-0.2-0.2-0.6-0.3-0.9-0.3c-0.4,0-0.8,0.2-1.1,0.5c-0.3,0.3-0.6,0.7-0.6,1.1c-0.1,0.5-0.1,1.1-0.1,1.6v2.1h-0.7L176.9,44z"/>
<path class="st0" d="M185.4,46.9l-0.4,0.5c-0.3-0.3-0.6-0.6-1.1-0.6c-0.2,0-0.4,0.1-0.6,0.2c-0.2,0.2-0.2,0.4-0.2,0.6
	c0,0.2,0.1,0.4,0.2,0.5c0.2,0.3,0.5,0.5,0.8,0.6c0.4,0.2,0.7,0.5,1,0.8c0.2,0.3,0.3,0.6,0.3,0.9c0,0.5-0.2,0.9-0.5,1.2
	c-0.3,0.3-0.7,0.5-1.1,0.5c-0.3,0-0.6-0.1-0.9-0.2c-0.3-0.1-0.5-0.3-0.7-0.6l0.4-0.5c0.3,0.4,0.7,0.6,1.1,0.7c0.3,0,0.5-0.1,0.7-0.3
	c0.2-0.2,0.3-0.4,0.3-0.7c0-0.2-0.1-0.4-0.2-0.6c-0.3-0.3-0.5-0.5-0.9-0.6c-0.4-0.2-0.7-0.5-1-0.8c-0.4-0.6-0.3-1.4,0.1-2
	c0.3-0.3,0.7-0.4,1.1-0.4C184.5,46.1,185,46.4,185.4,46.9z"/>
<path class="st0" d="M186.6,43.8c0.2,0,0.3,0.1,0.4,0.2c0.1,0.1,0.2,0.3,0.2,0.4c0,0.2-0.1,0.3-0.2,0.4c-0.1,0.1-0.2,0.2-0.4,0.2
	c-0.2,0-0.3-0.1-0.4-0.2c-0.1-0.1-0.2-0.3-0.2-0.4c0-0.2,0.1-0.3,0.2-0.4C186.3,43.9,186.4,43.8,186.6,43.8z M186.2,46.2h0.7v5.8
	h-0.7V46.2z"/>
<path class="st0" d="M187.9,46.2h0.7V49c0,0.5,0,0.9,0.1,1.4c0.1,0.3,0.3,0.6,0.6,0.8c0.3,0.2,0.6,0.3,1,0.3c0.4,0,0.7-0.1,1-0.3
	c0.3-0.2,0.5-0.5,0.6-0.8c0.1-0.5,0.1-1,0.1-1.4v-2.8h0.7v2.9c0,0.6-0.1,1.2-0.2,1.8c-0.1,0.4-0.4,0.8-0.8,1c-0.8,0.5-1.8,0.5-2.6,0
	c-0.4-0.2-0.6-0.6-0.8-1c-0.2-0.6-0.3-1.2-0.3-1.9L187.9,46.2z"/>
<path class="st0" d="M193.8,46.2h0.7v1c0.2-0.4,0.5-0.7,0.9-0.9c0.3-0.2,0.7-0.3,1.1-0.3c0.4,0,0.8,0.1,1.1,0.3
	c0.3,0.2,0.6,0.5,0.7,0.9c0.2,0.6,0.2,1.2,0.2,1.8v3h-0.7v-2.8c0-0.5,0-0.9-0.1-1.3c-0.1-0.3-0.2-0.6-0.4-0.9
	c-0.2-0.2-0.6-0.3-0.9-0.3c-0.4,0-0.8,0.2-1.1,0.5c-0.3,0.3-0.5,0.7-0.6,1.1c-0.1,0.5-0.1,1.1-0.1,1.6v2.1h-0.7V46.2z"/>
<path class="st0" d="M204.2,46.2h0.7v4.7c0,0.6,0,1.2-0.2,1.8c-0.2,0.5-0.5,0.9-0.9,1.2c-0.5,0.3-1,0.4-1.6,0.4
	c-0.4,0-0.8-0.1-1.2-0.2c-0.3-0.1-0.6-0.3-0.9-0.6c-0.3-0.3-0.5-0.6-0.6-1h0.8c0.2,0.4,0.4,0.7,0.8,0.9c0.7,0.4,1.6,0.4,2.4,0
	c0.3-0.2,0.5-0.4,0.7-0.7c0.2-0.4,0.2-0.9,0.2-1.4V51c-0.2,0.3-0.6,0.6-0.9,0.8c-1.3,0.6-2.9,0.1-3.6-1.2c-0.2-0.5-0.4-1-0.4-1.5
	c0-0.5,0.1-1,0.4-1.5c0.2-0.5,0.6-0.8,1-1.1c0.4-0.3,0.9-0.4,1.4-0.4c0.4,0,0.8,0.1,1.1,0.3c0.4,0.2,0.7,0.5,1,0.9L204.2,46.2z
	 M202.2,46.8c-0.4,0-0.8,0.1-1.1,0.3c-0.3,0.2-0.6,0.5-0.8,0.9c-0.2,0.4-0.3,0.8-0.3,1.2c0,0.6,0.2,1.2,0.6,1.6
	c0.4,0.4,0.9,0.6,1.5,0.6c0.6,0,1.1-0.2,1.5-0.6c0.4-0.4,0.6-1,0.6-1.6c0-0.4-0.1-0.8-0.3-1.2c-0.2-0.3-0.4-0.6-0.7-0.8
	C202.9,46.9,202.5,46.8,202.2,46.8L202.2,46.8z"/>
<path class="st0" d="M208.6,44.2h1.4c0.5,0,0.9,0.1,1.3,0.2c0.3,0.1,0.6,0.4,0.7,0.7c0.3,0.6,0.3,1.4,0,2c-0.2,0.3-0.4,0.5-0.7,0.7
	c0.3,0.1,0.6,0.3,0.9,0.5c0.2,0.2,0.4,0.4,0.5,0.7c0.1,0.3,0.2,0.6,0.2,0.9c0,0.6-0.2,1.2-0.6,1.6c-0.5,0.4-1.1,0.7-1.7,0.7h-2
	L208.6,44.2z M209.3,44.9v2.5h0.4c0.4,0,0.7,0,1.1-0.2c0.2-0.1,0.4-0.3,0.6-0.5c0.1-0.2,0.2-0.5,0.2-0.7c0-0.3-0.1-0.6-0.4-0.9
	c-0.3-0.2-0.7-0.3-1.1-0.3H209.3z M209.3,48.3v3h0.9c0.4,0,0.8,0,1.2-0.2c0.2-0.1,0.4-0.3,0.6-0.5c0.1-0.2,0.2-0.5,0.2-0.8
	c0-0.3-0.1-0.7-0.3-0.9c-0.2-0.3-0.5-0.5-0.9-0.5c-0.4-0.1-0.9-0.1-1.3-0.1L209.3,48.3z"/>
<path class="st0" d="M213.7,46.2h0.7v0.8c0.2-0.3,0.4-0.5,0.7-0.8c0.2-0.2,0.5-0.2,0.7-0.2c0.2,0,0.4,0.1,0.6,0.2l-0.4,0.6
	c-0.1-0.1-0.2-0.1-0.4-0.1c-0.3,0-0.5,0.1-0.7,0.3c-0.3,0.3-0.4,0.6-0.5,1c-0.1,0.7-0.2,1.3-0.1,2v2h-0.7V46.2z"/>
<path class="st0" d="M222,46.2v5.8h-0.7v-1c-0.3,0.4-0.6,0.7-1,0.9c-0.4,0.2-0.8,0.3-1.2,0.3c-0.7,0-1.5-0.3-1.9-0.9
	c-0.5-0.6-0.8-1.4-0.8-2.2c0-0.8,0.3-1.6,0.8-2.2c0.5-0.6,1.2-0.9,1.9-0.9c0.4,0,0.8,0.1,1.2,0.3c0.4,0.2,0.7,0.5,0.9,0.9v-1.1H222z
	 M219.3,46.8c-0.4,0-0.7,0.1-1.1,0.3c-0.3,0.2-0.6,0.5-0.8,0.9c-0.2,0.4-0.3,0.8-0.3,1.2c0,0.4,0.1,0.8,0.3,1.2
	c0.2,0.4,0.4,0.7,0.8,0.9c0.3,0.2,0.6,0.3,1,0.3c0.4,0,0.7-0.1,1.1-0.3c0.3-0.2,0.6-0.5,0.8-0.8c0.2-0.4,0.3-0.8,0.3-1.2
	c0-0.6-0.2-1.2-0.6-1.7C220.4,47,219.8,46.8,219.3,46.8L219.3,46.8z"/>
<path class="st0" d="M223.2,46.2h0.7v1c0.2-0.4,0.5-0.7,0.9-0.9c0.3-0.2,0.7-0.3,1.1-0.3c0.4,0,0.8,0.1,1.1,0.3
	c0.3,0.2,0.5,0.5,0.7,0.9c0.2,0.6,0.2,1.2,0.2,1.8v3h-0.7v-2.8c0-0.5,0-0.9-0.1-1.3c-0.1-0.3-0.2-0.6-0.5-0.9
	c-0.2-0.2-0.6-0.3-0.9-0.3c-0.4,0-0.8,0.2-1.1,0.5c-0.3,0.3-0.6,0.7-0.6,1.1c-0.1,0.5-0.1,1.1-0.1,1.6v2.1h-0.7L223.2,46.2z"/>
<path class="st0" d="M234.2,47.4l-0.6,0.4c-0.4-0.6-1.1-1-1.9-1c-0.6,0-1.2,0.2-1.6,0.7c-0.4,0.5-0.7,1.1-0.6,1.7
	c0,0.4,0.1,0.8,0.3,1.2c0.4,0.7,1.2,1.2,2,1.2c0.8,0,1.5-0.4,1.9-1l0.6,0.4c-0.2,0.4-0.6,0.8-1,1c-0.5,0.2-1,0.4-1.5,0.3
	c-0.8,0-1.6-0.3-2.1-0.9c-0.5-0.6-0.8-1.3-0.8-2.1c0-0.5,0.1-1.1,0.4-1.6c0.5-1,1.5-1.6,2.6-1.5c0.3,0,0.7,0.1,1,0.2
	c0.3,0.1,0.6,0.3,0.8,0.5C233.9,47,234,47.2,234.2,47.4z"/>
<path class="st0" d="M235.2,44h0.7v3.3c0.2-0.4,0.5-0.7,0.9-0.9c0.3-0.2,0.7-0.3,1.1-0.3c0.4,0,0.8,0.1,1.1,0.3
	c0.3,0.2,0.5,0.5,0.7,0.9c0.2,0.6,0.3,1.2,0.2,1.8v3h-0.7v-2.8c0-0.5,0-0.9-0.1-1.3c-0.1-0.3-0.2-0.6-0.5-0.9
	c-0.2-0.2-0.6-0.3-0.9-0.3c-0.4,0-0.8,0.2-1.1,0.5c-0.3,0.3-0.6,0.7-0.6,1.1c-0.1,0.5-0.1,1.1-0.1,1.6v2.1h-0.7V44z"/>
<path class="st0" d="M250.3,45.6l-0.6,0.5c-0.3-0.4-0.7-0.8-1.1-1c-0.4-0.2-0.9-0.4-1.4-0.3c-0.6,0-1.1,0.2-1.6,0.5
	c-0.5,0.3-0.9,0.7-1.1,1.2c-0.3,0.5-0.4,1.1-0.4,1.7c0,0.9,0.3,1.8,0.9,2.4c0.6,0.6,1.4,1,2.3,1c1,0,1.9-0.5,2.5-1.3l0.6,0.5
	c-0.3,0.5-0.8,0.9-1.4,1.2c-0.6,0.3-1.2,0.4-1.8,0.4c-1.2,0.1-2.3-0.5-3-1.4c-0.6-0.8-0.9-1.8-0.9-2.8c0-1.1,0.4-2.1,1.1-2.9
	c0.7-0.8,1.7-1.2,2.8-1.2c0.6,0,1.3,0.1,1.8,0.4C249.5,44.7,249.9,45.1,250.3,45.6z"/>
<path class="st0" d="M253.8,46.1c0.8,0,1.5,0.4,2,1c0.5,0.6,0.7,1.3,0.7,2.1c0,0.8-0.3,1.5-0.8,2.1c-1,1.1-2.6,1.2-3.7,0.3
	c-0.1-0.1-0.2-0.2-0.3-0.3c-1-1.2-1-3,0-4.2C252.3,46.4,253,46.1,253.8,46.1z M253.8,46.8c-0.6,0-1.1,0.3-1.5,0.7
	c-0.4,0.5-0.6,1.1-0.6,1.7c0,0.4,0.1,0.8,0.3,1.2c0.2,0.3,0.4,0.6,0.8,0.8c0.3,0.2,0.6,0.3,1,0.3c0.4,0,0.7-0.1,1-0.3
	c0.3-0.2,0.6-0.5,0.8-0.8c0.2-0.4,0.3-0.8,0.3-1.2c0-0.6-0.2-1.2-0.6-1.7C254.9,47.1,254.4,46.8,253.8,46.8z"/>
<path class="st0" d="M257.5,46.2h0.7V49c0,0.5,0,0.9,0.1,1.4c0.1,0.3,0.3,0.6,0.6,0.8c0.3,0.2,0.6,0.3,1,0.3c0.4,0,0.7-0.1,1-0.3
	c0.3-0.2,0.5-0.5,0.5-0.8c0.1-0.5,0.1-1,0.1-1.4v-2.8h0.7v2.9c0,0.6-0.1,1.2-0.2,1.8c-0.1,0.4-0.4,0.8-0.8,1
	c-0.4,0.2-0.8,0.4-1.3,0.3c-0.5,0-0.9-0.1-1.3-0.3c-0.4-0.2-0.6-0.6-0.8-1c-0.2-0.6-0.3-1.2-0.3-1.9L257.5,46.2z"/>
<path class="st0" d="M263.1,46.2h0.7v0.8c0.2-0.3,0.4-0.5,0.7-0.8c0.2-0.2,0.5-0.2,0.7-0.2c0.2,0,0.4,0.1,0.6,0.2l-0.4,0.6
	c-0.1-0.1-0.2-0.1-0.4-0.1c-0.3,0-0.5,0.1-0.7,0.3c-0.3,0.3-0.4,0.6-0.5,1c-0.1,0.7-0.2,1.3-0.1,2v2h-0.7V46.2z"/>
<path class="st0" d="M266.6,44.1h0.7v2.2h1.1v0.7h-1.1v5.2h-0.7v-5.2h-0.9v-0.7h0.9V44.1z"/>
<circle class="st0" cx="32.7" cy="31.4" r="30.3"/>
<linearGradient id="SVGID_1_" gradientUnits="userSpaceOnUse" x1="32.645" y1="5.22" x2="32.645" y2="28.47" gradientTransform="matrix(1 0 0 -1 0 66)">
	<stop  offset="0.69" style="stop-color:#B7A246"/>
	<stop  offset="1" style="stop-color:#FFFFFF"/>
</linearGradient>
<path class="st1" d="M61.5,37.8c-3.1,13.4-15.1,22.9-28.8,23c-14,0-25.9-10.2-28.9-23.2h7.4c2.8,9,11.5,16.1,21.5,16.1
	c9.8-0.1,18.4-6.5,21.4-15.8H61.5z"/>
<path class="st2" d="M53.6,31.3c0,11.6-9.4,21-21,21s-21-9.4-21-21s9.4-21,21-21S53.6,19.7,53.6,31.3L53.6,31.3z"/>
<path class="st0" d="M34.3,33.8H31V42c0,0.9,0.8,1.7,1.7,1.7c0.9,0,1.6-0.7,1.6-1.6c0,0,0,0,0,0V33.8z"/>
<path class="st0" d="M35.6,44h-5.8c-0.4,0-0.7,0.3-0.8,0.6c0,0,0,0,0,0v0.8c0,0.4,0.4,0.7,0.7,0.7c0,0,0,0,0,0h5.8
	c0.4,0,0.7-0.2,0.7-0.6c0,0,0,0,0,0v-0.8C36.3,44.3,35.9,44,35.6,44C35.6,44,35.6,44,35.6,44z"/>
<path class="st0" d="M36.7,46.9h-8c-0.6,0-1,0.3-1,0.7v0.8c0,0.4,0.4,0.7,1,0.7h8c0.5,0,1-0.3,1-0.7v-0.8
	C37.7,47.2,37.2,46.9,36.7,46.9z"/>
<path class="st0" d="M48.9,23.3c0-0.3-0.2-0.5-0.4-0.6c-0.4-0.3-1-0.2-1.4,0.1C44.7,25,41,25,38.5,22.8c-3.2-2.7-7.9-2.8-11.2-0.2h0
	l-0.2,0.2l0,0c-1.2,1.1-2.8,1.7-4.4,1.7c-1.6,0-3.2-0.6-4.4-1.7c-0.2-0.2-0.4-0.3-0.7-0.3c-0.2,0-0.5,0-0.7,0.2
	c-0.2,0.1-0.4,0.4-0.4,0.6v0.1c0,0.2,0.1,0.4,0.3,0.6c1.6,1.5,3.7,2.3,5.9,2.3c2,0,3.9-0.6,5.5-1.9l0,0l0,0l0.1-0.1
	c2.5-2.2,6.2-2.2,8.7-0.1c1.6,1.4,3.6,2.1,5.7,2.1c2.2,0,4.3-0.8,5.9-2.3c0.2-0.2,0.3-0.4,0.3-0.6V23.3z M48.9,23.3L48.9,23.3
	L48.9,23.3z"/>
<path class="st0" d="M36.1,17c0,1.9-1.6,3.4-3.5,3.4c-1.9,0-3.4-1.6-3.4-3.5c0-1.9,1.5-3.4,3.4-3.4C34.6,13.5,36.1,15.1,36.1,17z"/>
<path class="st0" d="M27.6,38.4l-5.3-12C22.2,26.2,22,26,21.7,26c-0.2,0-0.4,0.1-0.5,0.4l0,0l-5.3,12c-0.1,0.2-0.1,0.4,0,0.6
	c1.2,2,3.4,3.2,5.8,3.2c2.4,0.1,4.6-1.1,5.8-3.1C27.7,38.8,27.7,38.6,27.6,38.4z M21.7,28.1c0.3,0.7,4.3,9.8,4.6,10.4h-9.2l3.1-7
	L21.7,28.1z"/>
<path class="st0" d="M49.5,38.4l-5.3-12c-0.1-0.2-0.3-0.4-0.5-0.4c-0.2,0-0.4,0.1-0.5,0.4l0,0l-5.3,12c-0.1,0.2-0.1,0.4,0,0.6
	c1.2,2,3.4,3.2,5.8,3.2c2.4,0.1,4.6-1.1,5.8-3.1C49.6,38.8,49.6,38.6,49.5,38.4z M43.7,28.1l4.6,10.4h-9.2c0.2-0.4,2-4.5,2-4.5
	S43.4,28.8,43.7,28.1z"/>
<path class="st0" d="M38.3,25.4c-0.5,0-0.8,0.3-0.9,0.8c0,0.1,0,0.1,0,0.2h-1.2v-0.5h-7v0.5H28c0.1-0.4-0.3-0.9-0.7-0.9
	c-0.1,0-0.1,0-0.2,0c0,0-0.8,0-0.8,1v4.4c0,1.1,0.8,1,0.8,1c0.5,0,0.9-0.3,0.9-0.8c0,0,0-0.1,0-0.1h1.1v0.5H31V33h3.3v-1.5h1.9v-0.5
	h1.2c-0.1,0.5,0.3,0.9,0.7,0.9c0,0,0.1,0,0.1,0c0,0,0.8,0,0.8-1v-4.4C39,25.4,38.3,25.4,38.3,25.4z"/>
<path class="st0" d="M11.8,50.2l-2.6-3.5l0.2-0.2l1.2,1.6l0.3-0.2l-1.1-1.4l0.2-0.1l1.1,1.4l0.3-0.2l-0.9-1.2l0.2-0.2
	c0.2,0.2,0.5,0.4,0.9,0.4L11,46.2l0.2-0.2l1.9,2.5l-0.2,0.2l-0.2-0.3c-0.1,0.3-0.1,0.6-0.2,0.8h-0.3c0-0.1,0.1-0.2,0.1-0.3L11.5,48
	l-0.3,0.2l1.1,1.4l-0.2,0.2L11,48.3l-0.3,0.2l1.3,1.6L11.8,50.2z M13.2,49.1L13,48.9l0.4-0.3l-2.2-2.9l-0.4,0.3l-0.2-0.2l0.6-0.5
	l2.5,3.3L13.2,49.1z M12.3,48.5c0-0.1,0.1-0.2,0.1-0.3h0.2L11.6,47c-0.2,0-0.5-0.1-0.7-0.2C11.2,47.2,11.7,47.7,12.3,48.5z M13.8,48
	l-1.9-2.6l0.7-0.5l1.9,2.6L13.8,48z M13.8,47.6l0.3-0.2l-1.6-2.1l-0.3,0.2L13.8,47.6z M15.4,47.4l-1.2-1.6L14,46l1.1,1.4l-0.2,0.2
	l-2.4-3.1l0.2-0.2l1.1,1.4l0.2-0.2L12.8,44l0.2-0.2l1.2,1.6l0.2-0.2l0.2,0.2l-0.2,0.2l1.2,1.6L15.4,47.4z"/>
<path class="st0" d="M14.5,50.4c-0.6,0.4-1.2,0.7-1.8,1v-0.3c0.6-0.3,1.2-0.6,1.8-1L14.5,50.4z M16.4,53.4L16,53.8
	c-0.1,0.1-0.2,0.1-0.3,0.1c-0.1,0-0.2,0-0.3-0.1L14.6,53l0.1-0.3l0.9,0.8c0.1,0.1,0.1,0,0.2,0l0.2-0.2l-2.2-2l0.8-0.5l1.9,1.7
	l0.2-0.3l-2.1-1.8l0.2-0.2l2.3,2l-0.6,0.6l-1.9-1.7l-0.3,0.2L16.4,53.4z M15.6,49.8c-0.2,0.1-0.4,0.3-0.6,0.4L14.9,50
	c0.2-0.1,0.4-0.2,0.6-0.4L15.6,49.8z M15.3,49.5L15,49.6c0-0.3,0-0.7,0-1l0.3-0.1C15.3,48.8,15.3,49.2,15.3,49.5L15.3,49.5z
	 M15.4,50.5l-0.2-0.1c0.1-0.2,0.3-0.3,0.4-0.5l0.2,0.1C15.7,50.2,15.6,50.3,15.4,50.5L15.4,50.5z M16.4,50.2L16.2,50
	c0,0,0.1-0.1,0.1-0.1c-0.3-0.1-0.5-0.3-0.7-0.4l0.1-0.2c0.4-0.1,0.7-0.1,0.9-0.2l-0.4-0.3l0.1-0.2c0.4-0.1,0.7-0.2,1.1-0.3l0.1,0.2
	c-0.3,0.1-0.6,0.2-0.9,0.3l0.3,0.2l0.3-0.1l0.1,0.2c-0.4,0.1-0.8,0.2-1.2,0.3c0.1,0.1,0.2,0.2,0.4,0.2c0-0.1,0.1-0.1,0.1-0.2
	l0.2,0.1C16.6,49.7,16.5,49.9,16.4,50.2L16.4,50.2z M15.9,50.7l-0.2-0.1c0.1-0.2,0.2-0.3,0.3-0.5l0.2,0.1
	C16.1,50.4,16,50.5,15.9,50.7L15.9,50.7z M16.6,51.5l-0.7-0.6l0.6-0.7l0.7,0.6L16.6,51.5z M16.4,48.6h-0.3c0-0.3,0-0.7,0-1l0.3-0.1
	C16.4,47.8,16.4,48.2,16.4,48.6L16.4,48.6z M16.6,51.2l0.3-0.3l-0.3-0.3l-0.3,0.3L16.6,51.2z M17.3,51.4c-0.2,0.2-0.3,0.3-0.5,0.4
	l-0.1-0.2c0.2-0.1,0.4-0.3,0.5-0.4L17.3,51.4z M17.3,50.6L16.7,50l0.2-0.2l0.7,0.6L17.3,50.6z M17.6,50.3L17,49.6l0.2-0.2l0.7,0.6
	L17.6,50.3z M17.2,52.1L17,52c0.1-0.2,0.3-0.3,0.4-0.5l0.2,0.1C17.5,51.8,17.3,51.9,17.2,52.1L17.2,52.1z M18.1,50l-0.9-0.8l0.2-0.2
	l0.4,0.3c0.1-0.1,0.1-0.2,0.1-0.3l0.2,0.1c0,0.1-0.1,0.3-0.2,0.4l0.3,0.3L18.1,50z M18.1,51.8l-0.2-0.1c0-0.1,0.1-0.1,0.1-0.2
	L17.2,51l0.1-0.2c0.3,0,0.6-0.1,0.9-0.1l-0.4-0.3l0.1-0.2c0.4-0.1,0.7-0.2,1.1-0.3l0.1,0.2c-0.3,0.1-0.6,0.2-0.9,0.2
	c0.1,0.1,0.2,0.2,0.4,0.2l0.3-0.1l0.1,0.2c-0.4,0.1-0.8,0.2-1.2,0.3c0.1,0.1,0.2,0.2,0.4,0.2l0.1-0.2l0.2,0.1
	C18.3,51.3,18.2,51.5,18.1,51.8L18.1,51.8z M17.5,52.4l-0.2-0.1c0.1-0.3,0.2-0.5,0.3-0.6l0.2,0.1C17.8,52,17.7,52.2,17.5,52.4
	L17.5,52.4z"/>
<path class="st0" d="M20.9,56.6c-0.1,0.1-0.1,0.2-0.2,0.2c-0.1,0-0.2,0-0.5-0.1l-0.2-0.2l0.1-0.3l0.4,0.2c0.1,0.1,0.2,0.1,0.3,0
	c0,0,0,0,0,0l0.8-1.4l-2.9-1.7l-1.1,1.9l-0.2-0.1l1.2-2.1l3.4,1.9L20.9,56.6z M20.2,56.1l-1.8-1l0.6-1l1.8,1L20.2,56.1z M20.1,55.7
	l0.3-0.5L19,54.4l-0.3,0.5L20.1,55.7z M21.6,54.3l-2.5-1.4l0.6-1l2.5,1.4L21.6,54.3z M23,53.3l-3.8-2.1l0.1-0.2l1.8,1
	c0.1-0.2,0.1-0.3,0.1-0.5h0.3c0,0.2-0.1,0.4-0.1,0.6l1.8,1L23,53.3z M21.5,53.8l0.3-0.5l-2-1.2l-0.3,0.5L21.5,53.8z"/>
<path class="st0" d="M26.8,57.6L26,57.3l-0.3,0.9c-0.1,0.2-0.2,0.4-0.3,0.4c-0.2,0-0.4,0-0.5-0.1c-0.1,0-0.2-0.1-0.4-0.1v-0.3
	l0.5,0.2l0.3,0.1c0.1,0,0.1,0,0.1-0.2l0.3-0.9l-3.1-1l0.1-0.3l3.1,1l0.2-0.5l-2.7-0.8l0.1-0.3l1.6,0.5l0.2-0.5l-1.8-0.6l0.1-0.3
	l1.8,0.6l0.1-0.4l0.3,0.1l-0.1,0.4l1.8,0.5l-0.1,0.3l-1.8-0.5l-0.2,0.5l1.6,0.5l-0.1,0.3l-0.5-0.1L26,57l0.9,0.3L26.8,57.6z
	 M25.5,54.1l-1.4-0.4c-0.2,0.2-0.4,0.3-0.7,0.5l-0.1-0.3c0.5-0.2,0.9-0.6,1.2-1l0.2,0.2c-0.1,0.1-0.2,0.3-0.4,0.4l1.2,0.4L25.5,54.1
	z M24.1,57.8L23.9,58c-0.1-0.4-0.3-0.7-0.5-1l0.3-0.1C23.9,57.1,24,57.5,24.1,57.8z M24.7,54.6h-0.3c0-0.2-0.1-0.4-0.2-0.5h0.3
	C24.6,54.2,24.7,54.4,24.7,54.6z M27.6,54.8l-1.6-0.5c-0.1,0.1-0.3,0.2-0.4,0.3l-0.1-0.2c0.4-0.2,0.7-0.5,0.9-0.8l0.2,0.2
	c-0.1,0.1-0.2,0.3-0.3,0.4l1.4,0.4L27.6,54.8z M26.8,55.2l-0.3,0.1c0-0.2-0.1-0.4-0.2-0.5l0.3-0.1C26.7,54.8,26.8,55,26.8,55.2z"/>
<path class="st0" d="M28.9,57.3c-0.3,0.7-0.7,1.3-1.1,1.9L27.6,59c0.4-0.6,0.8-1.2,1.1-1.9L28.9,57.3z M29,56.4l-0.2,0.2
	c-0.2-0.3-0.5-0.6-0.8-0.8l0.2-0.2C28.5,55.8,28.8,56.1,29,56.4L29,56.4z M29.2,54.9L29,55.1c-0.2-0.3-0.5-0.6-0.8-0.8l0.2-0.2
	C28.8,54.3,29,54.6,29.2,54.9z M32.4,57.1L30.8,57c-0.4,0.7-0.8,1.3-1.3,1.9c0.7,0,1.4-0.1,2.1-0.2c-0.1-0.3-0.3-0.7-0.5-1l0.2-0.1
	c0.3,0.6,0.6,1.3,0.8,1.9l-0.2,0.2c-0.1-0.2-0.1-0.5-0.2-0.7c-0.9,0.1-1.7,0.2-2.6,0.2L29,58.9c0.3-0.2,0.5-0.4,0.7-0.7
	c0.3-0.4,0.5-0.8,0.8-1.3l-1.3-0.1v-0.3l1.5,0.1l0.1-1.2l-1.2-0.1v-0.3l1.2,0.1l0.1-0.9h0.3L31,55.2l1.2,0.1v0.3L31,55.5l0,1.2
	l1.4,0.1L32.4,57.1z"/>
<path class="st0" d="M34.1,56.2c0.3,0.4,0.5,0.8,0.6,1.3c0,0.2,0,0.3-0.1,0.5c-0.1,0.1-0.2,0.2-0.5,0.2h-0.2l-0.1-0.3H34
	c0.1,0,0.2,0,0.3-0.1c0-0.1,0-0.2,0-0.2c-0.1-0.5-0.3-0.9-0.6-1.3c0.1-0.4,0.2-0.9,0.2-1.5l-0.8,0.1l0.5,4.8h-0.3L33,54.5l1.3-0.1
	v0.3C34.3,55.2,34.2,55.7,34.1,56.2z M37.4,55.8h-0.3l-0.1-0.9l-2.2,0.2L35,56h-0.3l-0.1-1.2l1.2-0.1c-0.1-0.2-0.1-0.4-0.2-0.5
	l0.3-0.1c0.1,0.2,0.2,0.4,0.2,0.6l1.2-0.1L37.4,55.8z M37.7,58c0,0.2,0,0.5,0,0.7c0,0.1-0.1,0.2-0.2,0.3c-0.1,0.1-0.3,0.1-0.5,0.1
	c-0.3,0-0.5-0.1-0.5-0.3L36.4,57l-0.6,0.1c0.1,0.5,0,1-0.2,1.5c-0.2,0.4-0.5,0.7-0.8,0.9l-0.2-0.2c0.3-0.2,0.6-0.5,0.8-0.8
	c0.2-0.4,0.2-0.9,0.2-1.3l-0.8,0.1v-0.3l2.7-0.3v0.3L36.7,57l0.2,1.8c0,0,0,0.1,0,0.1c0,0,0.1,0,0.2,0c0.1,0,0.2,0,0.2,0
	c0,0,0.1,0,0.1-0.1c0-0.1,0-0.2,0-0.3c0-0.2,0-0.3,0-0.5L37.7,58z M36.9,56l-1.8,0.2v-0.3l1.7-0.2L36.9,56z"/>
<path class="st0" d="M42,53.4l-4.1,1.3l-0.1-0.3l2-0.6c-0.1-0.2-0.2-0.3-0.3-0.4l0.2-0.2c0.1,0.2,0.2,0.3,0.3,0.5l1.9-0.6L42,53.4z
	 M43,57.2c0,0.1,0,0.2,0,0.3c0,0.1-0.2,0.2-0.4,0.3l-0.3,0.1l-0.2-0.3l0.4-0.1c0.1,0,0.2-0.1,0.2-0.2c0,0,0,0,0-0.1l-0.5-1.6l-3.2,1
	l0.7,2.1l-0.2,0.1l-0.8-2.4l3.7-1.2L43,57.2z M41.8,55.1L39,56l-0.3-1.1l2.7-0.9L41.8,55.1z M41.4,54.9l-0.2-0.5L39,55.1l0.2,0.5
	L41.4,54.9z M42,57.4L40,58l-0.3-1.1l2-0.6L42,57.4z M41.7,57.2l-0.2-0.6L40,57.1l0.2,0.6L41.7,57.2z"/>
<path class="st0" d="M44.3,52.5L43.5,53c0.4,0.9,0.6,1.9,0.6,2.9l-0.3-0.1c0-0.9-0.2-1.8-0.5-2.7l-0.7,0.4l-0.1-0.2l0.7-0.4
	c-0.1-0.3-0.2-0.6-0.4-0.8l0.3-0.1c0.1,0.3,0.2,0.5,0.3,0.8l0.8-0.5L44.3,52.5z M46.3,55.8L46.2,56l-0.3-0.4c-0.3,0.4-0.7,0.7-1,1.1
	l-0.2-0.2c0-1-0.1-2-0.5-2.9h0.3c0.2,0.8,0.4,1.7,0.5,2.5c0.3-0.2,0.5-0.5,0.7-0.7c-0.2-0.2-0.4-0.4-0.7-0.6l0.1-0.2
	C45.5,55,45.9,55.4,46.3,55.8L46.3,55.8z M48.3,54.5l-1.7,1l0.2,0.3l-0.2,0.1l-1.8-3c0,0.2,0,0.5,0,0.8l-0.3-0.1
	c0.1-0.8,0-1.6-0.2-2.3l0.3-0.1c0.1,0.4,0.2,0.7,0.2,1.1l0.8-0.5c-0.2-0.3-0.4-0.5-0.6-0.7l0.2-0.2c0.3,0.2,0.5,0.5,0.7,0.8l0.5-0.3
	l0.2,0.3L45.8,52l0.4,0.7l0.6-0.3l0.2,0.3L46.4,53l0.4,0.8l0.6-0.3l0.2,0.3L47,54l0.5,0.8l0.7-0.4L48.3,54.5z M46,52.8L45.5,52
	l-0.7,0.4l0.4,0.7L46,52.8z M46.6,53.8L46.1,53l-0.7,0.4l0.5,0.8L46.6,53.8z M47.2,54.8L46.7,54L46,54.4l0.5,0.8L47.2,54.8z"/>
<path class="st0" d="M47.4,49c0.4,0.9,0.6,2,0.4,3l-0.3-0.1c0.1-0.9,0-1.9-0.4-2.8L47.4,49z M50.9,48.8v0.3c-0.9,0-1.8-0.2-2.5-0.7
	L48,48.7l-0.2-0.2l0.4-0.4C49,48.6,49.9,48.9,50.9,48.8L50.9,48.8z M50.2,49.3c0.4,0.5,0.8,0.9,1.1,1.3c0.2,0.3,0.4,0.5,0.5,0.8
	c0,0.1,0,0.2,0,0.3c-0.1,0.2-0.2,0.3-0.3,0.4l-0.3,0.3l-0.3-0.2c0.1-0.1,0.3-0.2,0.4-0.3c0.1-0.1,0.1-0.1,0.2-0.2c0,0,0-0.1,0-0.2
	c0-0.1-0.1-0.3-0.2-0.4c-0.1-0.2-0.3-0.4-0.5-0.7s-0.4-0.5-0.7-0.8l-1,0.9c0.7,0.9,0.9,2.1,0.6,3.2l-0.3-0.1c0.3-1,0.1-2.1-0.5-2.9
	l-0.7,0.7L48,51.3L50.2,49.3z"/>
<path class="st0" d="M51.6,47.2c0.5,0,1,0.2,1.4,0.5c0.1,0.1,0.2,0.2,0.3,0.4c0,0.2,0,0.4-0.2,0.5c0,0.1-0.1,0.1-0.1,0.2l-0.3-0.1
	l0.2-0.2c0.1-0.1,0.1-0.2,0.1-0.3c0-0.1-0.1-0.1-0.1-0.2c-0.4-0.3-0.9-0.4-1.3-0.5c-0.2-0.3-0.6-0.7-0.9-1.2L50,46.9l3.8,2.9
	L53.7,50l-4.1-3.1l0.8-1l0.2,0.2C51,46.4,51.3,46.8,51.6,47.2z M53.6,44.5l-0.2,0.2l-0.7-0.5L51.3,46l0.7,0.5l-0.2,0.2l-1-0.7l0.7-1
	c-0.2-0.1-0.4-0.1-0.5-0.2l0.1-0.3c0.2,0.1,0.4,0.1,0.6,0.2l0.7-1L53.6,44.5z M53.4,45l-1.1,1.4l-0.2-0.2l1.1-1.4L53.4,45z
	 M55.4,45.8c0.2,0.1,0.4,0.3,0.5,0.5c0.1,0.1,0.1,0.2,0.2,0.3c0,0.2-0.1,0.3-0.2,0.5c-0.2,0.2-0.4,0.3-0.6,0.1l-1.5-1.1l-0.3,0.5
	c0.4,0.3,0.8,0.7,1,1.2c0.1,0.4,0.2,0.8,0.1,1.2h-0.3c0.1-0.4,0.1-0.8,0-1.1c-0.2-0.4-0.5-0.8-0.8-1l-0.5,0.6l-0.2-0.2l1.7-2.2
	l0.2,0.2l-0.5,0.7l1.3,1.1c0,0,0.1,0,0.1,0c0,0,0.1,0,0.2-0.2c0.1-0.1,0.1-0.1,0.1-0.2c0,0,0-0.1,0-0.1c-0.1-0.1-0.1-0.2-0.2-0.2
	c-0.1-0.1-0.3-0.2-0.4-0.3L55.4,45.8z"/>
<path class="st3" d="M9.8,37.8l0.1,0.4l-3.5,1l0.2,0.6L6,39.9l-0.4-1.5l0.6-0.2l0.2,0.6L9.8,37.8z"/>
<path class="st3" d="M8.6,36.6l1,0.1l0.1,0.5l-4.5-0.2l-0.1-0.4l4.1-1.8l0.1,0.5l-0.9,0.4L8.6,36.6z M6.2,36.6H8l-0.2-0.8L6.2,36.6z
	"/>
<path class="st3" d="M9.1,34l0.1,0.5L5,34.9v-0.5L9.1,34z"/>
<path class="st3" d="M7.9,32.7l-3.2-0.5v-0.2l3.2-0.7l-3.2-0.5v-0.5l4.3,0.8v0.4L6.2,32l2.9,0.5v0.3l-4.3,0.9v-0.5L7.9,32.7z"/>
<path class="st3" d="M8.1,29.3L9,29.7v0.5l-4.3-1.5v-0.4l4.4-0.5l-0.1,0.5l-1,0.1L8.1,29.3z M5.8,28.6l1.8,0.6l0.1-0.8L5.8,28.6z"/>
<path class="st3" d="M5,26.5l0.1-0.3l3.4-0.8l-3-0.7l0.1-0.4l4.2,1l-0.1,0.3l-3.4,0.8l3,0.7l-0.1,0.4L5,26.5z"/>
<path class="st3" d="M8.7,20.8l-1.6-0.7l0.2-0.4l3.9,1.6L11,21.8L9.2,21l-0.4,1l1.8,0.8l-0.2,0.4l-3.9-1.6l0.2-0.4l1.6,0.7L8.7,20.8
	z"/>
<path class="st3" d="M11.6,20.6L11.4,21l-3.8-1.9l0.2-0.4L11.6,20.6z"/>
<path class="st3" d="M11.1,16.9L11.1,16.9c0.6,0.3,1,0.7,1.3,1.2c0.2,0.3,0.3,0.7,0.1,1.1c-0.2,0.3-0.6,0.5-1,0.4
	c-0.5,0-1.1-0.2-1.5-0.5c-0.5-0.3-0.9-0.7-1.2-1.1c-0.2-0.3-0.3-0.8-0.1-1.1c0.3-0.4,0.7-0.5,1.4-0.4l0.1,0.5
	c-0.5-0.1-0.8-0.1-1,0.2c-0.1,0.3-0.1,0.6,0.1,0.8c0.2,0.3,0.5,0.6,0.9,0.8c0.3,0.2,0.7,0.3,1.1,0.4c0.3,0.1,0.5,0,0.7-0.3
	c0.1-0.2,0.1-0.4,0-0.6c-0.1-0.2-0.4-0.4-0.6-0.6L11,18.2l-0.5-0.3L11.1,16.9z"/>
<path class="st3" d="M12.2,15l-1.4-1l0.3-0.4l3.4,2.6l-0.3,0.4l-1.5-1.2L12,16.3l1.6,1.2l-0.3,0.4l-3.4-2.6l0.3-0.4l1.4,1.1L12.2,15
	z"/>
<path class="st3" d="M15,11.1c-0.2-0.1-0.5-0.1-0.7,0.1c-0.2,0.2-0.2,0.5-0.1,0.8c0.1,0.4,0.3,0.7,0.6,1c0.2,0.3,0.6,0.5,0.9,0.6
	c0.2,0.1,0.5,0.1,0.8-0.1c0.2-0.2,0.2-0.5,0.1-0.7l0.6,0.6c0,0.2-0.1,0.4-0.3,0.6c-0.3,0.3-0.7,0.3-1.1,0.2c-0.5-0.2-1-0.5-1.3-0.9
	c-0.4-0.4-0.7-0.9-0.8-1.4c-0.1-0.4-0.1-0.8,0.2-1.1c0.2-0.1,0.4-0.2,0.6-0.2L15,11.1z"/>
<path class="st3" d="M16.2,11.6c-0.3-0.4-0.6-0.9-0.6-1.5c-0.1-0.5,0.2-1.1,0.7-1.2c0.3-0.1,0.5,0,0.8,0.1c0.5,0.2,0.9,0.6,1.2,1
	c0.3,0.4,0.6,0.9,0.6,1.5c0.2,0.5-0.1,1.1-0.6,1.3c-0.3,0.1-0.6,0.1-0.9-0.1C16.9,12.4,16.5,12,16.2,11.6z M16.5,11.3
	c0.2,0.3,0.5,0.6,0.9,0.7c0.2,0.2,0.5,0.2,0.8,0c0.2-0.2,0.3-0.5,0.2-0.7c-0.1-0.4-0.2-0.7-0.5-1c-0.2-0.3-0.5-0.5-0.8-0.7
	c-0.3-0.2-0.7-0.1-0.9,0.2c-0.1,0.2-0.1,0.4-0.1,0.5C16.1,10.7,16.3,11,16.5,11.3z"/>
<path class="st3" d="M17.7,7.9l0.4-0.2l1.2,2c0.5,0.8,0.9,1.1,1.2,0.9s0.2-0.7-0.2-1.5l-1.2-2l0.4-0.2l1.3,2.2
	c0.6,1,0.6,1.7,0.1,2.1c-0.6,0.3-1.2,0-1.8-1.1L17.7,7.9z"/>
<path class="st3" d="M23.6,9.6l-0.5,0.2l-1.5-1.4l0.8,1.7L22,10.3l-1.8-3.9l0.6-0.3c0.5-0.2,1,0,1.4,0.8c0.1,0.2,0.2,0.5,0.2,0.8
	c0,0.2-0.1,0.4-0.2,0.5L23.6,9.6z M21.5,8.2l0.1-0.1c0.3-0.2,0.4-0.5,0.2-0.9s-0.5-0.6-0.8-0.4l-0.1,0.1L21.5,8.2z"/>
<path class="st3" d="M24.6,9.2l-0.4,0.1L23,5.9l-0.6,0.2l-0.2-0.6L23.7,5l0.2,0.6l-0.6,0.2L24.6,9.2z"/>
<path class="st3" d="M27.4,4L28,3.9l-0.6,2.1l1.5,2l-0.6,0.1l-1.4-1.9l0.4,2.1l-0.5,0.1L26,4.3l0.4-0.1l0.4,1.9L27.4,4z"/>
<path class="st3" d="M29.5,7.1l-0.1,1l-0.5,0.1l0.6-4.4h0.4l1.5,4.2l-0.5,0.1L30.6,7L29.5,7.1z M29.8,4.6l-0.2,1.8l0.8-0.1L29.8,4.6
	z"/>
<path class="st3" d="M31.6,5.7c0-0.6,0.2-1.1,0.4-1.6c0.2-0.4,0.6-0.6,1-0.6c0.4,0,0.8,0.3,0.9,0.7c0.3,0.5,0.4,1,0.3,1.6
	c0,0.5-0.1,1.1-0.4,1.6c-0.2,0.4-0.6,0.6-1,0.6c-0.4,0-0.8-0.3-0.9-0.7C31.7,6.8,31.5,6.2,31.6,5.7z M32,5.7c0,0.4,0.1,0.8,0.2,1.1
	c0.2,0.3,0.4,0.5,0.6,0.5c0.3,0,0.5-0.2,0.6-0.4c0.2-0.3,0.3-0.7,0.2-1.1c0-0.4-0.1-0.7-0.2-1.1c-0.1-0.2-0.3-0.4-0.6-0.4
	c-0.3,0-0.5,0.2-0.6,0.4C32.1,4.9,32,5.3,32,5.7L32,5.7z"/>
<path class="st3" d="M36.4,5.5l0.2-1.7H37l-0.5,4.3L36,8l0.2-1.9L35.2,6L35,7.9h-0.5L35,3.6h0.5l-0.2,1.7L36.4,5.5z"/>
<path class="st3" d="M39,5.2c-0.1-0.3-0.2-0.4-0.3-0.5c-0.1,0-0.2,0-0.3,0.1c-0.1,0.1-0.2,0.3-0.2,0.4c0,0.3,0.1,0.5,0.3,0.7
	l0.3,0.5c0.1,0.3,0.2,0.6,0.1,0.9c-0.1,0.4-0.2,0.7-0.5,1c-0.2,0.2-0.4,0.3-0.7,0.3c-0.3-0.1-0.5-0.4-0.6-1l0.4-0.4
	c0,0.2,0,0.3,0.1,0.5c0,0.1,0.1,0.2,0.3,0.3c0.1,0,0.3,0,0.3-0.1c0.1-0.1,0.2-0.3,0.2-0.5c0-0.1,0-0.3,0-0.4
	c-0.1-0.2-0.3-0.4-0.5-0.6c-0.2-0.3-0.3-0.6-0.3-1c0-0.3,0.1-0.6,0.3-0.9c0.1-0.2,0.4-0.3,0.6-0.2c0.3,0.1,0.5,0.3,0.6,0.6L39,5.2z"
	/>
<path class="st3" d="M39.3,8.8l-0.4-0.1L40,4.5l0.4,0.1L39.3,8.8z"/>
<path class="st3" d="M41.2,4.9L41.6,5l-0.8,2.2c-0.3,0.9-0.3,1.4,0,1.5s0.7-0.2,1-1.1l0.8-2.2l0.4,0.2l-0.9,2.4
	c-0.4,1.1-0.9,1.6-1.5,1.4s-0.7-0.9-0.3-2.1L41.2,4.9z"/>
<path class="st3" d="M44,5.8L44.3,6l-0.1,3.5l1.4-2.8L46,6.9l-1.9,3.9l-0.3-0.1l0-3.5l-1.4,2.8l-0.4-0.2L44,5.8z"/>
<path class="st3" d="M47.8,10.4L47.8,10.4c-0.3,0.6-0.7,1-1.2,1.3c-0.3,0.2-0.8,0.2-1.1,0c-0.3-0.2-0.5-0.6-0.4-1
	c0.1-0.5,0.2-1.1,0.6-1.5c0.3-0.5,0.7-0.9,1.2-1.2c0.4-0.2,0.8-0.2,1.1,0c0.4,0.3,0.5,0.8,0.3,1.4l-0.5,0.1c0.2-0.5,0.1-0.8-0.2-1
	c-0.2-0.1-0.5-0.1-0.8,0.1c-0.3,0.2-0.6,0.5-0.8,0.8c-0.2,0.3-0.4,0.7-0.4,1.1c-0.1,0.3,0,0.5,0.2,0.7c0.2,0.1,0.4,0.1,0.6,0
	c0.2-0.1,0.5-0.3,0.6-0.6l-0.5-0.4l0.3-0.5L47.8,10.4z"/>
<path class="st3" d="M50.9,10.3l0.5,0.4c0.4,0.4,0.3,0.8-0.2,1.4c-0.2,0.2-0.4,0.4-0.7,0.4c0.1,0.2,0.1,0.3,0,0.5
	c-0.1,0.2-0.2,0.4-0.4,0.6c-0.2,0.3-0.5,0.4-0.8,0.5c-0.2,0-0.5,0-0.7-0.2L48,13.5L50.9,10.3z M48.7,13.3l0.2,0.2
	c0.2,0.2,0.5,0.2,0.8-0.2s0.3-0.6,0-0.8l-0.2-0.2L48.7,13.3z M50,12l0.2,0.1c0.2,0.2,0.4,0.1,0.7-0.2s0.4-0.6,0.2-0.7L50.8,11L50,12
	z"/>
<path class="st3" d="M50.7,16.2l-0.4-0.4l0.9-1.8l-1.4,1.3l-0.3-0.3l3.1-2.9l0.5,0.5c0.4,0.4,0.3,0.9-0.3,1.5
	c-0.2,0.2-0.4,0.3-0.7,0.4c-0.2,0.1-0.4,0.1-0.6-0.1L50.7,16.2z M51.4,13.7l0.1,0.1c0.3,0.3,0.6,0.2,0.9-0.1s0.4-0.6,0.2-0.9
	l-0.1-0.1L51.4,13.7z"/>
<path class="st3" d="M52,16.2l-0.9,0.4l-0.3-0.4l4.1-1.8l0.2,0.3l-2.9,3.4L52,17.8l0.6-0.8L52,16.2z M54.2,15.2L52.5,16l0.5,0.6
	L54.2,15.2z"/>
<path class="st3" d="M56.1,16.1l0.2,0.3l-2,2.9l2.7-1.6l0.2,0.4l-3.7,2.2l-0.2-0.3l2-2.9l-2.7,1.6l-0.2-0.4L56.1,16.1z"/>
<path class="st3" d="M57.5,21.1c0.2-0.2,0.3-0.5,0.2-0.7C57.5,20.1,57.3,20,57,20c-0.4,0-0.8,0.1-1.1,0.2c-0.3,0.2-0.6,0.4-0.9,0.7
	c-0.2,0.2-0.3,0.5-0.2,0.8c0.1,0.2,0.4,0.4,0.7,0.4l-0.8,0.4c-0.2-0.1-0.4-0.3-0.5-0.5c-0.2-0.4-0.1-0.8,0.2-1.1
	c0.3-0.4,0.8-0.8,1.2-1c0.5-0.2,1.1-0.4,1.6-0.3c0.4,0,0.8,0.2,1,0.6c0.1,0.2,0.1,0.4,0,0.6L57.5,21.1z"/>
<path class="st3" d="M57.6,23.5l1.6-0.5l0.2,0.4l-4,1.4l-0.2-0.4l1.8-0.6l-0.3-1l-1.8,0.6l-0.2-0.4l4-1.4l0.2,0.4l-1.6,0.6
	L57.6,23.5z"/>
<path class="st3" d="M59.3,27.9c0.2-0.1,0.4-0.4,0.3-0.6c0-0.2-0.2-0.4-0.6-0.5c-0.4-0.1-0.7-0.1-1.1-0.1c-0.4,0.1-0.7,0.2-1,0.4
	c-0.2,0.1-0.4,0.4-0.4,0.7c0,0.2,0.2,0.4,0.5,0.5l-0.9,0.1c-0.2-0.1-0.3-0.3-0.3-0.5c0-0.4,0.2-0.8,0.5-1c0.4-0.3,0.9-0.6,1.5-0.6
	c0.6-0.1,1.1-0.1,1.7,0.1c0.4,0.1,0.7,0.4,0.8,0.8c0,0.2,0,0.4-0.2,0.6L59.3,27.9z"/>
<path class="st3" d="M58.3,28.6c0.6,0,1.1,0,1.6,0.3c0.4,0.1,0.7,0.5,0.7,0.9c0,0.4-0.2,0.8-0.6,1c-0.5,0.3-1,0.5-1.6,0.5
	c-0.5,0-1.1-0.1-1.6-0.3c-0.5-0.1-0.9-0.7-0.7-1.2c0.1-0.3,0.3-0.6,0.6-0.7C57.2,28.8,57.7,28.7,58.3,28.6z M58.4,29.1
	c-0.4,0-0.7,0.1-1.1,0.3c-0.3,0.2-0.5,0.4-0.4,0.6c0,0.3,0.2,0.5,0.5,0.6c0.4,0.1,0.7,0.2,1.1,0.2c0.4,0,0.7-0.1,1-0.3
	c0.2-0.1,0.4-0.4,0.4-0.6c0-0.3-0.2-0.5-0.5-0.6C59.1,29.1,58.7,29.1,58.4,29.1z"/>
<path class="st3" d="M60.6,32v0.5l-2.4-0.1c-0.9,0-1.4,0.1-1.4,0.5s0.4,0.6,1.3,0.6l2.4,0.1V34L58,33.8c-1.2-0.1-1.8-0.4-1.8-1.1
	s0.7-1,1.9-0.9L60.6,32z"/>
<path class="st3" d="M55.9,36l0.1-0.6l2-0.5l-1.9-0.3l0.1-0.5l4.2,0.6l-0.1,0.7c-0.1,0.6-0.6,0.8-1.4,0.7c-0.3,0-0.5-0.1-0.8-0.3
	c-0.2-0.1-0.3-0.3-0.3-0.5L55.9,36z M58.2,35v0.1c0,0.4,0.2,0.6,0.7,0.7s0.8-0.1,0.8-0.4v-0.1L58.2,35z"/>
<path class="st3" d="M55.6,37l0.1-0.4l3.5,0.8l0.1-0.6L60,37l-0.4,1.5L59,38.4l0.1-0.6L55.6,37z"/>
</svg>
