<?xml version="1.0" encoding="utf-8"?>
<!-- Generator: Adobe Illustrator 27.8.1, SVG Export Plug-In . SVG Version: 6.00 Build 0)  -->
<svg version="1.1" id="圖層_1" xmlns="http://www.w3.org/2000/svg" xmlns:xlink="http://www.w3.org/1999/xlink" x="0px" y="0px"
	 viewBox="0 0 270.8 64" style="enable-background:new 0 0 270.8 64;" xml:space="preserve">
<style type="text/css">
	.st0{fill:#FFFFFF;}
	.st1{fill:url(#SVGID_1_);}
	.st2{fill:#005BAB;}
	.st3{fill:#B7A246;}
</style>
<path class="st0" d="M88,15.2v1.5h-7.9v1h6.3V19H72.1v-1.3h6.2v-1h-7.7v-1.5h7.7v-1.4h1.9v1.4H88z M80.1,33.8H88v1.6H70.6v-1.6h7.7
	v-1h-5.7v-1.4h5.7v-1c-3.7,0.1-4.2,0.2-4.7,0.3c-0.1-0.5-0.3-1-0.4-1.5c0.4-0.1,0.7-0.2,1.1-0.3c0.6-0.2,1.2-0.5,1.7-0.9h-3.1v-1.3
	h12.6V28h-1.9c0.9,0.6,1.8,1.4,2.6,2.1l-1.1,1.1c-0.3-0.4-0.6-0.7-1-1l-4,0.1v1h6v1.4h-6L80.1,33.8z M70.8,24.3h16.9v3.5h-1.8v-2
	H72.5v2h-1.7V24.3z M85.7,19.9v3.5H72.9v-3.5H85.7z M83.9,21.1h-9.3v1.1h9.3V21.1z M78.1,28c-0.6,0.4-1.2,0.8-1.8,1.2l6.3-0.2
	c-0.4-0.3-0.9-0.6-1.3-0.9l0.2-0.1L78.1,28z"/>
<path class="st0" d="M92.9,24.5c-0.8-1-1.8-1.8-2.9-2.5l1-1.5c1.1,0.6,2.1,1.4,3,2.3L92.9,24.5z M90.4,34.5c0.7-1.8,1.8-4.9,2.5-7.6
	l1.5,1.1c-0.6,2.5-1.5,5.3-2.3,7.6L90.4,34.5z M93.2,18.3c-0.8-1-1.7-1.9-2.8-2.7l1.1-1.5c1.1,0.7,2,1.5,2.8,2.4L93.2,18.3z
	 M95.5,22.9c-0.1,1.1-0.4,2.2-0.8,3.2c-0.3-0.3-0.5-0.5-0.9-0.7c0.4-0.9,0.6-1.9,0.7-2.8L95.5,22.9z M98.1,21.9
	c-0.1-0.2-0.1-0.5-0.2-0.7c-2.6,0.4-3.1,0.5-3.4,0.7c-0.1-0.3-0.2-0.7-0.4-1c0.3,0,0.6-0.4,0.9-0.8c0.4-0.5,0.8-1.1,1.1-1.7
	c-0.6,0-1.2,0.1-1.7,0.3c-0.1-0.3-0.2-0.7-0.4-1c0.2,0,0.4-0.3,0.7-0.6c0.5-1,0.9-2,1.2-3l1.1,0.5c-0.4,1-0.8,1.9-1.3,2.7l1.2-0.1
	c0.2-0.4,0.4-0.7,0.5-1.1l1.1,0.5c-0.6,1.3-1.4,2.5-2.3,3.7l1.5-0.2c-0.1-0.2-0.2-0.5-0.3-0.7l0.8-0.4c0.4,0.8,0.7,1.6,0.9,2.4
	L98.1,21.9z M107.6,31c0,0.3-0.1,0.6-0.1,0.8c-0.3,2-0.7,3-1.3,3.5c-0.5,0.4-1.1,0.6-1.7,0.5c-0.6,0-1.8,0-3.1-0.1
	c0-0.6-0.2-1.2-0.5-1.7c1,0.1,2,0.2,3,0.2c0.4,0,0.6,0,0.9-0.2c0.4-0.5,0.6-1.1,0.7-1.7H95.3c0.3-1.1,0.6-2.5,0.9-3.8h8.8v-1h-9.5
	v-1.4h11.2V30h-9l-0.2,1H107.6z M96.3,25.7c0-1-0.2-1.9-0.4-2.9l0.9-0.3c0.3,0.9,0.4,1.8,0.5,2.8L96.3,25.7z M98,25.1
	c-0.1-0.9-0.3-1.8-0.6-2.6l0.8-0.3c0.3,0.8,0.5,1.6,0.7,2.5L98,25.1z M103.5,17.5h-4.8v-1.2h2c-0.2-0.6-0.4-1.2-0.7-1.8l1.2-0.3
	c0.3,0.6,0.6,1.2,0.8,1.9l-0.9,0.3h2.3L103.5,17.5z M99.3,22h3.8v3.5h-3.8V22z M103,19.4h-3.7v-1.1h3.7V19.4z M99.3,20h3.7v1.1h-3.7
	V20z M100.4,24.3h1.4V23h-1.4V24.3z M104.9,22.7c-0.2,1.1-0.5,2.2-0.9,3.3c-0.3-0.3-0.6-0.5-0.9-0.7c0.4-0.9,0.6-1.8,0.7-2.8
	L104.9,22.7z M107.5,21.9c-0.1-0.2-0.1-0.5-0.2-0.8c-1.2,0.1-2.3,0.3-3.4,0.7c-0.1-0.2-0.3-0.8-0.4-1c0.3,0,0.6-0.3,0.9-0.8
	c0.4-0.5,0.8-1.1,1.1-1.7c-0.6,0-1.2,0.1-1.7,0.3c-0.1-0.3-0.2-0.7-0.4-1c0.2,0,0.4-0.3,0.6-0.6c0.5-0.9,0.9-2,1.2-3l1.1,0.4
	c-0.3,0.9-0.8,1.8-1.3,2.7l1.1-0.1c0.2-0.4,0.3-0.7,0.5-1.1l1.1,0.5c-0.6,1.3-1.4,2.5-2.3,3.7l1.5-0.2l-0.3-0.7l0.8-0.4
	c0.4,0.8,0.8,1.7,1,2.5L107.5,21.9z M105.6,25.9c0-1-0.2-2.1-0.4-3.1l0.9-0.3c0.2,1,0.4,2,0.5,3L105.6,25.9z M107.5,22.1
	c0.4,1,0.7,2,0.8,3l-0.9,0.5c-0.1-1-0.4-2.1-0.8-3.1L107.5,22.1z"/>
<path class="st0" d="M128,16.3v1.9h-17.4v-1.9h8c-0.2-0.6-0.4-1.4-0.6-2l1.9-0.5c0.3,0.8,0.6,1.7,0.8,2.5L128,16.3z M127.5,33.7
	c0,1.1-0.2,1.5-0.8,1.8c-0.9,0.3-1.9,0.4-2.9,0.3c-0.1-0.6-0.3-1.1-0.6-1.7c0.8,0,1.8,0,2.1,0s0.4-0.1,0.4-0.4v-6.4H113v8.7h-1.8
	V25.4h16.3V33.7z M125.5,19.3v4.9h-12v-4.9L125.5,19.3z M116.7,33.5v1.1H115v-6.2h8.5v5.1H116.7z M123.5,20.9h-8.2v1.8h8.2V20.9z
	 M116.7,30v1.9h5.1V30H116.7z"/>
<path class="st0" d="M133.4,17.4c-0.5,1-1.2,1.9-1.9,2.8c-0.4-0.5-0.8-1.1-1.3-1.5c1.4-1.4,2.4-3.1,3-4.9l1.7,0.6
	c-0.2,0.4-0.3,0.8-0.5,1.2h4.9v1.9h-3.3c0.6,0.6,1.1,1.2,1.6,1.9l-1.2,1.3c-0.6-0.9-1.3-1.7-2-2.4l0.7-0.7H133.4z M144.3,28.3h3.9
	v1.8h-3.9v3.6c0,1.1-0.2,1.7-1,1.9c-1.2,0.3-2.4,0.3-3.6,0.3c-0.1-0.6-0.3-1.2-0.5-1.8c0.9,0,1.8,0,2.7,0c0.3,0,0.4-0.1,0.4-0.5
	v-3.5h-7.2c1.1,1.1,2.2,2.2,3.2,3.4l-1.4,1.3c-1-1.3-2-2.5-3.2-3.6l1.2-1.1h-4.5v-1.8h11.8v-1.5h1.9L144.3,28.3z M148.5,15.5v1.9h-4
	c0.6,0.6,1.1,1.3,1.6,2.1l-1.3,1.3c-0.5-0.9-1.1-1.8-1.9-2.6l0.8-0.8H142c-0.4,1-1,2-1.6,2.9l-0.1-0.1v0.7h7.2v1.9h-7.2v1.8h6v1.8
	h-14v-1.8h6.1v-1.8h-7.1v-1.9h7.1v-1.3h1.3c-0.2-0.2-0.4-0.4-0.7-0.5c1.2-1.6,2-3.3,2.5-5.3l1.7,0.5c-0.1,0.5-0.2,0.9-0.4,1.3
	L148.5,15.5z"/>
<path class="st0" d="M154,24.8c-1.1-1-2.4-1.9-3.7-2.6l1-1.7c1.3,0.6,2.6,1.5,3.7,2.4L154,24.8z M151,34.1c1.4-2.5,2.7-5,3.8-7.6
	l1.3,1.5c-1,2.5-2.4,5.4-3.5,7.6L151,34.1z M152.5,14.1c1.3,0.7,2.6,1.5,3.8,2.5l-1.1,1.9c-1.1-1.1-2.4-2-3.7-2.7L152.5,14.1z
	 M166.7,35.8c-0.2-0.8-0.5-1.5-0.8-2.3c-7.1,1-8,1.2-8.6,1.6c-0.1-0.5-0.4-1.6-0.6-2.2c0.4-0.1,0.8-0.7,1.3-1.6
	c1-1.8,1.8-3.6,2.5-5.5h-4.1v-2.1h5v-3.9h-4.1v-2.1h4.1v-3.9h1.9v3.9h4.3v2.1h-4.3v3.9h5v2.1h-5.5c-0.9,2.3-2,4.5-3.2,6.6l5.6-0.7
	c-0.5-1-1-1.9-1.6-2.8l1.5-0.9c1.4,2.1,2.6,4.4,3.4,6.8L166.7,35.8z"/>
<path class="st0" d="M177,15.6c-0.6,2-1.3,4.3-1.9,6.2c1.1,1.5,1.6,3.3,1.6,5.1c0.1,1-0.2,2.1-0.8,2.9c-0.3,0.3-0.7,0.4-1.1,0.5
	c-0.4,0-0.9,0-1.3,0c0-0.7-0.2-1.3-0.4-1.9c0.3,0,0.7,0,1,0c0.2,0,0.4-0.1,0.6-0.2c0.3-0.5,0.5-1,0.4-1.6c0-1.7-0.6-3.3-1.6-4.6
	c0.5-1.6,1-3.6,1.4-5.2h-2.2v19H171v-21h4.5l0.3-0.1L177,15.6z M186.7,33.7c0.4,0,0.5-0.4,0.5-3c0.5,0.4,1,0.7,1.6,0.8
	c-0.2,3.2-0.6,4-1.9,4h-1.6c-1.5,0-1.9-0.6-1.9-2.6v-5.6h-1.8c-0.3,4.2-1.3,7-5.1,8.6c-0.3-0.6-0.6-1.2-1.1-1.8
	c3.3-1.3,4.1-3.4,4.3-6.8h-2.6v-2h11.3v2h-3.4v5.6c0,0.7,0.1,0.7,0.4,0.7H186.7z M178.8,21.2h-1.6v-4.4h4.9
	c-0.3-0.8-0.6-1.7-0.9-2.5l1.7-0.6c0.5,1,0.9,2,1.2,3.1h4.4v4.4h-1.6V23h-8.1V21.2z M178.9,18.7V21h7.7v-2.3L178.9,18.7z"/>
<path class="st0" d="M197.2,21.1c-0.5,1.1-1,2.2-1.6,3.2v11.6h-1.8v-8.8c-0.6,0.9-1.3,1.7-2.1,2.4c-0.5-0.5-1-1-1.6-1.5
	c2.3-2.1,4.1-4.7,5.2-7.6L197.2,21.1z M197.2,16.1h2v2.1h-2v2.1h-1.8v-2.1h-4.7v-2.1h4.6v-2.3h1.8L197.2,16.1z M201.9,18.2h-2v-2.1
	h2v-2.3h1.9v2.3h4.5v2.1h-4.5v2.2h-1.9V18.2z M205.9,33.5c0.9,0,1-0.6,1.1-3.6c0.5,0.4,1.1,0.7,1.7,0.9c-0.2,3.7-0.7,4.8-2.7,4.8
	h-3.4c-2.1,0-2.7-0.7-2.7-3.3V20.7h1.8v3.8h6.5v2.1h-6.6v5.7c0,1,0.2,1.2,1.1,1.2H205.9z"/>
<path class="st0" d="M215.7,26.7c-0.4,1.7-1,3.3-1.8,4.9c0.4,0.2,0.8,0.6,1.4,1.1c1.4,1,3.2,1.2,5.6,1.2c2.7,0,5.3-0.2,8-0.6
	c-0.3,0.7-0.4,1.4-0.5,2.2c-1.6,0.1-5.3,0.3-7.6,0.3c-2.6,0-4.4-0.3-5.8-1.3c-0.8-0.6-1.5-1.4-2-1.4s-1.1,1.5-1.8,3l-1.2-1.9
	c0.5-0.9,1.2-1.8,2-2.5c0.7-1.1,1.2-2.4,1.6-3.6H211c0.6-1.1,1.2-2.6,1.8-4.1h-2.1v-1.8h4.6c-0.5,1.3-1.2,2.8-1.8,4.1h0.9l0.3-0.1
	L215.7,26.7z M214.6,17.1h-3.8v-1.8h3.8v-1.4h1.8v1.4h2.7v1.9h-2.7v1.4h-1.8V17.1z M213.3,18.2c0.5,0.9,1,2,1.4,2.7l-1.5,0.9
	c-0.3-0.7-0.9-1.9-1.3-2.8L213.3,18.2z M221,33.2v-1.5h-5.4V30h5.4v-1.1h-4.4v-6.6h4.4v-1.1h-5v-1.6h5v-1.2h1.7v1.2h5.2v1.6h-5.2
	v1.1h4.5v6.6h-4.5V30h5.6v1.6h-5.6v1.5L221,33.2z M218.3,24.9h2.7v-1.3h-2.7L218.3,24.9z M221,27.5v-1.3h-2.7v1.3H221z M222.8,17.1
	H220v-1.8h2.8v-1.4h1.9v1.4h3.8v1.9h-3.8v1.1h-1.9V17.1z M222.7,23.6v1.2h2.7v-1.2H222.7z M225.4,26.2h-2.7v1.3h2.7V26.2z"/>
<path class="st0" d="M243.3,14.3c0.9,3.6,3,7,5.7,8.8c-0.5,0.6-1,1.3-1.4,2c-0.7-0.5-1.3-1.1-1.8-1.7c0,0.1,0,0.3,0,0.4
	c-0.3,7.3-0.5,10.1-1.2,11c-0.4,0.6-1,1-1.6,1c-1,0.1-2.1,0.1-3.1,0c-0.1-0.8-0.3-1.6-0.6-2.3c0.9,0.1,1.9,0.2,2.8,0.2
	c0.3,0,0.6-0.1,0.8-0.3c0.5-0.6,0.7-2.8,0.9-8.4h-4.6c-0.5,4.7-1.8,8.9-7,11.1c-0.3-0.7-0.7-1.4-1.2-2c4.6-1.8,5.7-5.3,6.1-9.1h-3.8
	v-1.6c-0.5,0.7-1,1.3-1.6,1.9c-0.5-0.6-1-1.2-1.6-1.7c2.5-2.4,4.3-5.4,5.1-8.8l1.9,0.6c-0.7,2.7-1.9,5.2-3.4,7.5h11.5
	c-1.5-1.9-2.7-4.1-3.4-6.4h-3.4v-2.1H243.3z"/>
<path class="st0" d="M257.1,15.6c-0.6,2-1.3,4.3-1.9,6.2c1.1,1.5,1.6,3.3,1.6,5.1c0.1,1-0.2,2.1-0.8,2.9c-0.3,0.3-0.7,0.4-1.1,0.5
	c-0.4,0-0.9,0-1.3,0c0-0.7-0.2-1.3-0.4-1.9c0.3,0,0.7,0,1,0c0.2,0,0.4-0.1,0.6-0.2c0.3-0.5,0.5-1,0.4-1.6c0-1.7-0.6-3.3-1.6-4.6
	c0.5-1.6,1-3.6,1.4-5.2h-2.2v19h-1.7v-21h4.5l0.3-0.1L257.1,15.6z M266.9,33.7c0.4,0,0.5-0.4,0.5-3c0.5,0.4,1,0.7,1.6,0.8
	c-0.2,3.2-0.6,4-1.9,4h-1.6c-1.5,0-1.9-0.6-1.9-2.6v-5.6h-1.8c-0.3,4.2-1.3,7-5.1,8.6c-0.3-0.6-0.6-1.2-1.1-1.8
	c3.3-1.3,4.1-3.4,4.3-6.8h-2.6v-2h11.3v2h-3.4v5.6c0,0.7,0.1,0.7,0.4,0.7H266.9z M258.9,21.2h-1.6v-4.4h4.9
	c-0.3-0.8-0.6-1.7-0.9-2.5l1.7-0.6c0.5,1,0.9,2,1.2,3.1h4.4v4.4H267V23h-8.1L258.9,21.2z M259.1,18.7V21h7.7v-2.3L259.1,18.7z"/>
<path class="st0" d="M71.8,45v-0.8H76V45h-1.7v7.1h-0.8V45H71.8z"/>
<path class="st0" d="M82.4,46.2v5.8h-0.7v-1c-0.3,0.4-0.6,0.6-1,0.9c-0.4,0.2-0.8,0.3-1.2,0.3c-0.8,0-1.5-0.3-2.1-0.9
	c-0.6-0.6-0.9-1.4-0.8-2.2c0-0.8,0.3-1.6,0.8-2.1c0.5-0.6,1.3-0.9,2.1-0.9c0.4,0,0.9,0.1,1.3,0.3c0.4,0.2,0.7,0.5,1,0.9v-1.1H82.4z
	 M79.4,46.8c-0.4,0-0.8,0.1-1.1,0.3c-0.3,0.2-0.6,0.5-0.8,0.9c-0.2,0.4-0.3,0.8-0.3,1.2c0,0.4,0.1,0.8,0.3,1.2
	c0.2,0.4,0.5,0.7,0.8,0.9c0.3,0.2,0.7,0.3,1.1,0.3c0.8,0,1.6-0.4,2-1.2c0.2-0.4,0.3-0.8,0.3-1.2c0-0.6-0.3-1.3-0.7-1.7
	C80.6,47,80,46.8,79.4,46.8z"/>
<path class="st0" d="M83.9,43.8c0.2,0,0.3,0.1,0.4,0.2c0.1,0.1,0.2,0.3,0.2,0.4c0,0.3-0.3,0.6-0.6,0.6l0,0c-0.2,0-0.3-0.1-0.4-0.2
	c-0.1-0.1-0.2-0.3-0.2-0.4c0-0.2,0.1-0.3,0.2-0.4C83.6,43.9,83.8,43.8,83.9,43.8z M83.6,46.2h0.7v5.8h-0.7V46.2z"/>
<path class="st0" d="M84.7,46.2h0.8l1.7,4.2l1.8-4.2h0.1l1.8,4.2l1.8-4.2h0.8l-2.5,5.8H91l-1.8-4.2l-1.8,4.2h-0.1L84.7,46.2z"/>
<path class="st0" d="M99.8,46.2v5.8h-0.7v-1c-0.3,0.4-0.6,0.6-1,0.9c-0.4,0.2-0.8,0.3-1.2,0.3c-0.8,0-1.5-0.3-2.1-0.9
	c-1.1-1.2-1.1-3.1,0-4.3c0.5-0.6,1.3-0.9,2.1-0.9c0.4,0,0.9,0.1,1.3,0.3c0.4,0.2,0.7,0.5,1,0.9v-1.1H99.8z M96.8,46.8
	c-0.4,0-0.8,0.1-1.1,0.3c-0.3,0.2-0.6,0.5-0.8,0.9c-0.2,0.4-0.3,0.8-0.3,1.2c0,0.4,0.1,0.8,0.3,1.2c0.2,0.4,0.5,0.7,0.8,0.9
	c0.3,0.2,0.7,0.3,1.1,0.3c0.8,0,1.6-0.4,2-1.2c0.2-0.4,0.3-0.8,0.3-1.2c0-0.6-0.2-1.2-0.7-1.7C98.1,47,97.5,46.8,96.8,46.8z"/>
<path class="st0" d="M101.1,46.2h0.7v1c0.3-0.4,0.6-0.7,1-0.9c0.4-0.2,0.8-0.3,1.2-0.3c0.4,0,0.8,0.1,1.1,0.3
	c0.3,0.2,0.6,0.5,0.7,0.9c0.2,0.6,0.3,1.2,0.2,1.8v3h-0.7v-2.8c0-0.5,0-0.9-0.1-1.3c-0.1-0.7-0.7-1.2-1.4-1.2
	c-0.4,0-0.9,0.2-1.2,0.5c-0.3,0.3-0.6,0.7-0.7,1.1c-0.1,0.5-0.1,1.1-0.1,1.6v2.1h-0.7L101.1,46.2z"/>
<path class="st0" d="M110.1,44.2h0.8v3.3h3.9v-3.3h0.8v7.9h-0.8v-3.8h-3.9v3.8h-0.8V44.2z"/>
<path class="st0" d="M117.2,43.8c0.2,0,0.3,0.1,0.4,0.2c0.1,0.1,0.2,0.3,0.2,0.4c0,0.2-0.1,0.3-0.2,0.4c-0.1,0.1-0.3,0.2-0.4,0.2
	c-0.2,0-0.3-0.1-0.4-0.2c-0.1-0.1-0.2-0.3-0.2-0.4c0-0.2,0.1-0.3,0.2-0.4C116.9,43.9,117.1,43.8,117.2,43.8z M116.9,46.2h0.7v5.8
	h-0.7V46.2z"/>
<path class="st0" d="M123.7,46.2h0.7v4.7c0,0.6,0,1.2-0.2,1.8c-0.2,0.5-0.5,1-1,1.2c-0.5,0.3-1.1,0.5-1.7,0.4
	c-0.4,0-0.9-0.1-1.3-0.2c-0.4-0.1-0.7-0.3-0.9-0.6c-0.3-0.3-0.5-0.6-0.7-1h0.8c0.2,0.4,0.5,0.7,0.8,0.9c0.4,0.2,0.8,0.3,1.3,0.3
	c0.4,0,0.9-0.1,1.3-0.3c0.3-0.2,0.6-0.4,0.7-0.7c0.2-0.4,0.2-0.9,0.2-1.4V51c-0.3,0.3-0.6,0.6-1,0.8c-0.4,0.2-0.8,0.3-1.3,0.3
	c-0.5,0-1-0.1-1.5-0.4c-0.4-0.2-0.8-0.6-1.1-1.1c-0.3-0.5-0.4-1-0.4-1.5c0-0.5,0.1-1.1,0.4-1.5c0.2-0.5,0.6-0.9,1.1-1.1
	c0.4-0.3,1-0.4,1.5-0.4c0.4,0,0.8,0.1,1.2,0.3c0.4,0.2,0.8,0.5,1.1,0.9L123.7,46.2z M121.6,46.8c-0.4,0-0.8,0.1-1.2,0.3
	c-0.4,0.2-0.6,0.5-0.8,0.9c-0.2,0.4-0.3,0.8-0.3,1.2c0,1.2,0.9,2.2,2,2.2c0.1,0,0.1,0,0.2,0c0.6,0,1.2-0.2,1.6-0.6
	c0.4-0.4,0.6-1,0.6-1.6c0-0.4-0.1-0.8-0.3-1.2C123.1,47.2,122.4,46.8,121.6,46.8z"/>
<path class="st0" d="M125.7,44h0.7v3.3c0.3-0.4,0.6-0.7,1-0.9c0.4-0.2,0.8-0.3,1.2-0.3c0.4,0,0.8,0.1,1.1,0.3
	c0.3,0.2,0.6,0.5,0.7,0.9c0.2,0.6,0.3,1.2,0.2,1.8v3H130v-2.8c0-0.5,0-0.9-0.1-1.3c-0.1-0.3-0.2-0.7-0.5-0.9
	c-0.3-0.2-0.6-0.3-0.9-0.3c-0.4,0-0.9,0.2-1.2,0.5c-0.3,0.3-0.6,0.7-0.7,1.1c-0.1,0.5-0.1,1.1-0.1,1.6v2.1h-0.7L125.7,44z"/>
<path class="st0" d="M141.9,45.6l-0.6,0.5c-0.3-0.4-0.7-0.8-1.2-1c-0.5-0.2-1-0.4-1.6-0.3c-0.6,0-1.2,0.2-1.7,0.5
	c-0.5,0.3-0.9,0.7-1.2,1.2c-0.3,0.5-0.4,1.1-0.4,1.7c0,0.9,0.3,1.8,1,2.4c0.6,0.7,1.5,1,2.4,1c1.1,0,2.1-0.5,2.7-1.3l0.6,0.5
	c-0.4,0.5-0.9,0.9-1.4,1.2c-0.6,0.3-1.3,0.4-1.9,0.4c-1.2,0.1-2.4-0.5-3.2-1.4c-0.7-0.8-1-1.8-1-2.8c0-1.1,0.4-2.2,1.2-2.9
	c0.8-0.8,1.9-1.2,3-1.2c0.7,0,1.3,0.1,1.9,0.4C141,44.7,141.5,45.1,141.9,45.6z"/>
<path class="st0" d="M145.7,46.1c0.8,0,1.6,0.4,2.2,1c0.5,0.6,0.8,1.3,0.8,2.1c0,0.8-0.3,1.6-0.8,2.1c-1.2,1.2-3.1,1.2-4.2,0
	c0,0,0,0,0,0c-0.5-0.6-0.8-1.3-0.8-2.1c0-0.8,0.3-1.5,0.8-2.1C144,46.4,144.8,46.1,145.7,46.1z M145.7,46.8c-0.6,0-1.2,0.2-1.6,0.7
	c-0.4,0.4-0.7,1-0.7,1.7c0,0.4,0.1,0.8,0.3,1.2c0.2,0.3,0.5,0.6,0.8,0.8c0.7,0.4,1.5,0.4,2.2,0c0.3-0.2,0.6-0.5,0.8-0.8
	c0.2-0.4,0.3-0.8,0.3-1.2c0-0.6-0.2-1.2-0.7-1.7C146.8,47.1,146.3,46.8,145.7,46.8z"/>
<path class="st0" d="M149.6,46.2h0.7V49c0,0.5,0,0.9,0.1,1.4c0.1,0.3,0.3,0.6,0.6,0.8c0.3,0.2,0.7,0.3,1.1,0.3c0.4,0,0.7-0.1,1-0.3
	c0.3-0.2,0.5-0.5,0.6-0.8c0.1-0.5,0.1-1,0.1-1.4v-2.8h0.8v2.9c0,0.6-0.1,1.2-0.3,1.8c-0.2,0.4-0.5,0.8-0.8,1
	c-0.4,0.2-0.9,0.4-1.4,0.3c-0.5,0-1-0.1-1.4-0.3c-0.4-0.2-0.7-0.6-0.8-1c-0.2-0.6-0.3-1.2-0.3-1.9L149.6,46.2z"/>
<path class="st0" d="M155.6,46.2h0.7v0.8c0.2-0.3,0.4-0.5,0.7-0.8c0.4-0.3,1-0.3,1.4,0l-0.4,0.6c-0.1-0.1-0.2-0.1-0.4-0.1
	c-0.3,0-0.5,0.1-0.7,0.3c-0.3,0.3-0.5,0.6-0.5,1c-0.1,0.7-0.2,1.3-0.1,2v2h-0.7L155.6,46.2z"/>
<path class="st0" d="M159.4,44.1h0.7v2.2h1.2v0.7h-1.2v5.2h-0.7v-5.2h-1v-0.7h1V44.1z"/>
<path class="st0" d="M164.8,44.2h0.8v3.3h3.9v-3.3h0.8v7.9h-0.8v-3.8h-3.9v3.8h-0.8V44.2z"/>
<path class="st0" d="M171.6,46.2h0.7V49c0,0.5,0,0.9,0.1,1.4c0.1,0.3,0.3,0.6,0.6,0.8c0.6,0.4,1.5,0.4,2.1,0
	c0.3-0.2,0.5-0.5,0.6-0.8c0.1-0.5,0.1-1,0.1-1.4v-2.8h0.8v2.9c0,0.6-0.1,1.2-0.3,1.8c-0.2,0.4-0.5,0.8-0.8,1c-0.9,0.5-1.9,0.5-2.8,0
	c-0.4-0.2-0.7-0.6-0.8-1c-0.2-0.6-0.3-1.2-0.3-1.9L171.6,46.2z"/>
<path class="st0" d="M183.6,46.2v5.8h-0.7v-1c-0.3,0.4-0.6,0.6-1,0.9c-0.4,0.2-0.8,0.3-1.2,0.3c-0.8,0-1.5-0.3-2.1-0.9
	c-0.6-0.6-0.9-1.4-0.9-2.2c0-0.8,0.3-1.6,0.9-2.2c0.5-0.6,1.3-0.9,2.1-0.9c0.4,0,0.9,0.1,1.3,0.3c0.4,0.2,0.7,0.5,1,0.9v-1.1H183.6z
	 M180.7,46.8c-0.4,0-0.8,0.1-1.1,0.3c-0.3,0.2-0.6,0.5-0.8,0.9c-0.2,0.4-0.3,0.8-0.3,1.2c0,0.4,0.1,0.8,0.3,1.2
	c0.2,0.4,0.5,0.7,0.8,0.9c0.3,0.2,0.7,0.3,1.1,0.3c0.4,0,0.8-0.1,1.1-0.3c0.3-0.2,0.6-0.5,0.8-0.8c0.2-0.4,0.3-0.8,0.3-1.2
	c0-0.6-0.2-1.2-0.6-1.7C181.9,47,181.3,46.8,180.7,46.8L180.7,46.8z"/>
<path class="st0" d="M184.8,44h0.7v8.1h-0.7V44z"/>
<path class="st0" d="M187,43.8c0.2,0,0.3,0.1,0.4,0.2c0.1,0.1,0.2,0.3,0.2,0.4c0,0.3-0.3,0.6-0.6,0.6l0,0c-0.3,0-0.6-0.3-0.6-0.6
	c0-0.2,0.1-0.3,0.2-0.4C186.7,43.9,186.8,43.8,187,43.8z M186.6,46.2h0.7v5.8h-0.7V46.2z"/>
<path class="st0" d="M193.4,50.1l0.6,0.3c-0.2,0.4-0.4,0.7-0.7,1c-0.3,0.2-0.6,0.4-0.9,0.6c-0.4,0.1-0.7,0.2-1.1,0.2
	c-0.8,0-1.6-0.3-2.2-0.9c-0.5-0.6-0.8-1.3-0.8-2.1c0-0.7,0.2-1.4,0.7-2c0.5-0.7,1.4-1.1,2.3-1.1c0.9,0,1.8,0.4,2.3,1.1
	c0.4,0.6,0.6,1.3,0.6,2h-5.1c0,0.6,0.2,1.2,0.6,1.7c0.4,0.4,0.9,0.7,1.5,0.7c0.3,0,0.6-0.1,0.9-0.2c0.3-0.1,0.5-0.2,0.7-0.4
	C193,50.7,193.2,50.4,193.4,50.1z M193.4,48.6c-0.1-0.4-0.2-0.7-0.4-1c-0.2-0.2-0.5-0.4-0.8-0.6c-0.3-0.2-0.7-0.2-1-0.2
	c-0.5,0-1.1,0.2-1.4,0.5c-0.3,0.3-0.6,0.8-0.7,1.2L193.4,48.6z"/>
<path class="st0" d="M195.2,46.2h0.8v1c0.3-0.4,0.6-0.7,1-0.9c0.4-0.2,0.8-0.3,1.2-0.3c0.4,0,0.8,0.1,1.1,0.3
	c0.3,0.2,0.6,0.5,0.7,0.9c0.2,0.6,0.3,1.2,0.2,1.8v3h-0.7v-2.8c0-0.5,0-0.9-0.1-1.3c-0.1-0.3-0.2-0.6-0.5-0.9
	c-0.3-0.2-0.6-0.3-0.9-0.3c-0.4,0-0.9,0.2-1.2,0.5c-0.3,0.3-0.6,0.7-0.7,1.1c-0.1,0.5-0.1,1.1-0.1,1.6v2.1h-0.7L195.2,46.2z"/>
<path class="st0" d="M204.2,44.2h1.5c0.5,0,1,0.1,1.4,0.2c0.3,0.1,0.6,0.4,0.8,0.7c0.2,0.3,0.3,0.6,0.3,1c0,0.4-0.1,0.7-0.2,1
	c-0.2,0.3-0.4,0.5-0.7,0.7c0.3,0.1,0.6,0.3,0.9,0.5c0.2,0.2,0.4,0.4,0.5,0.7c0.1,0.3,0.2,0.6,0.2,0.9c0,0.6-0.2,1.2-0.7,1.6
	c-0.5,0.4-1.2,0.7-1.8,0.7h-2.1V44.2z M205,45v2.5h0.4c0.4,0,0.8,0,1.2-0.2c0.2-0.1,0.5-0.3,0.6-0.5c0.1-0.2,0.2-0.5,0.2-0.7
	c0-0.3-0.1-0.6-0.4-0.9c-0.3-0.2-0.8-0.3-1.2-0.3H205z M205,48.3v3h1c0.4,0,0.8,0,1.2-0.2c0.3-0.1,0.5-0.3,0.6-0.5
	c0.2-0.2,0.2-0.5,0.2-0.8c0-0.3-0.1-0.7-0.3-0.9c-0.2-0.3-0.6-0.5-0.9-0.5c-0.5-0.1-0.9-0.1-1.4-0.1L205,48.3z"/>
<path class="st0" d="M209.7,46.2h0.8v0.8c0.2-0.3,0.4-0.5,0.7-0.8c0.2-0.2,0.5-0.3,0.8-0.2c0.2,0,0.5,0.1,0.6,0.2l-0.4,0.6
	c-0.1-0.1-0.3-0.1-0.4-0.1c-0.3,0-0.5,0.1-0.7,0.3c-0.3,0.3-0.4,0.6-0.5,1c-0.1,0.7-0.2,1.3-0.1,2v2h-0.8L209.7,46.2z"/>
<path class="st0" d="M218.5,46.2v5.8h-0.7v-1c-0.3,0.4-0.6,0.6-1,0.9c-0.4,0.2-0.8,0.3-1.2,0.3c-0.8,0-1.5-0.3-2.1-0.9
	c-0.6-0.6-0.9-1.4-0.9-2.2c0-0.8,0.3-1.6,0.9-2.2c0.5-0.6,1.3-0.9,2.1-0.9c0.4,0,0.9,0.1,1.3,0.3c0.4,0.2,0.7,0.5,1,0.9v-1.1H218.5z
	 M215.6,46.8c-0.4,0-0.8,0.1-1.1,0.3c-0.3,0.2-0.6,0.5-0.8,0.9c-0.2,0.4-0.3,0.8-0.3,1.2c0,0.4,0.1,0.8,0.3,1.2
	c0.2,0.4,0.5,0.7,0.8,0.9c0.3,0.2,0.7,0.3,1.1,0.3c0.4,0,0.8-0.1,1.1-0.3c0.3-0.2,0.6-0.5,0.8-0.8c0.2-0.4,0.3-0.8,0.3-1.2
	c0-0.6-0.2-1.2-0.6-1.7C216.8,47,216.2,46.8,215.6,46.8L215.6,46.8z"/>
<path class="st0" d="M219.9,46.2h0.7v1c0.3-0.4,0.6-0.7,1-0.9c0.4-0.2,0.8-0.3,1.2-0.3c0.4,0,0.8,0.1,1.1,0.3
	c0.3,0.2,0.6,0.5,0.7,0.9c0.2,0.6,0.3,1.2,0.2,1.8v3h-0.7v-2.8c0-0.5,0-0.9-0.1-1.3c-0.1-0.3-0.2-0.7-0.5-0.9
	c-0.3-0.2-0.6-0.3-0.9-0.3c-0.4,0-0.9,0.2-1.2,0.5c-0.3,0.3-0.6,0.7-0.7,1.1c-0.1,0.5-0.1,1.1-0.1,1.6v2.1h-0.7L219.9,46.2z"/>
<path class="st0" d="M231.6,47.4l-0.6,0.4c-0.5-0.6-1.2-1-2-1c-0.6,0-1.3,0.2-1.7,0.7c-0.5,0.4-0.7,1-0.7,1.7c0,0.4,0.1,0.8,0.3,1.2
	c0.2,0.4,0.5,0.7,0.9,0.9c0.4,0.2,0.8,0.3,1.2,0.3c0.8,0,1.5-0.4,2-1l0.6,0.4c-0.3,0.4-0.6,0.8-1.1,1c-0.5,0.2-1,0.4-1.6,0.3
	c-0.8,0-1.6-0.3-2.2-0.9c-0.6-0.6-0.9-1.3-0.9-2.1c0-0.6,0.1-1.1,0.4-1.6c0.3-0.5,0.7-0.9,1.1-1.1c0.5-0.3,1.1-0.4,1.6-0.4
	c0.4,0,0.7,0.1,1.1,0.2c0.3,0.1,0.6,0.3,0.9,0.5C231.2,47,231.4,47.2,231.6,47.4z"/>
<path class="st0" d="M232.7,44h0.7v3.3c0.3-0.4,0.6-0.7,1-0.9c0.4-0.2,0.8-0.3,1.2-0.3c0.4,0,0.8,0.1,1.1,0.3
	c0.3,0.2,0.6,0.5,0.7,0.9c0.2,0.6,0.3,1.2,0.2,1.8v3h-0.7v-2.8c0-0.5,0-0.9-0.1-1.3c-0.1-0.3-0.2-0.6-0.5-0.9
	c-0.3-0.2-0.6-0.3-0.9-0.3c-0.4,0-0.9,0.2-1.2,0.5c-0.3,0.3-0.6,0.7-0.7,1.1c-0.1,0.5-0.1,1.1-0.1,1.6v2.1h-0.7L232.7,44z"/>
<path class="st0" d="M248.8,45.6l-0.6,0.5c-0.3-0.4-0.7-0.8-1.2-1c-0.5-0.2-1-0.4-1.6-0.3c-0.6,0-1.2,0.2-1.7,0.5
	c-0.5,0.3-0.9,0.7-1.2,1.2c-0.3,0.5-0.4,1.1-0.4,1.7c0,1.8,1.4,3.3,3.3,3.4c0.1,0,0.1,0,0.2,0c1.1,0,2.1-0.5,2.7-1.3l0.6,0.5
	c-0.4,0.5-0.9,0.9-1.4,1.2c-0.6,0.3-1.3,0.4-1.9,0.4c-1.2,0.1-2.4-0.5-3.2-1.4c-0.7-0.8-1-1.8-1-2.8c0-1.1,0.4-2.2,1.2-2.9
	c0.8-0.8,1.9-1.2,3-1.2c0.7,0,1.3,0.1,1.9,0.4C248,44.7,248.5,45.1,248.8,45.6z"/>
<path class="st0" d="M252.6,46.1c0.8,0,1.6,0.4,2.2,1c0.5,0.6,0.8,1.3,0.8,2.1c0,0.8-0.3,1.6-0.8,2.1c-1.2,1.2-3.1,1.2-4.2,0
	c0,0,0,0,0,0c-0.5-0.6-0.8-1.3-0.8-2.1c0-0.8,0.3-1.5,0.8-2.1C251,46.4,251.8,46.1,252.6,46.1z M252.6,46.8c-0.6,0-1.2,0.2-1.6,0.7
	c-0.4,0.4-0.7,1-0.7,1.7c0,0.4,0.1,0.8,0.3,1.2c0.2,0.3,0.5,0.6,0.8,0.8c0.7,0.4,1.5,0.4,2.2,0c0.3-0.2,0.6-0.5,0.8-0.8
	c0.2-0.4,0.3-0.8,0.3-1.2c0-0.6-0.2-1.2-0.7-1.7C253.8,47.1,253.2,46.8,252.6,46.8z"/>
<path class="st0" d="M256.5,46.2h0.7V49c0,0.5,0,0.9,0.1,1.4c0.1,0.3,0.3,0.6,0.6,0.8c0.3,0.2,0.7,0.3,1.1,0.3c0.4,0,0.7-0.1,1-0.3
	c0.3-0.2,0.5-0.5,0.6-0.8c0.1-0.5,0.1-1,0.1-1.4v-2.8h0.8v2.9c0,0.6-0.1,1.2-0.3,1.8c-0.2,0.4-0.5,0.8-0.8,1c-0.9,0.5-1.9,0.5-2.8,0
	c-0.4-0.2-0.7-0.6-0.8-1c-0.2-0.6-0.3-1.2-0.3-1.9L256.5,46.2z"/>
<path class="st0" d="M262.6,46.2h0.8v0.8c0.2-0.3,0.4-0.5,0.7-0.8c0.4-0.3,1-0.3,1.4,0l-0.4,0.6c-0.1-0.1-0.3-0.1-0.4-0.1
	c-0.3,0-0.5,0.1-0.7,0.3c-0.3,0.3-0.5,0.6-0.5,1c-0.1,0.7-0.2,1.3-0.1,2v2h-0.8V46.2z"/>
<path class="st0" d="M266.4,44.1h0.7v2.2h1.2v0.7h-1.2v5.2h-0.7v-5.2h-1v-0.7h1V44.1z"/>
<circle class="st0" cx="32.7" cy="31.4" r="30.3"/>
<linearGradient id="SVGID_1_" gradientUnits="userSpaceOnUse" x1="32.645" y1="5.22" x2="32.645" y2="28.47" gradientTransform="matrix(1 0 0 -1 0 66)">
	<stop  offset="0.69" style="stop-color:#B7A246"/>
	<stop  offset="1" style="stop-color:#FFFFFF"/>
</linearGradient>
<path class="st1" d="M61.5,37.8c-3.1,13.4-15.1,22.9-28.8,23c-14,0-25.9-10.2-28.9-23.2h7.4c2.8,9,11.5,16.1,21.5,16.1
	c9.8-0.1,18.4-6.5,21.4-15.8H61.5z"/>
<path class="st2" d="M53.6,31.3c0,11.6-9.4,21-21,21s-21-9.4-21-21s9.4-21,21-21S53.6,19.7,53.6,31.3L53.6,31.3z"/>
<path class="st0" d="M34.3,33.8H31V42c0,0.9,0.8,1.7,1.7,1.7c0.9,0,1.6-0.7,1.6-1.6c0,0,0,0,0,0V33.8z"/>
<path class="st0" d="M35.6,44h-5.8c-0.4,0-0.7,0.3-0.8,0.6c0,0,0,0,0,0v0.8c0,0.4,0.4,0.7,0.7,0.7c0,0,0,0,0,0h5.8
	c0.4,0,0.7-0.2,0.7-0.6c0,0,0,0,0,0v-0.8C36.3,44.3,35.9,44,35.6,44C35.6,44,35.6,44,35.6,44z"/>
<path class="st0" d="M36.7,46.9h-8c-0.6,0-1,0.3-1,0.7v0.8c0,0.4,0.4,0.7,1,0.7h8c0.5,0,1-0.3,1-0.7v-0.8
	C37.7,47.2,37.2,46.9,36.7,46.9z"/>
<path class="st0" d="M48.9,23.3c0-0.3-0.2-0.5-0.4-0.6c-0.4-0.3-1-0.2-1.4,0.1C44.7,25,41,25,38.5,22.8c-3.2-2.7-7.9-2.8-11.2-0.2h0
	l-0.2,0.2l0,0c-1.2,1.1-2.8,1.7-4.4,1.7c-1.6,0-3.2-0.6-4.4-1.7c-0.2-0.2-0.4-0.3-0.7-0.3c-0.2,0-0.5,0-0.7,0.2
	c-0.2,0.1-0.4,0.4-0.4,0.6v0.1c0,0.2,0.1,0.4,0.3,0.6c1.6,1.5,3.7,2.3,5.9,2.3c2,0,3.9-0.6,5.5-1.9l0,0l0,0l0.1-0.1
	c2.5-2.2,6.2-2.2,8.7-0.1c1.6,1.4,3.6,2.1,5.7,2.1c2.2,0,4.3-0.8,5.9-2.3c0.2-0.2,0.3-0.4,0.3-0.6V23.3z M48.9,23.3L48.9,23.3
	L48.9,23.3z"/>
<path class="st0" d="M36.1,17c0,1.9-1.6,3.4-3.5,3.4c-1.9,0-3.4-1.6-3.4-3.5c0-1.9,1.5-3.4,3.4-3.4C34.6,13.5,36.1,15.1,36.1,17z"/>
<path class="st0" d="M27.6,38.4l-5.3-12C22.2,26.2,22,26,21.7,26c-0.2,0-0.4,0.1-0.5,0.4l0,0l-5.3,12c-0.1,0.2-0.1,0.4,0,0.6
	c1.2,2,3.4,3.2,5.8,3.2c2.4,0.1,4.6-1.1,5.8-3.1C27.7,38.8,27.7,38.6,27.6,38.4z M21.7,28.1c0.3,0.7,4.3,9.8,4.6,10.4h-9.2l3.1-7
	L21.7,28.1z"/>
<path class="st0" d="M49.5,38.4l-5.3-12c-0.1-0.2-0.3-0.4-0.5-0.4c-0.2,0-0.4,0.1-0.5,0.4l0,0l-5.3,12c-0.1,0.2-0.1,0.4,0,0.6
	c1.2,2,3.4,3.2,5.8,3.2c2.4,0.1,4.6-1.1,5.8-3.1C49.6,38.8,49.6,38.6,49.5,38.4z M43.7,28.1l4.6,10.4h-9.2c0.2-0.4,2-4.5,2-4.5
	S43.4,28.8,43.7,28.1z"/>
<path class="st0" d="M38.3,25.4c-0.5,0-0.8,0.3-0.9,0.8c0,0.1,0,0.1,0,0.2h-1.2v-0.5h-7v0.5H28c0.1-0.4-0.3-0.9-0.7-0.9
	c-0.1,0-0.1,0-0.2,0c0,0-0.8,0-0.8,1v4.4c0,1.1,0.8,1,0.8,1c0.5,0,0.9-0.3,0.9-0.8c0,0,0-0.1,0-0.1h1.1v0.5H31V33h3.3v-1.5h1.9v-0.5
	h1.2c-0.1,0.5,0.3,0.9,0.7,0.9c0,0,0.1,0,0.1,0c0,0,0.8,0,0.8-1v-4.4C39,25.4,38.3,25.4,38.3,25.4z"/>
<path class="st0" d="M11.8,50.2l-2.6-3.5l0.2-0.2l1.2,1.6l0.3-0.2l-1.1-1.4l0.2-0.1l1.1,1.4l0.3-0.2l-0.9-1.2l0.2-0.2
	c0.2,0.2,0.5,0.4,0.9,0.4L11,46.2l0.2-0.2l1.9,2.5l-0.2,0.2l-0.2-0.3c-0.1,0.3-0.1,0.6-0.2,0.8h-0.3c0-0.1,0.1-0.2,0.1-0.3L11.5,48
	l-0.3,0.2l1.1,1.4l-0.2,0.2L11,48.3l-0.3,0.2l1.3,1.6L11.8,50.2z M13.2,49.1L13,48.9l0.4-0.3l-2.2-2.9l-0.4,0.3l-0.2-0.2l0.6-0.5
	l2.5,3.3L13.2,49.1z M12.3,48.5c0-0.1,0.1-0.2,0.1-0.3h0.2L11.6,47c-0.2,0-0.5-0.1-0.7-0.2C11.2,47.2,11.7,47.7,12.3,48.5z M13.8,48
	l-1.9-2.6l0.7-0.5l1.9,2.6L13.8,48z M13.8,47.6l0.3-0.2l-1.6-2.1l-0.3,0.2L13.8,47.6z M15.4,47.4l-1.2-1.6L14,46l1.1,1.4l-0.2,0.2
	l-2.4-3.1l0.2-0.2l1.1,1.4l0.2-0.2L12.8,44l0.2-0.2l1.2,1.6l0.2-0.2l0.2,0.2l-0.2,0.2l1.2,1.6L15.4,47.4z"/>
<path class="st0" d="M14.5,50.4c-0.6,0.4-1.2,0.7-1.8,1v-0.3c0.6-0.3,1.2-0.6,1.8-1L14.5,50.4z M16.4,53.4L16,53.8
	c-0.1,0.1-0.2,0.1-0.3,0.1c-0.1,0-0.2,0-0.3-0.1L14.6,53l0.1-0.3l0.9,0.8c0.1,0.1,0.1,0,0.2,0l0.2-0.2l-2.2-2l0.8-0.5l1.9,1.7
	l0.2-0.3l-2.1-1.8l0.2-0.2l2.3,2l-0.6,0.6l-1.9-1.7l-0.3,0.2L16.4,53.4z M15.6,49.8c-0.2,0.1-0.4,0.3-0.6,0.4L14.9,50
	c0.2-0.1,0.4-0.2,0.6-0.4L15.6,49.8z M15.3,49.5L15,49.6c0-0.3,0-0.7,0-1l0.3-0.1C15.3,48.8,15.3,49.2,15.3,49.5L15.3,49.5z
	 M15.4,50.5l-0.2-0.1c0.1-0.2,0.3-0.3,0.4-0.5l0.2,0.1C15.7,50.2,15.6,50.3,15.4,50.5L15.4,50.5z M16.4,50.2L16.2,50
	c0,0,0.1-0.1,0.1-0.1c-0.3-0.1-0.5-0.3-0.7-0.4l0.1-0.2c0.4-0.1,0.7-0.1,0.9-0.2l-0.4-0.3l0.1-0.2c0.4-0.1,0.7-0.2,1.1-0.3l0.1,0.2
	c-0.3,0.1-0.6,0.2-0.9,0.3l0.3,0.2l0.3-0.1l0.1,0.2c-0.4,0.1-0.8,0.2-1.2,0.3c0.1,0.1,0.2,0.2,0.4,0.2c0-0.1,0.1-0.1,0.1-0.2
	l0.2,0.1C16.6,49.7,16.5,49.9,16.4,50.2L16.4,50.2z M15.9,50.7l-0.2-0.1c0.1-0.2,0.2-0.3,0.3-0.5l0.2,0.1
	C16.1,50.4,16,50.5,15.9,50.7L15.9,50.7z M16.6,51.5l-0.7-0.6l0.6-0.7l0.7,0.6L16.6,51.5z M16.4,48.6h-0.3c0-0.3,0-0.7,0-1l0.3-0.1
	C16.4,47.8,16.4,48.2,16.4,48.6L16.4,48.6z M16.6,51.2l0.3-0.3l-0.3-0.3l-0.3,0.3L16.6,51.2z M17.3,51.4c-0.2,0.2-0.3,0.3-0.5,0.4
	l-0.1-0.2c0.2-0.1,0.4-0.3,0.5-0.4L17.3,51.4z M17.3,50.6L16.7,50l0.2-0.2l0.7,0.6L17.3,50.6z M17.6,50.3L17,49.6l0.2-0.2l0.7,0.6
	L17.6,50.3z M17.2,52.1L17,52c0.1-0.2,0.3-0.3,0.4-0.5l0.2,0.1C17.5,51.8,17.3,51.9,17.2,52.1L17.2,52.1z M18.1,50l-0.9-0.8l0.2-0.2
	l0.4,0.3c0.1-0.1,0.1-0.2,0.1-0.3l0.2,0.1c0,0.1-0.1,0.3-0.2,0.4l0.3,0.3L18.1,50z M18.1,51.8l-0.2-0.1c0-0.1,0.1-0.1,0.1-0.2
	L17.2,51l0.1-0.2c0.3,0,0.6-0.1,0.9-0.1l-0.4-0.3l0.1-0.2c0.4-0.1,0.7-0.2,1.1-0.3l0.1,0.2c-0.3,0.1-0.6,0.2-0.9,0.2
	c0.1,0.1,0.2,0.2,0.4,0.2l0.3-0.1l0.1,0.2c-0.4,0.1-0.8,0.2-1.2,0.3c0.1,0.1,0.2,0.2,0.4,0.2l0.1-0.2l0.2,0.1
	C18.3,51.3,18.2,51.5,18.1,51.8L18.1,51.8z M17.5,52.4l-0.2-0.1c0.1-0.3,0.2-0.5,0.3-0.6l0.2,0.1C17.8,52,17.7,52.2,17.5,52.4
	L17.5,52.4z"/>
<path class="st0" d="M20.9,56.6c-0.1,0.1-0.1,0.2-0.2,0.2c-0.1,0-0.2,0-0.5-0.1l-0.2-0.2l0.1-0.3l0.4,0.2c0.1,0.1,0.2,0.1,0.3,0
	c0,0,0,0,0,0l0.8-1.4l-2.9-1.7l-1.1,1.9l-0.2-0.1l1.2-2.1l3.4,1.9L20.9,56.6z M20.2,56.1l-1.8-1l0.6-1l1.8,1L20.2,56.1z M20.1,55.7
	l0.3-0.5L19,54.4l-0.3,0.5L20.1,55.7z M21.6,54.3l-2.5-1.4l0.6-1l2.5,1.4L21.6,54.3z M23,53.3l-3.8-2.1l0.1-0.2l1.8,1
	c0.1-0.2,0.1-0.3,0.1-0.5h0.3c0,0.2-0.1,0.4-0.1,0.6l1.8,1L23,53.3z M21.5,53.8l0.3-0.5l-2-1.2l-0.3,0.5L21.5,53.8z"/>
<path class="st0" d="M26.8,57.6L26,57.3l-0.3,0.9c-0.1,0.2-0.2,0.4-0.3,0.4c-0.2,0-0.4,0-0.5-0.1c-0.1,0-0.2-0.1-0.4-0.1v-0.3
	l0.5,0.2l0.3,0.1c0.1,0,0.1,0,0.1-0.2l0.3-0.9l-3.1-1l0.1-0.3l3.1,1l0.2-0.5l-2.7-0.8l0.1-0.3l1.6,0.5l0.2-0.5l-1.8-0.6l0.1-0.3
	l1.8,0.6l0.1-0.4l0.3,0.1l-0.1,0.4l1.8,0.5l-0.1,0.3l-1.8-0.5l-0.2,0.5l1.6,0.5l-0.1,0.3l-0.5-0.1L26,57l0.9,0.3L26.8,57.6z
	 M25.5,54.1l-1.4-0.4c-0.2,0.2-0.4,0.3-0.7,0.5l-0.1-0.3c0.5-0.2,0.9-0.6,1.2-1l0.2,0.2c-0.1,0.1-0.2,0.3-0.4,0.4l1.2,0.4L25.5,54.1
	z M24.1,57.8L23.9,58c-0.1-0.4-0.3-0.7-0.5-1l0.3-0.1C23.9,57.1,24,57.5,24.1,57.8z M24.7,54.6h-0.3c0-0.2-0.1-0.4-0.2-0.5h0.3
	C24.6,54.2,24.7,54.4,24.7,54.6z M27.6,54.8l-1.6-0.5c-0.1,0.1-0.3,0.2-0.4,0.3l-0.1-0.2c0.4-0.2,0.7-0.5,0.9-0.8l0.2,0.2
	c-0.1,0.1-0.2,0.3-0.3,0.4l1.4,0.4L27.6,54.8z M26.8,55.2l-0.3,0.1c0-0.2-0.1-0.4-0.2-0.5l0.3-0.1C26.7,54.8,26.8,55,26.8,55.2z"/>
<path class="st0" d="M28.9,57.3c-0.3,0.7-0.7,1.3-1.1,1.9L27.6,59c0.4-0.6,0.8-1.2,1.1-1.9L28.9,57.3z M29,56.4l-0.2,0.2
	c-0.2-0.3-0.5-0.6-0.8-0.8l0.2-0.2C28.5,55.8,28.8,56.1,29,56.4L29,56.4z M29.2,54.9L29,55.1c-0.2-0.3-0.5-0.6-0.8-0.8l0.2-0.2
	C28.8,54.3,29,54.6,29.2,54.9z M32.4,57.1L30.8,57c-0.4,0.7-0.8,1.3-1.3,1.9c0.7,0,1.4-0.1,2.1-0.2c-0.1-0.3-0.3-0.7-0.5-1l0.2-0.1
	c0.3,0.6,0.6,1.3,0.8,1.9l-0.2,0.2c-0.1-0.2-0.1-0.5-0.2-0.7c-0.9,0.1-1.7,0.2-2.6,0.2L29,58.9c0.3-0.2,0.5-0.4,0.7-0.7
	c0.3-0.4,0.5-0.8,0.8-1.3l-1.3-0.1v-0.3l1.5,0.1l0.1-1.2l-1.2-0.1v-0.3l1.2,0.1l0.1-0.9h0.3L31,55.2l1.2,0.1v0.3L31,55.5l0,1.2
	l1.4,0.1L32.4,57.1z"/>
<path class="st0" d="M34.1,56.2c0.3,0.4,0.5,0.8,0.6,1.3c0,0.2,0,0.3-0.1,0.5c-0.1,0.1-0.2,0.2-0.5,0.2h-0.2l-0.1-0.3H34
	c0.1,0,0.2,0,0.3-0.1c0-0.1,0-0.2,0-0.2c-0.1-0.5-0.3-0.9-0.6-1.3c0.1-0.4,0.2-0.9,0.2-1.5l-0.8,0.1l0.5,4.8h-0.3L33,54.5l1.3-0.1
	v0.3C34.3,55.2,34.2,55.7,34.1,56.2z M37.4,55.8h-0.3l-0.1-0.9l-2.2,0.2L35,56h-0.3l-0.1-1.2l1.2-0.1c-0.1-0.2-0.1-0.4-0.2-0.5
	l0.3-0.1c0.1,0.2,0.2,0.4,0.2,0.6l1.2-0.1L37.4,55.8z M37.7,58c0,0.2,0,0.5,0,0.7c0,0.1-0.1,0.2-0.2,0.3c-0.1,0.1-0.3,0.1-0.5,0.1
	c-0.3,0-0.5-0.1-0.5-0.3L36.4,57l-0.6,0.1c0.1,0.5,0,1-0.2,1.5c-0.2,0.4-0.5,0.7-0.8,0.9l-0.2-0.2c0.3-0.2,0.6-0.5,0.8-0.8
	c0.2-0.4,0.2-0.9,0.2-1.3l-0.8,0.1v-0.3l2.7-0.3v0.3L36.7,57l0.2,1.8c0,0,0,0.1,0,0.1c0,0,0.1,0,0.2,0c0.1,0,0.2,0,0.2,0
	c0,0,0.1,0,0.1-0.1c0-0.1,0-0.2,0-0.3c0-0.2,0-0.3,0-0.5L37.7,58z M36.9,56l-1.8,0.2v-0.3l1.7-0.2L36.9,56z"/>
<path class="st0" d="M39.8,54.2l-0.6,0.2l0.2,0.5L39.1,55L39,54.4l-1.2,0.4l-0.1-0.3l1.2-0.4l-0.2-0.6l0.2-0.1l0.2,0.6l0.6-0.2
	L39.8,54.2z M39.6,55.1c0,0.3-0.1,0.6-0.2,0.9l0.8,2.6L40,58.7l-0.7-2.2c-0.1,0.3-0.3,0.7-0.5,1l-0.3-0.2c0.5-0.7,0.7-1.4,0.8-2.2
	L39.6,55.1z M42.1,53.4l-1.2,0.4l0.2,0.6l-0.3,0.1l-0.2-0.6L40,54.1l-0.1-0.3l0.6-0.2L40.4,53l0.3-0.1l0.2,0.6l1.2-0.4L42.1,53.4z
	 M43,56.3c0.1,0.3,0.2,0.6,0.2,0.9c0,0.1,0,0.2-0.1,0.3c-0.2,0.1-0.5,0.2-0.7,0.3C42,58,41.7,58,41.5,58c-0.1,0-0.2-0.1-0.2-0.3
	l-0.9-2.9l0.3-0.1l0.3,1l1.7-0.5l0.1,0.3L40.9,56l0.5,1.7c0,0.1,0.1,0.1,0.1,0.1c0.2,0,0.4-0.1,0.6-0.2c0.2-0.1,0.4-0.1,0.7-0.2
	c0,0,0-0.2,0-0.3s-0.1-0.4-0.2-0.7L43,56.3z"/>
<path class="st0" d="M44.1,52.1l-0.6,0.3l0.2,0.4l-0.2,0.1l-0.2-0.4l-1,0.6l-0.1-0.2l1.1-0.6L43,51.9l0.2-0.1l0.2,0.4l0.6-0.3
	L44.1,52.1z M43.8,53.4l-0.1,0.3c-0.3-0.1-0.6-0.2-0.9-0.2v-0.3C43.1,53.2,43.4,53.3,43.8,53.4z M48.2,54.4l0.1,0.3
	c-0.6,0.3-1.2,0.7-1.8,1C46.1,56,45.5,56.1,45,56c0,0.3-0.1,0.6-0.3,0.9l-0.2-0.1c0.3-0.5,0.4-1.2,0.2-1.8l-0.8,0.5l-0.1-0.2
	c0.1-0.5,0.1-0.9,0.2-1.2l-0.7,0.4l-0.1-0.2l1-0.6l0.1,0.2c-0.1,0.5-0.1,0.9-0.2,1.2l0.7-0.4l0.1,0.2c0.1,0.3,0.1,0.6,0.1,0.9
	c0.5,0.1,1,0,1.5-0.3L48.2,54.4z M47.9,54l-1.2,0.7l0.2,0.3l-0.2,0.1l-0.2-0.3l-1.2,0.7l-0.1-0.2l1.2-0.7l-0.2-0.3l-1,0.5l-0.8-1.4
	l1-0.6l-0.2-0.3L44,53.2L43.8,53l1.2-0.7l-0.1-0.2l0.2-0.1l0.1,0.2l1.2-0.7l0.1,0.2l-1.2,0.7l0.2,0.3l1-0.6l0.8,1.4l-1,0.6l0.2,0.3
	l1.2-0.7L47.9,54z M46.2,50.9l-1,0.6l0.1,0.2l-0.2,0.1l-0.1-0.2L44.4,52l-0.1-0.2l0.6-0.3L44.5,51l0.2-0.1l0.2,0.4l1-0.6L46.2,50.9z
	 M45.7,53.5l-0.2-0.4l-0.7,0.4l0.2,0.4L45.7,53.5z M46,54l-0.2-0.4L45,54l0.2,0.4L46,54z M46.6,52.9l-0.2-0.4l-0.7,0.4l0.2,0.4
	L46.6,52.9z M47,53.4l-0.2-0.4L46,53.5l0.2,0.4L47,53.4z"/>
<path class="st0" d="M47.4,49c0.4,0.9,0.6,2,0.4,3l-0.3-0.1c0.1-0.9,0-1.9-0.4-2.8L47.4,49z M50.9,48.8v0.3c-0.9,0-1.8-0.2-2.5-0.7
	L48,48.7l-0.2-0.2l0.4-0.4C49,48.6,49.9,48.9,50.9,48.8L50.9,48.8z M50.2,49.3c0.4,0.5,0.8,0.9,1.1,1.3c0.2,0.3,0.4,0.5,0.5,0.8
	c0,0.1,0,0.2,0,0.3c-0.1,0.2-0.2,0.3-0.3,0.4l-0.3,0.3l-0.3-0.2c0.1-0.1,0.3-0.2,0.4-0.3c0.1-0.1,0.1-0.1,0.2-0.2c0,0,0-0.1,0-0.2
	c0-0.1-0.1-0.3-0.2-0.4c-0.1-0.2-0.3-0.4-0.5-0.7s-0.4-0.5-0.7-0.8l-1,0.9c0.7,0.9,0.9,2.1,0.6,3.2l-0.3-0.1c0.3-1,0.1-2.1-0.5-2.9
	l-0.7,0.7L48,51.3L50.2,49.3z"/>
<path class="st0" d="M51.6,47.2c0.5,0,1,0.2,1.4,0.5c0.1,0.1,0.2,0.2,0.3,0.4c0,0.2,0,0.4-0.2,0.5c0,0.1-0.1,0.1-0.1,0.2l-0.3-0.1
	l0.2-0.2c0.1-0.1,0.1-0.2,0.1-0.3c0-0.1-0.1-0.1-0.1-0.2c-0.4-0.3-0.9-0.4-1.3-0.5c-0.2-0.3-0.6-0.7-0.9-1.2L50,46.9l3.8,2.9
	L53.7,50l-4.1-3.1l0.8-1l0.2,0.2C51,46.4,51.3,46.8,51.6,47.2z M53.6,44.5l-0.2,0.2l-0.7-0.5L51.3,46l0.7,0.5l-0.2,0.2l-1-0.7l0.7-1
	c-0.2-0.1-0.4-0.1-0.5-0.2l0.1-0.3c0.2,0.1,0.4,0.1,0.6,0.2l0.7-1L53.6,44.5z M53.4,45l-1.1,1.4l-0.2-0.2l1.1-1.4L53.4,45z
	 M55.4,45.8c0.2,0.1,0.4,0.3,0.5,0.5c0.1,0.1,0.1,0.2,0.2,0.3c0,0.2-0.1,0.3-0.2,0.5c-0.2,0.2-0.4,0.3-0.6,0.1l-1.5-1.1l-0.3,0.5
	c0.4,0.3,0.8,0.7,1,1.2c0.1,0.4,0.2,0.8,0.1,1.2h-0.3c0.1-0.4,0.1-0.8,0-1.1c-0.2-0.4-0.5-0.8-0.8-1l-0.5,0.6l-0.2-0.2l1.7-2.2
	l0.2,0.2l-0.5,0.7l1.3,1.1c0,0,0.1,0,0.1,0c0,0,0.1,0,0.2-0.2c0.1-0.1,0.1-0.1,0.1-0.2c0,0,0-0.1,0-0.1c-0.1-0.1-0.1-0.2-0.2-0.2
	c-0.1-0.1-0.3-0.2-0.4-0.3L55.4,45.8z"/>
<path class="st3" d="M9.7,37.2l0.1,0.4l-3.5,0.9l0.2,0.6l-0.6,0.2l-0.4-1.7L6,37.5l0.2,0.6L9.7,37.2z"/>
<path class="st3" d="M8.4,35.9l1,0.1l0.1,0.5L5,36.1v-0.4L9.1,34l0.1,0.5l-0.9,0.4L8.4,35.9z M6,35.8l1.8,0.1l-0.1-0.8L6,35.8z"/>
<path class="st3" d="M9.1,33.2v0.5L4.8,34v-0.5L9.1,33.2z"/>
<path class="st3" d="M7.9,31.7L4.7,31v-0.3l3.2-0.6l-3.1-0.7V29l4.3,1.1v0.4L6.2,31l2.9,0.6V32l-4.3,0.8v-0.5L7.9,31.7z"/>
<path class="st3" d="M8.2,28.1l0.9,0.4L9.1,29l-4.1-1.8L5,26.8l4.5-0.4L9.4,27l-1,0.1L8.2,28.1z M6,27.2l1.7,0.7l0.1-0.8L6,27.2z"/>
<path class="st3" d="M5.3,25l0.1-0.4L9,24l-3-0.9l0.1-0.5l4.2,1.2l-0.1,0.4l-3.5,0.7l3,0.9l-0.1,0.5L5.3,25z"/>
<path class="st3" d="M9.5,19.1L8,18.4L8.2,18l3.8,1.9l-0.2,0.4L10,19.4l-0.5,1l1.8,0.9L11,21.8l-3.8-1.9l0.2-0.4L9,20.2L9.5,19.1z"
	/>
<path class="st3" d="M12.5,19l-0.2,0.4l-3.6-2.2l0.2-0.4L12.5,19z"/>
<path class="st3" d="M12.4,15.2L12.4,15.2c0.6,0.4,0.9,0.8,1.2,1.3c0.2,0.4,0.2,0.8-0.1,1.1c-0.3,0.3-0.7,0.5-1.1,0.4
	c-0.5-0.1-1.1-0.3-1.5-0.6c-0.5-0.3-0.8-0.7-1.1-1.3C9.7,15.8,9.8,15.3,10,15c0.3-0.4,0.8-0.5,1.5-0.3v0.6c-0.5-0.2-0.8-0.1-1,0.1
	c-0.2,0.2-0.2,0.6,0,0.8c0.4,0.7,1.1,1.2,1.8,1.3c0.3,0.1,0.6,0,0.7-0.2c0.1-0.2,0.1-0.4,0-0.6c-0.1-0.3-0.3-0.5-0.6-0.6l-0.4,0.6
	l-0.4-0.3L12.4,15.2z"/>
<path class="st3" d="M13.8,13.3l-1.3-1.2l0.3-0.4l3.2,2.9L15.7,15l-1.4-1.3l-0.8,0.9l1.4,1.3l-0.3,0.4l-3.1-2.9l0.3-0.4l1.3,1.2
	L13.8,13.3z"/>
<path class="st3" d="M17.1,9.5c-0.3-0.2-0.7-0.1-0.9,0.2c-0.1,0.2-0.2,0.4-0.1,0.6c0.1,0.4,0.2,0.7,0.5,1c0.2,0.3,0.5,0.5,0.9,0.7
	c0.2,0.1,0.6,0.1,0.8,0c0.2-0.2,0.3-0.5,0.2-0.7L19,12c-0.1,0.2-0.2,0.4-0.4,0.6c-0.4,0.2-0.8,0.3-1.2,0.1c-0.5-0.2-0.9-0.6-1.3-1
	c-0.4-0.4-0.6-1-0.6-1.5c-0.1-0.4,0-0.9,0.4-1.2c0.2-0.1,0.4-0.2,0.7-0.2L17.1,9.5z"/>
<path class="st3" d="M18.3,10c-0.3-0.5-0.5-1-0.5-1.6c0-0.6,0.4-1.1,1-1.2c0.3,0,0.5,0,0.7,0.2c0.5,0.3,0.9,0.7,1.1,1.2
	c0.3,0.5,0.5,1,0.5,1.6c0,0.4-0.2,0.8-0.5,1.1c-0.4,0.2-0.8,0.2-1.2,0C18.9,10.9,18.5,10.5,18.3,10z M18.7,9.7
	c0.2,0.3,0.5,0.6,0.8,0.8c0.2,0.2,0.5,0.2,0.8,0.1c0.2-0.2,0.4-0.4,0.3-0.7c0-0.4-0.1-0.8-0.4-1.1c-0.2-0.3-0.4-0.6-0.8-0.8
	c-0.3-0.2-0.8-0.1-1,0.2c-0.1,0.1-0.1,0.3-0.1,0.5C18.4,9.1,18.5,9.4,18.7,9.7L18.7,9.7z"/>
<path class="st3" d="M20.4,6.4l0.5-0.2l1,2.2c0.4,0.8,0.7,1.2,1.1,1c0.4-0.2,0.4-0.6,0-1.5l-1-2.2l0.4-0.2l1,2.3
	c0.5,1.1,0.4,1.8-0.2,2.1s-1.2-0.1-1.7-1.2L20.4,6.4z"/>
<path class="st3" d="M26.3,8.6l-0.6,0.2l-1.4-1.6L25,9.1l-0.5,0.1l-1.3-4L23.9,5c0.6-0.2,1,0.1,1.3,0.9c0.1,0.3,0.1,0.5,0.1,0.8
	c0,0.2-0.1,0.4-0.3,0.5L26.3,8.6z M24.3,7h0.1c0.4-0.1,0.5-0.4,0.3-0.9S24.4,5.5,24,5.6l-0.1,0.1L24.3,7z"/>
<path class="st3" d="M27.5,8.4L27,8.5l-0.8-3.6l-0.6,0.2l-0.1-0.6l1.7-0.4l0.1,0.6l-0.6,0.1L27.5,8.4z"/>
<path class="st3" d="M31.5,5.3l-0.1-1.7h0.5l0.3,4.2h-0.5l-0.1-1.9L30.3,6l0.1,2H30l-0.3-4.3h0.5l0.1,1.7L31.5,5.3z"/>
<path class="st3" d="M32.8,3.5h0.5l-0.1,2.4c0,0.9,0.1,1.4,0.5,1.4s0.6-0.4,0.6-1.3l0.1-2.4h0.5l-0.1,2.6c0,1.2-0.4,1.8-1.1,1.8
	s-1-0.7-1-1.9L32.8,3.5z"/>
<path class="st3" d="M35.9,7.1L35.5,8L35,7.9l1.8-4.1l0.4,0.1l0.4,4.5l-0.5-0.1l-0.1-1L35.9,7.1z M36.8,4.8l-0.7,1.7L37,6.7
	L36.8,4.8z"/>
<path class="st3" d="M38.5,7.9l0.8,0.2l-0.2,0.6l-1.3-0.3l1-4.1l0.5,0.1L38.5,7.9z"/>
<path class="st3" d="M39.9,8.9l-0.5-0.1l1.3-4.1l0.5,0.1L39.9,8.9z"/>
<path class="st3" d="M42.1,5.8l-0.4,1l0.9,0.3l-0.2,0.6l-0.9-0.3L41,8.7L41.9,9l-0.2,0.6l-1.4-0.5l1.5-4l1.4,0.5L43,6.2L42.1,5.8z"
	/>
<path class="st3" d="M44.1,5.9L44.4,6v3.6l1.4-2.8l0.4,0.2l-1.9,3.9L44,10.8V7.2L42.6,10l-0.4-0.2L44.1,5.9z"/>
<path class="st3" d="M48.7,8.6l0.5,0.4c0.5,0.4,0.5,0.8,0,1.4c-0.2,0.2-0.4,0.4-0.7,0.5c0.1,0.1,0.1,0.3,0.1,0.5
	c-0.1,0.2-0.2,0.5-0.3,0.6c-0.2,0.3-0.4,0.5-0.7,0.6c-0.2,0.1-0.5,0-0.7-0.1L46.2,12L48.7,8.6z M46.9,11.9l0.2,0.2
	c0.3,0.2,0.6,0.1,0.9-0.2c0.2-0.2,0.2-0.6,0-0.8c0,0,0,0-0.1,0l-0.2-0.1L46.9,11.9z M48,10.4l0.2,0.1c0.2,0.2,0.4,0.1,0.7-0.2
	s0.3-0.6,0.1-0.8l-0.2-0.1L48,10.4z"/>
<path class="st3" d="M49.3,14.6l-0.4-0.4l0.7-1.9l-1.3,1.4l-0.4-0.3l2.9-3.2l0.6,0.5c0.5,0.4,0.4,1-0.2,1.6
	c-0.2,0.2-0.4,0.4-0.7,0.5c-0.2,0.1-0.4,0.1-0.6,0L49.3,14.6z M49.8,12.1l0.1,0.1c0.3,0.3,0.6,0.2,1-0.2s0.3-0.7,0-0.9L50.7,11
	L49.8,12.1z"/>
<path class="st3" d="M50.6,14.6l-0.9,0.4l-0.3-0.4l4-2.1l0.3,0.3l-2.5,3.7l-0.3-0.4l0.5-0.8L50.6,14.6z M52.7,13.4l-1.6,0.9l0.6,0.6
	L52.7,13.4z"/>
<path class="st3" d="M54.9,14.4l0.2,0.3l-1.7,3.2l2.5-1.8l0.3,0.4l-3.5,2.5l-0.2-0.3l1.7-3.2l-2.5,1.8l-0.3-0.4L54.9,14.4z"/>
<path class="st3" d="M56.7,19.5c0.2-0.2,0.2-0.5,0.1-0.8c-0.2-0.2-0.4-0.4-0.7-0.3c-0.4,0-0.8,0.1-1.1,0.3c-0.3,0.2-0.6,0.4-0.8,0.7
	c-0.2,0.2-0.2,0.5-0.1,0.8c0.2,0.2,0.4,0.4,0.7,0.3L54,20.9c-0.2-0.1-0.4-0.2-0.5-0.4c-0.2-0.4-0.2-0.8,0.1-1.2
	c0.3-0.5,0.7-0.9,1.2-1.1c0.5-0.3,1-0.4,1.6-0.4c0.4,0,0.8,0.2,1.1,0.6c0.1,0.2,0.1,0.4,0.1,0.7L56.7,19.5z"/>
<path class="st3" d="M57.1,22l1.6-0.7l0.2,0.5l-3.9,1.6L54.7,23l1.8-0.8l-0.5-1.1l-1.8,0.8l-0.2-0.5l3.9-1.7l0.2,0.5l-1.6,0.7
	L57.1,22z"/>
<path class="st3" d="M59.1,26.6c0.2-0.2,0.3-0.4,0.3-0.7c-0.1-0.3-0.3-0.5-0.6-0.5c-0.4-0.1-0.8-0.1-1.1,0c-0.4,0.1-0.7,0.2-1,0.5
	c-0.2,0.2-0.4,0.5-0.3,0.7c0.1,0.3,0.3,0.5,0.6,0.5l-0.8,0.2c-0.2-0.1-0.3-0.4-0.4-0.6c-0.1-0.4,0.1-0.8,0.4-1.1
	c0.4-0.4,0.9-0.6,1.4-0.7c0.5-0.1,1.1-0.1,1.7,0c0.4,0.1,0.8,0.4,0.9,0.8c0,0.2,0,0.5-0.1,0.7L59.1,26.6z"/>
<path class="st3" d="M58.2,27.5c0.6-0.1,1.1,0,1.6,0.2c0.4,0.2,0.7,0.5,0.8,0.9c0,0.4-0.2,0.8-0.5,1.1c-0.4,0.3-1,0.5-1.5,0.6
	c-0.6,0.1-1.1,0-1.7-0.3c-0.4-0.1-0.7-0.5-0.8-0.9c0-0.4,0.2-0.8,0.5-1.1C57.1,27.7,57.6,27.5,58.2,27.5z M58.2,28
	c-0.4,0-0.8,0.2-1.1,0.4c-0.3,0.1-0.4,0.4-0.4,0.7c0,0.3,0.2,0.5,0.5,0.6c0.4,0.1,0.8,0.2,1.1,0.1c0.4,0,0.7-0.1,1-0.4
	c0.2-0.1,0.4-0.4,0.4-0.7c0-0.3-0.2-0.5-0.5-0.6C59,28,58.6,27.9,58.2,28L58.2,28z"/>
<path class="st3" d="M60.6,30.9v0.5l-2.4,0c-0.9,0-1.4,0.2-1.4,0.6s0.4,0.6,1.4,0.6h2.4V33H58c-1.2,0-1.8-0.4-1.8-1.1s0.6-1,1.8-1
	L60.6,30.9z"/>
<path class="st3" d="M56,35.3l0.1-0.6l2-0.6L56.2,34v-0.5l4.2,0.5l-0.1,0.8c-0.1,0.6-0.5,0.9-1.4,0.8c-0.3,0-0.5-0.1-0.8-0.3
	c-0.2-0.1-0.3-0.3-0.3-0.5L56,35.3z M58.3,34.2v0.2c0,0.4,0.2,0.6,0.7,0.7s0.8-0.1,0.8-0.5v-0.2L58.3,34.2z"/>
<path class="st3" d="M55.8,36.5l0.1-0.4l3.6,0.7l0.1-0.6l0.6,0.1L59.8,38l-0.6-0.1l0.1-0.6L55.8,36.5z"/>
</svg>
