<?xml version="1.0" encoding="utf-8"?>
<!-- Generator: Adobe Illustrator 27.8.1, SVG Export Plug-In . SVG Version: 6.00 Build 0)  -->
<svg version="1.1" id="圖層_1" xmlns="http://www.w3.org/2000/svg" xmlns:xlink="http://www.w3.org/1999/xlink" x="0px" y="0px"
	 viewBox="0 0 270.8 64" style="enable-background:new 0 0 270.8 64;" xml:space="preserve">
<style type="text/css">
	.st0{fill:#FFFFFF;}
	.st1{fill:url(#SVGID_1_);}
	.st2{fill:#005BAB;}
	.st3{fill:#B7A246;}
</style>
<path class="st0" d="M77.5,25.2H88v10.6h-1.8v-1h-6.9v1.1h-1.7V27l-0.9,1.5c-0.4-0.6-1.2-1.7-1.8-2.5v9.9H73v-8.6
	c-0.7,0.9-1.5,1.7-2.4,2.5c-0.2-0.7-0.5-1.4-0.9-2.1c2.4-1.9,4.3-4.5,5.4-7.4h-4.7v-2h5.7l0.3-0.1l1,0.8c-0.6,1.7-1.3,3.4-2.2,5
	c0.6,0.6,1.7,1.8,2.3,2.4L77.5,25.2z M73.3,18.2c-0.4-1.2-1-2.4-1.5-3.5l1.5-0.8c0.6,1.1,1.1,2.2,1.6,3.4L73.3,18.2z M88.1,15v1.9
	H77.4V15H88.1z M87.1,18.2V24h-8.5v-5.8L87.1,18.2z M79.2,27.1v2.1h2.6v-2.1L79.2,27.1z M79.2,33h2.6v-2.2h-2.6L79.2,33z M85.3,20
	h-5.1v2.2h5.2L85.3,20z M86.2,27.1h-2.7v2.1h2.7L86.2,27.1z M86.2,33v-2.2h-2.7V33L86.2,33z"/>
<path class="st0" d="M96.2,22.2c-0.2,2.9-0.7,5.7-1.7,8.5c1.9,2.1,4.6,2.6,7.7,2.6c1,0,5.2,0,6.3,0c-0.3,0.6-0.6,1.3-0.7,2h-5.7
	c-3.5,0-6.3-0.5-8.4-2.8c-0.6,1.2-1.4,2.3-2.3,3.2c-0.4-0.6-0.9-1.1-1.4-1.5c1.1-0.9,1.9-2.1,2.5-3.4c-0.8-1.4-1.4-3-1.8-4.6
	l1.4-0.6c0.3,1.1,0.6,2.2,1.1,3.2c0.5-1.6,0.8-3.3,1-5h-3.2c0.8-1.8,1.9-4.4,2.8-6.7h-3.3v-2h5.8c-0.8,2.1-1.8,4.6-2.7,6.7h1
	l0.3-0.1L96.2,22.2z M100.8,17.6h-3.6v-1.8h3.6V14h1.7v1.9h4.3V19h1.2v1.8h-1.2V24h-4.3v1.5h4.7v1.7h-4.7v1.6h5.3v1.8h-5.3v2h-1.7
	v-2h-4.7v-1.8h4.7v-1.6h-3.9v-1.7h3.9V24h-3.7v-1.8h3.7v-1.5H96V19h4.8L100.8,17.6z M102.5,17.6V19h2.7v-1.4H102.5z M105.2,20.8
	h-2.7v1.5h2.7V20.8z"/>
<path class="st0" d="M128,16.3v1.9h-17.4v-1.9h8c-0.2-0.6-0.4-1.4-0.6-2l1.9-0.5c0.3,0.8,0.6,1.7,0.8,2.5L128,16.3z M127.5,33.7
	c0,1.1-0.2,1.5-0.8,1.8c-0.9,0.3-1.9,0.4-2.9,0.3c-0.1-0.6-0.3-1.1-0.6-1.7c0.8,0,1.8,0,2.1,0s0.4-0.1,0.4-0.4v-6.4H113v8.7h-1.8
	V25.4h16.3V33.7z M125.5,19.3v4.9h-12v-4.9L125.5,19.3z M116.7,33.5v1.1H115v-6.2h8.5v5.1H116.7z M123.5,20.9h-8.2v1.8h8.2V20.9z
	 M116.7,30v1.9h5.1V30H116.7z"/>
<path class="st0" d="M133.4,17.4c-0.5,1-1.2,1.9-1.9,2.8c-0.4-0.5-0.8-1.1-1.3-1.5c1.4-1.4,2.4-3.1,3-4.9l1.7,0.6
	c-0.2,0.4-0.3,0.8-0.5,1.2h4.9v1.9h-3.3c0.6,0.6,1.1,1.2,1.6,1.9l-1.2,1.3c-0.6-0.9-1.3-1.7-2-2.4l0.7-0.7H133.4z M144.3,28.3h3.9
	v1.8h-3.9v3.6c0,1.1-0.2,1.7-1,1.9c-1.2,0.3-2.4,0.3-3.6,0.3c-0.1-0.6-0.3-1.2-0.5-1.8c0.9,0,1.8,0,2.7,0c0.3,0,0.4-0.1,0.4-0.5
	v-3.5h-7.2c1.1,1.1,2.2,2.2,3.2,3.4l-1.4,1.3c-1-1.3-2-2.5-3.2-3.6l1.2-1.1h-4.5v-1.8h11.8v-1.5h1.9L144.3,28.3z M148.5,15.5v1.9h-4
	c0.6,0.6,1.1,1.3,1.6,2.1l-1.3,1.3c-0.5-0.9-1.1-1.8-1.9-2.6l0.8-0.8H142c-0.4,1-1,2-1.6,2.9l-0.1-0.1v0.7h7.2v1.9h-7.2v1.8h6v1.8
	h-14v-1.8h6.1v-1.8h-7.1v-1.9h7.1v-1.3h1.3c-0.2-0.2-0.4-0.4-0.7-0.5c1.2-1.6,2-3.3,2.5-5.3l1.7,0.5c-0.1,0.5-0.2,0.9-0.4,1.3
	L148.5,15.5z"/>
<path class="st0" d="M154,24.8c-1.1-1-2.4-1.9-3.7-2.6l1-1.7c1.3,0.6,2.6,1.5,3.7,2.4L154,24.8z M151,34.1c1.4-2.5,2.7-5,3.8-7.6
	l1.3,1.5c-1,2.5-2.4,5.4-3.5,7.6L151,34.1z M152.5,14.1c1.3,0.7,2.6,1.5,3.8,2.5l-1.1,1.9c-1.1-1.1-2.4-2-3.7-2.7L152.5,14.1z
	 M166.7,35.8c-0.2-0.8-0.5-1.5-0.8-2.3c-7.1,1-8,1.2-8.6,1.6c-0.1-0.5-0.4-1.6-0.6-2.2c0.4-0.1,0.8-0.7,1.3-1.6
	c1-1.8,1.8-3.6,2.5-5.5h-4.1v-2.1h5v-3.9h-4.1v-2.1h4.1v-3.9h1.9v3.9h4.3v2.1h-4.3v3.9h5v2.1h-5.5c-0.9,2.3-2,4.5-3.2,6.6l5.6-0.7
	c-0.5-1-1-1.9-1.6-2.8l1.5-0.9c1.4,2.1,2.6,4.4,3.4,6.8L166.7,35.8z"/>
<path class="st0" d="M177,15.6c-0.6,2-1.3,4.3-1.9,6.2c1.1,1.5,1.6,3.3,1.6,5.1c0.1,1-0.2,2.1-0.8,2.9c-0.3,0.3-0.7,0.4-1.1,0.5
	c-0.4,0-0.9,0-1.3,0c0-0.7-0.2-1.3-0.4-1.9c0.3,0,0.7,0,1,0c0.2,0,0.4-0.1,0.6-0.2c0.3-0.5,0.5-1,0.4-1.6c0-1.7-0.6-3.3-1.6-4.6
	c0.5-1.6,1-3.6,1.4-5.2h-2.2v19H171v-21h4.5l0.3-0.1L177,15.6z M186.7,33.7c0.4,0,0.5-0.4,0.5-3c0.5,0.4,1,0.7,1.6,0.8
	c-0.2,3.2-0.6,4-1.9,4h-1.6c-1.5,0-1.9-0.6-1.9-2.6v-5.6h-1.8c-0.3,4.2-1.3,7-5.1,8.6c-0.3-0.6-0.6-1.2-1.1-1.8
	c3.3-1.3,4.1-3.4,4.3-6.8h-2.6v-2h11.3v2h-3.4v5.6c0,0.7,0.1,0.7,0.4,0.7H186.7z M178.8,21.2h-1.6v-4.4h4.9
	c-0.3-0.8-0.6-1.7-0.9-2.5l1.7-0.6c0.5,1,0.9,2,1.2,3.1h4.4v4.4h-1.6V23h-8.1V21.2z M178.9,18.7V21h7.7v-2.3L178.9,18.7z"/>
<path class="st0" d="M200.4,23v2.9h6.7v2h-6.7v5.4h7.7v2h-17.2v-2h7.5v-5.4h-6.6v-2h6.6V23h-4.2v-1.3c-0.9,0.6-1.9,1.1-2.9,1.5
	c-0.3-0.7-0.7-1.4-1.2-2.1c3.9-1.3,7.2-4,9.3-7.5l1.7,0.9c-0.2,0.3-0.3,0.6-0.5,0.9c2.3,2.6,5.1,4.5,8.3,5.7c-0.5,0.6-0.9,1.2-1.3,2
	c-1-0.5-2.1-1-3-1.7V23H200.4z M194.9,28.2c0.8,1.3,1.4,2.7,1.9,4.2l-1.6,0.8c-0.4-1.5-1-2.9-1.8-4.3L194.9,28.2z M203.8,20.9
	c-1.6-1.1-3-2.4-4.2-3.9c-1.1,1.5-2.5,2.8-4,3.9L203.8,20.9z M202,32.4c0.8-1.4,1.4-2.8,1.9-4.3l1.8,0.8c-0.8,1.5-1.6,3.1-2.3,4.2
	L202,32.4z"/>
<path class="st0" d="M218.7,23.8h-5.5v12h-1.9v-21h7.3V23.8z M213.2,16.8v1.7h3.7v-1.7H213.2z M216.9,22v-1.9h-3.7V22H216.9z
	 M227.9,33c0,1.4-0.3,2.1-1,2.5c-1.3,0.4-2.6,0.5-3.9,0.4c-0.1-0.8-0.3-1.6-0.7-2.3c1.3,0.1,2.7,0,3.1,0s0.5-0.2,0.5-0.6v-9.1h-5.7
	v-8.9h7.6V33z M222.1,16.8v1.7h3.9v-1.7L222.1,16.8z M226,22v-1.9h-3.9V22H226z"/>
<path class="st0" d="M243.3,14.3c0.9,3.6,3,7,5.7,8.8c-0.5,0.6-1,1.3-1.4,2c-0.7-0.5-1.3-1.1-1.8-1.7c0,0.1,0,0.3,0,0.4
	c-0.3,7.3-0.5,10.1-1.2,11c-0.4,0.6-1,1-1.6,1c-1,0.1-2.1,0.1-3.1,0c-0.1-0.8-0.3-1.6-0.6-2.3c0.9,0.1,1.9,0.2,2.8,0.2
	c0.3,0,0.6-0.1,0.8-0.3c0.5-0.6,0.7-2.8,0.9-8.4h-4.6c-0.5,4.7-1.8,8.9-7,11.1c-0.3-0.7-0.7-1.4-1.2-2c4.6-1.8,5.7-5.3,6.1-9.1h-3.8
	v-1.6c-0.5,0.7-1,1.3-1.6,1.9c-0.5-0.6-1-1.2-1.6-1.7c2.5-2.4,4.3-5.4,5.1-8.8l1.9,0.6c-0.7,2.7-1.9,5.2-3.4,7.5h11.5
	c-1.5-1.9-2.7-4.1-3.4-6.4h-3.4v-2.1H243.3z"/>
<path class="st0" d="M257.1,15.6c-0.6,2-1.3,4.3-1.9,6.2c1.1,1.5,1.6,3.3,1.6,5.1c0.1,1-0.2,2.1-0.8,2.9c-0.3,0.3-0.7,0.4-1.1,0.5
	c-0.4,0-0.9,0-1.3,0c0-0.7-0.2-1.3-0.4-1.9c0.3,0,0.7,0,1,0c0.2,0,0.4-0.1,0.6-0.2c0.3-0.5,0.5-1,0.4-1.6c0-1.7-0.6-3.3-1.6-4.6
	c0.5-1.6,1-3.6,1.4-5.2h-2.2v19h-1.7v-21h4.5l0.3-0.1L257.1,15.6z M266.9,33.7c0.4,0,0.5-0.4,0.5-3c0.5,0.4,1,0.7,1.6,0.8
	c-0.2,3.2-0.6,4-1.9,4h-1.6c-1.5,0-1.9-0.6-1.9-2.6v-5.6h-1.8c-0.3,4.2-1.3,7-5.1,8.6c-0.3-0.6-0.6-1.2-1.1-1.8
	c3.3-1.3,4.1-3.4,4.3-6.8h-2.6v-2h11.3v2h-3.4v5.6c0,0.7,0.1,0.7,0.4,0.7H266.9z M258.9,21.2h-1.6v-4.4h4.9
	c-0.3-0.8-0.6-1.7-0.9-2.5l1.7-0.6c0.5,1,0.9,2,1.2,3.1h4.4v4.4H267V23h-8.1L258.9,21.2z M259.1,18.7V21h7.7v-2.3L259.1,18.7z"/>
<path class="st0" d="M72.5,44.2h3.8V45h-3v2.5h3v0.8h-3v3.9h-0.8L72.5,44.2z"/>
<path class="st0" d="M77.1,46.2h0.7V49c0,0.5,0,0.9,0.1,1.4c0.1,0.3,0.3,0.6,0.6,0.8c0.6,0.4,1.4,0.4,2.1,0c0.3-0.2,0.5-0.5,0.6-0.8
	c0.1-0.5,0.1-0.9,0.1-1.4v-2.8H82v2.9c0,0.6-0.1,1.2-0.3,1.8c-0.2,0.4-0.5,0.8-0.8,1c-0.9,0.5-1.9,0.5-2.7,0c-0.4-0.2-0.7-0.6-0.8-1
	c-0.2-0.6-0.3-1.3-0.3-1.9V46.2z"/>
<path class="st0" d="M88.8,47.4l-0.6,0.4c-0.5-0.6-1.2-1-2-1c-1.3,0-2.3,1-2.4,2.3c0,0,0,0.1,0,0.1c0,0.4,0.1,0.8,0.3,1.2
	c0.2,0.4,0.5,0.7,0.9,0.9c0.4,0.2,0.8,0.3,1.2,0.3c0.8,0,1.5-0.4,2-1l0.6,0.4c-0.3,0.4-0.6,0.8-1.1,1c-0.5,0.2-1,0.4-1.6,0.3
	c-0.8,0-1.6-0.3-2.2-0.9c-0.6-0.6-0.9-1.3-0.9-2.1c0-0.6,0.1-1.1,0.4-1.6c0.3-0.5,0.7-0.9,1.1-1.1c0.5-0.3,1-0.4,1.6-0.4
	c0.4,0,0.7,0.1,1.1,0.2c0.3,0.1,0.6,0.3,0.9,0.5C88.4,47,88.6,47.2,88.8,47.4z"/>
<path class="st0" d="M89.8,44h0.7v3.3c0.3-0.4,0.6-0.7,1-0.9c0.3-0.2,0.7-0.3,1.1-0.3c0.4,0,0.8,0.1,1.1,0.3
	c0.3,0.2,0.6,0.5,0.7,0.9c0.2,0.6,0.3,1.2,0.2,1.8v3H94v-2.8c0-0.5,0-0.9-0.1-1.3c-0.1-0.3-0.2-0.6-0.5-0.9
	c-0.3-0.2-0.6-0.3-0.9-0.3c-0.4,0-0.9,0.2-1.2,0.5c-0.3,0.3-0.6,0.7-0.7,1.1c-0.1,0.5-0.1,1.1-0.1,1.6v2.1h-0.7L89.8,44z"/>
<path class="st0" d="M96.2,43.8c0.2,0,0.3,0.1,0.4,0.2c0.1,0.1,0.2,0.3,0.2,0.4c0,0.2-0.1,0.3-0.2,0.4c-0.1,0.1-0.3,0.2-0.4,0.2
	c-0.2,0-0.3-0.1-0.4-0.2c-0.1-0.1-0.2-0.3-0.2-0.4c0-0.2,0.1-0.3,0.2-0.4C95.9,43.9,96.1,43.8,96.2,43.8z M95.9,46.2h0.7v5.8h-0.7
	V46.2z"/>
<path class="st0" d="M102.5,50.1l0.6,0.3c-0.2,0.4-0.4,0.7-0.7,1c-0.3,0.2-0.6,0.4-0.9,0.6c-0.4,0.1-0.7,0.2-1.1,0.2
	c-0.8,0-1.6-0.3-2.2-0.9c-0.5-0.6-0.8-1.3-0.8-2.1c0-0.7,0.2-1.4,0.7-2c0.5-0.7,1.3-1.1,2.2-1.1c0.9,0,1.8,0.4,2.3,1.1
	c0.4,0.6,0.6,1.3,0.6,2h-5.1c0,0.6,0.2,1.2,0.6,1.7c0.4,0.4,0.9,0.7,1.5,0.7c0.3,0,0.6-0.1,0.8-0.2c0.3-0.1,0.5-0.2,0.7-0.4
	C102.1,50.7,102.3,50.4,102.5,50.1z M102.5,48.6c-0.1-0.4-0.2-0.7-0.4-1c-0.2-0.2-0.4-0.4-0.7-0.6c-0.3-0.2-0.7-0.2-1-0.2
	c-0.5,0-1,0.2-1.4,0.5c-0.3,0.3-0.5,0.8-0.7,1.2L102.5,48.6z"/>
<path class="st0" d="M104.3,46.2h0.7v1c0.3-0.4,0.6-0.7,1-0.9c0.3-0.2,0.7-0.3,1.1-0.3c0.4,0,0.8,0.1,1.1,0.3
	c0.3,0.2,0.6,0.5,0.7,0.9c0.2,0.6,0.3,1.2,0.2,1.8v3h-0.7v-2.8c0-0.5,0-0.9-0.1-1.3c-0.1-0.3-0.2-0.6-0.5-0.9
	c-0.3-0.2-0.6-0.3-0.9-0.3c-0.4,0-0.9,0.2-1.2,0.5c-0.3,0.3-0.6,0.7-0.7,1.1c-0.1,0.5-0.1,1.1-0.1,1.6v2.1h-0.7L104.3,46.2z"/>
<path class="st0" d="M113.2,44.2h0.8v3.3h3.9v-3.3h0.8v7.9h-0.8v-3.8h-3.9v3.8h-0.8V44.2z"/>
<path class="st0" d="M120.2,43.8c0.2,0,0.3,0.1,0.4,0.2c0.1,0.1,0.2,0.3,0.2,0.4c0,0.2-0.1,0.3-0.2,0.4c-0.1,0.1-0.3,0.2-0.4,0.2
	c-0.2,0-0.3-0.1-0.4-0.2c-0.1-0.1-0.2-0.3-0.2-0.4c0-0.2,0.1-0.3,0.2-0.4C119.9,43.9,120,43.8,120.2,43.8z M119.8,46.2h0.7v5.8h-0.7
	V46.2z"/>
<path class="st0" d="M126.6,46.2h0.7v4.7c0,0.6,0,1.2-0.2,1.8c-0.2,0.5-0.5,1-1,1.2c-0.5,0.3-1.1,0.4-1.7,0.4
	c-0.4,0-0.9-0.1-1.3-0.2c-0.3-0.1-0.7-0.3-0.9-0.6c-0.3-0.3-0.5-0.6-0.7-1h0.8c0.2,0.4,0.5,0.7,0.8,0.9c0.4,0.2,0.8,0.3,1.3,0.3
	c0.4,0,0.9-0.1,1.2-0.3c0.3-0.2,0.6-0.4,0.7-0.7c0.2-0.4,0.2-0.9,0.2-1.4V51c-0.3,0.3-0.6,0.6-1,0.8c-0.4,0.2-0.8,0.3-1.2,0.3
	c-0.5,0-1-0.1-1.4-0.4c-0.4-0.3-0.8-0.6-1.1-1.1c-0.5-0.9-0.5-2.1,0-3c0.2-0.5,0.6-0.8,1.1-1.1c0.4-0.3,0.9-0.4,1.4-0.4
	c0.4,0,0.8,0.1,1.2,0.3c0.4,0.2,0.7,0.5,1,0.9L126.6,46.2z M124.5,46.8c-0.4,0-0.8,0.1-1.1,0.3c-0.4,0.2-0.6,0.5-0.8,0.9
	c-0.2,0.4-0.3,0.8-0.3,1.2c0,0.6,0.2,1.2,0.6,1.6c0.9,0.8,2.3,0.8,3.2,0c0.4-0.4,0.6-1,0.6-1.6c0-0.4-0.1-0.8-0.3-1.2
	c-0.2-0.3-0.5-0.6-0.8-0.8C125.2,46.9,124.8,46.8,124.5,46.8z"/>
<path class="st0" d="M128.5,44h0.7v3.3c0.3-0.4,0.6-0.7,1-0.9c0.3-0.2,0.7-0.3,1.1-0.3c0.4,0,0.8,0.1,1.1,0.3
	c0.3,0.2,0.6,0.5,0.7,0.9c0.2,0.6,0.3,1.2,0.2,1.8v3h-0.7v-2.8c0-0.5,0-0.9-0.1-1.3c-0.1-0.3-0.2-0.6-0.5-0.9
	c-0.3-0.2-0.6-0.3-0.9-0.3c-0.4,0-0.9,0.2-1.2,0.5c-0.3,0.3-0.6,0.7-0.7,1.1c-0.1,0.5-0.1,1.1-0.1,1.6v2.1h-0.7L128.5,44z"/>
<path class="st0" d="M144.4,45.6l-0.6,0.5c-0.3-0.4-0.7-0.8-1.2-1c-0.5-0.2-1-0.4-1.5-0.3c-0.6,0-1.2,0.2-1.7,0.5
	c-0.5,0.3-0.9,0.7-1.2,1.2c-0.3,0.5-0.4,1.1-0.4,1.7c0,0.9,0.3,1.8,1,2.4c0.6,0.7,1.5,1,2.4,1c1,0,2-0.5,2.7-1.3l0.6,0.5
	c-0.4,0.5-0.9,0.9-1.5,1.1c-0.6,0.3-1.2,0.4-1.9,0.4c-1.2,0-2.3-0.5-3.1-1.4c-0.7-0.8-1-1.8-1-2.8c0-1.1,0.4-2.1,1.2-2.9
	c0.8-0.8,1.9-1.2,3-1.2c0.7,0,1.3,0.1,1.9,0.4C143.6,44.7,144.1,45.1,144.4,45.6z"/>
<path class="st0" d="M148.2,46.1c0.8,0,1.6,0.4,2.1,1c0.5,0.6,0.8,1.3,0.8,2.1c0,0.8-0.3,1.6-0.8,2.1c-1.1,1.2-2.9,1.2-4.1,0.1
	c0,0-0.1-0.1-0.1-0.1c-0.5-0.6-0.8-1.3-0.8-2.1c0-0.8,0.3-1.5,0.8-2.1C146.6,46.4,147.3,46.1,148.2,46.1z M148.2,46.8
	c-0.6,0-1.2,0.2-1.6,0.7c-0.4,0.5-0.7,1.1-0.6,1.7c0,0.4,0.1,0.8,0.3,1.2c0.2,0.3,0.5,0.6,0.8,0.8c0.7,0.4,1.5,0.4,2.2,0
	c0.3-0.2,0.6-0.5,0.8-0.8c0.2-0.4,0.3-0.8,0.3-1.2c0-0.6-0.2-1.2-0.6-1.7C149.3,47.1,148.8,46.8,148.2,46.8z"/>
<path class="st0" d="M152,46.2h0.7V49c0,0.5,0,0.9,0.1,1.4c0.1,0.3,0.3,0.6,0.6,0.8c0.6,0.4,1.4,0.4,2.1,0c0.3-0.2,0.5-0.5,0.6-0.8
	c0.1-0.5,0.2-0.9,0.1-1.4v-2.8h0.7v2.9c0,0.6-0.1,1.2-0.3,1.8c-0.2,0.4-0.4,0.8-0.8,1c-0.4,0.2-0.9,0.4-1.4,0.3
	c-0.5,0-1-0.1-1.4-0.3c-0.4-0.2-0.7-0.6-0.8-1c-0.2-0.6-0.3-1.3-0.3-1.9V46.2z"/>
<path class="st0" d="M158,46.2h0.7v0.8c0.2-0.3,0.4-0.5,0.7-0.8c0.2-0.2,0.5-0.3,0.8-0.2c0.2,0,0.4,0.1,0.6,0.2l-0.4,0.6
	c-0.1-0.1-0.2-0.1-0.4-0.1c-0.3,0-0.5,0.1-0.7,0.3c-0.3,0.3-0.4,0.6-0.5,1c-0.1,0.7-0.2,1.3-0.1,2v2H158V46.2z"/>
<path class="st0" d="M161.7,44.1h0.7v2.2h1.1v0.7h-1.1v5.2h-0.7v-5.2h-1v-0.7h1V44.1z"/>
<path class="st0" d="M167.1,44.2h0.8v3l3-3h1l-3.6,3.5l3.9,4.3h-1l-3.3-3.7v3.7H167L167.1,44.2z"/>
<path class="st0" d="M173.1,43.8c0.2,0,0.3,0.1,0.4,0.2c0.1,0.1,0.2,0.3,0.2,0.4c0,0.2-0.1,0.3-0.2,0.4c-0.3,0.2-0.7,0.1-0.9-0.1
	c-0.2-0.2-0.2-0.5,0-0.7C172.8,43.9,173,43.8,173.1,43.8z M172.8,46.2h0.7v5.8h-0.7V46.2z"/>
<path class="st0" d="M174.7,46.2h0.7v1c0.2-0.4,0.6-0.7,0.9-0.9c0.4-0.2,0.7-0.3,1.1-0.3c0.4,0,0.8,0.1,1.1,0.3
	c0.3,0.2,0.6,0.5,0.7,0.9c0.2,0.6,0.3,1.2,0.2,1.8v3h-0.7v-2.8c0-0.5,0-0.9-0.1-1.3c-0.1-0.3-0.2-0.7-0.5-0.9
	c-0.3-0.2-0.6-0.3-0.9-0.3c-0.4,0-0.9,0.2-1.2,0.5c-0.3,0.3-0.6,0.7-0.7,1.1c-0.1,0.5-0.1,1.1-0.1,1.6v2.1h-0.7L174.7,46.2z"/>
<path class="st0" d="M180.8,46.2h0.7v1c0.2-0.3,0.5-0.6,0.8-0.8c0.3-0.2,0.7-0.3,1.1-0.3c0.3,0,0.5,0.1,0.8,0.2
	c0.2,0.1,0.4,0.2,0.6,0.4c0.2,0.2,0.3,0.5,0.4,0.8c0.2-0.4,0.5-0.8,0.9-1c0.3-0.2,0.7-0.4,1.2-0.4c0.4,0,0.7,0.1,1,0.3
	c0.3,0.2,0.5,0.5,0.7,0.8c0.2,0.5,0.2,1.1,0.2,1.6v3.2h-0.7v-3.2c0-0.4,0-0.9-0.1-1.3c-0.1-0.2-0.2-0.4-0.4-0.6
	c-0.2-0.1-0.5-0.2-0.8-0.2c-0.4,0-0.7,0.1-1,0.3c-0.3,0.2-0.5,0.5-0.6,0.9c-0.2,0.6-0.2,1.2-0.2,1.8v2.3h-0.7v-3c0-0.5,0-1-0.1-1.4
	c-0.1-0.2-0.2-0.5-0.4-0.6c-0.2-0.2-0.5-0.2-0.8-0.2c-0.3,0-0.7,0.1-0.9,0.3c-0.3,0.2-0.5,0.5-0.6,0.8c-0.2,0.5-0.2,1.1-0.2,1.6v2.5
	h-0.7L180.8,46.2z"/>
<path class="st0" d="M195.1,50.1l0.6,0.3c-0.2,0.4-0.4,0.7-0.7,1c-0.3,0.2-0.6,0.4-0.9,0.6c-0.4,0.1-0.7,0.2-1.1,0.2
	c-0.8,0-1.6-0.3-2.1-0.9c-0.5-0.6-0.8-1.3-0.8-2.1c0-0.7,0.2-1.4,0.7-2c0.5-0.7,1.3-1.1,2.2-1.1c0.9,0,1.8,0.4,2.3,1.1
	c0.4,0.6,0.6,1.3,0.6,2h-5.1c0,0.6,0.2,1.2,0.6,1.7c0.4,0.4,0.9,0.7,1.5,0.7c0.3,0,0.6,0,0.8-0.2c0.3-0.1,0.5-0.2,0.7-0.4
	C194.7,50.7,195,50.4,195.1,50.1z M195.1,48.6c-0.1-0.4-0.2-0.7-0.4-1c-0.2-0.2-0.4-0.4-0.7-0.6c-0.3-0.2-0.7-0.2-1-0.2
	c-0.5,0-1,0.2-1.4,0.5c-0.3,0.3-0.5,0.8-0.6,1.2L195.1,48.6z"/>
<path class="st0" d="M196.9,46.2h0.7v1c0.3-0.4,0.6-0.7,1-0.9c0.3-0.2,0.7-0.3,1.1-0.3c0.4,0,0.8,0.1,1.1,0.3
	c0.3,0.2,0.6,0.5,0.7,0.9c0.2,0.6,0.3,1.2,0.2,1.8v3h-0.7v-2.8c0-0.5,0-0.9-0.1-1.3c-0.1-0.3-0.2-0.7-0.5-0.9
	c-0.3-0.2-0.6-0.3-0.9-0.3c-0.4,0-0.8,0.2-1.2,0.5c-0.3,0.3-0.6,0.7-0.7,1.1c-0.1,0.5-0.1,1.1-0.1,1.6v2.1H197L196.9,46.2z"/>
<path class="st0" d="M205.8,44.2h1.5c0.5,0,0.9,0.1,1.4,0.2c0.3,0.1,0.6,0.4,0.8,0.7c0.2,0.3,0.3,0.6,0.3,1c0,0.4-0.1,0.7-0.2,1
	c-0.2,0.3-0.4,0.5-0.7,0.7c0.3,0.1,0.6,0.3,0.9,0.5c0.2,0.2,0.4,0.4,0.5,0.7c0.1,0.3,0.2,0.6,0.2,0.9c0,0.6-0.2,1.2-0.7,1.6
	c-0.5,0.4-1.1,0.7-1.8,0.7h-2.1V44.2z M206.5,44.9v2.5h0.5c0.4,0,0.8,0,1.2-0.2c0.2-0.1,0.4-0.3,0.6-0.5c0.1-0.2,0.2-0.5,0.2-0.7
	c0-0.3-0.1-0.6-0.4-0.9c-0.3-0.2-0.8-0.3-1.2-0.3H206.5z M206.5,48.3v3h0.9c0.4,0,0.8,0,1.2-0.2c0.3-0.1,0.5-0.3,0.6-0.5
	c0.1-0.2,0.2-0.5,0.2-0.8c0-0.3-0.1-0.7-0.3-0.9c-0.2-0.3-0.6-0.5-0.9-0.5c-0.4-0.1-0.9-0.1-1.4-0.1L206.5,48.3z"/>
<path class="st0" d="M211.1,46.2h0.7v0.8c0.2-0.3,0.4-0.5,0.7-0.8c0.2-0.2,0.5-0.2,0.8-0.2c0.2,0,0.4,0.1,0.6,0.2l-0.4,0.6
	c-0.1-0.1-0.2-0.1-0.4-0.1c-0.3,0-0.5,0.1-0.7,0.3c-0.3,0.3-0.4,0.6-0.5,1c-0.1,0.7-0.2,1.3-0.1,2v2h-0.7L211.1,46.2z"/>
<path class="st0" d="M219.9,46.2v5.8h-0.7v-1c-0.3,0.4-0.6,0.6-1,0.9c-0.4,0.2-0.8,0.3-1.2,0.3c-0.8,0-1.5-0.3-2-0.9
	c-0.6-0.6-0.9-1.4-0.8-2.2c0-0.8,0.3-1.6,0.9-2.2c0.5-0.6,1.2-0.9,2-0.9c0.4,0,0.9,0.1,1.2,0.3c0.4,0.2,0.7,0.5,1,0.9v-1.1H219.9z
	 M217,46.8c-0.4,0-0.8,0.1-1.1,0.3c-0.3,0.2-0.6,0.5-0.8,0.9c-0.2,0.4-0.3,0.8-0.3,1.2c0,0.4,0.1,0.8,0.3,1.2
	c0.2,0.4,0.5,0.7,0.8,0.9c0.3,0.2,0.7,0.3,1.1,0.3c0.4,0,0.8-0.1,1.1-0.3c0.3-0.2,0.6-0.5,0.8-0.8c0.2-0.4,0.3-0.8,0.3-1.2
	c0-0.6-0.2-1.2-0.6-1.7C218.2,47,217.6,46.8,217,46.8z"/>
<path class="st0" d="M221.2,46.2h0.7v1c0.3-0.4,0.6-0.7,1-0.9c0.3-0.2,0.7-0.3,1.1-0.3c0.4,0,0.8,0.1,1.1,0.3
	c0.3,0.2,0.6,0.5,0.7,0.9c0.2,0.6,0.3,1.2,0.2,1.8v3h-0.7v-2.8c0-0.5,0-0.9-0.1-1.3c-0.1-0.3-0.2-0.6-0.5-0.9
	c-0.3-0.2-0.6-0.3-0.9-0.3c-0.4,0-0.9,0.2-1.2,0.5c-0.3,0.3-0.6,0.7-0.7,1.1c-0.1,0.5-0.1,1.1-0.1,1.6v2.1h-0.7L221.2,46.2z"/>
<path class="st0" d="M232.7,47.4l-0.6,0.4c-0.5-0.6-1.2-1-2-1c-0.6,0-1.3,0.2-1.7,0.7c-0.4,0.4-0.7,1-0.7,1.7c0,0.4,0.1,0.8,0.3,1.2
	c0.2,0.4,0.5,0.7,0.9,0.9c1.1,0.6,2.5,0.3,3.2-0.7l0.6,0.4c-0.3,0.4-0.6,0.8-1.1,1c-0.5,0.2-1,0.4-1.5,0.3c-0.8,0-1.6-0.3-2.2-0.9
	c-0.6-0.6-0.9-1.4-0.9-2.2c0-0.6,0.1-1.1,0.4-1.6c0.3-0.5,0.7-0.9,1.1-1.1c0.5-0.3,1-0.4,1.6-0.4c0.4,0,0.7,0.1,1.1,0.2
	c0.3,0.1,0.6,0.3,0.9,0.5C232.4,46.9,232.6,47.2,232.7,47.4z"/>
<path class="st0" d="M233.8,44h0.7v3.3c0.3-0.4,0.6-0.7,1-0.9c0.3-0.2,0.7-0.3,1.1-0.3c0.4,0,0.8,0.1,1.1,0.3
	c0.3,0.2,0.6,0.5,0.7,0.9c0.2,0.6,0.3,1.2,0.2,1.8v3H238v-2.8c0-0.5,0-0.9-0.1-1.3c-0.1-0.3-0.2-0.6-0.5-0.9
	c-0.3-0.2-0.6-0.3-0.9-0.3c-0.4,0-0.8,0.2-1.2,0.5c-0.3,0.3-0.6,0.7-0.7,1.1c-0.1,0.5-0.1,1.1-0.1,1.6v2.1h-0.7L233.8,44z"/>
<path class="st0" d="M249.7,45.6l-0.6,0.5c-0.3-0.4-0.7-0.8-1.2-1c-0.5-0.2-1-0.4-1.5-0.3c-0.6,0-1.2,0.2-1.7,0.5
	c-0.5,0.3-0.9,0.7-1.2,1.2c-0.3,0.5-0.4,1.1-0.4,1.7c0,0.9,0.4,1.8,1,2.4c0.6,0.7,1.5,1,2.4,1c1,0,2-0.5,2.7-1.3l0.6,0.5
	c-0.4,0.5-0.9,0.9-1.4,1.2c-0.6,0.3-1.2,0.4-1.9,0.4c-1.2,0.1-2.4-0.5-3.1-1.4c-0.7-0.8-1-1.8-1-2.8c0-1.1,0.4-2.1,1.2-2.9
	c0.8-0.8,1.8-1.2,2.9-1.2c0.7,0,1.3,0.1,1.9,0.4C248.9,44.7,249.4,45.1,249.7,45.6z"/>
<path class="st0" d="M253.5,46.1c0.8,0,1.6,0.4,2.1,1c1,1.2,1,3-0.1,4.2c-1.1,1.2-2.9,1.2-4.1,0.1c0,0-0.1-0.1-0.1-0.1
	c-0.5-0.6-0.8-1.3-0.8-2.1c0-0.8,0.3-1.5,0.8-2.1C251.8,46.4,252.6,46.1,253.5,46.1z M253.5,46.8c-0.6,0-1.2,0.2-1.5,0.7
	c-0.4,0.5-0.7,1-0.6,1.7c0,0.4,0.1,0.8,0.3,1.2c0.5,1,1.8,1.4,2.9,0.9c0.4-0.2,0.7-0.5,0.9-0.9c0.2-0.4,0.3-0.8,0.3-1.2
	c0-0.6-0.2-1.2-0.6-1.7C254.6,47.1,254,46.8,253.5,46.8L253.5,46.8z"/>
<path class="st0" d="M257.3,46.2h0.7V49c0,0.5,0,0.9,0.1,1.4c0.1,0.3,0.3,0.6,0.6,0.8c0.6,0.4,1.4,0.4,2.1,0
	c0.3-0.2,0.5-0.5,0.6-0.8c0.1-0.5,0.1-1,0.1-1.4v-2.8h0.7v2.9c0,0.6-0.1,1.2-0.3,1.8c-0.2,0.4-0.4,0.8-0.8,1c-0.9,0.5-1.9,0.5-2.7,0
	c-0.4-0.2-0.7-0.6-0.8-1c-0.2-0.6-0.3-1.2-0.3-1.9L257.3,46.2z"/>
<path class="st0" d="M263.2,46.2h0.8v0.8c0.2-0.3,0.4-0.5,0.7-0.8c0.2-0.2,0.5-0.2,0.8-0.2c0.2,0,0.4,0.1,0.6,0.2l-0.4,0.6
	c-0.1-0.1-0.2-0.1-0.4-0.1c-0.3,0-0.5,0.1-0.7,0.3c-0.3,0.3-0.4,0.6-0.5,1c-0.1,0.7-0.2,1.3-0.1,2v2h-0.7L263.2,46.2z"/>
<path class="st0" d="M267,44.1h0.7v2.2h1.1v0.7h-1.1v5.2H267v-5.2h-1v-0.7h1V44.1z"/>
<circle class="st0" cx="32.7" cy="31.4" r="30.3"/>
<linearGradient id="SVGID_1_" gradientUnits="userSpaceOnUse" x1="32.645" y1="5.22" x2="32.645" y2="28.47" gradientTransform="matrix(1 0 0 -1 0 66)">
	<stop  offset="0.69" style="stop-color:#B7A246"/>
	<stop  offset="1" style="stop-color:#FFFFFF"/>
</linearGradient>
<path class="st1" d="M61.5,37.8c-3.1,13.4-15.1,22.9-28.8,23c-14,0-25.9-10.2-28.9-23.2h7.4c2.8,9,11.5,16.1,21.5,16.1
	c9.8-0.1,18.4-6.5,21.4-15.8H61.5z"/>
<path class="st2" d="M53.6,31.3c0,11.6-9.4,21-21,21s-21-9.4-21-21s9.4-21,21-21S53.6,19.7,53.6,31.3L53.6,31.3z"/>
<path class="st0" d="M34.3,33.8H31V42c0,0.9,0.8,1.7,1.7,1.7c0.9,0,1.6-0.7,1.6-1.6c0,0,0,0,0,0V33.8z"/>
<path class="st0" d="M35.6,44h-5.8c-0.4,0-0.7,0.3-0.8,0.6c0,0,0,0,0,0v0.8c0,0.4,0.4,0.7,0.7,0.7c0,0,0,0,0,0h5.8
	c0.4,0,0.7-0.2,0.7-0.6c0,0,0,0,0,0v-0.8C36.3,44.3,35.9,44,35.6,44C35.6,44,35.6,44,35.6,44z"/>
<path class="st0" d="M36.7,46.9h-8c-0.6,0-1,0.3-1,0.7v0.8c0,0.4,0.4,0.7,1,0.7h8c0.5,0,1-0.3,1-0.7v-0.8
	C37.7,47.2,37.2,46.9,36.7,46.9z"/>
<path class="st0" d="M48.9,23.3c0-0.3-0.2-0.5-0.4-0.6c-0.4-0.3-1-0.2-1.4,0.1C44.7,25,41,25,38.5,22.8c-3.2-2.7-7.9-2.8-11.2-0.2h0
	l-0.2,0.2l0,0c-1.2,1.1-2.8,1.7-4.4,1.7c-1.6,0-3.2-0.6-4.4-1.7c-0.2-0.2-0.4-0.3-0.7-0.3c-0.2,0-0.5,0-0.7,0.2
	c-0.2,0.1-0.4,0.4-0.4,0.6v0.1c0,0.2,0.1,0.4,0.3,0.6c1.6,1.5,3.7,2.3,5.9,2.3c2,0,3.9-0.6,5.5-1.9l0,0l0,0l0.1-0.1
	c2.5-2.2,6.2-2.2,8.7-0.1c1.6,1.4,3.6,2.1,5.7,2.1c2.2,0,4.3-0.8,5.9-2.3c0.2-0.2,0.3-0.4,0.3-0.6V23.3z M48.9,23.3L48.9,23.3
	L48.9,23.3z"/>
<path class="st0" d="M36.1,17c0,1.9-1.6,3.4-3.5,3.4c-1.9,0-3.4-1.6-3.4-3.5c0-1.9,1.5-3.4,3.4-3.4C34.6,13.5,36.1,15.1,36.1,17z"/>
<path class="st0" d="M27.6,38.4l-5.3-12C22.2,26.2,22,26,21.7,26c-0.2,0-0.4,0.1-0.5,0.4l0,0l-5.3,12c-0.1,0.2-0.1,0.4,0,0.6
	c1.2,2,3.4,3.2,5.8,3.2c2.4,0.1,4.6-1.1,5.8-3.1C27.7,38.8,27.7,38.6,27.6,38.4z M21.7,28.1c0.3,0.7,4.3,9.8,4.6,10.4h-9.2l3.1-7
	L21.7,28.1z"/>
<path class="st0" d="M49.5,38.4l-5.3-12c-0.1-0.2-0.3-0.4-0.5-0.4c-0.2,0-0.4,0.1-0.5,0.4l0,0l-5.3,12c-0.1,0.2-0.1,0.4,0,0.6
	c1.2,2,3.4,3.2,5.8,3.2c2.4,0.1,4.6-1.1,5.8-3.1C49.6,38.8,49.6,38.6,49.5,38.4z M43.7,28.1l4.6,10.4h-9.2c0.2-0.4,2-4.5,2-4.5
	S43.4,28.8,43.7,28.1z"/>
<path class="st0" d="M38.3,25.4c-0.5,0-0.8,0.3-0.9,0.8c0,0.1,0,0.1,0,0.2h-1.2v-0.5h-7v0.5H28c0.1-0.4-0.3-0.9-0.7-0.9
	c-0.1,0-0.1,0-0.2,0c0,0-0.8,0-0.8,1v4.4c0,1.1,0.8,1,0.8,1c0.5,0,0.9-0.3,0.9-0.8c0,0,0-0.1,0-0.1h1.1v0.5H31V33h3.3v-1.5h1.9v-0.5
	h1.2c-0.1,0.5,0.3,0.9,0.7,0.9c0,0,0.1,0,0.1,0c0,0,0.8,0,0.8-1v-4.4C39,25.4,38.3,25.4,38.3,25.4z"/>
<path class="st0" d="M11.7,46.7h-0.3c0.1-0.2,0.1-0.5,0.1-0.7l-1.9,1.5l-0.2-0.2l1.8-1.4c-0.3,0-0.6,0-0.9,0l0.1-0.3
	c0.8,0,1.6-0.1,2.3-0.3l-0.6-0.8l0.2-0.2l0.8,1.1L13,45.5c-0.4,0.1-0.7,0.2-1.1,0.3C11.8,46.1,11.8,46.4,11.7,46.7z M11.7,50.2
	L11.5,50l0.2-0.2l-1.3-1.7l-0.2,0.2l-0.2-0.2l2.1-1.6l1.6,2.1L11.7,50.2z M11.3,48.7l0.6-0.4l-0.6-0.7l-0.6,0.4L11.3,48.7z M12,49.7
	l0.6-0.4L12,48.4l-0.6,0.4L12,49.7z M12.1,48l0.6-0.4l-0.6-0.7l-0.6,0.4L12.1,48z M12.8,49l0.6-0.4l-0.6-0.7l-0.6,0.4L12.8,49z
	 M14,48.2l-1.4-1.8l1-0.8l1.4,1.8L14,48.2z M13.2,44.8L13,44.7c0.2-0.2,0.3-0.5,0.4-0.8l0.2,0.1C13.5,44.3,13.4,44.6,13.2,44.8
	L13.2,44.8z M14.1,47.8l0.5-0.4l-1-1.4L13,46.4L14.1,47.8z M15.6,47.4L13.8,45l0.2-0.2l1.8,2.4L15.6,47.4z"/>
<path class="st0" d="M16.2,53.9L16,54.1c-0.2-0.2-0.5-0.4-0.7-0.6c-0.3-0.3-0.6-0.6-0.9-0.9c-0.2-0.2-0.3-0.4-0.4-0.7
	c-0.1-0.3-0.2-0.5-0.2-0.8c-0.4,0.1-0.7,0.1-1.1,0.2V51c0.4,0,0.7-0.1,1.1-0.2c0.1-0.4,0.2-0.8,0.4-1.2l0.2,0.1
	c-0.2,0.3-0.3,0.6-0.4,1c0.5-0.2,0.9-0.6,1.2-1l-0.7-0.6l0.2-0.2c0.6-0.2,1.2-0.4,1.8-0.6l-0.8-0.7l0.2-0.2l1,0.9l-0.2,0.2
	c-0.6,0.2-1.1,0.4-1.7,0.6l0.7,0.6c-0.5,0.5-1.1,1-1.7,1.3c0,0.2,0,0.5,0.1,0.7c0.1,0.2,0.2,0.4,0.4,0.6c0.3,0.3,0.6,0.7,1,1
	C15.7,53.5,16,53.7,16.2,53.9z M18.3,51.5l-0.3-0.2l-0.6,0.6l-0.9-0.8l-0.3,0.4l1,0.8l-0.2,0.2l-1-0.8L15.8,52l1.1,1l-0.2,0.2
	l-1.1-1l-0.4,0.4L15,52.5l0.4-0.4l-1-0.8l0.2-0.2l1,0.8l0.3-0.4l-0.8-0.7l0.2-0.2l0.8,0.7l0.3-0.4l-0.7-0.7l0.2-0.2l0.7,0.7l0.4-0.4
	l-1-0.8l0.2-0.2l1,0.8l0.4-0.4L16.8,49l0.2-0.2l0.7,0.7l0.2-0.3l0.2,0.2l-0.3,0.3l0.9,0.8L18.2,51l0.3,0.2L18.3,51.5z M17.5,51.5
	l0.4-0.4l-0.7-0.6l-0.4,0.4L17.5,51.5z M18.1,50.8l0.3-0.4l-0.7-0.6l-0.3,0.4L18.1,50.8z"/>
<path class="st0" d="M20.9,56.6c-0.1,0.1-0.1,0.2-0.2,0.2c-0.1,0-0.2,0-0.5-0.1l-0.2-0.2l0.1-0.3l0.4,0.2c0.1,0.1,0.2,0.1,0.3,0
	c0,0,0,0,0,0l0.8-1.4l-2.9-1.7l-1.1,1.9l-0.2-0.1l1.2-2.1l3.4,1.9L20.9,56.6z M20.2,56.1l-1.8-1l0.6-1l1.8,1L20.2,56.1z M20.1,55.7
	l0.3-0.5L19,54.4l-0.3,0.5L20.1,55.7z M21.6,54.3l-2.5-1.4l0.6-1l2.5,1.4L21.6,54.3z M23,53.3l-3.8-2.1l0.1-0.2l1.8,1
	c0.1-0.2,0.1-0.3,0.1-0.5h0.3c0,0.2-0.1,0.4-0.1,0.6l1.8,1L23,53.3z M21.5,53.8l0.3-0.5l-2-1.2l-0.3,0.5L21.5,53.8z"/>
<path class="st0" d="M26.8,57.6L26,57.3l-0.3,0.9c-0.1,0.2-0.2,0.4-0.3,0.4c-0.2,0-0.4,0-0.5-0.1c-0.1,0-0.2-0.1-0.4-0.1v-0.3
	l0.5,0.2l0.3,0.1c0.1,0,0.1,0,0.1-0.2l0.3-0.9l-3.1-1l0.1-0.3l3.1,1l0.2-0.5l-2.7-0.8l0.1-0.3l1.6,0.5l0.2-0.5l-1.8-0.6l0.1-0.3
	l1.8,0.6l0.1-0.4l0.3,0.1l-0.1,0.4l1.8,0.5l-0.1,0.3l-1.8-0.5l-0.2,0.5l1.6,0.5l-0.1,0.3l-0.5-0.1L26,57l0.9,0.3L26.8,57.6z
	 M25.5,54.1l-1.4-0.4c-0.2,0.2-0.4,0.3-0.7,0.5l-0.1-0.3c0.5-0.2,0.9-0.6,1.2-1l0.2,0.2c-0.1,0.1-0.2,0.3-0.4,0.4l1.2,0.4L25.5,54.1
	z M24.1,57.8L23.9,58c-0.1-0.4-0.3-0.7-0.5-1l0.3-0.1C23.9,57.1,24,57.5,24.1,57.8z M24.7,54.6h-0.3c0-0.2-0.1-0.4-0.2-0.5h0.3
	C24.6,54.2,24.7,54.4,24.7,54.6z M27.6,54.8l-1.6-0.5c-0.1,0.1-0.3,0.2-0.4,0.3l-0.1-0.2c0.4-0.2,0.7-0.5,0.9-0.8l0.2,0.2
	c-0.1,0.1-0.2,0.3-0.3,0.4l1.4,0.4L27.6,54.8z M26.8,55.2l-0.3,0.1c0-0.2-0.1-0.4-0.2-0.5l0.3-0.1C26.7,54.8,26.8,55,26.8,55.2z"/>
<path class="st0" d="M28.9,57.3c-0.3,0.7-0.7,1.3-1.1,1.9L27.6,59c0.4-0.6,0.8-1.2,1.1-1.9L28.9,57.3z M29,56.4l-0.2,0.2
	c-0.2-0.3-0.5-0.6-0.8-0.8l0.2-0.2C28.5,55.8,28.8,56.1,29,56.4L29,56.4z M29.2,54.9L29,55.1c-0.2-0.3-0.5-0.6-0.8-0.8l0.2-0.2
	C28.8,54.3,29,54.6,29.2,54.9z M32.4,57.1L30.8,57c-0.4,0.7-0.8,1.3-1.3,1.9c0.7,0,1.4-0.1,2.1-0.2c-0.1-0.3-0.3-0.7-0.5-1l0.2-0.1
	c0.3,0.6,0.6,1.3,0.8,1.9l-0.2,0.2c-0.1-0.2-0.1-0.5-0.2-0.7c-0.9,0.1-1.7,0.2-2.6,0.2L29,58.9c0.3-0.2,0.5-0.4,0.7-0.7
	c0.3-0.4,0.5-0.8,0.8-1.3l-1.3-0.1v-0.3l1.5,0.1l0.1-1.2l-1.2-0.1v-0.3l1.2,0.1l0.1-0.9h0.3L31,55.2l1.2,0.1v0.3L31,55.5l0,1.2
	l1.4,0.1L32.4,57.1z"/>
<path class="st0" d="M34.1,56.2c0.3,0.4,0.5,0.8,0.6,1.3c0,0.2,0,0.3-0.1,0.5c-0.1,0.1-0.2,0.2-0.5,0.2h-0.2l-0.1-0.3H34
	c0.1,0,0.2,0,0.3-0.1c0-0.1,0-0.2,0-0.2c-0.1-0.5-0.3-0.9-0.6-1.3c0.1-0.4,0.2-0.9,0.2-1.5l-0.8,0.1l0.5,4.8h-0.3L33,54.5l1.3-0.1
	v0.3C34.3,55.2,34.2,55.7,34.1,56.2z M37.4,55.8h-0.3l-0.1-0.9l-2.2,0.2L35,56h-0.3l-0.1-1.2l1.2-0.1c-0.1-0.2-0.1-0.4-0.2-0.5
	l0.3-0.1c0.1,0.2,0.2,0.4,0.2,0.6l1.2-0.1L37.4,55.8z M37.7,58c0,0.2,0,0.5,0,0.7c0,0.1-0.1,0.2-0.2,0.3c-0.1,0.1-0.3,0.1-0.5,0.1
	c-0.3,0-0.5-0.1-0.5-0.3L36.4,57l-0.6,0.1c0.1,0.5,0,1-0.2,1.5c-0.2,0.4-0.5,0.7-0.8,0.9l-0.2-0.2c0.3-0.2,0.6-0.5,0.8-0.8
	c0.2-0.4,0.2-0.9,0.2-1.3l-0.8,0.1v-0.3l2.7-0.3v0.3L36.7,57l0.2,1.8c0,0,0,0.1,0,0.1c0,0,0.1,0,0.2,0c0.1,0,0.2,0,0.2,0
	c0,0,0.1,0,0.1-0.1c0-0.1,0-0.2,0-0.3c0-0.2,0-0.3,0-0.5L37.7,58z M36.9,56l-1.8,0.2v-0.3l1.7-0.2L36.9,56z"/>
<path class="st0" d="M42.3,54.4l-0.1,0.3c-0.3-0.1-0.6-0.1-0.9-0.2l0.1,0.3l-1.1,0.3l0.3,0.8l1.8-0.6l0.1,0.3l-1.8,0.6l0.5,1.6
	l1.9-0.6l0.1,0.3l-3.9,1.2l-0.1-0.3l1.8-0.6l-0.5-1.6l-1.7,0.5l-0.1-0.3l1.7-0.5l-0.2-0.8l-1,0.3L39,55.2c-0.2,0.3-0.4,0.5-0.7,0.7
	L38,55.7c0.8-0.7,1.3-1.5,1.6-2.5h0.3v0.1C40.6,53.9,41.4,54.3,42.3,54.4z M41.3,54.5c-0.5-0.2-1.1-0.4-1.5-0.8
	c-0.2,0.5-0.4,1-0.8,1.5L41.3,54.5z M40.3,57.7l-0.2,0.2c-0.2-0.3-0.5-0.6-0.8-0.8l0.2-0.2C39.8,57.1,40,57.4,40.3,57.7L40.3,57.7z
	 M42.2,56.2c0,0.4-0.1,0.8-0.2,1.1l-0.3-0.1c0.1-0.4,0.2-0.7,0.3-1.1L42.2,56.2z"/>
<path class="st0" d="M44.9,53.7l-1.3,0.8l1.4,2.3L44.8,57l-2.5-4.4l1.5-0.9L44.9,53.7z M44,52.7l-0.4-0.6l-1.1,0.6l0.3,0.6L44,52.7z
	 M44.5,53.6L44.2,53l-1.1,0.6l0.4,0.6L44.5,53.6z M48,54.5c0.1,0.1,0.1,0.2,0.1,0.3c0,0.1-0.1,0.1-0.1,0.2c-0.1,0.1-0.2,0.2-0.3,0.2
	l-0.3,0.2l-0.3-0.2c0.1-0.1,0.3-0.1,0.4-0.2c0.1-0.1,0.2-0.1,0.3-0.2c0,0,0-0.1,0-0.1l-1.1-2l-1.3,0.8l-1.2-2l1.5-0.9L48,54.5z
	 M46,51.5l-0.4-0.6l-1.1,0.6l0.3,0.6L46,51.5z M46.5,52.4l-0.4-0.6l-1.1,0.6l0.4,0.6L46.5,52.4z"/>
<path class="st0" d="M47.4,49c0.4,0.9,0.6,2,0.4,3l-0.3-0.1c0.1-0.9,0-1.9-0.4-2.8L47.4,49z M50.9,48.8v0.3c-0.9,0-1.8-0.2-2.5-0.7
	L48,48.7l-0.2-0.2l0.4-0.4C49,48.6,49.9,48.9,50.9,48.8L50.9,48.8z M50.2,49.3c0.4,0.5,0.8,0.9,1.1,1.3c0.2,0.3,0.4,0.5,0.5,0.8
	c0,0.1,0,0.2,0,0.3c-0.1,0.2-0.2,0.3-0.3,0.4l-0.3,0.3l-0.3-0.2c0.1-0.1,0.3-0.2,0.4-0.3c0.1-0.1,0.1-0.1,0.2-0.2c0,0,0-0.1,0-0.2
	c0-0.1-0.1-0.3-0.2-0.4c-0.1-0.2-0.3-0.4-0.5-0.7s-0.4-0.5-0.7-0.8l-1,0.9c0.7,0.9,0.9,2.1,0.6,3.2l-0.3-0.1c0.3-1,0.1-2.1-0.5-2.9
	l-0.7,0.7L48,51.3L50.2,49.3z"/>
<path class="st0" d="M51.6,47.2c0.5,0,1,0.2,1.4,0.5c0.1,0.1,0.2,0.2,0.3,0.4c0,0.2,0,0.4-0.2,0.5c0,0.1-0.1,0.1-0.1,0.2l-0.3-0.1
	l0.2-0.2c0.1-0.1,0.1-0.2,0.1-0.3c0-0.1-0.1-0.1-0.1-0.2c-0.4-0.3-0.9-0.4-1.3-0.5c-0.2-0.3-0.6-0.7-0.9-1.2L50,46.9l3.8,2.9
	L53.7,50l-4.1-3.1l0.8-1l0.2,0.2C51,46.4,51.3,46.8,51.6,47.2z M53.6,44.5l-0.2,0.2l-0.7-0.5L51.3,46l0.7,0.5l-0.2,0.2l-1-0.7l0.7-1
	c-0.2-0.1-0.4-0.1-0.5-0.2l0.1-0.3c0.2,0.1,0.4,0.1,0.6,0.2l0.7-1L53.6,44.5z M53.4,45l-1.1,1.4l-0.2-0.2l1.1-1.4L53.4,45z
	 M55.4,45.8c0.2,0.1,0.4,0.3,0.5,0.5c0.1,0.1,0.1,0.2,0.2,0.3c0,0.2-0.1,0.3-0.2,0.5c-0.2,0.2-0.4,0.3-0.6,0.1l-1.5-1.1l-0.3,0.5
	c0.4,0.3,0.8,0.7,1,1.2c0.1,0.4,0.2,0.8,0.1,1.2h-0.3c0.1-0.4,0.1-0.8,0-1.1c-0.2-0.4-0.5-0.8-0.8-1l-0.5,0.6l-0.2-0.2l1.7-2.2
	l0.2,0.2l-0.5,0.7l1.3,1.1c0,0,0.1,0,0.1,0c0,0,0.1,0,0.2-0.2c0.1-0.1,0.1-0.1,0.1-0.2c0,0,0-0.1,0-0.1c-0.1-0.1-0.1-0.2-0.2-0.2
	c-0.1-0.1-0.3-0.2-0.4-0.3L55.4,45.8z"/>
<path class="st3" d="M6,37.3L7.1,37l-0.2-0.8L7.5,36l0.2,0.8l1.9-0.4l0.1,0.5l-4.2,0.9l-0.3-1.4l0.6-0.1L6,37.3z"/>
<path class="st3" d="M5,35.7v-0.5L7.3,35c0.9-0.1,1.3-0.3,1.3-0.7s-0.5-0.5-1.4-0.4l-2.4,0.3l-0.1-0.5l2.5-0.3
	c1.2-0.1,1.9,0.1,1.9,0.8s-0.5,1.1-1.7,1.2L5,35.7z"/>
<path class="st3" d="M5.7,30.9c-0.3,0.1-0.4,0.3-0.4,0.6c0,0.3,0.2,0.5,0.5,0.6c0.3,0.2,0.7,0.3,1.1,0.2c0.4,0,0.8-0.1,1.1-0.3
	c0.3-0.1,0.5-0.5,0.4-0.8c-0.1-0.2-0.2-0.4-0.4-0.4h0.9C9,31,9.1,31.2,9.1,31.5c0,0.4-0.3,0.8-0.6,1c-0.5,0.3-1,0.4-1.6,0.4
	c-0.6,0-1.1-0.1-1.6-0.4c-0.4-0.2-0.7-0.6-0.7-1c0-0.2,0.1-0.5,0.2-0.6L5.7,30.9z"/>
<path class="st3" d="M6.6,28.5l-1.7-0.2v-0.5l4.2,0.4v0.5l-1.9-0.2l-0.1,1.1L9,29.9v0.5L4.8,30v-0.5l1.7,0.2L6.6,28.5z"/>
<path class="st3" d="M9.4,27.3l-0.1,0.5l-4.2-0.7l0.1-0.5L9.4,27.3z"/>
<path class="st3" d="M6,25.5l1.1,0.2l0.2-0.9L7.9,25l-0.2,0.9l1.3,0.3l0.2-1l0.6,0.1l-0.3,1.4l-4.2-1l0.3-1.4l0.6,0.1L6,25.5z"/>
<path class="st3" d="M5.7,23.5l0.1-0.3l3.5-0.5l-2.9-1l0.2-0.5l4.1,1.4L10.6,23l-3.5,0.5l2.9,1l-0.2,0.5L5.7,23.5z"/>
<path class="st3" d="M10.1,18.1l-1.5-0.9l0.2-0.4l3.7,2.1l-0.2,0.4l-1.7-1l-0.6,1l1.7,1l-0.2,0.4l-3.7-2.1l0.2-0.4l1.5,0.9
	L10.1,18.1z"/>
<path class="st3" d="M13.1,18.1l-0.3,0.4l-3.5-2.4l0.3-0.4L13.1,18.1z"/>
<path class="st3" d="M13.1,14.4L13.1,14.4c0.5,0.4,0.9,0.8,1.1,1.4c0.2,0.4,0.2,0.8-0.1,1.1c-0.3,0.3-0.7,0.4-1.1,0.3
	c-0.5-0.1-1.1-0.3-1.5-0.7c-0.4-0.3-0.8-0.8-1-1.3c-0.2-0.4-0.1-0.8,0.1-1.2c0.4-0.4,1-0.5,1.5-0.2v0.5c-0.5-0.2-0.8-0.2-1,0.1
	c-0.2,0.2-0.2,0.5,0,0.8c0.2,0.4,0.4,0.7,0.8,0.9c0.3,0.2,0.6,0.4,1,0.5c0.3,0.1,0.6,0,0.8-0.2c0.1-0.2,0.1-0.4,0-0.6
	c-0.1-0.3-0.3-0.5-0.5-0.7l-0.4,0.5l-0.4-0.4L13.1,14.4z"/>
<path class="st3" d="M14.5,12.5l-1.2-1.2l0.3-0.3l3,3l-0.3,0.3L15,12.9l-0.8,0.8l1.4,1.4l-0.3,0.3l-3-3l0.3-0.3l1.2,1.2L14.5,12.5z"
	/>
<path class="st3" d="M18,8.9c-0.2-0.1-0.5-0.1-0.8,0C17,9.1,16.9,9.4,17,9.7c0.1,0.8,0.6,1.4,1.2,1.8c0.2,0.2,0.5,0.2,0.8,0
	c0.2-0.2,0.3-0.5,0.2-0.7l0.5,0.7c-0.1,0.2-0.2,0.4-0.4,0.6c-0.4,0.2-0.8,0.2-1.2,0c-0.5-0.2-0.9-0.6-1.2-1c-0.3-0.4-0.5-1-0.6-1.5
	c-0.1-0.4,0.1-0.8,0.4-1.1c0.2-0.1,0.4-0.2,0.6-0.2L18,8.9z"/>
<path class="st3" d="M19.1,9.5c-0.3-0.5-0.4-1-0.4-1.6c0-0.4,0.2-0.8,0.5-1C19.6,6.7,20,6.8,20.4,7c0.5,0.3,0.8,0.7,1.1,1.2
	c0.3,0.5,0.4,1,0.4,1.6c0.1,0.6-0.3,1.1-0.9,1.2c-0.3,0-0.6,0-0.8-0.2C19.7,10.5,19.3,10,19.1,9.5z M19.5,9.2
	c0.2,0.3,0.4,0.6,0.8,0.8c0.2,0.2,0.5,0.2,0.8,0.1c0.2-0.1,0.4-0.4,0.4-0.7c0-0.4-0.1-0.8-0.3-1.1c-0.2-0.3-0.4-0.6-0.7-0.8
	c-0.2-0.2-0.5-0.2-0.8-0.1c-0.2,0.1-0.4,0.4-0.4,0.7C19.2,8.5,19.3,8.9,19.5,9.2z"/>
<path class="st3" d="M21.2,6l0.4-0.2L22.6,8c0.3,0.9,0.7,1.2,1,1.1s0.4-0.6,0-1.5l-0.9-2.2l0.4-0.2l1,2.3c0.5,1.1,0.4,1.8-0.3,2.1
	s-1.2-0.2-1.6-1.3L21.2,6z"/>
<path class="st3" d="M27,8.5l-0.6,0.2L25.2,7l0.5,1.8L25.2,9L24,4.9l0.7-0.2c0.6-0.2,1,0.2,1.3,1C26.1,6,26.1,6.2,26,6.5
	c0,0.2-0.2,0.4-0.3,0.5L27,8.5z M25.1,6.8h0.1c0.4-0.1,0.5-0.4,0.4-0.9s-0.4-0.7-0.8-0.5h-0.1L25.1,6.8z"/>
<path class="st3" d="M28.1,8.2l-0.4,0.1L27,4.8l-0.6,0.1l-0.1-0.6L27.9,4L28,4.6l-0.6,0.1L28.1,8.2z"/>
<path class="st3" d="M31.9,3.6h0.6l-1,2l1.2,2.2h-0.6L31,5.8l0.1,2.1h-0.5l-0.2-4.2h0.5l0.1,2L31.9,3.6z"/>
<path class="st3" d="M33.5,7.8H33l0.1-4.2h0.5L33.5,7.8z"/>
<path class="st3" d="M34.4,3.5h0.4L36,6.9l0.3-3.1h0.5l-0.5,4.3H36l-1.2-3.3l-0.3,3.1l-0.4,0L34.4,3.5z"/>
<path class="st3" d="M39.6,5.9l-1.4,2.7h-0.1v-3l-1,2.7l-0.5-0.1L38.2,4l0.3,0.1v3L40,4.4l0.3,0.1l-0.6,4.3l-0.5-0.1L39.6,5.9z"/>
<path class="st3" d="M41.7,5.7l-0.4,1L42.2,7L42,7.6l-0.9-0.3l-0.5,1.2l0.9,0.3l-0.2,0.6L40,9l1.4-4l1.4,0.5L42.6,6L41.7,5.7z"/>
<path class="st3" d="M43.7,5.7L44,5.8v3.6l1.3-2.8l0.4,0.2L44,10.7l-0.3-0.1V7l-1.3,2.8l-0.4-0.2L43.7,5.7z"/>
<path class="st3" d="M48.2,8.3l0.6,0.4c0.5,0.3,0.5,0.8,0,1.4c-0.2,0.3-0.4,0.4-0.7,0.5c0.1,0.1,0.1,0.3,0.1,0.5
	c-0.1,0.2-0.2,0.5-0.3,0.6c-0.2,0.3-0.4,0.5-0.7,0.6c-0.2,0.1-0.5,0-0.7-0.1l-0.7-0.5L48.2,8.3z M46.5,11.6l0.2,0.1
	c0.3,0.2,0.6,0.1,0.8-0.2c0.2-0.2,0.2-0.5,0-0.7c0,0-0.1-0.1-0.1-0.1l-0.2-0.1L46.5,11.6z M47.5,10.1l0.2,0.1
	c0.2,0.2,0.5,0.1,0.7-0.3c0.2-0.4,0.3-0.6,0.1-0.8L48.3,9L47.5,10.1z"/>
<path class="st3" d="M48.9,14.2l-0.4-0.4l0.6-1.9l-1.2,1.4L47.5,13l2.8-3.2l0.6,0.5c0.5,0.4,0.4,0.9-0.1,1.6
	c-0.2,0.2-0.4,0.4-0.7,0.5c-0.2,0.1-0.4,0.1-0.6,0L48.9,14.2z M49.3,11.7l0.1,0.1c0.3,0.2,0.6,0.2,0.9-0.2s0.3-0.7,0-0.9l-0.1-0.1
	L49.3,11.7z"/>
<path class="st3" d="M50.2,14.2l-0.9,0.5L49,14.3l3.9-2.2l0.3,0.3l-2.4,3.8l-0.3-0.4l0.5-0.8L50.2,14.2z M52.2,12.9l-1.6,0.9
	l0.6,0.6L52.2,12.9z"/>
<path class="st3" d="M54.4,13.8l0.2,0.3L53,17.2l2.5-1.8l0.3,0.4l-3.5,2.6l-0.2-0.3l1.6-3.2l-2.5,1.9l-0.3-0.4L54.4,13.8z"/>
<path class="st3" d="M56.3,18.7c0.2-0.2,0.2-0.5,0.1-0.8c-0.2-0.2-0.5-0.4-0.7-0.3c-0.4,0-0.8,0.1-1.1,0.3c-0.3,0.2-0.6,0.4-0.8,0.8
	c-0.2,0.2-0.2,0.5-0.1,0.8c0.2,0.2,0.4,0.3,0.7,0.3l-0.8,0.4c-0.2-0.1-0.4-0.2-0.5-0.4C53,19.5,53,19,53.2,18.7
	c0.3-0.5,0.7-0.9,1.1-1.1c0.5-0.3,1-0.5,1.6-0.5c0.4,0,0.8,0.2,1.1,0.5c0.1,0.2,0.1,0.4,0.1,0.7L56.3,18.7z"/>
<path class="st3" d="M56.7,21.2l1.6-0.7l0.2,0.4l-3.9,1.8l-0.2-0.4l1.8-0.8l-0.5-1.1L54,21.2l-0.2-0.4l3.8-1.7l0.2,0.4l-1.6,0.7
	L56.7,21.2z"/>
<path class="st3" d="M58.9,25.7c0.2-0.2,0.3-0.4,0.3-0.7c-0.1-0.2-0.3-0.4-0.6-0.5c-0.4-0.1-0.8-0.1-1.1,0c-0.4,0.1-0.7,0.3-1,0.5
	c-0.2,0.2-0.3,0.4-0.3,0.7c0.1,0.3,0.3,0.4,0.6,0.5l-0.8,0.2c-0.5-0.3-0.6-0.9-0.3-1.4c0.1-0.1,0.2-0.2,0.3-0.3
	c0.4-0.4,0.9-0.6,1.4-0.8c0.6-0.2,1.1-0.2,1.7,0c0.4,0.1,0.8,0.4,0.9,0.8c0.1,0.2,0,0.5-0.1,0.7L58.9,25.7z"/>
<path class="st3" d="M58,26.5c0.5-0.1,1.1,0,1.6,0.2c0.4,0.1,0.7,0.5,0.8,0.9c0,0.4-0.1,0.8-0.5,1.1c-0.4,0.3-1,0.5-1.5,0.6
	c-0.5,0.1-1.1,0-1.6-0.2c-0.6-0.1-0.9-0.7-0.8-1.3c0.1-0.3,0.3-0.6,0.5-0.7C56.9,26.7,57.5,26.5,58,26.5z M58.1,27
	c-0.4,0-0.7,0.2-1,0.4c-0.2,0.1-0.4,0.4-0.4,0.7c0.1,0.3,0.3,0.5,0.5,0.6c0.4,0.1,0.8,0.1,1.1,0.1c0.4,0,0.7-0.2,1-0.4
	c0.2-0.1,0.4-0.4,0.3-0.7c0-0.3-0.2-0.5-0.5-0.6C58.8,26.9,58.5,26.9,58.1,27L58.1,27z"/>
<path class="st3" d="M60.5,29.8v0.5l-2.4,0.1c-0.9,0-1.4,0.2-1.4,0.6s0.5,0.6,1.4,0.5l2.4,0v0.5l-2.5,0c-1.2,0-1.8-0.3-1.8-1
	s0.6-1,1.8-1.1L60.5,29.8z"/>
<path class="st3" d="M56.2,34.3v-0.6l2-0.7l-1.9-0.1v-0.5l4.2,0.3l0,0.7c0,0.6-0.5,0.9-1.3,0.8c-0.3,0-0.5-0.1-0.8-0.2
	c-0.2-0.1-0.3-0.3-0.3-0.5L56.2,34.3z M58.4,33.1v0.1c0,0.4,0.2,0.6,0.7,0.6s0.7-0.1,0.8-0.5v-0.2L58.4,33.1z"/>
<path class="st3" d="M56,35.4V35l3.6,0.6l0.1-0.6l0.6,0.1L60,36.7l-0.6-0.1l0.1-0.6L56,35.4z"/>
</svg>
