<?xml version="1.0" encoding="utf-8"?>
<!-- Generator: Adobe Illustrator 27.8.1, SVG Export Plug-In . SVG Version: 6.00 Build 0)  -->
<svg version="1.1" id="圖層_1" xmlns="http://www.w3.org/2000/svg" xmlns:xlink="http://www.w3.org/1999/xlink" x="0px" y="0px"
	 viewBox="0 0 270.8 64" style="enable-background:new 0 0 270.8 64;" xml:space="preserve">
<style type="text/css">
	.st0{fill:#FFFFFF;}
	.st1{fill:url(#SVGID_1_);}
	.st2{fill:#005BAB;}
	.st3{fill:#B7A246;}
</style>
<path class="st0" d="M91.7,15.2v1.5h-9.4v1h7.6V19H72.6v-1.3H80v-1h-9.2v-1.5H80v-1.4h2.3v1.4C82.3,15.2,91.7,15.2,91.7,15.2z
	 M82.3,33.8h9.4v1.6H70.8v-1.6H80v-1h-6.8v-1.4H80v-1c-4.4,0.1-5.1,0.2-5.6,0.3c-0.1-0.5-0.3-1-0.5-1.5c0.4-0.1,0.9-0.2,1.3-0.3
	c0.7-0.3,1.4-0.6,2-1h-3.7v-1.3h15.2V28h-2.3c1.1,0.6,2.1,1.3,3.1,2.1l-1.4,1.1c-0.4-0.4-0.8-0.7-1.2-1l-4.7,0.1v1h7.2v1.4h-7.2
	L82.3,33.8L82.3,33.8z M71.2,24.3h20.2v3.5h-2.1v-2H73.2v2h-2V24.3z M89,19.9v3.5H73.6v-3.5H89z M86.8,21.1H75.7v1.1h11.1
	C86.8,22.2,86.8,21.1,86.8,21.1z M79.8,28c-0.7,0.4-1.4,0.8-2.1,1.2l7.6-0.2c-0.5-0.3-1.1-0.6-1.6-0.9l0.2-0.1H79.8z"/>
<path class="st0" d="M97.5,24.5c-1-1-2.2-1.8-3.4-2.5l1.2-1.5c1.3,0.6,2.4,1.4,3.5,2.3L97.5,24.5z M94.5,34.5c1.1-2.5,2.1-5,3-7.6
	l1.8,1.1c-0.8,2.5-1.8,5.3-2.8,7.6L94.5,34.5z M98,18.3c-1-1-2.1-1.9-3.3-2.7l1.3-1.5c1.2,0.7,2.4,1.5,3.4,2.4L98,18.3z M100.8,22.9
	c-0.2,1.1-0.5,2.2-1,3.2c-0.3-0.3-0.6-0.5-1-0.7c0.5-0.9,0.7-1.8,0.9-2.8L100.8,22.9z M103.9,21.9c-0.1-0.2-0.1-0.5-0.2-0.7
	c-3.1,0.4-3.7,0.5-4.1,0.7c-0.1-0.3-0.3-0.7-0.5-1c0.5-0.1,0.8-0.4,1.1-0.8c0.5-0.5,0.9-1.1,1.3-1.7c-0.7,0-1.4,0.1-2.1,0.3
	c-0.1-0.4-0.3-0.7-0.5-1c0.3-0.1,0.6-0.3,0.8-0.6c0.6-0.9,1.1-1.9,1.4-3l1.3,0.5c-0.4,1-1,1.9-1.6,2.7l1.4-0.1
	c0.2-0.3,0.4-0.7,0.6-1.1l1.3,0.5c-0.8,1.3-1.7,2.5-2.8,3.7l1.8-0.2c-0.1-0.2-0.3-0.5-0.4-0.7l1-0.4c0.5,0.8,0.8,1.6,1.1,2.4
	L103.9,21.9z M115.2,31c0,0.3-0.1,0.6-0.2,0.8c-0.4,2-0.9,3-1.5,3.5c-0.6,0.4-1.3,0.6-2,0.5c-0.7,0-2.2,0-3.7-0.1
	c-0.1-0.6-0.3-1.2-0.6-1.7c1.5,0.1,3,0.2,3.6,0.2c0.3,0,0.7,0,1-0.2c0.5-0.5,0.8-1.1,0.9-1.7h-12.3c0.4-1.2,0.7-2.5,1-3.8H112v-1
	h-11.3v-1.4h13.4V30h-10.9l-0.3,1H115.2z M101.6,25.7c0-1-0.2-1.9-0.5-2.9l1.1-0.3c0.3,0.9,0.5,1.8,0.6,2.8L101.6,25.7z M103.7,25.1
	c-0.2-0.9-0.4-1.8-0.7-2.6l1-0.3c0.4,0.8,0.6,1.6,0.8,2.5L103.7,25.1z M110.3,17.5h-5.7v-1.3h2.5c-0.2-0.6-0.5-1.2-0.8-1.8l1.5-0.3
	c0.4,0.6,0.7,1.2,1,1.9l-1.1,0.3h2.8L110.3,17.5z M105.2,22h4.5v3.5h-4.5V22z M109.7,19.4h-4.5v-1.2h4.5V19.4z M105.2,20.1h4.5v1.1
	h-4.5V20.1z M106.6,24.4h1.7V23h-1.7V24.4z M111.9,22.8c-0.2,1.1-0.5,2.2-1,3.2c-0.3-0.3-0.6-0.5-1-0.7c0.4-0.9,0.7-1.8,0.9-2.8
	L111.9,22.8z M115.1,22c-0.1-0.2-0.2-0.5-0.3-0.8c-1.4,0.1-2.8,0.3-4.1,0.7c-0.1-0.2-0.3-0.8-0.5-1c0.5-0.1,0.9-0.4,1.1-0.8
	c0.5-0.5,0.9-1.1,1.3-1.7c-0.7,0-1.4,0.1-2.1,0.3c-0.1-0.3-0.3-0.7-0.5-1c0.3,0,0.5-0.3,0.8-0.6c0.6-0.9,1.1-1.9,1.4-3l1.3,0.4
	c-0.4,1-0.9,1.9-1.5,2.7l1.4-0.1c0.2-0.4,0.4-0.7,0.6-1.1l1.3,0.5c-0.8,1.3-1.7,2.6-2.8,3.7l1.8-0.2l-0.4-0.7l1-0.4
	c0.5,0.8,0.9,1.6,1.2,2.5L115.1,22z M112.8,25.9c0-1-0.2-2.1-0.5-3.1l1-0.3c0.3,1,0.5,2,0.6,3L112.8,25.9z M115.1,22.1
	c0.5,0.9,0.8,2,1,3l-1,0.5c-0.2-1.1-0.5-2.1-0.9-3.1L115.1,22.1z"/>
<path class="st0" d="M130.4,23.4v9h8.3v2.2h-18.8v-2.2h8.1v-9h-9.5v-2.2h9.5v-7.3h2.4v7.3h9.6v2.2L130.4,23.4z"/>
<path class="st0" d="M151.2,27.6c-0.5-0.8-1.5-2.3-2.4-3.4v11.6h-2.2V25.1c-0.8,2.3-2,4.6-3.5,6.5c-0.3-0.7-0.7-1.5-1.2-2.1
	c2-2.5,3.5-5.4,4.3-8.5h-3.7v-2.1h4.1v-5.1h2.2v5.1h3.3V21h-3.3v0.5c0.8,0.7,3.2,3.5,3.8,4.2L151.2,27.6z M159.9,21
	c0.9,3.3,2.5,6.5,4.6,9.2c-0.6,0.5-1.2,1.1-1.7,1.8c-1.5-2.2-2.6-4.5-3.4-7v10.9h-2.2V25.1c-1.1,2.7-2.6,5.2-4.6,7.4
	c-0.3-0.7-0.8-1.4-1.3-2c2.5-2.7,4.4-5.9,5.4-9.5H153v-2.1h4.1v-5.1h2.2v5.1h4.4V21H159.9z"/>
<path class="st0" d="M173.7,26.6l0.5,2c-2.5,1.2-5.2,2.5-7.3,3.4l-0.9-2.2c0.9-0.3,2-0.7,3.2-1.2v-6.9h-2.7v-2.1h2.7v-5.3h2.1v5.3
	h2.4v2.1h-2.4v6L173.7,26.6z M184.7,33.4c1.3,0,1.6-0.6,1.8-3.2c0.6,0.4,1.3,0.7,2,0.8c-0.3,3.3-1,4.4-3.6,4.4h-5.5
	c-2.9,0-3.8-0.8-3.8-3.6v-6.9l-1.7,0.7l-0.8-2l2.5-1.1v-6.4h2.1v5.5l2.7-1.1v-6.6h2.1v5.7l3.2-1.4l1.6,0.5l-0.1,0.4
	c-0.2,3.5-0.6,7-1.2,10.5l-1.8-0.5c0.4-2.8,0.7-5.5,0.7-8.3l-2.5,1.1v8.6h-2.1v-7.7l-2.7,1.2v7.9c0,1.3,0.3,1.6,1.8,1.6h5.3V33.4z"
	/>
<path class="st0" d="M199.6,20c-0.1,1.1-0.1,2.3-0.3,3.4h10.2c0,0.3,0,0.7-0.1,1c-0.4,6.6-0.9,9.3-1.9,10.2
	c-0.6,0.6-1.4,0.9-2.3,0.9c-1.3,0.1-2.7,0-4.1,0c-0.1-0.8-0.3-1.5-0.8-2.2c1.7,0.1,3.3,0.2,4,0.2c0.4,0,0.8-0.1,1.1-0.3
	c0.7-0.6,1.1-2.8,1.5-7.7h-8c-0.8,4.1-2.5,8-7,10.4c-0.4-0.7-1-1.3-1.6-1.8c5.9-3,6.5-8.9,6.8-14.1h-6.3v-2.2h10.3
	c-0.4-1.2-0.9-2.3-1.5-3.4l2.2-0.8c0.7,1.1,1.2,2.3,1.7,3.5l-1.6,0.7h9.9V20H199.6z"/>
<path class="st0" d="M218.7,24.8c-1.4-1-2.8-1.9-4.4-2.6l1.2-1.7c1.6,0.6,3.1,1.4,4.5,2.4L218.7,24.8z M215.1,34.1
	c1.7-2.4,3.2-5,4.5-7.6l1.6,1.5c-1.2,2.5-2.8,5.4-4.2,7.6L215.1,34.1z M216.9,14.1c1.6,0.7,3.1,1.5,4.5,2.5l-1.3,1.9
	c-1.4-1.1-2.9-2-4.5-2.7L216.9,14.1z M233.9,35.8c-0.3-0.8-0.6-1.5-1-2.3c-8.5,1-9.6,1.2-10.3,1.6c-0.2-0.8-0.5-1.5-0.8-2.2
	c0.5-0.1,1-0.7,1.5-1.6c1.2-1.7,2.2-3.6,3-5.5h-4.9v-2.1h5.9v-3.9h-4.9v-2.1h4.9v-3.9h2.3v3.9h5.1v2.1h-5.1v3.9h6v2.1H229
	c-1.1,2.3-2.4,4.5-3.8,6.6l6.7-0.7c-0.6-1-1.2-1.9-1.9-2.8l1.8-0.9c1.7,2.1,3.1,4.3,4.1,6.8L233.9,35.8z"/>
<path class="st0" d="M246.3,15.6c-0.7,2-1.5,4.3-2.2,6.2c1.2,1.4,1.9,3.2,1.9,5.1c0.1,1.1-0.2,2.2-1,2.9c-0.4,0.3-0.8,0.4-1.3,0.5
	c-0.4,0-1,0-1.6,0c0-0.7-0.2-1.3-0.5-1.9c0.4,0,0.8,0,1.2,0c0.2,0,0.5-0.1,0.7-0.2c0.4-0.4,0.6-1,0.5-1.6c-0.1-1.7-0.8-3.4-2-4.6
	c0.6-1.6,1.2-3.6,1.7-5.2h-2.6v19h-2v-21h5.4l0.3-0.1L246.3,15.6z M258,33.7c0.5,0,0.5-0.4,0.6-3c0.6,0.4,1.2,0.7,1.9,0.8
	c-0.2,3.2-0.7,4-2.2,4h-2c-1.9,0-2.3-0.5-2.3-2.5v-5.7h-2.1c-0.4,4.2-1.5,7-6.1,8.6c-0.3-0.7-0.7-1.3-1.3-1.8c4-1.3,4.9-3.4,5.2-6.8
	h-3.1v-2h13.5v2h-4v5.6c0,0.7,0.1,0.7,0.5,0.7L258,33.7L258,33.7z M248.5,21.2h-1.9v-4.4h5.8c-0.3-0.8-0.7-1.7-1.1-2.5l2.1-0.6
	c0.6,1,1.1,2,1.5,3.1h5.2v4.4h-1.9V23h-9.7L248.5,21.2z M248.6,18.7V21h9.3v-2.3H248.6z"/>
<path class="st0" d="M71.8,45v-0.8h4.3V45h-1.8v7.1h-0.8V45H71.8z"/>
<path class="st0" d="M84.9,46.2V52h-0.7v-1c-0.3,0.4-0.7,0.7-1.1,0.9s-0.8,0.3-1.3,0.3c-0.8,0-1.6-0.3-2.1-0.9
	c-0.6-0.6-0.9-1.4-0.9-2.2s0.3-1.6,0.9-2.1c0.6-0.6,1.3-0.9,2.1-0.9c0.5,0,0.9,0.1,1.3,0.3s0.7,0.5,1,0.9v-1.1H84.9z M81.9,46.8
	c-0.8,0-1.6,0.5-2,1.2c-0.2,0.4-0.3,0.8-0.3,1.2c0,0.8,0.4,1.6,1.2,2.1c0.3,0.2,0.7,0.3,1.2,0.3c0.4,0,0.8-0.1,1.2-0.3
	c0.4-0.2,0.6-0.5,0.8-0.8c0.2-0.4,0.3-0.8,0.3-1.2c0-0.6-0.2-1.2-0.7-1.7C83.1,47,82.5,46.8,81.9,46.8z"/>
<path class="st0" d="M88.8,43.8c0.2,0,0.3,0.1,0.4,0.2c0.1,0.1,0.2,0.3,0.2,0.4c0,0.2-0.1,0.3-0.2,0.4c-0.1,0.1-0.3,0.2-0.4,0.2
	c-0.2,0-0.3-0.1-0.4-0.2c-0.1-0.1-0.2-0.3-0.2-0.4C88.1,44.1,88.4,43.8,88.8,43.8z M88.4,46.2h0.8V52h-0.8V46.2z"/>
<path class="st0" d="M91.8,46.2h0.8l1.8,4.2l1.9-4.2h0.1l1.9,4.2l1.8-4.2h0.8L98.4,52h-0.1l-1.9-4.2L94.5,52h-0.1L91.8,46.2z"/>
<path class="st0" d="M109.5,46.2V52h-0.7v-1c-0.3,0.4-0.6,0.7-1.1,0.9c-0.4,0.2-0.8,0.3-1.3,0.3c-0.8,0-1.6-0.3-2.1-0.9
	c-0.6-0.6-0.9-1.4-0.9-2.2c0-1.7,1.3-3,2.9-3.1c0,0,0,0,0.1,0c0.5,0,0.9,0.1,1.3,0.3s0.7,0.5,1,0.9v-1.1L109.5,46.2L109.5,46.2z
	 M106.5,46.8c-0.8,0-1.6,0.5-2,1.2c-0.2,0.4-0.3,0.8-0.3,1.2s0.1,0.8,0.3,1.2c0.2,0.4,0.5,0.7,0.8,0.9s0.7,0.3,1.1,0.3
	s0.8-0.1,1.2-0.3c0.4-0.2,0.6-0.5,0.8-0.8c0.2-0.4,0.3-0.8,0.3-1.2c0-0.6-0.2-1.2-0.7-1.7C107.7,47,107.1,46.8,106.5,46.8z"/>
<path class="st0" d="M113.1,46.2h0.8v1c0.3-0.4,0.6-0.7,1-0.9s0.8-0.3,1.2-0.3c0.4,0,0.8,0.1,1.2,0.3c0.3,0.2,0.6,0.5,0.8,0.9
	c0.2,0.6,0.3,1.2,0.2,1.8v3h-0.8v-2.8c0-0.5,0-0.9-0.1-1.3c-0.1-0.3-0.2-0.7-0.5-0.9s-0.6-0.3-1-0.3s-0.9,0.2-1.2,0.5
	c-0.4,0.3-0.6,0.7-0.7,1.1c-0.1,0.5-0.1,1.1-0.1,1.6V52h-0.8V46.2z"/>
<path class="st0" d="M126.1,50.6l0.7-0.4c0.5,0.9,1,1.3,1.6,1.3c0.3,0,0.5-0.1,0.8-0.2c0.2-0.1,0.4-0.3,0.5-0.5s0.2-0.4,0.2-0.7
	s-0.1-0.6-0.3-0.8c-0.4-0.5-0.8-0.9-1.4-1.3c-0.4-0.3-0.8-0.7-1.2-1.1c-0.3-0.3-0.4-0.8-0.4-1.2c0-0.3,0.1-0.7,0.2-0.9
	c0.2-0.3,0.4-0.5,0.7-0.7c0.3-0.2,0.7-0.3,1-0.2c0.4,0,0.7,0.1,1,0.3c0.4,0.3,0.7,0.6,1,1l-0.6,0.5c-0.2-0.3-0.5-0.6-0.8-0.8
	c-0.2-0.1-0.4-0.2-0.7-0.2s-0.6,0.1-0.8,0.3c-0.2,0.2-0.3,0.4-0.3,0.7c0,0.2,0,0.3,0.1,0.5s0.2,0.4,0.4,0.5c0.1,0.1,0.4,0.4,1,0.8
	c0.5,0.4,1,0.8,1.4,1.3c0.2,0.3,0.4,0.8,0.4,1.2c0,0.6-0.2,1.1-0.7,1.5c-0.4,0.4-1,0.6-1.6,0.6c-0.5,0-0.9-0.1-1.3-0.4
	C126.7,51.5,126.3,51.1,126.1,50.6z"/>
<path class="st0" d="M134.1,44h0.8v3.3c0.3-0.4,0.6-0.7,1-0.9s0.8-0.3,1.2-0.3s0.8,0.1,1.2,0.3c0.3,0.2,0.6,0.5,0.8,0.9
	c0.2,0.6,0.3,1.2,0.2,1.8v3h-0.8v-2.8c0-0.5,0-0.9-0.1-1.3c-0.1-0.7-0.7-1.2-1.5-1.2c-0.4,0-0.9,0.2-1.2,0.5
	c-0.4,0.3-0.6,0.7-0.7,1.1c-0.1,0.5-0.1,1.1-0.1,1.6v2.1h-0.8L134.1,44L134.1,44z"/>
<path class="st0" d="M143,43.8c0.2,0,0.3,0.1,0.4,0.2c0.1,0.1,0.2,0.3,0.2,0.4c0,0.2-0.1,0.3-0.2,0.4c-0.1,0.1-0.3,0.2-0.4,0.2
	c-0.3,0-0.6-0.3-0.6-0.6l0,0c0-0.2,0.1-0.3,0.2-0.4C142.7,43.9,142.8,43.8,143,43.8z M142.6,46.2h0.8V52h-0.8V46.2z"/>
<path class="st0" d="M146.8,44h0.8v8.1h-0.8V44z"/>
<path class="st0" d="M151.3,43.8c0.3,0,0.6,0.3,0.6,0.6c0,0.2-0.1,0.3-0.2,0.4c-0.1,0.1-0.3,0.2-0.4,0.2c-0.2,0-0.3-0.1-0.4-0.2
	c-0.1-0.1-0.2-0.3-0.2-0.4c0-0.2,0.1-0.3,0.2-0.4C151,43.9,151.1,43.8,151.3,43.8z M150.9,46.2h0.8V52h-0.8V46.2z"/>
<path class="st0" d="M155.2,46.2h0.8v1c0.3-0.4,0.6-0.7,1-0.9s0.8-0.3,1.2-0.3s0.8,0.1,1.2,0.3c0.3,0.2,0.6,0.5,0.8,0.9
	c0.2,0.6,0.3,1.2,0.2,1.8v3h-0.8v-2.8c0-0.5,0-0.9-0.1-1.3c-0.1-0.3-0.2-0.7-0.5-0.9s-0.6-0.3-1-0.3c-0.5,0-0.9,0.2-1.2,0.5
	s-0.6,0.7-0.7,1.1c-0.1,0.5-0.1,1.1-0.1,1.6V52h-0.8L155.2,46.2z"/>
<path class="st0" d="M168.9,52.1v-7.9h1.6c0.9,0,1.7,0.1,2.6,0.3c0.7,0.2,1.4,0.7,1.8,1.4c0.4,0.7,0.7,1.5,0.6,2.4
	c0,0.7-0.2,1.4-0.5,2.1c-0.3,0.6-0.8,1-1.3,1.3c-0.7,0.3-1.5,0.5-2.3,0.4H168.9z M169.6,51.3h0.9c0.8,0,1.5,0,2.3-0.2
	c0.6-0.2,1.1-0.5,1.4-1c0.4-0.5,0.5-1.2,0.5-1.8c0-0.7-0.2-1.4-0.6-2c-0.4-0.5-0.9-0.9-1.5-1.1c-0.8-0.2-1.6-0.3-2.4-0.2h-0.6
	L169.6,51.3z"/>
<path class="st0" d="M179.1,43.8c0.2,0,0.3,0.1,0.4,0.2c0.1,0.1,0.2,0.3,0.2,0.4c0,0.2-0.1,0.3-0.2,0.4c-0.1,0.1-0.3,0.2-0.4,0.2
	c-0.2,0-0.3-0.1-0.4-0.2c-0.1-0.1-0.2-0.3-0.2-0.4c0-0.2,0.1-0.3,0.2-0.4C178.8,43.9,179,43.8,179.1,43.8z M178.8,46.2h0.8V52h-0.8
	V46.2z"/>
<path class="st0" d="M185.9,46.9l-0.5,0.5c-0.3-0.3-0.7-0.6-1.2-0.6c-0.2,0-0.5,0.1-0.6,0.2c-0.2,0.1-0.3,0.4-0.3,0.6
	c0,0.2,0.1,0.4,0.2,0.5c0.3,0.3,0.6,0.5,0.9,0.6c0.4,0.2,0.8,0.5,1.1,0.8c0.2,0.3,0.3,0.6,0.3,0.9c0,0.5-0.2,0.9-0.5,1.2
	s-0.8,0.5-1.3,0.5c-0.3,0-0.7-0.1-1-0.2c-0.3-0.1-0.6-0.3-0.8-0.6l0.5-0.5c0.3,0.4,0.7,0.6,1.2,0.7c0.3,0,0.6-0.1,0.8-0.3
	c0.4-0.3,0.4-0.8,0.1-1.2c-0.3-0.3-0.6-0.5-0.9-0.6c-0.4-0.2-0.8-0.5-1.1-0.8c-0.4-0.6-0.4-1.5,0.2-2c0.3-0.3,0.7-0.5,1.1-0.4
	C184.9,46.1,185.5,46.4,185.9,46.9z"/>
<path class="st0" d="M189.9,44.1h0.8v2.2h1.2V47h-1.2v5.2h-0.8V47h-1v-0.7h1V44.1z"/>
<path class="st0" d="M194.6,46.2h0.8V47c0.2-0.3,0.4-0.5,0.7-0.8c0.2-0.2,0.5-0.2,0.8-0.2c0.2,0,0.5,0.1,0.7,0.2l-0.4,0.6
	c-0.1-0.1-0.3-0.1-0.4-0.1c-0.3,0-0.5,0.1-0.7,0.3c-0.3,0.3-0.5,0.6-0.5,1c-0.1,0.7-0.2,1.3-0.1,2v2h-0.8L194.6,46.2z"/>
<path class="st0" d="M200.4,43.8c0.3,0,0.6,0.3,0.6,0.6c0,0.2-0.1,0.3-0.2,0.4c-0.1,0.1-0.3,0.2-0.4,0.2c-0.2,0-0.3-0.1-0.4-0.2
	c-0.1-0.1-0.2-0.3-0.2-0.4c0-0.2,0.1-0.3,0.2-0.4C200,43.9,200.2,43.8,200.4,43.8z M200,46.2h0.8V52H200V46.2z"/>
<path class="st0" d="M209.9,47.4l-0.6,0.4c-0.5-0.7-1.3-1-2.1-1c-0.7,0-1.3,0.2-1.8,0.7c-0.5,0.4-0.7,1-0.7,1.7
	c0,0.4,0.1,0.8,0.3,1.2s0.5,0.7,0.9,0.9c1.1,0.6,2.6,0.3,3.4-0.7l0.6,0.4c-0.3,0.4-0.7,0.8-1.1,1c-0.5,0.2-1.1,0.4-1.6,0.3
	c-0.9,0-1.7-0.3-2.3-0.9c-0.6-0.6-0.9-1.3-0.9-2.1c0-0.6,0.1-1.1,0.4-1.6c0.3-0.5,0.7-0.9,1.2-1.1c0.5-0.3,1.1-0.4,1.7-0.4
	c0.4,0,0.8,0.1,1.1,0.2c0.3,0.1,0.6,0.3,0.9,0.5C209.5,46.9,209.7,47.2,209.9,47.4z"/>
<path class="st0" d="M213.9,44.1h0.8v2.2h1.2V47h-1.2v5.2h-0.8V47h-1v-0.7h1V44.1z"/>
<path class="st0" d="M231.4,45.6l-0.6,0.5c-0.3-0.4-0.8-0.8-1.2-1c-0.5-0.2-1-0.4-1.6-0.3c-0.6,0-1.2,0.2-1.8,0.5
	c-0.5,0.3-1,0.7-1.2,1.2c-0.3,0.5-0.4,1.1-0.4,1.7c0,0.9,0.3,1.8,1,2.4c0.7,0.7,1.6,1,2.5,1c1.1,0,2.1-0.5,2.8-1.3l0.6,0.5
	c-0.4,0.5-0.9,0.9-1.5,1.2s-1.3,0.4-2,0.4c-2.2,0.1-4.1-1.6-4.3-3.8c0-0.1,0-0.2,0-0.3c0-1.1,0.4-2.2,1.2-2.9
	c0.8-0.8,1.9-1.2,3.1-1.2c0.7,0,1.4,0.1,2,0.4C230.5,44.7,231,45.1,231.4,45.6z"/>
<path class="st0" d="M237.5,46.1c0.9,0,1.7,0.4,2.2,1s0.8,1.3,0.8,2.1s-0.3,1.6-0.9,2.1c-1.2,1.2-3.2,1.2-4.4,0l0,0
	c-0.5-0.6-0.9-1.3-0.9-2.1s0.3-1.5,0.8-2.1C235.8,46.4,236.7,46.1,237.5,46.1z M237.5,46.8c-0.6,0-1.2,0.2-1.6,0.7
	c-0.4,0.4-0.7,1-0.7,1.7c0,0.4,0.1,0.8,0.3,1.2c0.2,0.3,0.5,0.6,0.8,0.8c0.7,0.4,1.6,0.4,2.3,0c0.3-0.2,0.6-0.5,0.8-0.8
	c0.2-0.4,0.3-0.8,0.3-1.2c0-0.6-0.2-1.2-0.7-1.7C238.7,47.1,238.1,46.8,237.5,46.8z"/>
<path class="st0" d="M243.8,46.2h0.8V49c0,0.5,0,0.9,0.1,1.4c0.1,0.3,0.3,0.6,0.6,0.8s0.7,0.3,1.1,0.3c0.4,0,0.7-0.1,1.1-0.3
	c0.3-0.2,0.5-0.5,0.6-0.8c0.1-0.5,0.1-1,0.1-1.4v-2.8h0.8v2.9c0,0.6-0.1,1.2-0.3,1.8c-0.2,0.4-0.5,0.8-0.9,1s-0.9,0.4-1.4,0.3
	c-0.5,0-1-0.1-1.4-0.3s-0.7-0.6-0.9-1c-0.2-0.6-0.3-1.2-0.3-1.9L243.8,46.2L243.8,46.2z"/>
<path class="st0" d="M252.2,46.2h0.8V47c0.2-0.3,0.4-0.5,0.7-0.8c0.4-0.3,1-0.3,1.5,0l-0.4,0.6c-0.1-0.1-0.3-0.1-0.4-0.1
	c-0.3,0-0.5,0.1-0.7,0.3c-0.3,0.3-0.5,0.6-0.5,1c-0.1,0.7-0.2,1.3-0.1,2v2h-0.8L252.2,46.2z"/>
<path class="st0" d="M258.4,44.1h0.8v2.2h1.2V47h-1.2v5.2h-0.8V47h-1v-0.7h1V44.1z"/>
<circle class="st0" cx="32.7" cy="31.4" r="30.3"/>
<linearGradient id="SVGID_1_" gradientUnits="userSpaceOnUse" x1="32.65" y1="294.8" x2="32.65" y2="271.55" gradientTransform="matrix(1 0 0 1 0 -234)">
	<stop  offset="0.69" style="stop-color:#B7A246"/>
	<stop  offset="1" style="stop-color:#FFFFFF"/>
</linearGradient>
<path class="st1" d="M61.5,37.8c-3.1,13.4-15.1,22.9-28.8,23c-14,0-25.9-10.2-28.9-23.2h7.4c2.8,9,11.5,16.1,21.5,16.1
	c9.8-0.1,18.4-6.5,21.4-15.8L61.5,37.8L61.5,37.8z"/>
<path class="st2" d="M53.6,31.3c0,11.6-9.4,21-21,21s-21-9.4-21-21s9.4-21,21-21S53.6,19.7,53.6,31.3L53.6,31.3z"/>
<path class="st0" d="M34.3,33.8H31V42c0,0.9,0.8,1.7,1.7,1.7s1.6-0.7,1.6-1.6l0,0V33.8z"/>
<path class="st0" d="M35.6,44h-5.8c-0.4,0-0.7,0.3-0.8,0.6l0,0v0.8c0,0.4,0.4,0.7,0.7,0.7l0,0h5.8c0.4,0,0.7-0.2,0.7-0.6l0,0v-0.8
	C36.3,44.3,35.9,44,35.6,44L35.6,44z"/>
<path class="st0" d="M36.7,46.9h-8c-0.6,0-1,0.3-1,0.7v0.8c0,0.4,0.4,0.7,1,0.7h8c0.5,0,1-0.3,1-0.7v-0.8
	C37.7,47.2,37.2,46.9,36.7,46.9z"/>
<path class="st0" d="M48.9,23.3c0-0.3-0.2-0.5-0.4-0.6c-0.4-0.3-1-0.2-1.4,0.1c-2.4,2.2-6.1,2.2-8.6,0c-3.2-2.7-7.9-2.8-11.2-0.2
	l0,0l-0.2,0.2l0,0c-1.2,1.1-2.8,1.7-4.4,1.7s-3.2-0.6-4.4-1.7c-0.2-0.2-0.4-0.3-0.7-0.3c-0.2,0-0.5,0-0.7,0.2
	c-0.2,0.1-0.4,0.4-0.4,0.6v0.1c0,0.2,0.1,0.4,0.3,0.6c1.6,1.5,3.7,2.3,5.9,2.3c2,0,3.9-0.6,5.5-1.9l0,0l0,0l0.1-0.1
	c2.5-2.2,6.2-2.2,8.7-0.1c1.6,1.4,3.6,2.1,5.7,2.1c2.2,0,4.3-0.8,5.9-2.3c0.2-0.2,0.3-0.4,0.3-0.6C48.9,23.4,48.9,23.3,48.9,23.3z
	 M48.9,23.3L48.9,23.3L48.9,23.3z"/>
<path class="st0" d="M36.1,17c0,1.9-1.6,3.4-3.5,3.4c-1.9,0-3.4-1.6-3.4-3.5s1.5-3.4,3.4-3.4C34.6,13.5,36.1,15.1,36.1,17z"/>
<path class="st0" d="M27.6,38.4l-5.3-12C22.2,26.2,22,26,21.7,26c-0.2,0-0.4,0.1-0.5,0.4l0,0l-5.3,12c-0.1,0.2-0.1,0.4,0,0.6
	c1.2,2,3.4,3.2,5.8,3.2c2.4,0.1,4.6-1.1,5.8-3.1C27.7,38.8,27.7,38.6,27.6,38.4z M21.7,28.1c0.3,0.7,4.3,9.8,4.6,10.4h-9.2l3.1-7
	L21.7,28.1z"/>
<path class="st0" d="M49.5,38.4l-5.3-12c-0.1-0.2-0.3-0.4-0.5-0.4s-0.4,0.1-0.5,0.4l0,0l-5.3,12c-0.1,0.2-0.1,0.4,0,0.6
	c1.2,2,3.4,3.2,5.8,3.2c2.4,0.1,4.6-1.1,5.8-3.1C49.6,38.8,49.6,38.6,49.5,38.4z M43.7,28.1l4.6,10.4h-9.2c0.2-0.4,2-4.5,2-4.5
	S43.4,28.8,43.7,28.1z"/>
<path class="st0" d="M38.3,25.4c-0.5,0-0.8,0.3-0.9,0.8c0,0.1,0,0.1,0,0.2h-1.2v-0.5h-7v0.5H28c0.1-0.4-0.3-0.9-0.7-0.9
	c-0.1,0-0.1,0-0.2,0c0,0-0.8,0-0.8,1v4.4c0,1.1,0.8,1,0.8,1c0.5,0,0.9-0.3,0.9-0.8V31h1.1v0.5H31V33h3.3v-1.5h1.9V31h1.2
	c-0.1,0.5,0.3,0.9,0.7,0.9h0.1c0,0,0.8,0,0.8-1v-4.4C39,25.4,38.3,25.4,38.3,25.4z"/>
<path class="st0" d="M12.8,51.4l-3.4-4.2L9.5,47l1.6,2l0.3-0.2L10,47.1l0.2-0.2l1.4,1.7l0.3-0.2c-0.2-0.2-0.6-0.7-1.2-1.5l0.2-0.2
	c0.3,0.3,0.6,0.5,1,0.6l-0.5-0.7l0.2-0.2l2.4,3l-0.2,0.2l-0.3-0.3c0,0.3-0.1,0.6-0.1,0.9L13,50.1c0-0.1,0.1-0.2,0.1-0.3l-1-1.1
	l-0.3,0.2l1.4,1.7L13,50.7L11.6,49l-0.3,0.2l1.6,2L12.8,51.4z M14.1,50.1l-0.2-0.2l0.4-0.4L11.5,46l-0.4,0.3l-0.2-0.2l0.6-0.5l3.3,4
	L14.1,50.1z M13.1,49.4c0-0.1,0-0.2,0-0.3h0.2l-1.2-1.5c-0.3,0-0.5-0.1-0.8-0.3C11.7,47.8,12.2,48.5,13.1,49.4z M14.6,49l-2.5-3.1
	l0.6-0.5l2.5,3.1L14.6,49z M14.6,48.6l0.2-0.2l-2.1-2.6L12.5,46L14.6,48.6z M16.4,48.5l-1.6-2l-0.2,0.2l1.4,1.7l-0.2,0.2l-3.1-3.8
	l0.2-0.2l1.4,1.8l0.2-0.2l-1.6-2l0.2-0.2l1.6,2l0.2-0.2l0.2,0.3L15,46.3l1.6,2L16.4,48.5z"/>
<path class="st0" d="M15.9,51.7c-0.6,0.4-1.2,0.7-1.8,1L14,52.4c0.6-0.3,1.2-0.6,1.8-1L15.9,51.7z M18.7,54.9l-0.4,0.4
	c-0.1,0.1-0.2,0.1-0.3,0.1c-0.1,0-0.3,0-0.4-0.1l-1.1-0.9l0.1-0.3l1.2,0.9c0.1,0.1,0.2,0.1,0.3,0l0.2-0.2l-2.9-2.2l0.8-0.5l2.5,1.8
	l0.2-0.3l-2.7-2.1l0.2-0.2l3,2.2l-0.5,0.7l-2.5-1.9l-0.3,0.2L18.7,54.9z M16.6,50.7l-0.3,0.1c0-0.4-0.1-0.7-0.3-1.1l0.3-0.1
	C16.4,50,16.5,50.4,16.6,50.7z M17,51c-0.2,0.1-0.4,0.3-0.6,0.4l-0.1-0.2c0.2-0.1,0.4-0.2,0.6-0.4L17,51z M17,51.8l-0.2-0.1
	c0.1-0.2,0.2-0.4,0.3-0.6l0.2,0.1C17.2,51.4,17.1,51.6,17,51.8L17,51.8z M18,51.4l-0.2-0.1c0,0,0-0.1,0-0.2
	c-0.3-0.1-0.6-0.3-0.9-0.5v-0.2c0.3,0,0.7-0.1,1-0.2L17.4,50v-0.2c0.4-0.1,0.8-0.2,1.2-0.3l0.1,0.3c-0.3,0.1-0.6,0.2-0.9,0.3
	c0.1,0.1,0.3,0.2,0.4,0.2l0.3-0.1l0.1,0.2c-0.4,0.2-0.9,0.3-1.3,0.3l0.5,0.2c0-0.1,0-0.1,0-0.2l0.2,0.1C18.1,51,18.1,51.2,18,51.4
	L18,51.4z M17.6,49.6h-0.3c0-0.4-0.1-0.7-0.3-1.1h0.3C17.4,48.9,17.5,49.3,17.6,49.6L17.6,49.6z M17.5,52l-0.2-0.1
	c0.1-0.2,0.2-0.4,0.2-0.5l0.2,0.1C17.6,51.6,17.5,51.8,17.5,52z M18.5,52.9l-0.9-0.7l0.5-0.7l0.9,0.7L18.5,52.9z M18.4,52.5l0.2-0.3
	l-0.5-0.3L18,52.2L18.4,52.5z M19.1,51.9l-0.9-0.7l0.1-0.2l0.9,0.7L19.1,51.9z M19.2,52.7c-0.2,0.2-0.3,0.3-0.5,0.5L18.5,53
	c0.2-0.1,0.4-0.3,0.5-0.5L19.2,52.7z M19.4,51.5l-0.9-0.7l0.1-0.2l0.9,0.7L19.4,51.5z M19.9,51.3l-1.1-0.8l0.1-0.2l0.5,0.4
	c0-0.1,0.1-0.2,0.1-0.4l0.3,0.1c0,0.2,0,0.3-0.1,0.5l0.4,0.3L19.9,51.3z M19.3,53.6l-0.2-0.1c0.1-0.2,0.2-0.4,0.3-0.6l0.2,0.1
	C19.5,53.2,19.4,53.4,19.3,53.6L19.3,53.6z M20.3,53.2L20,53.1l0.1-0.2c-0.4-0.2-0.7-0.4-1-0.5l0.1-0.2c0.3,0,0.7-0.1,1-0.1
	l-0.5-0.3l0.1-0.2c0.4-0.1,0.8-0.2,1.2-0.3l0.2,0.3c-0.3,0.1-0.7,0.2-1,0.2c0.1,0.1,0.3,0.2,0.5,0.3L21,52l0.1,0.3
	c-0.4,0.1-0.9,0.2-1.3,0.3c0.1,0.1,0.3,0.2,0.5,0.2c0-0.1,0-0.1,0-0.2l0.3,0.1C20.3,52.8,20.3,53,20.3,53.2L20.3,53.2z M19.9,53.9
	l-0.2-0.1c0.1-0.2,0.1-0.4,0.2-0.6l0.2,0.1C20,53.5,19.9,53.7,19.9,53.9L19.9,53.9z"/>
<path class="st0" d="M26,56l-2.5-1l-0.9,2.3l2.1,0.8l-0.1,0.3l-4.5-1.8l0.1-0.3l2.1,0.8l0.9-2.3l-2.4-1l0.1-0.3l2.4,1l0.7-1.9
	l0.3,0.1l-0.7,1.9l2.4,1V56z"/>
<path class="st0" d="M29.3,57l-0.2,0.2c-0.2-0.4-0.4-0.7-0.7-1l-0.3,3h-0.3l0.4-3.2c-0.4,0.6-0.8,1.1-1.3,1.5l-0.2-0.3
	c0.6-0.6,1.1-1.2,1.5-1.9H27V55l1.1,0.1l0.2-1.1h0.3l-0.1,1.1l0.9,0.1v0.3l-0.9-0.1v0.4C28.8,56.2,29.1,56.6,29.3,57z M32.2,58.4
	L32,58.6c-0.4-0.7-0.8-1.4-1-2.1l-0.4,3.1h-0.3l0.4-3.1c-0.4,0.7-1,1.3-1.6,1.8L28.9,58c0.7-0.7,1.3-1.4,1.8-2.3l-1-0.1v-0.3l1,0.1
	l0.1-1.1h0.3L31,55.4l1.3,0.2v0.3L31,55.7C31.3,56.7,31.6,57.6,32.2,58.4z"/>
<path class="st0" d="M35.3,58.2c-0.5,0.4-1.1,0.7-1.7,1L33.4,59c0.3-0.1,0.5-0.2,0.8-0.4l-0.3-2.3l-0.7,0.1V56l0.7-0.1l-0.2-1.4H34
	l0.2,1.4l0.7-0.1v0.3l-0.7,0.1l0.3,2.2l0.7-0.4L35.3,58.2z M38.9,57.9c0,0.3,0,0.6-0.1,0.8c-0.1,0.1-0.2,0.2-0.3,0.3
	c-0.1,0-0.4,0.1-1,0.2l-1.4,0.2c-0.1,0-0.2,0-0.3-0.1s-0.1-0.2-0.1-0.3l-0.3-2.4l-0.5,0.2l-0.1-0.3l0.6-0.3L35.2,55h0.3l0.1,1.1
	l1-0.4l-0.2-1.5h0.3l0.2,1.4l1.3-0.6c0.1,0.8,0.1,1.7,0,2.5H38c0.1-0.7,0.1-1.3,0.1-2l-1,0.5l0.2,2.1H37l-0.3-2.2l-1,0.5L36,59
	c0,0,0,0,0,0.1h0.1c0.1,0,0.3,0,0.4,0l0.7-0.1c0.4,0,0.8-0.1,1.2-0.2c0.1,0,0.2-0.3,0.1-0.8L38.9,57.9z"/>
<path class="st0" d="M44.2,52.9L41,54.2c0.1,0.3,0.2,0.6,0.4,1l2.5-1c0.2,0.5,0.4,1,0.5,1.5c0.1,0.3,0.2,0.7,0.2,1
	c0,0.1-0.1,0.3-0.2,0.4c-0.2,0.2-0.5,0.3-0.7,0.4l-0.4,0.2l-0.2-0.3c0.2-0.1,0.4-0.1,0.6-0.2c0.2-0.1,0.3-0.1,0.5-0.2
	c0-0.1,0.1-0.1,0.1-0.2c0-0.3-0.1-0.5-0.2-0.8c-0.1-0.4-0.2-0.8-0.4-1.2l-2.2,0.9c0.3,1.1,0,2.2-0.7,3.1l-0.3-0.1
	c0.3-0.3,0.5-0.7,0.7-1.2c0.2-0.4,0.2-0.9,0.2-1.3c-0.1-0.6-0.3-1.1-0.5-1.7L39.1,55L39,54.6l2.5-1c-0.3-0.2-0.6-0.4-0.9-0.6
	l0.2-0.3c0.4,0.2,0.7,0.4,1,0.7l2.3-0.9L44.2,52.9z"/>
<path class="st0" d="M45.6,51.3l-0.1,0.3c-0.4,0-0.9,0-1.3,0v-0.3C44.7,51.2,45.2,51.2,45.6,51.3z M46.4,52.5v0.3
	c-0.4-0.1-0.9-0.1-1.3,0v-0.3C45.5,52.5,46,52.5,46.4,52.5z M50,50.3l-1.6,1.2c0.1,0.8,0.2,1.7,0.1,2.5c0.6-0.6,1.2-1.2,1.8-1.9
	c-0.4-0.1-0.7-0.3-1.1-0.3l0.1-0.3c0.7,0.2,1.4,0.4,2.1,0.7l-0.1,0.3c-0.2-0.1-0.5-0.2-0.7-0.3c-0.7,0.8-1.4,1.6-2.2,2.3l-0.3-0.2
	c0.1-0.3,0.2-0.7,0.2-1c0-0.5-0.1-1.1-0.2-1.6l-1.2,1l-0.2-0.2l1.5-1.1l-0.7-0.9l-1.2,0.9L46,51.1l1.2-0.9l-0.6-0.7l0.3-0.2l0.6,0.7
	l1.2-0.9l0.2,0.2l-1.2,0.9l0.7,0.9l1.4-1.1L50,50.3z M47,53.3c0.2,0.8,0.3,1.5,0.3,2.3H47c0-0.8-0.1-1.5-0.3-2.3H47z"/>
<path class="st0" d="M50.8,48.1c0.5,0,1,0.1,1.4,0.5c0.1,0.1,0.2,0.2,0.2,0.4s-0.1,0.3-0.3,0.6l-0.2,0.2l-0.3-0.1l0.2-0.3
	c0.1-0.1,0.2-0.2,0.2-0.3s0-0.2-0.1-0.2c-0.4-0.3-0.9-0.4-1.4-0.4c-0.2-0.4-0.5-0.8-0.8-1.3l-0.6,0.7l3.7,3l-0.2,0.2l-4-3.2l1-1.2
	l0.2,0.2C50.3,47.2,50.6,47.7,50.8,48.1z M53.4,44.9l-0.2,0.3l-0.7-0.6l-1.7,2.1l0.7,0.6l-0.2,0.3l-0.9-0.8l0.9-1.2
	c-0.2-0.1-0.4-0.1-0.6-0.2l0.2-0.3c0.2,0.1,0.4,0.1,0.6,0.2l1-1.2L53.4,44.9z M53.1,45.4l-1.4,1.7l-0.2-0.2l1.4-1.7L53.1,45.4z
	 M55.2,46.2c0.2,0.1,0.4,0.3,0.5,0.5c0.1,0.1,0.1,0.3,0.1,0.4c-0.1,0.2-0.2,0.4-0.3,0.5c-0.2,0.3-0.4,0.3-0.6,0.2l-1.4-1.2L53,47.2
	c0.4,0.3,0.7,0.8,0.9,1.3c0.1,0.5,0.1,0.9-0.1,1.3h-0.3c0.2-0.4,0.2-0.9,0.1-1.3c-0.1-0.4-0.4-0.8-0.8-1.1l-0.6,0.7L52,48l2.1-2.6
	l0.2,0.2l-0.7,0.8l1.4,1.1h0.1c0,0,0.1-0.1,0.2-0.2c0.1-0.1,0.1-0.2,0.2-0.2V47c0-0.1-0.1-0.2-0.2-0.2c-0.1-0.1-0.3-0.2-0.4-0.3
	L55.2,46.2z"/>
<path class="st3" d="M9,30.5V31l-3.7-0.1v0.8H4.7l0.1-2.2h0.6v0.8L9,30.5z"/>
<path class="st3" d="M8.2,28.5L9.1,29L9,29.6l-4.1-2L5,27l4.5-0.7l-0.1,0.6l-1,0.2L8.2,28.5z M6,27.5l1.7,0.8l0.2-1.1L6,27.5z"/>
<path class="st3" d="M9.8,25.3l-0.1,0.6l-4.1-1l0.2-0.6L9.8,25.3z"/>
<path class="st3" d="M9.3,23.2l-2.7-1.9L6.7,21l3.3,0.4l-2.6-1.9l0.2-0.6l3.6,2.8L11,22l-3-0.4l2.4,1.8l-0.2,0.4l-4.5-0.5L6,22.7
	L9.3,23.2z"/>
<path class="st3" d="M11.4,19.1l0.6,0.8l-0.3,0.5l-2.9-3.5L9,16.4l4.4,1.1L13,18.1l-1-0.2L11.4,19.1z M9.7,17.2l1.3,1.4l0.6-0.9
	L9.7,17.2z"/>
<path class="st3" d="M10.4,14.4l0.3-0.4l3.8,0.5l-2.3-2l0.4-0.5l3.3,2.8l-0.3,0.4l-3.8-0.5l2.4,2l-0.4,0.5L10.4,14.4z"/>
<path class="st3" d="M17.2,9.3c-0.2-0.1-0.5-0.1-0.7,0c-0.1,0.1-0.2,0.2-0.2,0.4s0,0.3,0.1,0.4c0.1,0.1,0.4,0.2,0.8,0.2h0.7
	c0.3,0,0.6,0.2,0.8,0.4c0.2,0.3,0.4,0.6,0.4,1c0,0.3-0.2,0.7-0.5,0.8c-0.4,0.3-1,0.3-1.4,0v-0.6c0.1,0.1,0.3,0.2,0.5,0.2
	s0.3,0,0.5-0.1c0.1-0.1,0.2-0.3,0.2-0.4c0-0.2-0.1-0.4-0.2-0.5s-0.2-0.2-0.3-0.2c-0.3,0-0.7,0-1,0.1c-0.4,0.1-0.8,0-1.1-0.4
	c-0.2-0.3-0.3-0.6-0.3-0.9c0-0.3,0.1-0.6,0.4-0.8c0.3-0.3,0.7-0.3,1.1-0.2L17.2,9.3z"/>
<path class="st3" d="M20.5,8.2l-0.8-1.5l0.5-0.3l2.1,3.7l-0.5,0.3l-1-1.7l-1.3,0.7l1,1.7L20,11.4l-2.1-3.7l0.5-0.3L19.2,9L20.5,8.2z
	"/>
<path class="st3" d="M23.5,9.6l-0.6,0.2L21.2,6l0.6-0.2L23.5,9.6z"/>
<path class="st3" d="M24.5,8.6l1-0.4l0.2,0.6L24,9.4l-1.4-4l0.6-0.2L24.5,8.6z"/>
<path class="st3" d="M26.6,8.6L26,8.8l-1.1-4.1l0.6-0.2L26.6,8.6z"/>
<path class="st3" d="M26.5,4.1L27,4l2.5,2.8l-0.5-3l0.6-0.1L30.4,8h-0.5l-2.5-2.8l0.5,3.1l-0.6,0.1L26.5,4.1z"/>
<path class="st3" d="M33.4,3.5l1,0.1c0.5,0,0.9,0.3,1.2,0.7c0.3,0.5,0.4,1,0.4,1.6c0,0.5-0.2,1.1-0.6,1.5c-0.3,0.4-0.8,0.6-1.3,0.5
	l-1-0.1L33.4,3.5z M33.8,7.2H34c0.9,0.1,1.3-0.4,1.4-1.4c0.1-1-0.3-1.5-1.2-1.6H34L33.8,7.2z"/>
<path class="st3" d="M37,8.2l-0.6-0.1l0.7-4.2L37.7,4L37,8.2z"/>
<path class="st3" d="M40.1,5.5C40,5.3,39.9,5.1,39.6,5c-0.1,0-0.3,0-0.4,0.1c-0.1,0-0.2,0.1-0.2,0.3c0,0.2,0.1,0.4,0.4,0.8l0.5,0.5
	C40,6.9,40.1,7.2,40,7.5c-0.1,0.4-0.3,0.7-0.6,0.9s-0.6,0.3-1,0.2c-0.5-0.1-0.8-0.6-0.9-1.1L38,7.2c0,0.2,0.1,0.4,0.2,0.5
	C38.3,7.8,38.4,8,38.6,8s0.3,0,0.5-0.1c0.1-0.1,0.2-0.3,0.3-0.5c0-0.1,0-0.3,0-0.4c-0.2-0.3-0.4-0.5-0.6-0.7
	c-0.4-0.2-0.5-0.7-0.4-1.1c0.1-0.3,0.3-0.6,0.5-0.8c0.2-0.2,0.5-0.2,0.8-0.2c0.4,0.1,0.7,0.3,0.8,0.7L40.1,5.5z"/>
<path class="st3" d="M41.2,9.4l-0.5-0.2L42,5.8l-0.8-0.3l0.2-0.6l2,0.8l-0.2,0.6L42.5,6L41.2,9.4z"/>
<path class="st3" d="M44.4,10.9l-0.7-0.3l-0.1-2.1l-0.8,1.7l-0.5-0.3L44.2,6L45,6.4c0.6,0.2,0.9,0.8,0.7,1.4c0,0.1-0.1,0.2-0.1,0.3
	c-0.1,0.3-0.3,0.5-0.5,0.6s-0.5,0.2-0.7,0.1V10.9z M43.8,8.1L44,8.2c0.3,0.2,0.7,0.1,0.9-0.2c0,0,0-0.1,0.1-0.1
	c0.2-0.3,0.1-0.7-0.2-0.9c-0.1,0-0.1-0.1-0.2-0.1l-0.2-0.1L43.8,8.1z"/>
<path class="st3" d="M45.3,11.5l-0.5-0.3L47,7.5l0.5,0.3L45.3,11.5z"/>
<path class="st3" d="M49.7,10.7c0-0.3-0.1-0.6-0.4-0.8c-0.3-0.2-0.7-0.3-1-0.1c-0.4,0.1-0.7,0.4-0.9,0.7S47,11.2,47,11.6
	c0,0.3,0.1,0.7,0.4,0.9c0.3,0.2,0.6,0.2,0.9,0.1l-0.5,0.7c-0.3,0-0.6-0.1-0.8-0.3c-0.4-0.3-0.6-0.8-0.6-1.3c0-0.6,0.2-1.1,0.6-1.6
	c0.3-0.5,0.8-0.8,1.4-1c0.5-0.2,1-0.1,1.4,0.2c0.2,0.2,0.4,0.4,0.5,0.7L49.7,10.7z"/>
<path class="st3" d="M49,14.4L48.6,14l2.5-2.6l-0.6-0.6l0.4-0.4l1.6,1.5l-0.4,0.4l-0.6-0.6L49,14.4z"/>
<path class="st3" d="M55.3,16.9c0.1-0.3,0.1-0.6-0.1-0.9c-0.2-0.3-0.5-0.4-0.9-0.4s-0.8,0.1-1.1,0.4c-0.3,0.2-0.5,0.5-0.7,0.9
	c-0.1,0.3-0.1,0.7,0.1,1c0.2,0.3,0.5,0.4,0.8,0.4l-0.7,0.5c-0.3-0.1-0.5-0.3-0.7-0.5c-0.3-0.4-0.4-0.9-0.2-1.4s0.5-1,1-1.3
	s1-0.5,1.6-0.5c0.5,0,1,0.2,1.3,0.7c0.2,0.2,0.3,0.5,0.3,0.8L55.3,16.9z"/>
<path class="st3" d="M54.8,18.2c0.5-0.3,1.1-0.4,1.7-0.3c0.9,0.1,1.5,0.9,1.3,1.8c0,0.2-0.1,0.3-0.2,0.5c-0.5,1-1.7,1.6-2.8,1.4
	c-0.5-0.1-0.9-0.4-1.2-0.9c-0.2-0.5-0.2-1,0-1.5C53.9,18.8,54.3,18.4,54.8,18.2z M55.2,18.7c-0.4,0.2-0.6,0.5-0.8,0.8
	c-0.3,0.5-0.1,1.1,0.4,1.4C54.9,21,55,21,55.2,21c0.4,0,0.8,0,1.1-0.2c0.4-0.2,0.6-0.5,0.8-0.8s0.2-0.7,0-1
	c-0.1-0.3-0.4-0.5-0.8-0.6C55.9,18.5,55.5,18.5,55.2,18.7z"/>
<path class="st3" d="M58.8,21.5l0.2,0.6l-2.3,0.7c-0.9,0.3-1.2,0.7-1.1,1.1s0.7,0.6,1.5,0.3l2.3-0.7l0.2,0.6l-2.4,0.8
	C56,25.2,55.3,25,55,24.2s0.2-1.5,1.3-1.9L58.8,21.5z"/>
<path class="st3" d="M56.1,28.4L56,27.6l1.7-1.4l-1.8,0.3L55.7,26l4.2-0.8l0.2,1c0.2,0.8-0.2,1.3-1,1.4c-0.3,0.1-0.6,0-0.8-0.1
	s-0.4-0.3-0.5-0.5L56.1,28.4z M58,26.2v0.2c0,0.4,0.3,0.7,0.7,0.6c0.1,0,0.1,0,0.2,0c0.4,0,0.6-0.3,0.6-0.7c0-0.1,0-0.1,0-0.2v-0.2
	L58,26.2z"/>
<path class="st3" d="M56.2,29.9v-0.6l3.6-0.3l-0.1-0.8h0.6l0.2,2.2h-0.6l-0.1-0.8L56.2,29.9z"/>
</svg>
