<?xml version="1.0" encoding="utf-8"?>
<!-- Generator: Adobe Illustrator 27.8.1, SVG Export Plug-In . SVG Version: 6.00 Build 0)  -->
<svg version="1.1" id="圖層_1" xmlns="http://www.w3.org/2000/svg" xmlns:xlink="http://www.w3.org/1999/xlink" x="0px" y="0px"
	 viewBox="0 0 270.8 64" style="enable-background:new 0 0 270.8 64;" xml:space="preserve">
<style type="text/css">
	.st0{fill:#FFFFFF;}
	.st1{fill:url(#SVGID_1_);}
	.st2{fill:#005BAB;}
	.st3{fill:#B7A246;}
</style>
<path class="st0" d="M91.7,15.2v1.5h-9.4v1h7.6V19H72.6v-1.3H80v-1h-9.2v-1.5H80v-1.4h2.3v1.4H91.7z M82.3,33.8h9.4v1.6H70.8v-1.6
	H80v-1h-6.8v-1.4H80v-1c-4.4,0.1-5.1,0.2-5.6,0.3c-0.1-0.5-0.3-1-0.5-1.5c0.4-0.1,0.9-0.2,1.3-0.3c0.7-0.3,1.4-0.6,2-1h-3.7v-1.3
	h15.2V28h-2.3c1.1,0.6,2.1,1.3,3.1,2.1l-1.4,1.1c-0.4-0.4-0.8-0.7-1.2-1l-4.7,0.1v1h7.2v1.4h-7.2V33.8z M71.2,24.3h20.2v3.5h-2.1v-2
	H73.2v2h-2L71.2,24.3z M89,19.9v3.5H73.6v-3.5H89z M86.8,21.1H75.7v1.1h11.1V21.1z M79.8,28c-0.7,0.4-1.4,0.8-2.1,1.2l7.6-0.2
	c-0.5-0.3-1.1-0.6-1.6-0.9l0.2-0.1L79.8,28z"/>
<path class="st0" d="M97.5,24.5c-1-1-2.2-1.8-3.4-2.5l1.2-1.5c1.3,0.6,2.4,1.4,3.5,2.3L97.5,24.5z M94.5,34.5c1.1-2.5,2.1-5,3-7.6
	l1.8,1.1c-0.8,2.5-1.8,5.3-2.8,7.6L94.5,34.5z M98,18.3c-1-1-2.1-1.9-3.3-2.7l1.3-1.5c1.2,0.7,2.4,1.5,3.4,2.4L98,18.3z M100.8,22.9
	c-0.2,1.1-0.5,2.2-1,3.2c-0.3-0.3-0.6-0.5-1-0.7c0.5-0.9,0.7-1.8,0.9-2.8L100.8,22.9z M103.9,21.9c-0.1-0.2-0.1-0.5-0.2-0.7
	c-3.1,0.4-3.7,0.5-4.1,0.7c-0.1-0.3-0.3-0.7-0.5-1c0.5-0.1,0.8-0.4,1.1-0.8c0.5-0.5,0.9-1.1,1.3-1.7c-0.7,0-1.4,0.1-2.1,0.3
	c-0.1-0.4-0.3-0.7-0.5-1c0.3-0.1,0.6-0.3,0.8-0.6c0.6-0.9,1.1-1.9,1.4-3l1.3,0.5c-0.4,1-1,1.9-1.6,2.7l1.4-0.1
	c0.2-0.3,0.4-0.7,0.6-1.1l1.3,0.5c-0.8,1.3-1.7,2.5-2.8,3.7l1.8-0.2c-0.1-0.2-0.3-0.5-0.4-0.7l1-0.4c0.5,0.8,0.8,1.6,1.1,2.4
	L103.9,21.9z M115.2,31c0,0.3-0.1,0.6-0.2,0.8c-0.4,2-0.9,3-1.5,3.5c-0.6,0.4-1.3,0.6-2,0.5c-0.7,0-2.2,0-3.7-0.1
	c-0.1-0.6-0.3-1.2-0.6-1.7c1.5,0.1,3,0.2,3.6,0.2c0.3,0,0.7,0,1-0.2c0.5-0.5,0.8-1.1,0.9-1.7h-12.3c0.4-1.2,0.7-2.5,1-3.8H112v-1
	h-11.3v-1.4h13.4V30h-10.9l-0.3,1H115.2z M101.6,25.7c0-1-0.2-1.9-0.5-2.9l1.1-0.3c0.3,0.9,0.5,1.8,0.6,2.8L101.6,25.7z M103.7,25.1
	c-0.2-0.9-0.4-1.8-0.7-2.6l1-0.3c0.4,0.8,0.6,1.6,0.8,2.5L103.7,25.1z M110.3,17.5h-5.7v-1.3h2.5c-0.2-0.6-0.5-1.2-0.8-1.8l1.5-0.3
	c0.4,0.6,0.7,1.2,1,1.9l-1.1,0.3h2.8L110.3,17.5z M105.2,22h4.5v3.5h-4.5V22z M109.7,19.4h-4.5v-1.2h4.5V19.4z M105.2,20.1h4.5v1.1
	h-4.5V20.1z M106.6,24.4h1.7V23h-1.7V24.4z M111.9,22.8c-0.2,1.1-0.5,2.2-1,3.2c-0.3-0.3-0.6-0.5-1-0.7c0.4-0.9,0.7-1.8,0.9-2.8
	L111.9,22.8z M115.1,22c-0.1-0.2-0.2-0.5-0.3-0.8c-1.4,0.1-2.8,0.3-4.1,0.7c-0.1-0.2-0.3-0.8-0.5-1c0.5-0.1,0.9-0.4,1.1-0.8
	c0.5-0.5,0.9-1.1,1.3-1.7c-0.7,0-1.4,0.1-2.1,0.3c-0.1-0.3-0.3-0.7-0.5-1c0.3,0,0.5-0.3,0.8-0.6c0.6-0.9,1.1-1.9,1.4-3l1.3,0.4
	c-0.4,1-0.9,1.9-1.5,2.7l1.4-0.1c0.2-0.4,0.4-0.7,0.6-1.1l1.3,0.5c-0.8,1.3-1.7,2.6-2.8,3.7l1.8-0.2l-0.4-0.7l1-0.4
	c0.5,0.8,0.9,1.6,1.2,2.5L115.1,22z M112.8,25.9c0-1-0.2-2.1-0.5-3.1l1-0.3c0.3,1,0.5,2,0.6,3L112.8,25.9z M115.1,22.1
	c0.5,0.9,0.8,2,1,3l-1,0.5c-0.2-1.1-0.5-2.1-0.9-3.1L115.1,22.1z"/>
<path class="st0" d="M131.7,21.1h-13.4v-1.8h3.6c-0.2-0.6-0.4-1.1-0.7-1.6l1.5-0.4H119v-1.7h5.3c-0.2-0.5-0.4-0.9-0.7-1.3l1.8-0.6
	c0.4,0.6,0.7,1.3,1,1.9h4.9v1.7H128l1.5,0.3c-0.3,0.6-0.7,1.2-1,1.7h3.2L131.7,21.1z M126.2,32.3v3.6h-2.1v-3.6h-5.2v-1.8h5.2V29h-4
	v-6.8h10.4V29h-4.2v1.5h5.1v1.8H126.2z M122.1,25h6.2v-1.4h-6.2V25z M122.1,27.7h6.2v-1.4h-6.2V27.7z M123,17.4
	c0.3,0.6,0.6,1.2,0.8,1.9l-0.4,0.1h3.1c0.3-0.6,0.6-1.3,0.9-2L123,17.4z M140.4,28.1c-2,3.2-4.9,5.8-8.3,7.5c-0.5-0.6-1-1.2-1.6-1.8
	c3.2-1.3,5.9-3.6,7.8-6.5L140.4,28.1z M140,21.5c-1.9,2.4-4.2,4.4-6.9,5.9c-0.4-0.6-1-1.1-1.6-1.6c2.5-1.3,4.6-3.1,6.4-5.2L140,21.5
	z M139.4,15.1c-1.7,2.2-3.7,4.2-6.1,5.6c-0.5-0.5-1-1-1.6-1.5c2.2-1.3,4.1-3,5.6-5L139.4,15.1z"/>
<path class="st0" d="M150.5,14.6c-0.7,1.6-1.5,3.1-2.4,4.5v16.7H146V22.3c-0.9,1.1-1.8,2.2-2.9,3.2c-0.3-0.8-0.7-1.5-1.1-2.2
	c2.8-2.6,5-5.7,6.5-9.2L150.5,14.6z M160.3,33.2c1.3,0,1.5-1,1.7-5c0.6,0.4,1.3,0.8,2,1c-0.3,4.5-0.9,6.1-3.6,6.1h-4.3
	c-2.6,0-3.4-0.8-3.4-3.7V14.3h2.1v6.3h8.4v2.1h-8.4v8.8c0,1.3,0.2,1.6,1.4,1.6H160.3z"/>
<path class="st0" d="M173.7,26.6l0.5,2c-2.5,1.2-5.2,2.5-7.3,3.4l-0.9-2.2c0.9-0.3,2-0.7,3.2-1.2v-6.9h-2.7v-2.1h2.7v-5.3h2.1v5.3
	h2.4v2.1h-2.4v6L173.7,26.6z M184.7,33.4c1.3,0,1.6-0.6,1.8-3.2c0.6,0.4,1.3,0.7,2,0.8c-0.3,3.3-1,4.4-3.6,4.4h-5.5
	c-2.9,0-3.8-0.8-3.8-3.6v-6.9l-1.7,0.7l-0.8-2l2.5-1.1v-6.4h2.1v5.5l2.7-1.1v-6.6h2.1v5.7l3.2-1.4l1.6,0.5l-0.1,0.4
	c-0.2,3.5-0.6,7-1.2,10.5l-1.8-0.5c0.4-2.8,0.7-5.5,0.7-8.3l-2.5,1.1v8.6h-2.1v-7.7l-2.7,1.2v7.9c0,1.3,0.3,1.6,1.8,1.6H184.7z"/>
<path class="st0" d="M199.6,20c-0.1,1.1-0.1,2.3-0.3,3.4h10.2c0,0.3,0,0.7-0.1,1c-0.4,6.6-0.9,9.3-1.9,10.2
	c-0.6,0.6-1.4,0.9-2.3,0.9c-1.3,0.1-2.7,0-4.1,0c-0.1-0.8-0.3-1.5-0.8-2.2c1.7,0.1,3.3,0.2,4,0.2c0.4,0,0.8-0.1,1.1-0.3
	c0.7-0.6,1.1-2.8,1.5-7.7h-8c-0.8,4.1-2.5,8-7,10.4c-0.4-0.7-1-1.3-1.6-1.8c5.9-3,6.5-8.9,6.8-14.1h-6.3v-2.2h10.3
	c-0.4-1.2-0.9-2.3-1.5-3.4l2.2-0.8c0.7,1.1,1.2,2.3,1.7,3.5l-1.6,0.7h9.9V20H199.6z"/>
<path class="st0" d="M218.7,24.8c-1.4-1-2.8-1.9-4.4-2.6l1.2-1.7c1.6,0.6,3.1,1.4,4.5,2.4L218.7,24.8z M215.1,34.1
	c1.7-2.4,3.2-5,4.5-7.6l1.6,1.5c-1.2,2.5-2.8,5.4-4.2,7.6L215.1,34.1z M216.9,14.1c1.6,0.7,3.1,1.5,4.5,2.5l-1.3,1.9
	c-1.4-1.1-2.9-2-4.5-2.7L216.9,14.1z M233.9,35.8c-0.3-0.8-0.6-1.5-1-2.3c-8.5,1-9.6,1.2-10.3,1.6c-0.2-0.8-0.5-1.5-0.8-2.2
	c0.5-0.1,1-0.7,1.5-1.6c1.2-1.7,2.2-3.6,3-5.5h-4.9v-2.1h5.9v-3.9h-4.9v-2.1h4.9v-3.9h2.3v3.9h5.1v2.1h-5.1v3.9h6v2.1H229
	c-1.1,2.3-2.4,4.5-3.8,6.6l6.7-0.7c-0.6-1-1.2-1.9-1.9-2.8l1.8-0.9c1.7,2.1,3.1,4.3,4.1,6.8L233.9,35.8z"/>
<path class="st0" d="M246.3,15.6c-0.7,2-1.5,4.3-2.2,6.2c1.2,1.4,1.9,3.2,1.9,5.1c0.1,1.1-0.2,2.2-1,2.9c-0.4,0.3-0.8,0.4-1.3,0.5
	c-0.4,0-1,0-1.6,0c0-0.7-0.2-1.3-0.5-1.9c0.4,0,0.8,0,1.2,0c0.2,0,0.5-0.1,0.7-0.2c0.4-0.4,0.6-1,0.5-1.6c-0.1-1.7-0.8-3.4-2-4.6
	c0.6-1.6,1.2-3.6,1.7-5.2h-2.6v19h-2v-21h5.4l0.3-0.1L246.3,15.6z M258,33.7c0.5,0,0.5-0.4,0.6-3c0.6,0.4,1.2,0.7,1.9,0.8
	c-0.2,3.2-0.7,4-2.2,4h-2c-1.9,0-2.3-0.5-2.3-2.5v-5.7h-2.1c-0.4,4.2-1.5,7-6.1,8.6c-0.3-0.7-0.7-1.3-1.3-1.8c4-1.3,4.9-3.4,5.2-6.8
	h-3.1v-2h13.5v2h-4v5.6c0,0.7,0.1,0.7,0.5,0.7H258z M248.5,21.2h-1.9v-4.4h5.8c-0.3-0.8-0.7-1.7-1.1-2.5l2.1-0.6
	c0.6,1,1.1,2,1.5,3.1h5.2v4.4h-1.9V23h-9.7L248.5,21.2z M248.6,18.7V21h9.3v-2.3L248.6,18.7z"/>
<path class="st0" d="M71.8,45v-0.8h4.3V45h-1.8v7.1h-0.8V45H71.8z"/>
<path class="st0" d="M83.6,46.2v5.8h-0.8v-1c-0.3,0.4-0.6,0.7-1.1,0.9c-0.4,0.2-0.8,0.3-1.3,0.3c-0.8,0-1.6-0.3-2.1-0.9
	c-0.6-0.6-0.9-1.4-0.9-2.2c0-0.8,0.3-1.6,0.9-2.1c0.6-0.6,1.3-0.9,2.1-0.9c0.5,0,0.9,0.1,1.3,0.3c0.4,0.2,0.7,0.5,1,0.9v-1.1H83.6z
	 M80.6,46.8c-0.8,0-1.6,0.4-2,1.2c-0.2,0.4-0.3,0.8-0.3,1.2c0,0.4,0.1,0.8,0.3,1.2c0.4,0.7,1.2,1.2,2,1.2c0.4,0,0.8-0.1,1.2-0.3
	c0.4-0.2,0.6-0.5,0.8-0.8c0.2-0.4,0.3-0.8,0.3-1.2c0-0.6-0.2-1.2-0.7-1.7C81.8,47,81.2,46.8,80.6,46.8L80.6,46.8z"/>
<path class="st0" d="M86.2,43.8c0.2,0,0.3,0.1,0.4,0.2c0.1,0.1,0.2,0.3,0.2,0.4c0,0.2-0.1,0.3-0.2,0.4c-0.1,0.1-0.3,0.2-0.4,0.2
	c-0.2,0-0.3-0.1-0.4-0.2c-0.1-0.1-0.2-0.3-0.2-0.4C85.6,44.1,85.9,43.8,86.2,43.8z M85.9,46.2h0.8v5.8h-0.8V46.2z"/>
<path class="st0" d="M88.1,46.2h0.8l1.8,4.2l1.9-4.2h0.1l1.9,4.2l1.8-4.2h0.8l-2.5,5.8h-0.1l-1.9-4.2l-1.9,4.2h-0.1L88.1,46.2z"/>
<path class="st0" d="M104.5,46.2v5.8h-0.7v-1c-0.3,0.4-0.6,0.7-1.1,0.9c-0.4,0.2-0.8,0.3-1.3,0.3c-0.8,0-1.6-0.3-2.1-0.9
	c-0.6-0.6-0.9-1.4-0.9-2.2c0-1.7,1.3-3,2.9-3.1c0,0,0,0,0.1,0c0.5,0,0.9,0.1,1.3,0.3c0.4,0.2,0.7,0.5,1,0.9v-1.1H104.5z M101.5,46.8
	c-0.4,0-0.8,0.1-1.2,0.3c-0.4,0.2-0.6,0.5-0.8,0.9c-0.2,0.4-0.3,0.8-0.3,1.2c0,0.4,0.1,0.8,0.3,1.2c0.2,0.4,0.5,0.7,0.8,0.9
	c0.3,0.2,0.7,0.3,1.1,0.3c0.4,0,0.8-0.1,1.2-0.3c0.4-0.2,0.6-0.5,0.8-0.8c0.2-0.4,0.3-0.8,0.3-1.2c0-0.6-0.2-1.2-0.7-1.7
	C102.7,47,102.1,46.8,101.5,46.8z"/>
<path class="st0" d="M106.8,46.2h0.8v1c0.3-0.4,0.6-0.7,1-0.9c0.4-0.2,0.8-0.3,1.2-0.3c0.4,0,0.8,0.1,1.2,0.3
	c0.3,0.2,0.6,0.5,0.8,0.9c0.2,0.6,0.3,1.2,0.2,1.8v3h-0.8v-2.8c0-0.5,0-0.9-0.1-1.3c-0.1-0.7-0.7-1.2-1.5-1.2
	c-0.4,0-0.9,0.2-1.2,0.5c-0.4,0.3-0.6,0.7-0.7,1.1c-0.1,0.5-0.1,1.1-0.1,1.6v2.1h-0.8V46.2z"/>
<path class="st0" d="M125.4,45.6l-0.6,0.5c-0.3-0.4-0.8-0.8-1.2-1c-0.5-0.2-1-0.4-1.6-0.3c-0.6,0-1.2,0.2-1.8,0.5
	c-0.5,0.3-0.9,0.7-1.2,1.2c-0.3,0.5-0.4,1.1-0.4,1.7c0,0.9,0.3,1.8,1,2.4c0.7,0.7,1.6,1,2.5,1c1.1,0,2.1-0.5,2.8-1.3l0.6,0.5
	c-0.4,0.5-0.9,0.9-1.5,1.2c-0.6,0.3-1.3,0.4-2,0.4c-2.2,0.1-4.1-1.6-4.3-3.8c0-0.1,0-0.2,0-0.3c0-1.1,0.4-2.2,1.2-2.9
	c0.8-0.8,1.9-1.2,3-1.2c0.7,0,1.4,0.1,2,0.4C124.4,44.7,125,45.1,125.4,45.6z"/>
<path class="st0" d="M127.5,44h0.7v3.3c0.3-0.4,0.6-0.7,1-0.9c0.4-0.2,0.8-0.3,1.2-0.3c0.4,0,0.8,0.1,1.2,0.3
	c0.3,0.2,0.6,0.5,0.8,0.9c0.2,0.6,0.3,1.2,0.2,1.8v3h-0.8v-2.8c0-0.5,0-0.9-0.1-1.3c-0.1-0.3-0.3-0.6-0.5-0.9
	c-0.3-0.2-0.6-0.3-1-0.3c-0.5,0-0.9,0.2-1.2,0.5c-0.3,0.3-0.6,0.7-0.7,1.1c-0.1,0.5-0.1,1.1-0.1,1.6v2.1h-0.8L127.5,44z"/>
<path class="st0" d="M140.7,46.2v5.8h-0.7v-1c-0.3,0.4-0.6,0.7-1.1,0.9c-0.4,0.2-0.8,0.3-1.3,0.3c-0.8,0-1.6-0.3-2.1-0.9
	c-0.6-0.6-0.9-1.4-0.9-2.2c0-1.7,1.3-3,2.9-3.1c0,0,0,0,0.1,0c0.5,0,0.9,0.1,1.3,0.3c0.4,0.2,0.7,0.5,1,0.9v-1.1H140.7z M137.7,46.8
	c-0.4,0-0.8,0.1-1.2,0.3c-0.4,0.2-0.6,0.5-0.9,0.9c-0.2,0.4-0.3,0.8-0.3,1.2c0,0.4,0.1,0.8,0.3,1.2c0.2,0.4,0.5,0.7,0.9,0.9
	c0.3,0.2,0.7,0.3,1.1,0.3c0.4,0,0.8-0.1,1.2-0.3c0.4-0.2,0.6-0.5,0.9-0.8c0.2-0.4,0.3-0.8,0.3-1.2c0-0.6-0.2-1.2-0.7-1.7
	C138.9,47,138.3,46.8,137.7,46.8z"/>
<path class="st0" d="M143,46.2h0.8v1c0.3-0.4,0.6-0.7,1-0.9c0.4-0.2,0.8-0.3,1.2-0.3c0.4,0,0.8,0.1,1.2,0.3c0.3,0.2,0.6,0.5,0.8,0.9
	c0.2,0.6,0.3,1.2,0.2,1.8v3h-0.8v-2.8c0-0.5,0-0.9-0.1-1.3c-0.1-0.7-0.7-1.2-1.5-1.2c-0.4,0-0.9,0.2-1.2,0.5
	c-0.4,0.3-0.6,0.7-0.7,1.1c-0.1,0.5-0.1,1.1-0.1,1.6v2.1H143V46.2z"/>
<path class="st0" d="M155.4,46.2h0.8v4.7c0,0.6,0,1.2-0.2,1.8c-0.2,0.5-0.5,1-1,1.2c-0.5,0.3-1.1,0.4-1.8,0.4
	c-0.5,0-0.9-0.1-1.4-0.2c-0.4-0.1-0.7-0.3-1-0.6c-0.3-0.3-0.5-0.6-0.7-1h0.8c0.2,0.4,0.5,0.7,0.9,0.9c0.4,0.2,0.9,0.3,1.3,0.3
	c0.5,0,0.9-0.1,1.3-0.3c0.3-0.2,0.6-0.4,0.8-0.7c0.2-0.4,0.3-0.9,0.2-1.4V51c-0.3,0.3-0.6,0.6-1,0.8c-0.4,0.2-0.9,0.3-1.3,0.3
	c-0.5,0-1.1-0.1-1.5-0.4c-0.5-0.2-0.8-0.6-1.1-1.1c-0.5-0.9-0.5-2.1,0-3c0.3-0.5,0.6-0.8,1.1-1.1c0.5-0.3,1-0.4,1.5-0.4
	c0.4,0,0.8,0.1,1.2,0.3c0.4,0.2,0.8,0.5,1.1,0.9L155.4,46.2z M153.2,46.8c-0.4,0-0.8,0.1-1.2,0.3c-0.4,0.2-0.7,0.5-0.9,0.9
	c-0.2,0.4-0.3,0.8-0.3,1.2c0,0.6,0.2,1.2,0.6,1.6c0.5,0.4,1.1,0.6,1.7,0.6c0.6,0,1.2-0.2,1.7-0.6c0.4-0.4,0.7-1,0.6-1.6
	c0-0.4-0.1-0.8-0.3-1.2c-0.2-0.3-0.5-0.6-0.8-0.8C154,46.9,153.6,46.8,153.2,46.8z"/>
<path class="st0" d="M158.5,44h0.8v3.3c0.3-0.4,0.6-0.7,1-0.9c0.4-0.2,0.8-0.3,1.2-0.3c0.4,0,0.8,0.1,1.2,0.3
	c0.3,0.2,0.6,0.5,0.8,0.9c0.2,0.6,0.3,1.2,0.2,1.8v3h-0.8v-2.8c0-0.5,0-0.9-0.1-1.3c-0.1-0.7-0.7-1.2-1.5-1.2
	c-0.4,0-0.9,0.2-1.2,0.5c-0.4,0.3-0.6,0.7-0.7,1.1c-0.1,0.5-0.1,1.1-0.1,1.6v2.1h-0.8V44z"/>
<path class="st0" d="M165.7,46.2h0.8V49c0,0.5,0,0.9,0.1,1.4c0.1,0.3,0.3,0.6,0.6,0.8c0.3,0.2,0.7,0.3,1.1,0.3
	c0.4,0,0.7-0.1,1.1-0.3c0.3-0.2,0.5-0.5,0.6-0.8c0.1-0.5,0.1-1,0.1-1.4v-2.8h0.8v2.9c0,0.6-0.1,1.2-0.3,1.8c-0.2,0.4-0.5,0.8-0.9,1
	c-0.4,0.2-0.9,0.4-1.4,0.3c-0.5,0-1-0.1-1.4-0.3c-0.4-0.2-0.7-0.6-0.9-1c-0.2-0.6-0.3-1.2-0.3-1.9V46.2z"/>
<path class="st0" d="M179,46.2v5.8h-0.7v-1c-0.3,0.4-0.6,0.7-1.1,0.9c-0.4,0.2-0.8,0.3-1.3,0.3c-0.8,0-1.6-0.3-2.1-0.9
	c-0.6-0.6-0.9-1.4-0.9-2.2c0-0.8,0.3-1.6,0.9-2.1c0.6-0.6,1.3-0.9,2.1-0.9c0.5,0,0.9,0.1,1.3,0.3c0.4,0.2,0.7,0.5,1,0.9v-1.1H179z
	 M176,46.8c-0.8,0-1.6,0.5-2,1.2c-0.2,0.4-0.3,0.8-0.3,1.2c0,0.4,0.1,0.8,0.3,1.2c0.2,0.4,0.5,0.7,0.9,0.9c0.3,0.2,0.7,0.3,1.1,0.3
	c0.4,0,0.8-0.1,1.2-0.3c0.4-0.2,0.6-0.5,0.9-0.8c0.2-0.4,0.3-0.8,0.3-1.2c0-0.6-0.2-1.2-0.7-1.7C177.2,47,176.6,46.8,176,46.8z"/>
<path class="st0" d="M185.2,52.1v-7.9h1.6c0.9,0,1.7,0.1,2.6,0.3c0.7,0.2,1.4,0.7,1.8,1.4c0.4,0.7,0.7,1.5,0.6,2.4
	c0,0.7-0.2,1.4-0.5,2.1c-0.3,0.6-0.8,1-1.3,1.3c-0.7,0.3-1.5,0.5-2.3,0.4H185.2z M185.9,51.3h0.9c0.8,0,1.5,0,2.3-0.2
	c0.6-0.2,1.1-0.5,1.4-1c0.4-0.5,0.5-1.2,0.5-1.8c0-0.7-0.2-1.4-0.6-2c-0.4-0.5-0.9-0.9-1.5-1.1c-0.8-0.2-1.6-0.2-2.4-0.2h-0.6
	L185.9,51.3z"/>
<path class="st0" d="M194.2,43.8c0.2,0,0.3,0.1,0.4,0.2c0.1,0.1,0.2,0.3,0.2,0.4c0,0.2-0.1,0.3-0.2,0.4c-0.1,0.1-0.3,0.2-0.4,0.2
	c-0.2,0-0.3-0.1-0.4-0.2c-0.1-0.1-0.2-0.3-0.2-0.4c0-0.2,0.1-0.3,0.2-0.4C193.8,43.9,194,43.8,194.2,43.8z M193.8,46.2h0.8v5.8h-0.8
	V46.2z"/>
<path class="st0" d="M199.7,46.9l-0.5,0.5c-0.3-0.3-0.7-0.6-1.2-0.6c-0.2,0-0.5,0.1-0.6,0.2c-0.2,0.1-0.3,0.3-0.3,0.6
	c0,0.2,0.1,0.4,0.2,0.5c0.3,0.3,0.6,0.5,0.9,0.6c0.4,0.2,0.8,0.5,1.1,0.8c0.2,0.3,0.3,0.6,0.3,0.9c0,0.5-0.2,0.9-0.5,1.2
	c-0.3,0.3-0.8,0.5-1.3,0.5c-0.3,0-0.7-0.1-1-0.2c-0.3-0.1-0.6-0.3-0.8-0.6l0.5-0.5c0.3,0.4,0.7,0.6,1.2,0.7c0.3,0,0.6-0.1,0.8-0.3
	c0.2-0.2,0.3-0.4,0.3-0.7c0-0.2-0.1-0.4-0.2-0.6c-0.3-0.3-0.6-0.5-0.9-0.6c-0.4-0.2-0.8-0.5-1.1-0.8c-0.4-0.6-0.4-1.5,0.2-2
	c0.3-0.3,0.7-0.5,1.1-0.4C198.7,46.1,199.3,46.4,199.7,46.9z"/>
<path class="st0" d="M202.4,44.1h0.8v2.2h1.2v0.7h-1.2v5.2h-0.8v-5.2h-1v-0.7h1V44.1z"/>
<path class="st0" d="M205.8,46.2h0.8v0.8c0.2-0.3,0.4-0.5,0.7-0.8c0.2-0.2,0.5-0.2,0.8-0.2c0.2,0,0.5,0.1,0.7,0.2l-0.4,0.6
	c-0.1-0.1-0.3-0.1-0.4-0.1c-0.3,0-0.5,0.1-0.7,0.3c-0.3,0.3-0.5,0.6-0.5,1c-0.1,0.7-0.2,1.3-0.1,2v2h-0.8L205.8,46.2z"/>
<path class="st0" d="M210.3,43.8c0.2,0,0.3,0.1,0.4,0.2c0.1,0.1,0.2,0.3,0.2,0.4c0,0.2-0.1,0.3-0.2,0.4c-0.1,0.1-0.3,0.2-0.4,0.2
	c-0.2,0-0.3-0.1-0.4-0.2c-0.1-0.1-0.2-0.3-0.2-0.4c0-0.2,0.1-0.3,0.2-0.4C210,43.9,210.1,43.8,210.3,43.8z M209.9,46.2h0.8v5.8h-0.8
	V46.2z"/>
<path class="st0" d="M218.6,47.4l-0.6,0.4c-0.5-0.7-1.3-1-2.1-1c-0.7,0-1.3,0.2-1.8,0.7c-0.5,0.4-0.7,1-0.7,1.7
	c0,0.4,0.1,0.8,0.3,1.2c0.2,0.4,0.5,0.7,0.9,0.9c0.4,0.2,0.8,0.3,1.3,0.3c0.8,0,1.6-0.3,2.1-1l0.6,0.4c-0.3,0.4-0.7,0.8-1.1,1
	c-0.5,0.2-1.1,0.4-1.6,0.3c-0.9,0-1.7-0.3-2.3-0.9c-0.6-0.6-0.9-1.3-0.9-2.1c0-1.1,0.6-2.2,1.6-2.7c0.9-0.5,1.9-0.5,2.8-0.2
	c0.3,0.1,0.6,0.3,0.9,0.5C218.2,47,218.4,47.2,218.6,47.4z"/>
<path class="st0" d="M221.4,44.1h0.8v2.2h1.2v0.7h-1.2v5.2h-0.8v-5.2h-1v-0.7h1V44.1z"/>
<path class="st0" d="M236.3,45.6l-0.6,0.5c-0.3-0.4-0.8-0.8-1.2-1c-0.5-0.2-1-0.4-1.6-0.3c-0.6,0-1.2,0.2-1.8,0.5
	c-0.5,0.3-1,0.7-1.2,1.2c-0.3,0.5-0.5,1.1-0.4,1.7c0,0.9,0.3,1.8,1,2.4c0.7,0.7,1.6,1,2.5,1c1.1,0,2.1-0.5,2.8-1.3l0.6,0.5
	c-0.4,0.5-0.9,0.9-1.5,1.2c-0.6,0.3-1.3,0.4-2,0.4c-2.2,0.1-4.2-1.6-4.3-3.9c0-0.1,0-0.2,0-0.3c0-1.1,0.4-2.2,1.2-2.9
	c0.8-0.8,1.9-1.2,3.1-1.2c0.7,0,1.4,0.1,2,0.4C235.4,44.7,235.9,45.1,236.3,45.6z"/>
<path class="st0" d="M241.1,46.1c0.9,0,1.7,0.4,2.2,1c1.1,1.2,1.1,3,0,4.2c-1.2,1.2-3.2,1.2-4.4,0c0,0,0,0,0,0
	c-1.1-1.2-1.2-3-0.1-4.2C239.5,46.4,240.3,46.1,241.1,46.1z M241.1,46.8c-0.6,0-1.2,0.2-1.6,0.7c-0.4,0.4-0.7,1-0.7,1.7
	c0,0.4,0.1,0.8,0.3,1.2c0.4,0.7,1.2,1.2,2,1.1c0.4,0,0.8-0.1,1.1-0.3c0.3-0.2,0.6-0.5,0.8-0.8c0.2-0.4,0.3-0.8,0.3-1.2
	c0-0.6-0.2-1.2-0.7-1.7C242.4,47.1,241.8,46.8,241.1,46.8z"/>
<path class="st0" d="M246.1,46.2h0.8V49c0,0.5,0,0.9,0.1,1.4c0.1,0.3,0.3,0.6,0.6,0.8c0.7,0.4,1.5,0.4,2.1,0
	c0.3-0.2,0.5-0.5,0.6-0.8c0.1-0.5,0.1-0.9,0.1-1.4v-2.8h0.8v2.9c0,0.6-0.1,1.2-0.3,1.8c-0.2,0.4-0.5,0.8-0.9,1
	c-0.4,0.2-0.9,0.4-1.4,0.3c-0.5,0-1-0.1-1.4-0.3c-0.4-0.2-0.7-0.6-0.9-1c-0.2-0.6-0.3-1.2-0.3-1.9L246.1,46.2z"/>
<path class="st0" d="M253.3,46.2h0.8v0.8c0.2-0.3,0.4-0.5,0.7-0.8c0.2-0.2,0.5-0.2,0.8-0.2c0.2,0,0.5,0.1,0.7,0.2l-0.4,0.6
	c-0.1-0.1-0.3-0.1-0.4-0.1c-0.3,0-0.5,0.1-0.7,0.3c-0.3,0.3-0.5,0.6-0.5,1c-0.1,0.7-0.2,1.3-0.1,2v2h-0.8V46.2z"/>
<path class="st0" d="M258.2,44.1h0.8v2.2h1.2v0.7H259v5.2h-0.8v-5.2h-1v-0.7h1L258.2,44.1z"/>
<circle class="st0" cx="32.7" cy="31.4" r="30.3"/>
<linearGradient id="SVGID_1_" gradientUnits="userSpaceOnUse" x1="32.645" y1="5.22" x2="32.645" y2="28.47" gradientTransform="matrix(1 0 0 -1 0 66)">
	<stop  offset="0.69" style="stop-color:#B7A246"/>
	<stop  offset="1" style="stop-color:#FFFFFF"/>
</linearGradient>
<path class="st1" d="M61.5,37.8c-3.1,13.4-15.1,22.9-28.8,23c-14,0-25.9-10.2-28.9-23.2h7.4c2.8,9,11.5,16.1,21.5,16.1
	c9.8-0.1,18.4-6.5,21.4-15.8H61.5z"/>
<path class="st2" d="M53.6,31.3c0,11.6-9.4,21-21,21s-21-9.4-21-21s9.4-21,21-21S53.6,19.7,53.6,31.3L53.6,31.3z"/>
<path class="st0" d="M34.3,33.8H31V42c0,0.9,0.8,1.7,1.7,1.7c0.9,0,1.6-0.7,1.6-1.6c0,0,0,0,0,0V33.8z"/>
<path class="st0" d="M35.6,44h-5.8c-0.4,0-0.7,0.3-0.8,0.6c0,0,0,0,0,0v0.8c0,0.4,0.4,0.7,0.7,0.7c0,0,0,0,0,0h5.8
	c0.4,0,0.7-0.2,0.7-0.6c0,0,0,0,0,0v-0.8C36.3,44.3,35.9,44,35.6,44C35.6,44,35.6,44,35.6,44z"/>
<path class="st0" d="M36.7,46.9h-8c-0.6,0-1,0.3-1,0.7v0.8c0,0.4,0.4,0.7,1,0.7h8c0.5,0,1-0.3,1-0.7v-0.8
	C37.7,47.2,37.2,46.9,36.7,46.9z"/>
<path class="st0" d="M48.9,23.3c0-0.3-0.2-0.5-0.4-0.6c-0.4-0.3-1-0.2-1.4,0.1C44.7,25,41,25,38.5,22.8c-3.2-2.7-7.9-2.8-11.2-0.2h0
	l-0.2,0.2l0,0c-1.2,1.1-2.8,1.7-4.4,1.7c-1.6,0-3.2-0.6-4.4-1.7c-0.2-0.2-0.4-0.3-0.7-0.3c-0.2,0-0.5,0-0.7,0.2
	c-0.2,0.1-0.4,0.4-0.4,0.6v0.1c0,0.2,0.1,0.4,0.3,0.6c1.6,1.5,3.7,2.3,5.9,2.3c2,0,3.9-0.6,5.5-1.9l0,0l0,0l0.1-0.1
	c2.5-2.2,6.2-2.2,8.7-0.1c1.6,1.4,3.6,2.1,5.7,2.1c2.2,0,4.3-0.8,5.9-2.3c0.2-0.2,0.3-0.4,0.3-0.6V23.3z M48.9,23.3L48.9,23.3
	L48.9,23.3z"/>
<path class="st0" d="M36.1,17c0,1.9-1.6,3.4-3.5,3.4c-1.9,0-3.4-1.6-3.4-3.5c0-1.9,1.5-3.4,3.4-3.4C34.6,13.5,36.1,15.1,36.1,17z"/>
<path class="st0" d="M27.6,38.4l-5.3-12C22.2,26.2,22,26,21.7,26c-0.2,0-0.4,0.1-0.5,0.4l0,0l-5.3,12c-0.1,0.2-0.1,0.4,0,0.6
	c1.2,2,3.4,3.2,5.8,3.2c2.4,0.1,4.6-1.1,5.8-3.1C27.7,38.8,27.7,38.6,27.6,38.4z M21.7,28.1c0.3,0.7,4.3,9.8,4.6,10.4h-9.2l3.1-7
	L21.7,28.1z"/>
<path class="st0" d="M49.5,38.4l-5.3-12c-0.1-0.2-0.3-0.4-0.5-0.4c-0.2,0-0.4,0.1-0.5,0.4l0,0l-5.3,12c-0.1,0.2-0.1,0.4,0,0.6
	c1.2,2,3.4,3.2,5.8,3.2c2.4,0.1,4.6-1.1,5.8-3.1C49.6,38.8,49.6,38.6,49.5,38.4z M43.7,28.1l4.6,10.4h-9.2c0.2-0.4,2-4.5,2-4.5
	S43.4,28.8,43.7,28.1z"/>
<path class="st0" d="M38.3,25.4c-0.5,0-0.8,0.3-0.9,0.8c0,0.1,0,0.1,0,0.2h-1.2v-0.5h-7v0.5H28c0.1-0.4-0.3-0.9-0.7-0.9
	c-0.1,0-0.1,0-0.2,0c0,0-0.8,0-0.8,1v4.4c0,1.1,0.8,1,0.8,1c0.5,0,0.9-0.3,0.9-0.8c0,0,0-0.1,0-0.1h1.1v0.5H31V33h3.3v-1.5h1.9v-0.5
	h1.2c-0.1,0.5,0.3,0.9,0.7,0.9c0,0,0.1,0,0.1,0c0,0,0.8,0,0.8-1v-4.4C39,25.4,38.3,25.4,38.3,25.4z"/>
<path class="st0" d="M12.8,51.4l-3.4-4.2L9.5,47l1.6,2l0.3-0.2l-1.4-1.7l0.2-0.2l1.4,1.7l0.3-0.2c-0.2-0.2-0.6-0.7-1.2-1.5l0.2-0.2
	c0.3,0.3,0.6,0.5,1,0.6l-0.5-0.7l0.2-0.2l2.4,3l-0.2,0.2l-0.3-0.3c0,0.3-0.1,0.6-0.1,0.9L13,50.1c0-0.1,0.1-0.2,0.1-0.3l-1-1.1
	l-0.3,0.2l1.4,1.7L13,50.7L11.6,49l-0.3,0.2l1.6,2L12.8,51.4z M14.1,50.1l-0.2-0.2l0.4-0.4L11.5,46l-0.4,0.3l-0.2-0.2l0.6-0.5l3.3,4
	L14.1,50.1z M13.1,49.4c0-0.1,0-0.2,0-0.3h0.2l-1.2-1.5c-0.3,0-0.5-0.1-0.8-0.3C11.7,47.8,12.2,48.5,13.1,49.4z M14.6,49l-2.5-3.1
	l0.6-0.5l2.5,3.1L14.6,49z M14.6,48.6l0.2-0.2l-2.1-2.6L12.5,46L14.6,48.6z M16.4,48.5l-1.6-2l-0.2,0.2l1.4,1.7l-0.2,0.2l-3.1-3.8
	l0.2-0.2l1.4,1.8l0.2-0.2l-1.6-2l0.2-0.2l1.6,2l0.2-0.2l0.2,0.3L15,46.3l1.6,2L16.4,48.5z"/>
<path class="st0" d="M15.9,51.7c-0.6,0.4-1.2,0.7-1.8,1L14,52.4c0.6-0.3,1.2-0.6,1.8-1L15.9,51.7z M18.7,54.9l-0.4,0.4
	c-0.1,0.1-0.2,0.1-0.3,0.1c-0.1,0-0.3,0-0.4-0.1l-1.1-0.9l0.1-0.3l1.2,0.9c0.1,0.1,0.2,0.1,0.3,0l0.2-0.2l-2.9-2.2l0.8-0.5l2.5,1.8
	l0.2-0.3l-2.7-2.1l0.2-0.2l3,2.2l-0.5,0.7l-2.5-1.9l-0.3,0.2L18.7,54.9z M16.6,50.7l-0.3,0.1c0-0.4-0.1-0.7-0.3-1.1l0.3-0.1
	C16.4,50,16.5,50.4,16.6,50.7z M17,51c-0.2,0.1-0.4,0.3-0.6,0.4l-0.1-0.2c0.2-0.1,0.4-0.2,0.6-0.4L17,51z M17,51.8l-0.2-0.1
	c0.1-0.2,0.2-0.4,0.3-0.6l0.2,0.1C17.2,51.4,17.1,51.6,17,51.8L17,51.8z M18,51.4l-0.2-0.1c0,0,0-0.1,0-0.2
	c-0.3-0.1-0.6-0.3-0.9-0.5v-0.2c0.3,0,0.7-0.1,1-0.2L17.4,50l0-0.2c0.4-0.1,0.8-0.2,1.2-0.3l0.1,0.3c-0.3,0.1-0.6,0.2-0.9,0.3
	c0.1,0.1,0.3,0.2,0.4,0.2l0.3-0.1l0.1,0.2c-0.4,0.2-0.9,0.3-1.3,0.3l0.5,0.2c0-0.1,0-0.1,0-0.2l0.2,0.1C18.1,51,18.1,51.2,18,51.4
	L18,51.4z M17.6,49.6l-0.3,0c0-0.4-0.1-0.7-0.3-1.1l0.3,0C17.4,48.9,17.5,49.3,17.6,49.6L17.6,49.6z M17.5,52l-0.2-0.1
	c0.1-0.2,0.2-0.4,0.2-0.5l0.2,0.1C17.6,51.6,17.5,51.8,17.5,52z M18.5,52.9l-0.9-0.7l0.5-0.7l0.9,0.7L18.5,52.9z M18.4,52.5l0.2-0.3
	l-0.5-0.3L18,52.2L18.4,52.5z M19.1,51.9l-0.9-0.7l0.1-0.2l0.9,0.7L19.1,51.9z M19.2,52.7c-0.2,0.2-0.3,0.3-0.5,0.5L18.5,53
	c0.2-0.1,0.4-0.3,0.5-0.5L19.2,52.7z M19.4,51.5l-0.9-0.7l0.1-0.2l0.9,0.7L19.4,51.5z M19.9,51.3l-1.1-0.8l0.1-0.2l0.5,0.4
	c0-0.1,0.1-0.2,0.1-0.4l0.3,0.1c0,0.2,0,0.3-0.1,0.5l0.4,0.3L19.9,51.3z M19.3,53.6l-0.2-0.1c0.1-0.2,0.2-0.4,0.3-0.6l0.2,0.1
	C19.5,53.2,19.4,53.4,19.3,53.6L19.3,53.6z M20.3,53.2L20,53.1l0.1-0.2c-0.4-0.2-0.7-0.4-1-0.5l0.1-0.2c0.3,0,0.7-0.1,1-0.1
	l-0.5-0.3l0.1-0.2c0.4-0.1,0.8-0.2,1.2-0.3l0.2,0.3c-0.3,0.1-0.7,0.2-1,0.2c0.1,0.1,0.3,0.2,0.5,0.3l0.3-0.1l0.1,0.3
	c-0.4,0.1-0.9,0.2-1.3,0.3c0.1,0.1,0.3,0.2,0.5,0.2c0-0.1,0-0.1,0-0.2l0.3,0.1C20.3,52.8,20.3,53,20.3,53.2L20.3,53.2z M19.9,53.9
	l-0.2-0.1c0.1-0.2,0.1-0.4,0.2-0.6l0.2,0.1C20,53.5,19.9,53.7,19.9,53.9L19.9,53.9z"/>
<path class="st0" d="M23.1,57.2l-1.4-0.5l-0.3,0.7l-0.3-0.1l0.3-0.7L20,56l0.1-0.3l1.5,0.6l0.2-0.4l-1.1-0.4l0.6-1.6l2.4,1L23,56.4
	L22,56l-0.2,0.4l1.4,0.6L23.1,57.2z M24.1,54.5L21,53.3l0.1-0.3l0.9,0.4c0-0.2,0-0.5,0-0.7l-0.5-0.2l0.1-0.2l1.3,0.5
	c0-0.1,0-0.3,0-0.4h0.3c0,0.2,0,0.3,0,0.5l1.2,0.5l-0.1,0.3L24,53.4c-0.2,0.2-0.4,0.4-0.5,0.5l0.9,0.3L24.1,54.5z M22.8,56l0.2-0.4
	l-1.8-0.7L21,55.3L22.8,56z M23.1,55.3l0.2-0.4l-1.8-0.7l-0.2,0.4L23.1,55.3z M23.6,53.3l-1.2-0.5c0,0.2,0,0.5,0,0.7l0.6,0.2
	C23.2,53.7,23.4,53.5,23.6,53.3L23.6,53.3z M25.5,57.2c-0.8,0.5-1.7,0.7-2.6,0.7l-0.1-0.3c0.9,0,1.8-0.2,2.6-0.7L25.5,57.2z
	 M26.1,55.7c-0.7,0.4-1.5,0.6-2.3,0.6l-0.1-0.3c0.8,0,1.6-0.2,2.3-0.5L26.1,55.7z M26.6,54.2c-0.6,0.4-1.4,0.6-2.1,0.5l-0.1-0.3
	c0.7,0.1,1.4-0.1,2-0.5L26.6,54.2z"/>
<path class="st0" d="M28.9,54.1c-0.1,0.2-0.3,0.5-0.5,0.8l-0.3,0.5l-0.4,3.8h-0.3l0.4-3.2c-0.2,0.3-0.5,0.5-0.7,0.8l-0.2-0.3
	c0.8-0.7,1.4-1.5,1.8-2.4L28.9,54.1z M32.2,58.3c0,0.3-0.1,0.6-0.2,0.8c-0.1,0.2-0.2,0.4-0.4,0.4c-0.5,0-1,0-1.5-0.1l-0.5-0.1
	c-0.1,0-0.2-0.1-0.3-0.2c-0.1-0.1-0.1-0.2-0.1-0.3l0.5-4.7H30l-0.2,2l2.5,0.3v0.3l-2.5-0.3l-0.3,2.4c0,0,0,0.1,0,0.1
	c0,0,0.1,0.1,0.1,0.1l0.4,0c0.9,0.1,1.3,0.1,1.5,0.1c0.1,0,0.2-0.4,0.3-1.1L32.2,58.3z"/>
<path class="st0" d="M35.3,58.2c-0.5,0.4-1.1,0.7-1.7,1L33.4,59c0.3-0.1,0.5-0.2,0.8-0.4l-0.3-2.3l-0.7,0.1V56l0.7-0.1l-0.2-1.4h0.3
	l0.2,1.4l0.7-0.1v0.3l-0.7,0.1l0.3,2.2l0.7-0.4L35.3,58.2z M38.9,57.9c0,0.3,0,0.6-0.1,0.8c-0.1,0.1-0.2,0.2-0.3,0.3
	c-0.1,0-0.4,0.1-1,0.2l-1.4,0.2c-0.1,0-0.2,0-0.3-0.1c-0.1-0.1-0.1-0.2-0.1-0.3l-0.3-2.4l-0.5,0.2l-0.1-0.3l0.6-0.3l-0.2-1.2h0.3
	l0.1,1.1l1-0.4l-0.2-1.5h0.3l0.2,1.4l1.3-0.6c0.1,0.8,0.1,1.7,0,2.5H38c0.1-0.7,0.1-1.3,0.1-2l-1,0.5l0.2,2.1h-0.3l-0.3-2.2l-1,0.5
	l0.3,2.6c0,0,0,0,0,0.1c0,0,0.1,0,0.1,0c0.1,0,0.3,0,0.4,0l0.7-0.1c0.4,0,0.8-0.1,1.2-0.2c0.1,0,0.2-0.3,0.1-0.8L38.9,57.9z"/>
<path class="st0" d="M44.2,52.9L41,54.2c0.1,0.3,0.2,0.6,0.4,1l2.5-1c0.2,0.5,0.4,1,0.5,1.5c0.1,0.3,0.2,0.7,0.2,1
	c0,0.1-0.1,0.3-0.2,0.4c-0.2,0.2-0.5,0.3-0.7,0.4l-0.4,0.2l-0.2-0.3c0.2-0.1,0.4-0.1,0.6-0.2c0.2-0.1,0.3-0.1,0.5-0.2
	c0-0.1,0.1-0.1,0.1-0.2c0-0.3-0.1-0.5-0.2-0.8c-0.1-0.4-0.2-0.8-0.4-1.2l-2.2,0.9c0.3,1.1,0,2.2-0.7,3.1l-0.3-0.1
	c0.3-0.3,0.5-0.7,0.7-1.2c0.2-0.4,0.2-0.9,0.2-1.3c-0.1-0.6-0.3-1.1-0.5-1.7L39.1,55L39,54.6l2.5-1c-0.3-0.2-0.6-0.4-0.9-0.6
	l0.2-0.3c0.4,0.2,0.7,0.4,1,0.7l2.3-0.9L44.2,52.9z"/>
<path class="st0" d="M45.6,51.3l-0.1,0.3c-0.4,0-0.9,0-1.3,0v-0.3C44.7,51.2,45.2,51.2,45.6,51.3z M46.4,52.5v0.3
	c-0.4-0.1-0.9-0.1-1.3,0v-0.3C45.5,52.5,46,52.5,46.4,52.5z M50,50.3l-1.6,1.2c0.1,0.8,0.2,1.7,0.1,2.5c0.6-0.6,1.2-1.2,1.8-1.9
	c-0.4-0.1-0.7-0.3-1.1-0.3l0.1-0.3c0.7,0.2,1.4,0.4,2.1,0.7l-0.1,0.3c-0.2-0.1-0.5-0.2-0.7-0.3c-0.7,0.8-1.4,1.6-2.2,2.3l-0.3-0.2
	c0.1-0.3,0.2-0.7,0.2-1c0-0.5-0.1-1.1-0.2-1.6l-1.2,1l-0.2-0.2l1.5-1.1l-0.7-0.9l-1.2,0.9L46,51.1l1.2-0.9l-0.6-0.7l0.3-0.2l0.6,0.7
	l1.2-0.9l0.2,0.2l-1.2,0.9l0.7,0.9l1.4-1.1L50,50.3z M47,53.3c0.2,0.8,0.3,1.5,0.3,2.3H47c0-0.8-0.1-1.5-0.3-2.3L47,53.3z"/>
<path class="st0" d="M50.8,48.1c0.5,0,1,0.1,1.4,0.5c0.1,0.1,0.2,0.2,0.2,0.4c0,0.2-0.1,0.3-0.3,0.6l-0.2,0.2l-0.3-0.1l0.2-0.3
	c0.1-0.1,0.2-0.2,0.2-0.3c0-0.1,0-0.2-0.1-0.2c-0.4-0.3-0.9-0.4-1.4-0.4c-0.2-0.4-0.5-0.8-0.8-1.3l-0.6,0.7l3.7,3l-0.2,0.2l-4-3.2
	l1-1.2l0.2,0.2C50.3,47.2,50.6,47.7,50.8,48.1z M53.4,44.9l-0.2,0.3l-0.7-0.6l-1.7,2.1l0.7,0.6l-0.2,0.3l-0.9-0.8l0.9-1.2
	c-0.2-0.1-0.4-0.1-0.6-0.2l0.2-0.3c0.2,0.1,0.4,0.1,0.6,0.2l1-1.2L53.4,44.9z M53.1,45.4l-1.4,1.7l-0.2-0.2l1.4-1.7L53.1,45.4z
	 M55.2,46.2c0.2,0.1,0.4,0.3,0.5,0.5c0.1,0.1,0.1,0.3,0.1,0.4c-0.1,0.2-0.2,0.4-0.3,0.5c-0.2,0.3-0.4,0.3-0.6,0.2l-1.4-1.2L53,47.2
	c0.4,0.3,0.7,0.8,0.9,1.3c0.1,0.5,0.1,0.9-0.1,1.3h-0.3c0.2-0.4,0.2-0.9,0.1-1.3c-0.1-0.4-0.4-0.8-0.8-1.1l-0.6,0.7L52,48l2.1-2.6
	l0.2,0.2l-0.7,0.8l1.4,1.1c0,0,0.1,0,0.1,0c0,0,0.1-0.1,0.2-0.2c0.1-0.1,0.1-0.2,0.2-0.2c0,0,0-0.1,0-0.1c0-0.1-0.1-0.2-0.2-0.2
	c-0.1-0.1-0.3-0.2-0.4-0.3L55.2,46.2z"/>
<path class="st3" d="M9.6,37l0.1,0.5l-3.5,0.9l0.2,0.8l-0.6,0.1l-0.5-2.2L5.9,37l0.2,0.8L9.6,37z"/>
<path class="st3" d="M8.3,35.2l1,0.2l0.1,0.7l-4.5-0.9l-0.1-0.5L9,32.8l0.1,0.7l-0.9,0.4L8.3,35.2z M5.9,34.9l1.8,0.3l-0.1-1.1
	L5.9,34.9z"/>
<path class="st3" d="M9,31.8v0.6l-4.2,0.1v-0.6L9,31.8z"/>
<path class="st3" d="M7.9,29.8l-3.1-1.1v-0.3l3.3-0.5l-3-1.1l0.1-0.6l4.2,1.7l-0.1,0.5l-3,0.5l2.8,1v0.5L4.6,31l0.1-0.6L7.9,29.8z"
	/>
<path class="st3" d="M8.8,25.3l0.8,0.6l-0.2,0.6L5.6,24l0.2-0.5l4.6-0.1L10.2,24h-1L8.8,25.3z M6.7,24l1.6,1l0.3-1H6.7z"/>
<path class="st3" d="M6.6,21.1l0.2-0.4l3.8-0.5l-2.8-1.3L8,18.3l3.9,1.8l-0.2,0.4L8,21.1l2.8,1.3l-0.3,0.6L6.6,21.1z"/>
<path class="st3" d="M12.3,13.9c-0.3,0-0.6,0.1-0.8,0.4c-0.2,0.3-0.3,0.6-0.1,0.9c0.1,0.4,0.3,0.7,0.6,0.9c0.3,0.2,0.7,0.4,1.1,0.4
	c0.3,0,0.7-0.1,0.9-0.4c0.2-0.3,0.2-0.6,0.1-0.9l0.7,0.5c0,0.3-0.1,0.6-0.3,0.8c-0.3,0.4-0.8,0.6-1.3,0.6c-0.6,0-1.1-0.2-1.5-0.6
	c-0.5-0.3-0.8-0.8-0.9-1.4c-0.1-0.5,0-1,0.3-1.4c0.2-0.2,0.4-0.4,0.7-0.5L12.3,13.9z"/>
<path class="st3" d="M15,12.1l-1.2-1.2l0.4-0.4l3,3l-0.4,0.4l-1.4-1.4l-1.1,1.1l1.3,1.4l-0.4,0.4l-3-3.1l0.4-0.4l1.2,1.2L15,12.1z"
	/>
<path class="st3" d="M17.7,11.9l0.3,1l-0.5,0.4L16,8.9l0.5-0.3l3.7,2.7l-0.5,0.4l-0.8-0.6L17.7,11.9z M16.9,9.6l0.6,1.8l0.9-0.6
	L16.9,9.6z"/>
<path class="st3" d="M18.5,7.2L18.9,7l3.3,1.9l-1.4-2.7l0.5-0.3l2,3.8L22.9,10l-3.3-1.9l1.4,2.7l-0.5,0.3L18.5,7.2z"/>
<path class="st3" d="M26.3,6.3L26.3,6.3c0.2,0.6,0.2,1.2,0.1,1.8c-0.1,0.5-0.5,0.9-1,1c-0.5,0.2-1,0.1-1.4-0.2
	c-0.5-0.3-0.8-0.8-1-1.3c-0.2-0.5-0.2-1.1,0-1.7c0.2-0.5,0.5-0.8,1-1c0.6-0.2,1.3,0,1.7,0.5l-0.4,0.5c-0.2-0.4-0.7-0.5-1.1-0.4
	c-0.3,0.1-0.5,0.4-0.6,0.7c-0.1,0.4-0.1,0.8,0,1.2c0.1,0.4,0.3,0.7,0.6,1c0.2,0.2,0.6,0.3,0.9,0.2c0.3-0.1,0.5-0.3,0.5-0.5
	c0.1-0.3,0.1-0.6,0-0.9L25,7.3l-0.2-0.5L26.3,6.3z"/>
<path class="st3" d="M29.2,5.5l-0.3-1.7l0.6-0.1l0.7,4.2L29.6,8l-0.3-1.9l-1.5,0.2l0.3,1.9l-0.6,0.1l-0.7-4.2L27.4,4l0.3,1.7
	L29.2,5.5z"/>
<path class="st3" d="M30.7,3.6h0.6l0,2.4c0,0.9,0.3,1.4,0.8,1.3c0.5,0,0.7-0.5,0.7-1.4l0-2.4h0.6l0.1,2.5c0,1.2-0.4,1.8-1.3,1.8
	s-1.4-0.6-1.4-1.8L30.7,3.6z"/>
<path class="st3" d="M34.9,7l-0.4,0.9l-0.7-0.1l1.9-4.2l0.5,0.1l0.8,4.5l-0.7-0.1l-0.2-1L34.9,7z M35.9,4.7l-0.7,1.7l1.1,0.1
	L35.9,4.7z"/>
<path class="st3" d="M41,4.8l1,0.3c0.5,0.2,0.8,0.5,1,1c0.2,0.5,0.1,1.1-0.1,1.6c-0.2,0.5-0.5,1-1,1.3c-0.4,0.3-0.9,0.3-1.4,0.1
	l-1-0.4L41,4.8z M40.3,8.4l0.2,0.1c0.8,0.3,1.4,0,1.7-0.9s0.1-1.5-0.7-1.8l-0.2-0.1L40.3,8.4z"/>
<path class="st3" d="M43.2,10.3L42.6,10l1.8-3.8L45,6.4L43.2,10.3z"/>
<path class="st3" d="M46.9,8.5c0-0.3-0.1-0.5-0.3-0.6c-0.1-0.1-0.3-0.1-0.4,0c-0.1,0-0.3,0.2-0.3,0.3c-0.1,0.2,0,0.4,0.2,0.8
	s0.3,0.6,0.3,0.6c0.1,0.3,0.1,0.6-0.1,0.9c-0.2,0.3-0.5,0.6-0.8,0.7c-0.3,0.1-0.7,0.1-1-0.1c-0.4-0.3-0.6-0.8-0.5-1.3l0.6-0.2
	c0,0.2,0,0.4,0,0.5c0,0.2,0.1,0.3,0.3,0.4c0.1,0.1,0.3,0.1,0.5,0c0.2-0.1,0.3-0.2,0.4-0.4c0.1-0.1,0.1-0.3,0.1-0.4
	c-0.1-0.3-0.2-0.6-0.4-0.9c-0.3-0.3-0.3-0.8-0.1-1.2c0.2-0.3,0.4-0.5,0.7-0.6c0.3-0.1,0.6-0.1,0.8,0.1c0.3,0.2,0.6,0.5,0.6,0.9
	L46.9,8.5z"/>
<path class="st3" d="M46.8,12.5l-0.5-0.3l2.2-2.9l-0.7-0.5l0.4-0.5L50,9.6l-0.4,0.5L49,9.6L46.8,12.5z"/>
<path class="st3" d="M49.6,14.9L49,14.4l0.5-2.1l-1.3,1.4l-0.5-0.4l2.9-3.1l0.7,0.6c0.5,0.4,0.6,1.1,0.2,1.5
	c-0.1,0.1-0.1,0.2-0.2,0.2c-0.2,0.2-0.4,0.4-0.7,0.5c-0.2,0.1-0.5,0-0.7-0.1L49.6,14.9z M49.7,12.1l0.1,0.1c0.2,0.3,0.6,0.4,0.9,0.1
	c0.1,0,0.1-0.1,0.1-0.1c0.3-0.2,0.3-0.7,0.1-0.9c0,0-0.1-0.1-0.1-0.1L50.7,11L49.7,12.1z"/>
<path class="st3" d="M50.3,15.7l-0.4-0.5l3.1-2.9l0.4,0.4L50.3,15.7z"/>
<path class="st3" d="M54.8,16.1c0.1-0.3,0.1-0.6-0.1-0.9c-0.2-0.3-0.5-0.4-0.9-0.4c-0.4,0-0.8,0.2-1.1,0.4c-0.3,0.2-0.5,0.5-0.7,0.9
	c-0.1,0.3-0.1,0.7,0.1,1c0.2,0.2,0.5,0.4,0.8,0.4L52.3,18c-0.3-0.1-0.5-0.3-0.7-0.5c-0.3-0.4-0.4-0.9-0.3-1.4c0.1-0.5,0.5-1,0.9-1.4
	c0.4-0.4,1-0.6,1.6-0.6c0.5,0,1,0.2,1.3,0.6c0.2,0.2,0.3,0.5,0.3,0.8L54.8,16.1z"/>
<path class="st3" d="M53.1,19.5L52.8,19l3.1-1.9l-0.4-0.7l0.5-0.3l1.1,1.9l-0.5,0.3l-0.4-0.7L53.1,19.5z"/>
<path class="st3" d="M58.4,23.6c0.2-0.3,0.3-0.6,0.2-0.9c-0.1-0.3-0.4-0.6-0.7-0.6c-0.8-0.2-1.5,0.1-2,0.7c-0.2,0.3-0.3,0.6-0.2,0.9
	c0.1,0.3,0.4,0.5,0.7,0.6l-0.8,0.3c-0.2-0.2-0.4-0.4-0.5-0.7c-0.2-0.5-0.1-1,0.2-1.4c0.3-0.5,0.8-0.8,1.3-1c0.5-0.2,1.1-0.2,1.7,0
	c0.5,0.1,0.9,0.5,1.1,1c0.1,0.3,0.1,0.6,0,0.9L58.4,23.6z"/>
<path class="st3" d="M57.6,24.7c0.6-0.1,1.1-0.1,1.7,0.2c0.5,0.2,0.8,0.6,0.9,1.1c0.1,0.5,0,1-0.4,1.4c-0.4,0.4-0.9,0.7-1.5,0.8
	c-0.6,0.1-1.1,0.1-1.6-0.2c-0.5-0.2-0.8-0.6-0.9-1.1c-0.1-0.5,0-1,0.4-1.4C56.5,25.1,57,24.8,57.6,24.7z M57.8,25.4
	c-0.4,0.1-0.7,0.3-1,0.5c-0.4,0.4-0.4,1,0,1.4c0.1,0.1,0.2,0.2,0.3,0.2c0.4,0.1,0.8,0.2,1.2,0.1c0.4-0.1,0.7-0.2,1-0.5
	c0.4-0.4,0.4-1,0-1.4c-0.1-0.1-0.2-0.2-0.4-0.2C58.5,25.3,58.1,25.3,57.8,25.4z"/>
<path class="st3" d="M60.5,29v0.6l-2.4,0.1c-0.9,0-1.4,0.3-1.3,0.8s0.5,0.7,1.4,0.7l2.4-0.1v0.6L58,31.8c-1.2,0-1.8-0.4-1.9-1.3
	s0.6-1.4,1.8-1.4L60.5,29z"/>
<path class="st3" d="M56.1,34.9l0.1-0.8l2-0.9l-1.9-0.2l0.1-0.6l4.2,0.4l-0.1,1C60.4,34.7,60,35,59.1,35c-0.3,0-0.6-0.1-0.8-0.3
	C58.1,34.5,58,34.3,58,34L56.1,34.9z M58.4,33.3v0.2c-0.1,0.4,0.1,0.7,0.5,0.8c0.1,0,0.1,0,0.2,0c0.4,0.1,0.7-0.1,0.8-0.5
	c0-0.1,0-0.1,0-0.2v-0.2L58.4,33.3z"/>
<path class="st3" d="M55.8,36.3l0.1-0.5l3.6,0.7l0.2-0.8l0.6,0.1L59.8,38l-0.6-0.1l0.2-0.8L55.8,36.3z"/>
</svg>
