<?xml version="1.0" encoding="utf-8"?>
<!-- Generator: Adobe Illustrator 27.8.1, SVG Export Plug-In . SVG Version: 6.00 Build 0)  -->
<svg version="1.1" id="圖層_1" xmlns="http://www.w3.org/2000/svg" xmlns:xlink="http://www.w3.org/1999/xlink" x="0px" y="0px"
	 viewBox="0 0 270.8 64" style="enable-background:new 0 0 270.8 64;" xml:space="preserve">
<style type="text/css">
	.st0{fill:#FFFFFF;}
	.st1{fill:url(#SVGID_1_);}
	.st2{fill:#005BAB;}
	.st3{fill:#B7A246;}
</style>
<path class="st0" d="M91.7,15.2v1.5h-9.4v1h7.6V19H72.6v-1.3H80v-1h-9.2v-1.5H80v-1.4h2.3v1.4H91.7z M82.3,33.8h9.4v1.6H70.8v-1.6
	H80v-1h-6.8v-1.4H80v-1c-4.4,0.1-5.1,0.2-5.6,0.3c-0.1-0.5-0.3-1-0.5-1.5c0.4-0.1,0.9-0.2,1.3-0.3c0.7-0.3,1.4-0.6,2-1h-3.7v-1.3
	h15.2V28h-2.3c1.1,0.6,2.1,1.3,3.1,2.1l-1.4,1.1c-0.4-0.4-0.8-0.7-1.2-1l-4.7,0.1v1h7.2v1.4h-7.2V33.8z M71.2,24.3h20.2v3.5h-2.1v-2
	H73.2v2h-2L71.2,24.3z M89,19.9v3.5H73.6v-3.5H89z M86.8,21.1H75.7v1.1h11.1V21.1z M79.8,28c-0.7,0.4-1.4,0.8-2.1,1.2l7.6-0.2
	c-0.5-0.3-1.1-0.6-1.6-0.9l0.2-0.1L79.8,28z"/>
<path class="st0" d="M97.5,24.5c-1-1-2.2-1.8-3.4-2.5l1.2-1.5c1.3,0.6,2.4,1.4,3.5,2.3L97.5,24.5z M94.5,34.5c1.1-2.5,2.1-5,3-7.6
	l1.8,1.1c-0.8,2.5-1.8,5.3-2.8,7.6L94.5,34.5z M98,18.3c-1-1-2.1-1.9-3.3-2.7l1.3-1.5c1.2,0.7,2.4,1.5,3.4,2.4L98,18.3z M100.8,22.9
	c-0.2,1.1-0.5,2.2-1,3.2c-0.3-0.3-0.6-0.5-1-0.7c0.5-0.9,0.7-1.8,0.9-2.8L100.8,22.9z M103.9,21.9c-0.1-0.2-0.1-0.5-0.2-0.7
	c-3.1,0.4-3.7,0.5-4.1,0.7c-0.1-0.3-0.3-0.7-0.5-1c0.5-0.1,0.8-0.4,1.1-0.8c0.5-0.5,0.9-1.1,1.3-1.7c-0.7,0-1.4,0.1-2.1,0.3
	c-0.1-0.4-0.3-0.7-0.5-1c0.3-0.1,0.6-0.3,0.8-0.6c0.6-0.9,1.1-1.9,1.4-3l1.3,0.5c-0.4,1-1,1.9-1.6,2.7l1.4-0.1
	c0.2-0.3,0.4-0.7,0.6-1.1l1.3,0.5c-0.8,1.3-1.7,2.5-2.8,3.7l1.8-0.2c-0.1-0.2-0.3-0.5-0.4-0.7l1-0.4c0.5,0.8,0.8,1.6,1.1,2.4
	L103.9,21.9z M115.2,31c0,0.3-0.1,0.6-0.2,0.8c-0.4,2-0.9,3-1.5,3.5c-0.6,0.4-1.3,0.6-2,0.5c-0.7,0-2.2,0-3.7-0.1
	c-0.1-0.6-0.3-1.2-0.6-1.7c1.5,0.1,3,0.2,3.6,0.2c0.3,0,0.7,0,1-0.2c0.5-0.5,0.8-1.1,0.9-1.7h-12.3c0.4-1.2,0.7-2.5,1-3.8H112v-1
	h-11.3v-1.4h13.4V30h-10.9l-0.3,1H115.2z M101.6,25.7c0-1-0.2-1.9-0.5-2.9l1.1-0.3c0.3,0.9,0.5,1.8,0.6,2.8L101.6,25.7z M103.7,25.1
	c-0.2-0.9-0.4-1.8-0.7-2.6l1-0.3c0.4,0.8,0.6,1.6,0.8,2.5L103.7,25.1z M110.3,17.5h-5.7v-1.3h2.5c-0.2-0.6-0.5-1.2-0.8-1.8l1.5-0.3
	c0.4,0.6,0.7,1.2,1,1.9l-1.1,0.3h2.8L110.3,17.5z M105.2,22h4.5v3.5h-4.5V22z M109.7,19.4h-4.5v-1.2h4.5V19.4z M105.2,20.1h4.5v1.1
	h-4.5V20.1z M106.6,24.4h1.7V23h-1.7V24.4z M111.9,22.8c-0.2,1.1-0.5,2.2-1,3.2c-0.3-0.3-0.6-0.5-1-0.7c0.4-0.9,0.7-1.8,0.9-2.8
	L111.9,22.8z M115.1,22c-0.1-0.2-0.2-0.5-0.3-0.8c-1.4,0.1-2.8,0.3-4.1,0.7c-0.1-0.2-0.3-0.8-0.5-1c0.5-0.1,0.9-0.4,1.1-0.8
	c0.5-0.5,0.9-1.1,1.3-1.7c-0.7,0-1.4,0.1-2.1,0.3c-0.1-0.3-0.3-0.7-0.5-1c0.3,0,0.5-0.3,0.8-0.6c0.6-0.9,1.1-1.9,1.4-3l1.3,0.4
	c-0.4,1-0.9,1.9-1.5,2.7l1.4-0.1c0.2-0.4,0.4-0.7,0.6-1.1l1.3,0.5c-0.8,1.3-1.7,2.6-2.8,3.7l1.8-0.2l-0.4-0.7l1-0.4
	c0.5,0.8,0.9,1.6,1.2,2.5L115.1,22z M112.8,25.9c0-1-0.2-2.1-0.5-3.1l1-0.3c0.3,1,0.5,2,0.6,3L112.8,25.9z M115.1,22.1
	c0.5,0.9,0.8,2,1,3l-1,0.5c-0.2-1.1-0.5-2.1-0.9-3.1L115.1,22.1z"/>
<path class="st0" d="M139.7,16.3v1.9h-20.9v-1.9h9.5c-0.2-0.6-0.5-1.4-0.7-2l2.2-0.5c0.3,0.8,0.7,1.7,0.9,2.5L139.7,16.3z M139,33.7
	c0,1.1-0.3,1.5-1,1.8c-1.1,0.3-2.3,0.4-3.4,0.3c-0.2-0.6-0.4-1.1-0.7-1.7c1,0,2.2,0,2.5,0s0.4-0.1,0.4-0.4v-6.4h-15.1v8.7h-2.2V25.4
	H139V33.7z M136.6,19.3v4.9h-14.4v-4.9L136.6,19.3z M126.1,33.5v1.1H124v-6.2h10.2v5.1H126.1z M134.2,20.9h-9.8v1.8h9.8V20.9z
	 M126.1,30v1.9h6.2V30H126.1z"/>
<path class="st0" d="M147.5,19.8c-0.7,4.6-1.9,8.6-3.8,11.4c-0.6-0.5-1.2-0.9-1.9-1.3c1.8-2.5,2.9-6,3.6-10.2h-2.6v-2.1h3
	c0.2-1.2,0.3-2.6,0.4-3.8l2.1,0.2c-0.1,1.2-0.3,2.5-0.4,3.7h4.8v2.1L147.5,19.8z M151.3,26.9c0.8,2.4,1.5,4.9,2,7.4l-1.8,0.7
	c-0.1-0.5-0.2-1.1-0.3-1.7c-4.8,0.9-5.5,1.1-6,1.3c-0.2-0.7-0.4-1.3-0.7-1.9c0.5-0.1,0.8-0.8,1.3-1.9c1.2-2.7,2.1-5.6,2.7-8.5
	l2.1,0.5c-0.8,3.2-2,6.3-3.4,9.3l3.6-0.6c-0.3-1.4-0.7-2.8-1.1-4.1L151.3,26.9z M164,34.7h-8.2v1.2h-2v-14c-0.5,0.8-1,1.6-1.6,2.3
	c-0.4-0.6-0.8-1.2-1.3-1.8c2-2.5,3.4-5.3,4.2-8.4l1.9,0.5c-0.4,1.3-0.9,2.6-1.4,3.9h8.1v2h-3v2.9h2.9v1.9h-2.8v2.8h2.9v1.9h-2.9v2.9
	h3.2V34.7z M155.8,20.3v2.9h2.9v-2.9L155.8,20.3z M158.8,25.1h-2.9v2.8h2.9V25.1z M155.8,32.7h2.9v-2.9h-2.9V32.7z M159.7,14.2
	c0.6,1.1,1.2,2.2,1.6,3.4l-2,0.7c-0.4-1.2-0.9-2.4-1.5-3.5L159.7,14.2z"/>
<path class="st0" d="M173.7,26.6l0.5,2c-2.5,1.2-5.2,2.5-7.3,3.4l-0.9-2.2c0.9-0.3,2-0.7,3.2-1.2v-6.9h-2.7v-2.1h2.7v-5.3h2.1v5.3
	h2.4v2.1h-2.4v6L173.7,26.6z M184.7,33.4c1.3,0,1.6-0.6,1.8-3.2c0.6,0.4,1.3,0.7,2,0.8c-0.3,3.3-1,4.4-3.6,4.4h-5.5
	c-2.9,0-3.8-0.8-3.8-3.6v-6.9l-1.7,0.7l-0.8-2l2.5-1.1v-6.4h2.1v5.5l2.7-1.1v-6.6h2.1v5.7l3.2-1.4l1.6,0.5l-0.1,0.4
	c-0.2,3.5-0.6,7-1.2,10.5l-1.8-0.5c0.4-2.8,0.7-5.5,0.7-8.3l-2.5,1.1v8.6h-2.1v-7.7l-2.7,1.2v7.9c0,1.3,0.3,1.6,1.8,1.6H184.7z"/>
<path class="st0" d="M199.6,20c-0.1,1.1-0.1,2.3-0.3,3.4h10.2c0,0.3,0,0.7-0.1,1c-0.4,6.6-0.9,9.3-1.9,10.2
	c-0.6,0.6-1.4,0.9-2.3,0.9c-1.3,0.1-2.7,0-4.1,0c-0.1-0.8-0.3-1.5-0.8-2.2c1.7,0.1,3.3,0.2,4,0.2c0.4,0,0.8-0.1,1.1-0.3
	c0.7-0.6,1.1-2.8,1.5-7.7h-8c-0.8,4.1-2.5,8-7,10.4c-0.4-0.7-1-1.3-1.6-1.8c5.9-3,6.5-8.9,6.8-14.1h-6.3v-2.2h10.3
	c-0.4-1.2-0.9-2.3-1.5-3.4l2.2-0.8c0.7,1.1,1.2,2.3,1.7,3.5l-1.6,0.7h9.9V20H199.6z"/>
<path class="st0" d="M218.7,24.8c-1.4-1-2.8-1.9-4.4-2.6l1.2-1.7c1.6,0.6,3.1,1.4,4.5,2.4L218.7,24.8z M215.1,34.1
	c1.7-2.4,3.2-5,4.5-7.6l1.6,1.5c-1.2,2.5-2.8,5.4-4.2,7.6L215.1,34.1z M216.9,14.1c1.6,0.7,3.1,1.5,4.5,2.5l-1.3,1.9
	c-1.4-1.1-2.9-2-4.5-2.7L216.9,14.1z M233.9,35.8c-0.3-0.8-0.6-1.5-1-2.3c-8.5,1-9.6,1.2-10.3,1.6c-0.2-0.8-0.5-1.5-0.8-2.2
	c0.5-0.1,1-0.7,1.5-1.6c1.2-1.7,2.2-3.6,3-5.5h-4.9v-2.1h5.9v-3.9h-4.9v-2.1h4.9v-3.9h2.3v3.9h5.1v2.1h-5.1v3.9h6v2.1H229
	c-1.1,2.3-2.4,4.5-3.8,6.6l6.7-0.7c-0.6-1-1.2-1.9-1.9-2.8l1.8-0.9c1.7,2.1,3.1,4.3,4.1,6.8L233.9,35.8z"/>
<path class="st0" d="M246.3,15.6c-0.7,2-1.5,4.3-2.2,6.2c1.2,1.4,1.9,3.2,1.9,5.1c0.1,1.1-0.2,2.2-1,2.9c-0.4,0.3-0.8,0.4-1.3,0.5
	c-0.4,0-1,0-1.6,0c0-0.7-0.2-1.3-0.5-1.9c0.4,0,0.8,0,1.2,0c0.2,0,0.5-0.1,0.7-0.2c0.4-0.4,0.6-1,0.5-1.6c-0.1-1.7-0.8-3.4-2-4.6
	c0.6-1.6,1.2-3.6,1.7-5.2h-2.6v19h-2v-21h5.4l0.3-0.1L246.3,15.6z M258,33.7c0.5,0,0.5-0.4,0.6-3c0.6,0.4,1.2,0.7,1.9,0.8
	c-0.2,3.2-0.7,4-2.2,4h-2c-1.9,0-2.3-0.5-2.3-2.5v-5.7h-2.1c-0.4,4.2-1.5,7-6.1,8.6c-0.3-0.7-0.7-1.3-1.3-1.8c4-1.3,4.9-3.4,5.2-6.8
	h-3.1v-2h13.5v2h-4v5.6c0,0.7,0.1,0.7,0.5,0.7H258z M248.5,21.2h-1.9v-4.4h5.8c-0.3-0.8-0.7-1.7-1.1-2.5l2.1-0.6
	c0.6,1,1.1,2,1.5,3.1h5.2v4.4h-1.9V23h-9.7L248.5,21.2z M248.6,18.7V21h9.3v-2.3L248.6,18.7z"/>
<path class="st0" d="M71.8,45v-0.8h4.3V45h-1.8v7.1h-0.8V45H71.8z"/>
<path class="st0" d="M83.7,46.2v5.8H83v-1c-0.3,0.4-0.6,0.7-1.1,0.9c-0.4,0.2-0.8,0.3-1.3,0.3c-0.8,0-1.6-0.3-2.1-0.9
	c-0.6-0.6-0.9-1.4-0.9-2.2c0-1.7,1.3-3,2.9-3.1c0,0,0,0,0.1,0c0.5,0,0.9,0.1,1.3,0.3c0.4,0.2,0.7,0.5,1,0.9v-1.1H83.7z M80.7,46.8
	c-0.4,0-0.8,0.1-1.2,0.3c-0.4,0.2-0.6,0.5-0.8,0.9c-0.2,0.4-0.3,0.8-0.3,1.2c0,0.4,0.1,0.8,0.3,1.2c0.2,0.4,0.5,0.7,0.8,0.9
	c0.3,0.2,0.7,0.3,1.1,0.3c0.4,0,0.8-0.1,1.2-0.3c0.4-0.2,0.6-0.5,0.8-0.8c0.2-0.4,0.3-0.8,0.3-1.2c0-0.6-0.2-1.2-0.7-1.7
	C81.9,47,81.3,46.8,80.7,46.8z"/>
<path class="st0" d="M86.4,43.8c0.2,0,0.3,0.1,0.4,0.2c0.1,0.1,0.2,0.3,0.2,0.4c0,0.2-0.1,0.3-0.2,0.4c-0.1,0.1-0.3,0.2-0.4,0.2
	c-0.2,0-0.3-0.1-0.4-0.2c-0.1-0.1-0.2-0.3-0.2-0.4c0-0.2,0.1-0.3,0.2-0.4C86.1,43.9,86.3,43.8,86.4,43.8z M86,46.2h0.8v5.8H86V46.2z
	"/>
<path class="st0" d="M88.3,46.2h0.8l1.8,4.2l1.9-4.2h0.1l1.9,4.2l1.8-4.2h0.8l-2.5,5.8h-0.1l-1.9-4.2L91,52.1h-0.1L88.3,46.2z"/>
<path class="st0" d="M104.8,46.2v5.8h-0.8v-1c-0.3,0.4-0.6,0.7-1.1,0.9c-0.4,0.2-0.8,0.3-1.3,0.3c-0.8,0-1.6-0.3-2.1-0.9
	c-0.6-0.6-0.9-1.4-0.9-2.2c0-0.8,0.3-1.6,0.9-2.1c0.6-0.6,1.3-0.9,2.1-0.9c0.5,0,0.9,0.1,1.3,0.3c0.4,0.2,0.7,0.5,1,0.9v-1.1H104.8z
	 M101.8,46.8c-0.8,0-1.6,0.4-2,1.2c-0.2,0.4-0.3,0.8-0.3,1.2c0,0.4,0.1,0.8,0.3,1.2c0.2,0.4,0.5,0.7,0.8,0.9
	c0.3,0.2,0.7,0.3,1.1,0.3c0.4,0,0.8-0.1,1.2-0.3c0.4-0.2,0.7-0.5,0.9-0.8c0.2-0.4,0.3-0.8,0.3-1.2c0-0.6-0.2-1.2-0.7-1.7
	C103,47,102.4,46.8,101.8,46.8L101.8,46.8z"/>
<path class="st0" d="M107.3,46.2h0.7v1c0.3-0.4,0.6-0.7,1-0.9c0.4-0.2,0.8-0.3,1.2-0.3c0.4,0,0.8,0.1,1.2,0.3
	c0.3,0.2,0.6,0.5,0.8,0.9c0.2,0.6,0.3,1.2,0.2,1.8v3h-0.8v-2.8c0-0.5,0-0.9-0.1-1.3c-0.1-0.7-0.7-1.2-1.5-1.2
	c-0.4,0-0.9,0.2-1.2,0.5c-0.4,0.3-0.6,0.7-0.7,1.1c-0.1,0.5-0.1,1.1-0.1,1.6v2.1h-0.8L107.3,46.2z"/>
<path class="st0" d="M118.6,44.2h0.8v3l3.2-3h1.1l-3.8,3.5l4.1,4.4h-1l-3.5-3.7v3.7h-0.8L118.6,44.2z"/>
<path class="st0" d="M131.6,46.2v5.8h-0.8v-1c-0.3,0.4-0.6,0.7-1.1,0.9c-0.4,0.2-0.8,0.3-1.3,0.3c-0.8,0-1.6-0.3-2.1-0.9
	c-0.6-0.6-0.9-1.4-0.9-2.2c0-0.8,0.3-1.6,0.9-2.2c0.6-0.6,1.3-0.9,2.1-0.9c0.5,0,0.9,0.1,1.3,0.3c0.4,0.2,0.7,0.5,1,0.9v-1.1H131.6z
	 M128.6,46.8c-0.8,0-1.6,0.4-2,1.2c-0.2,0.4-0.3,0.8-0.3,1.2c0,0.4,0.1,0.8,0.3,1.2c0.2,0.4,0.5,0.7,0.8,0.9
	c0.3,0.2,0.7,0.3,1.1,0.3c0.4,0,0.8-0.1,1.2-0.3c0.4-0.2,0.7-0.5,0.9-0.8c0.2-0.4,0.3-0.8,0.3-1.2c0-0.6-0.2-1.2-0.7-1.7
	C129.8,47,129.2,46.8,128.6,46.8L128.6,46.8z"/>
<path class="st0" d="M136.8,46.1c0.9,0,1.7,0.4,2.2,1c0.5,0.6,0.8,1.3,0.8,2.1c0,0.8-0.3,1.6-0.9,2.1c-1.2,1.2-3.2,1.2-4.4,0
	c0,0,0,0,0,0c-1.1-1.2-1.1-3,0-4.2C135.1,46.4,135.9,46.1,136.8,46.1z M136.8,46.8c-0.6,0-1.2,0.2-1.6,0.7c-0.4,0.4-0.7,1-0.7,1.7
	c0,0.4,0.1,0.8,0.3,1.2c0.2,0.4,0.5,0.6,0.8,0.8c0.7,0.4,1.6,0.4,2.3,0c0.3-0.2,0.6-0.5,0.8-0.8c0.2-0.4,0.3-0.8,0.3-1.2
	c0-0.6-0.2-1.2-0.7-1.7C138,47.1,137.4,46.8,136.8,46.8z"/>
<path class="st0" d="M142,44h0.8v3.3c0.3-0.4,0.6-0.7,1-0.9c0.4-0.2,0.8-0.3,1.2-0.3c0.4,0,0.8,0.1,1.2,0.3c0.3,0.2,0.6,0.5,0.8,0.9
	c0.2,0.6,0.3,1.2,0.2,1.8v3h-0.8v-2.8c0-0.5,0-0.9-0.1-1.3c-0.1-0.7-0.7-1.2-1.5-1.2c-0.4,0-0.9,0.2-1.2,0.5
	c-0.4,0.3-0.6,0.7-0.7,1.1c-0.1,0.5-0.1,1.1-0.1,1.6v2.1H142V44z"/>
<path class="st0" d="M152.4,46.9l-0.5,0.5c-0.3-0.3-0.7-0.6-1.2-0.6c-0.2,0-0.5,0.1-0.6,0.2c-0.2,0.1-0.3,0.4-0.3,0.6
	c0,0.2,0.1,0.4,0.2,0.5c0.3,0.3,0.6,0.5,0.9,0.6c0.4,0.2,0.8,0.5,1.1,0.8c0.2,0.3,0.3,0.6,0.3,0.9c0,0.5-0.2,0.9-0.5,1.2
	c-0.3,0.3-0.8,0.5-1.3,0.5c-0.3,0-0.7-0.1-1-0.2c-0.3-0.1-0.6-0.3-0.8-0.6l0.5-0.5c0.3,0.4,0.7,0.6,1.2,0.7c0.3,0,0.6-0.1,0.8-0.3
	c0.2-0.2,0.3-0.4,0.3-0.7c0-0.2-0.1-0.4-0.2-0.6c-0.3-0.3-0.6-0.5-0.9-0.6c-0.4-0.2-0.8-0.5-1.1-0.8c-0.2-0.3-0.3-0.6-0.3-0.9
	c0-0.4,0.2-0.8,0.5-1.1c0.3-0.3,0.7-0.5,1.1-0.4C151.3,46.1,151.9,46.4,152.4,46.9z"/>
<path class="st0" d="M154.7,43.8c0.2,0,0.3,0.1,0.4,0.2c0.1,0.1,0.2,0.3,0.2,0.4c0,0.2-0.1,0.3-0.2,0.4c-0.1,0.1-0.3,0.2-0.4,0.2
	c-0.2,0-0.3-0.1-0.4-0.2c-0.2-0.2-0.3-0.6,0-0.8c0,0,0,0,0,0C154.4,43.9,154.5,43.8,154.7,43.8z M154.3,46.2h0.8v5.8h-0.8V46.2z"/>
<path class="st0" d="M157.3,46.2h0.7V49c0,0.5,0,0.9,0.1,1.4c0.1,0.3,0.3,0.6,0.6,0.8c0.7,0.4,1.5,0.4,2.1,0
	c0.3-0.2,0.5-0.5,0.6-0.8c0.1-0.5,0.1-1,0.1-1.4v-2.8h0.8v2.9c0,0.6-0.1,1.2-0.3,1.8c-0.2,0.4-0.5,0.8-0.8,1c-0.9,0.5-2,0.5-2.9,0
	c-0.4-0.2-0.7-0.6-0.9-1c-0.2-0.6-0.3-1.2-0.3-1.9L157.3,46.2z"/>
<path class="st0" d="M164.8,46.2h0.8v1c0.3-0.4,0.6-0.7,1-0.9c0.4-0.2,0.8-0.3,1.2-0.3c0.4,0,0.8,0.1,1.2,0.3
	c0.3,0.2,0.6,0.5,0.8,0.9c0.2,0.6,0.3,1.2,0.2,1.8v3h-0.8v-2.8c0-0.5,0-0.9-0.1-1.3c-0.1-0.7-0.7-1.2-1.5-1.2
	c-0.4,0-0.9,0.2-1.2,0.5c-0.4,0.3-0.6,0.7-0.7,1.1c-0.1,0.5-0.1,1.1-0.1,1.6v2.1h-0.8V46.2z"/>
<path class="st0" d="M177.3,46.2h0.8v4.7c0,0.6,0,1.2-0.2,1.8c-0.2,0.5-0.5,1-1,1.2c-0.5,0.3-1.1,0.4-1.8,0.4
	c-0.5,0-0.9-0.1-1.4-0.2c-0.4-0.1-0.7-0.3-1-0.6c-0.3-0.3-0.5-0.6-0.7-1h0.8c0.2,0.4,0.5,0.7,0.9,0.9c0.8,0.4,1.8,0.4,2.6,0
	c0.3-0.2,0.6-0.4,0.8-0.7c0.2-0.4,0.3-0.9,0.2-1.4V51c-0.3,0.3-0.6,0.6-1,0.8c-0.9,0.4-2,0.4-2.8-0.1c-0.5-0.2-0.8-0.6-1.1-1.1
	c-0.3-0.5-0.4-1-0.4-1.5c0-0.5,0.1-1.1,0.4-1.5c0.3-0.5,0.7-0.9,1.1-1.1c0.5-0.3,1-0.4,1.5-0.4c0.4,0,0.8,0.1,1.2,0.3
	c0.4,0.2,0.8,0.5,1.1,0.9L177.3,46.2z M175.1,46.8c-0.4,0-0.8,0.1-1.2,0.3c-0.4,0.2-0.7,0.5-0.9,0.9c-0.2,0.4-0.3,0.8-0.3,1.2
	c0,0.6,0.2,1.2,0.6,1.6c1,0.8,2.4,0.8,3.3,0c0.4-0.4,0.7-1,0.6-1.6c0-0.4-0.1-0.8-0.3-1.2c-0.2-0.3-0.5-0.6-0.8-0.8
	C175.9,46.9,175.5,46.8,175.1,46.8z"/>
<path class="st0" d="M184.4,52.1v-7.9h1.6c0.9,0,1.7,0.1,2.6,0.3c0.7,0.2,1.4,0.7,1.8,1.4c0.4,0.7,0.7,1.5,0.6,2.4
	c0,0.7-0.2,1.4-0.5,2.1c-0.3,0.6-0.8,1-1.3,1.3c-0.7,0.3-1.5,0.5-2.3,0.4H184.4z M185.1,51.3h0.9c0.8,0,1.5,0,2.3-0.2
	c0.6-0.2,1.1-0.5,1.4-1c0.4-0.5,0.5-1.2,0.5-1.8c0-0.7-0.2-1.4-0.6-2c-0.4-0.5-0.9-0.9-1.5-1.1c-0.8-0.2-1.6-0.3-2.4-0.2h-0.6
	L185.1,51.3z"/>
<path class="st0" d="M193.4,43.8c0.2,0,0.3,0.1,0.4,0.2c0.1,0.1,0.2,0.3,0.2,0.4c0,0.2-0.1,0.3-0.2,0.4c-0.1,0.1-0.3,0.2-0.4,0.2
	c-0.2,0-0.3-0.1-0.4-0.2c-0.1-0.1-0.2-0.3-0.2-0.4c0-0.2,0.1-0.3,0.2-0.4C193.1,43.9,193.3,43.8,193.4,43.8z M193,46.2h0.8v5.8H193
	V46.2z"/>
<path class="st0" d="M199.1,46.9l-0.5,0.5c-0.3-0.3-0.7-0.6-1.2-0.6c-0.2,0-0.5,0.1-0.6,0.2c-0.2,0.1-0.3,0.4-0.3,0.6
	c0,0.2,0.1,0.4,0.2,0.5c0.3,0.3,0.6,0.5,0.9,0.6c0.4,0.2,0.8,0.5,1.1,0.8c0.2,0.3,0.3,0.6,0.3,0.9c0,0.5-0.2,0.9-0.5,1.2
	c-0.3,0.3-0.8,0.5-1.3,0.5c-0.3,0-0.7-0.1-1-0.2c-0.3-0.1-0.6-0.3-0.8-0.6l0.5-0.5c0.3,0.4,0.7,0.6,1.2,0.7c0.3,0,0.6-0.1,0.8-0.3
	c0.2-0.2,0.3-0.4,0.3-0.7c0-0.2-0.1-0.4-0.2-0.6c-0.3-0.3-0.6-0.5-0.9-0.6c-0.4-0.2-0.8-0.5-1.1-0.8c-0.4-0.6-0.4-1.5,0.2-2
	c0.3-0.3,0.7-0.5,1.1-0.4C198,46.1,198.6,46.4,199.1,46.9z"/>
<path class="st0" d="M201.8,44.1h0.8v2.2h1.2v0.7h-1.2v5.2h-0.8v-5.2h-1v-0.7h1V44.1z"/>
<path class="st0" d="M205.3,46.2h0.8v0.8c0.2-0.3,0.4-0.5,0.7-0.8c0.2-0.2,0.5-0.3,0.8-0.2c0.2,0,0.5,0.1,0.7,0.2l-0.4,0.6
	c-0.1-0.1-0.3-0.1-0.4-0.1c-0.3,0-0.5,0.1-0.7,0.3c-0.3,0.3-0.5,0.6-0.5,1c-0.1,0.7-0.2,1.3-0.1,2v2h-0.8L205.3,46.2z"/>
<path class="st0" d="M209.9,43.8c0.2,0,0.3,0.1,0.4,0.2c0.1,0.1,0.2,0.3,0.2,0.4c0,0.2-0.1,0.3-0.2,0.4c-0.1,0.1-0.3,0.2-0.4,0.2
	c-0.2,0-0.3-0.1-0.4-0.2c-0.1-0.1-0.2-0.3-0.2-0.4c0-0.2,0.1-0.3,0.2-0.4C209.6,43.9,209.8,43.8,209.9,43.8z M209.5,46.2h0.8v5.8
	h-0.8V46.2z"/>
<path class="st0" d="M218.3,47.4l-0.6,0.4c-0.9-1.2-2.6-1.4-3.7-0.4c0,0-0.1,0.1-0.1,0.1c-0.5,0.4-0.7,1-0.7,1.7
	c0,0.4,0.1,0.8,0.3,1.2c0.2,0.4,0.5,0.7,0.9,0.9c0.4,0.2,0.8,0.3,1.3,0.3c0.8,0,1.6-0.3,2.1-1l0.6,0.4c-0.3,0.4-0.7,0.8-1.1,1
	c-0.5,0.2-1.1,0.4-1.6,0.3c-0.9,0-1.7-0.3-2.3-0.9c-0.6-0.5-0.9-1.3-0.9-2.1c0-1.1,0.6-2.2,1.6-2.7c0.5-0.3,1.1-0.4,1.7-0.4
	c0.4,0,0.8,0.1,1.1,0.2c0.3,0.1,0.6,0.3,0.9,0.5C217.9,47,218.1,47.2,218.3,47.4z"/>
<path class="st0" d="M221.1,44.1h0.8v2.2h1.2v0.7h-1.2v5.2h-0.8v-5.2h-1v-0.7h1V44.1z"/>
<path class="st0" d="M236.2,45.6l-0.6,0.5c-0.3-0.4-0.8-0.8-1.2-1c-0.5-0.2-1-0.4-1.6-0.3c-0.6,0-1.2,0.2-1.8,0.5
	c-0.5,0.3-1,0.7-1.2,1.2c-0.3,0.5-0.5,1.1-0.4,1.7c0,0.9,0.3,1.8,1,2.4c0.7,0.7,1.6,1,2.5,1c1.1,0,2.1-0.5,2.8-1.3l0.6,0.5
	c-0.4,0.5-0.9,0.9-1.5,1.2c-0.6,0.3-1.3,0.4-2,0.4c-2.2,0.1-4.2-1.6-4.3-3.8c0-0.1,0-0.2,0-0.4c0-1.1,0.4-2.2,1.2-2.9
	c0.8-0.8,1.9-1.2,3.1-1.2c0.7,0,1.4,0.1,2,0.4C235.3,44.7,235.8,45.1,236.2,45.6z"/>
<path class="st0" d="M241.2,46.1c0.9,0,1.7,0.4,2.2,1c1.1,1.2,1.1,3.1-0.1,4.2c-1.2,1.2-3.2,1.2-4.4,0c0,0,0,0,0,0
	c-1.1-1.2-1.1-3,0-4.2C239.6,46.4,240.4,46.1,241.2,46.1z M241.2,46.8c-0.6,0-1.2,0.2-1.6,0.7c-0.4,0.4-0.7,1-0.7,1.7
	c0,0.4,0.1,0.8,0.3,1.2c0.2,0.4,0.5,0.6,0.8,0.8c0.3,0.2,0.7,0.3,1.1,0.3c0.4,0,0.8-0.1,1.1-0.3c0.3-0.2,0.6-0.5,0.8-0.8
	c0.2-0.4,0.3-0.8,0.3-1.2c0-0.6-0.2-1.2-0.7-1.7C242.4,47.1,241.8,46.8,241.2,46.8z"/>
<path class="st0" d="M246.3,46.2h0.7V49c0,0.5,0,0.9,0.1,1.4c0.1,0.3,0.3,0.6,0.6,0.8c0.3,0.2,0.7,0.3,1.1,0.3
	c0.4,0,0.7-0.1,1.1-0.3c0.3-0.2,0.5-0.5,0.6-0.8c0.1-0.5,0.1-1,0.1-1.4v-2.8h0.8v2.9c0,0.6-0.1,1.2-0.3,1.8c-0.2,0.4-0.5,0.8-0.9,1
	c-0.4,0.2-0.9,0.4-1.4,0.3c-0.5,0-1-0.1-1.4-0.3c-0.4-0.2-0.7-0.6-0.9-1c-0.2-0.6-0.3-1.2-0.3-1.9L246.3,46.2z"/>
<path class="st0" d="M253.5,46.2h0.8v0.8c0.2-0.3,0.4-0.5,0.7-0.8c0.2-0.2,0.5-0.2,0.8-0.2c0.2,0,0.5,0.1,0.7,0.2l-0.4,0.6
	c-0.1-0.1-0.3-0.1-0.4-0.1c-0.3,0-0.5,0.1-0.7,0.3c-0.3,0.3-0.5,0.6-0.5,1c-0.1,0.7-0.2,1.3-0.1,2v2h-0.8L253.5,46.2z"/>
<path class="st0" d="M258.5,44.1h0.8v2.2h1.2v0.7h-1.2v5.2h-0.8v-5.2h-1v-0.7h1V44.1z"/>
<circle class="st0" cx="32.7" cy="31.4" r="30.3"/>
<linearGradient id="SVGID_1_" gradientUnits="userSpaceOnUse" x1="32.645" y1="5.22" x2="32.645" y2="28.47" gradientTransform="matrix(1 0 0 -1 0 66)">
	<stop  offset="0.69" style="stop-color:#B7A246"/>
	<stop  offset="1" style="stop-color:#FFFFFF"/>
</linearGradient>
<path class="st1" d="M61.5,37.8c-3.1,13.4-15.1,22.9-28.8,23c-14,0-25.9-10.2-28.9-23.2h7.4c2.8,9,11.5,16.1,21.5,16.1
	c9.8-0.1,18.4-6.5,21.4-15.8H61.5z"/>
<path class="st2" d="M53.6,31.3c0,11.6-9.4,21-21,21s-21-9.4-21-21s9.4-21,21-21S53.6,19.7,53.6,31.3L53.6,31.3z"/>
<path class="st0" d="M34.3,33.8H31V42c0,0.9,0.8,1.7,1.7,1.7c0.9,0,1.6-0.7,1.6-1.6c0,0,0,0,0,0V33.8z"/>
<path class="st0" d="M35.6,44h-5.8c-0.4,0-0.7,0.3-0.8,0.6c0,0,0,0,0,0v0.8c0,0.4,0.4,0.7,0.7,0.7c0,0,0,0,0,0h5.8
	c0.4,0,0.7-0.2,0.7-0.6c0,0,0,0,0,0v-0.8C36.3,44.3,35.9,44,35.6,44C35.6,44,35.6,44,35.6,44z"/>
<path class="st0" d="M36.7,46.9h-8c-0.6,0-1,0.3-1,0.7v0.8c0,0.4,0.4,0.7,1,0.7h8c0.5,0,1-0.3,1-0.7v-0.8
	C37.7,47.2,37.2,46.9,36.7,46.9z"/>
<path class="st0" d="M48.9,23.3c0-0.3-0.2-0.5-0.4-0.6c-0.4-0.3-1-0.2-1.4,0.1C44.7,25,41,25,38.5,22.8c-3.2-2.7-7.9-2.8-11.2-0.2h0
	l-0.2,0.2l0,0c-1.2,1.1-2.8,1.7-4.4,1.7c-1.6,0-3.2-0.6-4.4-1.7c-0.2-0.2-0.4-0.3-0.7-0.3c-0.2,0-0.5,0-0.7,0.2
	c-0.2,0.1-0.4,0.4-0.4,0.6v0.1c0,0.2,0.1,0.4,0.3,0.6c1.6,1.5,3.7,2.3,5.9,2.3c2,0,3.9-0.6,5.5-1.9l0,0l0,0l0.1-0.1
	c2.5-2.2,6.2-2.2,8.7-0.1c1.6,1.4,3.6,2.1,5.7,2.1c2.2,0,4.3-0.8,5.9-2.3c0.2-0.2,0.3-0.4,0.3-0.6V23.3z M48.9,23.3L48.9,23.3
	L48.9,23.3z"/>
<path class="st0" d="M36.1,17c0,1.9-1.6,3.4-3.5,3.4c-1.9,0-3.4-1.6-3.4-3.5c0-1.9,1.5-3.4,3.4-3.4C34.6,13.5,36.1,15.1,36.1,17z"/>
<path class="st0" d="M27.6,38.4l-5.3-12C22.2,26.2,22,26,21.7,26c-0.2,0-0.4,0.1-0.5,0.4l0,0l-5.3,12c-0.1,0.2-0.1,0.4,0,0.6
	c1.2,2,3.4,3.2,5.8,3.2c2.4,0.1,4.6-1.1,5.8-3.1C27.7,38.8,27.7,38.6,27.6,38.4z M21.7,28.1c0.3,0.7,4.3,9.8,4.6,10.4h-9.2l3.1-7
	L21.7,28.1z"/>
<path class="st0" d="M49.5,38.4l-5.3-12c-0.1-0.2-0.3-0.4-0.5-0.4c-0.2,0-0.4,0.1-0.5,0.4l0,0l-5.3,12c-0.1,0.2-0.1,0.4,0,0.6
	c1.2,2,3.4,3.2,5.8,3.2c2.4,0.1,4.6-1.1,5.8-3.1C49.6,38.8,49.6,38.6,49.5,38.4z M43.7,28.1l4.6,10.4h-9.2c0.2-0.4,2-4.5,2-4.5
	S43.4,28.8,43.7,28.1z"/>
<path class="st0" d="M38.3,25.4c-0.5,0-0.8,0.3-0.9,0.8c0,0.1,0,0.1,0,0.2h-1.2v-0.5h-7v0.5H28c0.1-0.4-0.3-0.9-0.7-0.9
	c-0.1,0-0.1,0-0.2,0c0,0-0.8,0-0.8,1v4.4c0,1.1,0.8,1,0.8,1c0.5,0,0.9-0.3,0.9-0.8c0,0,0-0.1,0-0.1h1.1v0.5H31V33h3.3v-1.5h1.9v-0.5
	h1.2c-0.1,0.5,0.3,0.9,0.7,0.9c0,0,0.1,0,0.1,0c0,0,0.8,0,0.8-1v-4.4C39,25.4,38.3,25.4,38.3,25.4z"/>
<path class="st0" d="M12.8,51.4l-3.4-4.2L9.5,47l1.6,2l0.3-0.2l-1.4-1.7l0.2-0.2l1.4,1.7l0.3-0.2c-0.2-0.2-0.6-0.7-1.2-1.5l0.2-0.2
	c0.3,0.3,0.6,0.5,1,0.6l-0.5-0.7l0.2-0.2l2.4,3l-0.2,0.2l-0.3-0.3c0,0.3-0.1,0.6-0.1,0.9L13,50.1c0-0.1,0.1-0.2,0.1-0.3l-1-1.1
	l-0.3,0.2l1.4,1.7L13,50.7L11.6,49l-0.3,0.2l1.6,2L12.8,51.4z M14.1,50.1l-0.2-0.2l0.4-0.4L11.5,46l-0.4,0.3l-0.2-0.2l0.6-0.5l3.3,4
	L14.1,50.1z M13.1,49.4c0-0.1,0-0.2,0-0.3h0.2l-1.2-1.5c-0.3,0-0.5-0.1-0.8-0.3C11.7,47.8,12.2,48.5,13.1,49.4z M14.6,49l-2.5-3.1
	l0.6-0.5l2.5,3.1L14.6,49z M14.6,48.6l0.2-0.2l-2.1-2.6L12.5,46L14.6,48.6z M16.4,48.5l-1.6-2l-0.2,0.2l1.4,1.7l-0.2,0.2l-3.1-3.8
	l0.2-0.2l1.4,1.8l0.2-0.2l-1.6-2l0.2-0.2l1.6,2l0.2-0.2l0.2,0.3L15,46.3l1.6,2L16.4,48.5z"/>
<path class="st0" d="M15.9,51.7c-0.6,0.4-1.2,0.7-1.8,1L14,52.4c0.6-0.3,1.2-0.6,1.8-1L15.9,51.7z M18.7,54.9l-0.4,0.4
	c-0.1,0.1-0.2,0.1-0.3,0.1c-0.1,0-0.3,0-0.4-0.1l-1.1-0.9l0.1-0.3l1.2,0.9c0.1,0.1,0.2,0.1,0.3,0l0.2-0.2l-2.9-2.2l0.8-0.5l2.5,1.8
	l0.2-0.3l-2.7-2.1l0.2-0.2l3,2.2l-0.5,0.7l-2.5-1.9l-0.3,0.2L18.7,54.9z M16.6,50.7l-0.3,0.1c0-0.4-0.1-0.7-0.3-1.1l0.3-0.1
	C16.4,50,16.5,50.4,16.6,50.7z M17,51c-0.2,0.1-0.4,0.3-0.6,0.4l-0.1-0.2c0.2-0.1,0.4-0.2,0.6-0.4L17,51z M17,51.8l-0.2-0.1
	c0.1-0.2,0.2-0.4,0.3-0.6l0.2,0.1C17.2,51.4,17.1,51.6,17,51.8L17,51.8z M18,51.4l-0.2-0.1c0,0,0-0.1,0-0.2
	c-0.3-0.1-0.6-0.3-0.9-0.5v-0.2c0.3,0,0.7-0.1,1-0.2L17.4,50l0-0.2c0.4-0.1,0.8-0.2,1.2-0.3l0.1,0.3c-0.3,0.1-0.6,0.2-0.9,0.3
	c0.1,0.1,0.3,0.2,0.4,0.2l0.3-0.1l0.1,0.2c-0.4,0.2-0.9,0.3-1.3,0.3l0.5,0.2c0-0.1,0-0.1,0-0.2l0.2,0.1C18.1,51,18.1,51.2,18,51.4
	L18,51.4z M17.6,49.6l-0.3,0c0-0.4-0.1-0.7-0.3-1.1l0.3,0C17.4,48.9,17.5,49.3,17.6,49.6L17.6,49.6z M17.5,52l-0.2-0.1
	c0.1-0.2,0.2-0.4,0.2-0.5l0.2,0.1C17.6,51.6,17.5,51.8,17.5,52z M18.5,52.9l-0.9-0.7l0.5-0.7l0.9,0.7L18.5,52.9z M18.4,52.5l0.2-0.3
	l-0.5-0.3L18,52.2L18.4,52.5z M19.1,51.9l-0.9-0.7l0.1-0.2l0.9,0.7L19.1,51.9z M19.2,52.7c-0.2,0.2-0.3,0.3-0.5,0.5L18.5,53
	c0.2-0.1,0.4-0.3,0.5-0.5L19.2,52.7z M19.4,51.5l-0.9-0.7l0.1-0.2l0.9,0.7L19.4,51.5z M19.9,51.3l-1.1-0.8l0.1-0.2l0.5,0.4
	c0-0.1,0.1-0.2,0.1-0.4l0.3,0.1c0,0.2,0,0.3-0.1,0.5l0.4,0.3L19.9,51.3z M19.3,53.6l-0.2-0.1c0.1-0.2,0.2-0.4,0.3-0.6l0.2,0.1
	C19.5,53.2,19.4,53.4,19.3,53.6L19.3,53.6z M20.3,53.2L20,53.1l0.1-0.2c-0.4-0.2-0.7-0.4-1-0.5l0.1-0.2c0.3,0,0.7-0.1,1-0.1
	l-0.5-0.3l0.1-0.2c0.4-0.1,0.8-0.2,1.2-0.3l0.2,0.3c-0.3,0.1-0.7,0.2-1,0.2c0.1,0.1,0.3,0.2,0.5,0.3l0.3-0.1l0.1,0.3
	c-0.4,0.1-0.9,0.2-1.3,0.3c0.1,0.1,0.3,0.2,0.5,0.2c0-0.1,0-0.1,0-0.2l0.3,0.1C20.3,52.8,20.3,53,20.3,53.2L20.3,53.2z M19.9,53.9
	l-0.2-0.1c0.1-0.2,0.1-0.4,0.2-0.6l0.2,0.1C20,53.5,19.9,53.7,19.9,53.9L19.9,53.9z"/>
<path class="st0" d="M24.7,58.1c0,0.1-0.1,0.2-0.2,0.3c-0.2,0-0.4,0-0.6-0.1l-0.3-0.1v-0.3l0.5,0.2c0.2,0.1,0.3,0,0.4-0.1l0.6-1.5
	l-3.9-1.5l-0.8,2l-0.3-0.1l0.9-2.3l4.5,1.8L24.7,58.1z M23.7,57.6l-2.4-1l0.4-1.1l2.4,1L23.7,57.6z M26.4,54.6l-5-2l0.1-0.3l2.4,0.9
	c0-0.2,0-0.3,0-0.5h0.3c0,0.2,0,0.4,0,0.6l2.3,0.9L26.4,54.6z M25,55.6l-3.3-1.3l0.4-1.1l3.3,1.3L25,55.6z M23.5,57.2l0.2-0.5
	L22,55.9l-0.2,0.5L23.5,57.2z M24.8,55.2l0.2-0.5l-2.7-1.1l-0.2,0.5L24.8,55.2z"/>
<path class="st0" d="M29.5,55.3l-1.2-0.1c-0.3,1-0.8,1.8-1.5,2.6l-0.2-0.2c0.6-0.7,1.1-1.5,1.4-2.4L27,55v-0.3l1,0.1
	c0.1-0.3,0.2-0.6,0.2-0.9l0.3,0.1c0,0.3-0.1,0.6-0.2,0.8l1.1,0.1L29.5,55.3z M29.1,59.1l-0.3,0.1c0-0.2,0-0.3-0.1-0.5
	c-0.6,0.1-1.2,0.2-1.8,0.2l-0.1-0.3c0.7-0.7,1.3-1.6,1.6-2.6l0.3,0.1c-0.4,0.8-0.8,1.6-1.3,2.3c0.4,0,0.8-0.1,1.3-0.1
	c-0.1-0.3-0.1-0.6-0.2-0.8l0.3-0.1C28.9,58,29,58.5,29.1,59.1z M32,59.4l-2.4-0.3v0.3h-0.3l0.4-3.5c-0.1,0.2-0.3,0.4-0.6,0.6
	L29,56.2c0.6-0.6,1.1-1.2,1.4-2l0.3,0.1c-0.2,0.3-0.3,0.7-0.5,1l1.1,0.1c0-0.3-0.1-0.6-0.1-0.9l0.3-0.1c0.1,0.3,0.2,0.7,0.2,1
	l0.8,0.1v0.3l-1-0.1l-0.1,0.8l0.9,0.1V57l-0.9-0.1l-0.1,0.9l0.8,0.1v0.3l-0.9-0.1L31,59l1,0.1L32,59.4z M30.7,58.9l0.1-0.9l-1-0.1
	l-0.1,0.9L30.7,58.9z M30.8,57.7l0.1-0.9l-1-0.1l-0.1,0.9L30.8,57.7z M31,56.5l0.1-0.8l-1-0.1L30,56.4L31,56.5z"/>
<path class="st0" d="M35.3,58.2c-0.5,0.4-1.1,0.7-1.7,1L33.4,59c0.3-0.1,0.5-0.2,0.8-0.4l-0.3-2.3l-0.7,0.1V56l0.7-0.1l-0.2-1.4h0.3
	l0.2,1.4l0.7-0.1v0.3l-0.7,0.1l0.3,2.2l0.7-0.4L35.3,58.2z M38.9,57.9c0,0.3,0,0.6-0.1,0.8c-0.1,0.1-0.2,0.2-0.3,0.3
	c-0.1,0-0.4,0.1-1,0.2l-1.4,0.2c-0.1,0-0.2,0-0.3-0.1c-0.1-0.1-0.1-0.2-0.1-0.3l-0.3-2.4l-0.5,0.2l-0.1-0.3l0.6-0.3l-0.2-1.2h0.3
	l0.1,1.1l1-0.4l-0.2-1.5h0.3l0.2,1.4l1.3-0.6c0.1,0.8,0.1,1.7,0,2.5H38c0.1-0.7,0.1-1.3,0.1-2l-1,0.5l0.2,2.1h-0.3l-0.3-2.2l-1,0.5
	l0.3,2.6c0,0,0,0,0,0.1c0,0,0.1,0,0.1,0c0.1,0,0.3,0,0.4,0l0.7-0.1c0.4,0,0.8-0.1,1.2-0.2c0.1,0,0.2-0.3,0.1-0.8L38.9,57.9z"/>
<path class="st0" d="M44.2,52.9L41,54.2c0.1,0.3,0.2,0.6,0.4,1l2.5-1c0.2,0.5,0.4,1,0.5,1.5c0.1,0.3,0.2,0.7,0.2,1
	c0,0.1-0.1,0.3-0.2,0.4c-0.2,0.2-0.5,0.3-0.7,0.4l-0.4,0.2l-0.2-0.3c0.2-0.1,0.4-0.1,0.6-0.2c0.2-0.1,0.3-0.1,0.5-0.2
	c0-0.1,0.1-0.1,0.1-0.2c0-0.3-0.1-0.5-0.2-0.8c-0.1-0.4-0.2-0.8-0.4-1.2l-2.2,0.9c0.3,1.1,0,2.2-0.7,3.1l-0.3-0.1
	c0.3-0.3,0.5-0.7,0.7-1.2c0.2-0.4,0.2-0.9,0.2-1.3c-0.1-0.6-0.3-1.1-0.5-1.7L39.1,55L39,54.6l2.5-1c-0.3-0.2-0.6-0.4-0.9-0.6
	l0.2-0.3c0.4,0.2,0.7,0.4,1,0.7l2.3-0.9L44.2,52.9z"/>
<path class="st0" d="M45.6,51.3l-0.1,0.3c-0.4,0-0.9,0-1.3,0v-0.3C44.7,51.2,45.2,51.2,45.6,51.3z M46.4,52.5v0.3
	c-0.4-0.1-0.9-0.1-1.3,0v-0.3C45.5,52.5,46,52.5,46.4,52.5z M50,50.3l-1.6,1.2c0.1,0.8,0.2,1.7,0.1,2.5c0.6-0.6,1.2-1.2,1.8-1.9
	c-0.4-0.1-0.7-0.3-1.1-0.3l0.1-0.3c0.7,0.2,1.4,0.4,2.1,0.7l-0.1,0.3c-0.2-0.1-0.5-0.2-0.7-0.3c-0.7,0.8-1.4,1.6-2.2,2.3l-0.3-0.2
	c0.1-0.3,0.2-0.7,0.2-1c0-0.5-0.1-1.1-0.2-1.6l-1.2,1l-0.2-0.2l1.5-1.1l-0.7-0.9l-1.2,0.9L46,51.1l1.2-0.9l-0.6-0.7l0.3-0.2l0.6,0.7
	l1.2-0.9l0.2,0.2l-1.2,0.9l0.7,0.9l1.4-1.1L50,50.3z M47,53.3c0.2,0.8,0.3,1.5,0.3,2.3H47c0-0.8-0.1-1.5-0.3-2.3L47,53.3z"/>
<path class="st0" d="M50.8,48.1c0.5,0,1,0.1,1.4,0.5c0.1,0.1,0.2,0.2,0.2,0.4c0,0.2-0.1,0.3-0.3,0.6l-0.2,0.2l-0.3-0.1l0.2-0.3
	c0.1-0.1,0.2-0.2,0.2-0.3c0-0.1,0-0.2-0.1-0.2c-0.4-0.3-0.9-0.4-1.4-0.4c-0.2-0.4-0.5-0.8-0.8-1.3l-0.6,0.7l3.7,3l-0.2,0.2l-4-3.2
	l1-1.2l0.2,0.2C50.3,47.2,50.6,47.7,50.8,48.1z M53.4,44.9l-0.2,0.3l-0.7-0.6l-1.7,2.1l0.7,0.6l-0.2,0.3l-0.9-0.8l0.9-1.2
	c-0.2-0.1-0.4-0.1-0.6-0.2l0.2-0.3c0.2,0.1,0.4,0.1,0.6,0.2l1-1.2L53.4,44.9z M53.1,45.4l-1.4,1.7l-0.2-0.2l1.4-1.7L53.1,45.4z
	 M55.2,46.2c0.2,0.1,0.4,0.3,0.5,0.5c0.1,0.1,0.1,0.3,0.1,0.4c-0.1,0.2-0.2,0.4-0.3,0.5c-0.2,0.3-0.4,0.3-0.6,0.2l-1.4-1.2L53,47.2
	c0.4,0.3,0.7,0.8,0.9,1.3c0.1,0.5,0.1,0.9-0.1,1.3h-0.3c0.2-0.4,0.2-0.9,0.1-1.3c-0.1-0.4-0.4-0.8-0.8-1.1l-0.6,0.7L52,48l2.1-2.6
	l0.2,0.2l-0.7,0.8l1.4,1.1c0,0,0.1,0,0.1,0c0,0,0.1-0.1,0.2-0.2c0.1-0.1,0.1-0.2,0.2-0.2c0,0,0-0.1,0-0.1c0-0.1-0.1-0.2-0.2-0.2
	c-0.1-0.1-0.3-0.2-0.4-0.3L55.2,46.2z"/>
<path class="st3" d="M9.1,34l0.1,0.5l-3.6,0.4l0.1,0.7l-0.6,0.1l-0.2-2l0.6-0.1l0.1,0.7L9.1,34z"/>
<path class="st3" d="M8.1,32.4L9,32.6v0.6L4.6,32v-0.5L9,30.2v0.6l-0.9,0.3L8.1,32.4z M5.7,31.8l1.8,0.5v-1L5.7,31.8z"/>
<path class="st3" d="M9.1,29.2L9,29.8l-4.2-0.4v-0.6L9.1,29.2z"/>
<path class="st3" d="M8.2,27.4l-3-1.4l0.1-0.3l3.3-0.1l-2.9-1.3l0.1-0.6l4,2l-0.1,0.4l-3,0.1l2.7,1.2l-0.1,0.4l-4.4,0.2L5,27.5
	L8.2,27.4z"/>
<path class="st3" d="M9.4,23.3l0.8,0.6L10,24.5l-3.6-2.8l0.2-0.5l4.5,0.4l-0.2,0.6l-1-0.1L9.4,23.3z M7.4,21.9L8.9,23l0.4-0.9
	L7.4,21.9z"/>
<path class="st3" d="M7.4,19.2l0.2-0.4l3.7-0.1l-2.7-1.5l0.3-0.5l3.8,2.1l-0.2,0.4l-3.7,0.1l2.7,1.5l-0.3,0.5L7.4,19.2z"/>
<path class="st3" d="M12.1,12.6l0.5-0.5l0.6,2.2l2.6,0.5l-0.5,0.6l-2.4-0.5l1.6,1.4l-0.4,0.4l-3.2-2.8l0.4-0.4l1.5,1.3L12.1,12.6z"
	/>
<path class="st3" d="M15.8,13.5l0.4,0.9l-0.4,0.4l-1.9-4.1l0.4-0.3l3.8,2.4l-0.5,0.4l-0.8-0.5L15.8,13.5z M14.7,11.3l0.8,1.7
	l0.7-0.7L14.7,11.3z"/>
<path class="st3" d="M17.1,10.9c-0.3-0.5-0.5-1-0.5-1.6c0-0.8,0.5-1.4,1.3-1.4c0.2,0,0.5,0,0.7,0.1c0.5,0.2,0.9,0.6,1.2,1
	c0.3,0.5,0.5,1,0.5,1.6c0,0.5-0.2,0.9-0.6,1.2c-0.4,0.3-0.9,0.3-1.4,0.1C17.8,11.7,17.4,11.3,17.1,10.9z M17.5,10.5
	c0.2,0.3,0.5,0.6,0.9,0.7c0.4,0.2,0.9,0.1,1.2-0.3c0.1-0.2,0.1-0.3,0.1-0.5c0-0.4-0.1-0.8-0.4-1.1c-0.2-0.3-0.5-0.6-0.8-0.7
	c-0.3-0.1-0.6-0.1-0.9,0.1c-0.3,0.2-0.4,0.5-0.4,0.8C17.2,9.8,17.3,10.2,17.5,10.5z"/>
<path class="st3" d="M22.1,7.5l-0.7-1.6l0.5-0.2l1.8,3.8l-0.5,0.2L22.3,8l-1.2,0.6l0.8,1.8l-0.5,0.2l-1.8-3.8l0.5-0.2l0.7,1.6
	L22.1,7.5z"/>
<path class="st3" d="M24.7,5.6c-0.2-0.2-0.4-0.3-0.6-0.2c-0.1,0-0.2,0.1-0.3,0.3c-0.1,0.1-0.1,0.3,0,0.5c0,0.2,0.3,0.3,0.7,0.4
	l0.6,0.2c0.3,0.1,0.5,0.4,0.6,0.7c0.1,0.3,0.2,0.7,0.1,1.1c-0.1,0.3-0.3,0.6-0.6,0.6c-0.5,0.1-1-0.1-1.2-0.5l0.2-0.5
	c0.1,0.1,0.2,0.3,0.4,0.3c0.1,0.1,0.3,0.1,0.4,0.1c0.1,0,0.3-0.2,0.3-0.3c0.1-0.2,0.1-0.4,0-0.5c0-0.1-0.1-0.2-0.2-0.3
	c-0.3-0.1-0.5-0.2-0.8-0.2c-0.4-0.1-0.8-0.3-0.9-0.7c-0.1-0.3-0.1-0.7,0-1c0.1-0.3,0.3-0.5,0.5-0.6c0.3-0.1,0.7-0.1,1,0.2L24.7,5.6z
	"/>
<path class="st3" d="M27.1,8.4l-0.5,0.1l-1-4.1l0.5-0.1L27.1,8.4z"/>
<path class="st3" d="M27,4.1L27.6,4l0.4,2.3c0.1,0.9,0.4,1.3,0.9,1.2s0.6-0.6,0.5-1.5l-0.4-2.3l0.6-0.1l0.4,2.5
	c0.2,1.2-0.1,1.9-0.9,2s-1.3-0.4-1.5-1.6L27,4.1z"/>
<path class="st3" d="M30.6,3.5H31l2,3.2l-0.1-3.1h0.6l0.1,4.3h-0.4l-2-3.2l0.1,3.1h-0.6L30.6,3.5z"/>
<path class="st3" d="M37.4,5.9v0.1c0,0.6-0.3,1.1-0.6,1.6c-0.3,0.4-0.7,0.6-1.2,0.5c-0.5-0.1-0.9-0.4-1-0.8
	c-0.2-0.5-0.3-1.1-0.2-1.6c0.1-0.6,0.3-1.1,0.7-1.5c0.3-0.4,0.8-0.6,1.2-0.5c0.6,0.1,1.1,0.6,1.2,1.2l-0.5,0.3
	c-0.1-0.5-0.3-0.8-0.7-0.8c-0.3,0-0.6,0.1-0.8,0.4C35.1,5,35,5.4,34.9,5.8c-0.1,0.4,0,0.8,0.1,1.2c0.1,0.3,0.4,0.5,0.7,0.6
	c0.3,0,0.5-0.1,0.7-0.3c0.2-0.2,0.3-0.5,0.3-0.8L36,6.3l0-0.6L37.4,5.9z"/>
<path class="st3" d="M40.9,4.8l0.9,0.3c0.5,0.2,0.8,0.5,0.9,1c0.1,0.5,0.1,1.1-0.1,1.6c-0.2,0.5-0.5,1-0.9,1.3
	c-0.4,0.3-0.9,0.3-1.3,0.2l-0.9-0.3L40.9,4.8z M40.2,8.4l0.2,0.1c0.8,0.3,1.3-0.1,1.6-1s0.1-1.5-0.6-1.8l-0.2-0.1L40.2,8.4z"/>
<path class="st3" d="M42.7,10.1l-0.5-0.2L44,6l0.5,0.2L42.7,10.1z"/>
<path class="st3" d="M46.4,8.1c0-0.2-0.1-0.5-0.3-0.6c-0.1-0.1-0.3-0.1-0.4,0c-0.1,0.1-0.3,0.2-0.3,0.3c-0.1,0.2,0,0.4,0.1,0.8
	s0.3,0.6,0.3,0.6c0.1,0.3,0.1,0.6-0.1,0.9c-0.2,0.3-0.4,0.6-0.8,0.8c-0.3,0.1-0.6,0.1-0.9,0c-0.4-0.3-0.6-0.8-0.5-1.2l0.5-0.2
	c0,0.2,0,0.3,0,0.5c0,0.2,0.1,0.3,0.2,0.4c0.1,0.1,0.3,0.1,0.4,0c0.2-0.1,0.3-0.2,0.4-0.4c0.1-0.1,0.1-0.2,0.1-0.4
	C45.1,9.3,45,9,44.8,8.8c-0.2-0.3-0.3-0.8-0.1-1.1c0.2-0.3,0.4-0.5,0.7-0.7c0.2-0.1,0.5-0.1,0.8,0c0.3,0.2,0.5,0.5,0.6,0.9L46.4,8.1
	z"/>
<path class="st3" d="M46.2,12.1l-0.4-0.3l2.1-3l-0.6-0.4l0.3-0.5L49.2,9l-0.3,0.5l-0.6-0.4L46.2,12.1z"/>
<path class="st3" d="M48.8,14.1l-0.5-0.4l0.5-2.1l-1.2,1.4l-0.4-0.4l2.7-3.2l0.7,0.6c0.6,0.5,0.6,1,0,1.7c-0.2,0.2-0.4,0.4-0.7,0.5
	c-0.2,0.1-0.5,0.1-0.7-0.1L48.8,14.1z M48.9,11.4l0.1,0.1c0.3,0.2,0.7,0.2,0.9,0c0,0,0.1-0.1,0.1-0.1c0.3-0.2,0.3-0.6,0-0.9
	c0,0-0.1-0.1-0.1-0.1l-0.1-0.1L48.9,11.4z"/>
<path class="st3" d="M49.5,14.8L49,14.4l3-3l0.4,0.4L49.5,14.8z"/>
<path class="st3" d="M53.8,14.8c0.1-0.3,0.1-0.6-0.1-0.8c-0.2-0.2-0.5-0.3-0.9-0.3c-0.4,0.1-0.7,0.2-1,0.5c-0.3,0.2-0.5,0.6-0.6,0.9
	c-0.2,0.4,0,0.9,0.4,1.1c0.2,0.1,0.4,0.1,0.6,0l-0.7,0.6c-0.3-0.1-0.5-0.2-0.7-0.4c-0.3-0.4-0.4-0.9-0.3-1.3c0.1-0.5,0.4-1,0.9-1.4
	c0.4-0.4,1-0.6,1.5-0.7c0.5-0.1,1,0.1,1.3,0.5c0.2,0.2,0.3,0.5,0.3,0.7L53.8,14.8z"/>
<path class="st3" d="M52.2,18.2l-0.3-0.4l3-2.1l-0.4-0.6l0.5-0.4l1.1,1.6l-0.5,0.4l-0.4-0.6L52.2,18.2z"/>
<path class="st3" d="M57.6,21.5c0.2-0.2,0.2-0.6,0.1-0.9c-0.1-0.3-0.4-0.5-0.8-0.5c-0.4-0.1-0.8,0-1.1,0.2c-0.4,0.1-0.7,0.4-0.9,0.7
	c-0.2,0.3-0.2,0.6-0.1,0.9c0.1,0.3,0.4,0.5,0.7,0.5l-0.8,0.4c-0.2-0.1-0.4-0.3-0.5-0.6c-0.2-0.4-0.1-0.9,0.1-1.3
	c0.3-0.5,0.7-0.9,1.2-1.1c0.5-0.2,1.1-0.3,1.7-0.2c0.5,0.1,0.9,0.4,1.1,0.8c0.1,0.2,0.1,0.5,0.1,0.8L57.6,21.5z"/>
<path class="st3" d="M56.9,22.5c0.5-0.2,1.1-0.2,1.7,0c0.7,0.2,1.2,1,1,1.7c-0.1,0.2-0.2,0.4-0.3,0.6c-0.4,0.4-0.8,0.8-1.4,0.9
	c-0.5,0.2-1.1,0.2-1.7,0c-0.5-0.1-0.9-0.5-1-1c-0.1-0.5,0-1,0.3-1.3C55.8,23,56.3,22.7,56.9,22.5z M57.1,23.1
	c-0.4,0.1-0.7,0.3-1,0.6c-0.2,0.2-0.3,0.6-0.2,0.9c0.1,0.3,0.3,0.5,0.7,0.6c0.4,0.1,0.8,0.1,1.2,0c0.4-0.1,0.7-0.3,0.9-0.6
	c0.2-0.2,0.3-0.6,0.2-0.9c-0.1-0.3-0.3-0.5-0.6-0.6C57.8,23,57.4,23,57.1,23.1z"/>
<path class="st3" d="M60.1,26.1l0.1,0.6L57.8,27c-0.9,0.1-1.3,0.4-1.3,0.9c0.1,0.4,0.5,0.6,1.5,0.5l2.4-0.3l0.1,0.5l-2.5,0.4
	c-1.2,0.2-1.9-0.2-2-1c-0.1-0.8,0.4-1.3,1.6-1.5L60.1,26.1z"/>
<path class="st3" d="M56.3,32v-0.7l1.9-1l-1.9,0v-0.6l4.2-0.1v0.9c0,0.7-0.4,1.1-1.2,1.1c-0.3,0-0.6,0-0.8-0.2
	c-0.2-0.1-0.3-0.3-0.4-0.5L56.3,32z M58.5,30.3v0.2c0,0.5,0.3,0.7,0.8,0.7s0.7-0.2,0.7-0.7v-0.2L58.5,30.3z"/>
<path class="st3" d="M56.2,33.3v-0.5l3.6,0.2l0-0.7h0.6l-0.1,2h-0.6v-0.7L56.2,33.3z"/>
</svg>
