<?xml version="1.0" encoding="utf-8"?>
<!-- Generator: Adobe Illustrator 27.8.1, SVG Export Plug-In . SVG Version: 6.00 Build 0)  -->
<svg version="1.1" id="圖層_1" xmlns="http://www.w3.org/2000/svg" xmlns:xlink="http://www.w3.org/1999/xlink" x="0px" y="0px"
	 viewBox="0 0 270.8 64" style="enable-background:new 0 0 270.8 64;" xml:space="preserve">
<style type="text/css">
	.st0{fill:#FFFFFF;}
	.st1{fill:url(#SVGID_1_);}
	.st2{fill:#005BAB;}
	.st3{fill:#B7A246;}
</style>
<path class="st0" d="M86.2,15.2v1.5h-7.1v1h5.7V19h-13v-1.3h5.6v-1h-7v-1.5h7v-1.4h1.7v1.4H86.2z M79.1,33.8h7.1v1.6H70.5v-1.6h6.9
	v-1h-5.2v-1.4h5.2v-1c-3.3,0.1-3.8,0.2-4.2,0.3c-0.1-0.5-0.2-1-0.4-1.5c0.3-0.1,0.7-0.2,1-0.3c0.5-0.3,1-0.6,1.5-1h-2.8v-1.3H84V28
	h-1.7c0.8,0.6,1.6,1.4,2.3,2.1l-1,1.1c-0.3-0.4-0.6-0.7-0.9-1l-3.6,0.1v1h5.5v1.4h-5.5V33.8z M70.7,24.3h15.2v3.5h-1.6v-2H72.2v2
	h-1.5V24.3z M84.2,19.9v3.5H72.5v-3.5H84.2z M82.5,21.1h-8.4v1.1h8.4L82.5,21.1z M77.2,28c-0.5,0.4-1.1,0.8-1.6,1.2l5.7-0.2
	c-0.4-0.3-0.8-0.6-1.2-0.9l0.1-0.1L77.2,28z"/>
<path class="st0" d="M90.6,24.5c-0.7-1-1.6-1.8-2.6-2.5l0.9-1.5c1,0.6,1.9,1.4,2.7,2.3L90.6,24.5z M88.4,34.5
	c0.7-1.8,1.6-4.9,2.2-7.6L92,28c-0.6,2.5-1.4,5.3-2.1,7.6L88.4,34.5z M90.9,18.3c-0.7-1-1.6-1.9-2.5-2.7l1-1.5
	c1,0.7,1.9,1.5,2.6,2.4L90.9,18.3z M93,22.9c-0.1,1.1-0.4,2.2-0.8,3.2c-0.2-0.3-0.5-0.5-0.8-0.7c0.3-0.9,0.6-1.9,0.7-2.8L93,22.9z
	 M95.3,21.9c0-0.2-0.1-0.5-0.2-0.7c-2.4,0.4-2.8,0.5-3.1,0.7c-0.1-0.3-0.2-0.7-0.4-1c0.3,0,0.5-0.4,0.8-0.8c0.4-0.5,0.7-1.1,1-1.7
	c-0.5,0-1.1,0.1-1.6,0.3c-0.1-0.3-0.2-0.7-0.4-1c0.2,0,0.4-0.3,0.6-0.6c0.5-1,0.8-2,1.1-3l1,0.5c-0.3,0.9-0.7,1.9-1.2,2.7l1-0.1
	c0.2-0.4,0.3-0.7,0.5-1.1l1,0.5c-0.6,1.3-1.3,2.5-2.1,3.7l1.3-0.2c-0.1-0.2-0.2-0.5-0.3-0.7l0.8-0.4c0.4,0.8,0.6,1.6,0.8,2.4
	L95.3,21.9z M104,31c0,0.3-0.1,0.6-0.1,0.8c-0.3,2-0.7,3-1.1,3.5c-0.4,0.4-1,0.6-1.5,0.5c-0.5,0-1.7,0-2.8-0.1
	c0-0.6-0.2-1.2-0.5-1.7c0.9,0.1,1.8,0.2,2.7,0.2c0.4,0,0.6,0,0.8-0.2c0.4-0.5,0.6-1.1,0.7-1.7h-9.4c0.3-1.1,0.6-2.5,0.8-3.8h7.9v-1
	H93v-1.4h10.1V30h-8.2l-0.2,1H104z M93.7,25.7c0-1-0.2-1.9-0.4-2.9l0.8-0.3c0.2,0.9,0.4,1.8,0.4,2.8L93.7,25.7z M95.3,25.1
	c-0.1-0.9-0.3-1.8-0.6-2.6l0.7-0.3c0.3,0.8,0.5,1.6,0.6,2.5L95.3,25.1z M100.2,17.5h-4.3v-1.2h1.8c-0.2-0.6-0.4-1.2-0.6-1.8l1.1-0.3
	c0.3,0.6,0.5,1.3,0.7,1.9l-0.8,0.3h2.1L100.2,17.5z M96.4,22h3.4v3.5h-3.4V22z M99.8,19.4h-3.4v-1.2h3.4V19.4z M96.4,20h3.4v1.1
	h-3.4V20z M97.4,24.3h1.3V23h-1.3L97.4,24.3z M101.4,22.7c-0.1,1.1-0.4,2.2-0.7,3.3c-0.2-0.3-0.5-0.5-0.8-0.7
	c0.3-0.9,0.6-1.8,0.7-2.8L101.4,22.7z M103.8,21.9c0-0.2-0.1-0.5-0.2-0.8c-1.1,0.1-2.1,0.3-3.1,0.7c0-0.2-0.2-0.8-0.3-1
	c0.2,0,0.5-0.3,0.8-0.8c0.4-0.5,0.7-1.1,1-1.7c-0.5,0-1.1,0.1-1.6,0.3c-0.1-0.3-0.2-0.7-0.3-1c0.2,0,0.4-0.3,0.6-0.6
	c0.5-1,0.8-2,1.1-3l1,0.4c-0.3,0.9-0.7,1.8-1.2,2.7l1-0.1c0.2-0.4,0.3-0.7,0.4-1.1l1,0.5c-0.6,1.3-1.2,2.5-2,3.7l1.3-0.2l-0.3-0.7
	l0.7-0.4c0.4,0.8,0.7,1.7,0.9,2.5L103.8,21.9z M102.1,25.9c0-1-0.2-2.1-0.4-3.1l0.8-0.3c0.2,1,0.4,2,0.4,3L102.1,25.9z M103.8,22.1
	c0.3,1,0.6,2,0.7,3l-0.8,0.5c-0.1-1-0.4-2.1-0.7-3.1L103.8,22.1z"/>
<path class="st0" d="M122.4,16.3v1.9h-15.8v-1.9h7.2c-0.2-0.6-0.3-1.4-0.5-2l1.7-0.5c0.2,0.8,0.5,1.7,0.7,2.5L122.4,16.3z
	 M121.9,33.7c0,1.1-0.2,1.5-0.8,1.8c-0.8,0.3-1.7,0.4-2.6,0.3c-0.1-0.6-0.3-1.2-0.6-1.7c0.6,0,1.2,0,1.9,0c0.2,0,0.3-0.1,0.3-0.4
	v-6.4h-11.4v8.7h-1.6V25.4h14.7L121.9,33.7z M120.1,19.3v4.9h-10.9v-4.9L120.1,19.3z M112.2,33.5v1.1h-1.6v-6.2h7.7v5.1H112.2z
	 M118.3,20.9h-7.4v1.8h7.4V20.9z M112.2,30v1.9h4.6V30H112.2z"/>
<path class="st0" d="M128.4,19.8c-0.3,3.9-1.3,7.8-2.9,11.4c-0.4-0.5-0.9-0.9-1.4-1.3c1.4-2.5,2.2-6,2.7-10.2h-2v-2.1h2.3
	c0.1-1.2,0.2-2.6,0.3-3.8l1.6,0.2c-0.1,1.2-0.2,2.5-0.3,3.7h3.6v2.1L128.4,19.8z M131.2,26.9c0.6,2.5,1.1,4.9,1.5,7.4l-1.4,0.7
	c-0.1-0.5-0.1-1.1-0.2-1.7c-3.6,0.9-4.2,1.1-4.5,1.3c-0.1-0.6-0.3-1.3-0.5-1.9c0.3-0.1,0.6-0.8,1-1.9c0.9-2.8,1.6-5.6,2-8.5l1.6,0.5
	c-0.6,3.2-1.5,6.3-2.6,9.3l2.7-0.6c-0.2-1.4-0.6-2.8-0.8-4.1L131.2,26.9z M140.8,34.7h-6.2v1.2h-1.5v-14c-0.3,0.8-0.7,1.5-1.1,2.2
	c-0.3-0.6-0.6-1.2-1-1.8c1.5-2.6,2.6-5.4,3.1-8.4l1.4,0.5c-0.3,1.3-0.7,2.6-1.1,3.9h6.1v2h-2.2v2.9h2.2v1.9h-2.2v2.8h2.2v1.9h-2.2
	v2.9h2.4L140.8,34.7z M134.6,20.3v2.9h2.2v-2.9L134.6,20.3z M136.9,25.1h-2.2v2.8h2.2V25.1z M134.6,32.7h2.2v-2.9h-2.2V32.7z
	 M137.5,14.2c0.5,1.1,0.9,2.2,1.2,3.4l-1.5,0.7c-0.3-1.2-0.7-2.4-1.1-3.5L137.5,14.2z"/>
<path class="st0" d="M156.8,27.1c-2.5,5.3-7.3,7.8-13.7,8.8c-0.2-0.7-0.4-1.5-0.8-2.1c6.1-0.8,10.7-2.8,13-7.6L156.8,27.1z
	 M147.4,18.1c-0.8,2.8-1.9,5.5-3.3,8.1c-0.5-0.4-0.9-0.8-1.5-1.1c1.4-2.4,2.4-4.9,3.1-7.6L147.4,18.1z M151.4,13.9v14.7h-1.7V13.9
	L151.4,13.9z M155.6,17.5c1.3,2.4,2.4,4.9,3.4,7.4l-1.4,1.1c-0.9-2.6-2-5.2-3.3-7.7L155.6,17.5z"/>
<path class="st0" d="M177.1,30.6h-6.4v5.3H169v-5.3h-8.2v-2.2h2.9v-6.3h5.3v-3.3h-4.1c-0.7,1.6-1.6,3.1-2.6,4.6
	c-0.5-0.5-0.9-1-1.5-1.4c1.9-2.4,3.2-5.2,3.9-8.1l1.7,0.6c-0.2,0.8-0.5,1.5-0.7,2.3h10.5v2.2h-5.5v3.3h5.1v2.1h-5.1v4.2h6.4
	L177.1,30.6z M169,28.4v-4.2h-3.6v4.2H169z"/>
<path class="st0" d="M194.5,22.3c-0.5,3.2-1.8,6.3-3.8,8.9c1.3,1.2,2.9,2.1,4.7,2.6c-0.5,0.7-0.9,1.4-1.2,2.1
	c-1.9-0.7-3.5-1.8-4.9-3.2c-1.6,1.5-3.5,2.7-5.6,3.4c-0.2-0.7-0.6-1.4-1-2.1c1.9-0.6,3.7-1.6,5.2-3c-1.5-2.2-2.6-4.7-3.3-7.3h-0.5
	c-0.3,4.2-1.8,8.3-4.4,11.7c-0.3-0.7-0.7-1.3-1.2-1.9c3.7-4.5,4-10.4,4-14.5v-2h-3v-2.2h11.2c-0.4,2.2-0.8,4.8-1.1,6.8h3.3l0.3-0.1
	L194.5,22.3z M184.4,19.1c0,0.8,0,1.7-0.1,2.6h3.5c0.3-1.4,0.6-3,0.9-4.6h-4.3V19.1z M186.3,23.8c0.6,2.1,1.6,4.1,3,5.9
	c1.4-1.7,2.4-3.7,2.9-5.9H186.3z"/>
<path class="st0" d="M211.6,23.9c-0.8,0.8-1.7,1.7-2.6,2.5c0.8,3,2.4,5.6,4.5,6.7c-0.5,0.5-0.8,1.2-1.1,1.8c-2.2-1.4-3.8-4-4.8-7.4
	l-0.7,0.6c0.6,3,0.1,5.8-0.8,6.8c-0.4,0.7-1.2,1.1-2,1c-0.5,0-1,0-1.5,0c0-0.7-0.2-1.4-0.4-2.1c0.6,0.1,1.2,0.1,1.6,0.1
	c0.4,0.1,0.9-0.2,1.1-0.5c0.6-1,0.8-2.2,0.6-3.4c-2.2,2-4.8,3.7-7.5,4.8c-0.2-0.7-0.5-1.3-0.9-1.8c3.1-1,5.9-2.8,8.1-5.1
	c-0.1-0.5-0.2-0.9-0.4-1.3c-2,1.6-4.2,3-6.6,4c-0.2-0.6-0.5-1.2-0.9-1.8c2.5-0.8,4.8-2.1,6.8-3.8c-0.2-0.4-0.5-0.8-0.7-1.1
	c-1.6,1.1-3.3,2-5.1,2.7c-0.2-0.6-0.5-1.2-0.9-1.8c2.2-0.6,4.3-1.7,6.1-3.1H200v-1.9h10.3v1.9H206c-0.4,0.4-0.8,0.8-1.2,1.2
	c0.8,1,1.4,2.1,1.7,3.3c1.3-1.2,2.6-2.5,3.7-3.8L211.6,23.9z M199.2,21h-1.6v-5.1h6.6c-0.2-0.5-0.3-1.1-0.6-1.6l1.8-0.7
	c0.3,0.7,0.6,1.5,0.9,2.2h6.5V21h-1.7v-3.1h-11.9V21z"/>
<path class="st0" d="M231.5,29.2h-1.9v4.2h-1.7v-1H224v1.2c0,1.2-0.2,1.7-0.9,2c-1,0.3-2,0.4-3.1,0.3c-0.1-0.6-0.3-1.2-0.6-1.8
	c1,0,2.1,0,2.4,0s0.4-0.1,0.4-0.5v-1.2h-5.7v-1.7h5.7v-1.5H215v-1.8h7.2V26h-5.5v-1.6h5.5V23h-5v-4.4h5v-1.2h-6.9v-1.8h6.9v-1.8h1.7
	v1.8h7.1v1.8H224v1.2h5.3V23H224v1.4h5.6v3h1.9L231.5,29.2z M222.3,21.6v-1.4h-3.4v1.4L222.3,21.6z M224,20.1v1.4h3.6v-1.4L224,20.1
	z M224,27.4h3.9V26H224L224,27.4z M227.9,29.2H224v1.5h3.9L227.9,29.2z"/>
<path class="st0" d="M236.4,24.8c-1-1-2.1-1.9-3.3-2.6l0.9-1.7c1.2,0.6,2.4,1.5,3.4,2.4L236.4,24.8z M233.7,34.1
	c1.3-2.5,2.4-5,3.4-7.6l1.2,1.5c-0.9,2.5-2.1,5.4-3.2,7.6L233.7,34.1z M235.1,14.1c1.2,0.7,2.4,1.5,3.4,2.5l-1,1.9
	c-1-1-2.1-1.9-3.4-2.7L235.1,14.1z M247.9,35.8c-0.2-0.8-0.4-1.5-0.7-2.3c-6.4,1-7.2,1.2-7.8,1.6c-0.1-0.5-0.4-1.6-0.6-2.2
	c0.4-0.1,0.7-0.7,1.2-1.6c0.9-1.8,1.6-3.6,2.2-5.5h-3.7v-2.1h4.5v-3.9h-3.7v-2.1h3.7v-3.9h1.7v3.9h3.9v2.1h-3.9v3.9h4.6v2.1h-5
	c-0.8,2.3-1.8,4.5-2.9,6.6l5-0.7c-0.4-1-0.9-1.9-1.4-2.8l1.4-0.9c1.3,2.1,2.3,4.4,3.1,6.8L247.9,35.8z"/>
<path class="st0" d="M257.3,15.6c-0.5,2-1.1,4.3-1.7,6.2c1,1.5,1.5,3.3,1.5,5.1c0.1,1-0.1,2.1-0.8,2.9c-0.3,0.3-0.6,0.4-1,0.5
	c-0.4,0-0.8,0-1.2,0c0-0.7-0.2-1.3-0.4-1.9c0.3,0,0.6,0,0.9,0c0.2,0,0.4-0.1,0.5-0.2c0.3-0.5,0.4-1,0.4-1.6c0-1.6-0.5-3.2-1.5-4.6
	c0.5-1.6,0.9-3.6,1.3-5.2h-2v19h-1.5v-21h4l0.2-0.1L257.3,15.6z M266.1,33.7c0.4,0,0.4-0.4,0.5-3c0.4,0.4,0.9,0.7,1.4,0.8
	c-0.1,3.2-0.5,4-1.7,4h-1.5c-1.4,0-1.7-0.6-1.7-2.6v-5.6h-1.6c-0.3,4.2-1.2,7-4.6,8.6c-0.2-0.6-0.6-1.2-1-1.8c3-1.3,3.7-3.4,3.9-6.8
	h-2.4v-2h10.2v2h-3v5.6c0,0.7,0.1,0.7,0.4,0.7H266.1z M258.9,21.2h-1.4v-4.4h4.4c-0.2-0.8-0.5-1.7-0.9-2.5l1.6-0.6
	c0.4,1,0.8,2,1.1,3.1h4v4.4h-1.4V23h-7.3L258.9,21.2z M259,18.7V21h7v-2.3L259,18.7z"/>
<path class="st0" d="M69.8,45v-0.8h3.8V45h-1.6v7.1h-0.7V45H69.8z"/>
<path class="st0" d="M79.4,46.2v5.8h-0.7v-1c-0.2,0.4-0.6,0.6-0.9,0.9c-0.3,0.2-0.7,0.3-1.1,0.3c-0.7,0-1.4-0.3-1.9-0.9
	c-0.5-0.6-0.8-1.4-0.8-2.2c0-0.8,0.3-1.6,0.8-2.1c0.5-0.6,1.2-0.9,1.9-0.9c0.4,0,0.8,0.1,1.2,0.3c0.4,0.2,0.7,0.5,0.9,0.9v-1.1H79.4
	z M76.8,46.8c-0.4,0-0.7,0.1-1,0.3c-0.3,0.2-0.6,0.5-0.8,0.9c-0.2,0.4-0.3,0.8-0.3,1.2c0,0.4,0.1,0.8,0.3,1.2
	c0.2,0.4,0.4,0.7,0.8,0.9c0.3,0.2,0.6,0.3,1,0.3c0.4,0,0.7-0.1,1-0.3c0.3-0.2,0.6-0.5,0.8-0.8c0.2-0.4,0.3-0.8,0.3-1.2
	c0-0.6-0.2-1.2-0.6-1.7C77.8,47.1,77.3,46.8,76.8,46.8z"/>
<path class="st0" d="M80.9,43.8c0.2,0,0.3,0.1,0.4,0.2c0.1,0.1,0.2,0.3,0.2,0.4c0,0.2-0.1,0.3-0.2,0.4c-0.2,0.2-0.5,0.2-0.7,0.1
	c0,0,0,0-0.1-0.1c-0.1-0.1-0.2-0.3-0.2-0.4c0-0.2,0.1-0.3,0.2-0.4C80.6,43.9,80.7,43.8,80.9,43.8z M80.5,46.2h0.7v5.8h-0.7V46.2z"/>
<path class="st0" d="M81.6,46.2h0.7l1.6,4.2l1.7-4.2h0.1l1.7,4.2l1.7-4.2h0.7l-2.3,5.8h-0.1l-1.7-4.2L84,52.1h-0.1L81.6,46.2z"/>
<path class="st0" d="M95.3,46.2v5.8h-0.7v-1c-0.3,0.4-0.6,0.7-1,0.9c-0.3,0.2-0.7,0.3-1.1,0.3c-0.7,0-1.4-0.3-1.9-0.9
	c-0.5-0.6-0.8-1.4-0.8-2.2c0-0.8,0.3-1.6,0.8-2.1c0.5-0.6,1.2-0.9,1.9-0.9c0.4,0,0.8,0.1,1.2,0.3c0.4,0.2,0.7,0.5,0.9,0.9v-1.1H95.3
	z M92.7,46.8c-0.4,0-0.7,0.1-1,0.3c-0.3,0.2-0.6,0.5-0.8,0.9c-0.2,0.4-0.3,0.8-0.3,1.2c0,0.4,0.1,0.8,0.3,1.2
	c0.2,0.4,0.4,0.7,0.8,0.9c0.3,0.2,0.6,0.3,1,0.3c0.4,0,0.7-0.1,1-0.3c0.3-0.2,0.6-0.5,0.8-0.8c0.2-0.4,0.3-0.8,0.3-1.2
	c0-0.6-0.2-1.2-0.6-1.7C93.7,47.1,93.2,46.8,92.7,46.8z"/>
<path class="st0" d="M96.5,46.2h0.7v1c0.2-0.4,0.5-0.7,0.9-0.9c0.3-0.2,0.7-0.3,1.1-0.3c0.4,0,0.7,0.1,1,0.3
	c0.3,0.2,0.5,0.5,0.7,0.9c0.2,0.6,0.2,1.2,0.2,1.8v3h-0.7v-2.8c0-0.5,0-0.9-0.1-1.3c0-0.3-0.2-0.6-0.4-0.9c-0.2-0.2-0.6-0.3-0.9-0.3
	c-0.4,0-0.8,0.2-1.1,0.5c-0.3,0.3-0.5,0.7-0.6,1.1c-0.1,0.5-0.1,1.1-0.1,1.6v2.1h-0.7L96.5,46.2z"/>
<path class="st0" d="M104.7,44.2h0.7v3l2.8-3h0.9l-3.4,3.5l3.6,4.3h-0.9l-3.1-3.7v3.7h-0.7L104.7,44.2z"/>
<path class="st0" d="M115.3,46.2v5.8h-0.7v-1c-0.2,0.4-0.6,0.6-0.9,0.9c-0.3,0.2-0.7,0.3-1.1,0.3c-0.7,0-1.4-0.3-1.9-0.9
	c-0.5-0.6-0.8-1.4-0.8-2.2c0-0.8,0.3-1.6,0.8-2.2c0.5-0.6,1.2-0.9,1.9-0.9c0.4,0,0.8,0.1,1.2,0.3c0.4,0.2,0.7,0.5,0.9,0.9v-1.1
	H115.3z M112.6,46.8c-0.4,0-0.7,0.1-1,0.3c-0.3,0.2-0.6,0.5-0.8,0.9c-0.2,0.4-0.3,0.8-0.3,1.2c0,0.4,0.1,0.8,0.3,1.2
	c0.2,0.4,0.4,0.7,0.8,0.9c0.3,0.2,0.6,0.3,1,0.3c0.4,0,0.7-0.1,1-0.3c0.3-0.2,0.6-0.5,0.8-0.8c0.2-0.4,0.3-0.8,0.3-1.2
	c0-0.6-0.2-1.2-0.6-1.7C113.7,47.1,113.2,46.8,112.6,46.8z"/>
<path class="st0" d="M119,46.1c0.8,0,1.5,0.4,2,1c1,1.2,1,3,0,4.2c-0.9,1.1-2.5,1.2-3.6,0.3c-0.1-0.1-0.2-0.2-0.3-0.3
	c-1-1.2-1-3,0-4.2C117.5,46.5,118.2,46.1,119,46.1z M119,46.8c-0.6,0-1.1,0.3-1.4,0.7c-0.4,0.5-0.6,1.1-0.6,1.7
	c0,0.4,0.1,0.8,0.3,1.2c0.2,0.3,0.4,0.6,0.7,0.8c0.6,0.4,1.4,0.4,2,0c0.3-0.2,0.6-0.5,0.7-0.8c0.2-0.4,0.3-0.8,0.3-1.2
	c0-0.6-0.2-1.2-0.6-1.7C120,47.1,119.5,46.8,119,46.8z"/>
<path class="st0" d="M122.6,44h0.7v3.3c0.2-0.4,0.5-0.7,0.9-0.9c0.3-0.2,0.6-0.3,1-0.3c0.4,0,0.7,0.1,1,0.3c0.3,0.2,0.5,0.5,0.7,0.9
	c0.2,0.6,0.2,1.2,0.2,1.8v3h-0.7v-2.8c0-0.5,0-0.9-0.1-1.3c-0.1-0.3-0.2-0.6-0.4-0.9c-0.2-0.2-0.5-0.3-0.9-0.3
	c-0.4,0-0.8,0.2-1.1,0.5c-0.3,0.3-0.5,0.7-0.6,1.1c-0.1,0.5-0.1,1.1-0.1,1.6v2.1h-0.7L122.6,44z"/>
<path class="st0" d="M130.9,46.9l-0.4,0.5c-0.3-0.3-0.6-0.5-1.1-0.6c-0.2,0-0.4,0.1-0.6,0.2c-0.2,0.2-0.2,0.4-0.2,0.6
	c0,0.2,0.1,0.4,0.2,0.5c0.2,0.3,0.5,0.5,0.8,0.6c0.4,0.2,0.7,0.5,1,0.8c0.2,0.3,0.3,0.6,0.3,0.9c0,0.4-0.1,0.9-0.4,1.2
	c-0.3,0.3-0.7,0.5-1.1,0.5c-0.3,0-0.6-0.1-0.9-0.2c-0.3-0.1-0.5-0.3-0.7-0.6l0.4-0.5c0.2,0.4,0.6,0.6,1.1,0.7c0.3,0,0.5-0.1,0.7-0.3
	c0.2-0.2,0.3-0.4,0.3-0.7c0-0.2-0.1-0.4-0.2-0.6c-0.2-0.3-0.5-0.5-0.9-0.6c-0.4-0.2-0.7-0.5-0.9-0.8c-0.2-0.3-0.3-0.6-0.3-0.9
	c0-0.4,0.1-0.8,0.4-1.1c0.3-0.3,0.6-0.4,1-0.4C130,46.1,130.6,46.4,130.9,46.9z"/>
<path class="st0" d="M132.1,43.8c0.2,0,0.3,0.1,0.4,0.2c0.1,0.1,0.2,0.3,0.2,0.4c0,0.2-0.1,0.3-0.2,0.4c-0.2,0.2-0.5,0.2-0.7,0.1
	c0,0,0,0-0.1-0.1c-0.1-0.1-0.2-0.3-0.2-0.4c0-0.2,0.1-0.3,0.2-0.4C131.8,43.9,131.9,43.8,132.1,43.8z M131.7,46.2h0.7v5.8h-0.7V46.2
	z"/>
<path class="st0" d="M133.4,46.2h0.7V49c0,0.5,0,0.9,0.1,1.4c0.1,0.3,0.3,0.6,0.6,0.8c0.3,0.2,0.6,0.3,1,0.3c0.4,0,0.7-0.1,1-0.3
	c0.3-0.2,0.4-0.5,0.5-0.8c0.1-0.5,0.1-1,0.1-1.4v-2.8h0.7v2.9c0,0.6-0.1,1.2-0.2,1.8c-0.1,0.4-0.4,0.8-0.8,1
	c-0.4,0.2-0.8,0.4-1.3,0.3c-0.4,0-0.9-0.1-1.3-0.3c-0.3-0.2-0.6-0.6-0.8-1c-0.2-0.6-0.3-1.3-0.3-1.9V46.2z"/>
<path class="st0" d="M139.1,46.2h0.7v1c0.2-0.4,0.5-0.7,0.9-0.9c0.3-0.2,0.7-0.3,1.1-0.3c0.4,0,0.7,0.1,1,0.3
	c0.3,0.2,0.5,0.5,0.7,0.9c0.2,0.6,0.2,1.2,0.2,1.8v3H143v-2.8c0-0.5,0-0.9-0.1-1.3c0-0.3-0.2-0.6-0.4-0.9c-0.2-0.2-0.5-0.3-0.9-0.3
	c-0.4,0-0.8,0.2-1.1,0.5c-0.3,0.3-0.5,0.7-0.6,1.1c-0.1,0.5-0.1,1.1-0.1,1.6v2.1h-0.7L139.1,46.2z"/>
<path class="st0" d="M149.3,46.2h0.7v4.7c0,0.6,0,1.2-0.2,1.8c-0.2,0.5-0.5,0.9-0.9,1.2c-0.5,0.3-1,0.4-1.6,0.4
	c-0.4,0-0.8-0.1-1.2-0.2c-0.3-0.1-0.6-0.3-0.9-0.6c-0.3-0.3-0.5-0.6-0.6-1h0.7c0.2,0.4,0.4,0.7,0.8,0.9c0.4,0.2,0.8,0.3,1.2,0.3
	c0.4,0,0.8-0.1,1.2-0.3c0.3-0.2,0.5-0.4,0.7-0.7c0.2-0.4,0.2-0.9,0.2-1.4V51c-0.2,0.3-0.6,0.6-0.9,0.8c-0.4,0.2-0.8,0.3-1.2,0.3
	c-0.5,0-0.9-0.1-1.4-0.4c-0.4-0.3-0.8-0.6-1-1.1c-0.2-0.5-0.3-1-0.3-1.5c0-0.5,0.1-1,0.4-1.5c0.2-0.5,0.6-0.8,1-1.1
	c0.4-0.3,0.9-0.4,1.3-0.4c0.4,0,0.8,0.1,1.1,0.3c0.4,0.2,0.7,0.5,1,0.9L149.3,46.2z M147.3,46.8c-0.4,0-0.7,0.1-1.1,0.3
	c-0.3,0.2-0.6,0.5-0.8,0.9c-0.2,0.4-0.3,0.8-0.3,1.2c0,0.6,0.2,1.2,0.6,1.6c0.4,0.4,0.9,0.6,1.5,0.6c0.6,0,1.1-0.2,1.5-0.6
	c0.4-0.5,0.6-1,0.6-1.6c0-0.4-0.1-0.8-0.2-1.2c-0.2-0.3-0.4-0.6-0.7-0.8C148,46.9,147.7,46.8,147.3,46.8L147.3,46.8z"/>
<path class="st0" d="M155.9,44.2h0.7v5.3c0,0.6,0,1.2-0.2,1.7c-0.1,0.3-0.3,0.6-0.6,0.8c-0.3,0.2-0.6,0.3-1,0.3
	c-0.3,0-0.6-0.1-0.8-0.2c-0.3-0.2-0.7-0.4-0.9-0.7l0.4-0.6c0.3,0.2,0.6,0.4,0.9,0.6c0.1,0.1,0.3,0.1,0.5,0.1c0.2,0,0.4-0.1,0.6-0.2
	c0.2-0.1,0.3-0.3,0.3-0.5c0.1-0.4,0.1-0.9,0.1-1.3L155.9,44.2z"/>
<path class="st0" d="M157.9,46.2h0.7V49c0,0.5,0,0.9,0.1,1.4c0.1,0.3,0.3,0.6,0.6,0.8c0.3,0.2,0.6,0.3,1,0.3c0.4,0,0.7-0.1,1-0.3
	c0.3-0.2,0.4-0.5,0.5-0.8c0.1-0.5,0.1-1,0.1-1.4v-2.8h0.7v2.9c0,0.6-0.1,1.2-0.2,1.8c-0.1,0.4-0.4,0.8-0.8,1c-0.8,0.5-1.7,0.5-2.5,0
	c-0.4-0.2-0.6-0.6-0.8-1c-0.2-0.6-0.3-1.2-0.2-1.9L157.9,46.2z"/>
<path class="st0" d="M163.1,46.2h0.7l1.8,4.3l1.7-4.3h0.7l-2.4,5.8h-0.1L163.1,46.2z"/>
<path class="st0" d="M173.1,50.1l0.6,0.3c-0.1,0.4-0.4,0.7-0.6,1c-0.2,0.2-0.5,0.4-0.8,0.6c-0.3,0.1-0.7,0.2-1,0.2
	c-0.8,0-1.5-0.3-2-0.9c-0.5-0.6-0.7-1.4-0.7-2.1c0-0.7,0.2-1.4,0.6-2c0.4-0.7,1.2-1.1,2.1-1.1c0.9,0,1.7,0.4,2.1,1.1
	c0.4,0.6,0.6,1.3,0.6,2h-4.7c0,0.6,0.2,1.2,0.6,1.7c0.3,0.4,0.8,0.7,1.4,0.7c0.3,0,0.5-0.1,0.8-0.2c0.2-0.1,0.5-0.2,0.6-0.4
	C172.8,50.7,173,50.4,173.1,50.1z M173.1,48.6c-0.1-0.4-0.2-0.7-0.4-1c-0.2-0.2-0.4-0.4-0.7-0.6c-0.3-0.1-0.6-0.2-0.9-0.2
	c-0.5,0-1,0.2-1.3,0.5c-0.3,0.3-0.5,0.8-0.6,1.2L173.1,48.6z"/>
<path class="st0" d="M174.8,46.2h0.7v1c0.2-0.4,0.5-0.7,0.9-0.9c0.3-0.2,0.7-0.3,1.1-0.3c0.4,0,0.7,0.1,1,0.3
	c0.3,0.2,0.5,0.5,0.7,0.9c0.2,0.6,0.2,1.2,0.2,1.8v3h-0.7v-2.8c0-0.5,0-0.9-0.1-1.3c0-0.3-0.2-0.6-0.4-0.9c-0.2-0.2-0.5-0.3-0.9-0.3
	c-0.4,0-0.8,0.2-1.1,0.5c-0.3,0.3-0.5,0.7-0.6,1.1c-0.1,0.5-0.1,1.1-0.1,1.6v2.1h-0.7L174.8,46.2z"/>
<path class="st0" d="M180.7,43.8c0.2,0,0.3,0.1,0.4,0.2c0.1,0.1,0.2,0.3,0.2,0.4c0,0.2-0.1,0.3-0.2,0.4c-0.2,0.2-0.5,0.2-0.7,0.1
	c0,0,0,0-0.1-0.1c-0.1-0.1-0.2-0.3-0.2-0.4c0-0.2,0.1-0.3,0.2-0.4C180.4,43.9,180.6,43.8,180.7,43.8z M180.4,46.2h0.7v5.8h-0.7V46.2
	z"/>
<path class="st0" d="M182.1,44h0.7v8.1h-0.7V44z"/>
<path class="st0" d="M188.2,50.1l0.6,0.3c-0.2,0.4-0.4,0.7-0.6,1c-0.2,0.2-0.5,0.4-0.8,0.6c-0.3,0.1-0.7,0.2-1,0.2
	c-0.8,0-1.5-0.3-2-0.9c-0.5-0.6-0.7-1.4-0.7-2.1c0-0.7,0.2-1.4,0.6-2c0.5-0.7,1.2-1.1,2.1-1.1c0.9,0,1.7,0.4,2.1,1.1
	c0.4,0.6,0.6,1.3,0.6,2h-4.7c0,0.6,0.2,1.2,0.6,1.7c0.3,0.4,0.9,0.7,1.4,0.7c0.3,0,0.5-0.1,0.8-0.2c0.2-0.1,0.5-0.2,0.6-0.4
	C187.9,50.7,188.1,50.4,188.2,50.1z M188.2,48.6c-0.1-0.4-0.2-0.7-0.4-1c-0.2-0.2-0.4-0.4-0.7-0.6c-0.3-0.1-0.6-0.2-0.9-0.2
	c-0.5,0-1,0.2-1.3,0.5c-0.3,0.3-0.5,0.8-0.6,1.2L188.2,48.6z"/>
<path class="st0" d="M197.5,46.2v5.8h-0.7v-1c-0.3,0.4-0.6,0.7-1,0.9c-0.3,0.2-0.7,0.3-1.1,0.3c-0.7,0-1.4-0.3-1.9-0.9
	c-0.5-0.6-0.8-1.4-0.8-2.2c0-0.8,0.3-1.6,0.8-2.2c0.5-0.6,1.2-0.9,1.9-0.9c0.4,0,0.8,0.1,1.2,0.3c0.4,0.2,0.7,0.5,0.9,0.9v-1.1
	H197.5z M194.8,46.8c-0.4,0-0.7,0.1-1,0.3c-0.3,0.2-0.6,0.5-0.8,0.9c-0.2,0.4-0.3,0.8-0.3,1.2c0,0.4,0.1,0.8,0.3,1.2
	c0.2,0.4,0.4,0.7,0.8,0.9c0.3,0.2,0.6,0.3,1,0.3c0.4,0,0.7-0.1,1-0.3c0.3-0.2,0.6-0.5,0.8-0.8c0.2-0.4,0.3-0.8,0.3-1.2
	c0-0.6-0.2-1.2-0.6-1.7C195.9,47.1,195.4,46.8,194.8,46.8L194.8,46.8z"/>
<path class="st0" d="M198.7,46.2h0.7v1c0.2-0.4,0.5-0.7,0.9-0.9c0.3-0.2,0.7-0.3,1.1-0.3c0.4,0,0.7,0.1,1,0.3
	c0.3,0.2,0.5,0.5,0.7,0.9c0.2,0.6,0.2,1.2,0.2,1.8v3h-0.7v-2.8c0-0.5,0-0.9-0.1-1.3c0-0.3-0.2-0.6-0.4-0.9c-0.2-0.2-0.6-0.3-0.9-0.3
	c-0.4,0-0.8,0.2-1.1,0.5c-0.3,0.3-0.5,0.7-0.6,1.1c-0.1,0.5-0.1,1.1-0.1,1.6v2.1h-0.7L198.7,46.2z"/>
<path class="st0" d="M209.6,44v8.1h-0.7v-1c-0.2,0.4-0.6,0.6-0.9,0.9c-0.3,0.2-0.7,0.3-1.1,0.3c-0.7,0-1.4-0.3-1.9-0.9
	c-0.5-0.6-0.8-1.4-0.8-2.2c0-0.8,0.3-1.6,0.8-2.2c0.5-0.6,1.2-0.9,1.9-0.9c0.4,0,0.8,0.1,1.2,0.3c0.4,0.2,0.7,0.5,0.9,0.9V44H209.6z
	 M206.9,46.8c-0.4,0-0.7,0.1-1,0.3c-0.3,0.2-0.6,0.5-0.8,0.9c-0.2,0.4-0.3,0.8-0.3,1.2c0,0.4,0.1,0.8,0.3,1.2
	c0.2,0.4,0.4,0.7,0.8,0.9c0.3,0.2,0.6,0.3,1,0.3c0.4,0,0.7-0.1,1-0.3c0.3-0.2,0.6-0.5,0.8-0.8c0.2-0.4,0.3-0.8,0.3-1.2
	c0-0.6-0.2-1.2-0.6-1.7C208,47.1,207.5,46.8,206.9,46.8L206.9,46.8z"/>
<path class="st0" d="M213.3,44.2h3.5V45H214v2.5h2.8v0.8H214v3.9h-0.7L213.3,44.2z"/>
<path class="st0" d="M222.8,46.2v5.8h-0.7v-1c-0.2,0.4-0.6,0.6-0.9,0.9c-0.4,0.2-0.7,0.3-1.1,0.3c-0.7,0-1.4-0.3-1.9-0.9
	c-0.5-0.6-0.8-1.4-0.8-2.2c0-0.8,0.3-1.6,0.8-2.2c0.5-0.6,1.2-0.9,1.9-0.9c0.4,0,0.8,0.1,1.2,0.3c0.4,0.2,0.7,0.5,0.9,0.9v-1.1
	H222.8z M220.2,46.8c-0.4,0-0.7,0.1-1,0.3c-0.3,0.2-0.6,0.5-0.8,0.9c-0.2,0.4-0.3,0.8-0.3,1.2c0,0.4,0.1,0.8,0.3,1.2
	c0.2,0.4,0.4,0.7,0.8,0.9c0.3,0.2,0.6,0.3,1,0.3c0.4,0,0.7-0.1,1-0.3c0.3-0.2,0.6-0.5,0.8-0.8c0.2-0.4,0.3-0.8,0.3-1.2
	c0-0.6-0.2-1.2-0.6-1.7C221.3,47.1,220.7,46.8,220.2,46.8z"/>
<path class="st0" d="M224.1,46.2h0.7v1c0.2-0.3,0.4-0.6,0.7-0.8c0.3-0.2,0.7-0.3,1.1-0.3c0.5,0,1,0.2,1.3,0.6
	c0.2,0.2,0.3,0.5,0.4,0.8c0.2-0.4,0.5-0.7,0.8-1c0.3-0.2,0.7-0.4,1.1-0.4c0.3,0,0.7,0.1,0.9,0.3c0.3,0.2,0.5,0.5,0.6,0.8
	c0.2,0.5,0.2,1.1,0.2,1.6v3.2h-0.7v-3.2c0-0.4,0-0.9-0.1-1.3c-0.1-0.2-0.2-0.4-0.4-0.6c-0.2-0.1-0.4-0.2-0.7-0.2
	c-0.3,0-0.6,0.1-0.9,0.3c-0.3,0.2-0.5,0.5-0.6,0.9c-0.2,0.6-0.2,1.2-0.2,1.8v2.3h-0.7v-3c0-0.5,0-1-0.1-1.4
	c-0.1-0.2-0.2-0.4-0.4-0.6c-0.2-0.2-0.4-0.2-0.7-0.2c-0.3,0-0.6,0.1-0.9,0.3c-0.3,0.2-0.5,0.5-0.6,0.8c-0.2,0.5-0.2,1.1-0.2,1.6v2.5
	h-0.7L224.1,46.2z"/>
<path class="st0" d="M233.2,43.8c0.2,0,0.3,0.1,0.4,0.2c0.1,0.1,0.2,0.3,0.2,0.4c0,0.2-0.1,0.3-0.2,0.4c-0.1,0.1-0.2,0.2-0.4,0.2
	c-0.1,0-0.3-0.1-0.4-0.2c-0.1-0.1-0.2-0.3-0.2-0.4c0-0.2,0.1-0.3,0.2-0.4C232.9,43.9,233,43.8,233.2,43.8z M232.8,46.2h0.7v5.8h-0.7
	V46.2z"/>
<path class="st0" d="M234.5,44h0.7v8.1h-0.7V44z"/>
<path class="st0" d="M235.7,46.2h0.7l1.8,4.5l1.7-4.5h0.7l-3.1,8h-0.7l1-2.6L235.7,46.2z"/>
<path class="st0" d="M250.3,45.6l-0.6,0.5c-0.3-0.4-0.7-0.8-1.1-1c-0.4-0.2-0.9-0.4-1.4-0.3c-0.6,0-1.1,0.2-1.6,0.5
	c-0.5,0.3-0.9,0.7-1.1,1.2c-0.3,0.5-0.4,1.1-0.4,1.7c0,0.9,0.3,1.7,0.9,2.4c0.6,0.6,1.4,1,2.2,1c1,0,1.9-0.5,2.5-1.3l0.6,0.5
	c-0.3,0.5-0.8,0.9-1.3,1.1c-0.5,0.3-1.1,0.4-1.8,0.4c-1.1,0-2.2-0.5-2.9-1.4c-0.6-0.8-0.9-1.8-0.9-2.8c0-1.1,0.4-2.1,1.1-2.9
	c0.7-0.8,1.7-1.2,2.7-1.2c0.6,0,1.2,0.1,1.8,0.4C249.5,44.7,250,45.1,250.3,45.6z"/>
<path class="st0" d="M253.8,46.1c0.8,0,1.5,0.4,2,1c1,1.2,1,3,0,4.2c-0.9,1.1-2.5,1.2-3.6,0.3c-0.1-0.1-0.2-0.2-0.3-0.3
	c-1-1.2-1-3,0-4.2C252.3,46.5,253,46.1,253.8,46.1z M253.8,46.8c-0.6,0-1.1,0.3-1.4,0.7c-0.4,0.5-0.6,1.1-0.6,1.7
	c0,0.4,0.1,0.8,0.3,1.2c0.2,0.3,0.4,0.6,0.7,0.8c0.6,0.4,1.4,0.4,2,0c0.3-0.2,0.6-0.5,0.7-0.8c0.2-0.4,0.3-0.8,0.3-1.2
	c0-0.6-0.2-1.2-0.6-1.7C254.8,47.1,254.3,46.8,253.8,46.8z"/>
<path class="st0" d="M257.3,46.2h0.7V49c0,0.5,0,0.9,0.1,1.4c0.1,0.3,0.3,0.6,0.5,0.8c0.3,0.2,0.6,0.3,1,0.3c0.3,0,0.7-0.1,1-0.3
	c0.3-0.2,0.4-0.5,0.5-0.8c0.1-0.5,0.1-1,0.1-1.4v-2.8h0.7v2.9c0,0.6-0.1,1.2-0.2,1.8c-0.1,0.4-0.4,0.7-0.8,1c-0.8,0.5-1.8,0.5-2.5,0
	c-0.3-0.2-0.6-0.6-0.8-1c-0.2-0.6-0.3-1.2-0.2-1.9L257.3,46.2z"/>
<path class="st0" d="M262.8,46.2h0.7v0.8c0.2-0.3,0.4-0.5,0.6-0.8c0.4-0.3,0.9-0.3,1.3,0l-0.4,0.6c-0.1-0.1-0.2-0.1-0.4-0.1
	c-0.2,0-0.5,0.1-0.6,0.3c-0.2,0.3-0.4,0.6-0.5,1c-0.1,0.7-0.1,1.3-0.1,2v2h-0.7V46.2z"/>
<path class="st0" d="M266.3,44.1h0.7v2.2h1.1v0.7H267v5.2h-0.7v-5.2h-0.9v-0.7h0.9L266.3,44.1z"/>
<circle class="st0" cx="32.7" cy="31.4" r="30.3"/>
<linearGradient id="SVGID_1_" gradientUnits="userSpaceOnUse" x1="32.645" y1="5.22" x2="32.645" y2="28.47" gradientTransform="matrix(1 0 0 -1 0 66)">
	<stop  offset="0.69" style="stop-color:#B7A246"/>
	<stop  offset="1" style="stop-color:#FFFFFF"/>
</linearGradient>
<path class="st1" d="M61.5,37.8c-3.1,13.4-15.1,22.9-28.8,23c-14,0-25.9-10.2-28.9-23.2h7.4c2.8,9,11.5,16.1,21.5,16.1
	c9.8-0.1,18.4-6.5,21.4-15.8H61.5z"/>
<path class="st2" d="M53.6,31.3c0,11.6-9.4,21-21,21s-21-9.4-21-21s9.4-21,21-21S53.6,19.7,53.6,31.3L53.6,31.3z"/>
<path class="st0" d="M34.3,33.8H31V42c0,0.9,0.8,1.7,1.7,1.7c0.9,0,1.6-0.7,1.6-1.6c0,0,0,0,0,0V33.8z"/>
<path class="st0" d="M35.6,44h-5.8c-0.4,0-0.7,0.3-0.8,0.6c0,0,0,0,0,0v0.8c0,0.4,0.4,0.7,0.7,0.7c0,0,0,0,0,0h5.8
	c0.4,0,0.7-0.2,0.7-0.6c0,0,0,0,0,0v-0.8C36.3,44.3,35.9,44,35.6,44C35.6,44,35.6,44,35.6,44z"/>
<path class="st0" d="M36.7,46.9h-8c-0.6,0-1,0.3-1,0.7v0.8c0,0.4,0.4,0.7,1,0.7h8c0.5,0,1-0.3,1-0.7v-0.8
	C37.7,47.2,37.2,46.9,36.7,46.9z"/>
<path class="st0" d="M48.9,23.3c0-0.3-0.2-0.5-0.4-0.6c-0.4-0.3-1-0.2-1.4,0.1C44.7,25,41,25,38.5,22.8c-3.2-2.7-7.9-2.8-11.2-0.2h0
	l-0.2,0.2l0,0c-1.2,1.1-2.8,1.7-4.4,1.7c-1.6,0-3.2-0.6-4.4-1.7c-0.2-0.2-0.4-0.3-0.7-0.3c-0.2,0-0.5,0-0.7,0.2
	c-0.2,0.1-0.4,0.4-0.4,0.6v0.1c0,0.2,0.1,0.4,0.3,0.6c1.6,1.5,3.7,2.3,5.9,2.3c2,0,3.9-0.6,5.5-1.9l0,0l0,0l0.1-0.1
	c2.5-2.2,6.2-2.2,8.7-0.1c1.6,1.4,3.6,2.1,5.7,2.1c2.2,0,4.3-0.8,5.9-2.3c0.2-0.2,0.3-0.4,0.3-0.6V23.3z M48.9,23.3L48.9,23.3
	L48.9,23.3z"/>
<path class="st0" d="M36.1,17c0,1.9-1.6,3.4-3.5,3.4c-1.9,0-3.4-1.6-3.4-3.5c0-1.9,1.5-3.4,3.4-3.4C34.6,13.5,36.1,15.1,36.1,17z"/>
<path class="st0" d="M27.6,38.4l-5.3-12C22.2,26.2,22,26,21.7,26c-0.2,0-0.4,0.1-0.5,0.4l0,0l-5.3,12c-0.1,0.2-0.1,0.4,0,0.6
	c1.2,2,3.4,3.2,5.8,3.2c2.4,0.1,4.6-1.1,5.8-3.1C27.7,38.8,27.7,38.6,27.6,38.4z M21.7,28.1c0.3,0.7,4.3,9.8,4.6,10.4h-9.2l3.1-7
	L21.7,28.1z"/>
<path class="st0" d="M49.5,38.4l-5.3-12c-0.1-0.2-0.3-0.4-0.5-0.4c-0.2,0-0.4,0.1-0.5,0.4l0,0l-5.3,12c-0.1,0.2-0.1,0.4,0,0.6
	c1.2,2,3.4,3.2,5.8,3.2c2.4,0.1,4.6-1.1,5.8-3.1C49.6,38.8,49.6,38.6,49.5,38.4z M43.7,28.1l4.6,10.4h-9.2c0.2-0.4,2-4.5,2-4.5
	S43.4,28.8,43.7,28.1z"/>
<path class="st0" d="M38.3,25.4c-0.5,0-0.8,0.3-0.9,0.8c0,0.1,0,0.1,0,0.2h-1.2v-0.5h-7v0.5H28c0.1-0.4-0.3-0.9-0.7-0.9
	c-0.1,0-0.1,0-0.2,0c0,0-0.8,0-0.8,1v4.4c0,1.1,0.8,1,0.8,1c0.5,0,0.9-0.3,0.9-0.8c0,0,0-0.1,0-0.1h1.1v0.5H31V33h3.3v-1.5h1.9v-0.5
	h1.2c-0.1,0.5,0.3,0.9,0.7,0.9c0,0,0.1,0,0.1,0c0,0,0.8,0,0.8-1v-4.4C39,25.4,38.3,25.4,38.3,25.4z"/>
<path class="st0" d="M11.5,49.9l-2.4-3.2l0.2-0.2l1.1,1.5l0.3-0.2l-1-1.3l0.2-0.2l1,1.3l0.3-0.2l-0.8-1.1l0.2-0.2
	c0.2,0.2,0.5,0.4,0.8,0.4L11,46.1l0.2-0.1l1.7,2.2l-0.2,0.2l-0.2-0.2c-0.1,0.3-0.2,0.5-0.3,0.8H12c0-0.1,0.1-0.2,0.1-0.3
	c-0.3-0.4-0.6-0.7-0.7-0.8L11.1,48l0.9,1.2l-0.2,0.2l-0.9-1.3l-0.3,0.2l1.1,1.5L11.5,49.9z M13,48.8l-0.1-0.2l0.4-0.3l-2-2.7
	l-0.4,0.3l-0.1-0.2l0.6-0.5l2.3,3L13,48.8z M12.2,48.3c0-0.1,0.1-0.2,0.1-0.3h0.2l-0.8-1.1c-0.2,0-0.5-0.1-0.7-0.2
	C11.1,47.1,11.5,47.6,12.2,48.3L12.2,48.3z M13.6,47.8l-1.8-2.3l0.7-0.5l1.7,2.3L13.6,47.8z M13.7,47.4l0.3-0.2l-1.5-1.9l-0.3,0.2
	L13.7,47.4z M15.3,47.2l-1.1-1.5l-0.2,0.2l1,1.3l-0.2,0.2l-2.2-2.8l0.2-0.2l1,1.3l0.2-0.2L12.9,44l0.2-0.2l1.1,1.5l0.2-0.2l0.1,0.2
	l-0.2,0.2l1.1,1.5L15.3,47.2z"/>
<path class="st0" d="M14.1,50c-0.6,0.4-1.2,0.7-1.8,1v-0.3c0.6-0.3,1.2-0.6,1.8-1L14.1,50z M15.7,52.8l-0.4,0.4
	c-0.1,0.1-0.2,0.1-0.3,0.1c-0.1,0-0.2,0-0.3-0.1L14,52.5l0.1-0.3l0.8,0.8c0.1,0.1,0.2,0.1,0.2,0l0.2-0.2L13.4,51l0.8-0.5l1.6,1.5
	l0.2-0.3l-1.8-1.7l0.2-0.2l2,1.9l-0.6,0.6l-1.7-1.6L13.8,51L15.7,52.8z M15.2,49.4c-0.2,0.1-0.4,0.3-0.6,0.4l-0.1-0.2
	c0.2-0.1,0.4-0.2,0.6-0.3L15.2,49.4z M14.9,49.1l-0.3,0.1c0-0.3,0-0.6,0-1l0.3-0.1C14.9,48.5,14.9,48.8,14.9,49.1L14.9,49.1z
	 M15,50.1L14.8,50c0.1-0.2,0.3-0.3,0.4-0.5l0.2,0.1C15.2,49.8,15.1,50,15,50.1L15,50.1z M15.9,49.7l-0.2-0.1c0,0,0.1-0.1,0.1-0.1
	c-0.2-0.1-0.5-0.2-0.7-0.4l0.1-0.2c0.3,0,0.6-0.1,0.9-0.2c-0.1-0.1-0.2-0.2-0.3-0.2l0.1-0.2c0.3-0.1,0.7-0.2,1-0.3l0,0.2
	c-0.3,0.1-0.5,0.2-0.8,0.3c0.1,0.1,0.2,0.1,0.3,0.2l0.3-0.1l0,0.2c-0.4,0.2-0.8,0.3-1.2,0.3c0.1,0.1,0.2,0.1,0.4,0.2
	c0.1-0.1,0.1-0.1,0.1-0.2h0.2C16.1,49.3,16,49.5,15.9,49.7L15.9,49.7z M15.4,50.2l-0.2-0.1c0.1-0.2,0.2-0.3,0.3-0.5l0.2,0.1
	C15.6,49.9,15.5,50.1,15.4,50.2L15.4,50.2z M16,51l-0.6-0.5l0.6-0.7l0.6,0.5L16,51z M16,48.2l-0.3,0.1c0-0.3,0-0.7,0-1l0.3-0.1
	C16,47.5,16,47.8,16,48.2L16,48.2z M16.1,50.7l0.3-0.3L16,50.1l-0.3,0.3L16.1,50.7z M16.7,50.8c-0.2,0.2-0.4,0.3-0.5,0.4l-0.1-0.2
	c0.2-0.1,0.4-0.3,0.5-0.4L16.7,50.8z M16.8,50.2l-0.6-0.5l0.2-0.2L17,50L16.8,50.2z M16.6,51.6l-0.2-0.1c0.2-0.2,0.3-0.3,0.4-0.5
	l0.2,0C16.9,51.2,16.7,51.4,16.6,51.6L16.6,51.6z M17.1,49.8l-0.6-0.5l0.2-0.2l0.6,0.5L17.1,49.8z M17.5,51.2l-0.2-0.1
	c0,0,0.1-0.1,0.1-0.2c-0.3-0.2-0.5-0.3-0.7-0.4l0.1-0.2c0.3,0,0.6-0.1,0.9-0.1l-0.4-0.3l0.1-0.2c0.4-0.1,0.7-0.2,1.1-0.3l0.1,0.2
	c-0.3,0.1-0.6,0.2-0.9,0.3c0.1,0.1,0.2,0.2,0.3,0.2l0.3-0.1v0.2c-0.4,0.1-0.8,0.2-1.2,0.3c0.1,0.1,0.2,0.1,0.3,0.2
	c0-0.1,0.1-0.1,0.1-0.2l0.2,0.1C17.6,50.8,17.5,51,17.5,51.2L17.5,51.2z M16.9,51.8l-0.2-0.1c0.1-0.3,0.2-0.5,0.3-0.6l0.2,0.1
	C17.1,51.5,17,51.6,16.9,51.8L16.9,51.8z M17.6,49.5l-0.8-0.7l0.2-0.2l0.3,0.3c0.1-0.1,0.1-0.2,0.1-0.3l0.2,0.1
	c-0.1,0.1-0.1,0.3-0.2,0.4l0.3,0.2L17.6,49.5z"/>
<path class="st0" d="M19.6,56c-0.1,0.1-0.1,0.2-0.2,0.2c-0.1,0-0.2,0-0.4-0.1L18.7,56l0.1-0.3l0.3,0.2c0.1,0.1,0.2,0,0.3,0
	c0,0,0,0,0,0l0.9-1.4l-2.6-1.6l-1.2,1.8l-0.2-0.1l1.3-2.1l3,1.9L19.6,56z M19,55.5l-1.6-1l0.6-1l1.6,1L19,55.5z M19,55l0.3-0.5
	l-1.2-0.8l-0.3,0.5L19,55z M20.6,53.6l-2.2-1.4l0.6-1l2.2,1.4L20.6,53.6z M21.9,52.7l-3.3-2.1l0.2-0.2l1.6,1
	c0.1-0.2,0.1-0.3,0.1-0.5l0.2,0c0,0.2-0.1,0.4-0.2,0.6l1.5,1L21.9,52.7z M20.5,53.2l0.3-0.5L19,51.7l-0.3,0.5L20.5,53.2z"/>
<path class="st0" d="M22.5,57.5l-0.3,0c0-0.1,0.1-0.3,0.1-0.5c-0.4,0-0.9,0-1.4-0.1v-0.3c0.7-0.6,1.4-1.4,1.9-2.2l0.2,0.2
	c-0.5,0.7-1,1.4-1.6,2c0.3,0,0.6,0.1,0.9,0.1c0-0.3,0.1-0.6,0.1-0.8l0.2-0.1C22.7,56.4,22.6,56.9,22.5,57.5z M23.9,53.9l-0.8-0.3
	c-0.5,0.8-1.1,1.6-1.8,2.3l-0.1-0.2c0.7-0.6,1.2-1.3,1.7-2.1l-0.7-0.3l0.1-0.3l0.7,0.3c0.1-0.3,0.3-0.6,0.4-0.8l0.2,0.1
	c-0.1,0.3-0.2,0.5-0.4,0.8l0.8,0.3L23.9,53.9z M24.6,58.2l-1.6-0.6l-0.1,0.3l-0.2-0.1l1.3-3.3c-0.2,0.1-0.3,0.3-0.6,0.5l-0.1-0.3
	c0.6-0.5,1.1-1,1.6-1.7l0.2,0.2c-0.2,0.3-0.4,0.6-0.7,0.9l0.8,0.3c0.1-0.3,0.1-0.6,0.1-0.9h0.2c0,0.3-0.1,0.7-0.2,1l0.5,0.2
	l-0.1,0.3l-0.7-0.2l-0.3,0.8l0.6,0.2l-0.1,0.3l-0.6-0.2l-0.3,0.8l0.6,0.2L24.9,57l-0.6-0.2L24,57.6l0.7,0.3L24.6,58.2z M23.7,57.5
	l0.3-0.8l-0.7-0.3L23,57.3L23.7,57.5z M24.2,56.4l0.3-0.8l-0.7-0.3l-0.3,0.8L24.2,56.4z M24.6,55.3l0.3-0.8l-0.7-0.3l-0.3,0.8
	L24.6,55.3z"/>
<path class="st0" d="M29.4,56.8c-0.3,0.4-0.6,0.8-0.9,1.1c-0.3,0.3-0.7,0.6-1,0.7c-0.4,0.2-0.9,0.3-1.4,0.3L26,58.6
	c0.7,0,1.3-0.2,1.9-0.6c0.5-0.4,0.9-0.9,1.3-1.4L29.4,56.8z M27.7,54.5c-0.4,0.8-0.9,1.5-1.5,2.1L26,56.4c0.6-0.6,1.1-1.3,1.4-2.1
	L27.7,54.5z M28,57.4h-0.2l0.6-3.4h0.2L28,57.4z M30,56.8L29.8,57c-0.2-0.7-0.4-1.5-0.8-2.2l0.2-0.2C29.6,55.4,29.9,56.1,30,56.8
	L30,56.8z"/>
<path class="st0" d="M34.8,58.2H33v1.3h-0.2v-1.3h-2.1V58h0.7v-1.6h1.4v-1.1h-1.1c-0.2,0.4-0.4,0.8-0.8,1.1l-0.2-0.2
	c0.5-0.5,0.9-1.2,1.1-1.9l0.3,0.1c-0.1,0.2-0.2,0.4-0.2,0.6l2.7,0v0.3H33v1.1h1.5v0.3H33l0,1.4h1.7L34.8,58.2z M32.8,58v-1.3h-1.1
	V58H32.8z"/>
<path class="st0" d="M39.9,58.5l-0.1,0.3c-0.5-0.2-0.9-0.4-1.4-0.7C38,58.6,37.6,59,37,59.3L36.8,59c0.5-0.3,1-0.7,1.3-1.1
	c-0.5-0.5-1-1.1-1.3-1.8h-0.1c0,1.1-0.2,2.3-0.8,3.3l-0.2-0.2c0.3-0.6,0.6-1.3,0.7-2c0.1-0.9,0-1.8-0.1-2.7l-1,0.2l-0.1-0.3l3-0.5
	c0,0.5-0.1,1-0.2,1.7l0.9-0.1c0,0.8-0.1,1.7-0.4,2.5C39,58.1,39.4,58.4,39.9,58.5z M38,54.2l-1.4,0.3c0.1,0.6,0.1,1,0.1,1.3l1.2-0.2
	C38,55.1,38,54.6,38,54.2z M38.7,55.8l-1.6,0.3c0.3,0.6,0.7,1.1,1.2,1.6C38.6,57.1,38.8,56.4,38.7,55.8L38.7,55.8z"/>
<path class="st0" d="M43.3,53.5L43,53.6l-0.3-0.7l-3,1.2l0.3,0.7l-0.2,0.1l-0.4-1l1.7-0.7c-0.1-0.1-0.2-0.2-0.3-0.3l0.2-0.2
	c0.1,0.1,0.2,0.2,0.3,0.4l1.5-0.6L43.3,53.5z M44.6,56.4l0,0.3c-0.6-0.1-1.3-0.4-1.8-0.8c0.1,0.2,0.2,0.3,0.2,0.5
	c0.2,0.3,0.2,0.7,0.2,1c-0.1,0.2-0.3,0.4-0.5,0.4c-0.1,0-0.1,0.1-0.2,0.1l-0.2-0.3l0.3-0.1c0.1,0,0.2-0.1,0.3-0.2c0-0.1,0-0.2,0-0.3
	c0-0.2-0.1-0.4-0.2-0.5c-0.1-0.2-0.1-0.3-0.2-0.5c-0.4,0.8-0.9,1.5-1.5,2.1L40.8,58c0.7-0.6,1.2-1.4,1.5-2.2
	c-0.1-0.1-0.2-0.3-0.3-0.4c-0.3,0.7-0.8,1.3-1.3,1.7l-0.2-0.2c0.6-0.4,1.1-1,1.4-1.7c-0.1-0.1-0.2-0.2-0.3-0.3
	c-0.3,0.4-0.7,0.8-1.1,1.1l-0.2-0.2c0.6-0.4,1.1-0.9,1.4-1.5l-1.3,0.5l-0.1-0.3l2.5-1l0.1,0.3L42,54.1c-0.1,0.2-0.1,0.4-0.2,0.5
	c0.3,0.2,0.5,0.5,0.8,0.8c0.3-0.4,0.5-0.8,0.6-1.3l0.2,0.1c-0.1,0.5-0.3,0.9-0.6,1.3C43.3,56,43.9,56.3,44.6,56.4z"/>
<path class="st0" d="M48.4,52.7L48,53l0.4,0.7l-1.3,0.8l0.3,0.4c0.1,0.1,0.1,0.2,0.1,0.3c-0.1,0.2-0.2,0.3-0.4,0.3l-0.2,0.1
	l-0.2-0.2l0.5-0.3c0.1,0,0.1-0.1,0-0.2L47,54.6l-1.4,0.9l-0.2-0.2l1.4-0.9l-0.3-0.4l-1.6,1l-0.2-0.2l1.6-1l-0.2-0.4l-1.4,0.9
	L44.6,54l1.4-0.9l-0.2-0.4l-1.3,0.8l-0.5-0.8l1.3-0.8L45,51.5l-1.6,1l-0.2-0.2l1.6-1l-0.2-0.4l0.2-0.1l0.2,0.4l1.6-1l0.2,0.2l-1.6,1
	l0.2,0.3l1.3-0.8l0.5,0.9L46,52.6l0.2,0.4l1.3-0.8l0.4,0.6l0.3-0.2L48.4,52.7z M45.6,52.5l-0.2-0.4l-1.1,0.7l0.2,0.4L45.6,52.5z
	 M46.9,51.6l-0.2-0.4l-1.1,0.7l0.2,0.4L46.9,51.6z M47.7,52.8l-0.2-0.4l-1.1,0.7l0.2,0.4L47.7,52.8z M48.1,53.5l-0.3-0.4l-1.1,0.7
	l0.3,0.4L48.1,53.5z"/>
<path class="st0" d="M47.9,49.5v0.3c-0.4-0.1-0.7-0.1-1.1,0l0-0.3C47.2,49.4,47.5,49.4,47.9,49.5z M48.9,50.6v0.3
	c-0.4,0-0.7,0-1.1,0l-0.1-0.3C48.1,50.6,48.5,50.6,48.9,50.6L48.9,50.6z M51.4,48.8l-1.1,1c0.3,0.7,0.5,1.4,0.6,2.2
	c0.4-0.5,0.8-1,1.1-1.6c-0.3-0.1-0.7-0.2-1-0.3v-0.2c0.7,0.2,1.3,0.4,1.9,0.7v0.3c-0.2-0.1-0.4-0.2-0.7-0.3
	c-0.4,0.7-0.9,1.3-1.3,1.9l-0.3-0.2c0-0.3,0-0.6-0.1-0.9c-0.1-0.5-0.3-0.9-0.5-1.4l-0.8,0.8l-0.2-0.2l1-0.9l-0.8-0.9l-0.8,0.8
	l-0.2-0.2l0.8-0.8l-0.6-0.7l0.2-0.2l0.6,0.7l0.8-0.8l0.2,0.2l-0.8,0.8l0.8,0.9l1-0.9L51.4,48.8z M49.6,51.3c0.3,0.6,0.6,1.3,0.8,2
	H50c-0.2-0.7-0.4-1.4-0.8-2H49.6z"/>
<path class="st0" d="M51.7,47c0.5,0,0.9,0.2,1.3,0.5c0.1,0.1,0.2,0.2,0.3,0.4c0,0.1,0,0.3-0.1,0.5l-0.1,0.1l-0.3-0.1l0.2-0.2
	c0.1-0.1,0.1-0.2,0.1-0.3c0-0.1-0.1-0.1-0.1-0.2c-0.4-0.3-0.8-0.4-1.3-0.5l-1-1.2l-0.4,0.5l3.8,2.9l-0.1,0.2l-4.1-3.1l0.7-1l0.2,0.2
	C51.1,46.3,51.4,46.6,51.7,47z M53.5,44.5l-0.1,0.2l-0.7-0.5l-1.2,1.6l0.7,0.5L52,46.5l-1-0.7l0.7-0.9c-0.2-0.1-0.4-0.2-0.5-0.2
	l0.1-0.2c0.2,0.1,0.4,0.1,0.6,0.2l0.7-0.9L53.5,44.5z M53.3,45l-1,1.3l-0.2-0.2l1-1.3L53.3,45z M55.3,45.8c0.2,0.1,0.4,0.3,0.5,0.5
	c0.1,0.1,0.1,0.2,0.2,0.3c0,0.2-0.1,0.3-0.2,0.4c-0.1,0.2-0.3,0.2-0.5,0.1c0,0,0,0-0.1,0L53.8,46l-0.3,0.4c0.4,0.3,0.8,0.7,1,1.1
	c0.1,0.4,0.2,0.7,0.1,1.1h-0.3c0.1-0.4,0.1-0.7-0.1-1.1c-0.2-0.4-0.5-0.7-0.9-1L53,47.2L52.7,47l1.5-2l0.2,0.2L54,45.8l1.4,1.1
	c0,0,0.1,0,0.1,0c0,0,0.1,0,0.2-0.1c0-0.1,0.1-0.1,0.1-0.2c0,0,0-0.1,0-0.1l-0.2-0.2c-0.1-0.1-0.3-0.2-0.4-0.3L55.3,45.8z"/>
<path class="st3" d="M9.1,34.2v0.4L5.6,35l0.1,0.5L5,35.6l-0.2-1.4l0.6-0.1l0.1,0.5L9.1,34.2z"/>
<path class="st3" d="M8.1,33l1,0.2v0.4l-4.4-0.8v-0.4L9,31.4v0.4L8,32L8.1,33z M5.7,32.6l1.8,0.3v-0.7L5.7,32.6z"/>
<path class="st3" d="M9,30.7v0.4L4.7,31v-0.4L9,30.7z"/>
<path class="st3" d="M8,29.4l-3.1-0.9v-0.2l3.2-0.2L5,27.2v-0.4l4.2,1.3v0.3l-3,0.2l2.8,0.8v0.3L4.7,30v-0.4L8,29.4z"/>
<path class="st3" d="M8.6,26.4l0.9,0.4l-0.1,0.4l-4-1.9l0-0.4l4.4,0.1l-0.1,0.4h-1L8.6,26.4z M6.4,25.4L8,26.2l0.2-0.7L6.4,25.4z"/>
<path class="st3" d="M5.8,23.4l0.1-0.3l3.5-0.3l-2.9-1l0.1-0.4l4.1,1.4l-0.1,0.3l-3.5,0.3l2.9,1l-0.1,0.4L5.8,23.4z"/>
<path class="st3" d="M8.2,18l0.2-0.5l1.3,1.7l2.5,0.2L11.9,20l-2.3-0.2l1.9,1l-0.2,0.4l-3.8-2l0.2-0.4l1.8,0.9L8.2,18z"/>
<path class="st3" d="M11.8,18.4l0.7,0.7l-0.2,0.4l-3.1-3.2L9.3,16l4.1,1.6L13.2,18l-0.9-0.4L11.8,18.4z M10,16.8l1.3,1.2l0.4-0.6
	L10,16.8z"/>
<path class="st3" d="M11.9,16.2c-0.4-0.3-0.8-0.8-1-1.3c-0.3-0.4-0.2-1,0.2-1.2c0.3-0.2,0.6-0.2,0.9-0.1c0.5,0.1,1,0.4,1.4,0.7
	c0.4,0.3,0.8,0.8,1,1.2c0.3,0.4,0.2,1-0.2,1.3c-0.3,0.2-0.6,0.2-0.9,0.1C12.8,16.8,12.3,16.5,11.9,16.2z M12.1,15.8
	c0.3,0.2,0.6,0.4,1,0.5c0.3,0.1,0.6,0,0.7-0.1c0.1-0.2,0.1-0.5,0-0.7c-0.2-0.3-0.4-0.6-0.7-0.9c-0.3-0.2-0.6-0.4-1-0.5
	c-0.3-0.1-0.6,0-0.8,0.3c-0.1,0.2-0.1,0.4,0.1,0.6C11.5,15.3,11.8,15.6,12.1,15.8z"/>
<path class="st3" d="M14.5,12.6l-1.2-1.2l0.3-0.3l3,3l-0.3,0.3L14.9,13l-0.7,0.7l1.4,1.4l-0.3,0.3l-3-3l0.3-0.3l1.2,1.2L14.5,12.6z"
	/>
<path class="st3" d="M15.6,10.5c-0.2-0.1-0.4-0.1-0.6,0c-0.1,0.1-0.1,0.2-0.1,0.3c0,0.1,0.1,0.3,0.2,0.4c0.2,0.2,0.4,0.3,0.7,0.2
	h0.5c0.3,0.1,0.6,0.2,0.7,0.5c0.2,0.3,0.4,0.6,0.5,0.9c0.1,0.2,0,0.5-0.2,0.7c-0.2,0.2-0.6,0.1-1.1-0.1l-0.1-0.5
	c0.1,0.1,0.3,0.2,0.4,0.2c0.1,0,0.2,0,0.3-0.1c0.1-0.1,0.1-0.2,0.1-0.3c0-0.2-0.1-0.3-0.2-0.5c-0.1-0.1-0.2-0.2-0.3-0.2
	c-0.2-0.1-0.5-0.1-0.7-0.1c-0.4,0-0.8-0.1-1-0.5c-0.2-0.2-0.4-0.5-0.4-0.8c-0.1-0.2,0-0.5,0.1-0.6c0.3-0.2,0.6-0.2,0.9,0L15.6,10.5z
	"/>
<path class="st3" d="M18.6,12.4l-0.3,0.2l-2.6-3.4L16,9.1L18.6,12.4z"/>
<path class="st3" d="M16.6,8.6l0.3-0.2l1.3,2c0.5,0.8,0.9,1,1.2,0.9s0.2-0.6-0.3-1.4l-1.3-2l0.3-0.2l1.4,2.1c0.7,1,0.8,1.7,0.2,2
	s-1.1,0-1.8-1L16.6,8.6z"/>
<path class="st3" d="M18.8,7.1L19,7l2.7,2.2l-1.4-2.8l0.4-0.2l2,3.8l-0.3,0.1L19.7,8l1.4,2.8l-0.4,0.2L18.8,7.1z"/>
<path class="st3" d="M24.2,6.9L24.2,6.9c0.2,0.6,0.3,1.2,0.3,1.7c0,0.4-0.2,0.7-0.5,0.9c-0.4,0.1-0.7,0-1-0.3
	c-0.4-0.4-0.7-0.8-0.9-1.3c-0.2-0.5-0.3-1.1-0.3-1.6c0-0.4,0.2-0.7,0.6-0.9c0.4-0.2,0.8,0,1.3,0.6l-0.2,0.4
	c-0.3-0.4-0.6-0.6-0.8-0.5s-0.3,0.3-0.3,0.7c0,0.4,0.1,0.8,0.2,1.2c0.1,0.4,0.3,0.7,0.6,1C23.3,8.9,23.6,9,23.8,9
	c0.2-0.1,0.3-0.3,0.3-0.5c0-0.3,0-0.6-0.1-0.9l-0.5,0.2l-0.2-0.5L24.2,6.9z"/>
<path class="st3" d="M27.2,7c0.2,1,0.1,1.6-0.3,1.7c-0.2,0-0.4,0-0.6-0.3l0.1-0.6C26.6,8,26.7,8,26.8,8s0.1-0.1,0.1-0.2
	c0-0.3-0.1-0.6-0.1-0.8l-0.6-2.6l0.4-0.1L27.2,7z"/>
<path class="st3" d="M27.3,4.1L27.7,4l0.4,2.3c0.1,0.9,0.4,1.3,0.7,1.3s0.4-0.5,0.3-1.4l-0.4-2.3l0.4-0.1l0.4,2.5
	c0.2,1.2,0,1.8-0.6,1.9s-1-0.5-1.2-1.7L27.3,4.1z"/>
<path class="st3" d="M31,6.8l0.4-3.2h0.5L31.1,8h-0.3l-1.2-4.3h0.4L31,6.8z"/>
<path class="st3" d="M32.8,4.2v1.1h0.8v0.6h-0.8v1.3h0.8v0.6h-1.2l0.1-4.2h1.2v0.6L32.8,4.2z"/>
<path class="st3" d="M34.4,3.5h0.3l1,3.3l0.3-3h0.4L36,8.1h-0.3l-1-3.3l-0.3,3.1h-0.4L34.4,3.5z"/>
<path class="st3" d="M36.9,8.2l-0.4-0.1l0.7-4.2L37.6,4L36.9,8.2z"/>
<path class="st3" d="M37.8,7.8l0.7,0.2l-0.1,0.6l-1.1-0.2l0.9-4.2l0.4,0.1L37.8,7.8z"/>
<path class="st3" d="M40,5.2l-0.3,1.1l0.8,0.2L40.3,7l-0.8-0.2L39.2,8L40,8.3l-0.2,0.6l-1.2-0.3l1.2-4.1L41,4.8l-0.2,0.6L40,5.2z"/>
<path class="st3" d="M42.3,8.8l-0.6,0.8l-0.4-0.2L44,5.8L44.3,6l-1,4.4l-0.4-0.2l0.2-0.9L42.3,8.8z M43.7,6.8l-1.1,1.5l0.7,0.3
	L43.7,6.8z"/>
<path class="st3" d="M45.8,6.7L46,6.8l-0.4,3.5l1.6-2.7l0.3,0.2l-2.2,3.8l-0.3-0.1L45.5,8l-1.6,2.7l-0.4-0.2L45.8,6.7z"/>
<path class="st3" d="M48.2,8.3l0.6,0.4c0.3,0.2,0.4,0.6,0.3,1c-0.1,0.5-0.3,1-0.6,1.4c-0.3,0.4-0.7,0.8-1.2,1c-0.3,0.2-0.7,0.2-1,0
	l-0.5-0.4L48.2,8.3z M46.5,11.5l0.1,0.1c0.5,0.3,1,0.1,1.6-0.7s0.6-1.4,0.2-1.7l-0.1-0.1L46.5,11.5z"/>
<path class="st3" d="M51.4,11.6l-0.8,0.8l0.5,0.5l-0.4,0.4l-0.5-0.5l-1.3,1.4l-0.3-0.3l2.9-3.1l0.9,0.8l-0.4,0.4L51.4,11.6z"/>
<path class="st3" d="M50.7,14.7l-0.9,0.5l-0.3-0.3l3.9-2.2l0.2,0.3L51,16.5l-0.3-0.3l0.6-0.8L50.7,14.7z M52.8,13.5l-1.6,0.9
	l0.5,0.5L52.8,13.5z"/>
<path class="st3" d="M54.6,16.5l-2.7,1.2l-0.1-0.1l2-2.2L51.3,17l-0.2-0.3l3.8-2.2l0.2,0.2l-2,2.2l2.7-1.2l0.2,0.2l-3.3,2.8
	l-0.2-0.3L54.6,16.5z"/>
<path class="st3" d="M53,19.4L52.8,19l3.6-2.2l0.2,0.4L53,19.4z"/>
<path class="st3" d="M54,19.8l0.3,0.6l-0.5,0.3l-0.5-1l3.7-2l0.2,0.4L54,19.8z"/>
<path class="st3" d="M57.6,19l0.2,0.5l-1.2,1.1l1.7-0.2l0.2,0.5L56,21l-1.8,0.8l-0.2-0.4l1.8-0.8L57.6,19z"/>
<path class="st3" d="M58.7,24.7c0.2-0.2,0.3-0.4,0.3-0.6s-0.3-0.4-0.6-0.4c-0.4-0.1-0.8,0-1.1,0.1c-0.4,0.1-0.7,0.3-1,0.5
	C56,24.5,55.9,24.8,56,25c0.1,0.2,0.2,0.3,0.6,0.4l-0.8,0.2c-0.2-0.1-0.3-0.3-0.4-0.5c-0.1-0.4,0.1-0.8,0.4-1
	c0.4-0.4,0.9-0.6,1.4-0.8c0.5-0.2,1.1-0.2,1.6-0.1c0.5,0.1,0.8,0.3,0.9,0.6c0,0.2,0,0.4-0.1,0.6L58.7,24.7z"/>
<path class="st3" d="M57.8,25.5c0.5-0.1,1.1-0.1,1.6,0c0.5,0.1,0.7,0.4,0.8,0.7c0.1,0.4-0.1,0.8-0.5,1c-0.4,0.3-0.9,0.5-1.5,0.6
	c-0.5,0.1-1.1,0.1-1.6,0c-0.5-0.1-0.7-0.4-0.8-0.7c-0.1-0.4,0.1-0.8,0.5-1C56.7,25.8,57.2,25.6,57.8,25.5z M57.9,25.9
	c-0.4,0.1-0.7,0.2-1,0.4c-0.3,0.2-0.4,0.4-0.4,0.6c0.1,0.3,0.3,0.4,0.5,0.5c0.4,0.1,0.8,0.1,1.1,0c0.4-0.1,0.7-0.2,1-0.4
	c0.2-0.1,0.4-0.4,0.3-0.6c0-0.2-0.2-0.4-0.5-0.5C58.6,25.8,58.2,25.8,57.9,25.9z"/>
<path class="st3" d="M60.4,28.2v0.4L58,28.9c-0.9,0.1-1.3,0.3-1.3,0.6c0,0.3,0.5,0.5,1.4,0.4l2.4-0.2V30L58,30.2
	c-1.2,0.1-1.8-0.1-1.9-0.8s0.5-0.9,1.7-1L60.4,28.2z"/>
<path class="st3" d="M56.3,32.5v-0.5l1.9-0.7h-1.9v-0.4l4.2,0.1v0.6c0,0.5-0.4,0.8-1.3,0.8c-0.3,0-0.5-0.1-0.8-0.2
	c-0.2-0.1-0.3-0.2-0.4-0.4L56.3,32.5z M58.5,31.3v0.1c0,0.3,0.2,0.5,0.8,0.5s0.7-0.2,0.8-0.5v-0.1L58.5,31.3z"/>
<path class="st3" d="M56.2,33.4V33l3.6,0.3v-0.5h0.6l-0.1,1.5h-0.6v-0.5L56.2,33.4z"/>
</svg>
