<?xml version="1.0" encoding="utf-8"?>
<!-- Generator: Adobe Illustrator 27.8.1, SVG Export Plug-In . SVG Version: 6.00 Build 0)  -->
<svg version="1.1" id="圖層_1" xmlns="http://www.w3.org/2000/svg" xmlns:xlink="http://www.w3.org/1999/xlink" x="0px" y="0px"
	 viewBox="0 0 270.8 64" style="enable-background:new 0 0 270.8 64;" xml:space="preserve">
<style type="text/css">
	.st0{fill:#FFFFFF;}
	.st1{fill:url(#SVGID_1_);}
	.st2{fill:#005BAB;}
	.st3{fill:#B7A246;}
</style>
<path class="st0" d="M79.2,25.2h12.5v10.6h-2.1v-1h-8.3v1.1h-2.1V27l-1.1,1.5c-0.5-0.6-1.4-1.7-2.2-2.5v9.9h-2.2v-8.6
	c-0.9,0.9-1.8,1.7-2.9,2.5c-0.3-0.7-0.6-1.4-1.1-2.1c2.8-1.8,5-4.4,6.5-7.4h-5.6v-2h6.8l0.4-0.1L79,19c-0.7,1.8-1.6,3.4-2.6,5
	c0.7,0.6,2.1,1.8,2.7,2.4L79.2,25.2z M74.2,18.2c-0.5-1.2-1.1-2.4-1.8-3.5l1.8-0.8c0.7,1.1,1.4,2.2,1.9,3.4L74.2,18.2z M91.8,15v1.9
	H79V15H91.8z M90.6,18.2v5.7H80.4v-5.7H90.6z M81.2,27.1v2.1h3.1v-2.1L81.2,27.1z M81.2,33h3.1v-2.2h-3.1V33z M88.5,19.9h-6.2v2.2
	h6.2V19.9z M89.5,27.1h-3.2v2.1h3.2L89.5,27.1z M89.5,33v-2.2h-3.2V33L89.5,33z"/>
<path class="st0" d="M101.5,22.2c-0.2,2.9-0.9,5.8-2,8.5c2.3,2.1,5.4,2.6,9.2,2.6c1.1,0,6.2,0,7.6,0c-0.4,0.6-0.6,1.3-0.8,2h-6.8
	c-4.2,0-7.6-0.5-10.1-2.8c-0.7,1.2-1.7,2.3-2.8,3.2c-0.5-0.6-1-1.1-1.6-1.5c1.3-0.9,2.3-2.1,3-3.4c-0.9-1.4-1.7-2.9-2.1-4.6l1.7-0.6
	c0.3,1.1,0.8,2.2,1.3,3.2c0.6-1.6,1-3.3,1.2-5h-3.8c1-1.8,2.3-4.4,3.3-6.7h-3.9v-2h7c-1,2.1-2.2,4.6-3.2,6.7h1.2l0.4-0.1L101.5,22.2
	z M107,17.6h-4.3v-1.8h4.3V14h2.1v1.9h5.2V19h1.5v1.8h-1.5V24h-5.2v1.5h5.6v1.7h-5.6v1.6h6.4v1.8h-6.4v2H107v-2h-5.6v-1.8h5.6v-1.6
	h-4.7v-1.7h4.7V24h-4.5v-1.8h4.5v-1.5h-5.8V19h5.8V17.6z M109.1,17.6V19h3.2v-1.4H109.1z M112.3,20.8h-3.2v1.5h3.2V20.8z"/>
<path class="st0" d="M124.5,25.2c-0.4,2.1-1.1,4.2-2,6.2c0.4,0.2,1,0.6,1.7,1.1c1.7,1,3.9,1.2,6.7,1.2c3.2,0,6.4-0.2,9.6-0.6
	c-0.3,0.7-0.5,1.5-0.6,2.3c-1.9,0.1-6.3,0.3-9.1,0.3c-3.2,0-5.2-0.3-6.9-1.3c-1-0.5-1.8-1.4-2.3-1.4s-1.4,1.6-2,3l-1.5-2
	c0.7-1,1.5-1.8,2.4-2.5c0.7-1.5,1.2-3.1,1.6-4.7h-3.1c0.6-1.4,1.3-3.4,1.9-5.2h-2.4v-2h5.2c-0.5,1.7-1.2,3.7-1.8,5.3h1.3l0.3-0.1
	L124.5,25.2z M120.9,18.5c-0.3-1.1-0.9-2.7-1.2-4l2-0.6c0.4,1.2,1,2.8,1.3,3.9L120.9,18.5z M130.9,30.4h-6.2v-1.8h6.2v-1.5h-5.2
	v-7.9h5.2v-1.5h-6.2v-1.8h6.2v-1.9h2.1v1.9h6.5v1.8H133v1.5h5.4v7.9H133v1.5h6.8v1.8H133v2.6h-2.2L130.9,30.4z M127.7,22.4h3.2v-1.6
	h-3.2V22.4z M130.9,25.5v-1.6h-3.2v1.6L130.9,25.5z M133,20.8v1.6h3.2v-1.6H133z M136.2,23.9H133v1.6h3.2V23.9z"/>
<path class="st0" d="M146.7,24.9c-1.4-1-2.9-1.8-4.4-2.6l1.2-1.6c1.5,0.7,3,1.5,4.4,2.4L146.7,24.9z M149.2,28
	c-1.2,2.5-2.9,5.3-4.2,7.6l-1.9-1.5c1.7-2.4,3.2-4.9,4.5-7.6L149.2,28z M147.9,18.6c-1.3-1-2.8-2-4.2-2.8l1.3-1.6
	c1.5,0.8,2.9,1.6,4.3,2.6L147.9,18.6z M164.2,32.2v2.2H149v-2.2h6.2V18.2h-5V16H163v2.2h-5.4v13.9L164.2,32.2z"/>
<path class="st0" d="M173.7,26.6l0.5,2c-2.5,1.2-5.2,2.5-7.3,3.4l-0.9-2.2c0.9-0.3,2-0.7,3.2-1.2v-6.9h-2.7v-2.1h2.7v-5.3h2.1v5.3
	h2.4v2.1h-2.4v6L173.7,26.6z M184.7,33.4c1.3,0,1.6-0.6,1.8-3.2c0.6,0.4,1.3,0.7,2,0.8c-0.3,3.3-1,4.4-3.6,4.4h-5.5
	c-2.9,0-3.8-0.8-3.8-3.6v-6.9l-1.7,0.7l-0.8-2l2.5-1.1v-6.4h2.1v5.5l2.7-1.1v-6.6h2.1v5.7l3.2-1.4l1.6,0.5l-0.1,0.4
	c-0.2,3.5-0.6,7-1.2,10.5l-1.8-0.5c0.4-2.8,0.7-5.5,0.7-8.3l-2.5,1.1v8.6h-2.1v-7.7l-2.7,1.2v7.9c0,1.3,0.3,1.6,1.8,1.6H184.7z"/>
<path class="st0" d="M199.6,20c-0.1,1.1-0.1,2.3-0.3,3.4h10.2c0,0.3,0,0.7-0.1,1c-0.4,6.6-0.9,9.3-1.9,10.2
	c-0.6,0.6-1.4,0.9-2.3,0.9c-1.3,0.1-2.7,0-4.1,0c-0.1-0.8-0.3-1.5-0.8-2.2c1.7,0.1,3.3,0.2,4,0.2c0.4,0,0.8-0.1,1.1-0.3
	c0.7-0.6,1.1-2.8,1.5-7.7h-8c-0.8,4.1-2.5,8-7,10.4c-0.4-0.7-1-1.3-1.6-1.8c5.9-3,6.5-8.9,6.8-14.1h-6.3v-2.2h10.3
	c-0.4-1.2-0.9-2.3-1.5-3.4l2.2-0.8c0.7,1.1,1.2,2.3,1.7,3.5l-1.6,0.7h9.9V20H199.6z"/>
<path class="st0" d="M218.7,24.8c-1.4-1-2.8-1.9-4.4-2.6l1.2-1.7c1.6,0.6,3.1,1.4,4.5,2.4L218.7,24.8z M215.1,34.1
	c1.7-2.4,3.2-5,4.5-7.6l1.6,1.5c-1.2,2.5-2.8,5.4-4.2,7.6L215.1,34.1z M216.9,14.1c1.6,0.7,3.1,1.5,4.5,2.5l-1.3,1.9
	c-1.4-1.1-2.9-2-4.5-2.7L216.9,14.1z M233.9,35.8c-0.3-0.8-0.6-1.5-1-2.3c-8.5,1-9.6,1.2-10.3,1.6c-0.2-0.8-0.5-1.5-0.8-2.2
	c0.5-0.1,1-0.7,1.5-1.6c1.2-1.7,2.2-3.6,3-5.5h-4.9v-2.1h5.9v-3.9h-4.9v-2.1h4.9v-3.9h2.3v3.9h5.1v2.1h-5.1v3.9h6v2.1H229
	c-1.1,2.3-2.4,4.5-3.8,6.6l6.7-0.7c-0.6-1-1.2-1.9-1.9-2.8l1.8-0.9c1.7,2.1,3.1,4.3,4.1,6.8L233.9,35.8z"/>
<path class="st0" d="M246.3,15.6c-0.7,2-1.5,4.3-2.2,6.2c1.2,1.4,1.9,3.2,1.9,5.1c0.1,1.1-0.2,2.2-1,2.9c-0.4,0.3-0.8,0.4-1.3,0.5
	c-0.4,0-1,0-1.6,0c0-0.7-0.2-1.3-0.5-1.9c0.4,0,0.8,0,1.2,0c0.2,0,0.5-0.1,0.7-0.2c0.4-0.4,0.6-1,0.5-1.6c-0.1-1.7-0.8-3.4-2-4.6
	c0.6-1.6,1.2-3.6,1.7-5.2h-2.6v19h-2v-21h5.4l0.3-0.1L246.3,15.6z M258,33.7c0.5,0,0.5-0.4,0.6-3c0.6,0.4,1.2,0.7,1.9,0.8
	c-0.2,3.2-0.7,4-2.2,4h-2c-1.9,0-2.3-0.5-2.3-2.5v-5.7h-2.1c-0.4,4.2-1.5,7-6.1,8.6c-0.3-0.7-0.7-1.3-1.3-1.8c4-1.3,4.9-3.4,5.2-6.8
	h-3.1v-2h13.5v2h-4v5.6c0,0.7,0.1,0.7,0.5,0.7H258z M248.5,21.2h-1.9v-4.4h5.8c-0.3-0.8-0.7-1.7-1.1-2.5l2.1-0.6
	c0.6,1,1.1,2,1.5,3.1h5.2v4.4h-1.9V23h-9.7L248.5,21.2z M248.6,18.7V21h9.3v-2.3L248.6,18.7z"/>
<path class="st0" d="M72.6,44.2h4V45h-3.2v2.5h3.2v0.8h-3.2v3.9h-0.8V44.2z"/>
<path class="st0" d="M78.2,46.2h0.8V49c0,0.4,0,0.9,0.1,1.3c0.1,0.3,0.3,0.6,0.6,0.8c0.7,0.4,1.5,0.4,2.2,0c0.3-0.2,0.5-0.5,0.6-0.8
	c0.1-0.5,0.1-0.9,0.1-1.4v-2.8h0.8v2.9c0,0.6-0.1,1.2-0.3,1.8c-0.2,0.4-0.5,0.8-0.8,1c-0.4,0.2-0.9,0.4-1.4,0.3
	c-0.5,0-1-0.1-1.4-0.3c-0.4-0.2-0.7-0.6-0.8-1c-0.2-0.6-0.3-1.3-0.3-1.9V46.2z"/>
<path class="st0" d="M91.1,47.4l-0.6,0.4c-0.5-0.7-1.3-1-2.1-1c-0.7,0-1.3,0.2-1.8,0.7c-0.5,0.4-0.7,1-0.7,1.7
	c0,0.4,0.1,0.8,0.3,1.2c0.2,0.4,0.5,0.7,0.9,0.9c0.4,0.2,0.8,0.3,1.3,0.3c0.8,0,1.6-0.3,2.1-1l0.6,0.4c-0.3,0.4-0.7,0.8-1.1,1
	c-0.5,0.2-1.1,0.4-1.6,0.3c-0.9,0-1.7-0.3-2.3-0.9c-0.6-0.6-0.9-1.3-0.9-2.1c0-0.6,0.1-1.1,0.4-1.6c0.3-0.5,0.7-0.9,1.2-1.1
	c0.9-0.5,1.9-0.5,2.8-0.2c0.3,0.1,0.6,0.3,0.9,0.5C90.7,47,90.9,47.2,91.1,47.4z"/>
<path class="st0" d="M93,44h0.8v3.3c0.3-0.4,0.6-0.7,1-0.9c0.4-0.2,0.8-0.3,1.2-0.3c0.4,0,0.8,0.1,1.2,0.3c0.3,0.2,0.6,0.5,0.8,0.9
	c0.2,0.6,0.3,1.2,0.2,1.8v3h-0.8v-2.8c0-0.5,0-0.9-0.1-1.3c-0.1-0.7-0.7-1.2-1.5-1.2c-0.5,0-0.9,0.2-1.2,0.5
	c-0.3,0.3-0.6,0.7-0.7,1.1c-0.1,0.5-0.1,1.1-0.1,1.6v2.1H93V44z"/>
<path class="st0" d="M100.4,43.8c0.2,0,0.3,0.1,0.4,0.2c0.1,0.1,0.2,0.3,0.2,0.4c0,0.2-0.1,0.3-0.2,0.4c-0.1,0.1-0.3,0.2-0.4,0.2
	c-0.2,0-0.3-0.1-0.4-0.2c-0.1-0.1-0.2-0.3-0.2-0.4c0-0.2,0.1-0.3,0.2-0.4C100.1,43.9,100.3,43.8,100.4,43.8z M100,46.2h0.8v5.8H100
	V46.2z"/>
<path class="st0" d="M107.7,50.1l0.6,0.3c-0.2,0.4-0.4,0.7-0.7,1c-0.3,0.2-0.6,0.4-0.9,0.6c-0.4,0.1-0.8,0.2-1.2,0.2
	c-0.8,0-1.7-0.3-2.2-0.9c-0.5-0.6-0.8-1.3-0.8-2.1c0-0.7,0.2-1.4,0.7-2c0.5-0.7,1.4-1.1,2.3-1.1c0.9,0,1.8,0.4,2.4,1.1
	c0.4,0.6,0.7,1.3,0.6,2h-5.2c0,0.6,0.2,1.2,0.7,1.7c0.4,0.4,1,0.7,1.6,0.7c0.3,0,0.6-0.1,0.9-0.2c0.3-0.1,0.5-0.2,0.7-0.4
	C107.4,50.7,107.6,50.4,107.7,50.1z M107.7,48.6c-0.1-0.4-0.2-0.7-0.4-1c-0.2-0.2-0.5-0.4-0.8-0.6c-0.3-0.1-0.7-0.2-1-0.2
	c-0.5,0-1.1,0.2-1.5,0.5c-0.3,0.3-0.6,0.8-0.7,1.2L107.7,48.6z"/>
<path class="st0" d="M110.4,46.2h0.8v1c0.3-0.4,0.6-0.7,1-0.9c0.4-0.2,0.8-0.3,1.2-0.3c0.4,0,0.8,0.1,1.2,0.3
	c0.3,0.2,0.6,0.5,0.7,0.9c0.2,0.6,0.3,1.2,0.2,1.8v3h-0.8v-2.8c0-0.5,0-0.9-0.1-1.3c-0.1-0.3-0.2-0.7-0.5-0.9
	c-0.3-0.2-0.6-0.3-1-0.3c-0.4,0-0.9,0.2-1.2,0.5c-0.4,0.3-0.6,0.7-0.7,1.1c-0.1,0.5-0.1,1.1-0.1,1.6v2.1h-0.8L110.4,46.2z"/>
<path class="st0" d="M121.2,44.2h0.8v7.1h3v0.8h-3.8L121.2,44.2z"/>
<path class="st0" d="M126.9,43.8c0.2,0,0.3,0.1,0.4,0.2c0.1,0.1,0.2,0.3,0.2,0.4c0,0.2-0.1,0.3-0.2,0.4c-0.1,0.1-0.3,0.2-0.4,0.2
	c-0.2,0-0.3-0.1-0.4-0.2c-0.2-0.2-0.3-0.6,0-0.8c0,0,0,0,0,0C126.6,43.9,126.7,43.8,126.9,43.8z M126.5,46.2h0.8v5.8h-0.8V46.2z"/>
<path class="st0" d="M134.2,50.1l0.6,0.3c-0.2,0.4-0.4,0.7-0.7,1c-0.3,0.2-0.6,0.4-0.9,0.6c-0.4,0.1-0.8,0.2-1.2,0.2
	c-0.8,0-1.7-0.3-2.2-0.9c-0.5-0.6-0.8-1.3-0.8-2.1c0-0.7,0.2-1.4,0.7-2c0.5-0.7,1.4-1.1,2.3-1.1c0.9,0,1.8,0.4,2.4,1.1
	c0.4,0.6,0.7,1.3,0.6,2h-5.2c0,0.6,0.2,1.2,0.6,1.7c0.4,0.4,1,0.7,1.6,0.7c0.3,0,0.6-0.1,0.9-0.2c0.3-0.1,0.5-0.2,0.7-0.4
	C133.8,50.7,134.1,50.4,134.2,50.1z M134.2,48.6c-0.1-0.4-0.2-0.7-0.4-1c-0.2-0.2-0.5-0.4-0.8-0.6c-0.3-0.1-0.7-0.2-1-0.2
	c-0.5,0-1.1,0.2-1.5,0.5c-0.3,0.3-0.6,0.7-0.7,1.2L134.2,48.6z"/>
<path class="st0" d="M136.9,46.2h0.8v1c0.3-0.4,0.6-0.7,1-0.9c0.4-0.2,0.8-0.3,1.2-0.3c0.4,0,0.8,0.1,1.2,0.3
	c0.3,0.2,0.6,0.5,0.8,0.9c0.2,0.6,0.3,1.2,0.2,1.8v3h-0.8v-2.8c0-0.5,0-0.9-0.1-1.3c-0.1-0.7-0.7-1.2-1.5-1.2
	c-0.4,0-0.9,0.2-1.2,0.5c-0.4,0.3-0.6,0.7-0.7,1.1c-0.1,0.5-0.1,1.1-0.1,1.6v2.1h-0.8V46.2z"/>
<path class="st0" d="M149.8,47.4l-0.6,0.4c-0.5-0.7-1.3-1-2.1-1c-0.7,0-1.3,0.2-1.8,0.7c-0.5,0.4-0.7,1-0.7,1.7
	c0,0.4,0.1,0.8,0.3,1.2c0.2,0.4,0.5,0.7,0.9,0.9c0.4,0.2,0.8,0.3,1.3,0.3c0.8,0,1.6-0.3,2.1-1l0.6,0.4c-0.3,0.4-0.7,0.8-1.1,1
	c-0.5,0.2-1.1,0.4-1.6,0.3c-0.9,0-1.7-0.3-2.3-0.9c-0.6-0.6-0.9-1.3-0.9-2.1c0-0.6,0.1-1.1,0.4-1.6c0.3-0.5,0.7-0.9,1.2-1.1
	c0.9-0.5,1.9-0.5,2.8-0.2c0.3,0.1,0.6,0.3,0.9,0.5C149.4,47,149.6,47.2,149.8,47.4z"/>
<path class="st0" d="M151.7,44h0.8v3.3c0.3-0.4,0.6-0.7,1-0.9c0.4-0.2,0.8-0.3,1.2-0.3c0.4,0,0.8,0.1,1.2,0.3
	c0.3,0.2,0.6,0.5,0.8,0.9c0.2,0.6,0.3,1.2,0.2,1.8v3H156v-2.8c0-0.5,0-0.9-0.1-1.3c-0.1-0.7-0.7-1.2-1.5-1.2c-0.4,0-0.9,0.2-1.2,0.5
	c-0.4,0.3-0.6,0.7-0.7,1.1c-0.1,0.5-0.1,1.1-0.1,1.6v2.1h-0.8L151.7,44z"/>
<path class="st0" d="M159.1,43.8c0.2,0,0.3,0.1,0.4,0.2c0.1,0.1,0.2,0.3,0.2,0.4c0,0.2-0.1,0.3-0.2,0.4c-0.1,0.1-0.3,0.2-0.4,0.2
	c-0.2,0-0.3-0.1-0.4-0.2c-0.1-0.1-0.2-0.3-0.2-0.4c0-0.2,0.1-0.3,0.2-0.4C158.8,43.9,158.9,43.8,159.1,43.8z M158.7,46.2h0.8v5.8
	h-0.8V46.2z"/>
<path class="st0" d="M167.3,46.2v5.8h-0.7v-1c-0.3,0.4-0.7,0.7-1.1,0.9c-0.4,0.2-0.8,0.3-1.3,0.3c-0.8,0-1.6-0.3-2.1-0.9
	c-0.6-0.6-0.9-1.4-0.9-2.2c0-0.8,0.3-1.6,0.9-2.2c0.6-0.6,1.3-0.9,2.1-0.9c0.5,0,0.9,0.1,1.3,0.3c0.4,0.2,0.7,0.5,1,0.9v-1.1H167.3z
	 M164.3,46.8c-0.8,0-1.6,0.5-2,1.2c-0.2,0.4-0.3,0.8-0.3,1.2c0,0.8,0.4,1.6,1.2,2.1c0.3,0.2,0.7,0.3,1.1,0.3c0.4,0,0.8-0.1,1.2-0.3
	c0.4-0.2,0.6-0.5,0.9-0.8c0.2-0.4,0.3-0.8,0.3-1.2c0-0.6-0.2-1.2-0.7-1.7C165.6,47,165,46.8,164.3,46.8z"/>
<path class="st0" d="M169.5,46.2h0.8v1c0.3-0.4,0.6-0.7,1-0.9c0.4-0.2,0.8-0.3,1.2-0.3c0.4,0,0.8,0.1,1.2,0.3
	c0.3,0.2,0.6,0.5,0.8,0.9c0.2,0.6,0.3,1.2,0.2,1.8v3h-0.8v-2.8c0-0.5,0-0.9-0.1-1.3c-0.1-0.7-0.7-1.2-1.5-1.2
	c-0.4,0-0.9,0.2-1.2,0.5c-0.4,0.3-0.6,0.7-0.7,1.1c-0.1,0.5-0.1,1.1-0.1,1.6v2.1h-0.8V46.2z"/>
<path class="st0" d="M181.7,46.2h0.8v4.7c0,0.6,0,1.2-0.2,1.8c-0.2,0.5-0.5,1-1,1.2c-0.5,0.3-1.1,0.4-1.8,0.4
	c-0.5,0-0.9-0.1-1.4-0.2c-0.4-0.1-0.7-0.3-1-0.6c-0.3-0.3-0.5-0.6-0.7-1h0.8c0.2,0.4,0.5,0.7,0.9,0.9c0.8,0.4,1.8,0.4,2.6,0
	c0.3-0.2,0.6-0.4,0.8-0.7c0.2-0.4,0.3-0.9,0.2-1.4V51c-0.3,0.3-0.6,0.6-1,0.8c-0.4,0.2-0.9,0.3-1.3,0.3c-0.5,0-1.1-0.1-1.5-0.4
	c-0.5-0.2-0.8-0.6-1.1-1.1c-0.8-1.4-0.3-3.3,1.1-4.1c0,0,0,0,0,0c0.5-0.3,1-0.4,1.5-0.4c0.4,0,0.8,0.1,1.2,0.3
	c0.4,0.2,0.8,0.5,1.1,0.9L181.7,46.2z M179.5,46.8c-0.4,0-0.8,0.1-1.2,0.3c-0.4,0.2-0.7,0.5-0.9,0.9c-0.2,0.4-0.3,0.8-0.3,1.2
	c0,0.6,0.2,1.2,0.6,1.6c0.5,0.4,1.1,0.6,1.7,0.6c0.6,0,1.2-0.2,1.7-0.6c0.4-0.4,0.7-1,0.6-1.6c0-0.4-0.1-0.8-0.3-1.2
	c-0.2-0.3-0.5-0.6-0.8-0.8C180.3,46.9,179.9,46.8,179.5,46.8z"/>
<path class="st0" d="M188.1,52.1v-7.9h1.6c0.9,0,1.7,0.1,2.6,0.3c0.7,0.2,1.4,0.7,1.8,1.4c0.4,0.7,0.7,1.5,0.6,2.4
	c0,0.7-0.2,1.4-0.5,2.1c-0.3,0.6-0.7,1-1.3,1.3c-0.7,0.3-1.5,0.5-2.3,0.4H188.1z M188.9,51.3h0.9c0.8,0,1.5,0,2.3-0.2
	c0.6-0.2,1.1-0.5,1.4-1c0.4-0.5,0.5-1.2,0.5-1.8c0-0.7-0.2-1.4-0.6-2c-0.4-0.5-0.9-0.9-1.5-1.1c-0.8-0.2-1.6-0.3-2.4-0.2h-0.6V51.3z
	"/>
<path class="st0" d="M196.9,43.8c0.2,0,0.3,0.1,0.4,0.2c0.1,0.1,0.2,0.3,0.2,0.4c0,0.2-0.1,0.3-0.2,0.4c-0.1,0.1-0.3,0.2-0.4,0.2
	c-0.2,0-0.3-0.1-0.4-0.2c-0.1-0.1-0.2-0.3-0.2-0.4c0-0.2,0.1-0.3,0.2-0.4C196.6,43.9,196.8,43.8,196.9,43.8z M196.6,46.2h0.8v5.8
	h-0.8V46.2z"/>
<path class="st0" d="M202.3,46.9l-0.5,0.5c-0.3-0.3-0.7-0.6-1.2-0.6c-0.2,0-0.4,0.1-0.6,0.2c-0.2,0.1-0.3,0.3-0.3,0.6
	c0,0.2,0.1,0.4,0.2,0.5c0.3,0.3,0.6,0.5,0.9,0.6c0.4,0.2,0.8,0.5,1.1,0.8c0.2,0.3,0.3,0.6,0.3,0.9c0,0.5-0.2,0.9-0.5,1.2
	c-0.3,0.3-0.8,0.5-1.3,0.5c-0.3,0-0.7-0.1-1-0.2c-0.3-0.1-0.6-0.3-0.8-0.6l0.5-0.5c0.3,0.4,0.7,0.6,1.2,0.7c0.3,0,0.6-0.1,0.8-0.3
	c0.2-0.2,0.3-0.4,0.3-0.7c0-0.2-0.1-0.4-0.2-0.6c-0.3-0.3-0.6-0.5-1-0.6c-0.4-0.2-0.8-0.5-1.1-0.8c-0.4-0.6-0.4-1.5,0.2-2
	c0.3-0.3,0.7-0.5,1.1-0.4C201.2,46.1,201.8,46.4,202.3,46.9z"/>
<path class="st0" d="M204.7,44.1h0.8v2.2h1.2v0.7h-1.2v5.2h-0.8v-5.2h-1v-0.7h1V44.1z"/>
<path class="st0" d="M208,46.2h0.8v0.8c0.2-0.3,0.4-0.5,0.7-0.8c0.2-0.2,0.5-0.2,0.8-0.2c0.2,0,0.5,0.1,0.7,0.2l-0.4,0.6
	c-0.1-0.1-0.3-0.1-0.4-0.1c-0.3,0-0.5,0.1-0.7,0.3c-0.3,0.3-0.5,0.6-0.5,1c-0.1,0.7-0.2,1.3-0.1,2v2H208V46.2z"/>
<path class="st0" d="M212.3,43.8c0.2,0,0.3,0.1,0.4,0.2c0.1,0.1,0.2,0.3,0.2,0.4c0,0.2-0.1,0.3-0.2,0.4c-0.1,0.1-0.3,0.2-0.4,0.2
	c-0.3,0-0.6-0.3-0.6-0.6l0,0c0-0.2,0.1-0.3,0.2-0.4C212,43.9,212.1,43.8,212.3,43.8z M211.9,46.2h0.8v5.8h-0.8V46.2z"/>
<path class="st0" d="M220.4,47.4l-0.6,0.4c-0.5-0.7-1.3-1-2.1-1c-0.7,0-1.3,0.2-1.8,0.7c-0.5,0.4-0.7,1-0.7,1.7
	c0,0.4,0.1,0.8,0.3,1.2c0.2,0.4,0.5,0.7,0.9,0.9c0.4,0.2,0.8,0.3,1.3,0.3c0.8,0,1.6-0.3,2.1-1l0.6,0.4c-0.3,0.4-0.7,0.8-1.1,1
	c-0.5,0.2-1.1,0.4-1.6,0.3c-0.9,0-1.7-0.3-2.3-0.9c-0.6-0.6-0.9-1.3-0.9-2.1c0-0.6,0.1-1.1,0.4-1.6c0.3-0.5,0.7-0.9,1.2-1.2
	c0.9-0.5,1.9-0.5,2.8-0.2c0.3,0.1,0.6,0.3,0.9,0.5C220,46.9,220.2,47.2,220.4,47.4z"/>
<path class="st0" d="M222.9,44.1h0.8v2.2h1.2v0.7h-1.2v5.2h-0.8v-5.2h-1v-0.7h1V44.1z"/>
<path class="st0" d="M237.4,45.6l-0.6,0.5c-0.3-0.4-0.8-0.8-1.2-1c-0.5-0.2-1-0.4-1.6-0.3c-0.6,0-1.2,0.2-1.8,0.5
	c-0.5,0.3-0.9,0.7-1.2,1.2c-0.3,0.5-0.4,1.1-0.4,1.7c0,0.9,0.3,1.8,1,2.4c0.7,0.7,1.6,1,2.5,1c1.1,0,2.1-0.5,2.8-1.3l0.6,0.5
	c-0.4,0.5-0.9,0.9-1.5,1.1c-0.6,0.3-1.3,0.4-2,0.4c-2.2,0.1-4.1-1.6-4.3-3.8c0-0.1,0-0.2,0-0.3c0-1.1,0.4-2.2,1.2-2.9
	c0.8-0.8,1.9-1.2,3.1-1.2c0.7,0,1.4,0.1,2,0.4C236.6,44.7,237.1,45.1,237.4,45.6z"/>
<path class="st0" d="M242.1,46.1c0.9,0,1.7,0.4,2.2,1c0.5,0.6,0.8,1.3,0.8,2.1c0,0.8-0.3,1.6-0.9,2.1c-1.2,1.2-3.2,1.2-4.4,0
	c0,0,0,0,0,0c-0.5-0.6-0.9-1.3-0.9-2.1c0-0.8,0.3-1.5,0.8-2.1C240.5,46.4,241.3,46.1,242.1,46.1z M242.1,46.8
	c-0.6,0-1.2,0.2-1.6,0.7c-0.4,0.4-0.7,1-0.7,1.7c0,0.4,0.1,0.8,0.3,1.2c0.2,0.3,0.5,0.6,0.8,0.8c0.7,0.4,1.6,0.4,2.3,0
	c0.3-0.2,0.6-0.5,0.8-0.8c0.2-0.4,0.3-0.8,0.3-1.2c0-0.6-0.2-1.2-0.7-1.7C243.3,47.1,242.7,46.8,242.1,46.8z"/>
<path class="st0" d="M246.9,46.2h0.8V49c0,0.5,0,0.9,0.1,1.4c0.1,0.3,0.3,0.6,0.6,0.8c0.7,0.4,1.5,0.4,2.1,0
	c0.3-0.2,0.5-0.5,0.6-0.8c0.1-0.5,0.1-1,0.1-1.4v-2.8h0.8v2.9c0,0.6-0.1,1.2-0.3,1.8c-0.2,0.4-0.5,0.8-0.9,1
	c-0.4,0.2-0.9,0.4-1.4,0.3c-0.5,0-1-0.1-1.4-0.3c-0.4-0.2-0.7-0.6-0.9-1c-0.2-0.6-0.3-1.2-0.3-1.9V46.2z"/>
<path class="st0" d="M253.9,46.2h0.8v0.8c0.2-0.3,0.4-0.5,0.7-0.8c0.2-0.2,0.5-0.2,0.8-0.2c0.2,0,0.5,0.1,0.7,0.2l-0.4,0.6
	c-0.1-0.1-0.3-0.1-0.4-0.1c-0.3,0-0.5,0.1-0.7,0.3c-0.3,0.3-0.5,0.6-0.5,1c-0.1,0.7-0.2,1.3-0.1,2v2h-0.8L253.9,46.2z"/>
<path class="st0" d="M258.6,44.1h0.8v2.2h1.2v0.7h-1.2v5.2h-0.8v-5.2h-1v-0.7h1V44.1z"/>
<circle class="st0" cx="32.7" cy="31.4" r="30.3"/>
<linearGradient id="SVGID_1_" gradientUnits="userSpaceOnUse" x1="32.645" y1="5.22" x2="32.645" y2="28.47" gradientTransform="matrix(1 0 0 -1 0 66)">
	<stop  offset="0.69" style="stop-color:#B7A246"/>
	<stop  offset="1" style="stop-color:#FFFFFF"/>
</linearGradient>
<path class="st1" d="M61.5,37.8c-3.1,13.4-15.1,22.9-28.8,23c-14,0-25.9-10.2-28.9-23.2h7.4c2.8,9,11.5,16.1,21.5,16.1
	c9.8-0.1,18.4-6.5,21.4-15.8H61.5z"/>
<path class="st2" d="M53.6,31.3c0,11.6-9.4,21-21,21s-21-9.4-21-21s9.4-21,21-21S53.6,19.7,53.6,31.3L53.6,31.3z"/>
<path class="st0" d="M34.3,33.8H31V42c0,0.9,0.8,1.7,1.7,1.7c0.9,0,1.6-0.7,1.6-1.6c0,0,0,0,0,0V33.8z"/>
<path class="st0" d="M35.6,44h-5.8c-0.4,0-0.7,0.3-0.8,0.6c0,0,0,0,0,0v0.8c0,0.4,0.4,0.7,0.7,0.7c0,0,0,0,0,0h5.8
	c0.4,0,0.7-0.2,0.7-0.6c0,0,0,0,0,0v-0.8C36.3,44.3,35.9,44,35.6,44C35.6,44,35.6,44,35.6,44z"/>
<path class="st0" d="M36.7,46.9h-8c-0.6,0-1,0.3-1,0.7v0.8c0,0.4,0.4,0.7,1,0.7h8c0.5,0,1-0.3,1-0.7v-0.8
	C37.7,47.2,37.2,46.9,36.7,46.9z"/>
<path class="st0" d="M48.9,23.3c0-0.3-0.2-0.5-0.4-0.6c-0.4-0.3-1-0.2-1.4,0.1C44.7,25,41,25,38.5,22.8c-3.2-2.7-7.9-2.8-11.2-0.2h0
	l-0.2,0.2l0,0c-1.2,1.1-2.8,1.7-4.4,1.7c-1.6,0-3.2-0.6-4.4-1.7c-0.2-0.2-0.4-0.3-0.7-0.3c-0.2,0-0.5,0-0.7,0.2
	c-0.2,0.1-0.4,0.4-0.4,0.6v0.1c0,0.2,0.1,0.4,0.3,0.6c1.6,1.5,3.7,2.3,5.9,2.3c2,0,3.9-0.6,5.5-1.9l0,0l0,0l0.1-0.1
	c2.5-2.2,6.2-2.2,8.7-0.1c1.6,1.4,3.6,2.1,5.7,2.1c2.2,0,4.3-0.8,5.9-2.3c0.2-0.2,0.3-0.4,0.3-0.6V23.3z M48.9,23.3L48.9,23.3
	L48.9,23.3z"/>
<path class="st0" d="M36.1,17c0,1.9-1.6,3.4-3.5,3.4c-1.9,0-3.4-1.6-3.4-3.5c0-1.9,1.5-3.4,3.4-3.4C34.6,13.5,36.1,15.1,36.1,17z"/>
<path class="st0" d="M27.6,38.4l-5.3-12C22.2,26.2,22,26,21.7,26c-0.2,0-0.4,0.1-0.5,0.4l0,0l-5.3,12c-0.1,0.2-0.1,0.4,0,0.6
	c1.2,2,3.4,3.2,5.8,3.2c2.4,0.1,4.6-1.1,5.8-3.1C27.7,38.8,27.7,38.6,27.6,38.4z M21.7,28.1c0.3,0.7,4.3,9.8,4.6,10.4h-9.2l3.1-7
	L21.7,28.1z"/>
<path class="st0" d="M49.5,38.4l-5.3-12c-0.1-0.2-0.3-0.4-0.5-0.4c-0.2,0-0.4,0.1-0.5,0.4l0,0l-5.3,12c-0.1,0.2-0.1,0.4,0,0.6
	c1.2,2,3.4,3.2,5.8,3.2c2.4,0.1,4.6-1.1,5.8-3.1C49.6,38.8,49.6,38.6,49.5,38.4z M43.7,28.1l4.6,10.4h-9.2c0.2-0.4,2-4.5,2-4.5
	S43.4,28.8,43.7,28.1z"/>
<path class="st0" d="M38.3,25.4c-0.5,0-0.8,0.3-0.9,0.8c0,0.1,0,0.1,0,0.2h-1.2v-0.5h-7v0.5H28c0.1-0.4-0.3-0.9-0.7-0.9
	c-0.1,0-0.1,0-0.2,0c0,0-0.8,0-0.8,1v4.4c0,1.1,0.8,1,0.8,1c0.5,0,0.9-0.3,0.9-0.8c0,0,0-0.1,0-0.1h1.1v0.5H31V33h3.3v-1.5h1.9v-0.5
	h1.2c-0.1,0.5,0.3,0.9,0.7,0.9c0,0,0.1,0,0.1,0c0,0,0.8,0,0.8-1v-4.4C39,25.4,38.3,25.4,38.3,25.4z"/>
<path class="st0" d="M12.2,47.2h-0.3c0-0.3,0-0.5,0-0.8L10,48l-0.2-0.2l1.7-1.4c-0.3,0-0.6,0-0.9,0l0.1-0.3c0.8,0.1,1.7,0,2.5-0.2
	l-0.8-1l0.2-0.2l1,1.3l-0.2,0.2c-0.4,0.1-0.8,0.2-1.2,0.2C12.2,46.6,12.2,46.9,12.2,47.2z M12.6,51.2L12.4,51l0.2-0.2l-1.6-2
	L10.8,49l-0.2-0.2l2-1.7l2.1,2.5L12.6,51.2z M12,49.5l0.6-0.5l-0.7-0.9l-0.6,0.5L12,49.5z M12.8,48.8l0.5-0.4l-0.7-0.9L12,48
	L12.8,48.8z M12.9,50.6l0.6-0.5l-0.7-0.9l-0.6,0.5L12.9,50.6z M13.7,50l0.5-0.4l-0.7-0.9L13,49.1L13.7,50z M14.9,49.1L13.1,47l1-0.8
	l1.8,2.2L14.9,49.1z M13.6,45.2l-0.3-0.1c0.1-0.3,0.2-0.6,0.3-0.9l0.3,0.1C13.8,44.7,13.7,45,13.6,45.2L13.6,45.2z M14.9,48.7
	l0.5-0.4L14,46.7l-0.5,0.4L14.9,48.7z M16.5,48.4l-2.3-2.9l0.2-0.2l2.3,2.9L16.5,48.4z"/>
<path class="st0" d="M18.6,55.6l-0.2,0.2c-0.3-0.2-0.6-0.4-0.9-0.7c-0.4-0.3-0.9-0.6-1.2-1c-0.2-0.2-0.5-0.5-0.6-0.7
	c-0.2-0.3-0.3-0.6-0.4-0.9c-0.4,0.1-0.8,0.2-1.2,0.2v-0.3c0.4,0,0.8-0.1,1.2-0.2c0-0.4,0.1-0.9,0.2-1.3l0.3,0.1
	c-0.2,0.3-0.2,0.7-0.3,1.1c0.5-0.2,0.9-0.6,1.2-1l-0.9-0.7l0.2-0.2c0.6-0.2,1.3-0.3,1.9-0.6l-1-0.8l0.2-0.2l1.3,1l-0.2,0.2
	c-0.6,0.2-1.2,0.4-1.9,0.6l0.9,0.7c-0.4,0.6-1,1.1-1.6,1.4c0,0.3,0.1,0.5,0.3,0.8c0.1,0.2,0.3,0.5,0.5,0.7c0.2,0.2,0.6,0.5,1.3,1.1
	C17.9,55.1,18.3,55.4,18.6,55.6z M20.5,52.9l-0.4-0.3l-0.5,0.7l-1.2-0.9l-0.3,0.4l1.3,0.9l-0.2,0.2l-1.3-1l-0.3,0.4l1.4,1.1
	l-0.2,0.2l-1.5-1.1l-0.4,0.5L16.9,54l0.4-0.5L16,52.6l0.2-0.2l1.3,1l0.3-0.4l-1.1-0.8l0.2-0.2l1.1,0.8l0.3-0.4l-1-0.7l0.2-0.2l1,0.7
	l0.3-0.5l-1.3-0.9l0.2-0.2l1.3,1l0.3-0.4l-1-0.7l0.2-0.3l1,0.7l0.3-0.4l0.2,0.2l-0.3,0.4l1.2,0.9l-0.5,0.7l0.4,0.3L20.5,52.9z
	 M19.5,52.9l0.3-0.5L19,51.8l-0.3,0.5L19.5,52.9z M20,52.2l0.3-0.4l-0.9-0.7l-0.3,0.4L20,52.2z"/>
<path class="st0" d="M25.1,58.3l-0.2,0.2l-2.2-0.9c-0.8-0.2-1.4-0.7-1.8-1.4c-0.3,0.2-0.6,0.4-1,0.5l-0.2-0.3
	c0.8-0.2,1.4-0.7,1.9-1.3l-1-0.4l0.1-0.3c0.5-0.2,0.9-0.5,1.4-0.8l-1-0.4l0-0.3l1.4,0.5l-0.1,0.3c-0.3,0.2-0.7,0.4-1.3,0.8l0.9,0.4
	l-0.1,0.3c-0.2,0.3-0.5,0.6-0.8,0.9c0.3,0.6,0.9,1.1,1.6,1.3L25.1,58.3z M22.6,53.1l-0.3,0.1c-0.1-0.4-0.3-0.8-0.5-1.2L22,52
	C22.2,52.3,22.4,52.7,22.6,53.1z M25.4,57.5l-1.5-0.6l-0.2,0.6l-0.3-0.1l0.2-0.6L22,56.1l0.1-0.3l1.6,0.6l0.2-0.4l-1.3-0.5l0.7-1.8
	l1.3,0.5l0.2-0.4l-1.5-0.6l0.1-0.3l1.5,0.6l0.2-0.4l0.3,0.1l-0.2,0.4l1.5,0.6l-0.1,0.3L25,53.9l-0.2,0.4l1.3,0.5l-0.7,1.8l-1.3-0.5
	L24,56.6l1.5,0.6L25.4,57.5z M23.9,55.8l0.2-0.5l-1-0.4l-0.2,0.5L23.9,55.8z M24.2,55l0.2-0.5l-1-0.4l-0.2,0.5L24.2,55z M25.2,56.3
	l0.2-0.5l-1-0.4l-0.2,0.5L25.2,56.3z M25.5,55.5l0.2-0.5l-1-0.4l-0.2,0.5L25.5,55.5z"/>
<path class="st0" d="M28.2,57.3c-0.4,0.7-0.9,1.3-1.5,1.8l-0.2-0.2c0.6-0.5,1.1-1.1,1.4-1.8L28.2,57.3z M28.2,56.3L28,56.5
	c-0.3-0.3-0.6-0.6-1-0.8l0.2-0.3C27.6,55.6,27.9,55.9,28.2,56.3z M28.5,54.9l-0.3,0.2c-0.3-0.4-0.6-0.7-1-1l0.3-0.2
	C27.9,54.2,28.2,54.5,28.5,54.9z M32,59.5L27.9,59v-0.3l2,0.2l0.5-4.2l-1.6-0.2v-0.3l3.6,0.4v0.3l-1.6-0.2L30.3,59l1.8,0.2L32,59.5z
	"/>
<path class="st0" d="M35.3,58.2c-0.5,0.4-1.1,0.7-1.7,1L33.4,59c0.3-0.1,0.5-0.2,0.8-0.4l-0.3-2.3l-0.7,0.1V56l0.7-0.1l-0.2-1.4h0.3
	l0.2,1.4l0.7-0.1v0.3l-0.7,0.1l0.3,2.2l0.7-0.4L35.3,58.2z M38.9,57.9c0,0.3,0,0.6-0.1,0.8c-0.1,0.1-0.2,0.2-0.3,0.3
	c-0.1,0-0.4,0.1-1,0.2l-1.4,0.2c-0.1,0-0.2,0-0.3-0.1c-0.1-0.1-0.1-0.2-0.1-0.3l-0.3-2.4l-0.5,0.2l-0.1-0.3l0.6-0.3l-0.2-1.2h0.3
	l0.1,1.1l1-0.4l-0.2-1.5h0.3l0.2,1.4l1.3-0.6c0.1,0.8,0.1,1.7,0,2.5H38c0.1-0.7,0.1-1.3,0.1-2l-1,0.5l0.2,2.1h-0.3l-0.3-2.2l-1,0.5
	l0.3,2.6c0,0,0,0,0,0.1c0,0,0.1,0,0.1,0c0.1,0,0.3,0,0.4,0l0.7-0.1c0.4,0,0.8-0.1,1.2-0.2c0.1,0,0.2-0.3,0.1-0.8L38.9,57.9z"/>
<path class="st0" d="M44.2,52.9L41,54.2c0.1,0.3,0.2,0.6,0.4,1l2.5-1c0.2,0.5,0.4,1,0.5,1.5c0.1,0.3,0.2,0.7,0.2,1
	c0,0.1-0.1,0.3-0.2,0.4c-0.2,0.2-0.5,0.3-0.7,0.4l-0.4,0.2l-0.2-0.3c0.2-0.1,0.4-0.1,0.6-0.2c0.2-0.1,0.3-0.1,0.5-0.2
	c0-0.1,0.1-0.1,0.1-0.2c0-0.3-0.1-0.5-0.2-0.8c-0.1-0.4-0.2-0.8-0.4-1.2l-2.2,0.9c0.3,1.1,0,2.2-0.7,3.1l-0.3-0.1
	c0.3-0.3,0.5-0.7,0.7-1.2c0.2-0.4,0.2-0.9,0.2-1.3c-0.1-0.6-0.3-1.1-0.5-1.7L39.1,55L39,54.6l2.5-1c-0.3-0.2-0.6-0.4-0.9-0.6
	l0.2-0.3c0.4,0.2,0.7,0.4,1,0.7l2.3-0.9L44.2,52.9z"/>
<path class="st0" d="M45.6,51.3l-0.1,0.3c-0.4,0-0.9,0-1.3,0v-0.3C44.7,51.2,45.2,51.2,45.6,51.3z M46.4,52.5v0.3
	c-0.4-0.1-0.9-0.1-1.3,0v-0.3C45.5,52.5,46,52.5,46.4,52.5z M50,50.3l-1.6,1.2c0.1,0.8,0.2,1.7,0.1,2.5c0.6-0.6,1.2-1.2,1.8-1.9
	c-0.4-0.1-0.7-0.3-1.1-0.3l0.1-0.3c0.7,0.2,1.4,0.4,2.1,0.7l-0.1,0.3c-0.2-0.1-0.5-0.2-0.7-0.3c-0.7,0.8-1.4,1.6-2.2,2.3l-0.3-0.2
	c0.1-0.3,0.2-0.7,0.2-1c0-0.5-0.1-1.1-0.2-1.6l-1.2,1l-0.2-0.2l1.5-1.1l-0.7-0.9l-1.2,0.9L46,51.1l1.2-0.9l-0.6-0.7l0.3-0.2l0.6,0.7
	l1.2-0.9l0.2,0.2l-1.2,0.9l0.7,0.9l1.4-1.1L50,50.3z M47,53.3c0.2,0.8,0.3,1.5,0.3,2.3H47c0-0.8-0.1-1.5-0.3-2.3L47,53.3z"/>
<path class="st0" d="M50.8,48.1c0.5,0,1,0.1,1.4,0.5c0.1,0.1,0.2,0.2,0.2,0.4c0,0.2-0.1,0.3-0.3,0.6l-0.2,0.2l-0.3-0.1l0.2-0.3
	c0.1-0.1,0.2-0.2,0.2-0.3c0-0.1,0-0.2-0.1-0.2c-0.4-0.3-0.9-0.4-1.4-0.4c-0.2-0.4-0.5-0.8-0.8-1.3l-0.6,0.7l3.7,3l-0.2,0.2l-4-3.2
	l1-1.2l0.2,0.2C50.3,47.2,50.6,47.7,50.8,48.1z M53.4,44.9l-0.2,0.3l-0.7-0.6l-1.7,2.1l0.7,0.6l-0.2,0.3l-0.9-0.8l0.9-1.2
	c-0.2-0.1-0.4-0.1-0.6-0.2l0.2-0.3c0.2,0.1,0.4,0.1,0.6,0.2l1-1.2L53.4,44.9z M53.1,45.4l-1.4,1.7l-0.2-0.2l1.4-1.7L53.1,45.4z
	 M55.2,46.2c0.2,0.1,0.4,0.3,0.5,0.5c0.1,0.1,0.1,0.3,0.1,0.4c-0.1,0.2-0.2,0.4-0.3,0.5c-0.2,0.3-0.4,0.3-0.6,0.2l-1.4-1.2L53,47.2
	c0.4,0.3,0.7,0.8,0.9,1.3c0.1,0.5,0.1,0.9-0.1,1.3h-0.3c0.2-0.4,0.2-0.9,0.1-1.3c-0.1-0.4-0.4-0.8-0.8-1.1l-0.6,0.7L52,48l2.1-2.6
	l0.2,0.2l-0.7,0.8l1.4,1.1c0,0,0.1,0,0.1,0c0,0,0.1-0.1,0.2-0.2c0.1-0.1,0.1-0.2,0.2-0.2c0,0,0-0.1,0-0.1c0-0.1-0.1-0.2-0.2-0.2
	c-0.1-0.1-0.3-0.2-0.4-0.3L55.2,46.2z"/>
<path class="st3" d="M5.5,34.1L6.6,34l-0.1-1h0.6l0.1,1l1.9-0.2l0.1,0.6l-4.2,0.4l-0.1-1.7L5.4,33L5.5,34.1z"/>
<path class="st3" d="M4.7,32.2v-0.6l2.4,0c0.9,0,1.4-0.2,1.4-0.6S8,30.4,7.1,30.3l-2.4,0v-0.5h2.5c1.2,0,1.8,0.4,1.8,1.2
	s-0.6,1.2-1.8,1.2H4.7z"/>
<path class="st3" d="M6.2,26.6c-0.3,0.1-0.5,0.4-0.5,0.6c0,0.3,0.1,0.6,0.4,0.8c0.3,0.2,0.6,0.4,1,0.4c0.4,0.1,0.8,0,1.1-0.1
	c0.4-0.1,0.7-0.6,0.5-1c-0.1-0.2-0.2-0.3-0.3-0.4l0.9,0.1c0.1,0.2,0.2,0.5,0.1,0.8c-0.1,0.4-0.4,0.8-0.8,1c-0.5,0.3-1.1,0.3-1.6,0.2
	c-0.6-0.1-1.1-0.3-1.5-0.7c-0.3-0.3-0.5-0.8-0.4-1.2c0-0.3,0.2-0.5,0.3-0.7L6.2,26.6z"/>
<path class="st3" d="M7.5,24.1l-1.7-0.5L6,23.1l4.1,1.1L10,24.7l-1.9-0.5l-0.3,1.3L9.6,26l-0.1,0.5l-4.1-1.1l0.1-0.5l1.7,0.5
	L7.5,24.1z"/>
<path class="st3" d="M10.5,23.1l-0.2,0.5l-4-1.5l0.2-0.5L10.5,23.1z"/>
<path class="st3" d="M7.6,20.5l1,0.5l0.4-1l0.6,0.2l-0.4,1l1.2,0.5l0.5-1l0.6,0.2l-0.7,1.5l-3.9-1.8l0.7-1.5l0.6,0.2L7.6,20.5z"/>
<path class="st3" d="M7.9,18.2l0.2-0.4l3.7,0.1l-2.6-1.6l0.3-0.5l3.7,2.2l-0.2,0.4l-3.7-0.1l2.7,1.6l-0.3,0.5L7.9,18.2z"/>
<path class="st3" d="M14.5,15.3l0.7-0.7l0.4,0.4l-1,1.1l-3.2-2.8l0.4-0.4L14.5,15.3z"/>
<path class="st3" d="M16.3,14.4l-0.4,0.4l-3-3l0.4-0.4L16.3,14.4z"/>
<path class="st3" d="M14.7,10.9l0.7,0.9l0.8-0.7l0.4,0.5l-0.8,0.7l0.9,1l0.9-0.7l0.4,0.5L16.7,14l-2.8-3.2l1.3-1.1l0.4,0.5
	L14.7,10.9z"/>
<path class="st3" d="M16,8.9l0.4-0.2l3.3,1.6L18,7.7l0.5-0.3l2.4,3.6l-0.3,0.2l-3.3-1.6l1.7,2.6l-0.5,0.3L16,8.9z"/>
<path class="st3" d="M21.8,6.8c-0.2-0.2-0.5-0.2-0.8-0.1c-0.3,0.1-0.5,0.4-0.5,0.8c0,0.4,0,0.8,0.2,1.1c0.2,0.3,0.4,0.6,0.7,0.8
	c0.3,0.2,0.6,0.2,0.9,0.1c0.3-0.1,0.4-0.4,0.5-0.7l0.4,0.8c-0.1,0.2-0.3,0.4-0.5,0.6c-0.4,0.2-0.9,0.2-1.3-0.1
	c-0.5-0.3-0.9-0.7-1.1-1.2c-0.3-0.5-0.4-1.1-0.3-1.6C20,6.5,20.5,6,21.3,6c0.1,0,0.1,0,0.2,0L21.8,6.8z"/>
<path class="st3" d="M24.7,6.5l-0.6-1.6l0.5-0.2l1.4,4l-0.5,0.2L24.9,7l-1.3,0.4l0.6,1.8l-0.5,0.2l-1.4-4l0.5-0.2L23.4,7L24.7,6.5z"
	/>
<path class="st3" d="M27.2,8.4l-0.5,0.1l-1-4.1l0.5-0.1L27.2,8.4z"/>
<path class="st3" d="M28.2,7.2l-0.1,1l-0.6,0.1l0.6-4.5l0.5-0.1l1.9,4.1L29.9,8l-0.4-0.9L28.2,7.2z M28.4,4.8l-0.2,1.8l1-0.2
	L28.4,4.8z"/>
<path class="st3" d="M30.7,3.5h0.4L33,6.6V3.6h0.5l0.1,4.3h-0.4l-1.9-3.2l0,3.1h-0.5L30.7,3.5z"/>
<path class="st3" d="M37.4,5.9L37.4,5.9c0,0.6-0.3,1.2-0.6,1.7c-0.3,0.4-0.7,0.5-1.2,0.5c-0.4-0.1-0.8-0.4-1-0.8
	c-0.2-0.5-0.3-1.1-0.2-1.6c0.1-0.6,0.3-1.1,0.6-1.5c0.5-0.6,1.3-0.7,1.9-0.2c0.3,0.2,0.5,0.5,0.5,0.9l-0.5,0.3
	c-0.1-0.5-0.3-0.8-0.7-0.8c-0.3,0-0.6,0.1-0.8,0.4C35.1,5,35,5.4,34.9,5.8c-0.1,0.4,0,0.8,0.1,1.1c0.1,0.3,0.4,0.5,0.7,0.6
	c0.3,0,0.5-0.1,0.7-0.3c0.2-0.2,0.3-0.5,0.3-0.8l-0.8-0.1L36,5.8L37.4,5.9z"/>
<path class="st3" d="M40.8,4.7L41.6,5c0.4,0.1,0.8,0.5,0.9,0.9c0.1,0.5,0.1,1.1-0.1,1.6c-0.2,0.5-0.5,1-0.9,1.3
	c-0.4,0.3-0.8,0.4-1.3,0.2l-0.9-0.3L40.8,4.7z M40.1,8.3l0.2,0.1c0.7,0.3,1.3-0.1,1.6-1s0.1-1.5-0.6-1.8l-0.2-0.1L40.1,8.3z"/>
<path class="st3" d="M42.6,10l-0.5-0.2l1.7-3.9l0.5,0.2L42.6,10z"/>
<path class="st3" d="M46.2,8c0-0.2-0.1-0.5-0.3-0.6c-0.1-0.1-0.3-0.1-0.4,0c-0.1,0.1-0.3,0.2-0.3,0.3c-0.1,0.2,0,0.4,0.2,0.8
	l0.3,0.6c0.1,0.3,0.1,0.6-0.1,0.9c-0.2,0.3-0.4,0.6-0.8,0.8c-0.3,0.1-0.6,0.1-0.9,0c-0.4-0.3-0.6-0.7-0.5-1.2l0.5-0.2
	c0,0.2,0,0.3,0,0.5c0,0.1,0.1,0.3,0.2,0.4c0.1,0.1,0.3,0.1,0.4,0c0.2-0.1,0.3-0.2,0.4-0.4c0.1-0.1,0.1-0.2,0.1-0.4
	c-0.1-0.3-0.2-0.5-0.4-0.8c-0.2-0.3-0.2-0.8,0-1.1c0.1-0.3,0.4-0.5,0.7-0.7c0.2-0.1,0.5-0.1,0.8,0c0.3,0.2,0.5,0.5,0.6,0.8L46.2,8z"
	/>
<path class="st3" d="M46,12l-0.4-0.3l2-3L47,8.3l0.3-0.5L49,8.9l-0.3,0.5L48.1,9L46,12z"/>
<path class="st3" d="M48.6,13.9l-0.5-0.4l0.5-2L47.3,13l-0.4-0.4l2.7-3.3l0.7,0.6c0.6,0.5,0.6,1,0,1.7c-0.2,0.2-0.4,0.4-0.7,0.5
	c-0.2,0.1-0.4,0-0.6-0.1L48.6,13.9z M48.7,11.2l0.1,0.1c0.3,0.2,0.7,0.2,0.9,0c0,0,0.1-0.1,0.1-0.1c0.3-0.2,0.3-0.6,0.1-0.9
	c0,0-0.1-0.1-0.1-0.1l-0.1-0.1L48.7,11.2z"/>
<path class="st3" d="M49.2,14.6l-0.4-0.4l3-3.1l0.4,0.4L49.2,14.6z"/>
<path class="st3" d="M53.5,14.5c0.1-0.3,0.1-0.6-0.1-0.8c-0.2-0.2-0.5-0.3-0.9-0.2c-0.8,0.1-1.4,0.7-1.6,1.4
	c-0.1,0.3-0.1,0.6,0.1,0.9c0.2,0.2,0.5,0.3,0.8,0.2l-0.7,0.6c-0.3-0.1-0.5-0.2-0.7-0.4c-0.3-0.4-0.4-0.8-0.3-1.3
	c0.1-0.5,0.4-1,0.9-1.4c0.4-0.4,0.9-0.6,1.5-0.7c0.5-0.1,0.9,0.1,1.3,0.4c0.2,0.2,0.3,0.4,0.3,0.7L53.5,14.5z"/>
<path class="st3" d="M52,17.9l-0.3-0.4l3-2.1l-0.4-0.6l0.5-0.4l1.1,1.6l-0.5,0.4L55,15.7L52,17.9z"/>
<path class="st3" d="M57.4,21c0.2-0.2,0.2-0.6,0.1-0.8c-0.1-0.3-0.4-0.5-0.8-0.5c-0.8-0.1-1.6,0.3-2,0.9c-0.2,0.3-0.2,0.6-0.1,0.9
	c0.1,0.3,0.4,0.4,0.7,0.5l-0.8,0.4c-0.2-0.1-0.4-0.3-0.5-0.6c-0.2-0.4-0.2-0.9,0.1-1.3c0.3-0.5,0.7-0.9,1.2-1.1
	c0.5-0.3,1.1-0.4,1.7-0.3c0.5,0.1,0.9,0.3,1.1,0.8c0.1,0.2,0.1,0.5,0.1,0.8L57.4,21z"/>
<path class="st3" d="M56.7,22c0.5-0.2,1.1-0.2,1.7,0c0.7,0.2,1.2,0.9,1,1.6c-0.1,0.2-0.2,0.4-0.3,0.6c-0.7,0.9-1.9,1.3-3,1
	c-0.7-0.2-1.2-0.9-1.1-1.6c0.1-0.2,0.2-0.5,0.3-0.6C55.7,22.5,56.2,22.2,56.7,22z M56.9,22.6c-0.4,0.1-0.7,0.3-1,0.6
	c-0.2,0.2-0.3,0.6-0.2,0.9c0.1,0.3,0.4,0.5,0.7,0.6c0.4,0.1,0.8,0.1,1.2-0.1c0.4-0.1,0.7-0.3,0.9-0.6c0.2-0.2,0.3-0.6,0.2-0.9
	c-0.1-0.3-0.3-0.5-0.6-0.6C57.6,22.5,57.3,22.5,56.9,22.6z"/>
<path class="st3" d="M59.9,25.5L60,26l-2.3,0.4c-0.9,0.1-1.3,0.5-1.2,0.9s0.6,0.6,1.5,0.4l2.3-0.4l0.1,0.5l-2.5,0.4
	c-1.2,0.2-1.9-0.1-2-0.9s0.4-1.3,1.6-1.5L59.9,25.5z"/>
<path class="st3" d="M56.3,31.4v-0.7l1.8-1l-1.9,0.1v-0.5l4.2-0.2v0.9c0,0.7-0.4,1.1-1.2,1.2c-0.3,0-0.6,0-0.8-0.1
	c-0.2-0.1-0.4-0.3-0.4-0.5L56.3,31.4z M58.4,29.6v0.2c0,0.5,0.3,0.7,0.8,0.6s0.7-0.3,0.7-0.7v-0.2L58.4,29.6z"/>
<path class="st3" d="M56.3,32.7v-0.5l3.6,0.2v-0.7h0.6l-0.1,2h-0.6v-0.7L56.3,32.7z"/>
</svg>
