<?xml version="1.0" encoding="utf-8"?>
<!-- Generator: Adobe Illustrator 27.8.1, SVG Export Plug-In . SVG Version: 6.00 Build 0)  -->
<svg version="1.1" id="圖層_1" xmlns="http://www.w3.org/2000/svg" xmlns:xlink="http://www.w3.org/1999/xlink" x="0px" y="0px"
	 viewBox="0 0 30 30" style="enable-background:new 0 0 30 30;" xml:space="preserve">
<style type="text/css">
	.st0{fill:#FFFFFF;}
</style>
<g>
	<path class="st0" d="M23.9,26.8H8.7c-0.2,0-0.4-0.2-0.4-0.4c0-0.2,0.2-0.4,0.4-0.4c1.1,0,2-0.9,2-2v-2.4c0-0.2,0.2-0.4,0.4-0.4
		h15.4c0.2,0,0.4,0.2,0.4,0.4v2.1C27,25.4,25.6,26.8,23.9,26.8z M10.8,25.9h13.1c1.2,0,2.2-1,2.2-2.2V22H11.6v2
		C11.6,24.7,11.3,25.4,10.8,25.9z"/>
	<path class="st0" d="M8.7,26.8c-0.7,0-1.4-0.3-2-0.8c-0.6-0.6-0.9-1.3-0.9-2.1V5.3c0-1-0.8-1.8-1.8-1.8C3.8,3.4,3.6,3.2,3.6,3
		S3.8,2.5,4,2.5h18.4c0.2,0,0.4,0.2,0.4,0.4s-0.2,0.4-0.4,0.4H6c0.4,0.5,0.7,1.1,0.7,1.8v18.6c0,0.5,0.2,1.1,0.6,1.5
		c0.4,0.4,0.9,0.6,1.4,0.6c1.1,0,1.9-0.9,1.9-2v-2.4c0-0.2,0.2-0.4,0.4-0.4H22v-3.8c0-0.2,0.2-0.4,0.4-0.4c0.2,0,0.4,0.2,0.4,0.4
		v4.3c0,0.2-0.2,0.4-0.4,0.4H11.6v2C11.6,25.5,10.3,26.8,8.7,26.8C8.8,26.8,8.7,26.8,8.7,26.8z"/>
	<path class="st0" d="M4.6,10.8h-3c-0.2,0-0.4-0.2-0.4-0.4V5.5c0-1.6,1.3-2.9,2.9-2.9c0.2,0,0.4,0.2,0.4,0.4S4.3,3.4,4,3.4
		c-1.1,0-2,0.9-2,2v4.4h2.6c0.2,0,0.4,0.2,0.4,0.4C5,10.6,4.8,10.8,4.6,10.8z"/>
	<path class="st0" d="M14.2,7.2H8.5C8.2,7.2,8,7,8,6.8c0-0.2,0.2-0.4,0.4-0.4h5.7c0.2,0,0.4,0.2,0.4,0.4C14.6,7,14.4,7.2,14.2,7.2z"
		/>
	<path class="st0" d="M13.5,9h-5C8.2,9,8,8.8,8,8.5s0.2-0.4,0.4-0.4h5c0.2,0,0.4,0.2,0.4,0.4S13.7,9,13.5,9z"/>
	<path class="st0" d="M12.8,10.7H8.5c-0.2,0-0.4-0.2-0.4-0.4s0.2-0.4,0.4-0.4h4.3c0.2,0,0.4,0.2,0.4,0.4S13,10.7,12.8,10.7z"/>
	<path class="st0" d="M12.8,12.5H8.5C8.2,12.5,8,12.3,8,12s0.2-0.4,0.4-0.4h4.3c0.2,0,0.4,0.2,0.4,0.4S13,12.5,12.8,12.5z"/>
	<path class="st0" d="M15.2,14.2H8.5C8.2,14.2,8,14,8,13.8s0.2-0.4,0.4-0.4h6.7c0.2,0,0.4,0.2,0.4,0.4S15.5,14.2,15.2,14.2z"/>
	<path class="st0" d="M15.2,15.9H8.5c-0.2,0-0.4-0.2-0.4-0.4s0.2-0.4,0.4-0.4h6.7c0.2,0,0.4,0.2,0.4,0.4S15.5,15.9,15.2,15.9z"/>
	<path class="st0" d="M20.7,17.7H8.5c-0.2,0-0.4-0.2-0.4-0.4s0.2-0.4,0.4-0.4h12.2c0.2,0,0.4,0.2,0.4,0.4S20.9,17.7,20.7,17.7z"/>
	<path class="st0" d="M20.7,19.4H8.5C8.2,19.4,8,19.2,8,19s0.2-0.4,0.4-0.4h12.2c0.2,0,0.4,0.2,0.4,0.4S20.9,19.4,20.7,19.4z"/>
	<path class="st0" d="M26.3,13c-1.4,0-2.6-1.2-2.6-2.6c0-0.2,0.2-0.4,0.4-0.4h4.3c0.2,0,0.4,0.2,0.4,0.4C28.9,11.8,27.7,13,26.3,13z
		 M24.7,10.8c0.2,0.7,0.9,1.3,1.6,1.3c0.8,0,1.4-0.5,1.6-1.3H24.7z"/>
	<path class="st0" d="M27.9,10.8c-0.2,0-0.4-0.1-0.4-0.3l-1.2-3.4l-1.2,3.4c-0.1,0.2-0.3,0.4-0.6,0.3c-0.2-0.1-0.4-0.3-0.3-0.6
		l1.6-4.6c0.1-0.2,0.2-0.3,0.4-0.3c0.2,0,0.4,0.1,0.4,0.3l1.6,4.6c0.1,0.2,0,0.5-0.3,0.6C28,10.8,27.9,10.8,27.9,10.8z"/>
	<path class="st0" d="M26.3,6.2h-10c-0.2,0-0.4-0.2-0.4-0.4s0.2-0.4,0.4-0.4h10c0.2,0,0.4,0.2,0.4,0.4S26.5,6.2,26.3,6.2z"/>
	<path class="st0" d="M16.3,13c-1.4,0-2.6-1.2-2.6-2.6c0-0.2,0.2-0.4,0.4-0.4h4.3c0.2,0,0.4,0.2,0.4,0.4C18.9,11.8,17.7,13,16.3,13z
		 M14.7,10.8c0.2,0.7,0.9,1.3,1.6,1.3c0.8,0,1.4-0.5,1.6-1.3H14.7z"/>
	<path class="st0" d="M17.9,10.8c-0.2,0-0.4-0.1-0.4-0.3l-1.2-3.4l-1.2,3.4c-0.1,0.2-0.3,0.4-0.6,0.3c-0.2-0.1-0.4-0.3-0.3-0.6
		l1.6-4.6c0.1-0.2,0.2-0.3,0.4-0.3c0.2,0,0.4,0.1,0.4,0.3l1.6,4.6c0.1,0.2,0,0.5-0.3,0.6C18,10.8,18,10.8,17.9,10.8z"/>
	<path class="st0" d="M21.3,13.7c-0.2,0-0.4-0.2-0.4-0.4V4.9c0-0.2,0.2-0.4,0.4-0.4c0.2,0,0.4,0.2,0.4,0.4v8.4
		C21.7,13.5,21.5,13.7,21.3,13.7z"/>
	<path class="st0" d="M23.4,15.7h-4.1c-0.2,0-0.4-0.2-0.4-0.4v-2c0-0.2,0.2-0.4,0.4-0.4h4.1c0.2,0,0.4,0.2,0.4,0.4v2
		C23.8,15.5,23.6,15.7,23.4,15.7z M19.7,14.8h3.2v-1.1h-3.2V14.8z"/>
	<path class="st0" d="M25.6,17.7H17c-0.2,0-0.4-0.2-0.4-0.4v-2c0-0.2,0.2-0.4,0.4-0.4h8.7c0.2,0,0.4,0.2,0.4,0.4v2
		C26.1,17.5,25.9,17.7,25.6,17.7z M17.4,16.8h7.8v-1.1h-7.8V16.8z"/>
	<path class="st0" d="M27.9,17.7H14.7c-0.2,0-0.4-0.2-0.4-0.4s0.2-0.4,0.4-0.4h13.2c0.2,0,0.4,0.2,0.4,0.4S28.1,17.7,27.9,17.7z"/>
</g>
</svg>
