<?xml version="1.0" encoding="utf-8"?>
<!-- Generator: Adobe Illustrator 27.8.1, SVG Export Plug-In . SVG Version: 6.00 Build 0)  -->
<svg version="1.1" id="圖層_1" xmlns="http://www.w3.org/2000/svg" xmlns:xlink="http://www.w3.org/1999/xlink" x="0px" y="0px"
	 viewBox="0 0 30 30" style="enable-background:new 0 0 30 30;" xml:space="preserve">
<style type="text/css">
	.st0{fill:#FFFFFF;}
</style>
<g>
	<path class="st0" d="M15,6c-1,0-1.8-0.8-1.8-1.8S14,2.4,15,2.4c1,0,1.8,0.8,1.8,1.8S16,6,15,6z M15,3.3c-0.5,0-0.9,0.4-0.9,0.9
		c0,0.5,0.4,0.9,0.9,0.9c0.5,0,0.9-0.4,0.9-0.9C15.9,3.7,15.5,3.3,15,3.3z"/>
	<path class="st0" d="M15,8.1c-0.3,0-0.5-0.2-0.5-0.5V5.5c0-0.3,0.2-0.5,0.5-0.5c0.3,0,0.5,0.2,0.5,0.5v2.1
		C15.5,7.9,15.3,8.1,15,8.1z"/>
	<path class="st0" d="M16.6,19.4c-0.3,0-0.5-0.2-0.5-0.5v-0.7c0-0.3,0.2-0.5,0.5-0.5c0.3,0,0.5,0.2,0.5,0.5v0.7
		C17.1,19.2,16.9,19.4,16.6,19.4z"/>
	<path class="st0" d="M16.6,16c-0.3,0-0.5-0.2-0.5-0.5v-1.3c0-0.3,0.2-0.5,0.5-0.5c0.3,0,0.5,0.2,0.5,0.5v1.3
		C17.1,15.8,16.9,16,16.6,16z"/>
	<path class="st0" d="M16.6,12c-0.3,0-0.5-0.2-0.5-0.5v-0.7c0-0.3,0.2-0.5,0.5-0.5c0.3,0,0.5,0.2,0.5,0.5v0.7
		C17.1,11.8,16.9,12,16.6,12z"/>
	<path class="st0" d="M16.6,21.7h-3.2c-0.3,0-0.5-0.2-0.5-0.5v-12c0-1.1,0.9-2.1,2.1-2.1c1.1,0,2.1,0.9,2.1,2.1v1.5
		c0,0.3-0.2,0.5-0.5,0.5c-0.3,0-0.5-0.2-0.5-0.5V9.2c0-0.6-0.5-1.1-1.1-1.1c-0.6,0-1.1,0.5-1.1,1.1v11.5h2.3v-1.8
		c0-0.3,0.2-0.5,0.5-0.5c0.3,0,0.5,0.2,0.5,0.5v2.3C17.1,21.5,16.9,21.7,16.6,21.7z"/>
	<path class="st0" d="M26.4,9.7h-9.8c-0.3,0-0.5-0.2-0.5-0.5c0-0.3,0.2-0.5,0.5-0.5h9.8c0.5,0,1-0.4,1-1c0-0.5-0.4-1-1-1h-1
		c-0.3,0-0.5-0.2-0.5-0.5c0-0.3,0.2-0.5,0.5-0.5h1c1.1,0,1.9,0.9,1.9,1.9C28.3,8.9,27.5,9.7,26.4,9.7z"/>
	<path class="st0" d="M25.1,21.8c-2.3,0-4.3-1.9-4.3-4.3c0-0.3,0.2-0.5,0.5-0.5h7.6c0.3,0,0.5,0.2,0.5,0.5
		C29.3,19.9,27.4,21.8,25.1,21.8z M21.8,18.1c0.2,1.6,1.6,2.9,3.3,2.9c1.7,0,3.1-1.2,3.3-2.9H21.8z"/>
	<path class="st0" d="M22.2,18.1c-0.1,0-0.1,0-0.2,0c-0.2-0.1-0.4-0.3-0.3-0.6l2.8-8.2c0.1-0.2,0.2-0.3,0.4-0.3s0.4,0.1,0.4,0.3
		l2.8,8.2c0.1,0.2,0,0.5-0.3,0.6c-0.2,0.1-0.5,0-0.6-0.3l-2.4-6.9l-2.4,6.9C22.6,17.9,22.4,18.1,22.2,18.1z"/>
	<path class="st0" d="M13.4,9.7H3.6c-1.1,0-1.9-0.9-1.9-1.9c0-1.1,0.9-1.9,1.9-1.9h1c0.3,0,0.5,0.2,0.5,0.5c0,0.3-0.2,0.5-0.5,0.5
		h-1c-0.5,0-1,0.4-1,1c0,0.5,0.4,1,1,1h9.8c0.3,0,0.5,0.2,0.5,0.5C13.9,9.5,13.7,9.7,13.4,9.7z"/>
	<path class="st0" d="M4.9,21.8c-2.3,0-4.3-1.9-4.3-4.3c0-0.3,0.2-0.5,0.5-0.5h7.6c0.3,0,0.5,0.2,0.5,0.5
		C9.2,19.9,7.3,21.8,4.9,21.8z M1.6,18.1c0.2,1.6,1.6,2.9,3.3,2.9s3.1-1.2,3.3-2.9H1.6z"/>
	<path class="st0" d="M7.8,18.1c-0.2,0-0.4-0.1-0.4-0.3l-2.4-6.9l-2.4,6.9C2.5,18,2.2,18.1,2,18c-0.2-0.1-0.4-0.3-0.3-0.6l2.8-8.2
		c0.1-0.2,0.2-0.3,0.4-0.3c0.2,0,0.4,0.1,0.4,0.3l2.8,8.2c0.1,0.2,0,0.5-0.3,0.6C7.9,18,7.8,18.1,7.8,18.1z"/>
	<path class="st0" d="M18.2,24.9h-6.3c-0.3,0-0.5-0.2-0.5-0.5v-3.2c0-0.3,0.2-0.5,0.5-0.5h6.3c0.3,0,0.5,0.2,0.5,0.5v3.2
		C18.6,24.7,18.4,24.9,18.2,24.9z M12.3,24h5.4v-2.3h-5.4V24z"/>
	<path class="st0" d="M21.7,28H8.4c-0.3,0-0.5-0.2-0.5-0.5v-3.1c0-0.3,0.2-0.5,0.5-0.5h13.3c0.3,0,0.5,0.2,0.5,0.5v3.1
		C22.1,27.8,21.9,28,21.7,28z M8.8,27h12.4v-2.2H8.8V27z"/>
	<path class="st0" d="M26.6,28H3.5C3.2,28,3,27.8,3,27.5C3,27.2,3.2,27,3.5,27h23.1c0.3,0,0.5,0.2,0.5,0.5C27,27.8,26.8,28,26.6,28z
		"/>
</g>
</svg>
