<?xml version="1.0" encoding="utf-8"?>
<!-- Generator: Adobe Illustrator 27.8.1, SVG Export Plug-In . SVG Version: 6.00 Build 0)  -->
<svg version="1.1" id="圖層_1" xmlns="http://www.w3.org/2000/svg" xmlns:xlink="http://www.w3.org/1999/xlink" x="0px" y="0px"
	 viewBox="0 0 30 30" style="enable-background:new 0 0 30 30;" xml:space="preserve">
<style type="text/css">
	.st0{fill:#FFFFFF;}
</style>
<g>
	<path class="st0" d="M3.4,13.3c-1.3,0-2.4-1.1-2.4-2.4V9.7c0-0.3,0.2-0.5,0.5-0.5h1.9c0.3,0,0.5,0.2,0.5,0.5c0,0.3-0.2,0.5-0.5,0.5
		H1.9v0.7c0,0.8,0.7,1.5,1.5,1.5c0.8,0,1.5-0.7,1.5-1.5V5c0-1.5,1.2-2.7,2.7-2.7C7.8,2.3,8,2.5,8,2.7C8,3,7.8,3.2,7.6,3.2
		C6.6,3.2,5.8,4,5.8,5v6C5.8,12.3,4.7,13.3,3.4,13.3z"/>
	<path class="st0" d="M9.8,13.3H3.4c-0.3,0-0.5-0.2-0.5-0.5c0-0.3,0.2-0.5,0.5-0.5h6.4c0.3,0,0.5,0.2,0.5,0.5
		C10.3,13.1,10.1,13.3,9.8,13.3z"/>
	<path class="st0" d="M25.5,26.7H9.8c-0.3,0-0.5-0.2-0.5-0.5V4.9c0-1-0.8-1.8-1.8-1.8C7.3,3.2,7.1,3,7.1,2.7c0-0.3,0.2-0.5,0.5-0.5
		h15.7c1.5,0,2.7,1.2,2.7,2.7v2.6c0,0.3-0.2,0.5-0.5,0.5C25.2,8,25,7.8,25,7.6V4.9c0-1-0.8-1.8-1.8-1.8H9.6c0.4,0.5,0.7,1.1,0.7,1.8
		v20.8H25v-4.4c0-0.3,0.2-0.5,0.5-0.5c0.3,0,0.5,0.2,0.5,0.5v4.9C25.9,26.4,25.7,26.7,25.5,26.7z"/>
	<path class="st0" d="M13.7,21.7c-0.2,0-0.4-0.1-0.5-0.1c-0.6-0.4-0.4-1.3-0.4-1.6c0-0.3,0.3-1.5,1.2-1.5c0.3,0,0.7,0.1,1,0.4
		c0.2,0.2,0.3,0.4,0.3,0.6c0,0.2-0.2,0.4-0.5,0.4c-0.3,0-0.4-0.2-0.5-0.4c0-0.1-0.2-0.1-0.3-0.1c-0.1,0.1-0.2,0.4-0.3,0.8
		c-0.1,0.4,0,0.6,0,0.6c0.1,0,0.3,0,0.8-0.2c0.7-0.2,1-0.3,1.2-0.5c0.3-0.3,0.5-0.6,0.6-0.9c0.1-0.3,0.3-0.7,0.7-0.7
		c0.6,0,0.8,0.7,1,1.9c0,0.2-0.1,0.5-0.4,0.5c-0.2,0-0.5-0.1-0.5-0.4c0-0.3-0.1-0.5-0.1-0.6c-0.1,0.3-0.4,0.6-0.7,0.9
		c-0.3,0.3-0.7,0.4-1.5,0.7C14.3,21.7,13.9,21.7,13.7,21.7z"/>
	<path class="st0" d="M17.6,23.7h-4.4c-0.3,0-0.5-0.2-0.5-0.5c0-0.3,0.2-0.5,0.5-0.5h4.4c0.3,0,0.5,0.2,0.5,0.5
		C18.1,23.5,17.9,23.7,17.6,23.7z"/>
	<path class="st0" d="M22.3,22.8c-0.2,0-0.4,0-0.6-0.1c-0.8-0.3-1.2-1.2-0.8-2l4.7-11.4c0-0.1,0.1-0.2,0.2-0.2c0.1,0,0.2,0,0.4,0
		l2,0.8c0.2,0.1,0.3,0.4,0.2,0.6l-4.7,11.4C23.4,22.5,22.9,22.8,22.3,22.8z M26.2,10.1l-4.5,11c-0.1,0.3,0,0.7,0.3,0.8
		c0.3,0.1,0.7,0,0.8-0.3l4.5-11L26.2,10.1z"/>
	<path class="st0" d="M21.4,23.7c-0.1,0-0.1,0-0.2,0c-0.2-0.1-0.3-0.4-0.2-0.6l0.4-1c0.1-0.2,0.4-0.3,0.6-0.2
		c0.2,0.1,0.3,0.4,0.2,0.6l-0.4,1C21.8,23.6,21.6,23.7,21.4,23.7z"/>
	<path class="st0" d="M27.6,10.6c-0.1,0-0.1,0-0.2,0L26.1,10c-0.2-0.1-0.3-0.4-0.2-0.6l0.6-1.4c0.1-0.3,0.3-0.5,0.6-0.6
		c0.3-0.1,0.6-0.1,0.9,0c0.6,0.2,0.9,0.9,0.6,1.5L28,10.3c0,0.1-0.1,0.2-0.2,0.2C27.7,10.6,27.7,10.6,27.6,10.6z M26.9,9.4l0.4,0.2
		l0.4-1c0.1-0.1,0-0.3-0.1-0.3c-0.1,0-0.1,0-0.2,0c-0.1,0-0.1,0.1-0.1,0.1L26.9,9.4z"/>
	<path class="st0" d="M27.2,16.9c-0.1,0-0.1,0-0.2,0c-0.2-0.1-0.3-0.4-0.2-0.6l1-2.5c0.1-0.3,0.1-0.6,0-0.9
		c-0.1-0.3-0.4-0.5-0.6-0.6c-0.2-0.1-0.3-0.4-0.2-0.6c0.1-0.2,0.4-0.3,0.6-0.2c0.5,0.2,0.9,0.6,1.1,1.1c0.2,0.5,0.2,1.1,0,1.6
		l-1,2.5C27.6,16.8,27.4,16.9,27.2,16.9z"/>
	<path class="st0" d="M23.7,21.2c-0.1,0-0.1,0-0.2,0l-2-0.8c-0.2-0.1-0.3-0.4-0.2-0.6c0.1-0.2,0.4-0.3,0.6-0.2l2,0.8
		c0.2,0.1,0.3,0.4,0.2,0.6C24,21.1,23.8,21.2,23.7,21.2z"/>
	<path class="st0" d="M20.1,6.1h-4.5c-0.3,0-0.5-0.2-0.5-0.5s0.2-0.5,0.5-0.5h4.5c0.3,0,0.5,0.2,0.5,0.5S20.4,6.1,20.1,6.1z"/>
	<path class="st0" d="M23.2,8.7H12.6c-0.3,0-0.5-0.2-0.5-0.5c0-0.3,0.2-0.5,0.5-0.5h10.6c0.3,0,0.5,0.2,0.5,0.5
		C23.6,8.5,23.4,8.7,23.2,8.7z"/>
	<path class="st0" d="M23.2,11.2H12.6c-0.3,0-0.5-0.2-0.5-0.5c0-0.3,0.2-0.5,0.5-0.5h10.6c0.3,0,0.5,0.2,0.5,0.5
		C23.6,11,23.4,11.2,23.2,11.2z"/>
	<path class="st0" d="M22.4,13.8h-9.8c-0.3,0-0.5-0.2-0.5-0.5c0-0.3,0.2-0.5,0.5-0.5h9.8c0.3,0,0.5,0.2,0.5,0.5
		C22.9,13.6,22.7,13.8,22.4,13.8z"/>
	<path class="st0" d="M20.9,16.4h-8.3c-0.3,0-0.5-0.2-0.5-0.5c0-0.3,0.2-0.5,0.5-0.5h8.3c0.3,0,0.5,0.2,0.5,0.5
		C21.4,16.2,21.2,16.4,20.9,16.4z"/>
</g>
</svg>
