<?xml version="1.0" encoding="utf-8"?>
<!-- Generator: Adobe Illustrator 27.8.1, SVG Export Plug-In . SVG Version: 6.00 Build 0)  -->
<svg version="1.1" id="圖層_1" xmlns="http://www.w3.org/2000/svg" xmlns:xlink="http://www.w3.org/1999/xlink" x="0px" y="0px"
	 viewBox="0 0 30 30" style="enable-background:new 0 0 30 30;" xml:space="preserve">
<style type="text/css">
	.st0{fill:#FFFFFF;}
</style>
<g>
	<path class="st0" d="M8.8,24.5H2.2c-0.2,0-0.5-0.2-0.5-0.5V5.7c0-0.2,0.2-0.5,0.5-0.5h6.6c0.2,0,0.5,0.2,0.5,0.5v18.4
		C9.3,24.3,9.1,24.5,8.8,24.5z M2.7,23.6h5.7V6.1H2.7V23.6z"/>
	<path class="st0" d="M8.8,22H2.2c-0.2,0-0.5-0.2-0.5-0.5v-1.8c0-0.2,0.2-0.5,0.5-0.5h6.6c0.2,0,0.5,0.2,0.5,0.5v1.8
		C9.3,21.8,9.1,22,8.8,22z M2.7,21.1h5.7v-0.9H2.7V21.1z"/>
	<path class="st0" d="M8.8,17.9H2.2c-0.2,0-0.5-0.2-0.5-0.5v-1.8c0-0.2,0.2-0.5,0.5-0.5h6.6c0.2,0,0.5,0.2,0.5,0.5v1.8
		C9.3,17.7,9.1,17.9,8.8,17.9z M2.7,17h5.7v-0.9H2.7V17z"/>
	<path class="st0" d="M5.5,13.7c-0.2,0-0.5-0.2-0.5-0.5v-1.2c0-0.2,0.2-0.5,0.5-0.5c0.2,0,0.5,0.2,0.5,0.5v1.2
		C6,13.5,5.8,13.7,5.5,13.7z"/>
	<path class="st0" d="M6.9,10.5H4.1c-0.2,0-0.5-0.2-0.5-0.5c0-0.2,0.2-0.5,0.5-0.5h2.8c0.2,0,0.5,0.2,0.5,0.5
		C7.3,10.3,7.1,10.5,6.9,10.5z"/>
	<path class="st0" d="M16.9,24.5h-6.6c-0.2,0-0.5-0.2-0.5-0.5V5.7c0-0.2,0.2-0.5,0.5-0.5h6.6c0.2,0,0.5,0.2,0.5,0.5v18.4
		C17.4,24.3,17.2,24.5,16.9,24.5z M10.8,23.6h5.7V6.1h-5.7V23.6z"/>
	<path class="st0" d="M16.9,22h-6.6c-0.2,0-0.5-0.2-0.5-0.5v-1.8c0-0.2,0.2-0.5,0.5-0.5h6.6c0.2,0,0.5,0.2,0.5,0.5v1.8
		C17.4,21.8,17.2,22,16.9,22z M10.8,21.1h5.7v-0.9h-5.7V21.1z"/>
	<path class="st0" d="M16.9,17.9h-6.6c-0.2,0-0.5-0.2-0.5-0.5v-1.8c0-0.2,0.2-0.5,0.5-0.5h6.6c0.2,0,0.5,0.2,0.5,0.5v1.8
		C17.4,17.7,17.2,17.9,16.9,17.9z M10.8,17h5.7v-0.9h-5.7V17z"/>
	<path class="st0" d="M13.6,13.9c-0.2,0-0.5-0.2-0.5-0.5v-1.2c0-0.2,0.2-0.5,0.5-0.5c0.2,0,0.5,0.2,0.5,0.5v1.2
		C14.1,13.7,13.9,13.9,13.6,13.9z"/>
	<path class="st0" d="M15,10.5h-2.8c-0.2,0-0.5-0.2-0.5-0.5c0-0.2,0.2-0.5,0.5-0.5H15c0.2,0,0.5,0.2,0.5,0.5
		C15.5,10.3,15.3,10.5,15,10.5z"/>
	<path class="st0" d="M21,24.3c-0.1,0-0.2,0-0.2-0.1c-0.1-0.1-0.2-0.2-0.2-0.3l-4-18c0-0.1,0-0.2,0.1-0.3c0.1-0.1,0.2-0.2,0.3-0.2
		L23.3,4c0.2-0.1,0.5,0.1,0.5,0.3l4,18c0.1,0.2-0.1,0.5-0.3,0.5L21,24.3C21,24.3,21,24.3,21,24.3z M17.5,6.3l3.8,17.1l5.5-1.2L23,5
		L17.5,6.3z"/>
	<path class="st0" d="M20.4,21.9c-0.2,0-0.4-0.1-0.4-0.4l-0.4-1.7c0-0.1,0-0.2,0.1-0.3c0.1-0.1,0.2-0.2,0.3-0.2l6.4-1.4
		c0.1,0,0.2,0,0.3,0.1c0.1,0.1,0.2,0.2,0.2,0.3l0.4,1.7c0.1,0.2-0.1,0.5-0.3,0.5L20.4,21.9C20.5,21.9,20.5,21.9,20.4,21.9z M20.6,20
		l0.2,0.9l5.5-1.2l-0.2-0.9L20.6,20z"/>
	<path class="st0" d="M19.5,17.9c-0.2,0-0.4-0.1-0.4-0.4l-0.4-1.7c-0.1-0.2,0.1-0.5,0.3-0.5l6.4-1.4c0.1,0,0.2,0,0.3,0.1
		s0.2,0.2,0.2,0.3l0.4,1.7c0.1,0.2-0.1,0.5-0.3,0.5L19.5,17.9C19.6,17.9,19.6,17.9,19.5,17.9z M19.7,16.1l0.2,0.9l5.5-1.2l-0.2-0.9
		L19.7,16.1z"/>
	<path class="st0" d="M21.8,13.1c-0.2,0-0.4-0.1-0.4-0.4l-0.3-1.2c-0.1-0.2,0.1-0.5,0.3-0.5c0.2-0.1,0.5,0.1,0.5,0.3l0.3,1.2
		C22.3,12.8,22.2,13,21.8,13.1C21.9,13.1,21.9,13.1,21.8,13.1z"/>
	<path class="st0" d="M19.8,10.2c-0.2,0-0.4-0.1-0.4-0.4c-0.1-0.2,0.1-0.5,0.3-0.5l2.7-0.6c0.2-0.1,0.5,0.1,0.5,0.3
		c0.1,0.2-0.1,0.5-0.3,0.5L19.8,10.2C19.8,10.2,19.8,10.2,19.8,10.2z"/>
	<path class="st0" d="M28.6,24.5H1.6c-0.2,0-0.5-0.2-0.5-0.5c0-0.2,0.2-0.5,0.5-0.5h27.1c0.2,0,0.5,0.2,0.5,0.5
		C29.1,24.3,28.9,24.5,28.6,24.5z"/>
</g>
</svg>
