<?xml version="1.0" encoding="utf-8"?>
<!-- Generator: Adobe Illustrator 27.8.1, SVG Export Plug-In . SVG Version: 6.00 Build 0)  -->
<svg version="1.1" id="圖層_1" xmlns="http://www.w3.org/2000/svg" xmlns:xlink="http://www.w3.org/1999/xlink" x="0px" y="0px"
	 viewBox="0 0 30 30" style="enable-background:new 0 0 30 30;" xml:space="preserve">
<style type="text/css">
	.st0{fill:#FFFFFF;}
</style>
<g>
	<g id="_x31_971_x2C__Email_x2C__Letter_x2C__Mail_x2C__Open">
		<g>
			<path class="st0" d="M24.2,27.6H5.8c-0.3,0-0.6,0.3-0.6,0.6c0,0.3,0.3,0.6,0.6,0.6h18.4c0.3,0,0.6-0.3,0.6-0.6
				C24.8,27.9,24.5,27.6,24.2,27.6z"/>
			<path class="st0" d="M28.8,24.8c0,0,0-18.4,0-18.5c0-0.1,0-0.2-0.1-0.3c0,0,0,0,0,0c0,0,0,0,0,0c0,0,0,0,0,0c0,0,0,0,0,0
				c0,0,0,0,0,0c0,0,0,0,0,0c0,0,0,0,0,0c0,0,0,0,0,0c0,0,0,0,0,0h0c-27.3,0-26.5,0-26.6,0c0,0,0,0,0,0l0,0l0,0l0,0l0,0l0,0
				C1.2,6.1,1.2,6.3,1.2,6.3l0,0c0,19.2,0,18.4,0,18.6c0,0,0,0,0,0c0,0,0,0,0,0c0,0,0,0,0,0l0,0c0.1,0.1,0.2,0.2,0.4,0.2
				c0,0,26.5,0,26.6,0C28.6,25.3,28.7,25.1,28.8,24.8z M19.9,17.4c-0.2-0.2-0.6-0.2-0.8,0.1c-0.2,0.2-0.2,0.6,0.1,0.8l7.3,5.9H3.4
				l7.4-5.9c0.2-0.2,0.3-0.5,0.1-0.8c-0.2-0.3-0.5-0.3-0.8-0.1l-7.7,6.1v-16l10.9,8.5c1,0.8,2.5,0.8,3.6,0l10.8-8.5v16L19.9,17.4z
				 M3.4,7h23.1l-10.5,8.2c-0.6,0.5-1.5,0.5-2.1,0L3.4,7z"/>
			<rect x="9.8" y="21.9" class="st0" width="1.1" height="1.1"/>
			<rect x="12.1" y="21.9" class="st0" width="1.1" height="1.1"/>
			<rect x="14.4" y="21.9" class="st0" width="1.1" height="1.1"/>
			<rect x="16.7" y="21.9" class="st0" width="1.1" height="1.1"/>
			<rect x="19" y="21.9" class="st0" width="1.1" height="1.1"/>
			<path class="st0" d="M14.9,4.1c0.3,0,0.6-0.3,0.6-0.6V1.8c0-0.3-0.3-0.6-0.6-0.6c-0.3,0-0.6,0.3-0.6,0.6v1.7
				C14.3,3.8,14.6,4.1,14.9,4.1z"/>
			<path class="st0" d="M11.6,3.9c0.2,0.2,0.6,0.2,0.8,0c0.2-0.2,0.2-0.6,0-0.8l-1.6-1.6c-0.2-0.2-0.6-0.2-0.8,0
				c-0.2,0.2-0.2,0.6,0,0.8L11.6,3.9z"/>
			<path class="st0" d="M18.2,3.9l1.6-1.6c0.2-0.2,0.2-0.6,0-0.8c-0.2-0.2-0.6-0.2-0.8,0l-1.6,1.6c-0.2,0.2-0.2,0.6,0,0.8
				C17.6,4.1,18,4.1,18.2,3.9z"/>
		</g>
	</g>
	<g id="Layer_1_00000161626742365502713920000002189073121018794409_">
	</g>
</g>
</svg>
