<?xml version="1.0" encoding="utf-8"?>
<!-- Generator: Adobe Illustrator 27.8.1, SVG Export Plug-In . SVG Version: 6.00 Build 0)  -->
<svg version="1.1" id="圖層_1" xmlns="http://www.w3.org/2000/svg" xmlns:xlink="http://www.w3.org/1999/xlink" x="0px" y="0px"
	 viewBox="0 0 30 30" style="enable-background:new 0 0 30 30;" xml:space="preserve">
<style type="text/css">
	.st0{fill:#FFFFFF;}
</style>
<g>
	<path class="st0" d="M27.4,26.2H2.6c-0.3,0-0.6-0.3-0.6-0.6V23c0-0.3,0.3-0.6,0.6-0.6h24.9c0.3,0,0.6,0.3,0.6,0.6v2.6
		C28,25.9,27.8,26.2,27.4,26.2z M3.2,25h23.7v-1.4H3.2V25z"/>
	<path class="st0" d="M28.3,28.8H1.7c-0.3,0-0.6-0.3-0.6-0.6v-2.6c0-0.3,0.3-0.6,0.6-0.6h26.6c0.3,0,0.6,0.3,0.6,0.6v2.6
		C28.9,28.5,28.6,28.8,28.3,28.8z M2.3,27.6h25.4v-1.4H2.3V27.6z"/>
	<path class="st0" d="M8.2,23.6H3.6c-0.3,0-0.6-0.3-0.6-0.6V9.1c0-0.3,0.3-0.6,0.6-0.6h4.5c0.3,0,0.6,0.3,0.6,0.6V23
		C8.7,23.3,8.5,23.6,8.2,23.6z M4.2,22.4h3.3V9.7H4.2V22.4z"/>
	<path class="st0" d="M17.3,23.6h-4.5c-0.3,0-0.6-0.3-0.6-0.6V9.1c0-0.3,0.3-0.6,0.6-0.6h4.5c0.3,0,0.6,0.3,0.6,0.6V23
		C17.9,23.3,17.6,23.6,17.3,23.6z M13.3,22.4h3.3V9.7h-3.3V22.4z"/>
	<path class="st0" d="M26.4,23.6h-4.5c-0.3,0-0.6-0.3-0.6-0.6V9.1c0-0.3,0.3-0.6,0.6-0.6h4.5c0.3,0,0.6,0.3,0.6,0.6V23
		C27,23.3,26.7,23.6,26.4,23.6z M22.4,22.4h3.3V9.7h-3.3V22.4z"/>
	<path class="st0" d="M28.7,9.7H1.3C1,9.7,0.7,9.4,0.7,9.1V6.6c0-0.3,0.2-0.5,0.4-0.6l13.7-4.4c0.1,0,0.2-0.1,0.3,0c0,0,0.1,0,0.1,0
		l13.7,4.5c0.2,0.1,0.4,0.3,0.4,0.6v2.4C29.3,9.4,29,9.7,28.7,9.7z M1.9,8.5h26.2V7.1L15,2.8L1.9,7.1V8.5z"/>
	<path class="st0" d="M5.9,20.1c-0.3,0-0.6-0.3-0.6-0.6v-8c0-0.3,0.3-0.6,0.6-0.6s0.6,0.3,0.6,0.6v8C6.5,19.8,6.2,20.1,5.9,20.1z"/>
	<path class="st0" d="M15,20.1c-0.3,0-0.6-0.3-0.6-0.6v-8c0-0.3,0.3-0.6,0.6-0.6c0.3,0,0.6,0.3,0.6,0.6v8
		C15.6,19.8,15.3,20.1,15,20.1z"/>
	<path class="st0" d="M24.1,20.1c-0.3,0-0.6-0.3-0.6-0.6v-8c0-0.3,0.3-0.6,0.6-0.6c0.3,0,0.6,0.3,0.6,0.6v8
		C24.7,19.8,24.4,20.1,24.1,20.1z"/>
	<path class="st0" d="M19.9,7.2h-9.9C9.7,7.2,9.5,7,9.5,6.6C9.5,6.3,9.7,6,10.1,6h9.9c0.3,0,0.6,0.3,0.6,0.6
		C20.5,7,20.3,7.2,19.9,7.2z"/>
</g>
</svg>
