<?xml version="1.0" encoding="utf-8"?>
<!-- Generator: Adobe Illustrator 27.8.1, SVG Export Plug-In . SVG Version: 6.00 Build 0)  -->
<svg version="1.1" id="圖層_1" xmlns="http://www.w3.org/2000/svg" xmlns:xlink="http://www.w3.org/1999/xlink" x="0px" y="0px"
	 viewBox="0 0 30 30" style="enable-background:new 0 0 30 30;" xml:space="preserve">
<style type="text/css">
	.st0{fill:#FFFFFF;}
</style>
<g>
	<g id="_x31_963_x2C__Letter_x2C__Mail_x2C__Paper_x2C__Write">
		<g>
			<path class="st0" d="M21.3,0.6H1.4C1,0.6,0.8,0.9,0.8,1.2c0,23.9,0,22.9,0,23c0,0.1,0,0.1,0.1,0.2c0,0,3.5,4.1,3.5,4.1
				c0.1,0.1,0.2,0.2,0.4,0.2c0,0-0.5,0,16.5,0c0.3,0,0.6-0.3,0.6-0.6c0-0.3-0.3-0.6-0.6-0.6H5.5v-3.5c0-0.3-0.3-0.6-0.6-0.6H1.9V1.8
				h18.8v2.9c0,0.3,0.3,0.6,0.6,0.6c0.3,0,0.6-0.3,0.6-0.6V1.3C21.9,0.9,21.6,0.6,21.3,0.6z M4.3,26.6l-1.7-1.9h1.7V26.6z"/>
			<path class="st0" d="M28.8,26.2L28.8,26.2L28.8,26.2c0-0.1,0.1-0.1,0.1-0.1c0-0.1,0,0.8,0-17.8c0-0.3-0.3-0.6-0.6-0.6V7.1
				c0-1.3-1.1-2.3-2.3-2.3c-1.3,0-2.3,1.1-2.3,2.3v0.6c-0.3,0-0.6,0.3-0.6,0.6c0,18.8,0,17.7,0,17.8c0,0,0,0.1,0,0.1
				c0,0.1-0.1-0.1,2.4,2.4c0.2,0.2,0.6,0.2,0.8,0C28.9,26.2,28.8,26.3,28.8,26.2C28.8,26.2,28.8,26.2,28.8,26.2z M24.2,25.2v-14h2.3
				c0.3,0,0.6-0.3,0.6-0.6c0-0.3-0.3-0.6-0.6-0.6h-2.3V8.9h3.5v16.4L24.2,25.2L24.2,25.2z M24.8,7.1c0-0.6,0.5-1.2,1.2-1.2
				c0.6,0,1.2,0.5,1.2,1.2v0.6h-2.3L24.8,7.1L24.8,7.1z M26,27.4l-0.9-0.9h1.8L26,27.4z"/>
			<path class="st0" d="M26,13.6c-0.3,0-0.6,0.3-0.6,0.6v7.6c0,0.3,0.3,0.6,0.6,0.6c0.3,0,0.6-0.3,0.6-0.6v-7.7
				C26.6,13.8,26.3,13.6,26,13.6z"/>
			<path class="st0" d="M18.3,8.9H5.5c-0.3,0-0.6,0.3-0.6,0.6c0,0.3,0.3,0.6,0.6,0.6h12.9c0.3,0,0.6-0.3,0.6-0.6
				C18.9,9.1,18.7,8.9,18.3,8.9z"/>
			<path class="st0" d="M18.3,13H5.5c-0.3,0-0.6,0.3-0.6,0.6c0,0.3,0.3,0.6,0.6,0.6h12.9c0.3,0,0.6-0.3,0.6-0.6
				C18.9,13.2,18.7,13,18.3,13z"/>
			<path class="st0" d="M18.9,17.7c0-0.3-0.3-0.6-0.6-0.6H5.5c-0.3,0-0.6,0.3-0.6,0.6c0,0.3,0.3,0.6,0.6,0.6h12.9
				C18.7,18.2,18.9,18,18.9,17.7z"/>
			<path class="st0" d="M7.2,21.2c-0.3,0-0.6,0.3-0.6,0.6c0,0.3,0.3,0.6,0.6,0.6h9.4c0.3,0,0.6-0.3,0.6-0.6c0-0.3-0.3-0.6-0.6-0.6
				H7.2z"/>
			<rect x="5.5" y="5.3" class="st0" width="1.2" height="1.2"/>
			<rect x="8.4" y="5.3" class="st0" width="1.2" height="1.2"/>
			<rect x="11.3" y="5.3" class="st0" width="1.2" height="1.2"/>
			<rect x="14.2" y="5.3" class="st0" width="1.2" height="1.2"/>
			<rect x="17.2" y="5.3" class="st0" width="1.2" height="1.2"/>
		</g>
	</g>
	<g id="Layer_1_00000022548942103124821670000006202666035864595611_">
	</g>
</g>
</svg>
