<?xml version="1.0" encoding="utf-8"?>
<!-- Generator: Adobe Illustrator 28.0.0, SVG Export Plug-In . SVG Version: 6.00 Build 0)  -->
<svg version="1.1" id="圖層_1" xmlns="http://www.w3.org/2000/svg" xmlns:xlink="http://www.w3.org/1999/xlink" x="0px" y="0px"
	 viewBox="0 0 48 44.3" style="enable-background:new 0 0 48 44.3;" xml:space="preserve">
<style type="text/css">
	.st0{fill:#FFFFFF;}
</style>
<g>
	<path class="st0" d="M32.8,21h-1.5v-4c0-1.9-4.6-3.2-7.8-3.2c-3.1,0-7.8,1.4-7.8,3.2v4h-1.5v-4c0-3.6,6.8-4.7,9.2-4.7
		s9.2,1.1,9.2,4.7V21z"/>
	<path class="st0" d="M23.5,10.7c-2.4,0-4.2-2-4.2-4.6V4.8c0-2.6,1.8-4.6,4.2-4.6s4.2,2,4.2,4.6v1.3C27.8,8.7,25.9,10.7,23.5,10.7z
		 M23.5,1.7c-1.6,0-2.8,1.3-2.8,3.1v1.3c0,1.8,1.2,3.1,2.8,3.1c1.6,0,2.8-1.3,2.8-3.1V4.8C26.3,3.1,25.1,1.7,23.5,1.7z"/>
	<path class="st0" d="M8.5,13.7c-2.4,0-4.3-2-4.3-4.6V7.8c0-2.6,1.8-4.6,4.3-4.6s4.2,2,4.2,4.6v1.3C12.8,11.7,10.9,13.7,8.5,13.7z
		 M8.5,4.7C6.9,4.7,5.8,6,5.8,7.8v1.3c0,1.8,1.2,3.1,2.8,3.1s2.8-1.3,2.8-3.1V7.8C11.3,6,10.1,4.7,8.5,4.7z"/>
	<path class="st0" d="M14.3,44.2l-2.8-8.5H6c-3.2,0-5.8-2.6-5.8-5.8V19c0-2.1,1.7-3.7,3.7-3.7h3.3l5,5h6.4l0.1,0.7
		c0,0.1,0.2,2.3-1,3.7c-0.7,0.7-1.6,1.1-2.7,1.1H8.7l-4.2-4.2l1.1-1.1l3.8,3.8H15c0.7,0,1.2-0.2,1.6-0.6c0.5-0.5,0.6-1.3,0.7-1.9
		h-5.6l-5-5H4c-1.2,0-2.2,1-2.2,2.2v11c0,2.3,1.9,4.2,4.2,4.2h6.5l3.2,9.5L14.3,44.2z"/>
	<path class="st0" d="M19.3,44.2l-4-13c-0.4-1.2-1.8-1.5-3-1.5H7.3V24h1.5v4.2h3.6c2.3,0,3.8,0.9,4.4,2.5l4,13L19.3,44.2z"/>
	<path class="st0" d="M40.5,13.7c-2.4,0-4.2-2-4.2-4.6V7.8c0-2.6,1.8-4.6,4.2-4.6s4.2,2,4.2,4.6v1.3C44.8,11.7,42.9,13.7,40.5,13.7z
		 M40.5,4.7c-1.6,0-2.8,1.3-2.8,3.1v1.3c0,1.8,1.2,3.1,2.8,3.1s2.8-1.3,2.8-3.1V7.8C43.3,6,42.1,4.7,40.5,4.7z"/>
	<path class="st0" d="M33.7,44.2l-1.4-0.5l3.2-9.5H42c2.3,0,4.2-1.9,4.2-4.2V19c0-1.2-1-2.2-2.2-2.2h-2.7l-5,5h-5.6
		c0,0.6,0.2,1.4,0.7,1.9c0.4,0.4,0.9,0.6,1.6,0.6h5.7l3.8-3.8l1.1,1.1l-4.2,4.2H33c-1.1,0-2.1-0.4-2.7-1.1c-1.3-1.4-1-3.6-1-3.7
		l0.1-0.7h6.4l5-5H44c2.1,0,3.8,1.7,3.8,3.7v11c0,3.2-2.6,5.8-5.8,5.8h-5.5L33.7,44.2z"/>
	<path class="st0" d="M28.7,44.2l-1.4-0.4l4-13c0.6-1.6,2.1-2.5,4.4-2.5h3.6V24h1.5v5.8h-5.1c-1.1,0-2.5,0.3-3,1.5L28.7,44.2z"/>
	<rect x="11" y="24.2" class="st0" width="26" height="1.5"/>
</g>
</svg>
