<?xml version="1.0" encoding="utf-8"?>
<!-- Generator: Adobe Illustrator 28.0.0, SVG Export Plug-In . SVG Version: 6.00 Build 0)  -->
<svg version="1.1" id="圖層_1" xmlns="http://www.w3.org/2000/svg" xmlns:xlink="http://www.w3.org/1999/xlink" x="0px" y="0px"
	 viewBox="0 0 29.8 28.2" style="enable-background:new 0 0 29.8 28.2;" xml:space="preserve">
<style type="text/css">
	.st0{fill:#FFFFFF;}
</style>
<g id="_x31_3">
	<path class="st0" d="M20.2,6.9c0,0.4-0.3,0.7-0.7,0.7s-0.7-0.3-0.7-0.7s0.3-0.7,0.7-0.7S20.2,6.5,20.2,6.9z"/>
	<path class="st0" d="M11.1,13c0,0.4-0.3,0.7-0.7,0.7c-0.4,0-0.7-0.3-0.7-0.7s0.3-0.7,0.7-0.7C10.7,12.3,11.1,12.6,11.1,13z"/>
	<polygon class="st0" points="21.3,12.5 20.8,11.7 28,6.7 19.4,1.2 12.1,6.2 11.5,5.3 19.3,0 29.8,6.7 	"/>
	<polygon class="st0" points="10.5,19.9 0,13.2 8.5,7.4 9.1,8.2 1.8,13.2 10.4,18.7 17.3,14.1 17.8,14.9 	"/>
	<polygon class="st0" points="20.7,9.7 20.2,8.9 23.2,6.8 19.4,4.3 14.5,7.7 13.9,6.9 19.4,3.2 25,6.8 	"/>
	<polygon class="st0" points="10.4,16.7 4.8,13.1 9.1,10.2 9.6,11 6.6,13.1 10.4,15.5 15.2,12.3 15.7,13.1 	"/>
	<polygon class="st0" points="10.5,22.7 0.2,16.1 0.7,15.3 10.4,21.5 17.7,16.5 18.3,17.3 	"/>
	<rect x="20.9" y="11.3" transform="matrix(0.8264 -0.5631 0.5631 0.8264 -2.2174 16.4167)" class="st0" width="9.2" height="1"/>
	<polygon class="st0" points="10.5,25.4 0.2,18.9 0.7,18 10.4,24.3 17.5,19.4 18,20.3 	"/>
	<rect x="20.9" y="14.1" transform="matrix(0.8264 -0.5631 0.5631 0.8264 -3.7827 16.8962)" class="st0" width="9.2" height="1"/>
	<polygon class="st0" points="10.5,28.2 0.2,21.7 0.7,20.8 10.4,27 18.1,21.8 18.7,22.6 	"/>
	<rect x="20.9" y="16.9" transform="matrix(0.8264 -0.5631 0.5631 0.8264 -5.3475 17.3786)" class="st0" width="9.2" height="1"/>
	<path class="st0" d="M18.4,23.6c-0.2,0-0.3,0-0.4-0.1c-0.3-0.2-0.5-0.5-0.5-0.9v-8.1L8.3,8.6C7.9,8.4,7.7,8,7.7,7.6
		c0-0.4,0.2-0.7,0.5-1l2.3-1.6c0.4-0.3,0.9-0.3,1.3,0l10.4,6.6v9c0,0.3-0.2,0.6-0.4,0.8L19,23.4C18.8,23.5,18.6,23.6,18.4,23.6z
		 M11.2,5.8C11.1,5.8,11.1,5.8,11.2,5.8L8.8,7.5c-0.1,0-0.1,0.1-0.1,0.1c0,0,0,0.1,0.1,0.1l0,0l9.7,6.2v8.6l2.7-1.9l0-8.4L11.2,5.8
		C11.2,5.8,11.2,5.8,11.2,5.8z"/>
</g>
</svg>
