<?xml version="1.0" encoding="utf-8"?>
<!-- Generator: Adobe Illustrator 27.8.1, SVG Export Plug-In . SVG Version: 6.00 Build 0)  -->
<svg version="1.1" id="圖層_1" xmlns="http://www.w3.org/2000/svg" xmlns:xlink="http://www.w3.org/1999/xlink" x="0px" y="0px"
	 viewBox="0 0 30 30" style="enable-background:new 0 0 30 30;" xml:space="preserve">
<style type="text/css">
	.st0{fill:#FFFFFF;}
</style>
<g>
	<path class="st0" d="M14.8,27.3c-6.8,0-12.4-5.5-12.4-12.4S7.9,2.6,14.8,2.6s12.4,5.5,12.4,12.4S21.6,27.3,14.8,27.3z M14.8,3.6
		C8.5,3.6,3.4,8.7,3.4,14.9c0,6.3,5.1,11.4,11.4,11.4c6.3,0,11.4-5.1,11.4-11.4C26.1,8.7,21,3.6,14.8,3.6z"/>
	<path class="st0" d="M14.8,29.1c-7.8,0-14.2-6.4-14.2-14.2c0-7.8,6.4-14.2,14.2-14.2c7.8,0,14.2,6.4,14.2,14.2
		C28.9,22.8,22.6,29.1,14.8,29.1z M14.8,1.8C7.5,1.8,1.6,7.7,1.6,14.9s5.9,13.2,13.2,13.2s13.2-5.9,13.2-13.2S22,1.8,14.8,1.8z"/>
	<path class="st0" d="M18.3,14.8c-0.1,0-0.2,0-0.3-0.1c-0.3-0.1-0.5-0.4-0.5-0.8v-1.1H8.2c-0.3,0-0.5-0.2-0.5-0.5
		c0-0.3,0.2-0.5,0.5-0.5H18c0.3,0,0.5,0.2,0.5,0.5v1.2l3.4-3.4l-3.4-3.4v1.2c0,0.3-0.2,0.5-0.5,0.5H8.2c-0.3,0-0.5-0.2-0.5-0.5
		c0-0.3,0.2-0.5,0.5-0.5h9.3V6.3c0-0.3,0.2-0.7,0.5-0.8c0.3-0.1,0.7-0.1,0.9,0.2l3.7,3.7c0.4,0.4,0.4,1,0,1.4l-3.7,3.7
		C18.8,14.7,18.6,14.8,18.3,14.8z"/>
	<path class="st0" d="M12.6,10.6H6.7c-0.3,0-0.5-0.2-0.5-0.5c0-0.3,0.2-0.5,0.5-0.5h5.8c0.3,0,0.5,0.2,0.5,0.5
		C13.1,10.4,12.9,10.6,12.6,10.6z"/>
	<path class="st0" d="M11.2,24.5c-0.2,0-0.4-0.1-0.6-0.3l-3.7-3.7c-0.4-0.4-0.4-1,0-1.4l3.7-3.7c0.2-0.2,0.6-0.3,0.9-0.2
		c0.3,0.1,0.5,0.4,0.5,0.8v1.1h9.3c0.3,0,0.5,0.2,0.5,0.5s-0.2,0.5-0.5,0.5h-9.8c-0.3,0-0.5-0.2-0.5-0.5v-1.2l-3.4,3.4l3.4,3.4V22
		c0-0.3,0.2-0.5,0.5-0.5h9.8c0.3,0,0.5,0.2,0.5,0.5c0,0.3-0.2,0.5-0.5,0.5H12v1.1c0,0.3-0.2,0.7-0.5,0.8
		C11.4,24.4,11.3,24.5,11.2,24.5z"/>
	<path class="st0" d="M22.8,20.3h-5.8c-0.3,0-0.5-0.2-0.5-0.5c0-0.3,0.2-0.5,0.5-0.5h5.8c0.3,0,0.5,0.2,0.5,0.5
		C23.3,20.1,23.1,20.3,22.8,20.3z"/>
</g>
</svg>
