<?xml version="1.0" encoding="utf-8"?>
<!-- Generator: Adobe Illustrator 27.8.1, SVG Export Plug-In . SVG Version: 6.00 Build 0)  -->
<svg version="1.1" id="圖層_1" xmlns="http://www.w3.org/2000/svg" xmlns:xlink="http://www.w3.org/1999/xlink" x="0px" y="0px"
	 viewBox="0 0 100.7 26.1" style="enable-background:new 0 0 100.7 26.1;" xml:space="preserve">
<style type="text/css">
	.st0{fill:#3D3E3E;stroke:#FFFFFF;stroke-width:0.25;stroke-miterlimit:10;}
	.st1{fill:#3D3E3E;}
</style>
<path class="st0" d="M98.6,26.1"/>
<g>
	<path class="st1" d="M7.6,2.1C7,4.2,6.2,6.6,5.5,8.4c1.4,1.9,1.8,3.6,1.8,5C7.3,15,7,16,6.2,16.6c-0.4,0.3-0.8,0.4-1.4,0.5
		c-0.4,0.1-1,0.1-1.5,0c0-0.7-0.2-1.8-0.6-2.4c0.4,0,0.8,0,1,0s0.5,0,0.6-0.2c0.3-0.2,0.4-0.7,0.4-1.4c0-1.2-0.3-2.7-1.7-4.4
		c0.5-1.4,1-3.4,1.3-5H2.5v18.9H0V1.2h5.3l0.4-0.1L7.6,2.1z M18.8,19.9c0.4,0,0.5-0.4,0.5-2.9c0.5,0.5,1.6,0.9,2.3,1.1
		c-0.2,3.3-0.9,4.2-2.6,4.2h-1.7c-2.1,0-2.6-0.8-2.6-3.2v-4.9h-1.6c-0.4,4-1.5,6.8-6.1,8.4c-0.3-0.7-1-1.8-1.6-2.3
		c3.8-1.2,4.7-3.1,5-6.1H7.7v-2.5h13.7v2.5h-3.8v4.9c0,0.7,0,0.8,0.4,0.8C18,19.9,18.8,19.9,18.8,19.9z M9.5,7.8H7.6V3h5.6
		c-0.3-0.8-0.6-1.6-1-2.3L14.9,0c0.6,0.9,1.1,2.2,1.4,3h5v4.7h-1.9v2.1H9.5V7.8z M10.2,5.5v1.9h8.3V5.5H10.2z"/>
	<path class="st1" d="M46.5,19.3c0,1.6-0.3,2.4-1.3,2.8c-1,0.5-2.5,0.5-4.6,0.5c-0.1-0.8-0.5-2.1-0.9-2.9c1.3,0,2.9,0,3.4,0
		c0.4,0,0.6-0.1,0.6-0.5V15c-0.7,0.6-1.4,1.5-1.7,2c-2.5-1.5-4.2-3.7-5.2-6.5c-1.1,3-2.8,5.2-5.5,6.6c-0.3-0.4-0.8-1.2-1.3-1.7v7.2
		h-2.9v-17h8.5c-0.1-0.6-0.1-1.2-0.2-1.8h-4.1V1.2h6.5c0,1.5,0.2,3,0.4,4.3h8.2v13.8H46.5z M30,14.6c2.4-1.3,3.9-3.5,4.7-6.3H30
		V14.6z M39,8.4c0.8,2.6,2.3,4.7,4.6,6v-6H39z"/>
	<path class="st1" d="M54.8,16.3c-0.2,2.1-0.5,4.4-1,5.8c-0.4-0.3-1.5-0.6-2-0.7c0.5-1.4,0.8-3.6,0.9-5.5L54.8,16.3z M73.8,19.8
		c0,1.3-0.2,1.9-1,2.3c-0.7,0.4-1.8,0.5-3.3,0.5c-0.1-0.7-0.4-1.8-0.7-2.4c0.8,0,1.7,0,2,0s0.4-0.1,0.4-0.4V3.7h-7.7v19H61v-8.5
		L59.1,15c-0.1-0.3-0.1-0.6-0.3-1c-4.7,0.8-5.5,1-6,1.2c-0.1-0.5-0.5-1.7-0.8-2.3c0.6-0.1,1.1-0.7,1.8-1.6c0.3-0.4,0.9-1.1,1.5-2.1
		c-1.8,0.2-2.4,0.4-2.7,0.5c-0.1-0.5-0.5-1.6-0.8-2.3c0.5-0.1,0.8-0.6,1.3-1.3s1.9-3.3,2.7-5.9l2.3,1c-0.9,2-2,4.1-3.1,5.9L56.7,7
		c0.6-1.1,1.2-2.2,1.7-3.4l2.1,1.3c-1.3,2.6-3.1,5.3-4.9,7.5l2.6-0.4c-0.2-0.6-0.4-1.2-0.6-1.6l1.8-0.7c0.6,1.3,1.2,3.2,1.5,4.3V1.2
		h12.8v18.6H73.8z M57.2,15.8c0.3,1.6,0.6,3.6,0.6,5l-2,0.5c0-1.4-0.3-3.5-0.5-5L57.2,15.8z M59.6,15.1c0.6,1.4,1.1,3.3,1.4,4.5
		l-1.8,0.7c-0.2-1.2-0.8-3.1-1.2-4.6L59.6,15.1z M69.2,16.3c0.4,0,1,0,1.4-0.1c0,0.6,0.1,1.4,0.2,1.9c-0.3,0.1-1,0.1-1.5,0.1h-2
		c-2,0-2.4-0.8-2.4-2.7v-1.4h-0.7V12h2.4c-0.2-0.5-0.4-1.1-0.6-1.6l1.4-0.5H64V7.8h1.3c-0.1-0.9-0.5-2.2-0.9-3.1L66,4.2
		c0.5,1,0.9,2.3,1,3.2l-1.4,0.5h2.1c0.3-1.1,0.7-2.5,0.8-3.6l1.9,0.5c-0.3,1-0.7,2.2-1,3.1h1.2V10H68c0.3,0.6,0.6,1.2,0.7,1.7
		l-1,0.4h2.9v2.1H67v1.4c0,0.5,0.1,0.7,0.5,0.7H69.2z"/>
	<path class="st1" d="M87.8,15.7l0.3,2.6c-3.1,0.8-6.4,1.5-8.9,2.1l-0.6-2.8c1.3-0.2,3.1-0.6,5-1c0.6-2.4,1.1-6.2,1.3-9L87.5,8
		c-0.5,2.6-1.1,5.7-1.7,8L87.8,15.7z M83.5,4.4h4.8V7h-9.6V4.4h4.1C82.5,3.4,82,2,81.4,1l2.4-0.7c0.7,1.1,1.3,2.5,1.6,3.4L83.5,4.4z
		 M81.7,7.9c0.5,2.5,0.9,5.7,1.1,7.9l-2.3,0.5c-0.1-2.2-0.5-5.5-0.9-8L81.7,7.9z M95.1,7.4v4.1h4.8v11.1H97v-1.1h-5.7v1.2h-2.8V11.5
		h3.7V0.2h2.9v4.4h5.6v2.7L95.1,7.4L95.1,7.4z M97,14.2h-5.7v4.7H97V14.2z"/>
</g>
</svg>
