<?xml version="1.0" encoding="utf-8"?>
<!-- Generator: Adobe Illustrator 27.8.1, SVG Export Plug-In . SVG Version: 6.00 Build 0)  -->
<svg version="1.1" id="圖層_1" xmlns="http://www.w3.org/2000/svg" xmlns:xlink="http://www.w3.org/1999/xlink" x="0px" y="0px"
	 viewBox="0 0 30 30" style="enable-background:new 0 0 30 30;" xml:space="preserve">
<style type="text/css">
	.st0{fill:#FFFFFF;}
</style>
<path class="st0" d="M2.6,28.8c-1,0-1.8-0.8-1.8-1.8V4.4c0-1,0.8-1.8,1.8-1.8H4V1.7c0-0.3,0.2-0.5,0.5-0.5s0.5,0.2,0.5,0.5v0.8h3
	V1.7c0-0.3,0.2-0.5,0.5-0.5c0.3,0,0.5,0.2,0.5,0.5v0.8h3V1.7c0-0.3,0.2-0.5,0.5-0.5c0.3,0,0.5,0.2,0.5,0.5v0.8h3V1.7
	c0-0.3,0.2-0.5,0.5-0.5c0.3,0,0.5,0.2,0.5,0.5v0.8h3V1.7c0-0.3,0.2-0.5,0.5-0.5c0.3,0,0.5,0.2,0.5,0.5v0.8h3V1.7
	c0-0.3,0.2-0.5,0.5-0.5c0.3,0,0.5,0.2,0.5,0.5v0.8h1.7c1,0,1.8,0.8,1.8,1.8V27c0,1-0.8,1.8-1.8,1.8H2.6z M1.8,27
	c0,0.4,0.3,0.7,0.7,0.7h24.9c0.4,0,0.7-0.3,0.7-0.7V7.7h-0.1c-0.3,0-0.5-0.2-0.5-0.5c0-0.3,0.2-0.5,0.5-0.5h0.1V4.4
	c0-0.4-0.3-0.7-0.7-0.7h-1.7v0.8c0,0.3-0.2,0.5-0.5,0.5c-0.3,0-0.5-0.2-0.5-0.5V3.6h-3v0.8c0,0.3-0.2,0.5-0.5,0.5
	c-0.3,0-0.5-0.2-0.5-0.5V3.6h-3v0.8c0,0.3-0.2,0.5-0.5,0.5c-0.3,0-0.5-0.2-0.5-0.5V3.6h-3v0.8c0,0.3-0.2,0.5-0.5,0.5
	c-0.3,0-0.5-0.2-0.5-0.5V3.6h-3v0.8C9.3,4.7,9,5,8.7,5C8.4,5,8.2,4.7,8.2,4.4V3.6h-3v0.8C5.1,4.7,4.9,5,4.6,5S4,4.7,4,4.4V3.6H2.6
	C2.2,3.6,1.8,4,1.8,4.4v2.2h0.1c0.3,0,0.5,0.2,0.5,0.5c0,0.3-0.2,0.5-0.5,0.5H1.8V27z"/>
<path class="st0" d="M4.1,7.7c-0.3,0-0.5-0.2-0.5-0.5c0-0.3,0.2-0.5,0.5-0.5h1.3c0.3,0,0.5,0.2,0.5,0.5c0,0.3-0.2,0.5-0.5,0.5H4.1z"
	/>
<path class="st0" d="M14.4,7.7c-0.3,0-0.5-0.2-0.5-0.5c0-0.3,0.2-0.5,0.5-0.5h1.3c0.3,0,0.5,0.2,0.5,0.5c0,0.3-0.2,0.5-0.5,0.5H14.4
	z"/>
<path class="st0" d="M10.9,7.7c-0.3,0-0.5-0.2-0.5-0.5c0-0.3,0.2-0.5,0.5-0.5h1.3c0.3,0,0.5,0.2,0.5,0.5c0,0.3-0.2,0.5-0.5,0.5H10.9
	z"/>
<path class="st0" d="M7.5,7.7c-0.3,0-0.5-0.2-0.5-0.5c0-0.3,0.2-0.5,0.5-0.5h1.3c0.3,0,0.5,0.2,0.5,0.5c0,0.3-0.2,0.5-0.5,0.5H7.5z"
	/>
<path class="st0" d="M21.2,7.7c-0.3,0-0.5-0.2-0.5-0.5c0-0.3,0.2-0.5,0.5-0.5h1.3c0.3,0,0.5,0.2,0.5,0.5c0,0.3-0.2,0.5-0.5,0.5H21.2
	z"/>
<path class="st0" d="M17.8,7.7c-0.3,0-0.5-0.2-0.5-0.5c0-0.3,0.2-0.5,0.5-0.5h1.3c0.3,0,0.5,0.2,0.5,0.5c0,0.3-0.2,0.5-0.5,0.5H17.8
	z"/>
<path class="st0" d="M24.7,7.7c-0.3,0-0.5-0.2-0.5-0.5c0-0.3,0.2-0.5,0.5-0.5h1.3c0.3,0,0.5,0.2,0.5,0.5c0,0.3-0.2,0.5-0.5,0.5H24.7
	z"/>
<path class="st0" d="M13.8,15.6c-0.5,0-1-0.4-1-1v-2.3c0-0.5,0.4-1,1-1h2.3c0.5,0,1,0.4,1,1v2.3c0,0.5-0.4,1-1,1H13.8z M16.1,14.5
	l0-2.1h-2.1v2.1H16.1z"/>
<path class="st0" d="M6,15.6c-0.5,0-1-0.4-1-1v-2.3c0-0.5,0.4-1,1-1h2.3c0.5,0,1,0.4,1,1v2.3c0,0.5-0.4,1-1,1H6z M8.3,14.5l0-2.1
	H6.2v2.1H8.3z"/>
<path class="st0" d="M21.6,15.6c-0.5,0-1-0.4-1-1v-2.3c0-0.5,0.4-1,1-1H24c0.5,0,1,0.4,1,1v2.3c0,0.5-0.4,1-1,1H21.6z M23.8,14.5
	l0-2.1h-2.1v2.1H23.8z"/>
<path class="st0" d="M6,23.8c-0.5,0-1-0.4-1-1v-2.3c0-0.5,0.4-1,1-1h2.3c0.5,0,1,0.4,1,1v2.3c0,0.5-0.4,1-1,1H6z M8.3,22.7l0-2.1
	H6.2v2.1H8.3z"/>
<path class="st0" d="M21.6,23.8c-0.5,0-1-0.4-1-1v-2.3c0-0.5,0.4-1,1-1H24c0.5,0,1,0.4,1,1v2.3c0,0.5-0.4,1-1,1H21.6z M23.8,22.7
	l0-2.1h-2.1v2.1H23.8z"/>
<path class="st0" d="M14.8,25.7c-2.1,0-3.8-1.7-3.8-3.8v-0.4c0-2.1,1.7-3.8,3.8-3.8h0.4c0.6,0,1.2,0.1,1.7,0.4l0.4-0.8
	c0.1-0.2,0.3-0.3,0.5-0.3c0.1,0,0.2,0,0.3,0.1c0.3,0.1,0.4,0.5,0.2,0.7l-0.5,0.9c0.8,0.7,1.2,1.7,1.2,2.7v0.4c0,2.1-1.7,3.8-3.8,3.8
	H14.8z M14.8,18.8c-1.5,0-2.7,1.2-2.7,2.7v0.4c0,1.5,1.2,2.7,2.7,2.7h0.4c1.5,0,2.7-1.2,2.7-2.7v-0.4c0-0.6-0.2-1.2-0.6-1.7
	l-1.8,3.4c-0.1,0.2-0.3,0.3-0.5,0.3c0,0,0,0,0,0c-0.2,0-0.4-0.1-0.5-0.2L13.1,21c-0.1-0.1-0.1-0.3-0.1-0.4c0-0.1,0.1-0.3,0.2-0.3
	c0.1-0.1,0.2-0.1,0.3-0.1c0.2,0,0.4,0.1,0.5,0.2l0.9,1.4l1.4-2.7c-0.4-0.2-0.8-0.3-1.2-0.3H14.8z"/>
</svg>
