<?xml version="1.0" encoding="utf-8"?>
<!-- Generator: Adobe Illustrator 27.8.1, SVG Export Plug-In . SVG Version: 6.00 Build 0)  -->
<svg version="1.1" id="圖層_1" xmlns="http://www.w3.org/2000/svg" xmlns:xlink="http://www.w3.org/1999/xlink" x="0px" y="0px"
	 viewBox="0 0 30 30" style="enable-background:new 0 0 30 30;" xml:space="preserve">
<style type="text/css">
	.st0{fill:#FFFFFF;}
</style>
<g>
	<g>
		<path class="st0" d="M3,27.8c-1,0-1.8-0.8-1.8-1.8v-1.2c0-0.1,0-0.1,0-0.2c0-0.1,0-0.1,0.1-0.1l2.8-3.7v-6.1
			c0-0.3,0.2-0.5,0.5-0.5c0.3,0,0.5,0.2,0.5,0.5v5.7h19.7V6.6c0-0.4-0.3-0.8-0.7-0.8h-2c-0.3,0-0.5-0.2-0.5-0.5
			c0-0.3,0.2-0.5,0.5-0.5h2c1,0,1.8,0.8,1.8,1.9v14.1l2.8,3.7c0,0,0,0.1,0.1,0.1c0,0.1,0.1,0.1,0.1,0.2l0,1.3c0,1-0.8,1.8-1.8,1.8H3
			z M2.2,26c0,0.4,0.3,0.7,0.7,0.7H27c0.4,0,0.7-0.3,0.7-0.7v-0.7H2.2V26z M27.2,24.2l-2.1-2.7H4.9l-2.1,2.7H27.2z"/>
		<path class="st0" d="M28.7,24.7c0,0,0-0.1,0-0.1c0,0,0,0,0,0c0,0,0-0.1,0-0.1l-2.8-3.7V6.6c0-1-0.7-1.8-1.7-1.8h-2
			c-0.2,0-0.4,0.2-0.4,0.4c0,0.2,0.2,0.4,0.4,0.4h2c0.5,0,0.8,0.4,0.8,0.9v13.9H5v-5.9c0-0.2-0.2-0.4-0.4-0.4
			c-0.2,0-0.4,0.2-0.4,0.4v6.1l-2.8,3.7c0,0,0,0,0,0.1c0,0,0,0,0,0c0,0,0,0.1,0,0.1c0,0,0,0,0,0V26c0,0.9,0.7,1.7,1.7,1.7H27
			c0.9,0,1.7-0.7,1.7-1.7L28.7,24.7C28.7,24.7,28.7,24.7,28.7,24.7z M4.8,21.4h20.3l2.3,3H2.6L4.8,21.4z M27.9,26
			c0,0.5-0.4,0.8-0.8,0.8H3c-0.5,0-0.8-0.4-0.8-0.8v-0.8h25.7V26z"/>
	</g>
	<g>
		<path class="st0" d="M7.1,19.1c-0.3,0-0.5-0.2-0.5-0.5v-5.4H3c-1,0-1.8-0.8-1.8-1.8V4C1.2,3,2,2.2,3,2.2h15.8c1,0,1.8,0.8,1.8,1.8
			v3.2h2.3c0.3,0,0.5,0.2,0.5,0.5v10.8c0,0.3-0.2,0.5-0.5,0.5H7.1z M22.4,18V8.3h-1.8v3.1c0,1-0.8,1.8-1.8,1.8h-1.4v2.4
			c0,0.2-0.1,0.4-0.3,0.5c-0.1,0-0.2,0.1-0.2,0.1c-0.1,0-0.2,0-0.3-0.1l-4-2.8h-5V18H22.4z M3,3.3C2.6,3.3,2.2,3.6,2.2,4v7.3
			c0,0.4,0.3,0.7,0.7,0.7h9.8c0.1,0,0.2,0,0.3,0.1l3.3,2.3v-1.9c0-0.3,0.2-0.5,0.5-0.5h1.9c0.4,0,0.7-0.3,0.7-0.7V4
			c0-0.4-0.3-0.7-0.7-0.7H3z"/>
		<path class="st0" d="M3,13h3.7v5.5c0,0.2,0.2,0.4,0.4,0.4h15.8c0.2,0,0.4-0.2,0.4-0.4V7.7c0-0.2-0.2-0.4-0.4-0.4h-2.4V4
			c0-0.9-0.7-1.7-1.7-1.7H3C2,2.4,1.3,3.1,1.3,4v7.3C1.3,12.3,2,13,3,13z M20.5,11.3V8.1h2v10H7.5V13h5.1l4,2.9
			c0.1,0.1,0.2,0.1,0.2,0.1c0.1,0,0.1,0,0.2,0c0.1-0.1,0.2-0.2,0.2-0.4V13h1.5C19.7,13,20.5,12.3,20.5,11.3z M2.1,4
			c0-0.5,0.4-0.8,0.8-0.8h15.8c0.5,0,0.8,0.4,0.8,0.8v7.3c0,0.5-0.4,0.8-0.8,0.8h-1.9c-0.2,0-0.4,0.2-0.4,0.4v2.1L13,12.3
			c-0.1-0.1-0.2-0.1-0.2-0.1H3c-0.5,0-0.8-0.4-0.8-0.8V4z"/>
	</g>
	<g>
		<path class="st0" d="M11.3,6.6c-0.3,0-0.5-0.2-0.5-0.5c0-0.3,0.2-0.5,0.5-0.5h5.4c0.3,0,0.5,0.2,0.5,0.5c0,0.3-0.2,0.5-0.5,0.5
			H11.3z"/>
		<path class="st0" d="M11.3,6.5h5.4c0.2,0,0.4-0.2,0.4-0.4c0-0.2-0.2-0.4-0.4-0.4h-5.4c-0.2,0-0.4,0.2-0.4,0.4
			C10.9,6.3,11.1,6.5,11.3,6.5z"/>
	</g>
	<g>
		<path class="st0" d="M5.1,6.6C4.8,6.6,4.5,6.3,4.5,6c0-0.3,0.2-0.5,0.5-0.5h3.7c0.3,0,0.5,0.2,0.5,0.5c0,0.3-0.2,0.5-0.5,0.5H5.1z
			"/>
		<path class="st0" d="M5.1,6.5h3.7C9,6.5,9.2,6.3,9.2,6c0-0.2-0.2-0.4-0.4-0.4H5.1C4.8,5.6,4.7,5.8,4.7,6C4.7,6.3,4.8,6.5,5.1,6.5z
			"/>
	</g>
	<g>
		<path class="st0" d="M5.1,9.8c-0.3,0-0.5-0.2-0.5-0.5c0-0.3,0.2-0.5,0.5-0.5h8.7c0.3,0,0.5,0.2,0.5,0.5c0,0.3-0.2,0.5-0.5,0.5H5.1
			z"/>
		<path class="st0" d="M5.1,9.7h8.7c0.2,0,0.4-0.2,0.4-0.4c0-0.2-0.2-0.4-0.4-0.4H5.1c-0.2,0-0.4,0.2-0.4,0.4
			C4.7,9.5,4.8,9.7,5.1,9.7z"/>
	</g>
</g>
</svg>
