<?xml version="1.0" encoding="utf-8"?>
<!-- Generator: Adobe Illustrator 27.8.1, SVG Export Plug-In . SVG Version: 6.00 Build 0)  -->
<svg version="1.1" id="圖層_1" xmlns="http://www.w3.org/2000/svg" xmlns:xlink="http://www.w3.org/1999/xlink" x="0px" y="0px"
	 viewBox="0 0 30 30" style="enable-background:new 0 0 30 30;" xml:space="preserve">
<style type="text/css">
	.st0{fill:#FFFFFF;}
</style>
<g>
	<g id="_x31_973_x2C__Check_x2C__Email_x2C__Find_x2C__Search">
		<g>
			<path class="st0" d="M28,1.1H1.7c-0.3,0-0.6,0.3-0.6,0.6V20c0,0.3,0.3,0.6,0.6,0.6H8c0.3,0,0.6-0.3,0.6-0.6
				c0-0.3-0.3-0.6-0.6-0.6H2.3V2.2h25.2v17.1h-1.2c-0.3,0-0.6,0.3-0.6,0.6c0,0.3,0.3,0.6,0.6,0.6H28c0.3,0,0.6-0.3,0.6-0.6V1.7
				C28.6,1.3,28.3,1.1,28,1.1z"/>
			<path class="st0" d="M22.3,17.1c0-2.8-2.3-5.2-5.2-5.2c-2.8,0-5.2,2.3-5.2,5.2c0,2.8,2.3,5.2,5.2,5.2
				C20,22.3,22.3,19.9,22.3,17.1z M17.2,21.1c-1.6,0-3-0.9-3.6-2.3h3.6c0.3,0,0.6-0.3,0.6-0.6s-0.3-0.6-0.6-0.6h-3.9
				c-0.4-2.4,1.5-4.6,3.9-4.6c1.6,0,3,0.9,3.6,2.3h-3.6c-0.3,0-0.6,0.3-0.6,0.6c0,0.3,0.3,0.6,0.6,0.6h3.9
				C21.5,18.9,19.6,21.1,17.2,21.1z"/>
			<path class="st0" d="M23.8,20.5c0.5-1,0.8-2.2,0.8-3.4c0-4.1-3.3-7.4-7.4-7.4c-4,0-7.4,3.4-7.4,7.4s3.3,7.4,7.4,7.4
				c1.2,0,2.3-0.3,3.4-0.8l4.1,4.1c0.9,0.9,2.3,0.9,3.2,0c0.9-0.9,0.9-2.3,0-3.2L23.8,20.5z M10.9,17.1c0-3.5,2.8-6.3,6.3-6.3
				c3.5,0,6.3,2.8,6.3,6.3c0,3.5-2.8,6.3-6.3,6.3C13.7,23.4,10.9,20.5,10.9,17.1z M27.1,27.1c-0.4,0.4-1.2,0.4-1.6,0l-3.9-3.9
				c0.6-0.4,1.2-1,1.6-1.6l3.9,3.9C27.6,25.9,27.6,26.6,27.1,27.1z"/>
			<path class="st0" d="M16.3,27.5L14,26.3c-0.2-0.1-0.4-0.1-0.5,0l-2,1l-2-1c-0.2-0.1-0.4-0.1-0.5,0l-2,1l-2-1
				c-0.1-0.1-0.3-0.1-0.4,0l-2.9,1.1c-0.3,0.1-0.4,0.4-0.3,0.8c0.1,0.3,0.4,0.4,0.8,0.3l2.6-1l2.1,1c0.2,0.1,0.4,0.1,0.5,0l2-1l2,1
				c0.2,0.1,0.4,0.1,0.5,0l2-1l2,1c0.3,0.1,0.6,0,0.8-0.3C16.7,27.9,16.5,27.6,16.3,27.5z"/>
			<path class="st0" d="M25.7,9.1c0.3,0,0.6-0.3,0.6-0.6V3.9c0-0.3-0.3-0.6-0.6-0.6h-4.6c-0.3,0-0.6,0.3-0.6,0.6v4.6
				c0,0.3,0.3,0.6,0.6,0.6H25.7L25.7,9.1z M21.7,4.5h3.4v3.4h-3.4V4.5z"/>
			<path class="st0" d="M4,10.8h4c0.3,0,0.6-0.3,0.6-0.6c0-0.3-0.3-0.6-0.6-0.6H4c-0.3,0-0.6,0.3-0.6,0.6C3.4,10.5,3.7,10.8,4,10.8z
				"/>
			<path class="st0" d="M4,13.1h4c0.3,0,0.6-0.3,0.6-0.6c0-0.3-0.3-0.6-0.6-0.6H4c-0.3,0-0.6,0.3-0.6,0.6C3.4,12.8,3.7,13.1,4,13.1z
				"/>
			<path class="st0" d="M4,15.4h4c0.3,0,0.6-0.3,0.6-0.6c0-0.3-0.3-0.6-0.6-0.6H4c-0.3,0-0.6,0.3-0.6,0.6C3.4,15.1,3.7,15.4,4,15.4z
				"/>
			<rect x="3.4" y="3.4" class="st0" width="1.1" height="1.1"/>
			<rect x="5.7" y="3.4" class="st0" width="1.1" height="1.1"/>
			<rect x="8" y="3.4" class="st0" width="1.1" height="1.1"/>
			<rect x="10.3" y="3.4" class="st0" width="1.1" height="1.1"/>
			<rect x="12.6" y="3.4" class="st0" width="1.1" height="1.1"/>
		</g>
	</g>
	<g id="Layer_1_00000060728450623788773890000014897530207046595740_">
	</g>
</g>
</svg>
