<?xml version="1.0" encoding="utf-8"?>
<!-- Generator: Adobe Illustrator 27.8.1, SVG Export Plug-In . SVG Version: 6.00 Build 0)  -->
<svg version="1.1" id="圖層_1" xmlns="http://www.w3.org/2000/svg" xmlns:xlink="http://www.w3.org/1999/xlink" x="0px" y="0px"
	 viewBox="0 0 30 30" style="enable-background:new 0 0 30 30;" xml:space="preserve">
<style type="text/css">
	.st0{fill:#FFFFFF;}
</style>
<g>
	<g id="_x33_43_x2C__Chat_x2C__conversation_x2C__messages_x2C__bubble">
		<g>
			<circle class="st0" cx="13.9" cy="13.7" r="1.2"/>
			<circle class="st0" cx="17.4" cy="13.7" r="1.2"/>
			<circle class="st0" cx="20.8" cy="13.7" r="1.2"/>
			<path class="st0" d="M29.1,27.3l-2.9-6.7c1.5-1.9,2.4-4.4,2.4-6.8c0-6.9-6.3-12.2-13.2-11C14.1,2.2,12.8,2,11.4,2
				C5.7,2,1.1,6.6,1.1,12.3c0,2.3,0.8,4.5,2.2,6.3l-2.7,6.2c-0.1,0.2,0,0.5,0.1,0.6c0.2,0.2,0.5,0.2,0.6,0.1l6.7-3.5
				c0.8,0.3,1.7,0.5,2.6,0.5c3.1,2.3,7,2.8,10.3,1.6l7.2,3.8c0.2,0.1,0.5,0.1,0.6-0.1C29.2,27.8,29.2,27.5,29.1,27.3z M8.2,20.9
				c-0.1,0-0.3,0-0.5,0l-5.5,2.9l2.2-5.1c0.1-0.2,0-0.4-0.1-0.6c-1.4-1.7-2.1-3.7-2.1-5.9c0-5.8,5.4-10.2,11.1-9
				C6,6.2,3.9,15.4,9.2,21.2C8.8,21.1,8.6,21,8.2,20.9z M21.4,23.1C21.2,23,21,23,20.9,23c-1.1,0.4-2.3,0.6-3.5,0.6
				c-5.4,0-10-4.4-10-10c0-4.8,3.4-8.9,8-9.8c6.2-1.2,12,3.5,12,9.8c0,2.3-0.8,4.6-2.3,6.4C25,20.2,25,20.5,25,20.6l2.4,5.6
				L21.4,23.1z"/>
		</g>
	</g>
	<g id="Layer_1_00000034087785913530052000000002397494407313544591_">
	</g>
</g>
</svg>
