<?xml version="1.0" encoding="utf-8"?>
<!-- Generator: Adobe Illustrator 27.8.1, SVG Export Plug-In . SVG Version: 6.00 Build 0)  -->
<svg version="1.1" id="圖層_1" xmlns="http://www.w3.org/2000/svg" xmlns:xlink="http://www.w3.org/1999/xlink" x="0px" y="0px"
	 viewBox="0 0 30 30" style="enable-background:new 0 0 30 30;" xml:space="preserve">
<style type="text/css">
	.st0{fill:#FFFFFF;}
</style>
<g>
	<path class="st0" d="M26.8,29H6.6c-2.1,0-3.8-1.7-3.8-3.8s1.7-3.8,3.8-3.8h20.2c0.3,0,0.5,0.2,0.5,0.5v6.7C27.2,28.8,27,29,26.8,29
		z M6.6,22.3c-1.6,0-2.9,1.3-2.9,2.9S5,28,6.6,28h19.7v-5.7H6.6z"/>
	<path class="st0" d="M26.8,29H9.5c-1.8,0-3.3-1.7-3.3-3.8s1.5-3.8,3.3-3.8h17.3c0.3,0,0.5,0.2,0.5,0.5v6.7C27.2,28.8,27,29,26.8,29
		z M9.5,22.3c-1.3,0-2.4,1.3-2.4,2.9S8.2,28,9.5,28h16.8v-5.7H9.5z"/>
	<path class="st0" d="M3.2,25.6c-0.3,0-0.5-0.2-0.5-0.5V4.8C2.8,2.7,4.5,1,6.6,1h20.2c0.3,0,0.5,0.2,0.5,0.5v20.3
		c0,0.3-0.2,0.5-0.5,0.5H6.6c-1.6,0-2.9,1.3-2.9,2.9C3.7,25.4,3.5,25.6,3.2,25.6z M6.6,2C5,2,3.7,3.3,3.7,4.8v17.8
		c0.7-0.8,1.7-1.3,2.9-1.3h19.7V2H6.6z"/>
	<path class="st0" d="M24.4,26.4H6.7c-0.3,0-0.5-0.2-0.5-0.5c0-0.3,0.2-0.5,0.5-0.5h17.2v-3.6c0-0.3,0.2-0.5,0.5-0.5
		c0.3,0,0.5,0.2,0.5,0.5v4.1C24.8,26.2,24.6,26.4,24.4,26.4z"/>
	<path class="st0" d="M23.7,7.5c-0.1,0-0.2,0-0.2-0.1l-2.2-1.3L19,7.4c-0.1,0.1-0.3,0.1-0.5,0c-0.1-0.1-0.2-0.2-0.2-0.4V1.5
		c0-0.3,0.2-0.5,0.5-0.5h4.9c0.3,0,0.5,0.2,0.5,0.5V7c0,0.2-0.1,0.3-0.2,0.4C23.9,7.4,23.8,7.5,23.7,7.5z M21.2,5.1
		c0.1,0,0.2,0,0.2,0.1l1.7,1V2h-4v4.2l1.7-1C21.1,5.1,21.2,5.1,21.2,5.1z"/>
	<path class="st0" d="M6.6,22.3c-0.3,0-0.5-0.2-0.5-0.5V1.5C6.1,1.2,6.3,1,6.6,1c0.3,0,0.5,0.2,0.5,0.5v20.3
		C7.1,22.1,6.8,22.3,6.6,22.3z"/>
	<path class="st0" d="M21.5,15.9c-1.4,0-2.5-1.1-2.5-2.5c0-0.3,0.2-0.5,0.5-0.5h4.1c0.3,0,0.5,0.2,0.5,0.5
		C24.1,14.8,22.9,15.9,21.5,15.9z M20,13.9c0.2,0.6,0.8,1.1,1.5,1.1s1.3-0.5,1.5-1.1H20z"/>
	<path class="st0" d="M23.1,13.9c-0.2,0-0.4-0.1-0.5-0.3l-1.1-3.2l-1.1,3.2c-0.1,0.2-0.4,0.4-0.6,0.3c-0.2-0.1-0.4-0.4-0.3-0.6
		l1.5-4.5c0.1-0.2,0.2-0.3,0.5-0.3c0.2,0,0.4,0.1,0.5,0.3l1.5,4.5c0.1,0.2,0,0.5-0.3,0.6C23.2,13.9,23.1,13.9,23.1,13.9z"/>
	<path class="st0" d="M21.5,9.4h-9.7c-0.3,0-0.5-0.2-0.5-0.5s0.2-0.5,0.5-0.5h9.7c0.3,0,0.5,0.2,0.5,0.5S21.8,9.4,21.5,9.4z"/>
	<path class="st0" d="M11.9,15.9c-1.4,0-2.5-1.1-2.5-2.5c0-0.3,0.2-0.5,0.5-0.5h4.1c0.3,0,0.5,0.2,0.5,0.5
		C14.4,14.8,13.3,15.9,11.9,15.9z M10.3,13.9c0.2,0.6,0.8,1.1,1.5,1.1c0.7,0,1.3-0.5,1.5-1.1H10.3z"/>
	<path class="st0" d="M13.4,13.9c-0.2,0-0.4-0.1-0.5-0.3l-1.1-3.2l-1.1,3.2c-0.1,0.2-0.4,0.4-0.6,0.3c-0.2-0.1-0.4-0.4-0.3-0.6
		l1.5-4.5c0.1-0.2,0.2-0.3,0.5-0.3c0.2,0,0.4,0.1,0.5,0.3l1.5,4.5c0.1,0.2,0,0.5-0.3,0.6C13.5,13.9,13.5,13.9,13.4,13.9z"/>
	<path class="st0" d="M16.7,16.7c-0.3,0-0.5-0.2-0.5-0.5V8.1c0-0.3,0.2-0.5,0.5-0.5s0.5,0.2,0.5,0.5v8.1
		C17.2,16.5,17,16.7,16.7,16.7z"/>
	<path class="st0" d="M18.7,18.6h-4c-0.3,0-0.5-0.2-0.5-0.5c0-1.3,1.1-2.4,2.4-2.4h0.2c1.3,0,2.4,1.1,2.4,2.4
		C19.2,18.4,18.9,18.6,18.7,18.6z M15.3,17.6h2.9c-0.2-0.5-0.7-0.9-1.3-0.9h-0.2C16,16.7,15.5,17.1,15.3,17.6z"/>
	<path class="st0" d="M19.8,18.6h-6.2c-0.3,0-0.5-0.2-0.5-0.5c0-0.3,0.2-0.5,0.5-0.5h6.2c0.3,0,0.5,0.2,0.5,0.5
		C20.2,18.4,20,18.6,19.8,18.6z"/>
</g>
</svg>
