<?xml version="1.0" encoding="utf-8"?>
<!-- Generator: Adobe Illustrator 27.8.1, SVG Export Plug-In . SVG Version: 6.00 Build 0)  -->
<svg version="1.1" id="圖層_1" xmlns="http://www.w3.org/2000/svg" xmlns:xlink="http://www.w3.org/1999/xlink" x="0px" y="0px"
	 viewBox="0 0 30 30" style="enable-background:new 0 0 30 30;" xml:space="preserve">
<style type="text/css">
	.st0{fill:#FFFFFF;}
</style>
<g>
	<path class="st0" d="M28.2,23.6h-2.1c-1.2,0-2.2-1-2.2-2.2v-7.9c0-1.2,1-2.2,2.2-2.2h2.1c0.3,0,0.5,0.2,0.5,0.5v4.1
		c0,0.3-0.2,0.5-0.5,0.5c-0.3,0-0.5-0.2-0.5-0.5v-3.7h-1.6c-0.7,0-1.3,0.6-1.3,1.3v7.9c0,0.7,0.6,1.3,1.3,1.3h1.6v-4.2
		c0-0.3,0.2-0.5,0.5-0.5c0.3,0,0.5,0.2,0.5,0.5v4.7C28.7,23.4,28.5,23.6,28.2,23.6z"/>
	<path class="st0" d="M24.4,22h-2.5c-0.1,0-0.2,0-0.3-0.1l-4.9-4.6l-2.3,1.8c-0.6,0.4-1.3,0.4-1.9,0c-0.4-0.3-0.6-0.7-0.6-1.1
		s0.1-0.9,0.4-1.2l2.4-2.6c0.5-0.6,1.2-0.9,2-0.9h7.8c0.3,0,0.5,0.2,0.5,0.5v7.8C24.9,21.8,24.7,22,24.4,22z M22.1,21h1.8v-6.8h-7.3
		c-0.5,0-1,0.2-1.3,0.6l-2.4,2.6c-0.1,0.1-0.2,0.3-0.2,0.5c0,0.2,0.1,0.3,0.3,0.5c0.2,0.2,0.5,0.2,0.8,0l2.6-2
		c0.2-0.1,0.4-0.1,0.6,0L22.1,21z"/>
	<path class="st0" d="M21.7,24.3c-0.3,0-0.7-0.1-1-0.3l-4.1-3.4c-0.2-0.2-0.2-0.5-0.1-0.7c0.2-0.2,0.5-0.2,0.7-0.1l4.1,3.4
		c0.2,0.2,0.6,0.2,0.8-0.1c0.1-0.1,0.2-0.3,0.2-0.4c0-0.2-0.1-0.3-0.2-0.4l-0.5-0.4c-0.2-0.2-0.2-0.5-0.1-0.7
		c0.2-0.2,0.5-0.2,0.7-0.1l0.5,0.4c0.3,0.3,0.5,0.7,0.5,1.1c0,0.4-0.1,0.8-0.4,1.1C22.6,24.1,22.2,24.3,21.7,24.3z"/>
	<path class="st0" d="M18.3,27.5c-0.4,0-0.8-0.1-1.1-0.4l-0.4-0.3c-0.2-0.2-0.2-0.5-0.1-0.7c0.2-0.2,0.5-0.2,0.7-0.1l0.4,0.4
		c0.3,0.2,0.7,0.2,1,0c0.1-0.1,0.2-0.3,0.2-0.5s-0.1-0.4-0.3-0.5l-2.2-1.8c-0.2-0.2-0.2-0.5-0.1-0.7s0.5-0.2,0.7-0.1l2.2,1.8
		c0.4,0.3,0.6,0.7,0.6,1.2c0,0.5-0.2,0.9-0.5,1.3C19.1,27.3,18.7,27.5,18.3,27.5z"/>
	<path class="st0" d="M21,26.6c-0.4,0-0.7-0.1-1-0.4l-5.4-4.5c-0.2-0.2-0.2-0.5-0.1-0.7c0.2-0.2,0.5-0.2,0.7-0.1l5.4,4.5
		c0.3,0.2,0.6,0.2,0.9,0c0.1-0.1,0.2-0.3,0.2-0.5c0-0.2-0.1-0.3-0.2-0.5l-1.6-1.4c-0.2-0.2-0.2-0.5,0-0.7c0.2-0.2,0.5-0.2,0.7,0
		l1.6,1.4c0.3,0.3,0.5,0.7,0.5,1.1c0,0.4-0.2,0.9-0.5,1.2C21.8,26.4,21.4,26.6,21,26.6z"/>
	<path class="st0" d="M10,25.1c-0.4,0-0.7-0.1-1-0.4c-0.3-0.3-0.5-0.7-0.6-1.1c0-0.4,0.1-0.8,0.4-1.2l0.1-0.1
		c0.3-0.4,0.8-0.6,1.3-0.5c0.5,0,0.9,0.2,1.2,0.6c0.5,0.6,0.4,1.5-0.1,2l-0.1,0.1C10.9,25,10.4,25.1,10,25.1z M10.1,22.8
		c-0.2,0-0.4,0.1-0.5,0.2l-0.1,0.1c-0.1,0.1-0.2,0.3-0.1,0.5c0,0.2,0.1,0.3,0.2,0.4c0.3,0.2,0.6,0.2,0.9-0.1l0.1-0.1
		c0.2-0.2,0.2-0.6,0.1-0.8C10.5,22.9,10.4,22.8,10.1,22.8C10.1,22.8,10.1,22.8,10.1,22.8z"/>
	<path class="st0" d="M8.1,22.8c-0.1,0-0.1,0-0.2,0c-0.2-0.1-0.4-0.1-0.6-0.1H5.9c-0.3,0-0.5-0.2-0.5-0.5v-8.5
		c0-0.3,0.2-0.5,0.5-0.5H12c0.8,0,1.5,0.3,2,0.9l0.6,0.7c0.2,0.2,0.2,0.5,0,0.7c-0.2,0.2-0.5,0.2-0.7,0l-0.6-0.7
		c-0.3-0.4-0.8-0.6-1.3-0.6H6.3v7.5h1c0.3,0,0.6,0.1,0.9,0.2c0.2,0.1,0.4,0.4,0.3,0.6C8.5,22.7,8.3,22.8,8.1,22.8z"/>
	<path class="st0" d="M15,29.4c-0.2,0-0.5-0.1-0.7-0.2l-0.7-0.6c-0.2-0.2-0.4-0.5-0.4-0.8c0-0.3,0.1-0.6,0.3-0.8
		c0.5-0.6,1.3-0.7,1.9-0.3c0.4,0.2,0.7,0.7,0.7,1.1c0.1,0.5-0.1,0.9-0.4,1.2C15.5,29.2,15.3,29.4,15,29.4z M14.7,27.4
		c-0.2,0-0.3,0.1-0.5,0.2c-0.1,0.1-0.1,0.1-0.1,0.1c0,0,0,0.1,0,0.1l0.7,0.6c0,0,0.1,0,0.2,0c0.1-0.1,0.2-0.3,0.2-0.5
		c0-0.1-0.1-0.3-0.3-0.4C14.9,27.4,14.8,27.4,14.7,27.4z"/>
	<path class="st0" d="M16.8,28.9c-0.2,0-0.4-0.1-0.4-0.3c-0.1-0.2,0-0.5,0.2-0.6c0.1,0,0.2-0.1,0.2-0.2c0.1-0.2,0.2-0.4,0.2-0.6
		c0-0.1,0-0.2-0.1-0.3l-0.2-0.3c-0.2-0.2-0.2-0.5,0-0.6c0.2-0.2,0.5-0.2,0.6,0c0.1,0.1,0.2,0.2,0.3,0.4c0,0,0,0,0,0
		c0.1,0.2,0.2,0.5,0.2,0.8c0,0.5-0.1,0.9-0.5,1.3c-0.2,0.2-0.3,0.3-0.5,0.4C16.9,28.9,16.8,28.9,16.8,28.9z"/>
	<path class="st0" d="M4.2,24.2H2.1c-0.3,0-0.5-0.2-0.5-0.5V22c0-0.3,0.2-0.5,0.5-0.5c0.3,0,0.5,0.2,0.5,0.5v1.2h1.6
		c0.7,0,1.3-0.6,1.3-1.3V14c0-0.7-0.6-1.3-1.3-1.3H2.6v6.5c0,0.3-0.2,0.5-0.5,0.5c-0.3,0-0.5-0.2-0.5-0.5v-7c0-0.3,0.2-0.5,0.5-0.5
		h2.1c1.2,0,2.2,1,2.2,2.2V22C6.4,23.2,5.4,24.2,4.2,24.2z"/>
	<path class="st0" d="M8.2,19.7c-0.3,0-0.5-0.2-0.5-0.5v-5.5c0-0.3,0.2-0.5,0.5-0.5c0.3,0,0.5,0.2,0.5,0.5v5.5
		C8.6,19.5,8.4,19.7,8.2,19.7z"/>
	<path class="st0" d="M11.7,26.5c-0.3,0-0.7-0.1-1-0.3c-0.3-0.3-0.5-0.7-0.6-1.1c0-0.4,0.1-0.9,0.4-1.2l0.5-0.6
		c0.6-0.6,1.5-0.6,2.1-0.1c0.3,0.3,0.5,0.7,0.5,1.1c0,0.4-0.1,0.8-0.4,1.1L12.8,26C12.5,26.3,12.1,26.5,11.7,26.5z M12.2,23.8
		c-0.2,0-0.3,0.1-0.4,0.2l-0.5,0.6c-0.1,0.1-0.2,0.3-0.2,0.5c0,0.2,0.1,0.3,0.2,0.4c0.2,0.2,0.6,0.2,0.8-0.1l0.5-0.6
		c0.1-0.1,0.2-0.3,0.2-0.4c0-0.2-0.1-0.3-0.2-0.4C12.5,23.8,12.4,23.8,12.2,23.8z"/>
	<path class="st0" d="M13.3,27.9c-0.3,0-0.7-0.1-1-0.4c-0.3-0.3-0.5-0.7-0.6-1.1c0-0.4,0.1-0.8,0.4-1.1l0.2-0.2
		c0.5-0.6,1.5-0.7,2.1-0.2c0.3,0.3,0.5,0.7,0.6,1.1c0,0.4-0.1,0.8-0.4,1.2l-0.2,0.2C14.2,27.7,13.8,27.9,13.3,27.9z M13.5,25.5
		c-0.2,0-0.3,0.1-0.4,0.2l-0.2,0.2c-0.1,0.1-0.2,0.3-0.2,0.4c0,0.2,0.1,0.3,0.2,0.4c0.2,0.2,0.6,0.2,0.8-0.1l0.2-0.2
		c0.1-0.1,0.2-0.3,0.2-0.4c0-0.2-0.1-0.3-0.2-0.4C13.8,25.6,13.7,25.5,13.5,25.5z"/>
	<path class="st0" d="M17.1,26.8c-0.1,0-0.2,0-0.3-0.1l-1.3-1.2c-0.2-0.2-0.2-0.5,0-0.7c0.2-0.2,0.5-0.2,0.7,0l1.3,1.2
		c0.2,0.2,0.2,0.5,0,0.7C17.3,26.8,17.2,26.8,17.1,26.8z"/>
	<path class="st0" d="M24.4,16c-0.3,0-0.5-0.2-0.5-0.5V4.4H6.4v11.1c0,0.3-0.2,0.5-0.5,0.5c-0.3,0-0.5-0.2-0.5-0.5V4
		c0-0.3,0.2-0.5,0.5-0.5h18.5c0.3,0,0.5,0.2,0.5,0.5v11.5C24.9,15.8,24.7,16,24.4,16z"/>
	<path class="st0" d="M27.2,10.5c-0.3,0-0.5-0.2-0.5-0.5V1.7H9.2V4c0,0.3-0.2,0.5-0.5,0.5C8.5,4.4,8.3,4.2,8.3,4V1.2
		c0-0.3,0.2-0.5,0.5-0.5h18.5c0.3,0,0.5,0.2,0.5,0.5V10C27.7,10.3,27.5,10.5,27.2,10.5z"/>
	<path class="st0" d="M20.4,7.1H9.5c-0.3,0-0.5-0.2-0.5-0.5c0-0.3,0.2-0.5,0.5-0.5h10.9c0.3,0,0.5,0.2,0.5,0.5
		C20.9,6.9,20.7,7.1,20.4,7.1z"/>
	<path class="st0" d="M20.4,9.6H9.5c-0.3,0-0.5-0.2-0.5-0.5s0.2-0.5,0.5-0.5h10.9c0.3,0,0.5,0.2,0.5,0.5S20.7,9.6,20.4,9.6z"/>
	<path class="st0" d="M20.4,12H9.5c-0.3,0-0.5-0.2-0.5-0.5c0-0.3,0.2-0.5,0.5-0.5h10.9c0.3,0,0.5,0.2,0.5,0.5
		C20.9,11.8,20.7,12,20.4,12z"/>
</g>
</svg>
