<?xml version="1.0" encoding="utf-8"?>
<!-- Generator: Adobe Illustrator 27.8.1, SVG Export Plug-In . SVG Version: 6.00 Build 0)  -->
<svg version="1.1" id="圖層_1" xmlns="http://www.w3.org/2000/svg" xmlns:xlink="http://www.w3.org/1999/xlink" x="0px" y="0px"
	 viewBox="0 0 30 30" style="enable-background:new 0 0 30 30;" xml:space="preserve">
<style type="text/css">
	.st0{fill:#FFFFFF;}
</style>
<g>
	<path class="st0" d="M27.6,28.4H2c-0.3,0-0.5-0.2-0.5-0.5v-2.2c0-0.3,0.2-0.5,0.5-0.5h25.7c0.3,0,0.5,0.2,0.5,0.5v2.2
		C28.1,28.1,27.9,28.4,27.6,28.4z M2.4,27.4h24.7v-1.2H2.4V27.4z"/>
	<path class="st0" d="M28.6,28.4H1c-0.3,0-0.5-0.2-0.5-0.5c0-0.3,0.2-0.5,0.5-0.5h27.7c0.3,0,0.5,0.2,0.5,0.5
		C29.1,28.1,28.9,28.4,28.6,28.4z"/>
	<path class="st0" d="M25.4,7.8H4.2C4,7.8,3.8,7.6,3.8,7.4C3.7,7.2,3.8,7,4,6.9l10.6-5.5c0.1-0.1,0.3-0.1,0.4,0l10.6,5.5
		c0.2,0.1,0.3,0.3,0.2,0.5C25.8,7.6,25.6,7.8,25.4,7.8z M6.2,6.8h17.2l-8.6-4.4L6.2,6.8z"/>
	<path class="st0" d="M28.1,12.1H1.5c-0.3,0-0.5-0.2-0.5-0.5V9.4c0-0.3,0.2-0.5,0.5-0.5h26.6c0.3,0,0.5,0.2,0.5,0.5v2.2
		C28.6,11.9,28.4,12.1,28.1,12.1z M2,11.1h25.7V9.9H2V11.1z"/>
	<path class="st0" d="M27,9.9H2.6c-0.3,0-0.5-0.2-0.5-0.5V8.8c0-1.1,0.9-1.9,1.9-1.9h21.5c1.1,0,1.9,0.9,1.9,1.9v0.7
		C27.5,9.7,27.3,9.9,27,9.9z M3.1,8.9h23.5V8.8c0-0.5-0.4-1-1-1H4.1c-0.5,0-1,0.4-1,1V8.9z"/>
	<path class="st0" d="M8.2,14.3H3.4c-0.2,0-0.4-0.1-0.5-0.3l-0.8-2.2c-0.1-0.1,0-0.3,0.1-0.4c0.1-0.1,0.2-0.2,0.4-0.2h6.3
		c0.2,0,0.3,0.1,0.4,0.2c0.1,0.1,0.1,0.3,0.1,0.4L8.6,14C8.5,14.2,8.4,14.3,8.2,14.3z M3.7,13.4h4.1l0.5-1.3h-5L3.7,13.4z"/>
	<path class="st0" d="M8.9,26.2H2.6c-0.2,0-0.3-0.1-0.4-0.2c-0.1-0.1-0.1-0.3-0.1-0.4l0.8-2.2C3,23.1,3.2,23,3.4,23h4.8
		c0.2,0,0.4,0.1,0.5,0.3l0.8,2.2c0.1,0.1,0,0.3-0.1,0.4C9.2,26.1,9.1,26.2,8.9,26.2z M3.3,25.2h5l-0.5-1.3H3.7L3.3,25.2z"/>
	<path class="st0" d="M8.2,23.9H3.4c-0.3,0-0.5-0.2-0.5-0.5v-9.6c0-0.3,0.2-0.5,0.5-0.5h4.8c0.3,0,0.5,0.2,0.5,0.5v9.6
		C8.6,23.7,8.4,23.9,8.2,23.9z M3.9,23h3.8v-8.6H3.9V23z"/>
	<path class="st0" d="M17.2,14.3h-4.8c-0.2,0-0.4-0.1-0.5-0.3l-0.8-2.2c-0.1-0.1,0-0.3,0.1-0.4c0.1-0.1,0.2-0.2,0.4-0.2H18
		c0.2,0,0.3,0.1,0.4,0.2c0.1,0.1,0.1,0.3,0.1,0.4L17.6,14C17.6,14.2,17.4,14.3,17.2,14.3z M12.8,13.4h4.1l0.5-1.3h-5L12.8,13.4z"/>
	<path class="st0" d="M18,26.2h-6.3c-0.2,0-0.3-0.1-0.4-0.2c-0.1-0.1-0.1-0.3-0.1-0.4l0.8-2.2c0.1-0.2,0.2-0.3,0.5-0.3h4.8
		c0.2,0,0.4,0.1,0.5,0.3l0.8,2.2c0.1,0.1,0,0.3-0.1,0.4C18.3,26.1,18.1,26.2,18,26.2z M12.3,25.2h5l-0.5-1.3h-4.1L12.3,25.2z"/>
	<path class="st0" d="M17.2,23.9h-4.8c-0.3,0-0.5-0.2-0.5-0.5v-9.6c0-0.3,0.2-0.5,0.5-0.5h4.8c0.3,0,0.5,0.2,0.5,0.5v9.6
		C17.7,23.7,17.4,23.9,17.2,23.9z M12.9,23h3.8v-8.6h-3.8V23z"/>
	<path class="st0" d="M26.2,14.3h-4.8c-0.2,0-0.4-0.1-0.5-0.3l-0.8-2.2c-0.1-0.1,0-0.3,0.1-0.4c0.1-0.1,0.2-0.2,0.4-0.2H27
		c0.2,0,0.3,0.1,0.4,0.2c0.1,0.1,0.1,0.3,0.1,0.4L26.7,14C26.6,14.2,26.4,14.3,26.2,14.3z M21.8,13.4h4.1l0.5-1.3h-5L21.8,13.4z"/>
	<path class="st0" d="M27,26.2h-6.3c-0.2,0-0.3-0.1-0.4-0.2c-0.1-0.1-0.1-0.3-0.1-0.4l0.8-2.2c0.1-0.2,0.2-0.3,0.5-0.3h4.8
		c0.2,0,0.4,0.1,0.5,0.3l0.8,2.2c0.1,0.1,0,0.3-0.1,0.4C27.3,26.1,27.2,26.2,27,26.2z M21.3,25.2h5l-0.5-1.3h-4.1L21.3,25.2z"/>
	<path class="st0" d="M26.2,23.9h-4.8c-0.3,0-0.5-0.2-0.5-0.5v-9.6c0-0.3,0.2-0.5,0.5-0.5h4.8c0.3,0,0.5,0.2,0.5,0.5v9.6
		C26.7,23.7,26.5,23.9,26.2,23.9z M21.9,23h3.8v-8.6h-3.8V23z"/>
</g>
</svg>
